<svg xmlns="http://www.w3.org/2000/svg" viewBox="0 0 123.29 72.21"><title>anotacao-familia</title><g id="Camada_2" data-name="Camada 2"><g id="Camada_1-2" data-name="Camada 1"><path d="M62.87,10.89a7.56,7.56,0,0,0-2.28,1,6.82,6.82,0,0,0-1.91,1.51,6.32,6.32,0,0,0-1.27,2.07,2.78,2.78,0,0,0,0,2.26A2.77,2.77,0,0,0,59.28,19a12.54,12.54,0,0,0,2.47.25,14.74,14.74,0,0,0,2.49-.12,7.13,7.13,0,0,0,2.43-.54,6.78,6.78,0,0,1-2.36,1,15.86,15.86,0,0,1-2.57.12,13.28,13.28,0,0,1-2.57-.27A3.21,3.21,0,0,1,57,18a3.29,3.29,0,0,1,0-2.66,7.24,7.24,0,0,1,1.36-2.24,7.65,7.65,0,0,1,2.06-1.61A6.7,6.7,0,0,1,62.87,10.89Z" style="fill:#010101"/><path d="M67.22,9.79c0,.36.06.71.11,1.06s-.07.68-.09,1a17.7,17.7,0,0,0,0,2.06,20.21,20.21,0,0,0,.23,2c.06.33.13.67.21,1l0,1.07c-.19-.31-.34-.63-.51-.95s-.15-.69-.21-1A18.31,18.31,0,0,1,66.75,14a16.52,16.52,0,0,1,0-2.11q0-.53.09-1A9.56,9.56,0,0,1,67.22,9.79Z" style="fill:#010101"/><path d="M71.41,10.52c.11.29.18.59.26.88l0,.89,0,1.78,0,1.78v.89c-.08.29-.13.59-.23.89-.11-.3-.18-.59-.27-.89v-.88l0-1.78,0-1.78,0-.89C71.25,11.11,71.31,10.82,71.41,10.52Z" style="fill:#010101"/><path d="M67.56,14.92c.11-.17.23-.29.34-.44l.45-.21.89-.43.89-.42.45-.21a5.09,5.09,0,0,1,.55,0c-.1.16-.23.29-.34.44l-.44.21-.9.42-.89.43-.44.21A5.28,5.28,0,0,1,67.56,14.92Z" style="fill:#010101"/><path d="M77.15,8.29a5.35,5.35,0,0,0-1.48,1.4,7.38,7.38,0,0,0-.92,1.76c-.12.29-.11.64,0,.7s.45,0,.78-.12l2-.58.93-.27-.69.69a10.07,10.07,0,0,0-2,2.78,10,10,0,0,0-.61,1.6A3.73,3.73,0,0,0,75,17c0,.22.09.32.32.39A4.77,4.77,0,0,0,77,17.36a10.56,10.56,0,0,0,1.64-.47c.53-.22,1.08-.4,1.62-.61l1.63-.67c-.49.33-1,.65-1.49,1a7.61,7.61,0,0,1-1.59.79,7.39,7.39,0,0,1-3.58.55,1,1,0,0,1-.49-.31.81.81,0,0,1-.19-.56,4,4,0,0,1,.18-.93,11,11,0,0,1,.64-1.68,10.45,10.45,0,0,1,2.06-2.92l.25.42-2,.58-.52.15a.83.83,0,0,1-.71-.12.82.82,0,0,1-.28-.66,2.13,2.13,0,0,1,.11-.59,4.34,4.34,0,0,1,1.11-1.85A4.88,4.88,0,0,1,77.15,8.29Z" style="fill:#010101"/><path d="M86.48,6.92a2.69,2.69,0,0,0-1.85.82,6.56,6.56,0,0,0-1.39,1.53,5,5,0,0,0-.81,1.87A2.17,2.17,0,0,0,82.91,13a3.39,3.39,0,0,0,1.73,1,9,9,0,0,0,2.08.24,8,8,0,0,0,2.08-.22,4.06,4.06,0,0,0,1.93-.78,4,4,0,0,1-1.81,1.27,8.67,8.67,0,0,1-2.2.23,9.18,9.18,0,0,1-2.2-.26,3.84,3.84,0,0,1-2-1.1,2.68,2.68,0,0,1-.59-2.22A5.3,5.3,0,0,1,82.83,9a6.75,6.75,0,0,1,1.5-1.66A2.73,2.73,0,0,1,86.48,6.92Z" style="fill:#010101"/><path d="M90.24,5.69c.17.64.34,1.27.54,1.89s.28,1.27.46,1.89a25.31,25.31,0,0,0,1.33,3.65l-.48.13a10.25,10.25,0,0,1,.51-4.53,10.87,10.87,0,0,1,1-2.07A7.93,7.93,0,0,1,95.18,5,11,11,0,0,0,94,6.92a9.38,9.38,0,0,0-.94,2,9.65,9.65,0,0,0-.48,4.3l.18,1.61-.66-1.48A27.07,27.07,0,0,1,90.76,9.6a17.8,17.8,0,0,1-.44-1.92A16.56,16.56,0,0,1,90.24,5.69Z" style="fill:#010101"/><path d="M93,8c.14.16.25.32.38.48A5.17,5.17,0,0,0,93.6,9a7.46,7.46,0,0,0,.47,1,7.23,7.23,0,0,0,.63.9,4.59,4.59,0,0,0,.36.41l.23.57a3.77,3.77,0,0,1-.59-.22c-.14-.15-.27-.29-.39-.44a8,8,0,0,1-.67-1,7.25,7.25,0,0,1-.51-1.05c-.07-.19-.13-.37-.19-.56A2.67,2.67,0,0,1,93,8Z" style="fill:#010101"/><path d="M100.67,2.72a2.15,2.15,0,0,0-2,1.54,5.83,5.83,0,0,0-.35,2.64,4.7,4.7,0,0,0,.78,2.5,2.47,2.47,0,0,0,2.22,1,2.76,2.76,0,0,0,2.13-1.26,3.33,3.33,0,0,0,.46-2.5,3.5,3.5,0,0,0-1.44-2.11,3.73,3.73,0,0,0-2.5-.92,3.81,3.81,0,0,1,2.79.51,4.07,4.07,0,0,1,1.64,2.42,3.82,3.82,0,0,1-.53,2.87,3.23,3.23,0,0,1-2.51,1.49A3,3,0,0,1,98.74,9.7a5.19,5.19,0,0,1-.88-2.77,6.32,6.32,0,0,1,.39-2.87A2.34,2.34,0,0,1,100.67,2.72Z" style="fill:#010101"/><path d="M104.62,2.54c.36.6.68,1.21,1,1.82s.56,1.26.85,1.89l1.64,3.81-.3-.14c.32-.08.51-.44.6-.85a13.17,13.17,0,0,0,.15-1.33A21.08,21.08,0,0,1,109.06,5a20.11,20.11,0,0,1,.84-2.63A13.56,13.56,0,0,1,111.31,0c-.36.85-.64,1.71-.94,2.56a19.67,19.67,0,0,0-.82,2.57,20.31,20.31,0,0,0-.47,2.66,12.11,12.11,0,0,1-.16,1.39,1.46,1.46,0,0,1-1,1.22l-.21.06-.08-.2L106,6.45c-.26-.65-.59-1.26-.79-1.92S104.81,3.21,104.62,2.54Z" style="fill:#010101"/><path d="M47.34,38.32a9.94,9.94,0,0,0-2.26,1.81,9.26,9.26,0,0,0-1.77,2.22c-.9,1.63-1.47,3.69-.68,5.38a2.94,2.94,0,0,0,2,1.65,4.18,4.18,0,0,0,2.64-.63,16.46,16.46,0,0,0,2.44-1.55A18.62,18.62,0,0,0,52,45.43a15.26,15.26,0,0,1-2,2.17,16.86,16.86,0,0,1-2.51,1.59,4.64,4.64,0,0,1-3,.68A3.44,3.44,0,0,1,42.18,48a5.08,5.08,0,0,1-.34-3,9,9,0,0,1,1-2.82,9.65,9.65,0,0,1,1.86-2.35A8.75,8.75,0,0,1,47.34,38.32Z" style="fill:#010101"/><path d="M54.56,38.53a2.72,2.72,0,0,0-2.28,1.53,4.23,4.23,0,0,0-.7,2.7,3.09,3.09,0,0,0,1.17,2.41,2.75,2.75,0,0,0,2.63.16,3.17,3.17,0,0,0,1.81-2,4.85,4.85,0,0,0,0-2.8,5,5,0,0,0-1.45-2.41,2,2,0,0,0-2.59-.33,2.23,2.23,0,0,1,2.91-.06,5.5,5.5,0,0,1,1.61,2.66,5.37,5.37,0,0,1,0,3.1,3.7,3.7,0,0,1-2.1,2.29,3.25,3.25,0,0,1-3.11-.21,3.61,3.61,0,0,1-1.38-2.79,4.83,4.83,0,0,1,.78-3A2.87,2.87,0,0,1,54.56,38.53Z" style="fill:#010101"/><path d="M57.41,36.52l1,3.88c.19.65.29,1.31.44,2l.41,2-.48,0c.49-1.31,0-2.76-.34-4.17a10.76,10.76,0,0,1-.23-1.1,5.54,5.54,0,0,1-.07-.57.83.83,0,0,1,.22-.72.7.7,0,0,1,.78-.06,1.82,1.82,0,0,1,.52.35,5.24,5.24,0,0,0,.84.65,2.68,2.68,0,0,0,1.9.52A2.51,2.51,0,0,0,64,38.07c.78-1.16.69-2.68.57-4.12l.5,0A25.06,25.06,0,0,0,66,38.84c.25.79.43,1.61.72,2.41s.58,1.58.93,2.35a24.26,24.26,0,0,1-1.2-2.25A18,18,0,0,1,65.53,39a26.07,26.07,0,0,1-.93-5l.5,0c.11,1.43.25,3.08-.66,4.43a3,3,0,0,1-1.92,1.34,3.21,3.21,0,0,1-2.26-.59,7.41,7.41,0,0,1-.9-.69c-.22-.24-.6-.39-.63-.3s0,.51,0,.84.14.7.22,1.06c.17.7.38,1.42.49,2.17a4.63,4.63,0,0,1-.16,2.3l-.3.81-.18-.85-.41-2c-.13-.66-.3-1.31-.39-2Z" style="fill:#010101"/><path d="M80.25,29.37c-.43,0-.54.47-.58.81s0,.75,0,1.13a19.45,19.45,0,0,1,0,2.29l-.26,4.56-.5,0,.26-4.74c0-.8.07-1.58.16-2.39a4,4,0,0,1,.93-2.32l.23-.24.17.29c.81,1.4,1.68,2.78,2.59,4.11l.7,1,.65,1,1.35,2c-.56-.6-1.1-1.21-1.63-1.83-.26-.32-.53-.63-.78-.95l-.7-1q-1.38-2-2.61-4.15l.4.05a3.47,3.47,0,0,0-.8,2c-.09.76-.11,1.56-.16,2.35l-.26,4.75-.5,0,.26-4.56a19.54,19.54,0,0,1,.22-2.28c0-.38.07-.75.16-1.15a1.54,1.54,0,0,1,.24-.54A.55.55,0,0,1,80.25,29.37Z" style="fill:#010101"/><path d="M77.33,35.89c.21-.24.44-.45.65-.68l.78-.46,1.56-.93,1.56-.94.78-.46c.31-.08.6-.18.91-.25-.21.24-.43.45-.65.68l-.78.46-1.56.94L79,35.18l-.78.46A8.68,8.68,0,0,1,77.33,35.89Z" style="fill:#010101"/><path d="M100.52,23.64a8.84,8.84,0,0,0-4.38,3.06,7.39,7.39,0,0,0-.71,1.13,1.27,1.27,0,0,0-.08,1.08c.14.25.58.14,1.05.06s.92-.15,1.4-.19a5.48,5.48,0,0,1,2.84.44,3,3,0,0,1,1.74,2.31,3.24,3.24,0,0,1-1,2.71,4.36,4.36,0,0,1-2.67,1.1l-.68,0,.49-.47,2.86-2.8c.49-.45,1-.88,1.51-1.32l1.53-1.3L103.05,31c-.46.49-.89,1-1.36,1.48l-2.86,2.8-.19-.43a3.89,3.89,0,0,0,2.36-1,2.75,2.75,0,0,0,.88-2.29,2.47,2.47,0,0,0-1.47-1.92,4.85,4.85,0,0,0-2.57-.39c-.45,0-.9.11-1.35.18a6.85,6.85,0,0,1-.72.11A.93.93,0,0,1,95,29.2a1.66,1.66,0,0,1,0-1.58,7.57,7.57,0,0,1,.76-1.22A7,7,0,0,1,100.52,23.64Z" style="fill:#010101"/><path d="M105.36,21.52a11.36,11.36,0,0,0,.09,2.8A10.42,10.42,0,0,0,106,27a7.3,7.3,0,0,0,1.31,2.37,1.83,1.83,0,0,0,1.08.58,2.1,2.1,0,0,0,1.22-.24,3,3,0,0,0,1.48-2.06,9.69,9.69,0,0,0,.14-2.75,23.68,23.68,0,0,0-.33-2.78,27,27,0,0,0-.41-2.8,21.56,21.56,0,0,1,.91,2.71,27.14,27.14,0,0,1,.33,2.84,9.8,9.8,0,0,1-.16,2.9,3.5,3.5,0,0,1-1.73,2.38,2.56,2.56,0,0,1-1.52.3,2.36,2.36,0,0,1-1.37-.73,7.84,7.84,0,0,1-1.42-2.55,10.92,10.92,0,0,1-.61-2.83A9.66,9.66,0,0,1,105.36,21.52Z" style="fill:#010101"/><path d="M114.18,17.7l.31,2.34a23.22,23.22,0,0,1,.25,2.34l.31,4.7-.43-.16a2.59,2.59,0,0,0,.5-2.15c-.07-.8-.26-1.64-.29-2.49a13.35,13.35,0,0,1,.7-5l.14-.4.29.32q2,2.18,3.77,4.49A25,25,0,0,1,121.45,24c.53.82,1.06,1.65,1.55,2.49l-1.85-2.26c-.65-.73-1.21-1.53-1.82-2.29q-1.8-2.28-3.75-4.46l.43-.08a12.53,12.53,0,0,0-.68,4.82c0,.81.21,1.61.29,2.47a3.09,3.09,0,0,1-.64,2.54l-.39.4,0-.56-.31-4.69c-.08-.78,0-1.57-.06-2.36Z" style="fill:#010101"/><path d="M115.76,24.79a4.46,4.46,0,0,1,.31-.52l.47-.32.95-.59c.32-.19.64-.37,1-.54l.5-.26c.21,0,.4,0,.61,0-.12.17-.26.31-.38.46l-.49.25-1,.53-.93.58-.45.31A5.78,5.78,0,0,1,115.76,24.79Z" style="fill:#010101"/><path d="M64,59.06c.29.43.54.88.81,1.32l.57,1.42,1.15,2.83,1.15,2.83.57,1.41c.12.51.25,1,.35,1.51-.29-.43-.54-.88-.81-1.32l-.57-1.41-1.15-2.83L65,62l-.58-1.42C64.27,60.07,64.14,59.57,64,59.06Z" style="fill:#010101"/><path d="M65.12,58.82c.17-.28.37-.53.56-.79l.73-.58c.49-.39,1-.76,1.48-1.14s1-.73,1.52-1.09l.77-.52c.31-.11.6-.23.92-.31-.21.25-.43.48-.64.72l-.76.52-1.51,1.09c-.49.36-1,.74-1.47,1.12l-.72.58C65.71,58.56,65.43,58.7,65.12,58.82Z" style="fill:#010101"/><path d="M67.89,64a1.43,1.43,0,0,0,.42-.46c.17-.1.34-.22.51-.34l1-.73c.34-.25.69-.48,1.06-.7.18-.11.37-.21.56-.31a2.66,2.66,0,0,1,.69,0c-.17.16-.33.29-.47.45l-.53.3c-.34.21-.68.44-1,.68l-1,.73-.53.36A1.24,1.24,0,0,1,67.89,64Z" style="fill:#010101"/><path d="M77.65,67.46a28,28,0,0,1-1.33-2.76c-.32-1-.62-1.94-.88-2.93a40.76,40.76,0,0,1-1.11-6L74.25,55l.51.53,4.11,4.27L80.93,62c.63.77,1.27,1.53,1.88,2.31-.76-.65-1.49-1.31-2.24-2l-2.06-2.13L74.4,55.9l.42-.2a43,43,0,0,0,1.1,5.95c.26,1,.55,1.94.88,2.89S77.35,66.49,77.65,67.46Z" style="fill:#010101"/><path d="M76.05,63.61a3.55,3.55,0,0,1,.07-.57c.11-.13.21-.27.33-.4A6.31,6.31,0,0,1,78,61.32a4,4,0,0,1,.46-.24,2.63,2.63,0,0,1,.56,0l-.35.42-.42.22a6.88,6.88,0,0,0-.78.55,6.14,6.14,0,0,0-.68.67c-.1.12-.2.24-.29.37S76.23,63.52,76.05,63.61Z" style="fill:#010101"/><path d="M81.43,53.14c.79,1.43,1.56,2.86,2.31,4.31.39.71.7,1.47,1,2.21s.64,1.5.94,2.26l-.46.18a55.33,55.33,0,0,0-4.06-8.51l.41-.28A8.64,8.64,0,0,0,84,55.45a3.67,3.67,0,0,0,3,.36,2.41,2.41,0,0,0,1.7-2.25,5.53,5.53,0,0,0-.93-3A1.56,1.56,0,0,0,87.3,50a.2.2,0,0,0-.31.13,2.65,2.65,0,0,0,.26,1.44c.34,1,.73,2.07,1.16,3.08s.84,2,1.33,3c.24.5.49,1,.74,1.48a2.22,2.22,0,0,0,.46.67c.18.18.49.34.71.12-.2.24-.56.1-.76-.07a2.2,2.2,0,0,1-.53-.65c-.3-.46-.59-.94-.87-1.41a24.46,24.46,0,0,1-1.54-3c-.43-1-.83-2.06-1.17-3.12L86.52,51a1.74,1.74,0,0,1,0-1,.71.71,0,0,1,.42-.45.72.72,0,0,1,.61.06,2,2,0,0,1,.62.71,6,6,0,0,1,1,3.26,3.09,3.09,0,0,1-.58,1.68,3,3,0,0,1-1.46,1,4.17,4.17,0,0,1-3.4-.39,9.42,9.42,0,0,1-2.52-2.26l.41-.29a55.35,55.35,0,0,1,4.1,8.58l-.47.18c-.3-.75-.61-1.5-.94-2.24s-.67-1.47-1-2.23Q82.42,55.38,81.43,53.14Z" style="fill:#010101"/><path d="M92.88,48.4c.29.37.54.77.81,1.16l.57,1.28q.55,1.27,1.08,2.58c.35.86.69,1.73,1,2.61l.48,1.31c.08.47.17.93.22,1.41-.24-.41-.46-.83-.69-1.24l-.48-1.31c-.32-.87-.65-1.73-1-2.59S94.17,51.89,93.8,51l-.57-1.27C93.12,49.31,93,48.86,92.88,48.4Z" style="fill:#010101"/><path d="M97.44,59c-.1,0-.16-.07-.24-.1a.13.13,0,0,0,0-.06l0-.13,0-.12V58.5l.26,0,.24.11v.06l0,.12,0,.12s0,0,0,.07Z" style="fill:#010101"/><path d="M93.76,44.88a3.39,3.39,0,0,1-.15-.41l.1-.33.19-.66.19-.66.09-.34c.11-.08.21-.18.34-.26.06.14.09.27.14.4l-.09.33-.19.67-.19.66-.1.33C94,44.7,93.89,44.79,93.76,44.88Z" style="fill:#010101"/><path d="M97.82,47.21A5.09,5.09,0,0,1,98.93,49c.18.69.31,1.37.47,2a12.23,12.23,0,0,0,1.62,3.7,6.78,6.78,0,0,0,1.24,1.52c.46.34,1.08,0,1.66-.3l1.81-1c.64-.27,1.27-.54,1.92-.79-.55.42-1.12.81-1.68,1.22l-1.8,1a4.6,4.6,0,0,1-1,.46,1.4,1.4,0,0,1-1.19-.18,3.4,3.4,0,0,1-.77-.8,10.29,10.29,0,0,1-.61-.86,12.54,12.54,0,0,1-1.68-3.84c-.17-.68-.29-1.36-.48-2A5.6,5.6,0,0,0,97.82,47.21Z" style="fill:#010101"/><path d="M106,42.31c.29.35.55.71.83,1.07l.64,1.16c.43.77.88,1.53,1.36,2.28s1,1.48,1.47,2.2l.78,1.07c.2.41.42.8.61,1.21-.35-.29-.67-.6-1-.91l-.79-1.08c-.51-.73-1-1.47-1.49-2.22s-.93-1.53-1.37-2.3l-.64-1.18C106.29,43.18,106.14,42.75,106,42.31Z" style="fill:#010101"/><path d="M115.52,38.28l.35,2.7.16,1.36.08,1.36.35,5.43-.39-.19c.62-.39.71-1.32.69-2.13s-.06-1.72-.14-2.58a39.88,39.88,0,0,0-.79-5.09l-.16-.71.56.47a32.21,32.21,0,0,1,4,3.92c.3.36.61.72.9,1.09s.52.77.78,1.16a26.58,26.58,0,0,1,1.38,2.43c-.53-.76-1.08-1.5-1.67-2.22l-.89-1.06c-.29-.36-.58-.72-.88-1.07a32.74,32.74,0,0,0-3.94-3.87l.41-.24a38.83,38.83,0,0,1,.8,5.15c.08.87.12,1.74.14,2.61a5.22,5.22,0,0,1-.12,1.35,1.93,1.93,0,0,1-.8,1.21l-.36.22,0-.41-.34-5.44-.09-1.36V38.28Z" style="fill:#010101"/><path d="M116.11,46.5a3.36,3.36,0,0,1,.31-.43l.42-.21.83-.42.84-.43.42-.21c.18,0,.35,0,.53,0a4.25,4.25,0,0,1-.31.43l-.41.21-.84.42-.84.43-.42.21A4.88,4.88,0,0,1,116.11,46.5Z" style="fill:#010101"/><path d="M0,72.21c.78-.63,1.58-1.22,2.37-1.83l2.52-1.61,5-3.23,5-3.23,2.51-1.61c.88-.47,1.76-1,2.65-1.41-.78.63-1.59,1.22-2.38,1.83L15.2,62.73l-5,3.23-5,3.23L2.65,70.8C1.77,71.27.89,71.76,0,72.21Z" style="fill:#010101"/><path d="M20.18,56.43a5,5,0,0,1,.46.26l.25.39.5.78.51.78.25.4c0,.17,0,.34,0,.52a5,5,0,0,1-.46-.25l-.26-.4-.5-.78-.5-.78L20.22,57A3,3,0,0,1,20.18,56.43Z" style="fill:#010101"/><path d="M19.91,56.83a.31.31,0,0,1-.07-.36.94.94,0,0,1,.23-.32,2.17,2.17,0,0,1,.67-.38l1.36-.36,1.36-.36a2,2,0,0,1,.8-.09.9.9,0,0,1,.7.6,3.14,3.14,0,0,1,0,1.53,13.46,13.46,0,0,1-.35,1.39,10.94,10.94,0,0,1-.5,1.35A9.66,9.66,0,0,1,23.22,61c.15-.46.3-.9.41-1.36A14.05,14.05,0,0,0,24.44,57a2.73,2.73,0,0,0,0-1.26c-.12-.34-.42-.34-.9-.19l-1.36.35-1.36.37a1.88,1.88,0,0,0-.65.11C20,56.45,19.81,56.59,19.91,56.83Z" style="fill:#010101"/></g></g></svg>