<svg xmlns="http://www.w3.org/2000/svg" viewBox="0 0 123.3 72.2">
    /* TEXTO */
    <g id="texto" data-name="texto">
        <path d="M62.9 10.9a7.6 7.6 0 00-2.3 1 6.8 6.8 0 00-2 1.5 6.3 6.3 0 00-1.2 2 2.8 2.8 0 000 2.3 2.8 2.8 0 001.9 1.3 12.5 12.5 0 002.5.3 14.7 14.7 0 002.4-.2 7.1 7.1 0 002.5-.5 6.8 6.8 0 01-2.4 1 15.9 15.9 0 01-2.6.1 13.3 13.3 0 01-2.5-.3A3.2 3.2 0 0157 18a3.3 3.3 0 010-2.7 7.2 7.2 0 011.4-2.2 7.7 7.7 0 012-1.6 6.7 6.7 0 012.5-.6zM67.2 9.8l.1 1v1a17.7 17.7 0 000 2.1 20.2 20.2 0 00.2 2l.2 1v1c-.2-.2-.4-.5-.5-.9l-.2-1a18.3 18.3 0 01-.3-2 16.5 16.5 0 010-2.1l.1-1a9.6 9.6 0 01.4-1.1zM71.4 10.5l.3.9v5.3l-.3 1-.2-1V11.4l.2-.9zM67.6 15c0-.3.2-.4.3-.5l.5-.2.8-.5 1-.4.4-.2a5 5 0 01.5 0c0 .2-.2.3-.3.4l-.4.3-1 .4-.8.4-.5.2a5.3 5.3 0 01-.5 0zM77.2 8.3a5.3 5.3 0 00-1.5 1.4 7.4 7.4 0 00-1 1.8v.6h.8l2-.7 1-.2-.7.7a10 10 0 00-2 2.7 10 10 0 00-.6 1.6 3.7 3.7 0 00-.2.8c0 .2 0 .3.3.4a4.8 4.8 0 001.7 0 10.6 10.6 0 001.6-.5l1.7-.6 1.6-.7-1.5 1a7.6 7.6 0 01-1.6.8 7.4 7.4 0 01-3.6.6 1 1 0 01-.5-.4.8.8 0 01-.1-.5 4 4 0 01.1-1 11 11 0 01.7-1.6 10.4 10.4 0 012-3l.3.5-2 .6-.5.1a.8.8 0 01-.7-.1.8.8 0 01-.3-.7 2.1 2.1 0 010-.6 4.3 4.3 0 011.2-1.8 4.9 4.9 0 011.8-1.2zM86.5 7a2.7 2.7 0 00-1.9.7 6.6 6.6 0 00-1.4 1.6 5 5 0 00-.8 1.8A2.2 2.2 0 0083 13a3.4 3.4 0 001.7 1 9 9 0 002.1.2 8 8 0 002.1-.2 4 4 0 002-.8 4 4 0 01-1.9 1.3 8.7 8.7 0 01-2.2.2 9.2 9.2 0 01-2.2-.2 3.8 3.8 0 01-2-1.1 2.7 2.7 0 01-.6-2.2A5.3 5.3 0 0183 9a6.8 6.8 0 011.4-1.7 2.7 2.7 0 012.2-.4zM90.2 5.7l.6 1.9.4 1.9a25.3 25.3 0 001.4 3.6l-.5.2a10.3 10.3 0 01.5-4.6 10.9 10.9 0 011-2A8 8 0 0195.2 5 11 11 0 0094 7a9.4 9.4 0 00-1 2 9.7 9.7 0 00-.4 4.2l.2 1.6-.7-1.5a27 27 0 01-1.3-3.7 17.8 17.8 0 01-.5-2 16.6 16.6 0 010-2z" stroke="#010101" stroke-width=".3"/>
        <path d="M93 8l.4.5a5.2 5.2 0 00.2.5 7.5 7.5 0 00.5 1 7.2 7.2 0 00.6.9 4.6 4.6 0 00.4.4l.2.6a3.8 3.8 0 01-.6-.2l-.4-.5a8 8 0 01-.7-1 7.3 7.3 0 01-.5-1l-.2-.6A2.7 2.7 0 0193 8zM100.7 2.7a2.1 2.1 0 00-2 1.6 5.8 5.8 0 00-.4 2.6 4.7 4.7 0 00.8 2.5 2.5 2.5 0 002.2 1 2.8 2.8 0 002.2-1.3 3.3 3.3 0 00.4-2.5 3.5 3.5 0 00-1.4-2 3.7 3.7 0 00-2.5-1 3.8 3.8 0 012.8.5 4 4 0 011.6 2.4 3.8 3.8 0 01-.5 3 3.2 3.2 0 01-2.5 1.4 3 3 0 01-2.7-1.2 5.2 5.2 0 01-.8-2.8 6.3 6.3 0 01.3-2.8 2.3 2.3 0 012.5-1.4zM104.6 2.5l1 1.9.9 1.8 1.6 3.9-.3-.2c.3 0 .5-.4.6-.8a13.2 13.2 0 00.2-1.4A21 21 0 01109 5a20.1 20.1 0 01.8-2.6 13.6 13.6 0 011.4-2.4l-1 2.6a19.7 19.7 0 00-.7 2.5 20.3 20.3 0 00-.5 2.7 12.1 12.1 0 01-.2 1.4 1.5 1.5 0 01-1 1.2h-.2v-.1L106 6.4l-.8-1.9-.6-2zM47.3 38.3a10 10 0 00-2.2 1.8 9.3 9.3 0 00-1.8 2.3c-.9 1.6-1.5 3.6-.7 5.3a3 3 0 002 1.7 4.2 4.2 0 002.7-.6 16.5 16.5 0 002.4-1.6 18.6 18.6 0 002.3-1.8 15.3 15.3 0 01-2 2.2 16.9 16.9 0 01-2.5 1.6 4.6 4.6 0 01-3 .7 3.4 3.4 0 01-2.3-1.9 5 5 0 01-.4-3 9 9 0 011-2.8 9.7 9.7 0 011.9-2.4 8.8 8.8 0 012.6-1.5zM54.6 38.5a2.7 2.7 0 00-2.3 1.6 4.2 4.2 0 00-.7 2.7 3 3 0 001.1 2.4 2.8 2.8 0 002.7.1 3.2 3.2 0 001.8-2 4.8 4.8 0 000-2.8 5 5 0 00-1.5-2.4 2 2 0 00-2.6-.3 2.2 2.2 0 013 0 5.5 5.5 0 011.6 2.6 5.4 5.4 0 010 3 3.7 3.7 0 01-2.1 2.4 3.3 3.3 0 01-3.1-.2 3.6 3.6 0 01-1.4-2.8 4.8 4.8 0 01.8-3 2.9 2.9 0 012.7-1.3zM57.4 36.5l1 3.9.4 2 .5 2h-.5c.5-1.3 0-2.8-.4-4.2a10.8 10.8 0 01-.2-1 5.5 5.5 0 010-.6.8.8 0 01.2-.8.7.7 0 01.7 0 1.8 1.8 0 01.6.3 5.2 5.2 0 00.8.7 2.7 2.7 0 001.9.5 2.5 2.5 0 001.6-1.2c.8-1.2.7-2.7.6-4.2h.5a25 25 0 00.9 5l.7 2.4 1 2.3a24.3 24.3 0 01-1.2-2.3 18 18 0 01-1-2.3 26 26 0 01-.9-5h.5c.1 1.4.3 3-.7 4.4a3 3 0 01-1.9 1.4 3.2 3.2 0 01-2.2-.6 7.4 7.4 0 01-1-.7c-.2-.2-.5-.4-.6-.3v.8l.2 1 .5 2.3a4.6 4.6 0 01-.1 2.3l-.3.8-.2-.9-.4-2-.4-2zM80.3 29.4c-.5 0-.6.4-.6.8v1.1a19.4 19.4 0 010 2.3l-.3 4.6H79l.3-4.8.1-2.4a4 4 0 011-2.3l.2-.2.2.3c.8 1.4 1.6 2.7 2.6 4l.7 1 .6 1 1.4 2a56 56 0 01-1.7-1.8l-.8-1-.7-1-2.6-4h.4a3.5 3.5 0 00-.8 2l-.1 2.3-.3 4.8H79l.3-4.6a19.5 19.5 0 01.2-2.2c0-.4 0-.8.2-1.2a1.5 1.5 0 01.2-.5.6.6 0 01.5-.2z" stroke="#010101" stroke-width=".3"/>
        <path d="M77.3 35.9l.7-.7.8-.5 1.5-.9 1.6-1 .8-.4.9-.2-.7.6-.8.5-1.5 1-1.6.9-.8.4a8.7 8.7 0 01-.9.3zM100.5 23.6a8.8 8.8 0 00-4.4 3.1 7.4 7.4 0 00-.7 1.1 1.3 1.3 0 000 1.1c0 .3.5.1 1 0l1.4-.1a5.5 5.5 0 012.8.4 3 3 0 011.8 2.3 3.2 3.2 0 01-1 2.7 4.4 4.4 0 01-2.7 1.1H98l.5-.4 2.9-2.8 1.5-1.4 1.5-1.2L103 31l-1.3 1.5-2.9 2.8-.2-.5a3.9 3.9 0 002.4-1 2.8 2.8 0 00.9-2.2 2.5 2.5 0 00-1.5-2 4.8 4.8 0 00-2.6-.4l-1.3.2a6.8 6.8 0 01-.7.1 1 1 0 01-.8-.3 1.7 1.7 0 010-1.6 7.6 7.6 0 01.8-1.2 7 7 0 014.7-2.8z" stroke="#010101" stroke-width=".3"/>
        <path d="M105.4 21.5a11.4 11.4 0 000 2.8 10.4 10.4 0 00.6 2.7 7.3 7.3 0 001.3 2.4 1.8 1.8 0 001 .6 2.1 2.1 0 001.3-.3 3 3 0 001.5-2 9.7 9.7 0 00.1-2.8 23.7 23.7 0 00-.3-2.8 27 27 0 00-.4-2.8 21.6 21.6 0 01.9 2.7 27.1 27.1 0 01.3 2.9 9.8 9.8 0 01-.1 2.9 3.5 3.5 0 01-1.8 2.3 2.6 2.6 0 01-1.5.3 2.4 2.4 0 01-1.3-.7 7.8 7.8 0 01-1.5-2.5 11 11 0 01-.6-2.9 9.7 9.7 0 01.5-2.8z" fill="#010101"/>
        <path d="M114.2 17.7l.3 2.3a23.2 23.2 0 01.2 2.4l.4 4.7-.5-.2a2.6 2.6 0 00.5-2.1l-.3-2.5a13.3 13.3 0 01.7-5l.2-.4.3.3q2 2.2 3.7 4.5a25 25 0 011.8 2.3l1.5 2.5-1.9-2.3-1.8-2.3-3.7-4.4.4-.1a12.5 12.5 0 00-.7 4.8l.3 2.5a3 3 0 01-.6 2.5l-.4.4v-.5l-.3-4.7V20z" stroke="#010101" stroke-width=".3"/>
        <path d="M115.8 24.8a4.5 4.5 0 01.3-.5l.4-.4 1-.5 1-.6.5-.2h.6l-.4.4-.5.3-1 .5-.9.6-.4.3a5.8 5.8 0 01-.6 0zM64 59l.8 1.4.6 1.4 1.1 2.8 1.2 2.9.6 1.4.3 1.5-.8-1.3-.6-1.4-1.1-2.9L65 62l-.6-1.4L64 59zM65.1 58.8l.6-.8.7-.5 1.5-1.2 1.5-1 .8-.6.9-.3-.6.7-.8.5-1.5 1.1-1.5 1.1-.7.6-.9.4zM67.9 64a1.4 1.4 0 00.4-.5c.2 0 .4-.2.5-.3l1-.7 1-.7.6-.3a2.7 2.7 0 01.7 0l-.4.4-.6.3-1 .7-1 .7-.5.4a1.2 1.2 0 01-.7 0zM77.7 67.5a28 28 0 01-1.4-2.8l-.9-3a40.8 40.8 0 01-1-6l-.2-.7.6.5 4 4.3L81 62l2 2.3c-.9-.6-1.6-1.3-2.3-2l-2-2.1-4.2-4.3.4-.2a43 43 0 001.1 6l.9 2.8.9 3z" stroke="#010101" stroke-width=".3"/>
        <path d="M76 63.6a3.5 3.5 0 01.1-.6l.3-.4a6.3 6.3 0 011.6-1.3 4 4 0 01.5-.2 2.6 2.6 0 01.5 0l-.3.4-.5.2a6.9 6.9 0 00-.7.6 6.1 6.1 0 00-.7.6l-.3.4-.5.3zM81.4 53.1a178.3 178.3 0 013.3 6.6l1 2.2-.5.2a55.3 55.3 0 00-4-8.5l.4-.3a8.6 8.6 0 002.4 2.2 3.7 3.7 0 003 .3 2.4 2.4 0 001.7-2.2 5.5 5.5 0 00-1-3 1.6 1.6 0 00-.4-.6.2.2 0 00-.3.1 2.6 2.6 0 00.2 1.5l1.2 3a43.6 43.6 0 002 4.5 2.2 2.2 0 00.5.7c.2.2.5.3.7.1-.2.3-.5.1-.7 0a2.2 2.2 0 01-.5-.7l-1-1.4a24.5 24.5 0 01-1.5-3l-1.1-3.1-.3-.7a1.7 1.7 0 010-1 .7.7 0 01.4-.5.7.7 0 01.6.1 2 2 0 01.7.7 6 6 0 011 3.3 3 3 0 01-.6 1.7 3 3 0 01-1.5 1 4.2 4.2 0 01-3.4-.4 9.4 9.4 0 01-2.5-2.3l.4-.3a55.4 55.4 0 014.1 8.6l-.5.2-.9-2.3-1-2.2-1.9-4.5zM92.9 48.4l.8 1.2.6 1.2 1 2.6 1 2.6.5 1.3.2 1.4-.7-1.2-.4-1.3-1-2.6-1.1-2.6-.6-1.3-.3-1.3z" stroke="#010101" stroke-width=".3"/>
        <path d="M97.4 59l-.2-.1v-.4h.3l.2.1V59z" fill="#010101"/>
        <path d="M93.8 44.9a3.4 3.4 0 01-.2-.4l.1-.4.2-.6.2-.7v-.3l.4-.3.2.4-.1.4-.2.6-.2.7-.1.3-.3.3zM97.8 47.2A5 5 0 0199 49l.5 2a12.2 12.2 0 001.6 3.7 6.8 6.8 0 001.3 1.5c.4.4 1 0 1.6-.3l1.8-1 2-.8-1.7 1.3-1.8 1a4.6 4.6 0 01-1 .4 1.4 1.4 0 01-1.2-.2 3.4 3.4 0 01-.8-.8 10.3 10.3 0 01-.6-.8 12.5 12.5 0 01-1.7-3.9l-.5-2a5.6 5.6 0 00-.6-1.9zM106 42.3l.8 1 .7 1.2 1.3 2.3 1.5 2.2.8 1 .6 1.3-1-1-.8-1-1.5-2.2-1.4-2.3-.6-1.2-.4-1.3zM115.5 38.3l.4 2.7.1 1.3.1 1.4.4 5.4-.4-.2c.6-.3.7-1.3.7-2l-.2-2.7a39.9 39.9 0 00-.8-5l-.1-.8.5.5a32.2 32.2 0 014 4l1 1 .7 1.2a26.6 26.6 0 011.4 2.4c-.5-.8-1-1.5-1.7-2.2l-.9-1-.9-1.1a32.7 32.7 0 00-3.9-4l.4-.2a38.8 38.8 0 01.8 5.2l.2 2.6a5.2 5.2 0 01-.2 1.4 2 2 0 01-.8 1.2l-.3.2v-.4l-.4-5.5V38.3z" stroke="#010101" stroke-width=".3"/>
        <path d="M116.1 46.5a3.4 3.4 0 01.3-.4l.4-.2.9-.5.8-.4.4-.2h.6a4.3 4.3 0 01-.3.4l-.5.2-.8.5-.8.4-.5.2a4.9 4.9 0 01-.5 0z" stroke="#010101" stroke-width=".3"/>
    </g>

    /* SETA */
    <g id="seta" data-name="seta" stroke="#010101" stroke-width=".3">
        <path d="M0 72.2l2.4-1.8 2.5-1.6 5-3.3 5-3.2 2.5-1.6 1.8-1M20.2 56.4a5 5 0 01.4.3l.3.4.5.8.5.7.3.4v.6"/>
        <path d="M19 56.8a.3.3 0 01-.2-.3 1 1 0 01.3-.4 2.2 2.2 0 01.6-.3l1.4-.4 1.4-.4a2 2 0 01.8 0 .9.9 0 01.7.6 3.1 3.1 0 010 1.5 13.5 13.5 0 01-.4 1.4 11 11 0 01-.5 1.3 9.7 9.7 0 01.1 1.2l.4-1.4a14 14 0 00.8-2.6 2.7 2.7 0 000-1.3c0-.3-.4-.3-.9-.2l-1.3.4-1.4.4a1.9 1.9 0 00-.6 0C20 NaN NaN NaN NaN NaN"/>
    </g>
</svg>