<svg xmlns="http://www.w3.org/2000/svg" viewBox="0 0 339.06 79.08">
    <title>testo-2-pag-8</title>
    <g id="Camada_2" data-name="Camada 2">
        <g id="Camada_1-2" data-name="Camada 1">
            <path d="M8.52,2.88a3.17,3.17,0,0,0,3-.46l.15.29A6.86,6.86,0,0,0,9.8,3.93,5.71,5.71,0,0,0,8.44,5.67a1.07,1.07,0,0,0-.06.88c.12.2.42.21.76.07.68-.3,1.38-.65,2.07-1l.17.46A6.09,6.09,0,0,0,7,10.63a4,4,0,0,0,0,2.13,1.59,1.59,0,0,0,1.67.84A5.2,5.2,0,0,0,10.74,13a7.7,7.7,0,0,0,3.15-3.07l.44.25a3.56,3.56,0,0,0-.51,1.52,2,2,0,0,0,0,.72s0,.05.09.05a.63.63,0,0,0,.25-.15c.33-.34.68-.89,1-1.32l1.1-1.33.14-.17.13.17a1.48,1.48,0,0,1,.23.94c0,.3-.06.59-.06.87a1.11,1.11,0,0,0,.3.76.54.54,0,0,0,.75.15.58.58,0,0,1-.81-.09,1.25,1.25,0,0,1-.41-.81c-.05-.59.07-1.24-.27-1.61h.27l-1,1.43-.52.68a5.85,5.85,0,0,1-.58.71,1,1,0,0,1-.5.26.6.6,0,0,1-.62-.32,2.17,2.17,0,0,1-.07-1,4,4,0,0,1,.57-1.73l.43.25A8.2,8.2,0,0,1,11,13.39a5.63,5.63,0,0,1-2.29.71,2.82,2.82,0,0,1-1.24-.21A1.78,1.78,0,0,1,6.53,13a4.46,4.46,0,0,1,0-2.43,6.6,6.6,0,0,1,4.77-4.9l2.36-.57-2.18,1c-.72.34-1.4.69-2.14,1a1.57,1.57,0,0,1-.67.12A.85.85,0,0,1,8,6.82,1.49,1.49,0,0,1,8,5.47,6.53,6.53,0,0,1,9.46,3.55a6.17,6.17,0,0,1,2.1-1.15L12.75,2l-1,.68A3.25,3.25,0,0,1,8.52,2.88Z"
                  style="fill:#010101"/>
            <path d="M32.49,10a2.13,2.13,0,0,0-1.83,1.4,9.22,9.22,0,0,0-.46,1.13,1.79,1.79,0,0,0-.15,1.07c.08.29.32.35.63.14a8.15,8.15,0,0,0,.91-.79,9.09,9.09,0,0,0,1.46-2l.41.28a1.11,1.11,0,0,0,0,1.3,1.06,1.06,0,0,0,1.25.29c.42-.2.65-.72.94-1.23a2.32,2.32,0,0,1,.6-.73,1.25,1.25,0,0,1,1-.3l.6.12-.5.34c-.8.53-1.63,1.16-1.72,2A1.29,1.29,0,0,0,36,14.17a1.33,1.33,0,0,0,1.2.09,10.48,10.48,0,0,0,2.63-1.12,2.32,2.32,0,0,0,1.08-2.44,2.47,2.47,0,0,1-.82,2.77,3.89,3.89,0,0,1-1.33.78c-.48.19-.93.34-1.43.49a1.8,1.8,0,0,1-1.64-.18A1.77,1.77,0,0,1,35.12,13a2.42,2.42,0,0,1,.74-1.44,7.15,7.15,0,0,1,1.2-1l.09.46c-.4-.08-.83.33-1.08.78a3,3,0,0,1-1.15,1.43,1.54,1.54,0,0,1-1.86-.44,1.58,1.58,0,0,1,0-1.91l.42.27a9.26,9.26,0,0,1-1.55,2.07,7.54,7.54,0,0,1-1,.86,1,1,0,0,1-.79.18.81.81,0,0,1-.59-.61,2.27,2.27,0,0,1,.15-1.38,5.51,5.51,0,0,1,.63-1.14,3.39,3.39,0,0,1,.91-.94A1.65,1.65,0,0,1,32.49,10Z"
                  style="fill:#010101"/>
            <path d="M41,11.21c0,.79,0,1.58,0,2.36l-.4-.05a3.76,3.76,0,0,1,.4-1.35A5.61,5.61,0,0,1,41.76,11a1.71,1.71,0,0,1,1.33-.75,1.07,1.07,0,0,1,.77.4.84.84,0,0,1,0,.91c-.31.47-.74.67-.87,1a.9.9,0,0,0,.24,1c.52.58,1.49.4,2.21,0a7,7,0,0,0,1.09-.71,1.86,1.86,0,0,0,.74-.92c.13-.38,0-.62-.32-.58a1.1,1.1,0,0,0-.82.65,1.57,1.57,0,0,0,.59,2A2.5,2.5,0,0,0,49.2,14a2.62,2.62,0,0,1-2.68.33,1.74,1.74,0,0,1-1-1.16,2.16,2.16,0,0,1,.13-1.48,1.57,1.57,0,0,1,1.21-.94.85.85,0,0,1,.83.38,1.12,1.12,0,0,1,0,.86,2.45,2.45,0,0,1-.91,1.15,6.9,6.9,0,0,1-1.17.76,3.6,3.6,0,0,1-1.38.43,1.75,1.75,0,0,1-1.42-.52,1.39,1.39,0,0,1-.34-1.51c.27-.52.73-.74.9-1a.35.35,0,0,0,0-.37.56.56,0,0,0-.39-.19,1.21,1.21,0,0,0-.91.57,4.51,4.51,0,0,0-.69,1.08A11.59,11.59,0,0,0,41,13.6l-.4-.06C40.75,12.76,40.87,12,41,11.21Z"
                  style="fill:#010101"/>
            <path d="M53.63,11a2.65,2.65,0,0,0-3.16,2.22c-.06.34,0,.68.2.79s.53,0,.82-.13a2.71,2.71,0,0,0,.77-.71,10.15,10.15,0,0,0,.7-.89,33.17,33.17,0,0,0,3.92-8.18l.47.18c-.43,1.11-.86,2.22-1.21,3.36a15.21,15.21,0,0,0-.69,3.44,2.21,2.21,0,0,0,.37,1.53,1.44,1.44,0,0,0,1.39.42,2.35,2.35,0,0,0,1.42-.83,8.4,8.4,0,0,0,1-1.47,7.67,7.67,0,0,1-.81,1.62,2.76,2.76,0,0,1-1.5,1.12,1.77,1.77,0,0,1-1.88-.54A2.72,2.72,0,0,1,55,11a24.63,24.63,0,0,1,1.93-7l.47.17a33.79,33.79,0,0,1-4,8.31c-.23.31-.47.62-.72.91a3.47,3.47,0,0,1-.91.83,1.29,1.29,0,0,1-1.34.11,1,1,0,0,1-.42-.62,2.38,2.38,0,0,1,0-.65A2.82,2.82,0,0,1,53.63,11Z"
                  style="fill:#010101"/>
            <path d="M59.8,11.09a3.75,3.75,0,0,0-.48,1.79c0,.59.53,1.18,1.07,1.14s.91-.6,1.28-1.09.73-1,1-1.54a33.43,33.43,0,0,0,2.92-6.93l.48.17C65.69,5.79,65.32,7,65,8.16c-.16.59-.31,1.19-.45,1.79a10.91,10.91,0,0,0-.31,1.78c0,.58.19,1.14.68,1.16a4.51,4.51,0,0,0,1.62-.55,10.24,10.24,0,0,0,2.92-2.14l.32.38a3,3,0,0,0-1.22,2.24,1.19,1.19,0,0,0,.45,1c.28.16.65-.1,1-.38a2.23,2.23,0,0,0,1.19-2.14.86.86,0,0,0-.73-.74c-.37,0-.78.2-.79.52l-.29-.27c1.19-.2,2.38-.36,3.56-.63a33.05,33.05,0,0,0,3.49-1,31.9,31.9,0,0,1-3.41,1.3,20.78,20.78,0,0,1-3.57.83l-.3,0,0-.31a1,1,0,0,1,.49-.77,1.49,1.49,0,0,1,.85-.2,1.37,1.37,0,0,1,1.17,1.14,2.08,2.08,0,0,1-.31,1.56,4.07,4.07,0,0,1-1.07,1.08,4.52,4.52,0,0,1-.65.41,1,1,0,0,1-.91,0,1.62,1.62,0,0,1-.73-1.46,3.5,3.5,0,0,1,1.43-2.65l.33.38a10.88,10.88,0,0,1-3.06,2.24c-.28.14-.58.27-.87.38a2.46,2.46,0,0,1-1,.22,1.15,1.15,0,0,1-.94-.64,2.21,2.21,0,0,1-.2-1,10.21,10.21,0,0,1,.32-1.89c.14-.61.29-1.21.46-1.81Q65,6.22,65.65,4.46l.47.16a34.4,34.4,0,0,1-3,7A11.51,11.51,0,0,1,62,13.23a9,9,0,0,1-.68.71,1.5,1.5,0,0,1-1,.4,1.4,1.4,0,0,1-1.22-1.45A3.71,3.71,0,0,1,59.8,11.09Z"
                  style="fill:#010101"/>
            <path d="M60.2,8.63l.24-.13.06.06.12.12.12.11.06.06a1.66,1.66,0,0,1-.11.24,1.71,1.71,0,0,1-.23.12l-.06-.05L60.28,9l-.13-.12-.06-.05C60.13,8.79,60.15,8.72,60.2,8.63Z"
                  style="fill:#010101"/>
            <path d="M88.76,10.52a4.62,4.62,0,0,0-.1,3.27l-.4,0c.24-.56.56-1.08.85-1.62l.44-.8a2.89,2.89,0,0,1,.56-.83.75.75,0,0,1,.63-.21.74.74,0,0,1,.51.44,2.44,2.44,0,0,1,.14,1,2.53,2.53,0,0,0,.19,1.63.59.59,0,0,0,.54.31,1.43,1.43,0,0,0,.69-.34l1.5-1.06,3-2.12.33.38-1.7,1.69a2.58,2.58,0,0,0-.66.86c-.14.34-.06.55.18.57a1.76,1.76,0,0,0,.89-.47,6.28,6.28,0,0,0,.83-.8,6,6,0,0,0,1.13-2l.19-.57.27.54a2.41,2.41,0,0,1,.2,1.1c0,.35,0,.69,0,1a1.69,1.69,0,0,0,.35.89.83.83,0,0,0,.87.36.9.9,0,0,1-1-.26,1.77,1.77,0,0,1-.51-1,6.28,6.28,0,0,0-.39-1.92l.46,0a6.6,6.6,0,0,1-1.22,2.16,6.67,6.67,0,0,1-.9.86,2.12,2.12,0,0,1-1.22.58.75.75,0,0,1-.68-.49,1,1,0,0,1,.05-.76,2.84,2.84,0,0,1,.78-1l1.69-1.69.32.38-3,2.12L93.1,13.74a2,2,0,0,1-.94.43,1.12,1.12,0,0,1-1-.53,2,2,0,0,1-.3-1c0-.33,0-.65,0-.94a2,2,0,0,0-.1-.79c-.11-.18-.16-.2-.35-.05a2.23,2.23,0,0,0-.45.69l-.44.8c-.3.53-.56,1.09-.91,1.6l-.29.43-.11-.48A4.67,4.67,0,0,1,88.76,10.52Z"
                  style="fill:#010101"/>
            <path d="M113.07,10.73a5.54,5.54,0,0,0,.25,2.23c.1.36.17.72.41.83a1.11,1.11,0,0,0,.9,0,3.53,3.53,0,0,0,1.73-1.18.79.79,0,0,0,0-.85c-.16-.27-.44-.41-.63-.3l-.12-.47a14.46,14.46,0,0,0,4.19-.62l.4-.13-.08.4a2.64,2.64,0,0,1-.77,1.28c-.29.33-.55.67-.48,1a.87.87,0,0,0,.78.66,3.73,3.73,0,0,0,1.33,0,3.24,3.24,0,0,1-1.36.32,1.49,1.49,0,0,1-.75-.17.89.89,0,0,1-.49-.69,1.76,1.76,0,0,1,.6-1.41,2.4,2.4,0,0,0,.65-1l.32.28a14.49,14.49,0,0,1-4.34.65h-1l.87-.47a.89.89,0,0,1,.78,0,1.21,1.21,0,0,1,.51.49,1.38,1.38,0,0,1,.2.66,1.27,1.27,0,0,1-.17.68,2.42,2.42,0,0,1-.92.88,6.66,6.66,0,0,1-1.07.53,1.54,1.54,0,0,1-1.33,0,1.08,1.08,0,0,1-.47-.55,2.36,2.36,0,0,1-.17-.6A5.12,5.12,0,0,1,113.07,10.73Z"
                  style="fill:#010101"/>
            <path d="M123.9,10.68a3.52,3.52,0,0,0-3,2c-.13.27-.23.6-.14.75s.29.17.6.14a2.9,2.9,0,0,0,1.62-.69,7.8,7.8,0,0,0,2-3.14l1.54-3.56.45.21a30.09,30.09,0,0,0-1.31,3c-.18.52-.36,1-.52,1.57a3.25,3.25,0,0,0-.2,1.52c.06.5.4.78.84.62a11.73,11.73,0,0,0,1.36-.84l2.77-1.85.23.44a4.51,4.51,0,0,0-1.79,1.25,2.74,2.74,0,0,0-.57.89c-.1.33,0,.54.24.56a2.15,2.15,0,0,0,.94-.35,9.23,9.23,0,0,0,1-.61,13.47,13.47,0,0,0,1.75-1.45l.54-.55-.24.71a2.24,2.24,0,0,0,1.53,2.73,2.4,2.4,0,0,1-1.86-2.82l.29.16A8.07,8.07,0,0,1,130.2,13a9.49,9.49,0,0,1-1,.63,2.33,2.33,0,0,1-1.22.42.78.78,0,0,1-.66-.46,1,1,0,0,1,0-.74A3.07,3.07,0,0,1,128,11.8a5,5,0,0,1,2-1.38l2.1-.81-1.88,1.25L127.4,12.7a9,9,0,0,1-1.47.9,1.07,1.07,0,0,1-1-.13,1.33,1.33,0,0,1-.48-.88,3.77,3.77,0,0,1,.23-1.75c.16-.53.33-1.07.52-1.59a31.08,31.08,0,0,1,1.33-3.08l.45.21-1.53,3.55a8.18,8.18,0,0,1-2.11,3.34,3.51,3.51,0,0,1-1.89.81,1.81,1.81,0,0,1-.56,0,.74.74,0,0,1-.53-.45,1.41,1.41,0,0,1,.25-1.09A3.62,3.62,0,0,1,123.9,10.68Z"
                  style="fill:#010101"/>
            <path d="M139.73,13.85a2.06,2.06,0,0,1,.23.37l-.05.36a5.47,5.47,0,0,1-.16.7c-.07.23-.15.46-.24.68l-.16.32a1.76,1.76,0,0,1-.39.19c0-.15,0-.28-.05-.41l.14-.3a4.57,4.57,0,0,0,.22-.62c.06-.21.11-.42.15-.64s0-.22,0-.33S139.62,14,139.73,13.85Z"
                  style="fill:#010101"/>
            <path d="M151.18,10.73a4.44,4.44,0,0,0-.19,2.59l-.36-.06a8.69,8.69,0,0,1,1-1.67,16,16,0,0,1,1.25-1.5l.17-.18.18.17a1.34,1.34,0,0,1,.36,1.12c0,.36-.08.69-.08,1a.91.91,0,0,0,.27.72.94.94,0,0,0,.75.13,2,2,0,0,0,.8-.37A3.91,3.91,0,0,0,156,12a4.17,4.17,0,0,1,1.49-1.49l.23.44a1.06,1.06,0,0,0-.38,1.19,1,1,0,0,0,1,.76,1.43,1.43,0,0,0,1.19-.64,1.39,1.39,0,0,0,0-1.34,1.31,1.31,0,0,0-1.06-.77.66.66,0,0,0-.52.24c-.06.1,0,.23.14.32a3.68,3.68,0,0,0,1.53,0l1.66-.12-1.63.36-.81.18a1.77,1.77,0,0,1-.94,0,.7.7,0,0,1-.37-1,1.17,1.17,0,0,1,.92-.47A1.78,1.78,0,0,1,160,10.67a1.89,1.89,0,0,1-.05,1.83,1.93,1.93,0,0,1-1.62.87,1.49,1.49,0,0,1-1.45-1.13,1.55,1.55,0,0,1,.61-1.75l.23.44a4,4,0,0,0-1.3,1.34,4.09,4.09,0,0,1-.72.79,2.38,2.38,0,0,1-1,.47A1.26,1.26,0,0,1,153,12.2c0-.71.25-1.43-.12-1.75l.35,0a17,17,0,0,0-1.21,1.46c-.37.51-.71,1-1.08,1.56l-.32.45-.05-.51A4.36,4.36,0,0,1,151.18,10.73Z"
                  style="fill:#010101"/>
            <path d="M162.26,10.76a.89.89,0,0,1,.3-.61,1,1,0,0,1,.72-.29h.14l.06.16A4.34,4.34,0,0,1,164,12.3a1.88,1.88,0,0,1-.64,1.09,1.34,1.34,0,0,1-1.27.29l-.6-.2.58-.26,1.85-.84.46-.21a1.62,1.62,0,0,1,.48-.17l1-.23c-.27.22-.56.41-.84.61a1.39,1.39,0,0,1-.44.25l-.47.21-1.85.83,0-.46c.52.18,1.16-.4,1.25-1a3.7,3.7,0,0,0-.44-2l.2.16a.72.72,0,0,0-.5,0A.91.91,0,0,0,162.26,10.76Z"
                  style="fill:#010101"/>
            <path d="M172.66,13.08a9.14,9.14,0,0,1,1.17-1.87,2.57,2.57,0,0,1,2-1.05,1.34,1.34,0,0,1,1,.71,1.73,1.73,0,0,1,.11,1.24,3,3,0,0,1-1.6,1.71l-.14-.47a9.46,9.46,0,0,0,3.42-.89,9.35,9.35,0,0,0,1.52-.9,1.79,1.79,0,0,0,.57-.56.7.7,0,0,0,.1-.31c0-.09,0-.09-.07-.12h.16a2.21,2.21,0,0,0-1.35,1.21,1.33,1.33,0,0,0-.12.83c.07.22.28.32.57.29a4,4,0,0,0,1.71-.88,12.13,12.13,0,0,0,1.51-1.35l1.49-1.59L183.66,11a2.35,2.35,0,0,0-.44,1.29c0,.41.39.76.73.63a5.24,5.24,0,0,0,1.14-.85l1.18-1,.3.4a1,1,0,0,0-.25,1.36,1,1,0,0,0,1.41.2,7.82,7.82,0,0,0,1.34-1.3,10.36,10.36,0,0,0,1.07-1.57l.16-.3.24.25a8.42,8.42,0,0,1,1,1.15,3.29,3.29,0,0,1,.56,1.47,1.91,1.91,0,0,1-.59,1.51,1.37,1.37,0,0,1-1.54.35l-.22-.11.18-.14a5,5,0,0,1,3.41-1.05,4.82,4.82,0,0,0-3.21,1.28l0-.25a1,1,0,0,0,1.11-.38,1.63,1.63,0,0,0,.4-1.16,4.19,4.19,0,0,0-1.39-2.33l.4-.05A10.88,10.88,0,0,1,189.46,12a7.78,7.78,0,0,1-1.46,1.4,1.65,1.65,0,0,1-1.1.27,1.54,1.54,0,0,1-1-.58,1.49,1.49,0,0,1,.37-2.09l.3.4-1.18,1-.58.5a2.21,2.21,0,0,1-.74.45,1,1,0,0,1-1-.22,1.36,1.36,0,0,1-.4-.84,2.67,2.67,0,0,1,.5-1.59l.4.3A12.52,12.52,0,0,1,182,12.42a9,9,0,0,1-.88.59,2.42,2.42,0,0,1-1.07.39,1.22,1.22,0,0,1-.64-.1.92.92,0,0,1-.46-.53,1.75,1.75,0,0,1,.15-1.19,2.67,2.67,0,0,1,1.66-1.49l.07,0,.09,0a.62.62,0,0,1,.39.59,1.12,1.12,0,0,1-.17.55,2.1,2.1,0,0,1-.7.72,10.53,10.53,0,0,1-1.61,1,9.93,9.93,0,0,1-3.6.93l-1.15.07,1-.54a2.53,2.53,0,0,0,1.35-1.4,1.09,1.09,0,0,0-.71-1.45,2.29,2.29,0,0,0-1.81.81A8.92,8.92,0,0,0,172.66,13.08Z"
                  style="fill:#010101"/>
            <path d="M207,10a8.49,8.49,0,0,1-.51,4.05l-.12-.06a9.13,9.13,0,0,1,3-2.93l.24-.15,0,.28a7,7,0,0,0,.3,2.7l-.32-.08L212,11.14l.38.33a1.3,1.3,0,0,0,.19,1.67,2,2,0,0,0,1.69.77,3.58,3.58,0,0,0,1.85-.81,11.24,11.24,0,0,0,1.52-1.49l.85-.94-.43,1.2-.57,1.6,0-.24a1.46,1.46,0,0,0,2.41-1l0,.13a2.08,2.08,0,0,0-2.63-.39l-.12-.46a10.32,10.32,0,0,0,5.33-1l.4-.2,0,.44-.21,2.89-.42-.2,2.58-2.51.36-.35.06.5.32,2.55-.43-.15c.85-.84,1.63-1.66,2.54-2.52a1.94,1.94,0,0,1,.94-.39.72.72,0,0,1,.61.2.74.74,0,0,1,.18.63c-.09.4-.31.61-.35.83a.82.82,0,0,0,.13.65,1.53,1.53,0,0,0,1.28.68,2.79,2.79,0,0,0,1.47-.61,7.17,7.17,0,0,0,1.23-1.16c.32-.42.52-1,.18-1.22h.29a3.21,3.21,0,0,0-1.38,1.66c-.13.64.38,1.45,1,1.19a4.58,4.58,0,0,0,1-.55c.32-.22.63-.46.93-.71a13,13,0,0,0,1.62-1.69l.37-.47.07.6a6.14,6.14,0,0,1-.37,2.91l-.36-.3,3.94-2.38.27.42a.76.76,0,0,0-.13,1,1.59,1.59,0,0,0,1,.79,1.74,1.74,0,0,0,1.24-.37,4.47,4.47,0,0,0,1-1.06c.54-.83,1-1.77,1.51-2.65l1.48-2.69.46.2L246.1,9.71l-.55,1.61a3.2,3.2,0,0,0-.23,1.53.72.72,0,0,0,1,.58,4.91,4.91,0,0,0,1.49-.6A5.77,5.77,0,0,0,250,10.47l.43.17-.79,2.49-.08-.21a1.58,1.58,0,0,0,2.25-.9,1.63,1.63,0,0,0-1.62-1.92l.05-.14a4.09,4.09,0,0,0,4.56.45,4.18,4.18,0,0,1-4.67-.33l-.16-.12.21,0a1.84,1.84,0,0,1,1.9,2.15,1.9,1.9,0,0,1-2.72,1.15l-.12-.07,0-.15.7-2.51.44.16a5.83,5.83,0,0,1-4,3.25,1.35,1.35,0,0,1-1-.12,1.18,1.18,0,0,1-.57-.86,3.57,3.57,0,0,1,.25-1.79l.55-1.6,1.1-3.22.46.2-1.48,2.69c-.51.89-1,1.8-1.54,2.69a4.67,4.67,0,0,1-1.09,1.18,2.19,2.19,0,0,1-1.63.46,2.1,2.1,0,0,1-1.35-1,1.63,1.63,0,0,1-.2-.88,1.11,1.11,0,0,1,.49-.82l.27.42-3.94,2.37-.63.38.26-.68a5.54,5.54,0,0,0,.34-2.67l.45.12a12.22,12.22,0,0,1-1.69,1.76,11.81,11.81,0,0,1-1,.74,4.64,4.64,0,0,1-1.1.62,1.18,1.18,0,0,1-1.33-.43,1.75,1.75,0,0,1-.31-1.33,3.62,3.62,0,0,1,1.56-2l.14-.11.16.1a1,1,0,0,1,.37,1,2.53,2.53,0,0,1-.42.89,8,8,0,0,1-1.34,1.27,3.25,3.25,0,0,1-1.76.71,2.06,2.06,0,0,1-1.72-.91,1.35,1.35,0,0,1-.18-1c.09-.37.31-.61.34-.8s0-.26-.26-.24a1.5,1.5,0,0,0-.68.29c-.8.77-1.65,1.65-2.48,2.48l-.36.35-.07-.5-.31-2.55.42.15-2.58,2.51-.47.46,0-.65.22-2.9.36.25a10.84,10.84,0,0,1-5.6,1.08l-.73,0,.61-.41a2.58,2.58,0,0,1,3.3.49l0,.06v.08a1.52,1.52,0,0,1-.32,1.09,2.19,2.19,0,0,1-2,.81,1.56,1.56,0,0,1-1-.54l-.08-.12,0-.13.57-1.6L218,12a12.37,12.37,0,0,1-1.6,1.55,4.07,4.07,0,0,1-2.1.91,2.58,2.58,0,0,1-2.13-.95,2.14,2.14,0,0,1-.52-1.09,1.54,1.54,0,0,1,.33-1.22l.37.33-2.58,2.62-.23.23-.09-.31a7.35,7.35,0,0,1-.21-2.84l.21.14a9,9,0,0,0-3,2.77l-.4.58.27-.65A8.4,8.4,0,0,0,207,10Z"
                  style="fill:#010101"/>
            <path d="M240,8.62c.22-.15.44-.26.67-.39l.72-.11c.48-.08,1-.14,1.44-.2s1-.09,1.45-.12l.73,0c.25.08.49.13.73.23-.24.11-.47.18-.71.27l-.72,0c-.47,0-1,.07-1.42.12s-.95.12-1.43.19l-.7.12C240.5,8.69,240.25,8.67,240,8.62Z"
                  style="fill:#010101"/>
            <path d="M253.41,11.43c.33,0,.48-.26.69-.5a2.54,2.54,0,0,1,.47-.26.78.78,0,0,1,.65.05,2.87,2.87,0,0,1,1.18,1.65,1.93,1.93,0,0,1-.52,2,2,2,0,0,1-.95.48,1.26,1.26,0,0,1-.94-.42,1.11,1.11,0,0,0,.85-.07,1.47,1.47,0,0,0,.7-.36,1.41,1.41,0,0,0,.37-1.46,2.33,2.33,0,0,0-.93-1.33c-.13-.09-.33,0-.59.19S253.7,11.66,253.41,11.43Z"
                  style="fill:#010101"/>
            <path d="M268.47,13.84a23.19,23.19,0,0,0,2.89-5.51,28.08,28.08,0,0,0,.88-3,3.29,3.29,0,0,0-.12-2.81l.42,0a16.89,16.89,0,0,0-2,7.79,17.09,17.09,0,0,0,.11,2c0,.64.3,1.34.81,1.29s1-.62,1.46-1.09A6.46,6.46,0,0,0,274,10.87l.26-.55.2.57a1.46,1.46,0,0,1-.12,1.09,1.78,1.78,0,0,0-.23.78c0,.44.69.68,1.13.49A2.66,2.66,0,0,0,276.38,12a3.74,3.74,0,0,1,1.24-1.55l.39-.24v.46a6.21,6.21,0,0,0,.25,2,2.79,2.79,0,0,0,.35.85c.13.18.31.15.56,0,.47-.43,1-.95,1.46-1.42l1.47-1.44.68-.66-.26.91a8.23,8.23,0,0,0-.32,2.75l-.44-.16a17.37,17.37,0,0,1,3.11-2.76l.32-.22.07.38.52,2.64-.44-.1L287.22,11a3.91,3.91,0,0,1,.53-.62.58.58,0,0,1,.59-.11.7.7,0,0,1,.4.39.86.86,0,0,1,.09.5,2.58,2.58,0,0,1-.1.42,1.33,1.33,0,0,0-.09.62,1.46,1.46,0,0,0,2.15.66,4.67,4.67,0,0,0,1.56-2.42l.18.06a3.21,3.21,0,0,0,.6,3.11,3.3,3.3,0,0,1-.78-3.17l.18.06A4.89,4.89,0,0,1,291,13.15a1.94,1.94,0,0,1-1.62.28,1.54,1.54,0,0,1-1.23-1.16c-.1-.67.34-1.16.15-1.42s-.13-.17-.24-.1-.29.36-.44.54l-1.89,2.38-.34.42-.1-.53-.52-2.65.39.16a16.83,16.83,0,0,0-3,2.69l-.41.46,0-.62a8.93,8.93,0,0,1,.34-2.91l.41.25L281,12.38c-.5.48-1,.95-1.5,1.45a1.07,1.07,0,0,1-.59.26.76.76,0,0,1-.67-.29,3.59,3.59,0,0,1-.44-1,6.87,6.87,0,0,1-.27-2.11l.37.22a3.37,3.37,0,0,0-1.06,1.36,3.06,3.06,0,0,1-1.36,1.47,1.52,1.52,0,0,1-1.11,0,1.08,1.08,0,0,1-.71-.91,2.31,2.31,0,0,1,.26-1,1,1,0,0,0,.13-.73l.46,0a7.24,7.24,0,0,1-1.15,1.78,7.68,7.68,0,0,1-.76.75,1.89,1.89,0,0,1-1.05.51,1.14,1.14,0,0,1-1.06-.65,3.14,3.14,0,0,1-.28-1.08,18.17,18.17,0,0,1-.11-2.09,17.54,17.54,0,0,1,2-8l.18-.34.24.3A2.59,2.59,0,0,1,273,3.88a7.53,7.53,0,0,1-.26,1.6,18.09,18.09,0,0,1-1,3A23.44,23.44,0,0,1,268.47,13.84Z"
                  style="fill:#010101"/>
            <path d="M293.62,7.66a.21.21,0,0,0,.2.14s0-.07,0-.09,0,0,0,0l0,0a.1.1,0,0,0-.09,0,.22.22,0,0,0,.14.2.24.24,0,0,1,.06.26.33.33,0,0,1-.19,0,.46.46,0,0,1-.23-.12.39.39,0,0,1-.12-.22.32.32,0,0,1,0-.19A.23.23,0,0,1,293.62,7.66Z"
                  style="fill:#010101"/>
            <path d="M295.07,11a2.75,2.75,0,0,0-.67,2.64l-.18,0a9.64,9.64,0,0,1,2.94-3h0l.18-.12.14.18a1.34,1.34,0,0,1,.24,1c0,.3-.11.6-.12.83a1,1,0,0,0,.17.65c.12.13.25.15.47,0a6.29,6.29,0,0,0,2.33-2.28l.43.26a2.75,2.75,0,0,0-.44,2.2.85.85,0,0,0,.83.46,1.84,1.84,0,0,0,1.48-2.46.85.85,0,0,0-.87-.34c-.36,0-.65.29-.62.57l-.21-.24a7.35,7.35,0,0,0,4.92-.87l.78-.45-.43.79c-.25.44,0,1.07.09,1.72a2.13,2.13,0,0,1-.1,1.09,1.05,1.05,0,0,1-.94.73l0-.5a6.35,6.35,0,0,0,4.3-2.31l.12.4a.67.67,0,0,0-.72.33.72.72,0,0,0,0,.84,1.2,1.2,0,0,0,.81.48,1.35,1.35,0,0,0,.94-.24,1.92,1.92,0,0,0,.93-1.73.79.79,0,0,0-.19-.4.49.49,0,0,0-.35-.14c-.3,0-.58.2-.52.38l-.19-.19a9.25,9.25,0,0,0,2.23.17,8.62,8.62,0,0,0,1.13-.1l.55-.11a1.47,1.47,0,0,1,.65-.06.78.78,0,0,1,.48.51,2.47,2.47,0,0,1,.13.6,2.37,2.37,0,0,1-.19,1.18,2.34,2.34,0,0,1-.72.93.93.93,0,0,1-.53.24c-.1,0-.23-.08-.19-.2s.16-.2.21-.08c-.06-.11-.18,0-.19.09s.08.15.17.15a1,1,0,0,0,.48-.26,2.25,2.25,0,0,0,.72-2c-.06-.33-.21-.79-.44-.82a6.54,6.54,0,0,0-1.06.25,8.91,8.91,0,0,1-1.17.18,8.13,8.13,0,0,1-2.36-.17l-.16,0,0-.16a.78.78,0,0,1,.32-.76,1.14,1.14,0,0,1,.7-.22,1,1,0,0,1,.71.3,1.3,1.3,0,0,1,.31.66,2.39,2.39,0,0,1-1.15,2.23,1.84,1.84,0,0,1-1.28.31,1.61,1.61,0,0,1-1.15-.7,1.25,1.25,0,0,1,1.28-1.92l.36.09-.24.31a6.87,6.87,0,0,1-4.65,2.49l0-.5c.42,0,.65-.71.55-1.23-.05-.3-.14-.61-.19-1a1.69,1.69,0,0,1,.15-1.09l.34.33a7.9,7.9,0,0,1-5.26.94l-.19,0v-.2a.93.93,0,0,1,.33-.76,1.44,1.44,0,0,1,2.08.24,1.81,1.81,0,0,1,.17,1.45,2.64,2.64,0,0,1-.74,1.2,2.21,2.21,0,0,1-1.31.57,1.33,1.33,0,0,1-1.29-.72,2.12,2.12,0,0,1-.07-1.44,5.42,5.42,0,0,1,.52-1.24l.43.25a6.89,6.89,0,0,1-2.53,2.47,1,1,0,0,1-.55.13.84.84,0,0,1-.54-.3,1.57,1.57,0,0,1-.28-1c.06-.63.26-1.18,0-1.49l.31.05h0a9.34,9.34,0,0,0-3,2.67l-.14.19-.05-.22A2.85,2.85,0,0,1,295.07,11Z"
                  style="fill:#010101"/>
            <path d="M319.4,13.59a3.16,3.16,0,0,1,.12.37l-.11.27-.23.55-.23.54-.11.27a2.86,2.86,0,0,1-.35.18c-.05-.13-.07-.25-.11-.37l.11-.27.23-.55.22-.54.12-.27A2.71,2.71,0,0,1,319.4,13.59Z"
                  style="fill:#010101"/>
            <path d="M3.94,30.38l-.51,9-.51,0a28.81,28.81,0,0,1,.32-3.94,24.91,24.91,0,0,1,.89-3.87,3.84,3.84,0,0,1,1.08-1.76,1.8,1.8,0,0,1,1-.47,1.15,1.15,0,0,1,1.11.4,1.44,1.44,0,0,1,.19,1.14,3.11,3.11,0,0,1-.37,1,3.18,3.18,0,0,1-1.59,1.37l-.1-.49a11.73,11.73,0,0,0,4.91-1.47,1.57,1.57,0,0,0,.72-.84c.07-.28-.19-.49-.5-.37-.68.2-.8,1.29-.3,1.83a1.62,1.62,0,0,0,2.1,0A7.64,7.64,0,0,0,14.19,30a10.88,10.88,0,0,0,2-4.7l.09.24c0-.07-.21,0-.37.16a2.87,2.87,0,0,0-.42.6,15.49,15.49,0,0,0-.71,1.41,10.5,10.5,0,0,0-.82,3A1.36,1.36,0,0,0,14.43,32c.32.23.82,0,1.29-.21a6.46,6.46,0,0,0,2.4-1.9l.4.31a2.7,2.7,0,0,0-.64,1.26c-.05.41.22.88.56.89a1.83,1.83,0,0,0,1.63-1.86,1,1,0,0,0-.86-.93.45.45,0,0,0-.49.28c0,.21.14.38.37.45a3.72,3.72,0,0,0,1.52,0l1.56-.17-1.55.26a4,4,0,0,1-1.58.1c-.25-.05-.6-.29-.54-.65a.7.7,0,0,1,.72-.52,1.35,1.35,0,0,1,1.19,1.13A1.84,1.84,0,0,1,19.93,32a2.86,2.86,0,0,1-.64.56,1.51,1.51,0,0,1-.89.26,1.07,1.07,0,0,1-.82-.54,1.53,1.53,0,0,1-.2-.91,3.16,3.16,0,0,1,.74-1.51l.4.3a7.09,7.09,0,0,1-2.59,2.05,5.78,5.78,0,0,1-.8.3,1.22,1.22,0,0,1-1-.12,1.82,1.82,0,0,1-.67-1.65,10.53,10.53,0,0,1,.86-3.18,13.33,13.33,0,0,1,.74-1.46,3.63,3.63,0,0,1,.49-.71A1.19,1.19,0,0,1,16,25.1a.64.64,0,0,1,.62.08l.12.1,0,.14a11.42,11.42,0,0,1-2.13,4.92,8.23,8.23,0,0,1-1.95,1.91,2.83,2.83,0,0,1-1.35.46,1.7,1.7,0,0,1-1.39-.56,1.82,1.82,0,0,1-.41-1.43,1.45,1.45,0,0,1,.93-1.2.9.9,0,0,1,.86.12.81.81,0,0,1,.28.85,2.05,2.05,0,0,1-.94,1.15,12.28,12.28,0,0,1-5.14,1.54l-1.65.12,1.55-.6a2.66,2.66,0,0,0,1.33-1.15c.28-.49.47-1.21.21-1.58s-1-.24-1.39.15a3.38,3.38,0,0,0-.93,1.55,25.16,25.16,0,0,0-.87,3.77,28,28,0,0,0-.3,3.88l-.51,0Z"
                  style="fill:#010101"/>
            <path d="M22,30.14a1.25,1.25,0,0,1,.61,0,.8.8,0,0,1,.56.27,1.81,1.81,0,0,1,.59,1.13,1.85,1.85,0,0,1-1.37,1.94l-.62.16.35-.54a1.92,1.92,0,0,1,1-.76l.32-.08.33.06a1.32,1.32,0,0,1,.55.29,1.69,1.69,0,0,0-.56.06,1.84,1.84,0,0,0-.25.09l-.24.05a1.43,1.43,0,0,0-.77.57L22.22,33a1.36,1.36,0,0,0,1-1.41,1.31,1.31,0,0,0-.42-.81,2.31,2.31,0,0,0-.19-.14,1.07,1.07,0,0,0-.18-.19A2,2,0,0,0,22,30.14Z"
                  style="fill:#010101"/>
            <path d="M35.86,30.55a1.79,1.79,0,0,0-2.08.16,1.67,1.67,0,0,0-.39,1.92c.17.34.3.37.58.18a10.66,10.66,0,0,0,.85-.71,11.22,11.22,0,0,0,1.46-1.69l.43-.62,0,.75a41.38,41.38,0,0,1-.81,9.55L35.43,40l1.66-9.51,0-.22h.23a.92.92,0,0,1,.7.54,5.55,5.55,0,0,0,.32.57.88.88,0,0,0,1,.27,1.53,1.53,0,0,0,.9-.71,5.86,5.86,0,0,0,.52-1.19l.47.15a3.26,3.26,0,0,0-.13,1.56.93.93,0,0,0,1,.7,1.64,1.64,0,0,0,1.23-.75,6.81,6.81,0,0,0,.7-1.49l.42.21a1.67,1.67,0,0,0,.35,2.22,1.52,1.52,0,0,0,2.22-.64,1.64,1.64,0,0,1-2.35.84,2,2,0,0,1-.62-2.68l1-1.76-.57,2a5.36,5.36,0,0,1-.74,1.62,2.19,2.19,0,0,1-1.61,1,1.43,1.43,0,0,1-1-.24,1.36,1.36,0,0,1-.58-.83,3.57,3.57,0,0,1,.13-1.82l.48.15a6.06,6.06,0,0,1-.57,1.29,2,2,0,0,1-1.2.92A1.37,1.37,0,0,1,38,31.69c-.28-.43-.42-.92-.65-.91l.27-.2-1.65,9.5-.5-.09a40.9,40.9,0,0,0,.8-9.43l.46.13a11.79,11.79,0,0,1-1.53,1.78,7,7,0,0,1-.92.76A.76.76,0,0,1,33,32.79a2,2,0,0,1,.63-2.24A1.91,1.91,0,0,1,35.86,30.55Z"
                  style="fill:#010101"/>
            <path d="M50.43,30.11a4.23,4.23,0,0,0-2.24.6,1.78,1.78,0,0,0-.77.74c-.16.3-.21.69-.08.83s.5.08.87,0a3.87,3.87,0,0,0,1-.49,4.06,4.06,0,0,0,1.44-1.69l.66-1.43-.18,1.57-.21,1.85a.94.94,0,0,0,.16.68c.11.11.3.07.55-.12A10.45,10.45,0,0,0,54.24,30l.55-.78-.1.94c-.08.78-.62,1.32-.63,1.82a.49.49,0,0,0,.38.48,1.42,1.42,0,0,0,.8-.09,5.32,5.32,0,0,0,1.53-1,6.32,6.32,0,0,0,1.16-1.47l.17-.3.23.25a6.47,6.47,0,0,1,.74.89,2.31,2.31,0,0,1,.44,1.15,1.61,1.61,0,0,1-.44,1.21,1.08,1.08,0,0,1-1.28.29l-.35-.18.31-.19a4.23,4.23,0,0,1,3.44-.45,4.15,4.15,0,0,0-3.2.8L58,33c.51.18,1.12-.49,1.06-1.07A3.25,3.25,0,0,0,58,30.19l.4-.05a7.19,7.19,0,0,1-1.25,1.6,5.9,5.9,0,0,1-1.7,1.14,1.89,1.89,0,0,1-1.11.1,1,1,0,0,1-.75-1c.08-.83.61-1.31.63-1.85l.46.16A10.62,10.62,0,0,1,51.91,33a1.46,1.46,0,0,1-.5.25.75.75,0,0,1-.66-.16A1.37,1.37,0,0,1,50.42,32c.06-.67.14-1.26.21-1.89l.48.13a4.6,4.6,0,0,1-2.75,2.45,3.64,3.64,0,0,1-.63.15.88.88,0,0,1-.75-.25.86.86,0,0,1-.21-.76,1.74,1.74,0,0,1,.27-.64,2.17,2.17,0,0,1,1-.78A4.09,4.09,0,0,1,50.43,30.11Z"
                  style="fill:#010101"/>
            <path d="M66.7,31.8a2.6,2.6,0,0,1,.25.36v2.16a2.8,2.8,0,0,1-.25.35c-.1-.11-.16-.23-.25-.35V32.16A3.9,3.9,0,0,1,66.7,31.8Z"
                  style="fill:#010101"/>
            <path d="M74.16,32.32a13.55,13.55,0,0,0,2.07-3.14l.4-.85-.13,1a4,4,0,0,0,0,1.58,1,1,0,0,0,1,.8,1.42,1.42,0,0,0,1.15-.72,4.7,4.7,0,0,0,.52-1.49l.11-.5.32.39a1.33,1.33,0,0,1,.15,1.17,2,2,0,0,0-.1.87c.1.47.85.66,1.31.42a3,3,0,0,0,1.17-1.38,4.23,4.23,0,0,1,1.29-1.65l.25-.16.12.26a4.93,4.93,0,0,1,.29,3.1l-.44-.22,1-1.28c.38-.43.65-.83,1.11-1.29a.63.63,0,0,1,.62-.14.77.77,0,0,1,.43.42,3.16,3.16,0,0,1,.22.88,3.56,3.56,0,0,1-.23,1.74l-.43-.25,2.13-2.57a2.19,2.19,0,0,1,.75-.57.85.85,0,0,1,1,.28,1.2,1.2,0,0,1,0,1c-.09.29-.2.55-.3.8a2,2,0,0,0-.16.7.3.3,0,0,0,.3.28c.37,0,.83-.44,1.27-.75l2.67-2,.26.42a3.7,3.7,0,0,0-1.49,1.18,1.08,1.08,0,0,0,.28,1.48c.44.29.91-.24,1.34-.78l1.35-1.56L96,29.6l.1.17a30.91,30.91,0,0,1,1.66,3.49,29.72,29.72,0,0,0-1.91-3.34l.24,0L94.87,31.6a3.83,3.83,0,0,1-.71.83,1.08,1.08,0,0,1-1.24.1,1.58,1.58,0,0,1-.45-2.17A4.22,4.22,0,0,1,94.16,29l.26.42-2.66,2-.67.5a1.62,1.62,0,0,1-.91.35.8.8,0,0,1-.79-.75,2.3,2.3,0,0,1,.2-.91c.1-.26.21-.52.28-.76a.71.71,0,0,0,0-.59c-.17-.31-.67-.05-1,.34l-2.11,2.56-1,1.25.61-1.51a3.07,3.07,0,0,0,.21-1.5,3.16,3.16,0,0,0-.18-.72c-.13-.2-.13-.2-.29-.1-.31.32-.69.82-1,1.22l-1,1.28-.69.83.25-1a4.39,4.39,0,0,0-.26-2.77l.36.11a3.86,3.86,0,0,0-1.12,1.47,3.42,3.42,0,0,1-1.39,1.59,1.58,1.58,0,0,1-1.15.09,1.2,1.2,0,0,1-.86-.84,2.43,2.43,0,0,1,.09-1.1c.07-.31.1-.59,0-.73l.43-.11a5.17,5.17,0,0,1-.57,1.64,2,2,0,0,1-1.57,1,1.33,1.33,0,0,1-.93-.37,1.65,1.65,0,0,1-.43-.85,4.36,4.36,0,0,1,.09-1.73l.27.1A13.53,13.53,0,0,1,74.16,32.32Z"
                  style="fill:#010101"/>
            <path d="M107.94,29.88a48.85,48.85,0,0,1,0,8.38h-.5a18.72,18.72,0,0,1,0-3.59,16.13,16.13,0,0,1,.67-3.54,2,2,0,0,1,1.31-1.42,1.61,1.61,0,0,1,1.73.9,1.8,1.8,0,0,1-.17,1.93,2.84,2.84,0,0,1-1.58,1.07l-.1-.49a9.57,9.57,0,0,0,4.46-1.8c.29-.24.49-.54.39-.8s-.29-.34-.58-.06c-.54.48-1,1.36-.58,1.86s1.34.17,1.77-.38a18.21,18.21,0,0,1,1.4-2.1,1.29,1.29,0,0,1,.67-.37,1.13,1.13,0,0,1,.77.18,1.67,1.67,0,0,1,.72,1.23,2,2,0,0,1-1.44,2.19l0-.49c.63.1,1.05-.68,1.45-1.34a4.58,4.58,0,0,1,.74-1,1.43,1.43,0,0,1,1.3-.43A1.81,1.81,0,0,1,121.65,32a1.87,1.87,0,0,1-2.09,1.4l-1.23-.2,1.21-.29A9.31,9.31,0,0,0,124,30.31l.17.42c-.63,0-1,1.07-.55,1.58a1.36,1.36,0,0,0,2-.18,1.44,1.44,0,0,0-.06-2.11,1.4,1.4,0,0,0-2.12.46,1.48,1.48,0,0,1,2.21-.58,1.53,1.53,0,0,1,.63,1.16,1.85,1.85,0,0,1-.43,1.27,2,2,0,0,1-1.18.69,1.44,1.44,0,0,1-1.36-.42,1.49,1.49,0,0,1-.26-1.43,1.24,1.24,0,0,1,1.16-.94l.57,0-.39.41a9.8,9.8,0,0,1-4.72,2.7l0-.49a1.36,1.36,0,0,0,1.52-1,1.31,1.31,0,0,0-.89-1.56c-.64-.15-1.13.54-1.51,1.21a8.42,8.42,0,0,1-.69,1,1.39,1.39,0,0,1-1.26.54l-1.3-.23,1.28-.26a1.51,1.51,0,0,0,1-1.65c0-.7-.84-1.34-1.32-.73a19.72,19.72,0,0,0-1.35,2.05A2.25,2.25,0,0,1,114,33a1.28,1.28,0,0,1-1.4-.38,1.4,1.4,0,0,1-.14-1.43,3.08,3.08,0,0,1,.77-1.11,1,1,0,0,1,.76-.31.83.83,0,0,1,.63.58,1,1,0,0,1-.07.8,1.81,1.81,0,0,1-.48.54,9.85,9.85,0,0,1-4.7,1.91l-.1-.49a2.26,2.26,0,0,0,1.3-.87,1.28,1.28,0,0,0,.14-1.4,1.12,1.12,0,0,0-1.17-.65,1.54,1.54,0,0,0-1,1.11,16.62,16.62,0,0,0-.65,3.4,19.37,19.37,0,0,0,0,3.49h-.5A48.11,48.11,0,0,0,107.94,29.88Z"
                  style="fill:#010101"/>
            <path d="M128.93,30.09a3.29,3.29,0,0,0-1.09.41,1.1,1.1,0,0,0-.69.64.85.85,0,0,0,.17.86.59.59,0,0,0,.78-.05c.29-.2.54-.51.88-.79a2.13,2.13,0,0,1,1.25-.46,2.57,2.57,0,0,1,1.28.3,1.89,1.89,0,0,1,.7,1.08,1.9,1.9,0,0,0-.94-.64,2,2,0,0,0-1-.24,1.66,1.66,0,0,0-1,.35c-.28.23-.54.55-.9.81a1.1,1.1,0,0,1-1.42,0,1.37,1.37,0,0,1-.3-1.37,1.62,1.62,0,0,1,1-1A2.84,2.84,0,0,1,128.93,30.09Z"
                  style="fill:#010101"/>
            <path d="M147.84,30.37l.22,8.34h-.42a18.15,18.15,0,0,1,.09-4.23,19.7,19.7,0,0,1,1-4.13,2.73,2.73,0,0,1,1.49-1.67,1.8,1.8,0,0,1,1.19-.05,1.51,1.51,0,0,1,.88.85,2.34,2.34,0,0,1-.33,2.23A2.77,2.77,0,0,1,150,32.89L150,32.4a16.73,16.73,0,0,0,3.13-1.06c.5-.23,1-.48,1.47-.76l.68-.41a.53.53,0,0,0,.14-.24s0-.08,0-.05.11.08.08.07h.05c-.54.1-.7,1-.39,1.46a1,1,0,0,0,1.55,0,1.27,1.27,0,0,0,.3-1.66.69.69,0,0,0-.68-.36.56.56,0,0,0-.51.47l-.28-.25a32.21,32.21,0,0,0,5.59-1.22l1.65-.53-1.44,1a6.27,6.27,0,0,0-1.19,1.05,2.87,2.87,0,0,0-.77,1.29c-.1.5.18.78.57.54A6.39,6.39,0,0,0,161,30.63a11.76,11.76,0,0,0,2.53-5.89l.48.14a19.21,19.21,0,0,0-1.13,3.19c-.14.55-.25,1.11-.34,1.66a3.4,3.4,0,0,0,0,1.58,1.08,1.08,0,0,0,1.12.68,3.36,3.36,0,0,0,1.51-.44,5.59,5.59,0,0,0,2.36-2.26l.17.24a1.19,1.19,0,0,0-1,1,1.53,1.53,0,0,0,.35,1.44,1.94,1.94,0,0,0,1.46.54,2.77,2.77,0,0,0,1.54-.5,2.83,2.83,0,0,1-1.53.59,2.11,2.11,0,0,1-1.59-.51,1.73,1.73,0,0,1-.47-1.61,1.45,1.45,0,0,1,1.17-1.25l.31,0-.14.28A6.1,6.1,0,0,1,165.39,32a3.63,3.63,0,0,1-1.75.5,1.91,1.91,0,0,1-.95-.23,1.47,1.47,0,0,1-.65-.78,4,4,0,0,1,0-1.83c.1-.57.21-1.14.36-1.7a20.26,20.26,0,0,1,1.15-3.28l.7-1.52L164,24.81a12.29,12.29,0,0,1-2.64,6.13,6.23,6.23,0,0,1-1.23,1.23.86.86,0,0,1-1.06-.05,1.11,1.11,0,0,1-.25-1,2.19,2.19,0,0,1,.36-.86,5.82,5.82,0,0,1,.52-.68A6.93,6.93,0,0,1,161,28.45l.22.44a31.45,31.45,0,0,1-5.68,1.24l-.29,0v-.29a1,1,0,0,1,.94-.95,1.18,1.18,0,0,1,1.17.58,1.67,1.67,0,0,1,.24,1.23,1.89,1.89,0,0,1-.63,1.07,1.75,1.75,0,0,1-1.16.47,1.32,1.32,0,0,1-1.14-.62,1.67,1.67,0,0,1-.19-1.25,1.23,1.23,0,0,1,.89-1h0a.4.4,0,0,1,.41.27.54.54,0,0,1,0,.36,1.08,1.08,0,0,1-.3.47c-.28.2-.49.31-.75.47-.49.28-1,.54-1.52.78a17.2,17.2,0,0,1-3.22,1.09L150,32.4a2.17,2.17,0,0,0,1.84-2.72,1.05,1.05,0,0,0-1.44-.52,2.27,2.27,0,0,0-1.2,1.38,19.29,19.29,0,0,0-.94,4,27.21,27.21,0,0,0-.17,4.14h-.42Z"
                  style="fill:#010101"/>
            <path d="M175.09,32.27a3,3,0,0,1,.09.41l-.12.3c-.07.21-.14.42-.19.64s-.1.43-.13.65l0,.33c-.1.1-.17.21-.28.32a3.6,3.6,0,0,1-.22-.37l0-.36c0-.23.09-.46.14-.69s.13-.46.21-.68l.13-.34A2.22,2.22,0,0,1,175.09,32.27Z"
                  style="fill:#010101"/>
            <path d="M185.88,29.58a3,3,0,0,0-2,1,2.33,2.33,0,0,0-.53,1,.7.7,0,0,0,1.16.77,6.78,6.78,0,0,0,.86-.76,12.51,12.51,0,0,0,1.48-1.77l.42.27a2.94,2.94,0,0,0-.55,1.4c0,.47.29.92.72.91a2.54,2.54,0,0,0,1.33-.65q.67-.48,1.32-1a9.29,9.29,0,0,0,2.19-2.37,4.78,4.78,0,0,0,.75-3l.43.14A9.79,9.79,0,0,0,191.58,28a9.14,9.14,0,0,0-.58,1.45,3.74,3.74,0,0,0-.24,1.47c.1.94,1.38,1.29,2.22.9a5,5,0,0,0,2-2.23l.42.27c-.42.59-.81,1.28-.59,1.84a.85.85,0,0,0,.62.54c.25,0,.46-.17.66-.49a6.13,6.13,0,0,1,3.78-2.61l1.66-.36-1.49.83a4.67,4.67,0,0,0-1.44,1.25c-.34.47-.8,1.24-.5,1.47.11.12.42.07.68-.07a2.05,2.05,0,0,0,.69-.6l1.3-1.54.27-.31.15.35c.38.89-.08,1.64,0,2.27a.57.57,0,0,0,.5.57,1.45,1.45,0,0,0,.91-.32c.56-.43,1.12-.95,1.68-1.42L206,29.86l-1.58,1.55c-.53.51-1,1-1.6,1.54a1.8,1.8,0,0,1-1.11.45,1,1,0,0,1-.9-.88c-.08-.82.25-1.56,0-2.09l.43,0L199.86,32a2.51,2.51,0,0,1-.83.71,1.74,1.74,0,0,1-.57.19.79.79,0,0,1-.94-.83,1.7,1.7,0,0,1,.15-.58,5.33,5.33,0,0,1,.55-.92,5.08,5.08,0,0,1,1.6-1.39l.17.46a5.63,5.63,0,0,0-3.47,2.4,2.27,2.27,0,0,1-.41.49.94.94,0,0,1-.71.21,1.32,1.32,0,0,1-1-.84,1.73,1.73,0,0,1,0-1.29,5.34,5.34,0,0,1,.59-1l.42.26a5.4,5.4,0,0,1-2.25,2.44,2.46,2.46,0,0,1-1.75.07A1.69,1.69,0,0,1,190.27,31a4.06,4.06,0,0,1,.25-1.69,11.08,11.08,0,0,1,.61-1.53,10.25,10.25,0,0,1,1.92-2.66l.37-.37.06.52a5.32,5.32,0,0,1-.82,3.33,10,10,0,0,1-2.31,2.5c-.44.35-.89.68-1.34,1a2.87,2.87,0,0,1-1.64.74,1.17,1.17,0,0,1-.9-.48,1.63,1.63,0,0,1-.3-.92,3.33,3.33,0,0,1,.62-1.67l.42.26a8.42,8.42,0,0,1-1.57,1.85,8.24,8.24,0,0,1-1,.74,1.2,1.2,0,0,1-1.3.08,1.12,1.12,0,0,1-.3-1.24,2.51,2.51,0,0,1,.65-1A3,3,0,0,1,185.88,29.58Z"
                  style="fill:#010101"/>
            <path d="M206.18,30.88a4.87,4.87,0,0,1,.61.79,2.21,2.21,0,0,1,.12,1,1.56,1.56,0,0,1-.56.95,1.13,1.13,0,0,1-1.14.19l-.38-.18.34-.25a5.17,5.17,0,0,1,1.9-.85,6,6,0,0,1,1-.11,3.64,3.64,0,0,1,1,.35,5.14,5.14,0,0,0-1,.16,4.22,4.22,0,0,0-.94.09,4.67,4.67,0,0,0-1.72.76l0-.43c.38.19.94-.27,1-.75a1.9,1.9,0,0,0-.09-.81A8.57,8.57,0,0,0,206.18,30.88Z"
                  style="fill:#010101"/>
            <path d="M200.86,28a3.4,3.4,0,0,1,.12-.38l.25-.18c.16-.13.32-.26.47-.4s.3-.29.45-.44l.2-.23c.13,0,.25-.06.4-.08a2.75,2.75,0,0,1,0,.41l-.22.25c-.15.16-.31.31-.47.46a5.17,5.17,0,0,1-.51.42l-.26.2A2.93,2.93,0,0,1,200.86,28Z"
                  style="fill:#010101"/>
            <path d="M215,33.18a1.85,1.85,0,0,1,.36.38c0,.15.05.31.07.46a4.93,4.93,0,0,1,0,.94,4,4,0,0,1-.23.9,3.3,3.3,0,0,1-.19.43,2.47,2.47,0,0,1-.44.27c0-.18,0-.33,0-.49s.11-.25.16-.38a3.24,3.24,0,0,0,.2-.8,3.85,3.85,0,0,0,0-.83c0-.13,0-.27-.06-.4Z"
                  style="fill:#010101"/>
            <path d="M224.07,30.17a3.47,3.47,0,0,0-.32,2,1.29,1.29,0,0,0,1.39,1,2.07,2.07,0,0,0,1.55-.92,7.24,7.24,0,0,0,.91-1.75l.44.22a1.41,1.41,0,0,0,.07,1.48,1.39,1.39,0,0,0,1.38.52,2.33,2.33,0,0,0,1.27-1,4.13,4.13,0,0,1,1.4-1.35l.43-.19-.08.46L232.12,33l-.43-.22,1.1-1.17A14.24,14.24,0,0,1,234,30.38a.94.94,0,0,1,.51-.19.64.64,0,0,1,.55.3,1.79,1.79,0,0,1,.17.91V33l-.48-.08a5.07,5.07,0,0,1,3.49-3.11l.23-.05.07.21c.3.95-.3,1.69-.14,2.32,0,.33.22.57.48.57a1.46,1.46,0,0,0,.86-.4c.56-.46,1-1.1,1.58-1.66a2.79,2.79,0,0,1,2.28-.9l.35.06-.17.31a3,3,0,0,1-1.28,1,2.21,2.21,0,0,0-.55.38,1.19,1.19,0,0,0-.28.56c-.09.43.14.67.56.53A5.55,5.55,0,0,0,243.4,32a5.36,5.36,0,0,0,1-1.06,1,1,0,0,1,.74-.47,1.13,1.13,0,0,1,.75.4L248,33.13l-2.26-2a.86.86,0,0,0-.57-.28c-.18,0-.32.18-.45.38a5.81,5.81,0,0,1-1,1.22,4.15,4.15,0,0,1-1.37.84,1,1,0,0,1-1-.16,1,1,0,0,1-.23-.94,1.65,1.65,0,0,1,.4-.79,2.63,2.63,0,0,1,.68-.49A2.55,2.55,0,0,0,243.3,30l.18.37a2.29,2.29,0,0,0-1.86.76c-.53.5-1,1.16-1.6,1.68a1.9,1.9,0,0,1-1.21.52.9.9,0,0,1-.67-.34,1.33,1.33,0,0,1-.28-.65c-.13-.91.42-1.65.17-2.23l.29.16a4.56,4.56,0,0,0-3.14,2.79l-.48,1.28v-3a1.42,1.42,0,0,0-.09-.65c-.06-.09-.16-.1-.35,0-.34.28-.72.75-1.08,1.12l-1.1,1.17-.57.61.14-.83.39-2.33.35.26A3.72,3.72,0,0,0,231.15,32a2.75,2.75,0,0,1-1.56,1.21,1.84,1.84,0,0,1-2-2.74l.45.22a7,7,0,0,1-1,1.87,2.48,2.48,0,0,1-1.94.93,1.64,1.64,0,0,1-1-.36,1.54,1.54,0,0,1-.51-.94A3.48,3.48,0,0,1,224.07,30.17Z"
                  style="fill:#010101"/>
            <path d="M260.6,30.1l-.38,4.69c-.09,1.56-.35,3.11-.52,4.66l-.26,2.4-.24-2.41a16.29,16.29,0,0,1,1.37-8.2,3.52,3.52,0,0,1,1.39-1.7,1.43,1.43,0,0,1,1.2-.09,1.64,1.64,0,0,1,.85.85,2.34,2.34,0,0,1-.09,2.22,1.64,1.64,0,0,1-2.16.58l-.72-.42.84,0a9.63,9.63,0,0,0,5-1.76c.39-.25.66-.55.51-.77a.76.76,0,0,0-.9-.19,1.56,1.56,0,0,0-.57,1,2.88,2.88,0,0,0-.08,1.26c.09.41.31.54.61.31s.63-.64.94-1c.66-.66,1.25-1.34,2-2a1.74,1.74,0,0,1,.68-.38,1,1,0,0,1,.82.14,1.48,1.48,0,0,1,.56,1.36,1.85,1.85,0,0,1-.75,1.21,5.81,5.81,0,0,1-1.21.69,6,6,0,0,0,1.13-.78,1.65,1.65,0,0,0,.6-1.13,1.2,1.2,0,0,0-.52-1.06.84.84,0,0,0-1,.29c-.6.66-1.27,1.32-1.91,2-.34.34-.6.65-1,1a.86.86,0,0,1-.91.13,1,1,0,0,1-.49-.73,3.37,3.37,0,0,1,.08-1.49,2,2,0,0,1,.8-1.31,1.22,1.22,0,0,1,1.59.35.83.83,0,0,1-.08.93,2.62,2.62,0,0,1-.57.51,10.14,10.14,0,0,1-5.3,1.85l.11-.47a1.14,1.14,0,0,0,1.48-.42,1.87,1.87,0,0,0,.06-1.74,1,1,0,0,0-1.37-.53A3.15,3.15,0,0,0,261,31.45a15.72,15.72,0,0,0-1.32,8h-.5c.22-1.55.34-3.11.63-4.65Z"
                  style="fill:#010101"/>
            <path d="M270.6,32.73a5,5,0,0,0,1.58-2.14,3.69,3.69,0,0,1,.87-1.11,1.75,1.75,0,0,1,1.42-.35,2.06,2.06,0,0,1,1.25.83,1.7,1.7,0,0,1,.2,1.52,2,2,0,0,1-2.56,1.14l-.8-.33.86-.14a13.61,13.61,0,0,0,6.32-2.84l1.75-1.42-1.39,1.76a11.73,11.73,0,0,1-1.17,1.1,1.31,1.31,0,0,0-.44,1.19c.08.4.48.52.94.35a7.71,7.71,0,0,0,1.37-.64,3.1,3.1,0,0,0,1.05-1,1.38,1.38,0,0,0,.23-.59c0-.14-.1-.24-.33-.34a2.29,2.29,0,0,0-2.59.55l0-.24c0,.19.36.32.68.34a6.17,6.17,0,0,0,1.05,0,16.07,16.07,0,0,0,2.12-.46,15.45,15.45,0,0,1,2.19-.46,4.84,4.84,0,0,1,2.29.23l1.59.61-1.69-.13a3,3,0,0,0-2.66,1.35.78.78,0,0,0-.15.59c0,.13.17.18.43.14a4.61,4.61,0,0,0,1.52-.5,4.84,4.84,0,0,0,1.31-.94c.38-.37.76-.93,1.42-1s1.13.46,1.5.85a2.35,2.35,0,0,0,1.35.93c-1.19-.06-1.72-1.68-2.81-1.53-.5.09-.81.59-1.18,1a5.05,5.05,0,0,1-1.35,1.13,5.32,5.32,0,0,1-1.69.55,1.09,1.09,0,0,1-.53,0,.7.7,0,0,1-.45-.45,1.31,1.31,0,0,1,.21-1,3.48,3.48,0,0,1,3.11-1.58l-.11.49a6.82,6.82,0,0,0-4.17.25,17.35,17.35,0,0,1-2.19.46,6.29,6.29,0,0,1-1.15,0,2.08,2.08,0,0,1-.62-.15.88.88,0,0,1-.5-.56l0-.13.09-.1a2.79,2.79,0,0,1,3.17-.67,1.23,1.23,0,0,1,.4.27.69.69,0,0,1,.22.52,1.87,1.87,0,0,1-.3.87,3.68,3.68,0,0,1-1.22,1.14,8.67,8.67,0,0,1-1.48.69,1.47,1.47,0,0,1-.93,0,1,1,0,0,1-.65-.75,1.83,1.83,0,0,1,.58-1.65,13,13,0,0,0,1.12-1l.36.34a14,14,0,0,1-6.56,2.95l.06-.47a1.51,1.51,0,0,0,1.89-.86,1.48,1.48,0,0,0-1.08-1.77,1.37,1.37,0,0,0-1.14.19,3.5,3.5,0,0,0-.87,1A5.19,5.19,0,0,1,270.6,32.73Z"
                  style="fill:#010101"/>
            <path d="M302.24,32.16c.51-1.29,1-2.59,1.36-3.92.19-.66.37-1.33.53-2s.35-1.33.5-2l.48.15a13,13,0,0,0-.81,6.33,4.57,4.57,0,0,0,.14.75.58.58,0,0,0,.43.35,2.36,2.36,0,0,0,1.44-.22,7.15,7.15,0,0,0,2.31-2.12l-.05.17s-.08-.11-.2-.12-.22,0-.33.17a3.67,3.67,0,0,0-.53,1,.91.91,0,0,0,.09.91,1.13,1.13,0,0,0,.9.32c.7,0,1.26-.67,1.74-1.3a3.73,3.73,0,0,1,2-1.6l.39-.09-.09.39-.71,3.13-.44-.22,2.38-2.77.12-.14.18.08a1.08,1.08,0,0,1,.58.88,4.47,4.47,0,0,1,0,.9c-.05.47.2,1.1.5,1,.15,0,.35-.23.52-.43a8.27,8.27,0,0,0,.51-.66,12,12,0,0,1,1.06-1.37,2.16,2.16,0,0,1,1.72-.72.53.53,0,0,1,.39.47,1.44,1.44,0,0,1-.08.49,1.93,1.93,0,0,0-.19.77,1.3,1.3,0,0,0,.87,1.21,1.42,1.42,0,0,0,1.5-.47,1.48,1.48,0,0,1-1.53.59,1.5,1.5,0,0,1-1.11-1.31,2.43,2.43,0,0,1,.14-.88c.07-.28.05-.49-.09-.49a1.48,1.48,0,0,0-.65.21,2.81,2.81,0,0,0-.61.48,11.34,11.34,0,0,0-1,1.31,8.73,8.73,0,0,1-.54.7,1.65,1.65,0,0,1-.8.59.76.76,0,0,1-.6-.13,1.14,1.14,0,0,1-.34-.43,2.12,2.12,0,0,1-.16-1c.06-.53.06-1.15-.28-1.29l.29-.06-2.38,2.76-.65.77.22-1L312,29.2l.29.3a3.33,3.33,0,0,0-1.7,1.42,3.11,3.11,0,0,1-2.09,1.48,1.6,1.6,0,0,1-1.32-.48,1.38,1.38,0,0,1-.18-1.4,4.11,4.11,0,0,1,.63-1.16.78.78,0,0,1,1.4.25v.09l-.07.09a7.56,7.56,0,0,1-2.49,2.27,2.88,2.88,0,0,1-1.77.25,1.07,1.07,0,0,1-.77-.66,3.7,3.7,0,0,1-.17-.87,13.51,13.51,0,0,1,.83-6.57l.48.14c-.16.68-.31,1.36-.52,2s-.45,1.32-.7,2C303.41,29.65,302.85,30.92,302.24,32.16Z"
                  style="fill:#010101"/>
            <path d="M300.56,27.08c.25-.16.51-.29.77-.43l.84-.19,1.67-.38,1.67-.38.84-.2c.29,0,.59,0,.89.06-.26.16-.52.29-.78.43l-.84.19-1.67.38-1.67.38-.83.2C301.15,27.12,300.86,27.12,300.56,27.08Z"
                  style="fill:#010101"/>
            <path d="M332.38,29.42a1.38,1.38,0,0,0-1.53.2,2.74,2.74,0,0,0-.77,1.38c-.13.52-.08,1,.38,1s.83-.3,1.11-.76a54.92,54.92,0,0,0,3.07-6l.47.15-.65,3c-.18,1-.58,2.05-.28,2.89a.94.94,0,0,0,1,.6,3.16,3.16,0,0,0,1.32-.5l1.28-.84a1.31,1.31,0,0,0,.48-.45.55.55,0,0,0,.09-.24c0-.06,0-.05,0-.09l.18,0a1.42,1.42,0,0,0-.83.6,1.39,1.39,0,0,0-.28,1,1.6,1.6,0,0,0,1.71,1.29,1.74,1.74,0,0,1-2-1.22,1.83,1.83,0,0,1,.2-1.35,1.78,1.78,0,0,1,1.13-.83l.08,0,.1,0a.59.59,0,0,1,.29.55,1,1,0,0,1-.17.48,1.89,1.89,0,0,1-.63.6l-1.29.84a3.62,3.62,0,0,1-1.55.58,1.44,1.44,0,0,1-1.46-.92,3,3,0,0,1-.07-1.65l.32-1.52.65-3,.48.15A54.53,54.53,0,0,1,332,31.52a2.54,2.54,0,0,1-.61.71,1.33,1.33,0,0,1-1,.28,1,1,0,0,1-.85-.67,1.46,1.46,0,0,1,.1-1,3,3,0,0,1,1-1.43A1.46,1.46,0,0,1,332.38,29.42Z"
                  style="fill:#010101"/>
            <path d="M7.7,49.7l1,1.92.47,1a3.47,3.47,0,0,0,.49.85c.14.15.37,0,.62-.22a1.93,1.93,0,0,0,.54-.78,2.11,2.11,0,0,0-.09-1.85l-.17-.3.34-.07,3.9-.82.51-.1-.24.47a4,4,0,0,0-.54,1.73,1,1,0,0,0,.92,1,2.13,2.13,0,0,0,1.47-.81,4.5,4.5,0,0,0,.83-1.63l.15-.53.29.45c.52.81,0,1.61.25,2.12.08.29.26.5.45.47s.48-.28.75-.48c.53-.44,1.23-.82,1.38-1.32a.5.5,0,0,0-.19-.6.26.26,0,0,0-.24.06c-.09.07-.1.12-.08.15l-.15-.13A5.06,5.06,0,0,0,25,49.5l.06.43a1.6,1.6,0,0,0-2,1.41,1.66,1.66,0,0,0,2.25,1.4,1.66,1.66,0,0,1-1.59,0,1.74,1.74,0,0,1-1-1.35,1.9,1.9,0,0,1,2.5-1.89l.41.15-.34.28a5.56,5.56,0,0,1-5.2.87l-.1,0-.05-.1a.64.64,0,0,1,.23-.76.75.75,0,0,1,.74-.12,1,1,0,0,1,.48,1.2,1.91,1.91,0,0,1-.72.93l-.83.64a2.25,2.25,0,0,1-1,.58.81.81,0,0,1-.67-.26,1.33,1.33,0,0,1-.3-.56,2,2,0,0,1-.08-.6l.05-.52a1.23,1.23,0,0,0-.14-.84l.44-.08a4.88,4.88,0,0,1-.93,1.81,2.61,2.61,0,0,1-1.86,1,1.43,1.43,0,0,1-1-.49A1.58,1.58,0,0,1,14,51.5a4.54,4.54,0,0,1,.6-2l.27.36-3.9.82.17-.37a2.71,2.71,0,0,1-.55,3.26,1.63,1.63,0,0,1-.53.32.7.7,0,0,1-.73-.16,3.46,3.46,0,0,1-.49-1l-.38-1Z"
                  style="fill:#010101"/>
            <path d="M26.92,50c0,.44-.08.87-.12,1.31a2.7,2.7,0,0,1-.14.64l-.16.63-.41-.25a17.8,17.8,0,0,0,1.35-1.87,2.56,2.56,0,0,1,1-.78,1.41,1.41,0,0,1,1.35.11,1.14,1.14,0,0,1,.55,1.28c-.18.49-.49.71-.47,1,0,.53.71,1.12,1.38,1.5a3.42,3.42,0,0,1-1.17-.38A1.24,1.24,0,0,1,29.4,52c0-.55.43-.87.48-1.13a.64.64,0,0,0-.34-.71c-.54-.38-1.27,0-1.71.57a15.86,15.86,0,0,1-1.41,1.92l-.63.58.22-.83.17-.63a2.77,2.77,0,0,1,.19-.62C26.55,50.78,26.72,50.37,26.92,50Z"
                  style="fill:#010101"/>
            <path d="M36.31,53.34l-.21.15,0,0L36,53.4,36,53.34l0,0,.15-.21.2-.14,0,0,.06.06.06.06,0,0Z"
                  style="fill:#010101"/>
            <path d="M44.68,46.87a4.41,4.41,0,0,0,3-1.25l.2.32A11.23,11.23,0,0,0,46,47.22a5.12,5.12,0,0,0-1.3,1.69A1.38,1.38,0,0,0,47,50.41l.27.4a6.11,6.11,0,0,0-2.61,1.81c-.35.4-.58.87-.34,1.2a1.57,1.57,0,0,0,1.3.45A7.2,7.2,0,0,0,51,51.1l.39.32c-.37.35-.6.74-.38,1a.89.89,0,0,0,1.09.24,2.7,2.7,0,0,0,1-1,5,5,0,0,1,1-1.24l1.29-.91-.93,1.24A1.27,1.27,0,0,0,55,52.48a2.29,2.29,0,0,0,2.1,0,2.42,2.42,0,0,1-2.22.19,1.74,1.74,0,0,1-.82-.89,1.48,1.48,0,0,1,0-1.28l.36.33A4.63,4.63,0,0,0,53.5,52a3.17,3.17,0,0,1-1.2,1.15,1.39,1.39,0,0,1-1.71-.4,1,1,0,0,1-.08-1,2.34,2.34,0,0,1,.51-.69l.39.31a7.77,7.77,0,0,1-2.49,2.35,7.53,7.53,0,0,1-3.28,1,2,2,0,0,1-1.72-.67,1.16,1.16,0,0,1-.12-1,2.47,2.47,0,0,1,.49-.78,6.56,6.56,0,0,1,2.82-2l1-.34-.7.75a1.88,1.88,0,0,1-3.11-2,5.52,5.52,0,0,1,1.44-1.88,6.15,6.15,0,0,1,2-1.26l1.21-.49-1,.81A4.42,4.42,0,0,1,44.68,46.87Z"
                  style="fill:#010101"/>
            <path d="M70.05,50a3.72,3.72,0,0,0-1.89.87,1,1,0,0,0-.3.83,1.07,1.07,0,0,0,.31.79.54.54,0,0,0,.7,0,3.28,3.28,0,0,0,.66-.75l1.26-1.77.61-.85-.16,1a3,3,0,0,0,.09,1.8c.28.5.88.78,1.31.4s1-.86,1.5-1.29l1.51-1.3.21.43a2.22,2.22,0,0,0-1.62,1.06,1,1,0,0,0,.53,1.48,1.71,1.71,0,0,0,1-.05,5.28,5.28,0,0,0,1-.35,14.83,14.83,0,0,0,2-1.06,12.72,12.72,0,0,1-1.79,1.38,2.88,2.88,0,0,1-2.29.57,1.36,1.36,0,0,1-.94-.91A1.74,1.74,0,0,1,73.78,51a2.73,2.73,0,0,1,2-1.34l1-.21L76,50.1l-1.51,1.31c-.52.44-1,.87-1.54,1.31a1.19,1.19,0,0,1-1.17.2,1.61,1.61,0,0,1-.86-.76,3.36,3.36,0,0,1-.15-2.11l.45.18L69.93,52a3.62,3.62,0,0,1-.77.87,1.07,1.07,0,0,1-1.31,0,1.58,1.58,0,0,1-.5-1.17,1.42,1.42,0,0,1,.57-1.08A3.62,3.62,0,0,1,70.05,50Z"
                  style="fill:#010101"/>
            <path d="M79.41,49.77a3,3,0,0,0-.25,2.36H79a3.44,3.44,0,0,1,1.77-2.37,1.74,1.74,0,0,1,1.61-.16.7.7,0,0,1,.32.94,1.78,1.78,0,0,1-.59.6c-.18.14-.31.28-.32.42A.6.6,0,0,0,82,52a1.16,1.16,0,0,0,1.14.15,4.78,4.78,0,0,0,2.33-1.46c.15-.17.21-.32.17-.41a.42.42,0,0,0-.36-.23c-.32,0-.68.33-.93.7a1,1,0,0,0-.16,1.09,1.28,1.28,0,0,0,1.07.5,1.84,1.84,0,0,0,1.17-.49,8,8,0,0,0,1-1,5.13,5.13,0,0,1,1.18-1,2.11,2.11,0,0,1,1.6-.28l1,.25-1,.23a5.07,5.07,0,0,0-1.58.69c-.44.32-1,.78-.84,1.08s.78.39,1.27.1a6.16,6.16,0,0,0,1.39-1,7.93,7.93,0,0,0,1.73-3,13,13,0,0,0,.59-3.52l.48.12a13.52,13.52,0,0,0-1.42,5.65A2.21,2.21,0,0,0,92,51.4a1,1,0,0,0,1.11.21c.83-.22,1.44-1.21,2.52-1.52l.85-.23-.67.55A1.4,1.4,0,0,0,96,52.54a1.48,1.48,0,0,0,2.09-.91,1.56,1.56,0,0,1-2.18,1.07,1.66,1.66,0,0,1-.36-2.56l.18.31c-.88.27-1.35,1.31-2.48,1.64a1.51,1.51,0,0,1-1.64-.38,2.52,2.52,0,0,1-.31-1.61,14,14,0,0,1,1.47-5.85l.52-1-.05,1.16A13.74,13.74,0,0,1,92.63,48a8.47,8.47,0,0,1-1.85,3.24,6.79,6.79,0,0,1-1.52,1.14,2.08,2.08,0,0,1-1,.27,1.14,1.14,0,0,1-1-.6.86.86,0,0,1,0-.63,1.37,1.37,0,0,1,.31-.47,6,6,0,0,1,.74-.61,5.15,5.15,0,0,1,1.75-.76v.48a2.6,2.6,0,0,0-2.28,1.12,8.94,8.94,0,0,1-1.07,1.06,2.35,2.35,0,0,1-1.49.6,1.78,1.78,0,0,1-1.48-.73,1.24,1.24,0,0,1-.17-.88,2.11,2.11,0,0,1,.34-.76,1.73,1.73,0,0,1,1.37-.92A.82.82,0,0,1,85.81,51a5.3,5.3,0,0,1-2.58,1.61,1.63,1.63,0,0,1-1.62-.28,1.08,1.08,0,0,1-.32-.87,1.16,1.16,0,0,1,.5-.75,1.79,1.79,0,0,0,.44-.43.23.23,0,0,0-.09-.31,1.42,1.42,0,0,0-1.21.09,3.17,3.17,0,0,0-1.77,2.07l-.08.33L79,52.17A3,3,0,0,1,79.41,49.77Z"
                  style="fill:#010101"/>
            <path d="M96.14,47.6l0-.25h.18l0,.25,0,.25h-.18Z" style="fill:#010101"/>
            <path d="M97.55,52.42a1.32,1.32,0,0,0,1.24.34,2.23,2.23,0,0,0,1.1-.68,10.52,10.52,0,0,0,1.49-2.24,26.81,26.81,0,0,0,2-5.07l.48.15-1,3.31-.52,1.65a5.39,5.39,0,0,0-.36,1.62c0,.53.16,1,.6,1.13a2.65,2.65,0,0,0,1.48-.4,6.26,6.26,0,0,0,2.45-2.2l.43.27c-.36.56-.65,1.38-.23,1.71a.87.87,0,0,0,.83.06,5.87,5.87,0,0,0,1-.43,1.76,1.76,0,0,0,1.16-1.44c0-.64-.68-.91-1.36-1-.33,0-.59.08-.67.31s.05.35.38.35a9.12,9.12,0,0,0,1.06-.16c.36-.06.74-.09,1.1-.14l4.43-.52-4.36.93a15.23,15.23,0,0,1-2.23.39.93.93,0,0,1-.69-.24.74.74,0,0,1-.16-.78,1,1,0,0,1,.51-.54,1.52,1.52,0,0,1,.65-.1,2.76,2.76,0,0,1,1.18.31,1.27,1.27,0,0,1,.66,1.13,1.79,1.79,0,0,1-.46,1.18,3.27,3.27,0,0,1-1,.71,6.41,6.41,0,0,1-1.06.47,1.38,1.38,0,0,1-1.29-.15,1.27,1.27,0,0,1-.35-1.27,3.67,3.67,0,0,1,.47-1.09l.43.26a6.86,6.86,0,0,1-2.66,2.38,5.58,5.58,0,0,1-.83.35,1.91,1.91,0,0,1-1,.09,1.24,1.24,0,0,1-.81-.67,2.35,2.35,0,0,1-.17-1,5.87,5.87,0,0,1,.38-1.76l.52-1.65,1-3.31.48.15a28,28,0,0,1-2,5.16,9.7,9.7,0,0,1-1.74,2.19,2.39,2.39,0,0,1-1.27.63A1.35,1.35,0,0,1,97.55,52.42Z"
                  style="fill:#010101"/>
            <path d="M101.64,47c.18-.08.35-.13.52-.21a4.26,4.26,0,0,0,.5,0,8.53,8.53,0,0,0,1,0,8.42,8.42,0,0,0,1-.14l.49-.1c.18,0,.36.05.56.1a3.86,3.86,0,0,1-.44.38l-.51.11a9.48,9.48,0,0,1-1.05.15,9.21,9.21,0,0,1-1,0h-.53A4,4,0,0,1,101.64,47Z"
                  style="fill:#010101"/>
            <path d="M124,49.31a4.75,4.75,0,0,0,.1,2.82h-.42a4.68,4.68,0,0,1,.81-1.77A6,6,0,0,1,125.84,49l.14-.11.15.1a1,1,0,0,1,.39,1,7.5,7.5,0,0,0,0,.79,1,1,0,0,0,.92.82,1.63,1.63,0,0,0,1.33-.44,5.78,5.78,0,0,0,1-1.21l.4.29a1.13,1.13,0,0,0,.16,1.37,1.26,1.26,0,0,0,1.4.36,2.16,2.16,0,0,0,1.22-1,.89.89,0,0,0-.25-1.28,3.57,3.57,0,0,0-1.61-.48.71.71,0,0,0-.63.17c-.12.18-.1.29.06.34a2.24,2.24,0,0,0,.8,0c.3,0,.6-.06.9-.11A9,9,0,0,0,134,49a8.23,8.23,0,0,1-1.68.76,9.12,9.12,0,0,1-.9.23,2.26,2.26,0,0,1-1,0,.65.65,0,0,1-.46-.51.77.77,0,0,1,.17-.62,1.18,1.18,0,0,1,1.05-.36,4,4,0,0,1,1.86.57,1.34,1.34,0,0,1,.61.89,1.58,1.58,0,0,1-.2,1,2.61,2.61,0,0,1-1.51,1.27,2,2,0,0,1-1,.06,1.8,1.8,0,0,1-.9-.56,1.61,1.61,0,0,1-.17-2l.4.29a6.54,6.54,0,0,1-1.11,1.32,2.15,2.15,0,0,1-1.73.55,1.81,1.81,0,0,1-.87-.39,1.33,1.33,0,0,1-.47-.88c0-.61.15-1.23-.13-1.38h.28a5.8,5.8,0,0,0-1.23,1.29,7.8,7.8,0,0,0-.8,1.61l-.28.66-.14-.66A4.83,4.83,0,0,1,124,49.31Z"
                  style="fill:#010101"/>
            <path d="M145.21,44.49c0,.33,0,.65,0,1l-.22.91c-.14.6-.26,1.22-.36,1.83s-.19,1.23-.25,1.85l-.09.93c-.1.31-.19.62-.3.93-.09-.32-.13-.64-.2-1l.09-1c.06-.63.15-1.26.25-1.88s.23-1.25.37-1.86l.22-.93C144.88,45.05,145,44.76,145.21,44.49Z"
                  style="fill:#010101"/>
            <path d="M148.88,44.5c.06.37.07.74.1,1.11l-.15,1.08-.3,2.15-.3,2.16-.15,1.07c-.13.35-.24.7-.39,1-.05-.38-.07-.74-.1-1.12l.15-1.07.3-2.16.3-2.15.14-1.08C148.62,45.19,148.73,44.84,148.88,44.5Z"
                  style="fill:#010101"/>
            <path d="M143.77,49.06c.17-.11.34-.18.51-.27s.34,0,.5,0c.34,0,.68-.08,1-.14s.66-.14,1-.24l.48-.15.57.06a5.44,5.44,0,0,1-.41.42l-.51.15c-.34.1-.68.18-1,.25s-.7.11-1,.15l-.53,0A5.05,5.05,0,0,1,143.77,49.06Z"
                  style="fill:#010101"/>
            <path d="M150.9,49.38A3.26,3.26,0,0,0,149,51c-.18.37-.39.82-.21,1.14s.64.31,1,.19a3.15,3.15,0,0,0,1.06-.61,1.46,1.46,0,0,0,.62-.92c.05-.34-.13-.71-.37-.75s-.58.29-.45.41l-.29-.11,3.64-1.2a2.19,2.19,0,0,1,.52-.13.76.76,0,0,1,.64.25,1.26,1.26,0,0,1,.15,1.14c-.1.38-.27.62-.32.9s-.05.52.1.61l-.36.08a9.06,9.06,0,0,1,2.63-2.91l.34-.24.06.4.38,2.55-.44-.12A15.29,15.29,0,0,1,160,49.32a4.36,4.36,0,0,1,.71-.51.68.68,0,0,1,.63.06.76.76,0,0,1,.27.53,1.62,1.62,0,0,1-.2.9,1.14,1.14,0,0,0-.15.62c0,.25.68.21,1.15.17a5,5,0,0,0,1.47-.41,5.05,5.05,0,0,0,2.27-2l.23.37a3.16,3.16,0,0,0-1.47.35.76.76,0,0,0-.3,1.07,1.61,1.61,0,0,0,1.22.62,1.83,1.83,0,0,0,1.31-.53,10.37,10.37,0,0,0,1.11-1.17,8.2,8.2,0,0,1,.57-.62,1.13,1.13,0,0,1,1-.37.59.59,0,0,1,.42.53,1.43,1.43,0,0,1-.09.49l-.25.79-.5,1.57-.37-.28,3.9-2.57.28-.19.1.33a5.7,5.7,0,0,1,0,2.9l-.4-.26c1.35-1,2.72-2,4.08-3.06l.05,0,0,0a.8.8,0,0,1,.45.81,2.92,2.92,0,0,1-.16.89,1.75,1.75,0,0,0,0,.85c.06.27.29.57.6.5-.31.09-.57-.21-.65-.48a1.83,1.83,0,0,1,0-.9,3.09,3.09,0,0,0,.1-.85.64.64,0,0,0-.36-.63h.1c-1.3,1.09-2.59,2.2-3.9,3.29l-.58.48.18-.74a5.14,5.14,0,0,0,0-2.64l.38.14-3.9,2.56-.59.39.22-.67.49-1.57.25-.79a.93.93,0,0,0,.07-.31c0-.06,0-.06-.05-.07-.27-.06-.69.43-1,.83A9.46,9.46,0,0,1,167.43,51a3,3,0,0,1-.74.48,1.94,1.94,0,0,1-.92.17,2.07,2.07,0,0,1-1.61-.85,1.19,1.19,0,0,1-.14-1,1.35,1.35,0,0,1,.6-.78,3.65,3.65,0,0,1,1.7-.42l.47,0-.24.41a5.52,5.52,0,0,1-4.11,2.64,4.72,4.72,0,0,1-.84,0,1.08,1.08,0,0,1-.5-.11.68.68,0,0,1-.36-.48,1.59,1.59,0,0,1,.19-.93,1,1,0,0,0,.15-.64c0-.2-.07-.21-.21-.17a3.57,3.57,0,0,0-.58.43A14.76,14.76,0,0,0,158.07,52l-.35.45-.09-.57-.39-2.54.39.16a8.89,8.89,0,0,0-2.49,2.76l-.13.24-.23-.16a.86.86,0,0,1-.34-.57,1.51,1.51,0,0,1,0-.57c.08-.35.27-.66.33-.9a.89.89,0,0,0,0-.7c-.1-.12-.31-.09-.63,0L150.5,50.8l-.19.06-.11-.17a.76.76,0,0,1,.16-.9.93.93,0,0,1,.82-.27,1.09,1.09,0,0,1,.74,1.33,1.9,1.9,0,0,1-.85,1.16,3.66,3.66,0,0,1-1.22.6,1.82,1.82,0,0,1-.7,0,.76.76,0,0,1-.6-.44,1.47,1.47,0,0,1,.28-1.31A3.34,3.34,0,0,1,150.9,49.38Z"
                  style="fill:#010101"/>
            <path d="M190.93,51c.27-.17.54-.33.79-.51a5.12,5.12,0,0,1,.77-.47,5.84,5.84,0,0,0,.73-.5.35.35,0,0,0,.13-.17c0-.05-.08,0,0-.05l-.11,0a1.16,1.16,0,0,0-1,.77,1.28,1.28,0,0,0,.11,1.3,1.39,1.39,0,0,0,1.24.46,6.87,6.87,0,0,0,.72-.13,1.69,1.69,0,0,0,.67-.41,1.59,1.59,0,0,1-.51.7,1.34,1.34,0,0,1-.83.34,1.93,1.93,0,0,1-1.69-.65,1.82,1.82,0,0,1-.17-1.81,1.67,1.67,0,0,1,1.46-1.07l-.11,0a.46.46,0,0,1,.49.07.57.57,0,0,1,.2.36.73.73,0,0,1-.29.62,6.71,6.71,0,0,1-.8.55,2.48,2.48,0,0,1-.88.38A6,6,0,0,1,190.93,51Z"
                  style="fill:#010101"/>
            <path d="M206.26,48.33a10.75,10.75,0,0,0-.79,3.08l-.35-.16a14.93,14.93,0,0,1,1.06-1.32c.38-.44.71-.86,1.14-1.31a1,1,0,0,1,.49-.27.72.72,0,0,1,.61.18,1.25,1.25,0,0,1,.27,1c-.16.64-.44,1.12-.16,1.41a.86.86,0,0,0,.6.26,1.23,1.23,0,0,0,.69-.14,4.88,4.88,0,0,0,1.24-1,11.93,11.93,0,0,1,1.25-1.2,2,2,0,0,1,1.79-.48l.51.14-.43.3c-.72.51-1.49,1-2.18,1.53-.31.25-.58.6-.51.88s.42.47.77.42c.7-.13,1.28-1,1.92-1.56l1.89-1.9.67-.67-.25.91c-.11.41-.19.82-.26,1.22a2.32,2.32,0,0,0,.08,1.17,1.43,1.43,0,0,0,.8.82,1,1,0,0,0,1.15-.13,1.12,1.12,0,0,1-1.21.3,1.7,1.7,0,0,1-1-.86,2.87,2.87,0,0,1-.25-1.35,5.64,5.64,0,0,1,.25-1.3l.42.24-1.89,1.9-.95,1a2.26,2.26,0,0,1-1.27.75,1.28,1.28,0,0,1-.79-.13,1,1,0,0,1-.53-.68,1.52,1.52,0,0,1,.69-1.37c.75-.55,1.47-1,2.2-1.55l.08.45a1.56,1.56,0,0,0-1.36.4,10.68,10.68,0,0,0-1.19,1.15A5.37,5.37,0,0,1,210,51.54a1.8,1.8,0,0,1-.95.18,1.42,1.42,0,0,1-.92-.42,1.1,1.1,0,0,1-.2-1c.07-.3.2-.58.23-.79a.73.73,0,0,0-.12-.59c-.09-.08-.23-.08-.41.1-.73.78-1.43,1.74-2.24,2.52l-.49.49.14-.65A9.77,9.77,0,0,1,206.26,48.33Z"
                  style="fill:#010101"/>
            <path d="M229.91,48.55l-.27,2.34a22.8,22.8,0,0,1-.41,2.31l-.92,4.59L228,59.52l-.15-1.75a10.45,10.45,0,0,1,2.41-7.53,6.34,6.34,0,0,1,1.51-1.4,1.41,1.41,0,0,1,1.16-.14,1,1,0,0,1,.73,1,1.29,1.29,0,0,1-.68.94l-.83.54-1.67,1.07,1.47-1.33.75-.66c.23-.21.46-.4.46-.6s-.16-.39-.4-.47a.9.9,0,0,0-.75.11,6.33,6.33,0,0,0-1.37,1.28,9.93,9.93,0,0,0-2.29,7.16l-.5,0,.92-4.6a22.31,22.31,0,0,1,.52-2.29Z"
                  style="fill:#010101"/>
            <path d="M230.76,53c.51-.43,1-.85,1.57-1.27A18.67,18.67,0,0,1,234,50.57l1.69-1.11a3.2,3.2,0,0,1,1-.42,1.33,1.33,0,0,1,1.16.22l.53.45h-.69a3.21,3.21,0,0,0-1.95.64,2.65,2.65,0,0,0-.7.72.42.42,0,0,0,.17.63c.53.33,1.14-.15,1.64-.68l1.59-1.59.56-.55-.13.77a6.53,6.53,0,0,0-.13,1.13,2.72,2.72,0,0,0,.21,1,1.22,1.22,0,0,0,.78.63.89.89,0,0,0,1-.3,1,1,0,0,1-1.05.53,1.52,1.52,0,0,1-1.12-.65,2,2,0,0,1-.33-1.24,7.86,7.86,0,0,1,.13-1.22l.43.22-1.6,1.58a4,4,0,0,1-.93.76,1.33,1.33,0,0,1-1.31,0,1,1,0,0,1-.47-.57,1,1,0,0,1,.11-.73,3.12,3.12,0,0,1,.84-.89,3.8,3.8,0,0,1,2.25-.73l-.16.44c-.38-.33-1.05-.08-1.58.24L234.25,51a15.73,15.73,0,0,1-1.71,1.06C232,52.37,231.36,52.7,230.76,53Z"
                  style="fill:#010101"/>
            <path d="M241,49.74l-.29,3.1-.29-.11.82-1.47c.28-.51.56-.95.9-1.46a1.34,1.34,0,0,1,.83-.58.86.86,0,0,1,.9.63,1.22,1.22,0,0,1-.17,1,3.12,3.12,0,0,1-.63.67l0-.4a2.29,2.29,0,0,0,2.23,0,4.32,4.32,0,0,0,1.81-1.58c.89-1.42,1.18-3.17,2.06-4.72l.42.27A10.09,10.09,0,0,0,248.23,48a9.89,9.89,0,0,0-.4,3.14c0,.51.33.72.84.65a4.49,4.49,0,0,0,1.45-.51,5.85,5.85,0,0,0,2.25-2.14l.06.33c-.14-.12-.38-.06-.62.1a3.25,3.25,0,0,0-.63.65c-.39.5-.63,1-.3,1.55a1.79,1.79,0,0,0,1.55.8,5.83,5.83,0,0,0,1.9-.44,5.93,5.93,0,0,1-1.89.63,2.07,2.07,0,0,1-1.88-.78,1.39,1.39,0,0,1-.27-1.09,2.08,2.08,0,0,1,.49-1,3.54,3.54,0,0,1,.74-.76,1.53,1.53,0,0,1,.55-.24.87.87,0,0,1,.66.15l.18.14-.11.19a6.28,6.28,0,0,1-2.45,2.32,5.11,5.11,0,0,1-1.62.57,1.31,1.31,0,0,1-1-.21,1.15,1.15,0,0,1-.43-.89,10.28,10.28,0,0,1,1.87-6.34l.42.27c-.84,1.44-1.13,3.2-2.08,4.73a4.8,4.8,0,0,1-2,1.78,2.81,2.81,0,0,1-2.71-.09l-.28-.19.25-.21c.42-.35.79-.75.65-1.15s-.54-.35-.85.1-.58,1-.9,1.41l-1,1.39-.44.64.14-.75Z"
                  style="fill:#010101"/>
            <path d="M244.07,48c.35-.15.7-.25,1.05-.37l1.07-.12,2.15-.23,2.15-.24,1.07-.11c.37,0,.73.06,1.11.13-.35.14-.7.24-1,.36l-1.07.12-2.15.24-2.16.23-1.07.12C244.8,48.1,244.44,48.07,244.07,48Z"
                  style="fill:#010101"/>
            <path d="M269.91,50.71c-.07-.63-.9-.79-1.32-.5a3,3,0,0,0-1,1.32,1.41,1.41,0,0,0-.14.75.43.43,0,0,0,.38.38c.38.05.89-.35,1.18-.78a37.49,37.49,0,0,0,3.28-6.13l.46.2a23.1,23.1,0,0,0-1,3.14q-.2.81-.33,1.62a6.12,6.12,0,0,0-.11.8.75.75,0,0,0,.15.56c.1.09.29.06.53-.07a3.84,3.84,0,0,0,.64-.44c.41-.34.78-.76,1.18-1.16a4.39,4.39,0,0,1,1.46-1,2.09,2.09,0,0,1,1.84.07l.76.46H277a3.9,3.9,0,0,0-2.36.84,3.29,3.29,0,0,0-.83.92c-.21.35-.16.66.15.8a1,1,0,0,0,1-.22c.32-.25.65-.59,1-.89.65-.63,1.3-1.25,2-1.83l.7-.57-.38.79A2.37,2.37,0,0,0,280,52.92a2.56,2.56,0,0,1-2.1-3.29l.32.22c-.61.67-1.27,1.28-1.93,1.9a13.29,13.29,0,0,1-1,.93,2,2,0,0,1-.69.35,1.28,1.28,0,0,1-.82-.08.93.93,0,0,1-.56-.68,1.21,1.21,0,0,1,.17-.81,3.88,3.88,0,0,1,1-1.08,4.39,4.39,0,0,1,2.66-.94l-.13.47a1.59,1.59,0,0,0-1.4,0,3.8,3.8,0,0,0-1.29.88c-.39.38-.76.81-1.21,1.19a3.4,3.4,0,0,1-.74.49,1.44,1.44,0,0,1-.47.17.77.77,0,0,1-.58-.14,1.16,1.16,0,0,1-.35-1,7.11,7.11,0,0,1,.11-.87c.1-.56.21-1.11.35-1.66a21.54,21.54,0,0,1,1.06-3.21l.45.19a37.54,37.54,0,0,1-3.32,6.22,3.37,3.37,0,0,1-.67.69,1.36,1.36,0,0,1-1,.3.91.91,0,0,1-.71-.83,1.78,1.78,0,0,1,.25-.94,3.2,3.2,0,0,1,1.21-1.34C269.05,49.74,269.91,50.07,269.91,50.71Z"
                  style="fill:#010101"/>
            <path d="M289.81,52.13a6.9,6.9,0,0,1,.95-2,2.67,2.67,0,0,1,.88-.75,2.19,2.19,0,0,1,1.18-.19,1.65,1.65,0,0,1,1.12.55,1.41,1.41,0,0,1,.27,1.26,3.11,3.11,0,0,1-1.56,1.77l-.18-.46a8.75,8.75,0,0,0,2.6-.79,2.82,2.82,0,0,0,1.52-2l.5.08c-.15.73-.61,1.26-.61,1.79a.88.88,0,0,0,.26.67c.16.12.4.09.69,0a5.73,5.73,0,0,0,2.8-2.36l1.12-1.83-.66,2a2.24,2.24,0,0,0-.06,1.92.77.77,0,0,0,.68.42,1.41,1.41,0,0,0,.81-.43c.52-.45.92-1.08,1.48-1.62a2.47,2.47,0,0,1,2.22-.78l.63.16-.57.3A6.26,6.26,0,0,0,304,51c-.41.46-.29,1.48.31,1.44a2.13,2.13,0,0,0,.95-.38,4.39,4.39,0,0,0,.84-.71,4.7,4.7,0,0,0,1-1.94l.08-.28.23.14a1.65,1.65,0,0,1,.68,1.08c.08.39.1.79.14,1.17a2.18,2.18,0,0,0,.42,1,.85.85,0,0,0,1,.35.88.88,0,0,1-1.06-.28,2.13,2.13,0,0,1-.55-1.06c-.08-.39-.13-.77-.24-1.12a1.22,1.22,0,0,0-.59-.8l.31-.14a4.06,4.06,0,0,1-1.08,2.19,4.53,4.53,0,0,1-.95.8,2.56,2.56,0,0,1-1.22.46,1,1,0,0,1-.7-.29,1.2,1.2,0,0,1-.32-.66,1.68,1.68,0,0,1,.33-1.31,6.3,6.3,0,0,1,2.08-1.24l.06.46a2,2,0,0,0-1.76.65c-.5.48-.9,1.12-1.49,1.64a1.89,1.89,0,0,1-1.12.55,1.29,1.29,0,0,1-1.13-.65,2.77,2.77,0,0,1,0-2.34l.45.2a6.22,6.22,0,0,1-3.05,2.56,1.15,1.15,0,0,1-1.16,0A1.31,1.31,0,0,1,296,51.4c0-.8.53-1.32.61-1.88l.5.08a3.35,3.35,0,0,1-1.77,2.34,9.59,9.59,0,0,1-2.75.84l-1.47.29,1.3-.75a2.73,2.73,0,0,0,1.33-1.46,1.1,1.1,0,0,0-1-1.3,1.93,1.93,0,0,0-1.85.68A6.84,6.84,0,0,0,289.81,52.13Z"
                  style="fill:#010101"/>
            <path d="M12.13,68.84a2.42,2.42,0,0,0-2.09.32c-.53.44-.54,1.48.1,1.67s1.28-.34,1.83-.78a13.91,13.91,0,0,0,1.55-1.52l.39.32a1.88,1.88,0,0,0-.61,1.22.67.67,0,0,0,.24.5.58.58,0,0,0,.54,0,5.47,5.47,0,0,0,2.46-1.68,5.82,5.82,0,0,0,1.28-2.71c0-.25.06-.5.07-.75s0-.5-.1-.52-.29,0-.47.13a1.41,1.41,0,0,0-.46.48,6.54,6.54,0,0,0-.56,3,2.85,2.85,0,0,0,.31,1.4,1.62,1.62,0,0,0,1.08.76,1,1,0,0,0,1-.55,4.83,4.83,0,0,1,.78-1.45,1.39,1.39,0,0,1,.87-.4.84.84,0,0,1,.83.61c.15.66-.1,1.19.08,1.53L21,70.27a2,2,0,0,0,1-.87,2.86,2.86,0,0,1,1.17-1.11,1.2,1.2,0,0,1,.93,0,1.17,1.17,0,0,1,.61.7,3,3,0,0,1-.07,1.62l-.44-.22c.69-.81,1.28-1.63,2-2.43A2.18,2.18,0,0,1,27,67.5a1,1,0,0,1,1,.17,1.09,1.09,0,0,1,.25.94,6.94,6.94,0,0,1-.18.78c-.15.54-.05.72.43.59a2.82,2.82,0,0,0,1.15-.83,5.54,5.54,0,0,1,1.22-1.07,1.74,1.74,0,0,1,1.73-.14l.71.4-.81.06a2.94,2.94,0,0,0-1.81.57c-.4.34-.31,1.23.13,1.37.22.08.52-.08.82-.26s.58-.36.87-.56a13.68,13.68,0,0,0,1.6-1.34l.08-.08.06.09a11.5,11.5,0,0,0,2.12,2.12,11.08,11.08,0,0,1-2.26-2h.14a14.3,14.3,0,0,1-1.55,1.46c-.28.22-.56.44-.86.64a1.42,1.42,0,0,1-1.13.36,1.08,1.08,0,0,1-.77-1,1.35,1.35,0,0,1,.4-1.17,3.37,3.37,0,0,1,2.12-.7l-.1.46a1.28,1.28,0,0,0-1.24.14,5.1,5.1,0,0,0-1.11,1,3.18,3.18,0,0,1-1.37,1,.88.88,0,0,1-1-.22,1.17,1.17,0,0,1-.07-1c.14-.5.3-1,.06-1.25s-.72,0-1.06.31c-.66.7-1.31,1.57-2,2.35l-.73.87.29-1.08a2.54,2.54,0,0,0,.07-1.33.59.59,0,0,0-.86-.38,2.3,2.3,0,0,0-1,.93,2.43,2.43,0,0,1-1.24,1.06l-.21.06-.08-.19c-.27-.66,0-1.23-.11-1.6a.33.33,0,0,0-.34-.26.88.88,0,0,0-.54.26,5.28,5.28,0,0,0-.68,1.33,1.62,1.62,0,0,1-.64.66,1.52,1.52,0,0,1-.93.14,2.12,2.12,0,0,1-1.43-1,3.36,3.36,0,0,1-.38-1.65,12.33,12.33,0,0,1,.12-1.61,4.34,4.34,0,0,1,.51-1.6,1.84,1.84,0,0,1,.63-.64,1.52,1.52,0,0,1,.43-.19.72.72,0,0,1,.58.06,1.06,1.06,0,0,1,.32,1,7.58,7.58,0,0,1-.08.82,6.16,6.16,0,0,1-1.39,2.95,5.89,5.89,0,0,1-2.7,1.84,1.06,1.06,0,0,1-1-.11,1.16,1.16,0,0,1-.44-.87,2.39,2.39,0,0,1,.72-1.57l.38.33a8.74,8.74,0,0,1-1.68,1.53,6.74,6.74,0,0,1-1,.6,1.57,1.57,0,0,1-1.19.11,1,1,0,0,1-.61-1,1.41,1.41,0,0,1,.51-1A2.5,2.5,0,0,1,12.13,68.84Z"
                  style="fill:#010101"/>
            <path d="M48,69.39a.73.73,0,0,0-.86-.34,1.41,1.41,0,0,0-.77.59,4,4,0,0,0-.51.86.64.64,0,0,0,.1.77.76.76,0,0,0,.77,0,3.18,3.18,0,0,0,.76-.55,5.57,5.57,0,0,0,1.23-1.54l.46-.83v1a41.74,41.74,0,0,1-.46,6.79L48.25,76a22.47,22.47,0,0,1,1.53-6.51l.07-.18.21,0a.65.65,0,0,1,.47.35,1.42,1.42,0,0,1,.1.46c0,.27,0,.52,0,.73a.41.41,0,0,0,.27.38.8.8,0,0,0,.56,0,1.74,1.74,0,0,0,.89-1A2.79,2.79,0,0,1,53.46,69l.46-.24-.1.51a2.06,2.06,0,0,0,0,1.18c.15.3.52.5.74.31a11.88,11.88,0,0,0,.87-.94l.89-1,.41-.46,0,.62a3.64,3.64,0,0,0,.34,1.47.85.85,0,0,0,1,.55,11.29,11.29,0,0,0,1.38-.75l1.4-.82A1.14,1.14,0,0,0,61.3,69c0-.09,0-.07,0-.1s-.09,0-.2,0a1.15,1.15,0,0,0-.76,1.07,1.28,1.28,0,0,0,.72,1.23,1.9,1.9,0,0,0,1.55.09,2,2,0,0,1-1.61,0,1.55,1.55,0,0,1,0-2.84.69.69,0,0,1,.59,0,.54.54,0,0,1,.21.62,1.35,1.35,0,0,1-.62.76l-1.41.82a9.46,9.46,0,0,1-1.49.8,1.21,1.21,0,0,1-1-.1,1.68,1.68,0,0,1-.63-.7A4.25,4.25,0,0,1,56.25,69l.44.16-.9,1a9.84,9.84,0,0,1-1,1,.87.87,0,0,1-.88.08,1.25,1.25,0,0,1-.59-.59,2.42,2.42,0,0,1,0-1.48l.36.27a2.31,2.31,0,0,0-.85,1,4.35,4.35,0,0,1-.44.68,2,2,0,0,1-.71.5,1.34,1.34,0,0,1-.91,0,.93.93,0,0,1-.59-.76,5.77,5.77,0,0,1-.06-.78,1.43,1.43,0,0,0-.05-.28.15.15,0,0,0-.11-.08l.27-.15a21.76,21.76,0,0,0-1.49,6.36l-.5,0a41.93,41.93,0,0,0,.45-6.72l.47.12a6.53,6.53,0,0,1-1.33,1.68,2.64,2.64,0,0,1-.94.59,1.14,1.14,0,0,1-1.18-.13,1,1,0,0,1-.1-1.15,4.2,4.2,0,0,1,.62-.86,1.52,1.52,0,0,1,.89-.57A.78.78,0,0,1,48,69.39Z"
                  style="fill:#010101"/>
            <path d="M73.16,70.69a3,3,0,0,0,3-2.66l.07.1a1.05,1.05,0,0,0-1.1,1,1.17,1.17,0,0,0,.88,1.22,1.87,1.87,0,0,0,1.61-.18A3.72,3.72,0,0,0,78.86,69c.32-.47.54-1.16,1.25-1.5a1.73,1.73,0,0,1,2,.55,1.82,1.82,0,0,1,.24,2,2.65,2.65,0,0,1-1.46,1.35l-.21-.46L86,67.81l.27.42a2.61,2.61,0,0,0-1.15,1.52.82.82,0,0,0,.31.73,1.36,1.36,0,0,0,.86.24,2.6,2.6,0,0,0,1.75-.83,7.17,7.17,0,0,1,1.78-1.34L90,69a1,1,0,0,0-.39,1.59,1.6,1.6,0,0,0,1.95.29c.63-.33,1-1.18.64-1.71s-1.42-.64-1.64-.06l0-.1c-.06.21.54.29.94.15l1.41-.51a13.19,13.19,0,0,0,2.66-1.32,6.27,6.27,0,0,0,2-2.08,4.25,4.25,0,0,0,.6-2.75l.39.17A6.79,6.79,0,0,0,96,66.21a6.86,6.86,0,0,0-.32,2.2,4,4,0,0,0,.15,1.06.79.79,0,0,0,.57.62,1.84,1.84,0,0,0,1-.23,8.59,8.59,0,0,0,1-.52A8.55,8.55,0,0,0,102.22,64v.14s0-.06-.14-.06a1,1,0,0,0-.36.14,3,3,0,0,0-.59.69,6.57,6.57,0,0,0-.86,1.74,6.94,6.94,0,0,0-.17,3.83l-.43-.1a11.86,11.86,0,0,1,2.79-2.4l.11-.07.13,0a.9.9,0,0,1,.45.49,2,2,0,0,1,.11.55,2.17,2.17,0,0,0,.15.86c.23.43,1,.43,1.53.22a4.59,4.59,0,0,0,2.7-2.5l.07.14a1.63,1.63,0,0,0-1.93,1.2,1.68,1.68,0,0,0,1.35,1.92,1.74,1.74,0,0,1-1.46-1.94,1.79,1.79,0,0,1,2.09-1.39l.12,0,0,.12a4.89,4.89,0,0,1-2.78,2.77,2.36,2.36,0,0,1-1,.19,1.17,1.17,0,0,1-1-.54,2.65,2.65,0,0,1-.26-1c0-.32-.1-.57-.27-.62l.23,0a11.15,11.15,0,0,0-2.68,2.3l-.32.37-.12-.48a7.56,7.56,0,0,1,.19-4.11,6.87,6.87,0,0,1,.92-1.86,3.08,3.08,0,0,1,.73-.82,1.36,1.36,0,0,1,.58-.23.62.62,0,0,1,.66.39l0,.09v0a9.08,9.08,0,0,1-2.24,4.14,9.46,9.46,0,0,1-1.84,1.49,9.65,9.65,0,0,1-1.06.55,2.25,2.25,0,0,1-1.25.27,1.32,1.32,0,0,1-1-1,4.26,4.26,0,0,1-.17-1.21,7,7,0,0,1,.34-2.36,7.26,7.26,0,0,1,2.8-3.78l.33-.22.06.39a4.71,4.71,0,0,1-.67,3.07,6.87,6.87,0,0,1-2.17,2.25,13.35,13.35,0,0,1-2.76,1.36c-.48.19-1,.36-1.45.53a2,2,0,0,1-.86.08,1.1,1.1,0,0,1-.46-.18.66.66,0,0,1-.26-.52V69l0,0a1.24,1.24,0,0,1,1.26-.69,1.69,1.69,0,0,1,1.25.65,1.48,1.48,0,0,1,.12,1.42,2.13,2.13,0,0,1-.92,1,2.08,2.08,0,0,1-2.57-.39,1.47,1.47,0,0,1,.66-2.41l.15.48a6.78,6.78,0,0,0-1.65,1.25,5,5,0,0,1-.92.68,2.86,2.86,0,0,1-1.15.28,1.92,1.92,0,0,1-1.18-.35,1.32,1.32,0,0,1-.5-1.17A3.06,3.06,0,0,1,86,67.83l.27.42-5.4,3.07-.21-.45a2.17,2.17,0,0,0,1.18-1.09,1.34,1.34,0,0,0-.17-1.46,1.22,1.22,0,0,0-1.36-.4c-.45.19-.69.77-1.06,1.3a4,4,0,0,1-1.4,1.32,2.26,2.26,0,0,1-1.93.14,1.48,1.48,0,0,1-1-1.58,1.29,1.29,0,0,1,1.4-1.16l.08,0V68A3,3,0,0,1,73.16,70.69Z"
                  style="fill:#010101"/>
            <path d="M121.48,69.59a8.13,8.13,0,0,0,2.12-6.88h.32l-.37,4.1-.46,4.1-.92,8.18-.5,0a16.06,16.06,0,0,0-.28-3.74,4.77,4.77,0,0,0-1.83-3l-.5-.34.59-.12a21,21,0,0,0,8.6-3.82l.21.44a4.53,4.53,0,0,0-2.08.9,1.38,1.38,0,0,0-.24,1.82l-.28-.06a7,7,0,0,0,3.1-2.74l.26-.43.18.46a2,2,0,0,1-.16,1.44c-.13.32,0,.79.15.88s.43-.18.69-.57a4,4,0,0,1,1-.94,2.12,2.12,0,0,1,2.72.28,1.39,1.39,0,0,1-1.09,2.29l-.7-.06.6-.39a2.27,2.27,0,0,1,1.68-.32,3.17,3.17,0,0,1,1.49.76,3,3,0,0,1,.89,1.43,3.08,3.08,0,0,1-.07,1.68,4.36,4.36,0,0,1-2.13,2.45,3.85,3.85,0,0,1-1.59.49,1.34,1.34,0,0,1-.89-.29,1.39,1.39,0,0,1-.47-.8,2.65,2.65,0,0,1,.23-1.69,5.6,5.6,0,0,1,.92-1.34,10.9,10.9,0,0,1,2.55-1.91c.91-.54,1.84-1,2.72-1.53.21-.14.43-.28.63-.43a2.18,2.18,0,0,0,.55-.48c.27-.34.45-1,.05-1.07h0a1.17,1.17,0,0,0-1,1,1.34,1.34,0,0,0,.39,1.42,1.54,1.54,0,0,0,1.53.12,1.75,1.75,0,0,0,1-1.19,1.79,1.79,0,0,1-1,1.26,1.63,1.63,0,0,1-1.64-.08,1.51,1.51,0,0,1-.52-1.58A1.44,1.44,0,0,1,139.21,68h0a.6.6,0,0,1,.42.29.89.89,0,0,1,.08.47,2,2,0,0,1-.31.8,3,3,0,0,1-.6.58c-.21.17-.43.32-.64.47-.87.6-1.79,1.11-2.69,1.62A10.05,10.05,0,0,0,133.06,74a3.17,3.17,0,0,0-1,2.58.83.83,0,0,0,.87.7,3.53,3.53,0,0,0,1.37-.43,3.9,3.9,0,0,0,1.88-2.16,2.58,2.58,0,0,0,.07-1.4,2.53,2.53,0,0,0-.74-1.19,2.15,2.15,0,0,0-2.57-.4l-.1-.45a.79.79,0,0,0,.76-.52.87.87,0,0,0-.13-1,1.6,1.6,0,0,0-2.07-.17,3.25,3.25,0,0,0-.88.82A4.56,4.56,0,0,1,130,71a.77.77,0,0,1-.88.17,1,1,0,0,1-.46-.72,1.49,1.49,0,0,1,.07-.76c.14-.43.3-.82.17-1.09l.44,0a7.46,7.46,0,0,1-3.32,2.94l-.16.07-.12-.13a1.54,1.54,0,0,1-.37-1.33A2.16,2.16,0,0,1,126,69a4.9,4.9,0,0,1,2.3-1l1.19-.3-1,.74a21.39,21.39,0,0,1-8.8,3.91l.09-.45a5.3,5.3,0,0,1,2,3.34,16.21,16.21,0,0,1,.29,3.86l-.5,0,.92-8.19.46-4.09.55-4.08.16-1.26.16,1.25A8.26,8.26,0,0,1,121.48,69.59Z"
                  style="fill:#010101"/>
            <path d="M142.13,68.22a4,4,0,0,0-.59,1.25c0,.22-.16.41-.2.63a3.76,3.76,0,0,0-.1.66l-.33-.25a3.11,3.11,0,0,0,1.17-1,4.4,4.4,0,0,1,1.28-1.22,1.56,1.56,0,0,1,1.87.21,1.05,1.05,0,0,1,.19,1,.9.9,0,0,1-.86.67l.19-.43a2.63,2.63,0,0,0,.49.39c.18.12.38.17.57.29a3.07,3.07,0,0,0,1.3.3,2.9,2.9,0,0,1-1.44.13,2,2,0,0,1-.69-.29,3.29,3.29,0,0,1-.59-.47l-.52-.54.71.12c.32.05.55-.62.28-.87a1.09,1.09,0,0,0-1.26-.1,4.08,4.08,0,0,0-1.14,1.1A3.4,3.4,0,0,1,141.08,71l-.35.13v-.38a4.55,4.55,0,0,1,.11-.74,2.87,2.87,0,0,1,.26-.71A3.56,3.56,0,0,1,142.13,68.22Z"
                  style="fill:#010101"/>
            <path d="M160.37,68.71a1.33,1.33,0,0,0-1.19.31,1.41,1.41,0,0,0-.35.46,1.15,1.15,0,0,0-.14.51c0,.74.88,1.43,1.54,1.09a1.25,1.25,0,0,0,.49-1.87,1.34,1.34,0,0,0-2,.16l-.19-.38a11.75,11.75,0,0,0,2.65-.12c.22,0,.44-.08.66-.12l.67-.07c.44-.07.89-.16,1.33-.26a8.82,8.82,0,0,1-1.24.59l-.66.23c-.22.06-.45.09-.68.13a12.2,12.2,0,0,1-2.77.11l-.43,0,.24-.35a1.81,1.81,0,0,1,2.76-.22,1.56,1.56,0,0,1,.32,1.5,1.79,1.79,0,0,1-1,1.16,1.51,1.51,0,0,1-1.52-.2,1.73,1.73,0,0,1-.72-1.34,1.3,1.3,0,0,1,.8-1.27A1.44,1.44,0,0,1,160.37,68.71Z"
                  style="fill:#010101"/>
            <path d="M174.6,70.52a8.5,8.5,0,0,0,2.56-3.63,8.9,8.9,0,0,0,.49-2.16,9.44,9.44,0,0,0,0-2.19l.44.12a9.2,9.2,0,0,0-1.64,3.82,22.15,22.15,0,0,0-.38,4.24c0,.35.08.48.33.48a.88.88,0,0,0,.68-.45,3.9,3.9,0,0,1,.74-.87,3.28,3.28,0,0,1,1.06-.49c.73-.19,1.46-.23,2.15-.35a2,2,0,0,0,1.57-.94l0,.27a.85.85,0,0,0-1.13.15,3.07,3.07,0,0,0-.65,1.37c-.16.5-.14,1,.23,1.13a1.63,1.63,0,0,0,1.27-.49c.84-.72,1.62-1.44,2.54-2.18a.75.75,0,0,1,.56-.13.76.76,0,0,1,.5.31,1.42,1.42,0,0,1,.24,1c-.11.64-.43,1.1-.32,1.52l-.45-.09a7.91,7.91,0,0,1,3.51-2.72l.38-.14,0,.4-.29,2.9-.42-.21,2.06-1.88c.35-.32.67-.63,1-.94a1.21,1.21,0,0,1,.81-.29.67.67,0,0,1,.43.26.64.64,0,0,1,.09.49c-.13.53-.46.88-.54,1.29a1.08,1.08,0,0,0,.55,1,1.74,1.74,0,0,0,1.29.2,6.35,6.35,0,0,0,1.31-.45,5.86,5.86,0,0,1-1.29.54,1.83,1.83,0,0,1-1.41-.13,1.33,1.33,0,0,1-.74-1.24c.09-.53.4-.93.45-1.31a.2.2,0,0,0-.19-.26.77.77,0,0,0-.45.23c-.32.31-.68.63-1,.94l-2.06,1.88-.48.44.06-.65.29-2.9.34.26a7.34,7.34,0,0,0-3.28,2.54l-.34.47-.11-.55c-.14-.72.27-1.26.32-1.7a1,1,0,0,0-.15-.61c-.11-.14-.22-.16-.4-.06-.79.65-1.64,1.43-2.48,2.15a3.46,3.46,0,0,1-.76.47,1.43,1.43,0,0,1-1,.1,1,1,0,0,1-.65-.82,2.13,2.13,0,0,1,.1-.92,3.67,3.67,0,0,1,.77-1.59,1.5,1.5,0,0,1,.87-.43,1.14,1.14,0,0,1,1,.29l.12.13-.07.15a2,2,0,0,1-.85.88,3.47,3.47,0,0,1-1.09.35c-.73.13-1.45.17-2.11.34a2.78,2.78,0,0,0-.89.41,3.33,3.33,0,0,0-.64.76,1.36,1.36,0,0,1-1.07.66.81.81,0,0,1-.68-.32,1.27,1.27,0,0,1-.16-.66,22.6,22.6,0,0,1,.39-4.34,9.61,9.61,0,0,1,1.74-4l.36-.46.08.58a7.59,7.59,0,0,1,0,2.33,9,9,0,0,1-.67,2.21A8.65,8.65,0,0,1,174.6,70.52Z"
                  style="fill:#010101"/>
            <path d="M199.3,71.05l-.15-.2,0,0,.06-.06.06-.06,0,0,.21.15.14.2,0,0-.06.06-.05.06s0,0,0,0Z"
                  style="fill:#010101"/>
            <path d="M202,64.08l.27-.08.09.09.18.18.17.19.09.09c0,.09,0,.16-.09.26l-.27.09-.09-.1-.17-.18-.18-.18-.09-.09C201.9,64.26,201.92,64.19,202,64.08Z"
                  style="fill:#010101"/>
            <path d="M203.63,62.66a1.43,1.43,0,0,1,.36.06l.16.24a2.45,2.45,0,0,1,.24.52,3.41,3.41,0,0,1,.14.55l0,.29a1.6,1.6,0,0,1-.25.27l-.25-.25a1.81,1.81,0,0,0,0-.23,2.47,2.47,0,0,0-.11-.47,3.36,3.36,0,0,0-.2-.43l-.13-.2Z"
                  style="fill:#010101"/>
            <path d="M3,.9c-.06.15-.14.26-.19.4a1.86,1.86,0,0,0-.28.21A2.62,2.62,0,0,0,2.09,2a2.8,2.8,0,0,0-.32.62A3.37,3.37,0,0,0,1.68,3a3.13,3.13,0,0,0-.3.32,1.66,1.66,0,0,1-.19-.43c0-.13.07-.27.11-.4a3.16,3.16,0,0,1,.38-.73,3.6,3.6,0,0,1,.54-.63L2.55.88A1.49,1.49,0,0,1,3,.9Z"
                  style="fill:#010101"/>
            <path d="M1.86,0c0,.17-.09.3-.12.44a3.44,3.44,0,0,0-.27.27A4.51,4.51,0,0,0,1,1.3,4.78,4.78,0,0,0,.62,2a2.63,2.63,0,0,0-.15.35c-.13.09-.23.19-.37.28A2.36,2.36,0,0,1,0,2.12c.05-.13.11-.26.17-.38A6.37,6.37,0,0,1,.58,1,5.49,5.49,0,0,1,1.1.37l.29-.3A2.54,2.54,0,0,1,1.86,0Z"
                  style="fill:#010101"/>
        </g>
    </g>
</svg>