<svg xmlns="http://www.w3.org/2000/svg" viewBox="0 0 368.9 77.48"><title>texto-1-pag-8</title><g id="Camada_2" data-name="Camada 2"><g id="Camada_1-2" data-name="Camada 1"><path d="M11,1.21A7.76,7.76,0,0,0,8.91,4.64a5,5,0,0,0,.21,3.85,3.69,3.69,0,0,0,3.05,2.14,4.74,4.74,0,0,0,3.61-1.28,4.71,4.71,0,0,0,1.38-3.57,6.23,6.23,0,0,0-1.39-3.67A3.57,3.57,0,0,0,12.41.55,7.36,7.36,0,0,0,8.88,2.44,7.32,7.32,0,0,1,12.33.05,3.34,3.34,0,0,1,14.5.4a5.32,5.32,0,0,1,1.66,1.39,6.78,6.78,0,0,1,1.5,4,5.17,5.17,0,0,1-1.54,4,5.2,5.2,0,0,1-4,1.42,4.15,4.15,0,0,1-2.06-.74,4.51,4.51,0,0,1-1.4-1.67,5.53,5.53,0,0,1-.24-4.24A7.59,7.59,0,0,1,11,1.21Z" style="fill:#010101"/><path d="M33.56,6.86a2.27,2.27,0,0,0-2,.91,1.5,1.5,0,0,0-.26,1.06,1.46,1.46,0,0,0,1.65,1.08,1,1,0,0,0,.68-.71,8.62,8.62,0,0,0,.24-1.13,1.71,1.71,0,0,1,.67-1.14l.38-.25v.46a5.29,5.29,0,0,0,.76,2.91L35.29,10a4.89,4.89,0,0,0,2.2-2.79l.58-2L38,7.26a4,4,0,0,0,.81,2.61l-.35,0a11.33,11.33,0,0,0,2.74-3.15l.12-.19.21.1a1,1,0,0,1,.49.89,7,7,0,0,1,0,.83,1,1,0,0,0,.53,1.13c.86.51,1.88-.08,2.49-.89a10.1,10.1,0,0,0,2.16-5.83l.5,0-.31,3.43L47.16,7.9a6,6,0,0,0,0,1.63.62.62,0,0,0,.95.51,13.18,13.18,0,0,0,1.45-.83,15.07,15.07,0,0,0,2.61-2.16l.23.42c-.66.11-.79,1.21-.33,1.73a1.1,1.1,0,0,0,1,.36,1.85,1.85,0,0,0,1-.45,2,2,0,0,0,.68-2A.8.8,0,0,0,54,6.48c-.35,0-.69.19-.71.46l-.08-.21a2,2,0,0,0,1.88.3,7.06,7.06,0,0,0,2-.89l.52-.33-.15.6-.87,3.53-.45-.22a7.93,7.93,0,0,0,.78-1.57A3.42,3.42,0,0,1,58,6.61a1.34,1.34,0,0,1,1.86.07,1.24,1.24,0,0,1,.18,1,.7.7,0,0,1-.73.62l.08-.13A3.5,3.5,0,0,0,62.29,9.9a3.57,3.57,0,0,1-3.08-1.67l-.09-.14h.17a.5.5,0,0,0,.5-.48,1,1,0,0,0-.18-.77.73.73,0,0,0-.68-.25,1.39,1.39,0,0,0-.74.31,3,3,0,0,0-.93,1.42,6.16,6.16,0,0,1-.8,1.71l-.75,1L56,9.82l.89-3.53.37.27a7.65,7.65,0,0,1-2.09,1,3.21,3.21,0,0,1-1.2.09,2.09,2.09,0,0,1-1.14-.51L52.74,7l0-.12A1.13,1.13,0,0,1,54,6a1.21,1.21,0,0,1,.74.28,1.51,1.51,0,0,1,.44.63A2.54,2.54,0,0,1,53,10.06a1.61,1.61,0,0,1-1.37-.54,1.85,1.85,0,0,1-.36-1.41,1.28,1.28,0,0,1,1-1.13L53,6.84l-.54.56a15.42,15.42,0,0,1-2.69,2.22,14.34,14.34,0,0,1-1.54.88,1.2,1.2,0,0,1-1.05,0,1.27,1.27,0,0,1-.58-.86,6,6,0,0,1,0-1.8l.15-1.71.31-3.44.5,0a10.6,10.6,0,0,1-2.27,6.12A3.66,3.66,0,0,1,44,9.94a2,2,0,0,1-1.78-.07,1.55,1.55,0,0,1-.66-.68,1.78,1.78,0,0,1-.12-.92c0-.54.13-1.13-.17-1.25l.32-.09a11.67,11.67,0,0,1-2.86,3.28l-.2.16-.15-.2a4.48,4.48,0,0,1-.92-2.93l.48.08a5.32,5.32,0,0,1-2.42,3.08l-.21.12-.13-.2a5.55,5.55,0,0,1-.81-3.2l.36.22c-.55.31-.52,1.23-.82,2a1.34,1.34,0,0,1-1,.87,1.62,1.62,0,0,1-1.23-.31,1.56,1.56,0,0,1-.66-1,1.54,1.54,0,0,1,.34-1.16A2.29,2.29,0,0,1,33.56,6.86Z" style="fill:#010101"/><path d="M45.15,5.2c.33-.2.67-.36,1-.53l1.08-.25C48,4.25,48.68,4.1,49.41,4s1.45-.25,2.19-.36l1.1-.14c.37,0,.75.06,1.12.13L52.76,4l-1.09.14c-.73.1-1.45.22-2.17.36s-1.44.28-2.15.44l-1.07.26C45.91,5.17,45.54,5.2,45.15,5.2Z" style="fill:#010101"/><path d="M83.54,6.75a2.69,2.69,0,0,0-1.79,1.34,2.89,2.89,0,0,0-.34,1,1.87,1.87,0,0,0,.07,1c0,.1.08.11.25.09a2,2,0,0,0,.5-.15,3,3,0,0,0,.87-.65,7.86,7.86,0,0,0,1.22-1.94l.52-1,0,1.16a2.57,2.57,0,0,0,.38,1.84,1,1,0,0,0,.73.35,1.48,1.48,0,0,0,.76-.44l3.25-2.7.3.4a3.39,3.39,0,0,0-1.53,1.51,1.33,1.33,0,0,0,0,1,.93.93,0,0,0,.71.53,2.05,2.05,0,0,0,1-.15,5.49,5.49,0,0,0,1-.44l2-1.15L91.64,9.76a3.22,3.22,0,0,1-2.33.79,1.45,1.45,0,0,1-1.09-.83,1.85,1.85,0,0,1,0-1.33,3.86,3.86,0,0,1,1.72-1.76l.3.4L87,9.73a1.84,1.84,0,0,1-1,.56,1.46,1.46,0,0,1-1.13-.52,3,3,0,0,1-.51-2.18l.47.12a8.24,8.24,0,0,1-1.31,2.06,3.27,3.27,0,0,1-1,.77,3.08,3.08,0,0,1-.63.19.78.78,0,0,1-.42,0,.61.61,0,0,1-.34-.31,2.48,2.48,0,0,1,.41-2.49A2.73,2.73,0,0,1,83.54,6.75Z" style="fill:#010101"/><path d="M93.09,9.1l2-1.86a3.49,3.49,0,0,1,1.18-.81,1,1,0,0,1,1.3.73,1.12,1.12,0,0,1-.28.77.78.78,0,0,0-.21.45c0,.2.5.44.87.48a2.05,2.05,0,0,0,2-1.07c.09-.18.14-.39.09-.34a.39.39,0,0,0-.39,0,.78.78,0,0,0-.5.8,1,1,0,0,0,.77.73,1.57,1.57,0,0,0,1.16-.12,9.74,9.74,0,0,0,2.06-1.71A2.49,2.49,0,0,1,106,6.54l.57.32L106,7a3.59,3.59,0,0,0-1.48.72c-.45.35-.76.81-.47,1.16a1.07,1.07,0,0,0,1.29.3A2.76,2.76,0,0,0,106.37,8a33.29,33.29,0,0,0,2.68-6.51l.48.14-1,3.14A7.08,7.08,0,0,0,108,7.85a1.53,1.53,0,0,0,.82,1.07,1.24,1.24,0,0,0,1.27-.33c.78-.7,1.56-1.52,2.39-2.22l.26.32a1.63,1.63,0,0,0-.5,2.27,1.33,1.33,0,0,0,1.2.47,1.26,1.26,0,0,0,1.09-.76,1.3,1.3,0,0,1-1.08.86,1.48,1.48,0,0,1-1.37-.43,1.73,1.73,0,0,1-.37-1.45,2.07,2.07,0,0,1,.8-1.31l.26.33c-.76.8-1.52,1.55-2.37,2.31a1.74,1.74,0,0,1-1.77.4A2,2,0,0,1,107.5,8a3.77,3.77,0,0,1,.11-1.74c.15-.54.32-1.06.48-1.58l1-3.15.48.15a33.69,33.69,0,0,1-2.72,6.61,3.21,3.21,0,0,1-1.3,1.39,1.57,1.57,0,0,1-1.91-.45,1.07,1.07,0,0,1-.1-1.1,2.55,2.55,0,0,1,.66-.75,4.06,4.06,0,0,1,1.68-.82l-.07.46a1.49,1.49,0,0,0-1.14-.1,3,3,0,0,0-1.1.62,10.52,10.52,0,0,1-2.17,1.79,1.82,1.82,0,0,1-2.63-1,1.26,1.26,0,0,1,.82-1.37.88.88,0,0,1,.91.15.56.56,0,0,1,.15.55,2.61,2.61,0,0,1-.14.37,2.56,2.56,0,0,1-2.55,1.35,2.81,2.81,0,0,1-.75-.22,1,1,0,0,1-.56-.7A1.12,1.12,0,0,1,97,7.66c.15-.18.26-.33.25-.46,0-.3-.46-.58-.83-.47a3,3,0,0,0-1.11.67Z" style="fill:#010101"/><path d="M112.54,3.9l.21-.14,0,0,.06.06.06.06,0,0-.14.21-.21.14,0,0-.06-.06-.06-.06,0,0Z" style="fill:#010101"/><path d="M114,9.31a9.91,9.91,0,0,0,3.34-2.45,10.92,10.92,0,0,0,2.08-3.52l.42.25a8.51,8.51,0,0,0-1.51,2.48,7.92,7.92,0,0,0-.58,2.79.4.4,0,0,0,.26.35,1.1,1.1,0,0,0,.58-.07,7.38,7.38,0,0,0,1.25-.72l2.52-1.62.29.41a3.88,3.88,0,0,0-1.21,1.21,1.16,1.16,0,0,0,.13,1.38l-.29,0a5.68,5.68,0,0,0,2.41-2.51l.45.22a1.79,1.79,0,0,0-.25,1.16c.1.32.47.42.83.25a1.73,1.73,0,0,0,.83-.89,3.84,3.84,0,0,1,.86-1.22l.53-.44-.13.68a2.46,2.46,0,0,0,.1,1.77.92.92,0,0,0,.61.44,1.28,1.28,0,0,0,.77-.29c.53-.37,1.18-.71,1.62-1.09a1,1,0,0,0,.22-.31,1,1,0,0,0,0-.16.1.1,0,0,0,0-.09.37.37,0,0,0-.25-.12c-.12,0-.07,0-.08,0l-.23-.25A13,13,0,0,0,133,6.81l1.67-.29-1.51.76a2.6,2.6,0,0,0-1.37,1.14c-.19.5.13,1.2.63,1.06A5.07,5.07,0,0,0,134,8.62a5.18,5.18,0,0,0,1.32-1.4l.34-.52v.61A2,2,0,0,0,137.1,9a6.11,6.11,0,0,0,2.49.14,6.39,6.39,0,0,1-2.54,0,2.66,2.66,0,0,1-1.14-.65,1.88,1.88,0,0,1-.58-1.22l.32.08A5.8,5.8,0,0,1,134.34,9a5,5,0,0,1-1.89,1,1,1,0,0,1-.64-.08,1.13,1.13,0,0,1-.46-.46,1.51,1.51,0,0,1-.08-1.18,3.06,3.06,0,0,1,1.61-1.42l.15.47a13.59,13.59,0,0,1-3.49.14l-.22,0V7.19a.48.48,0,0,1,.22-.42.67.67,0,0,1,.39-.1.88.88,0,0,1,.62.32,1,1,0,0,1-.26,1.22,19.6,19.6,0,0,1-1.7,1.15,1.66,1.66,0,0,1-1.09.36,1.4,1.4,0,0,1-1-.66,2.94,2.94,0,0,1-.16-2.13l.4.24A3.47,3.47,0,0,0,126,8.24,2.26,2.26,0,0,1,125,9.35a1.28,1.28,0,0,1-.85.08,1,1,0,0,1-.65-.63,2.19,2.19,0,0,1,.27-1.54l.45.22a6.23,6.23,0,0,1-2.62,2.73l-.15.08-.13-.11a1.38,1.38,0,0,1-.46-1,1.89,1.89,0,0,1,.22-1,4.42,4.42,0,0,1,1.35-1.37l.28.41-2.52,1.62a8.23,8.23,0,0,1-1.35.77,1.39,1.39,0,0,1-.89.07.87.87,0,0,1-.61-.75,7.94,7.94,0,0,1,.61-3,9.38,9.38,0,0,1,1.59-2.62l.83-.95-.4,1.2a9.25,9.25,0,0,1-2.34,3.56A10,10,0,0,1,114,9.31Z" style="fill:#010101"/><path d="M117.37,5.21c.25-.09.5-.15.74-.23s.48,0,.73,0a14,14,0,0,0,1.44-.13c.48-.07,1-.16,1.42-.27l.71-.19h.77a6.86,6.86,0,0,1-.63.47l-.73.19a14.65,14.65,0,0,1-1.47.28c-.5.07-1,.12-1.49.14l-.75,0A6.61,6.61,0,0,1,117.37,5.21Z" style="fill:#010101"/><path d="M154.55,8c.23,0,.19-.38,0-.41a1.15,1.15,0,0,0-.58.05,1.78,1.78,0,0,0-.93.66,1.26,1.26,0,0,0,.46,1.86c.68.27,1.37-.3,1.78-.9a5.65,5.65,0,0,1,1.64-1.88l.42-.23,0,.48a90.29,90.29,0,0,1-1.56,9.54l-.49-.1A42.46,42.46,0,0,1,158.06,7l.13-.26.23.16a1.29,1.29,0,0,1,.51,1c0,.35,0,.67,0,1,0,.64.33.87.93.63A5.52,5.52,0,0,0,162.37,7l1-1.63-.58,1.84a1.71,1.71,0,0,0,0,1.24,1,1,0,0,0,1,.43,1.69,1.69,0,0,0,1.1-.62,6.76,6.76,0,0,0,.77-1.19l.38-.69.09.78a4.6,4.6,0,0,0,.49,1.75,1.16,1.16,0,0,0,1.33.67,4.56,4.56,0,0,0,2.85-2.06,2.75,2.75,0,0,0,.11-.41c0-.14,0-.14,0-.17s-.45,0-.66.18a1.61,1.61,0,0,0-.56,1.56A1.53,1.53,0,0,0,171,9.86a2.12,2.12,0,0,0,1.8-.38,2.19,2.19,0,0,1-1.83.51,1.74,1.74,0,0,1-1.45-1.27A1.94,1.94,0,0,1,170,6.79a1.11,1.11,0,0,1,1.12-.28.54.54,0,0,1,.28.31.81.81,0,0,1,0,.34,2.42,2.42,0,0,1-.13.53,3.48,3.48,0,0,1-1.39,1.52,7,7,0,0,1-1.82.84A1.59,1.59,0,0,1,167,9.92a1.93,1.93,0,0,1-.77-.78,5.24,5.24,0,0,1-.55-1.94l.47.09a6.71,6.71,0,0,1-.84,1.28,2.23,2.23,0,0,1-1.41.79,1.51,1.51,0,0,1-1.52-.69,2.1,2.1,0,0,1,0-1.63l.45.21a11.09,11.09,0,0,1-1.13,1.57A3.84,3.84,0,0,1,160,10a1.25,1.25,0,0,1-1.13,0,1.25,1.25,0,0,1-.46-1c0-.65.07-1.35-.29-1.58l.36-.11a42.2,42.2,0,0,0-2.8,10l-.49-.1a90.18,90.18,0,0,0,1.55-9.49l.37.24c-.64.33-1,1.08-1.48,1.74a3,3,0,0,1-1,.84,1.46,1.46,0,0,1-1.32.06,1.5,1.5,0,0,1-.46-2.26,1.84,1.84,0,0,1,1-.64,1.15,1.15,0,0,1,.61,0C154.77,7.61,154.79,8,154.55,8Z" style="fill:#010101"/><path d="M189.68,7.4a1.92,1.92,0,0,0-1.13-.09,2.8,2.8,0,0,0-.51.18,1.8,1.8,0,0,0-.49.22,1.83,1.83,0,0,0-1,1.73c.05.33.25.61.5.6a2.62,2.62,0,0,0,1-.33,3.93,3.93,0,0,0,1.57-1.56l.15-.27.24.21a.88.88,0,0,1,.25.68,3,3,0,0,1-.1.56,1,1,0,0,0,.08.84,2,2,0,0,0,.67.6,1.13,1.13,0,0,0,1,0,1.18,1.18,0,0,1-1.06.3,1.36,1.36,0,0,1-1-.63,1.43,1.43,0,0,1-.21-.61,2.15,2.15,0,0,1,.07-.6c.08-.35.13-.67,0-.77l.39-.07a4.47,4.47,0,0,1-1.77,1.76,3,3,0,0,1-1.25.39.93.93,0,0,1-.7-.36,1.5,1.5,0,0,1-.27-.66,2.31,2.31,0,0,1,1.18-2.24,3.56,3.56,0,0,1,.59-.28,2.38,2.38,0,0,1,.65,0A1.93,1.93,0,0,1,189.68,7.4Z" style="fill:#010101"/><path d="M203.64,10.19a5.59,5.59,0,0,0,.83-.7c.25-.26.46-.53.71-.78a4.86,4.86,0,0,0,1-1.8l.49.11-.32,2.29c-.06.39-.1.74.08.89a.67.67,0,0,0,.78,0,2.56,2.56,0,0,0,.7-.78c.21-.31.42-.63.61-1,.11-.16.19-.33.29-.5l.33-.47.65-1a10.54,10.54,0,0,1-.34,1.13c-.06.19-.13.37-.2.56s-.2.34-.3.51q-.3.49-.63,1a3.18,3.18,0,0,1-.85.92,1.14,1.14,0,0,1-1.38-.07,1,1,0,0,1-.29-.7,5.44,5.44,0,0,1,.06-.62L206.18,7l.49.11a5.53,5.53,0,0,1-1.11,2,2.6,2.6,0,0,1-.89.72A4.41,4.41,0,0,1,203.64,10.19Z" style="fill:#010101"/><path d="M208.75,8.55c.35-.35.71-.69,1.07-1a2.7,2.7,0,0,1,.63-.49.78.78,0,0,1,1,.21,1.73,1.73,0,0,1,0,1.65c-.15.42-.23.95,0,1.14s.67.05,1.06-.21A8.53,8.53,0,0,0,213.64,9a8.55,8.55,0,0,0,1.81-2.2l.2.37a1.57,1.57,0,0,0-1.46,2.05,1.76,1.76,0,0,0,1.16.86,1.65,1.65,0,0,0,1.53-.37,1.75,1.75,0,0,1-1.58.74,1.7,1.7,0,0,1-1.56-1A1.94,1.94,0,0,1,214,7.51a1.93,1.93,0,0,1,1.69-.86l.4,0-.2.34A9,9,0,0,1,214,9.35a8.92,8.92,0,0,1-1.22.9,2.53,2.53,0,0,1-.74.34,1,1,0,0,1-.92-.2,1,1,0,0,1-.28-.88,3.28,3.28,0,0,1,.17-.78,1.38,1.38,0,0,0,0-1.17c-.17-.21-.57-.07-1,.22S209.18,8.31,208.75,8.55Z" style="fill:#010101"/><path d="M216.15,5.57a1.36,1.36,0,0,1-.1-.37l.15-.27a3.5,3.5,0,0,1,.37-.49A4.37,4.37,0,0,1,217,4l.25-.19a2.5,2.5,0,0,1,.38.06l-.1.36-.21.16a3.33,3.33,0,0,0-.39.36c-.11.14-.22.28-.32.43l-.13.23C216.38,5.47,216.28,5.53,216.15,5.57Z" style="fill:#010101"/><path d="M217.64,9.69c0-.16.1-.29.14-.43l.27-.26a5.47,5.47,0,0,0,.51-.56,6.61,6.61,0,0,0,.44-.6l.19-.33c.14-.07.25-.15.4-.22a3.73,3.73,0,0,1,0,.47l-.21.34a6.08,6.08,0,0,1-.47.66,6.2,6.2,0,0,1-.55.6l-.29.27A1.84,1.84,0,0,1,217.64,9.69Z" style="fill:#010101"/><path d="M219.08,8.49a4.23,4.23,0,0,1,.93-.91A2.62,2.62,0,0,1,221.23,7a.71.71,0,0,1,.66.31.94.94,0,0,1,.13.73,2.81,2.81,0,0,1-.64,1.22V9a1.23,1.23,0,0,0,1.06.22,2.54,2.54,0,0,0,1.09-.51A8.53,8.53,0,0,1,225.7,7l.2.46a3.1,3.1,0,0,0-1.54,1.39.86.86,0,0,0,.16.83,1.11,1.11,0,0,0,.87.29,2.14,2.14,0,0,0,1-.29,3.55,3.55,0,0,0,.78-.73,7.45,7.45,0,0,1,1.67-1.7l.16.46c-.5,0-.56,1-.09,1.31a1.78,1.78,0,0,0,1.82-.22c.58-.37,1.07-1,1.74-1.37a6.46,6.46,0,0,1,2.19-.71l.1.49a5.18,5.18,0,0,0-3,2,.65.65,0,0,0-.11.65.71.71,0,0,0,.59.32,3.13,3.13,0,0,0,1.55-.75l1.59-1.06c.26-.18.54-.34.81-.5a1.41,1.41,0,0,1,.51-.22.74.74,0,0,1,.59.18c.51.52.72,1.1,1.15,1.57a1.49,1.49,0,0,0,1.65.54,1.58,1.58,0,0,1-1.78-.42c-.48-.44-.81-1-1.24-1.41-.2-.16-.38-.06-.64.12s-.51.39-.77.56L234.1,9.85a3.51,3.51,0,0,1-1.86.83,1.21,1.21,0,0,1-1-.58,1.13,1.13,0,0,1,.13-1.16,5.65,5.65,0,0,1,3.25-2.19l.11.49a5.52,5.52,0,0,0-2,.64c-.59.36-1.08.93-1.74,1.36a2.23,2.23,0,0,1-2.36.22,1.3,1.3,0,0,1-.55-1.19,1.19,1.19,0,0,1,.21-.65.91.91,0,0,1,.64-.39l1.09-.1-.94.57a7.14,7.14,0,0,0-1.54,1.6,4.06,4.06,0,0,1-.91.83,2.7,2.7,0,0,1-1.21.36,1.59,1.59,0,0,1-1.25-.45,1.33,1.33,0,0,1-.27-1.33A3.48,3.48,0,0,1,225.68,7l.2.46a8.41,8.41,0,0,0-2,1.6,3.12,3.12,0,0,1-1.31.62,1.58,1.58,0,0,1-1.45-.41l-.14-.16.13-.14a2.4,2.4,0,0,0,.66-1,.54.54,0,0,0-.49-.76,2.5,2.5,0,0,0-1.16.43A4.33,4.33,0,0,0,219.08,8.49Z" style="fill:#010101"/><path d="M206.09,4.7a.18.18,0,0,0,.19.14v0a.11.11,0,0,0-.11-.06.1.1,0,0,0-.1.06s0,0,0,0a.17.17,0,0,0,.18-.14.23.23,0,0,1,.3,0,.42.42,0,0,1-.37.53.42.42,0,0,1-.38-.3.45.45,0,0,1,0-.23A.23.23,0,0,1,206.09,4.7Z" style="fill:#010101"/><path d="M256.1,7.14a3.43,3.43,0,0,0-1.89.46,1.9,1.9,0,0,0-1,1.44.66.66,0,0,0,.35.62,1,1,0,0,0,.76,0,3.79,3.79,0,0,0,1.47-1.14,21.76,21.76,0,0,0,4.3-6.58l.46.2L259,5.41,258.24,7A2.36,2.36,0,0,0,258,8.6a.89.89,0,0,0,1.19.46,3.84,3.84,0,0,0,1.37-1A5.33,5.33,0,0,1,264,6.72l0,.49a4.9,4.9,0,0,0-3.55,2.37l0-.19c.08.33.44.48.86.45a2.73,2.73,0,0,0,1.2-.38,9,9,0,0,0,2.17-1.67l.34-.36-.14.46a1.44,1.44,0,0,0,1.3,1.74,1.57,1.57,0,0,1-1.53-1.79l.21.1a9.19,9.19,0,0,1-2.09,1.94,2.89,2.89,0,0,1-1.44.46,1.64,1.64,0,0,1-.8-.14,1,1,0,0,1-.57-.68l0-.1,0-.09A5.38,5.38,0,0,1,264,6.72l0,.5a4.78,4.78,0,0,0-3.13,1.24,4.34,4.34,0,0,1-1.55,1.08,1.71,1.71,0,0,1-1.05,0,1.24,1.24,0,0,1-.76-.77,2.84,2.84,0,0,1,.28-1.93l.76-1.64,1.51-3.28.46.2a22.65,22.65,0,0,1-4.39,6.74,4.66,4.66,0,0,1-1.67,1.27,1.31,1.31,0,0,1-1.17-.06A1.1,1.1,0,0,1,252.79,9a2.19,2.19,0,0,1,1.32-1.59A3.44,3.44,0,0,1,256.1,7.14Z" style="fill:#010101"/><path d="M277.68,10.75a18.61,18.61,0,0,0,2.37-4.44,19.51,19.51,0,0,0,1.13-4.81c0-.8-.52.52-.82,1.16A14.22,14.22,0,0,0,279.6,5a14.2,14.2,0,0,0-.19,5L279,9.86l2.41-3.13.24-.31.18.34c.38.77-.05,1.47-.1,2a1.13,1.13,0,0,0,.11.75.47.47,0,0,0,.56.17,3.79,3.79,0,0,0,1.4-1,5.05,5.05,0,0,0,1-1.52l.46.2A2.82,2.82,0,0,0,284.82,9c.12.51.62.91,1.07.65a7.59,7.59,0,0,0,1.38-1.15,10.77,10.77,0,0,0,1.2-1.41l.29-.41.15.49a1.08,1.08,0,0,1-.1.76c-.11.21-.23.37-.33.54a.79.79,0,0,0-.1.88,1.36,1.36,0,0,0,.8.57,1.34,1.34,0,0,0,1-.14,5.5,5.5,0,0,0,1.63-1.6,4,4,0,0,1,2-1.54l.42-.1-.12.41L293,10.67l-.42-.24,2.77-3.06a2.06,2.06,0,0,1,.45-.4.63.63,0,0,1,.77.15,1.55,1.55,0,0,1,.22,1.19l-.33,2-.43-.21C297.13,9,298.24,8,299.32,6.9l.08-.08.09,0a.69.69,0,0,1,.33.65,1.28,1.28,0,0,1-.21.64c-.23.36-.51.68-.46,1.08a1,1,0,0,0,.72.84,1,1,0,0,0,1.06-.44,1.05,1.05,0,0,1-1.08.51,1.06,1.06,0,0,1-.84-.9c-.09-.46.23-.86.41-1.2s.22-.81-.06-.93l.17,0c-1,1.13-2,2.28-3.09,3.4l-.57.6.13-.82.33-2a1.12,1.12,0,0,0-.1-.79c-.05-.05-.08-.06-.16,0a1.28,1.28,0,0,0-.31.29L293,10.77l-.72.79.29-1,1.07-3.74.3.32a3.45,3.45,0,0,0-1.74,1.36,5.66,5.66,0,0,1-1.8,1.74,1.87,1.87,0,0,1-1.34.17,1.8,1.8,0,0,1-1.11-.81,1.15,1.15,0,0,1-.14-.73,1.59,1.59,0,0,1,.26-.65c.22-.36.45-.67.37-.9l.44.07a11,11,0,0,1-1.24,1.47,7.31,7.31,0,0,1-1.53,1.25A1.11,1.11,0,0,1,285,10a1.5,1.5,0,0,1-.62-.92,3.16,3.16,0,0,1,.4-2l.46.19A5.51,5.51,0,0,1,284.14,9a4.19,4.19,0,0,1-1.63,1.18,1,1,0,0,1-1.12-.37,1.65,1.65,0,0,1-.19-1.09c.12-.68.4-1.27.16-1.69l.42,0-2.41,3.13-.37.47-.08-.59a14.75,14.75,0,0,1,.19-5.13,14.28,14.28,0,0,1,.79-2.45c.16-.4.35-.78.55-1.17a2.18,2.18,0,0,1,.18-.31.62.62,0,0,1,.47-.24.55.55,0,0,1,.46.3,1.07,1.07,0,0,1,.12.4A10.46,10.46,0,0,1,281.2,4a18.63,18.63,0,0,1-.88,2.4A18.6,18.6,0,0,1,277.68,10.75Z" style="fill:#010101"/><path d="M305.36,7.27a3.88,3.88,0,0,0-2.15.89,2,2,0,0,0-.71.79.69.69,0,0,0,.16.82c.42.4,1-.54,1.6-1L306,7l.7-.72-.28,1a3.26,3.26,0,0,0-.17,1.93c.17.55.88,1,1.31.67s.65-1.12,1-1.7.76-1.21,1.16-1.8c-.23.68-.5,1.34-.74,2-.12.34-.32.63-.46,1a2.22,2.22,0,0,1-.71.94,1.21,1.21,0,0,1-1.27,0,1.75,1.75,0,0,1-.79-.94,3.72,3.72,0,0,1,.17-2.23l.42.24-1.71,1.75-.86.88a1.64,1.64,0,0,1-.62.38.89.89,0,0,1-.8-.17,1.21,1.21,0,0,1-.31-1.4,2.61,2.61,0,0,1,.89-1A3.59,3.59,0,0,1,305.36,7.27Z" style="fill:#010101"/><path d="M308.57,8.75a2,2,0,0,1,.7-1.08,1,1,0,0,1,.73-.18.84.84,0,0,1,.63.53,2.15,2.15,0,0,1-.16,1.35c-.11.32,0,.75.13.78s.58-.19.9-.38a8.5,8.5,0,0,0,1-.71,8.37,8.37,0,0,0,1.59-1.77l.34.35a1.09,1.09,0,0,0-.2,1.59,1.44,1.44,0,0,0,.84.36,1.21,1.21,0,0,0,1-.37,1.27,1.27,0,0,1-.93.69,1.25,1.25,0,0,1-1.23-.34,1.58,1.58,0,0,1,.3-2.36l1-.66-.68,1a9.12,9.12,0,0,1-1.68,1.88,10.7,10.7,0,0,1-1,.75c-.18.11-.36.22-.55.32a.94.94,0,0,1-.79.11.79.79,0,0,1-.49-.67,1.58,1.58,0,0,1,.05-.72,1.93,1.93,0,0,0,.18-1,.33.33,0,0,0-.28-.21.72.72,0,0,0-.46,0A2.22,2.22,0,0,0,308.57,8.75Z" style="fill:#010101"/><path d="M314.78,5.6l-.25,0s0,0,0,0V5.38l.25,0,.25,0v.15a0,0,0,0,0,0,0Z" style="fill:#010101"/><path d="M319.87,7.18a5,5,0,0,0-1.92.35A1.54,1.54,0,0,0,317,9.05a.9.9,0,0,0,.47.71,1.39,1.39,0,0,0,.88.08A3.58,3.58,0,0,0,320.05,9a8.39,8.39,0,0,0,2-3.23,20.09,20.09,0,0,1,1.65-3.64l.41.28a13.39,13.39,0,0,0-1.53,2.71,10.76,10.76,0,0,0-.82,3,.87.87,0,0,0,.76.86,2.07,2.07,0,0,0,1.36-.22c.85-.48,1.47-1.46,2.57-1.91l.17.47a4.14,4.14,0,0,0-2.36,2.19c0,.16,0,.22,0,.25a.56.56,0,0,0,.38,0A5,5,0,0,0,328.07,7l.45.22a2.6,2.6,0,0,0-.42,1.83,1,1,0,0,0,.52.61.93.93,0,0,0,.79-.16,12.34,12.34,0,0,0,1.46-1.44l1.45-1.54.35.36a12,12,0,0,0-1.29,1.28c-.2.23-.39.47-.57.71s-.35.49-.32.65.22.32.44.35a.94.94,0,0,0,.68-.23,9,9,0,0,0,1.24-1.3,13.93,13.93,0,0,0,3-6.56l.46.17a21.26,21.26,0,0,0-2.2,5.33A2.65,2.65,0,0,0,334,8.62a1.35,1.35,0,0,0,.81.89,2.36,2.36,0,0,0,2.48-.44,8.53,8.53,0,0,0,1-1c.34-.35.68-.71.45-.94a.75.75,0,0,0-1,.07,1.5,1.5,0,0,0-.41,1.21,2.08,2.08,0,0,0,2,1.58,6.46,6.46,0,0,0,2.81-.65,6.44,6.44,0,0,1-2.82.78,2.83,2.83,0,0,1-1.43-.42A1.84,1.84,0,0,1,337,8.48,1.75,1.75,0,0,1,337.46,7a1.12,1.12,0,0,1,1.59-.11.77.77,0,0,1,.07.93,4.56,4.56,0,0,1-.47.62,6.73,6.73,0,0,1-1.09,1,3.56,3.56,0,0,1-1.41.68,2.67,2.67,0,0,1-1.58-.18,1.85,1.85,0,0,1-1.08-1.23,3.11,3.11,0,0,1,.13-1.56,22.48,22.48,0,0,1,2.26-5.46l.69-1.19-.23,1.36a14.54,14.54,0,0,1-3.1,6.8,10.15,10.15,0,0,1-1.33,1.38,1.49,1.49,0,0,1-1.05.33,1,1,0,0,1-.87-.78,1.46,1.46,0,0,1,.42-1c.19-.26.38-.5.59-.74a12.11,12.11,0,0,1,1.34-1.34l.34.36-1.45,1.54A11.78,11.78,0,0,1,329.68,10a1.37,1.37,0,0,1-1.22.21,1.39,1.39,0,0,1-.83-.93,2.9,2.9,0,0,1,.45-2.2l.45.22a5.46,5.46,0,0,1-3.75,3,1,1,0,0,1-.76-.1.69.69,0,0,1-.21-.82,4.31,4.31,0,0,1,.65-1.08,4.66,4.66,0,0,1,2-1.42l.17.47c-.91.34-1.51,1.28-2.5,1.87a2.6,2.6,0,0,1-1.71.28,1.46,1.46,0,0,1-.82-.45,1.31,1.31,0,0,1-.34-.89,10.86,10.86,0,0,1,.86-3.15,13.52,13.52,0,0,1,1.59-2.82l.41.29A18.83,18.83,0,0,0,322.54,6a7.93,7.93,0,0,1-2.25,3.33,3.92,3.92,0,0,1-1.87.83,1.59,1.59,0,0,1-1-.16,1.09,1.09,0,0,1-.54-.89,1.68,1.68,0,0,1,1.07-1.62A4.83,4.83,0,0,1,319.87,7.18Z" style="fill:#010101"/><path d="M1.66,26.13a5.08,5.08,0,0,0,.89,3.16l-.28.05a6.19,6.19,0,0,1,1.42-3.11.9.9,0,0,1,1-.25,1.33,1.33,0,0,1,.63.78,7.46,7.46,0,0,1,.1,1.7.77.77,0,0,0,.91.7,1.78,1.78,0,0,0,1.23-.74,10.74,10.74,0,0,1,1.12-1.29,1.86,1.86,0,0,1,1.78-.47l.71.24-.72.23a3.35,3.35,0,0,0-1.54,1,1.29,1.29,0,0,0-.26.79c0,.26.14.37.37.34a3.4,3.4,0,0,0,1.53-1,4,4,0,0,0,.9-1.66l.49.08a3.52,3.52,0,0,0,.18,1.82,1,1,0,0,0,1.33.59c.5-.27,1.07-.73,1.6-1.09l1.62-1.15.21.45c-.42.06-.35,1,.1,1.15A1.48,1.48,0,0,0,18.57,28c.44-.43.67-1.06.31-1.48a3,3,0,0,0-1.65-.79l-1-.21,1-.16,4.22-.69L17.3,25.69v-.38a3,3,0,0,1,2,.85,1.36,1.36,0,0,1,.23,1.18,2.17,2.17,0,0,1-.59,1,1.94,1.94,0,0,1-2.11.61,1.23,1.23,0,0,1-.67-1,1.16,1.16,0,0,1,.11-.63.84.84,0,0,1,.55-.44L18,26.55l-1,.73-1.62,1.15c-.57.38-1,.77-1.69,1.14a1.3,1.3,0,0,1-1.17,0,1.93,1.93,0,0,1-.8-.8,4,4,0,0,1-.24-2.09l.49.08a4.33,4.33,0,0,1-1,1.87,3.79,3.79,0,0,1-1.82,1.17.87.87,0,0,1-.68-.19A.93.93,0,0,1,8.19,29a1.8,1.8,0,0,1,.36-1.11,4,4,0,0,1,1.79-1.2v.48A1.37,1.37,0,0,0,9,27.51,10.37,10.37,0,0,0,8,28.75a2.3,2.3,0,0,1-1.56.91,1.39,1.39,0,0,1-1-.25A1.28,1.28,0,0,1,5,28.54c-.09-.63.09-1.19-.08-1.61a.87.87,0,0,0-.38-.5c-.14-.07-.3,0-.46.15A7.41,7.41,0,0,0,2.57,29.4l-.1.38-.18-.33A5.3,5.3,0,0,1,1.66,26.13Z" style="fill:#010101"/><path d="M9.14,24.26c.12-.13.25-.22.37-.34l.42-.09.85-.18.84-.18.43-.1c.16.06.31.09.47.16a3.8,3.8,0,0,1-.37.33l-.42.1-.84.18-.85.18-.42.1C9.46,24.37,9.31,24.33,9.14,24.26Z" style="fill:#010101"/><path d="M33.09,29.62a2.86,2.86,0,0,0,.77-.65,7.91,7.91,0,0,0,.52-.81,2.58,2.58,0,0,0,.28-1.82l.43.1a3.62,3.62,0,0,0-1,1.88,1.29,1.29,0,0,0,1,1.45c.61.06,1.25-.5,1.84-.94.15-.11.29-.24.43-.36l.48-.32c.31-.23.62-.46.92-.7a10.31,10.31,0,0,1-.68.95c-.13.15-.25.31-.38.45l-.46.37a9.85,9.85,0,0,1-1,.7,2.06,2.06,0,0,1-1.24.35,1.5,1.5,0,0,1-1.11-.74,2.07,2.07,0,0,1-.3-1.26,4.1,4.1,0,0,1,1.12-2.15l.32-.38.12.48a3.11,3.11,0,0,1-.33,2.18,2,2,0,0,1-.74.81A2.38,2.38,0,0,1,33.09,29.62Z" style="fill:#010101"/><path d="M39.42,25.94a13.88,13.88,0,0,0-1.06,3.33L38,29c.73-.59.8-1.85,1.8-2.63a1.4,1.4,0,0,1,1.8.1,1.08,1.08,0,0,1,.23,1,8.27,8.27,0,0,1-.25.79c-.18.48,0,.77.47.67a4.9,4.9,0,0,0,1.33-.7l2.73-1.68L47,26l-.52.87c-.43.73-1.22.93-1.58,1.36a1.05,1.05,0,0,0-.28.75c0,.22.21.36.5.35a2.66,2.66,0,0,0,1.64-.8A8.78,8.78,0,0,0,47.94,27l.91-1.36-.46,1.57a2,2,0,0,0,0,1,1.81,1.81,0,0,0,.54.92,2,2,0,0,0,2.15.31,2.15,2.15,0,0,1-2.36-.05,2.3,2.3,0,0,1-.8-1A2.2,2.2,0,0,1,47.91,27l.45.2a8.94,8.94,0,0,1-1.31,1.66,3.09,3.09,0,0,1-2,.94,1.1,1.1,0,0,1-.64-.18.82.82,0,0,1-.35-.6,1.55,1.55,0,0,1,.38-1.14c.56-.59,1.26-.77,1.54-1.28l.34.33-2.73,1.69a5.34,5.34,0,0,1-1.49.76.92.92,0,0,1-1-.32,1.1,1.1,0,0,1-.07-1c.19-.52.4-1,.13-1.27a.89.89,0,0,0-1.14,0c-.79.53-.84,1.79-1.78,2.6l-.66.57.26-.82A12.5,12.5,0,0,1,39.42,25.94Z" style="fill:#010101"/><path d="M62.52,29a6,6,0,0,0,.44-.59c.15-.19.23-.43.39-.6a5.22,5.22,0,0,0,.7-1.21l.46.2a3.81,3.81,0,0,0-.43,1.62,1.13,1.13,0,0,0,.83,1.07c.43.06.94-.4,1.41-.72.12-.1.24-.18.35-.28s.26-.15.39-.23l.78-.47a8,8,0,0,1-.55.75c-.1.11-.19.25-.3.35l-.37.27c-.25.19-.49.36-.76.54a1.42,1.42,0,0,1-2.27-1.25,4,4,0,0,1,.47-1.85l.46.2a6.24,6.24,0,0,1-.77,1.32,2.15,2.15,0,0,1-.57.51A4.28,4.28,0,0,1,62.52,29Z" style="fill:#010101"/><path d="M68.75,26.34A8,8,0,0,0,68.13,28a6.6,6.6,0,0,0-.15.87c0,.29-.09.57-.11.86l-.44-.18,1-1.21a13.46,13.46,0,0,1,1.1-1.22,1.14,1.14,0,0,1,1.77.16,1.32,1.32,0,0,1,0,.95,2.62,2.62,0,0,0-.11.72c0,.49.24.87.65.83a3.27,3.27,0,0,0,1.3-.64c.85-.55,1.69-1.32,1.66-2.28l.26.24a1,1,0,0,0-.87.87,1.25,1.25,0,0,0,.34,1.25,1.77,1.77,0,0,0,1.36.37,2.22,2.22,0,0,0,1.38-.72,2.22,2.22,0,0,1-1.32,1,1.84,1.84,0,0,1-1.74-.28,1.72,1.72,0,0,1-.5-1.74,1.53,1.53,0,0,1,1.32-1.26h.26v.25a2.47,2.47,0,0,1-.61,1.63,5.69,5.69,0,0,1-1.27,1.09,3.65,3.65,0,0,1-1.55.72,1,1,0,0,1-.91-.42,1.55,1.55,0,0,1-.27-.9c0-.58.32-1.22.18-1.46a.47.47,0,0,0-.44-.23.9.9,0,0,0-.56.24c-.7.69-1.39,1.59-2.09,2.37l-.51.58.08-.76a3.58,3.58,0,0,1,.13-.92,7,7,0,0,1,1.24-2.45Z" style="fill:#010101"/><path d="M64.69,23.93a.63.63,0,0,0,0,.27l-.08.06a.48.48,0,0,0-.12.16.51.51,0,0,0,0,.2v.1a.68.68,0,0,0-.19.19.65.65,0,0,1-.3-.09.74.74,0,0,1,0-.21.86.86,0,0,1,.09-.39.94.94,0,0,1,.23-.33,1.09,1.09,0,0,1,.17-.13A.56.56,0,0,1,64.69,23.93Z" style="fill:#010101"/><path d="M78,27.57a1.32,1.32,0,0,0,.82,1.66,2.46,2.46,0,0,0,2-.07,1.36,1.36,0,0,0,1-1.44.61.61,0,0,0-.52-.53c-.27,0-.56.14-.58.35l-.29-.28,3.6-.53.14,0,.1.12a.67.67,0,0,1,.12.53,1.4,1.4,0,0,1-.16.41c-.14.21-.28.4-.37.57a.68.68,0,0,0,.35.87,1.4,1.4,0,0,0,1.16.11,4.91,4.91,0,0,0,1.21-.65,4.14,4.14,0,0,1-1.09.94,1.85,1.85,0,0,1-.74.24,1.24,1.24,0,0,1-.8-.21,1.38,1.38,0,0,1-.56-.63,1,1,0,0,1,0-.89c.12-.24.28-.43.39-.61s.14-.31.07-.38l.24.1-3.6.53-.35.05.06-.34a1,1,0,0,1,1.12-.76,1.09,1.09,0,0,1,1,.92A1.53,1.53,0,0,1,82,28.88a2.46,2.46,0,0,1-1,.74,2.94,2.94,0,0,1-2.38.06A1.53,1.53,0,0,1,78,27.57Z" style="fill:#010101"/><path d="M85.24,24.68l.15.21,0,0L85.3,25l-.06.06,0,0L85,24.93l-.15-.21,0,0,.06-.06.06-.06,0,0Z" style="fill:#010101"/><path d="M85.28,29.33a13,13,0,0,0,5.3-6.58l.41.18c-.52,1.09-1.06,2.17-1.52,3.28-.23.56-.45,1.12-.65,1.69s-.38,1.11-.06,1.48a1.49,1.49,0,0,0,1.42.37,3.22,3.22,0,0,0,1.38-.93,10.87,10.87,0,0,1,1.34-1.27A2.51,2.51,0,0,1,94.79,27l-.09.49a2.05,2.05,0,0,0-2.25,2.26l-.28-.2a4.06,4.06,0,0,0,3-2.25l1-2-.48,2.17a3,3,0,0,0,0,1.48.71.71,0,0,0,1,.48,2.15,2.15,0,0,0,1-1,3.85,3.85,0,0,1,1-1.39l.61-.44-.23.73a3.26,3.26,0,0,0-.15,1.57.71.71,0,0,0,1,.57,8.12,8.12,0,0,0,1.45-.81,16.5,16.5,0,0,0,1.36-1l-.09.21a.63.63,0,0,0-.92-.39l0-.42a3,3,0,0,0,3.84-.88l.29.38a2.71,2.71,0,0,0-1.5,1.08,1.23,1.23,0,0,0,.23,1.56c.43.32,1.12.09,1.72-.19A8.44,8.44,0,0,0,108,28a9.5,9.5,0,0,0,3.79-6.86l.43.2a10,10,0,0,0-2.92,4.09,5.29,5.29,0,0,0-.19,2.5,3.94,3.94,0,0,0,1.13,2.26A4,4,0,0,1,109,27.91a5.49,5.49,0,0,1,.07-2.61,10.08,10.08,0,0,1,2.82-4.38l.48-.47,0,.67a9.8,9.8,0,0,1-1.23,4.05,10.18,10.18,0,0,1-2.77,3.18,8.92,8.92,0,0,1-1.84,1.07,4.18,4.18,0,0,1-1,.36,1.52,1.52,0,0,1-1.18-.22,1.71,1.71,0,0,1-.38-2.2A3.15,3.15,0,0,1,105.65,26l.72-.25-.43.63a3.51,3.51,0,0,1-4.52,1l-.32-.19.3-.23a1.12,1.12,0,0,1,1.72.74v.13L103,28a16.11,16.11,0,0,1-1.41,1.05,8.4,8.4,0,0,1-1.57.87,1.25,1.25,0,0,1-1-.08,1.34,1.34,0,0,1-.59-.86,3.78,3.78,0,0,1,.16-1.84l.38.28a3.61,3.61,0,0,0-.89,1.22,2.55,2.55,0,0,1-1.26,1.25,1.22,1.22,0,0,1-1,0,1.29,1.29,0,0,1-.64-.76,3.57,3.57,0,0,1,0-1.75l.47.16a4.59,4.59,0,0,1-3.43,2.53l-.23,0L92,29.85A2.54,2.54,0,0,1,94.79,27l-.09.49a2.07,2.07,0,0,0-1.51.46,11.28,11.28,0,0,0-1.28,1.23,3.71,3.71,0,0,1-1.62,1.05,1.92,1.92,0,0,1-1.92-.54,1.35,1.35,0,0,1-.28-1,4.12,4.12,0,0,1,.26-.92q.32-.87.66-1.71a29.35,29.35,0,0,1,1.58-3.3l.41.19A13.17,13.17,0,0,1,85.28,29.33Z" style="fill:#010101"/><path d="M87.41,24.23l.66-.15.62.06a10.41,10.41,0,0,0,1.25,0A8.58,8.58,0,0,0,91.18,24l.61-.13.68.06a5.7,5.7,0,0,1-.55.42l-.64.14a9.64,9.64,0,0,1-1.3.17,11.47,11.47,0,0,1-1.31,0L88,24.58A4.48,4.48,0,0,1,87.41,24.23Z" style="fill:#010101"/><path d="M95.34,25.61a4.21,4.21,0,0,1,.12-.51l.32-.33.68-.62q.35-.3.72-.57l.37-.27c.18,0,.34,0,.52,0-.07.17-.16.31-.23.46l-.36.25-.7.55c-.22.19-.44.39-.65.6l-.3.32Z" style="fill:#010101"/><path d="M115.2,29.52c.06.09.08.16.12.23l-.06.06-.12.12-.12.13-.06.06-.24-.12-.12-.24.06-.06.12-.12.12-.12s0,0,.06-.06A1.79,1.79,0,0,1,115.2,29.52Z" style="fill:#010101"/><path d="M127.28,23a1.62,1.62,0,0,0-1.52-.53,1.94,1.94,0,0,0-1.32.82,4.46,4.46,0,0,0-.77,3.12,3.17,3.17,0,0,0,1.58,2.66,3.77,3.77,0,0,0,3.15-.25,4.7,4.7,0,0,0,2.26-2.33,4,4,0,0,0,0-3.2,3.31,3.31,0,0,0-2.4-2,3.41,3.41,0,0,0-3.17.68,3.58,3.58,0,0,1,3.27-1.17,3.83,3.83,0,0,1,2.76,2.28,4.48,4.48,0,0,1,0,3.59,5.23,5.23,0,0,1-2.49,2.59,4.25,4.25,0,0,1-3.59.25,3.64,3.64,0,0,1-1.87-3.06,4.93,4.93,0,0,1,.89-3.49,2.33,2.33,0,0,1,1.68-.77A1.69,1.69,0,0,1,127.28,23Z" style="fill:#010101"/><path d="M143.17,27.5A7.85,7.85,0,0,0,145.48,19h.23a87.11,87.11,0,0,0-2,9.72,88,88,0,0,0-1,9.86h-.5a22.29,22.29,0,0,0-1.61-8.46l-.09-.23.23-.09,8.69-3.35.17.47a3.46,3.46,0,0,0-1.68,1,.83.83,0,0,0,.39,1.35,1.51,1.51,0,0,0,1.65-.55,5.36,5.36,0,0,0,.81-1.87l.4.25a.94.94,0,0,0-.07,1.18,1.34,1.34,0,0,0,1.1.72,3.58,3.58,0,0,0,2.56-1.43,10.58,10.58,0,0,0,2.66-5.65l.43.21A9.06,9.06,0,0,0,155.6,26a8.37,8.37,0,0,0-.26,1.1,2,2,0,0,0,0,1c.2.58,1.07.58,1.72.34a7.47,7.47,0,0,0,3.37-2.85,7.58,7.58,0,0,0,1.26-4.25l.45.15a11.57,11.57,0,0,0-2.48,7.63l-.42-.18L162.7,26l.35-.3.06.46.37,3.26-.37-.19,4.55-2.75.17.45a2.28,2.28,0,0,0-1.61,2.83l-.32-.15a5.88,5.88,0,0,0,3.35-3l.43.26a3,3,0,0,0-.39,2.84l-.35-.13A18.76,18.76,0,0,0,173.53,26l.72-.75-.29,1-.9,3-.4-.26,3.44-3.16.07-.06.59-.54-.18.78-.75,3.21-.33-.21,4.33-3.47.86-.69-.66.87c-.56.73-1.38,1.13-1.89,1.8a1.87,1.87,0,0,0-.34,1.17.94.94,0,0,0,.67.9,3.22,3.22,0,0,0,1.26-.14l1.28-.26,2.56-.54-2.54.6-1.27.3a3.25,3.25,0,0,1-1.32.17,1.09,1.09,0,0,1-.81-1,2,2,0,0,1,.35-1.3c.53-.73,1.35-1.16,1.83-1.84l.19.19-4.24,3.58-.46.39.13-.59.66-3.23.41.24-.06.06L173,29.42l-.66.61.25-.86.9-3,.42.24A19.32,19.32,0,0,1,169.18,30l-.25.13-.1-.26a3.46,3.46,0,0,1,.45-3.33l1.43-1.89-1,2.15a6.42,6.42,0,0,1-3.65,3.29l-.24.08-.08-.24a2.78,2.78,0,0,1,2-3.48l1.46-.31-1.29.77-4.55,2.76-.33.2,0-.38-.38-3.26.41.16-3.45,2.91-.39.33,0-.51a12.18,12.18,0,0,1,2.58-8l.44-.55v.7a8.22,8.22,0,0,1-5,7.58,2.8,2.8,0,0,1-1.26.17,1.32,1.32,0,0,1-1.1-.8,2.43,2.43,0,0,1,0-1.28,11.48,11.48,0,0,1,.27-1.16,9.68,9.68,0,0,1,2.45-4l.52-.51L158,22a11.13,11.13,0,0,1-2.79,5.93,4,4,0,0,1-3,1.59,1.83,1.83,0,0,1-1.51-1,1.76,1.76,0,0,1-.23-.91,1.17,1.17,0,0,1,.41-.89l.64-.54-.23.79a5.74,5.74,0,0,1-.9,2.05,2.15,2.15,0,0,1-1,.71,2,2,0,0,1-1.22,0,1.29,1.29,0,0,1-.89-.89,1.35,1.35,0,0,1,.26-1.23,4,4,0,0,1,1.92-1.22l.17.47L141,30.23l.15-.32a22.84,22.84,0,0,1,1.64,8.64h-.5a89.29,89.29,0,0,1,1-9.92,86.93,86.93,0,0,1,2.22-9.71l.11-.38.13.37A8,8,0,0,1,143.17,27.5Z" style="fill:#010101"/><path d="M181.25,29.8a3.34,3.34,0,0,1,.07.42l-.16.3-.31.6-.31.59-.16.3a1.93,1.93,0,0,1-.38.19c0-.15,0-.28-.06-.42l.15-.3.32-.59.31-.6.15-.3A2.69,2.69,0,0,1,181.25,29.8Z" style="fill:#010101"/><path d="M186.21,25.8a8.55,8.55,0,0,0-2.58,2,1.49,1.49,0,0,0-.54,1.25c.1.38.65.48,1.14.38a2.24,2.24,0,0,0,2.09-1.85,1.1,1.1,0,0,0-.61-1.12.91.91,0,0,0-1.16.29l-.15-.36a5.63,5.63,0,0,0,2.08.24,6,6,0,0,0,2.13-.32,5.66,5.66,0,0,1-2.09.81,5.83,5.83,0,0,1-2.27-.26l-.3-.09.16-.26a1.43,1.43,0,0,1,1.8-.52,1.62,1.62,0,0,1,.91,1.62A2.26,2.26,0,0,1,186,29.2a3.79,3.79,0,0,1-1.64.7,2.14,2.14,0,0,1-.94,0,1.07,1.07,0,0,1-.77-.7,2,2,0,0,1,.64-1.74A5,5,0,0,1,186.21,25.8Z" style="fill:#010101"/><path d="M200.49,29.53a5.56,5.56,0,0,0,1.69-.46,5,5,0,0,0,1.5-.77,1.25,1.25,0,0,0,.41-.59c.07-.22,0-.32-.16-.34s-.36.17-.51.38a3.27,3.27,0,0,0-.37.72.64.64,0,0,0,.54,1,4.19,4.19,0,0,0,1.64-.32l1.7-.53c.59-.1,1.18-.21,1.78-.29-.54.27-1.09.51-1.63.77l-1.71.53a4.68,4.68,0,0,1-1.84.34,1.15,1.15,0,0,1-.92-.57,1.24,1.24,0,0,1,0-1.06,3.91,3.91,0,0,1,.45-.86,1.2,1.2,0,0,1,.93-.57.67.67,0,0,1,.57.34.81.81,0,0,1,.06.62,1.73,1.73,0,0,1-.59.85,5.36,5.36,0,0,1-1.66.86A4.74,4.74,0,0,1,200.49,29.53Z" style="fill:#010101"/><path d="M220.06,26.64a3.34,3.34,0,0,0-2.3.58c-.55.43-1.36,1.24-.75,1.48a2.43,2.43,0,0,0,2.07-.55,4.46,4.46,0,0,0,1.5-1.78l.47.18a3.6,3.6,0,0,0-.29,1.5,1.06,1.06,0,0,0,.76,1,2.64,2.64,0,0,0,1.4-.43,5,5,0,0,0,1.23-1,4.88,4.88,0,0,0,.48-.62,1.49,1.49,0,0,1,.68-.69.75.75,0,0,1,.59,0,1.47,1.47,0,0,1,.39.29,1.83,1.83,0,0,1,.51.78,2.62,2.62,0,0,1,0,1.79,2,2,0,0,1-1.28,1.27l-.73.2.47-.56A3.11,3.11,0,0,1,228,29.08a3,3,0,0,0-2.44,1.34l-.26-.36a2,2,0,0,0,1-2.45A1.37,1.37,0,0,0,226,27c-.17-.17-.37-.27-.48-.22s-.28.26-.42.49a7,7,0,0,1-.53.69A5.42,5.42,0,0,1,223.16,29a3,3,0,0,1-1.72.48,1.55,1.55,0,0,1-1.18-1.41,4.18,4.18,0,0,1,.31-1.72l.47.18a4.95,4.95,0,0,1-2.84,2.59,1.84,1.84,0,0,1-1.4,0,.8.8,0,0,1-.5-.67,1,1,0,0,1,.24-.74,2.69,2.69,0,0,1,1-.85A3.37,3.37,0,0,1,220.06,26.64Z" style="fill:#010101"/><path d="M241.58,27A2.2,2.2,0,0,0,239,28a1.35,1.35,0,0,0-.07,1.33,1.2,1.2,0,0,0,1.24.36A10.13,10.13,0,0,0,243,29a10.57,10.57,0,0,0,2.54-1.47l.06.43c-.22-.1-.5.11-.62.43a.66.66,0,0,0,.22.81,1.62,1.62,0,0,0,1.94-.36,1.24,1.24,0,0,0,.41-.92,1.16,1.16,0,0,0-.47-.86,1.12,1.12,0,0,0-1.66.55l-.29-.32,4.24-1a2.31,2.31,0,0,1,1.22-.08.87.87,0,0,1,.52.51,1.25,1.25,0,0,1,.08.65,3.11,3.11,0,0,1-.41,1.1,1.39,1.39,0,0,0-.22.88l-.42-.12,3-3,.13-.14.17.09a.86.86,0,0,1,.41.79,1.47,1.47,0,0,1-.23.74c-.24.4-.52.74-.49,1a.82.82,0,0,0,.69.64,1.73,1.73,0,0,0,1.1-.24c.73-.41,1.49-.91,2.24-1.36l2.25-1.39L260,26l-.2.63c-.23.74-.9,1-1.37,1.32a1.54,1.54,0,0,0-.9,1.13.42.42,0,0,0,.3.42,1.05,1.05,0,0,0,.68-.09,4.63,4.63,0,0,0,1.25-1.07,9.89,9.89,0,0,0,1.7-3,30.85,30.85,0,0,0,1-3.35l.46.17a22.7,22.7,0,0,0-1.23,2.93,20.81,20.81,0,0,0-.81,3c-.06.48,0,1,.29,1.23s.84,0,1.3-.23a7.2,7.2,0,0,0,2.42-2l.15.14a1.61,1.61,0,0,0-.67,1.7,1,1,0,0,0,.67.66.9.9,0,0,0,.94-.16.92.92,0,0,1-1,.21,1.17,1.17,0,0,1-.76-.68,1.77,1.77,0,0,1,.64-1.89l.61-.52-.46.66a7.44,7.44,0,0,1-2.42,2.18,4.1,4.1,0,0,1-.76.36,1.14,1.14,0,0,1-.95-.06,1.19,1.19,0,0,1-.54-.82,2.89,2.89,0,0,1,0-.88,22,22,0,0,1,.83-3.14,22.55,22.55,0,0,1,1.27-3l1-2-.56,2.19a29.46,29.46,0,0,1-1,3.4,10.31,10.31,0,0,1-1.78,3.12,4.91,4.91,0,0,1-1.43,1.19,1.48,1.48,0,0,1-1,.12A.93.93,0,0,1,257,29a2,2,0,0,1,1.15-1.55c.5-.29,1-.58,1.14-1l.37.28-2.25,1.39c-.76.45-1.47.92-2.27,1.38a2.24,2.24,0,0,1-1.44.28,1.27,1.27,0,0,1-1.07-1.09,2.36,2.36,0,0,1,.55-1.33c.2-.3.21-.76,0-.84l.3,0-3,3-.36.35-.07-.48c-.14-1,.61-1.53.62-2.13,0-.31,0-.57-.27-.64a1.89,1.89,0,0,0-.93.1l-4.25,1-.44.11.15-.43a1.62,1.62,0,0,1,2.43-.79,1.64,1.64,0,0,1,.67,1.24,1.76,1.76,0,0,1-.56,1.29,2.37,2.37,0,0,1-1.2.66,1.75,1.75,0,0,1-1.38-.24,1.15,1.15,0,0,1-.45-.64,1.4,1.4,0,0,1,.05-.76,1.34,1.34,0,0,1,.45-.61.88.88,0,0,1,.83-.1l.39.17-.33.25a9.65,9.65,0,0,1-2.68,1.53,10.4,10.4,0,0,1-3,.61,1.49,1.49,0,0,1-1.47-.56,1.54,1.54,0,0,1,.15-1.54A2.28,2.28,0,0,1,241.58,27Z" style="fill:#010101"/><path d="M269.37,26.32a6.46,6.46,0,0,0-1,.25,2.3,2.3,0,0,0-.91.27,1.39,1.39,0,0,0-.76,1.47,1.13,1.13,0,0,0,1.39.67,4,4,0,0,0,.78-.57,1.7,1.7,0,0,1,.56-.2.48.48,0,0,1,.53.23c-.35-.2-.57.11-.78.36a3.81,3.81,0,0,1-.92.65,1.63,1.63,0,0,1-2-1,1.86,1.86,0,0,1,1-2,3,3,0,0,1,1.1-.34A4,4,0,0,1,269.37,26.32Z" style="fill:#010101"/><path d="M268.63,29.27a1.77,1.77,0,0,1,.21.41c0,.13,0,.26-.08.39a4.11,4.11,0,0,1-.64,1.44l-.24.32a3.28,3.28,0,0,1-.45.11l.06-.44.22-.27a5.24,5.24,0,0,0,.34-.61,4.08,4.08,0,0,0,.23-.67,3.43,3.43,0,0,0,.06-.34C268.44,29.51,268.52,29.39,268.63,29.27Z" style="fill:#010101"/><path d="M272.51,26.49A1.58,1.58,0,0,0,271,27.78a1.08,1.08,0,0,0,.36.89,1.17,1.17,0,0,0,.91.13c.65-.1,1.31-.67,1.27-1.28a.71.71,0,0,0-.53-.62c-.29-.1-.6,0-.69.19l-.12-.33a3.69,3.69,0,0,0,4.52-1.39l.29.37-1.15.48a2.41,2.41,0,0,0-.9.72,1.15,1.15,0,0,0,.73,1.68,2,2,0,0,0,2-.75,6.67,6.67,0,0,0,1.12-2.19l.18-.5.27.45a4.25,4.25,0,0,1,.82,2.24,1.86,1.86,0,0,1-.5,1.19,1.31,1.31,0,0,1-1.25.45l-.61-.15.53-.3a13.37,13.37,0,0,1,3.93-1.48,14.21,14.21,0,0,0-3.67,1.9l-.08-.45a.9.9,0,0,0,.79-.31,1.39,1.39,0,0,0,.36-.86,3.8,3.8,0,0,0-.75-2l.45,0A7,7,0,0,1,278,28.21a2.53,2.53,0,0,1-2.56.88,1.89,1.89,0,0,1-1.09-.95,1.48,1.48,0,0,1,.1-1.47,4.89,4.89,0,0,1,2.31-1.41l.72-.32-.43.69a4.17,4.17,0,0,1-5.15,1.58l-.22-.1.09-.23a.89.89,0,0,1,.6-.49,1.17,1.17,0,0,1,.72,0,1.19,1.19,0,0,1,.86,1.06,1.59,1.59,0,0,1-.53,1.22,2.31,2.31,0,0,1-1.15.59,1.32,1.32,0,0,1-1.65-1.55A1.7,1.7,0,0,1,272.51,26.49Z" style="fill:#010101"/><path d="M294.51,26.63a5.8,5.8,0,0,0-.83,2.76l-.19-.09L296,26.69a1.65,1.65,0,0,1,.89-.56.73.73,0,0,1,.62.22.91.91,0,0,1,.22.57,1.85,1.85,0,0,1-.27,1,1.59,1.59,0,0,0-.25.73c0,.42.65.5,1,.2a8.41,8.41,0,0,0,1-1.43A3.82,3.82,0,0,1,302.63,26l.63.07-.51.38-2,1.5a3.53,3.53,0,0,0-.87.77c-.19.25-.08.67.11.72s.63-.17,1-.36a5.27,5.27,0,0,0,2.25-2.75l.6-1.67-.12,1.77L303.48,29l-.35-.24a8.69,8.69,0,0,0,3.64-2.93l.38.32c-.63.59-1.27,1.33-1,2.07a.72.72,0,0,0,.74.58,2.69,2.69,0,0,0,1.12-.48,2,2,0,0,0,.74-.92,1.45,1.45,0,0,0-.06-1.12.88.88,0,0,0-.86-.52.8.8,0,0,0-.77.57l-.3-.3c1.13-.21,2.27-.4,3.4-.59l3.39-.59-3.34.84c-1.11.28-2.23.57-3.34.83l-.39.1.09-.39a1.29,1.29,0,0,1,1.23-1,1.38,1.38,0,0,1,1.34.79,1.92,1.92,0,0,1,.08,1.52,2.47,2.47,0,0,1-.92,1.16,3.17,3.17,0,0,1-1.37.57,1.14,1.14,0,0,1-.81-.24,1.59,1.59,0,0,1-.45-.68,1.81,1.81,0,0,1,.21-1.51,5.75,5.75,0,0,1,.92-1.08l.38.33a9.25,9.25,0,0,1-3.85,3.1l-.37.16,0-.41.17-2.59.48.1a5.81,5.81,0,0,1-1.41,2.2,5.88,5.88,0,0,1-1.05.81,5.33,5.33,0,0,1-.58.31,1.1,1.1,0,0,1-.8.1,1,1,0,0,1-.37-1.46,4.19,4.19,0,0,1,1-.91l2-1.5.12.45a3.33,3.33,0,0,0-3,1.26,7.16,7.16,0,0,1-1.08,1.52,1.34,1.34,0,0,1-1,.27.9.9,0,0,1-.78-.84c0-.82.6-1.22.52-1.71,0-.24-.12-.34-.28-.32a1.43,1.43,0,0,0-.6.42l-2.7,2.41-.23.21,0-.3A5.86,5.86,0,0,1,294.51,26.63Z" style="fill:#010101"/><path d="M302.23,23.52a3.79,3.79,0,0,1,.38-.32l.42-.06.85-.13.84-.12.42-.07c.16.07.31.11.46.19-.12.12-.25.2-.38.31l-.42.06-.85.13-.84.13-.42.06A3.66,3.66,0,0,1,302.23,23.52Z" style="fill:#010101"/><path d="M326.3,21.41c-1.17,1-1.49,2.5-2,3.86l-1.48,4.18c-.5,1.39-1.07,2.75-1.59,4.14l-1.6,4.13-.48-.13a15.7,15.7,0,0,0-.75-8.09l-.11-.29.3,0A24.82,24.82,0,0,0,327.36,26l.25.44a3.43,3.43,0,0,0-1.35,1.12,1,1,0,0,0,.34,1.31c.39.22.83-.36,1.2-.84a7.79,7.79,0,0,0,.92-1.61l.48.16a5.49,5.49,0,0,0-.17,1.56c0,.62.12.83.59.58a5,5,0,0,0,1.12-1.06,7.47,7.47,0,0,0,.91-1.31l.31-.57.15.62c.19.85-.24,1.53-.28,2.14a.75.75,0,0,0,1,.86,2.79,2.79,0,0,0,1.54-1.06.78.78,0,0,0,.19-.72c-.08-.23-.37-.36-.46-.26l-.2-.45,3.46-.74.89-.19-.66.62c-.53.49-1,1-1,1.66A.78.78,0,0,0,337,29a1.12,1.12,0,0,0,.87-.07,1.73,1.73,0,0,0,1.22-1.39c.07-.57-.91-1.12-1.27-.61l-.11-.21a15.88,15.88,0,0,0,5.32-.33,16,16,0,0,1-5.34.61l-.23,0,.12-.2a.93.93,0,0,1,1.19-.26,1.17,1.17,0,0,1,.72,1,2.14,2.14,0,0,1-1.42,1.86,1.61,1.61,0,0,1-1.28.06,1.3,1.3,0,0,1-.7-1.12,2.74,2.74,0,0,1,1.14-2.05l.23.42L334,27.4l-1.13.24.94-.69a.7.7,0,0,1,.75,0,1,1,0,0,1,.46.5,1.26,1.26,0,0,1-.25,1.22,3.28,3.28,0,0,1-1.83,1.25,1.24,1.24,0,0,1-1.61-1.4c.09-.76.44-1.4.29-1.95l.46.05a8.84,8.84,0,0,1-.95,1.4,5.83,5.83,0,0,1-1.28,1.18,1.35,1.35,0,0,1-.49.15.75.75,0,0,1-.57-.21,1.43,1.43,0,0,1-.26-.95,6.07,6.07,0,0,1,.18-1.7l.47.16a8.8,8.8,0,0,1-1,1.71,6.52,6.52,0,0,1-.66.76,1,1,0,0,1-1.15.23,1.47,1.47,0,0,1-.57-2A3.89,3.89,0,0,1,327.37,26l.25.43a25.43,25.43,0,0,1-9,3.23l.19-.34a16.17,16.17,0,0,1,.79,8.35l-.48-.13,1.6-4.13c.54-1.38,1-2.77,1.6-4.13l1.71-4.09C324.65,23.87,325.08,22.32,326.3,21.41Z" style="fill:#010101"/><path d="M342.1,26.38l-1.4,2.86-.15-.1,1.09-1.29c.36-.43.7-.86,1.1-1.3a1.24,1.24,0,0,1,.86-.44.83.83,0,0,1,.79.7,1.22,1.22,0,0,1-.25,1,3,3,0,0,1-.68.61l.09-.3c.13.35.54.46,1,.39a2.73,2.73,0,0,0,1.22-.54,7.66,7.66,0,0,1,1.25-.86,1.77,1.77,0,0,1,1.65-.09l1,.56-1.16-.09a2.81,2.81,0,0,0-1.91.57.89.89,0,0,0-.4.7c0,.22.27.33.59.3a3.93,3.93,0,0,0,1.81-.93,5.12,5.12,0,0,0,1.31-1.65l.31-.62.15.66c.21.91-.3,1.59-.45,2.22s.35,1,.88.64a6.11,6.11,0,0,0,1.35-1.56l1.29-1.75.26-.36.17.41a1.59,1.59,0,0,1-.2,1.32,1.87,1.87,0,0,0-.29,1A.81.81,0,0,0,354,29a1.42,1.42,0,0,0,1,0,4,4,0,0,0,1.68-1.3.94.94,0,0,0,.1-.43.39.39,0,0,0-.18-.29.74.74,0,0,0-.39-.12c-.13,0-.15.05-.18.14l-.16-.27a4.66,4.66,0,0,0,4.37-.68l.26.42A2.78,2.78,0,0,0,359,27.6c-.21.52.14,1.28.66,1.13a3.73,3.73,0,0,0,.88-.4c.3-.17.6-.35.89-.54A13.22,13.22,0,0,0,363,26.52l.43-.41v.59a2,2,0,0,1-.4,1,1,1,0,0,0-.21.74c.12.42.92.39,1.44.15a7.16,7.16,0,0,0,1.59-1.07,9.34,9.34,0,0,0,1.31-1.43l.16-.23.18.19a2.23,2.23,0,0,1,.41,2.43,2.17,2.17,0,0,1-2.05,1.24l-.28,0,.24-.14a4.26,4.26,0,0,1,3.07-.55,4.18,4.18,0,0,0-3,.69l0-.16a1.93,1.93,0,0,0,1.76-1.18,1.87,1.87,0,0,0-.44-2l.34,0a7,7,0,0,1-1.35,1.57,7.83,7.83,0,0,1-1.72,1.15,2.37,2.37,0,0,1-1.09.22,1.06,1.06,0,0,1-1-.67,1.37,1.37,0,0,1,.25-1.15,1.72,1.72,0,0,0,.33-.79l.42.18a12,12,0,0,1-1.68,1.33c-.3.2-.6.38-.92.56a4.26,4.26,0,0,1-1,.45,1,1,0,0,1-1.14-.57,1.59,1.59,0,0,1-.08-1.23,3.24,3.24,0,0,1,1.7-1.46l.26.42a5.1,5.1,0,0,1-4.84.76l-.2-.08,0-.19a.62.62,0,0,1,.22-.41.69.69,0,0,1,.41-.15,1.08,1.08,0,0,1,.71.2.91.91,0,0,1,.4.68,1.35,1.35,0,0,1-.16.69,3,3,0,0,1-.88.91,4.87,4.87,0,0,1-1.07.61,1.56,1.56,0,0,1-2.22-1,2.35,2.35,0,0,1,.34-1.24,1.17,1.17,0,0,0,.19-.91l.43.05-1.28,1.75-.65.88a3.24,3.24,0,0,1-.84.81,1.12,1.12,0,0,1-1.29.06,1,1,0,0,1-.39-.6,1.49,1.49,0,0,1,.05-.64c.2-.74.61-1.4.45-2l.47,0a5.7,5.7,0,0,1-1.43,1.8,6.29,6.29,0,0,1-1,.66,3,3,0,0,1-1.14.39,1.16,1.16,0,0,1-.67-.11.83.83,0,0,1-.46-.61,1.38,1.38,0,0,1,.59-1.18,3.34,3.34,0,0,1,2.26-.67l-.14.47a1.26,1.26,0,0,0-1.18.1,6.81,6.81,0,0,0-1.17.81,3.24,3.24,0,0,1-1.46.63,1.78,1.78,0,0,1-.85-.06,1.17,1.17,0,0,1-.67-.62l-.08-.19.16-.12c.44-.32.84-.67.77-1.1a.39.39,0,0,0-.34-.37,1,1,0,0,0-.6.3c-.38.37-.77.81-1.15,1.21l-1.15,1.23-.51.54.36-.64Z" style="fill:#010101"/><path d="M364,24.27c-.07.07-.11.14,0,.23a.22.22,0,0,0,.19-.12c0-.07,0-.05,0-.06s0,0,0-.05a.24.24,0,0,0-.22-.05c0,.11,0,.16.12.21a.22.22,0,0,1,.05.27.31.31,0,0,1-.3-.08.42.42,0,0,1-.11-.21.44.44,0,0,1,0-.24A.29.29,0,0,1,364,24C364.09,24.09,364.07,24.17,364,24.27Z" style="fill:#010101"/><path d="M350.28,23.94a1.76,1.76,0,0,1,0-.39l.18-.24.37-.48.36-.49.19-.24a3.54,3.54,0,0,1,.38-.09,2.71,2.71,0,0,1,0,.4l-.18.24-.36.48-.37.48-.18.24C350.53,23.88,350.42,23.92,350.28,23.94Z" style="fill:#010101"/><path d="M6.46,45.46a11.69,11.69,0,0,0,.59,3l-.25,0c.41-1,.8-2,1.25-3a1.21,1.21,0,0,1,.65-.71.72.72,0,0,1,.59.08,1,1,0,0,1,.35.37,1.44,1.44,0,0,1,.2.92c0,.28-.07.54-.07.78a.62.62,0,0,0,.72.71,1.45,1.45,0,0,0,1.08-.77,8,8,0,0,1,.92-1.37,1.57,1.57,0,0,1,1.74-.43l.92.45-1,0A1.66,1.66,0,0,0,12.92,48l-.32-.08a6.8,6.8,0,0,0,3-2.79l.45-.82,0,.94a3.41,3.41,0,0,0,.24,1.45,1,1,0,0,0,1.06.54,1.68,1.68,0,0,0,1.11-.76,5.38,5.38,0,0,0,.6-1.4l.42.26a1.41,1.41,0,0,0,.35,2A1.74,1.74,0,0,0,21.93,47a1.83,1.83,0,0,0,.51-1A.93.93,0,0,0,22,45a2.12,2.12,0,0,0-2.25.34l-.14-.46a22.28,22.28,0,0,0,5.73-.72,22.63,22.63,0,0,1-5.71,1.22l-.92.08.77-.54a3.8,3.8,0,0,1,1.31-.58,2,2,0,0,1,1.48.24A1.45,1.45,0,0,1,22.94,46a2.33,2.33,0,0,1-.65,1.34,2.22,2.22,0,0,1-2.77.45,2.1,2.1,0,0,1-.81-1.27A1.68,1.68,0,0,1,19.09,45l.78-.82-.36,1.07a5.83,5.83,0,0,1-.67,1.52,2.17,2.17,0,0,1-1.45,1,1.48,1.48,0,0,1-1.57-.82,3.8,3.8,0,0,1-.3-1.66l.46.11a7.16,7.16,0,0,1-3.16,3l-.19.09-.12-.17a2.16,2.16,0,0,1,1.6-3.24l-.11.48a1.06,1.06,0,0,0-1.16.34A7.68,7.68,0,0,0,12,47.17a2,2,0,0,1-1.45,1,1.17,1.17,0,0,1-.94-.3A1.28,1.28,0,0,1,9.27,47c0-.29.06-.56.08-.81a1,1,0,0,0-.14-.62c-.24-.4-.48-.3-.71.24-.46,1-1,1.88-1.45,2.83l-.17.34-.08-.35A11.32,11.32,0,0,1,6.46,45.46Z" style="fill:#010101"/><path d="M14.89,42.4c.18,0,.33,0,.49-.07l.4.13a5.5,5.5,0,0,0,.81.15,4.63,4.63,0,0,0,.83,0l.42,0,.46.17a3.09,3.09,0,0,1-.39.33l-.46,0a5.53,5.53,0,0,1-.91,0,5.7,5.7,0,0,1-.9-.17l-.43-.14A2.44,2.44,0,0,1,14.89,42.4Z" style="fill:#010101"/><path d="M38.28,49.64a30,30,0,0,0,2.35-8.91l.33.08a16.81,16.81,0,0,0-.46,7c.1.55.15,1.29.47,1.43s.91-.29,1.36-.6A6.75,6.75,0,0,0,44.48,46l0-.05,0,0a1.75,1.75,0,0,1,2.21,0,1.47,1.47,0,0,1,.58,1A1.72,1.72,0,0,1,47,48.05a1.76,1.76,0,0,1-.94.7,1.48,1.48,0,0,1-1.18-.17,1.75,1.75,0,0,1-.77-2.07l.06-.15h.16A11.85,11.85,0,0,0,49.53,45l.45-.24-.08.5-.59,3.63-.48-.11a6.3,6.3,0,0,1,3.08-3.81l.19-.1.13.18a1.79,1.79,0,0,1-.41,2.47l0-.43A4.87,4.87,0,0,1,54,48.91h-.42l2.21-3.5.24-.38.2.41a5.63,5.63,0,0,1,.36,3.79L56.21,49l3-3.32.35-.37.08.5.58,3.48-.4-.16A41.42,41.42,0,0,1,65,45.82l.25.44a5.53,5.53,0,0,0-2.3,2.66l-.22-.34a3.29,3.29,0,0,0,3.17-2.22L66,46l.29.26a1.34,1.34,0,0,1,.32,1.23c-.06.39-.17.74-.23,1.07s-.07.62.13.64.46-.1.75-.31A25.37,25.37,0,0,0,70.41,46l.28-.31.14.4a4.13,4.13,0,0,1-.38,3.36l-.3-.37a2.43,2.43,0,0,0,1-1,2.74,2.74,0,0,1,1.27-1.17,1.21,1.21,0,0,1,1,.07,1.74,1.74,0,0,1,.66.63,1.39,1.39,0,0,1-.13,1.72l-.23-.26,3.93-3.17.33-.27-.21.37a2.61,2.61,0,0,0,1.35,3.6A2.68,2.68,0,0,1,77.61,46l.12.1-3.81,3.31-.23-.26a1,1,0,0,0,0-1.25.93.93,0,0,0-1.1-.48,2.49,2.49,0,0,0-1,1,2.74,2.74,0,0,1-1.27,1.17l-.66.23.36-.59a3.57,3.57,0,0,0,.33-2.94l.42.09a25,25,0,0,1-3.26,2.91,3.47,3.47,0,0,1-.49.32.9.9,0,0,1-.71.06.66.66,0,0,1-.49-.58,1.8,1.8,0,0,1,0-.62c.07-.37.18-.72.22-1.05a.85.85,0,0,0-.15-.78l.4-.12a3.77,3.77,0,0,1-3.67,2.58H62.3l.13-.33A6.06,6.06,0,0,1,65,45.83l.24.43a38.54,38.54,0,0,0-5,3.28l-.33.25-.07-.41L59.2,45.9l.43.13-3.05,3.31-.68.74.25-1a5.19,5.19,0,0,0-.33-3.45l.43,0L54,49.18l-.21.33-.21-.33a4.42,4.42,0,0,0-2-1.67l-.44-.18.39-.26a1.31,1.31,0,0,0,.29-1.76l.31.07a5.81,5.81,0,0,0-2.83,3.5l-.49-.11.59-3.63.36.26a12.3,12.3,0,0,1-5.4,1.45l.22-.15a1.25,1.25,0,0,0,.57,1.45,1.15,1.15,0,0,0,1.29-1.87,1.26,1.26,0,0,0-1.57,0l.06-.08a7.4,7.4,0,0,1-2.31,2.86c-.26.19-.52.35-.79.51a1.2,1.2,0,0,1-1.08.14,1.26,1.26,0,0,1-.6-.9c-.06-.31-.12-.6-.16-.91a14.79,14.79,0,0,1-.12-3.64,16,16,0,0,1,.76-3.56l.33.07A30.38,30.38,0,0,1,38.28,49.64Z" style="fill:#010101"/><path d="M36.68,44.41c.26-.13.51-.22.77-.33l.78-.09,1.56-.16,1.56-.17.78-.08c.28.05.55.09.82.16-.24.13-.5.22-.75.33l-.78.09-1.58.17-1.57.16-.78.09C37.22,44.52,37,44.49,36.68,44.41Z" style="fill:#010101"/><path d="M94.19,45.67A2.58,2.58,0,0,0,92,47.36a1.85,1.85,0,0,0,0,1.31.46.46,0,0,0,.38.31,2,2,0,0,0,.66-.09,2.07,2.07,0,0,0,1.78-1.84,1,1,0,0,0-.6-1,.88.88,0,0,0-1.07.23l-.13-.37a5.63,5.63,0,0,0,.9.22c.31.06.62,0,.93.08a6.22,6.22,0,0,0,1.92-.08,5.7,5.7,0,0,1-1.91.56,4.26,4.26,0,0,1-1-.07,6.48,6.48,0,0,1-1-.23l-.31-.1.18-.27a1.37,1.37,0,0,1,1.69-.44,1.55,1.55,0,0,1,.9,1.47,2.15,2.15,0,0,1-.69,1.55,3.33,3.33,0,0,1-1.46.77,2.5,2.5,0,0,1-.85.11.94.94,0,0,1-.77-.6,2.3,2.3,0,0,1,0-1.69A2.27,2.27,0,0,1,94.19,45.67Z" style="fill:#010101"/><path d="M106.37,49.26a2.17,2.17,0,0,1-.07-2.35,2,2,0,0,1,2.27-.83,2.2,2.2,0,0,1,1.11.72,1.77,1.77,0,0,1,.37,1.31A2.15,2.15,0,0,1,108.34,50l-.4.07.12-.39a1.35,1.35,0,0,1,.71-.77,4.64,4.64,0,0,1,.88-.31,6.77,6.77,0,0,0,1.58-.63,6.64,6.64,0,0,0,2.42-2.32l.42.27c-.35.53-.84.89-1,1.35a1,1,0,0,0,.38,1.24,1.17,1.17,0,0,0,1.29-.34,4.09,4.09,0,0,0,.73-1.46l.46.19a2.22,2.22,0,0,0-.28,1.88.68.68,0,0,0,1.3,0,21.17,21.17,0,0,1,1.06-1.95,3.53,3.53,0,0,1,1.85-1.41l1.78-.53-1.57,1a3.77,3.77,0,0,0-1.59,2,1.64,1.64,0,0,0-.07,1.16c.1.23.62.1,1.07,0a15.1,15.1,0,0,0,2.68-.71,2.15,2.15,0,0,0,1-.69,1,1,0,0,0,.13-1l.12.1a1.06,1.06,0,0,0-1.22.69,1.27,1.27,0,0,0,.51,1.47,2.16,2.16,0,0,0,1.75.37,4.35,4.35,0,0,0,1.72-.79,4.46,4.46,0,0,1-1.69.94,2.37,2.37,0,0,1-2-.28,1.65,1.65,0,0,1-.77-1.87,1.72,1.72,0,0,1,.68-.87,1.28,1.28,0,0,1,1.16-.12l.07,0,0,.07a1.47,1.47,0,0,1-.14,1.6,2.65,2.65,0,0,1-1.27.87,15.93,15.93,0,0,1-2.77.73c-.24,0-.46.08-.73.1a.88.88,0,0,1-.84-.36,2,2,0,0,1,0-1.58,4.25,4.25,0,0,1,1.8-2.32l.21.45a3,3,0,0,0-1.59,1.22,21.48,21.48,0,0,0-1,1.92,1.31,1.31,0,0,1-1.09.72,1.32,1.32,0,0,1-1.08-.73,2.65,2.65,0,0,1,.26-2.33l.47.18a4.42,4.42,0,0,1-.84,1.64,1.65,1.65,0,0,1-1.88.45,1.53,1.53,0,0,1-.63-1.83c.21-.68.75-1,1-1.49l.42.27a7.19,7.19,0,0,1-2.61,2.5,7.44,7.44,0,0,1-1.69.67c-.55.14-1.11.34-1.24.75l-.28-.32a1.64,1.64,0,0,0,1.29-1.47,1.58,1.58,0,0,0-1.09-1.62,1.68,1.68,0,0,0-2,.58A2,2,0,0,0,106.37,49.26Z" style="fill:#010101"/><path d="M124.87,49.17a4.86,4.86,0,0,0,2.63-1.58,13.6,13.6,0,0,1,1.21-1.05,2.57,2.57,0,0,1,1.58-.64,1.5,1.5,0,0,1,1.23,1.28,2.37,2.37,0,0,1-.4,1.68,4.64,4.64,0,0,1-1.1,1.26,1,1,0,0,1-1,.12.87.87,0,0,1-.41-.35.65.65,0,0,1,0-.61l.06-.13h.14a12.38,12.38,0,0,0,3.29-.72,4.4,4.4,0,0,0,1.35-.89,3.68,3.68,0,0,0,.49-.63,2.71,2.71,0,0,1,.54-.77,1.43,1.43,0,0,1,1.9.21,1.71,1.71,0,0,1,.3,1.87,2.84,2.84,0,0,1-1.22,1.4,8,8,0,0,1-1.64.69l-.72.24.43-.62a3.63,3.63,0,0,1,1.68-1.23,12.76,12.76,0,0,1,1.93-.56,10,10,0,0,0,1.83-.57,2.6,2.6,0,0,0,1.32-1.16l.38.31a3.67,3.67,0,0,0-1.11,1.39,3.15,3.15,0,0,0-.27.84c0,.28,0,.51.2.57s.42,0,.66-.17a6.14,6.14,0,0,0,.7-.58,1.94,1.94,0,0,0,.77-1.46c0-.54-.5-1-.88-.85a.71.71,0,0,0-.37.58c0,.22.19.36.5.35l3.81-.36-3.8.67a1,1,0,0,1-.56-.1.67.67,0,0,1-.33-.54,1.11,1.11,0,0,1,.53-1,1,1,0,0,1,1.17.2,1.58,1.58,0,0,1,.43,1,2.44,2.44,0,0,1-.92,1.85,6.19,6.19,0,0,1-.78.64,1.2,1.2,0,0,1-1.14.21.86.86,0,0,1-.44-.5,1.33,1.33,0,0,1,0-.59,3.56,3.56,0,0,1,.3-1,4.4,4.4,0,0,1,1.26-1.58l.85-.65-.47,1a3.16,3.16,0,0,1-1.56,1.4,11.6,11.6,0,0,1-1.93.6,13.63,13.63,0,0,0-1.85.53,3.2,3.2,0,0,0-1.46,1.06l-.28-.39A3.58,3.58,0,0,0,136.19,48a1.22,1.22,0,0,0-.18-1.34,1,1,0,0,0-1.23-.18,2.44,2.44,0,0,0-.43.64,3.94,3.94,0,0,1-.56.73,4.89,4.89,0,0,1-1.52,1,12.48,12.48,0,0,1-3.43.75l.2-.14c0,.06,0,.23.21.3a.5.5,0,0,0,.5-.08,4.8,4.8,0,0,0,.95-1.12,1.89,1.89,0,0,0,.33-1.31,1,1,0,0,0-.79-.88,2.32,2.32,0,0,0-1.31.46,13.6,13.6,0,0,0-1.26.93A5,5,0,0,1,124.87,49.17Z" style="fill:#010101"/><path d="M157.34,49.47a10.37,10.37,0,0,0,1.33-3.69l.47.11c-.13.76-.38,1.59-.47,2.29s.78,1,1.41.79a3.68,3.68,0,0,0,1.57-1.54,3.34,3.34,0,0,1,2-1.56l.27,0,0,.29a6.2,6.2,0,0,1-.45,2.62l-.18-.34c.42.1.82-.37,1.11-.86a3.54,3.54,0,0,1,.54-.78,2,2,0,0,1,.85-.54.9.9,0,0,1,1.06.39,1.2,1.2,0,0,1,0,1.08c-.22.58-.55,1.13-.37,1.51l-.42,0,1.52-2a3.75,3.75,0,0,1,.92-.95,1.55,1.55,0,0,1,.71-.26.87.87,0,0,1,.75.39,1,1,0,0,1,.12.78,3.33,3.33,0,0,1-.2.63,1.32,1.32,0,0,0-.11,1.07,1.06,1.06,0,0,0,.84.67,1.23,1.23,0,0,0,1.08-.44,1.26,1.26,0,0,1-2.2-.09,1.72,1.72,0,0,1,0-1.35c.1-.41.23-.8.09-1s-.45-.2-.77,0a3.23,3.23,0,0,0-.8.84l-1.52,2-.25.33-.17-.37a1.46,1.46,0,0,1,0-1.07c.11-.3.25-.57.34-.83a.76.76,0,0,0,0-.65.39.39,0,0,0-.49-.17,1.46,1.46,0,0,0-.63.41,3.7,3.7,0,0,0-.48.7,3.41,3.41,0,0,1-.59.75,1.21,1.21,0,0,1-1,.33l-.3-.06.12-.28a5.68,5.68,0,0,0,.41-2.41l.29.24a2.83,2.83,0,0,0-1.65,1.35,4.11,4.11,0,0,1-1.82,1.72,1.86,1.86,0,0,1-1.35-.08,1.24,1.24,0,0,1-.72-1.2A11.88,11.88,0,0,1,158.4,47c.09-.39.16-.78.27-1.17l.47.11A9.75,9.75,0,0,1,157.34,49.47Z" style="fill:#010101"/><path d="M173.19,46.43a32,32,0,0,0-1.84,7l-.45-.11a18.21,18.21,0,0,1,1.22-3,21.54,21.54,0,0,1,1.65-2.83,2.71,2.71,0,0,1,1.31-1.18,1.25,1.25,0,0,1,1,.12,1,1,0,0,1,.5.91,2.09,2.09,0,0,1-.42.83,5.7,5.7,0,0,1-.56.64,5.64,5.64,0,0,1-1.35,1l-.14-.47A9.76,9.76,0,0,0,180,46.64l.29.4a1.86,1.86,0,0,0-1.16,1.38c0,.55.54,1.18,1,.94a1.84,1.84,0,0,0,.67-.64,1.93,1.93,0,0,0,.37-.86.84.84,0,0,0-.25-.76.58.58,0,0,0-.68-.15l.08-.36c.22.37.81.25,1.36.11a6.23,6.23,0,0,1,.9-.2,1.88,1.88,0,0,1,1,.13,1.93,1.93,0,0,1,1.2,1.52A2,2,0,0,1,184,50l-.29-.41a5.41,5.41,0,0,0,1.55-1.61c.2-.31.33-.64.53-1a1.4,1.4,0,0,1,1.12-.78,1.73,1.73,0,0,1,1.26.43,1.53,1.53,0,0,1,.55,1.23,2.23,2.23,0,0,1-1.53,2l-.09-.49a9.13,9.13,0,0,0,2.86-.73A8.28,8.28,0,0,0,192.51,47l.39-.36-.15.5-.33,1.06a6.37,6.37,0,0,0-.29,1.05c0,.36.34.59.7.56a2.33,2.33,0,0,0,1.06-.28,2.47,2.47,0,0,1-1,.35,1,1,0,0,1-.57-.11.63.63,0,0,1-.29-.51,7.25,7.25,0,0,1,.23-1.11l.26-1.08.24.13A8.91,8.91,0,0,1,190.2,49a8.55,8.55,0,0,1-3,.79L185.1,50l2-.66a1.73,1.73,0,0,0,1.18-1.51A1.16,1.16,0,0,0,187,46.63a.89.89,0,0,0-.72.52c-.17.31-.33.71-.55,1.05A6,6,0,0,1,184,50l-.29-.4a1.51,1.51,0,0,0,.55-1.34,1.42,1.42,0,0,0-.89-1.12,2.33,2.33,0,0,0-1.57.09,4.4,4.4,0,0,1-.93.16,1.12,1.12,0,0,1-1-.47l-.15-.24.24-.12a1.25,1.25,0,0,1,1.68,1.41,2.49,2.49,0,0,1-.46,1.09,2.39,2.39,0,0,1-.88.81,1.16,1.16,0,0,1-1.26-.27,1.55,1.55,0,0,1-.46-1.16,2.37,2.37,0,0,1,1.44-1.8l1.41-.69L180.35,47a10.34,10.34,0,0,1-6.21,2.85L173,50l1-.57a5.37,5.37,0,0,0,1.24-.93,4.72,4.72,0,0,0,.5-.59,1.55,1.55,0,0,0,.33-.59c.07-.32-.47-.62-.84-.49a2.26,2.26,0,0,0-1,1,23.87,23.87,0,0,0-1.62,2.77,26.24,26.24,0,0,0-1.21,3l-.46-.11A31.84,31.84,0,0,1,173.19,46.43Z" style="fill:#010101"/><path d="M193.63,45.17a1.75,1.75,0,0,1-.11-.35l.12-.22.24-.46.23-.45.12-.23a2.72,2.72,0,0,1,.34-.11,2.56,2.56,0,0,1,.1.34l-.11.23-.24.45-.24.46-.11.23C193.85,45.09,193.76,45.14,193.63,45.17Z" style="fill:#010101"/><path d="M193.49,49.81a6.22,6.22,0,0,0,2.9-3.58l.41.13c-.13.73-.32,1.44-.51,2.16a1.48,1.48,0,0,0-.08.93.78.78,0,0,0,.68.43c.61.08,1.17-.44,1.64-1a1.71,1.71,0,0,0,.51-.8c.06-.22-.19-.51-.31-.44l0-.48a2.87,2.87,0,0,0,3.54-1.72l.31.32a3.08,3.08,0,0,0-2,2.2,2.83,2.83,0,0,0-.07.76.42.42,0,0,0,.29.43,2.23,2.23,0,0,0,1.46-.18,8.61,8.61,0,0,0,2.5-2.07,16.63,16.63,0,0,0,2-2.67,15.69,15.69,0,0,0,.78-1.46c.12-.25.23-.51.34-.76a1.8,1.8,0,0,0,.11-.33c0-.07,0-.05,0-.06a.37.37,0,0,0-.22.07.9.9,0,0,0-.28.22,6.21,6.21,0,0,0-.56.59,7.34,7.34,0,0,0-.91,1.36,8.17,8.17,0,0,0-.66,6.41,7.86,7.86,0,0,1,.22-6.65,7.58,7.58,0,0,1,1-1.44,5.91,5.91,0,0,1,.6-.63,1.11,1.11,0,0,1,1-.42.54.54,0,0,1,.39.59,1.62,1.62,0,0,1-.14.48c-.11.26-.23.52-.35.78a16.73,16.73,0,0,1-.8,1.51,17.1,17.1,0,0,1-2,2.74,8.79,8.79,0,0,1-2.67,2.19,2.64,2.64,0,0,1-1.83.2.88.88,0,0,1-.45-.34,1.1,1.1,0,0,1-.17-.52,3,3,0,0,1,.09-.91,3.54,3.54,0,0,1,2.34-2.57l.47-.15-.16.47a3.35,3.35,0,0,1-4.18,2l-.76-.27.79-.21a.73.73,0,0,1,.74.29,1,1,0,0,1,.19.72,2.24,2.24,0,0,1-.64,1.06,2.56,2.56,0,0,1-2.07,1.14,1.27,1.27,0,0,1-1.08-.74,2,2,0,0,1,.05-1.24c.18-.72.36-1.44.59-2.15l.41.13A6.46,6.46,0,0,1,193.49,49.81Z" style="fill:#010101"/><path d="M211.14,50.06a2.63,2.63,0,0,1,.15.35l-.1.27-.18.54-.18.55-.09.27c-.11.06-.2.13-.33.19a2.63,2.63,0,0,1-.15-.35l.1-.27.18-.54.18-.55.09-.27C210.92,50.19,211,50.12,211.14,50.06Z" style="fill:#010101"/><path d="M220.47,46.41a3.83,3.83,0,0,0-2,1,1.24,1.24,0,0,0,.3,1.85.85.85,0,0,0,.9-.27,6.94,6.94,0,0,0,.7-.88,10.59,10.59,0,0,0,1.09-2l.3-.7.15.75c.17.78-.32,1.37-.4,1.86a1,1,0,0,0,.09.69.51.51,0,0,0,.58.13,8.46,8.46,0,0,0,3.06-1.75,9.35,9.35,0,0,0,2.16-2.83,9.57,9.57,0,0,0,.63-1.67c.06-.29.14-.58.17-.87a1.35,1.35,0,0,0,0-.75.09.09,0,0,0-.11-.05.81.81,0,0,0-.26.18,7.43,7.43,0,0,0-1.39,2.25A7.28,7.28,0,0,0,226,46.9a2,2,0,0,0,.62,1.45c.37.28.93,0,1.46-.31a7.94,7.94,0,0,0,2.63-2.36l.28-.39.16.45a1.64,1.64,0,0,1-.3,1.37,1.55,1.55,0,0,0-.33,1c.1.59,1.18.7,1.67.27a10.4,10.4,0,0,0,1.43-1.93,2.74,2.74,0,0,1,1.06-.84,1.49,1.49,0,0,1,1.42,0l.48.31-.55.14a3,3,0,0,0-2.15,3.18l-.33-.2a6.33,6.33,0,0,0,3.28-2.75l.43.27a1.58,1.58,0,0,0,.24,1.89,1.9,1.9,0,0,0,1.94.5,2.93,2.93,0,0,0,1.73-1.26A5.23,5.23,0,0,0,242,45.6l.06-.39.33.22a5.23,5.23,0,0,1,1.23,1.12,3.1,3.1,0,0,1,.67,1.54,2.14,2.14,0,0,1-.52,1.6,1.53,1.53,0,0,1-1.53.59l-.26-.06.23-.14a9,9,0,0,1,4-1.23,8.89,8.89,0,0,0-3.89,1.42l0-.2a1.29,1.29,0,0,0,1.25-.56,1.8,1.8,0,0,0,.37-1.37,3.72,3.72,0,0,0-1.8-2.28l.39-.17a6.13,6.13,0,0,1-.87,2.31,3.45,3.45,0,0,1-2,1.47,2.41,2.41,0,0,1-2.44-.66,2.09,2.09,0,0,1-.28-2.5l.43.26a6.86,6.86,0,0,1-3.55,3l-.29.11,0-.31a3.49,3.49,0,0,1,2.51-3.73l-.07.45c-.55-.35-1.38.1-1.82.67a9.4,9.4,0,0,1-1.51,2,1.79,1.79,0,0,1-1.35.36,1.24,1.24,0,0,1-1.12-.92,2,2,0,0,1,.38-1.33c.21-.35.38-.69.27-1l.44.06a8.5,8.5,0,0,1-2.8,2.5,5.92,5.92,0,0,1-.88.41,1.24,1.24,0,0,1-1.1-.12,2.41,2.41,0,0,1-.83-1.8,7.66,7.66,0,0,1,.49-3.73,8.11,8.11,0,0,1,.89-1.67c.19-.26.38-.5.6-.75a1.13,1.13,0,0,1,.5-.31.58.58,0,0,1,.67.29,1.78,1.78,0,0,1,0,1.06c0,.32-.12.62-.19.93a10.61,10.61,0,0,1-.66,1.76,10,10,0,0,1-2.28,3,8.77,8.77,0,0,1-3.28,1.87,1,1,0,0,1-1.09-.32A1.42,1.42,0,0,1,221,48c.15-.69.54-1.19.43-1.66l.46,0a11.72,11.72,0,0,1-1.24,2,7.22,7.22,0,0,1-.79.88,1.09,1.09,0,0,1-1.2.27,1.41,1.41,0,0,1-.29-2.14A3.93,3.93,0,0,1,220.47,46.41Z" style="fill:#010101"/><path d="M236.72,45a1.78,1.78,0,0,1-.14-.36l.12-.28a4,4,0,0,1,.66-1l.2-.23a1.67,1.67,0,0,1,.39,0c0,.14,0,.25,0,.37l-.18.2a3.61,3.61,0,0,0-.33.44c-.09.15-.18.31-.26.47s-.07.17-.1.26S236.85,45,236.72,45Z" style="fill:#010101"/><path d="M251.27,48.83a1.74,1.74,0,0,1,.35.22c0,.11,0,.22.07.33a3.79,3.79,0,0,1,.06.67,3.72,3.72,0,0,1-.08.67l-.09.33a2.12,2.12,0,0,1-.36.21l-.12-.37c0-.09.06-.19.08-.28a3.55,3.55,0,0,0,.07-.57,2.75,2.75,0,0,0-.05-.57,2.68,2.68,0,0,0-.07-.27Z" style="fill:#010101"/><path d="M261.1,46a3.33,3.33,0,0,0-2.4,3.6l-.08-.09c.84.09,1.42-.71,1.8-1.42s.73-1.55,1.09-2.33c.73-1.56,1.46-3.11,2.23-4.64l.44.24a17.43,17.43,0,0,0-2.63,7.38c0,.3,0,.63.11.73s.37,0,.67-.09l1.83-.8a6.88,6.88,0,0,0,1.69-.88.7.7,0,0,0,.25-.68c0-.26-.23-.45-.39-.42l.12,0c-.67.48-1.38,1.09-1.42,1.82a1,1,0,0,0,.46.87,1.87,1.87,0,0,0,1.11.18,2.46,2.46,0,0,0,1.09-.42,9.08,9.08,0,0,0,.92-.85c.6-.62,1.14-1.3,1.72-2l.37.34a2.87,2.87,0,0,0-.91,1.58c0,.58.38,1.13.94,1a5.89,5.89,0,0,0,1.71-.87,8,8,0,0,0,1.47-1.32l0,.31a.54.54,0,0,0-.7-.15l-.15-.46a9.71,9.71,0,0,0,3-.72l.32-.14,0,.35a2,2,0,0,1-.59,1.35,4.75,4.75,0,0,0-.8,1,1.06,1.06,0,0,0-.06,1c.16.22.52.21.87,0l2.19-1.42,2.2-1.43.24.43a4,4,0,0,0-2.12,2.4l-.15-.31A2.64,2.64,0,0,0,281,47l.5,0c0,.85-.49,1.56-.47,2.2a.49.49,0,0,0,.49.49,1.41,1.41,0,0,0,.88-.34,14.24,14.24,0,0,0,1.45-1.7,3.05,3.05,0,0,1,1-.72,1.57,1.57,0,0,1,1.31,0l.19.09-.06.21-.77,2.45-.43-.23a13.33,13.33,0,0,1,3.55-3.14l.36-.21,0,.41-.13,2.89-.29-.11a14.84,14.84,0,0,1,3.73-3l0,0,0,0a.93.93,0,0,1,.23.91,5.36,5.36,0,0,1-.26.89,1.36,1.36,0,0,0,0,.89c.08.28.35.58.67.45-.31.14-.62-.15-.71-.43a1.48,1.48,0,0,1,0-.93,7.13,7.13,0,0,0,.23-.88.84.84,0,0,0-.22-.79h.08a14.9,14.9,0,0,0-3.55,3.07l-.3.35v-.47l0-2.89.35.19a15.07,15.07,0,0,0-3.4,3.07l-.83,1.06.4-1.29.76-2.45.14.3c-.56-.27-1.27.13-1.74.63a13,13,0,0,1-1.5,1.76,1.89,1.89,0,0,1-1.22.44,1.1,1.1,0,0,1-.67-.29,1,1,0,0,1-.29-.67c0-.91.46-1.56.47-2.24l.5,0a3.14,3.14,0,0,1-4.1,2.38l-.21-.09.07-.22a4.54,4.54,0,0,1,2.39-2.69l.24.44-2.2,1.43c-.74.48-1.45,1-2.22,1.44a1.7,1.7,0,0,1-.74.23,1,1,0,0,1-.78-.37,1.55,1.55,0,0,1,0-1.51,5.38,5.38,0,0,1,.87-1.07,1.39,1.39,0,0,0,.47-1l.35.22a10.33,10.33,0,0,1-3.19.76l-1,.07.9-.53a1,1,0,0,1,1.37.28l.12.16-.13.15a8.64,8.64,0,0,1-1.56,1.4,6.33,6.33,0,0,1-1.91.95,1.17,1.17,0,0,1-1.16-.36,1.57,1.57,0,0,1-.37-1.12,3.27,3.27,0,0,1,1-1.9l.37.33c-.57.65-1.11,1.33-1.72,2a9.83,9.83,0,0,1-1,.92,3,3,0,0,1-1.32.51,2.3,2.3,0,0,1-1.42-.25,1.45,1.45,0,0,1-.71-1.32,2.13,2.13,0,0,1,.6-1.31,5.78,5.78,0,0,1,1-.9l.07,0h.05c1.14.05,1.17,1.49.54,2a6.58,6.58,0,0,1-1.84,1l-1.83.81A2.73,2.73,0,0,1,262,50a.8.8,0,0,1-.68-.18,1.31,1.31,0,0,1-.26-1.16,18,18,0,0,1,2.7-7.59l.43.25c-.74,1.55-1.52,3.08-2.32,4.6-.4.77-.77,1.53-1.19,2.29a4.38,4.38,0,0,1-.82,1,1.59,1.59,0,0,1-1.27.43l-.07,0V49.6A3.43,3.43,0,0,1,261.1,46Z" style="fill:#010101"/><path d="M308.49,46.23a2.14,2.14,0,0,0-2.2,1.69l-.24-.24a2.25,2.25,0,0,1,1.47.09,2.55,2.55,0,0,1,1.14.94l.1.14-.1.14a3.86,3.86,0,0,1-2.07,1.4l-.45.12.15-.44a2.26,2.26,0,0,1,1.47-1.29c.58-.23,1.16-.36,1.69-.6A6.69,6.69,0,0,0,312.13,46l0,.27c0-.12-.34-.07-.59.12a4.31,4.31,0,0,0-.72.7,1.17,1.17,0,0,0-.21,1.6,1.55,1.55,0,0,0,1.72.17,3.85,3.85,0,0,0,1.35-1.47c.2-.3.36-.6.6-.92a1.41,1.41,0,0,1,1.09-.64.82.82,0,0,1,.65.37,1.11,1.11,0,0,1,.15.67,2.34,2.34,0,0,1-.41,1.1,1.73,1.73,0,0,0-.35.86.74.74,0,0,0,.52.65c.62.26,1.33-.14,1.91-.51a2.24,2.24,0,0,1-2,.77,1.08,1.08,0,0,1-.83-.87,1.94,1.94,0,0,1,.31-1.15,1.76,1.76,0,0,0,.35-.88c0-.31-.11-.5-.32-.51a.94.94,0,0,0-.68.45c-.19.24-.37.58-.56.88a4.34,4.34,0,0,1-1.55,1.64,2.05,2.05,0,0,1-2.31-.26,1.39,1.39,0,0,1-.36-1.21,2.38,2.38,0,0,1,.54-1.06,5.19,5.19,0,0,1,.82-.8,1.65,1.65,0,0,1,.59-.25.69.69,0,0,1,.73.3l.07.15-.09.12a7.16,7.16,0,0,1-2.88,2.32c-.57.26-1.18.4-1.71.6a1.83,1.83,0,0,0-1.18,1l-.3-.32a3.33,3.33,0,0,0,1.79-1.21V49a1.94,1.94,0,0,0-.93-.74,2.3,2.3,0,0,0-1.19-.17l-.32,0,.09-.29A2.29,2.29,0,0,1,308.49,46.23Z" style="fill:#010101"/><path d="M318,46.75a1.23,1.23,0,0,0-.43,1.67,1.47,1.47,0,0,0,1.52.64,2.45,2.45,0,0,0,1.58-.87,7.45,7.45,0,0,0,1-1.65l0,.15c0-.32-.7-.45-.88-.18s.07.72.54.86a1.67,1.67,0,0,0,1.4-.21,4.74,4.74,0,0,1,1.62-.6l.59-.06-.37.46a2.5,2.5,0,0,0-.72,1.58.93.93,0,0,0,.34.67.71.71,0,0,0,.71,0,4.22,4.22,0,0,0,2.45-2.62l.07-.23.23.06a2.93,2.93,0,0,1,1.28.62,1,1,0,0,1,.35.74,1.43,1.43,0,0,1-.25.7c-.2.28.11.66.5.72a2,2,0,0,0,1.17-.41,2,2,0,0,1-1.18.61,1,1,0,0,1-.68-.29.71.71,0,0,1-.17-.77c.23-.47.17-.66-.09-.93a2.4,2.4,0,0,0-1.05-.51l.3-.16a4.71,4.71,0,0,1-2.76,2.94,1.18,1.18,0,0,1-1.17-.09,1.42,1.42,0,0,1-.55-1,2.89,2.89,0,0,1,.83-1.94l.22.41a4.62,4.62,0,0,0-1.46.55,4.08,4.08,0,0,1-.83.31,1.79,1.79,0,0,1-.95-.07,1.55,1.55,0,0,1-.79-.58.93.93,0,0,1,0-1.06,1,1,0,0,1,1-.32.91.91,0,0,1,.77.73v.08l0,.07A8.29,8.29,0,0,1,321,48.53a3,3,0,0,1-1.89,1,1.7,1.7,0,0,1-1.86-1A1.35,1.35,0,0,1,318,46.75Z" style="fill:#010101"/><path d="M324.21,44l.25,0v.18l-.25,0-.25,0V44Z" style="fill:#010101"/><path d="M342.54,46.16a2.29,2.29,0,0,0-2,1.38,1.47,1.47,0,0,0,1,1.88c.76.13,1.37-.7,2-1.26l1.91-1.77.35.36c-.55.45-1.05,1-.83,1.6a1,1,0,0,0,1.47.55,1.21,1.21,0,0,0,.37-1.61,1.41,1.41,0,0,0-1.66-.5l-.14-.47,1.89-.3,1-.14A1.71,1.71,0,0,1,349,46a1.19,1.19,0,0,1,.53,1,2.39,2.39,0,0,1-.23,1c-.28.59-.61,1.15-.46,1.64l-.45-.07a20.72,20.72,0,0,1,3.22-3.59l.28-.25.12.36a6.31,6.31,0,0,1,.18,3.05l-.42-.23L354,46.72a2.28,2.28,0,0,1,.73-.54.87.87,0,0,1,.56,0,.7.7,0,0,1,.45.41,1.21,1.21,0,0,1-.19,1,2.6,2.6,0,0,0-.28.67c-.09.36.33.74.75.75a2.49,2.49,0,0,0,1.35-.51,7.07,7.07,0,0,0,2.17-2.22l.39.31a3.23,3.23,0,0,0-.95,1.33.94.94,0,0,0,.5,1.16c.39.11,1-.25,1.34-.61a1.71,1.71,0,0,0,.54-1.39,1.07,1.07,0,0,0-.94-1,.41.41,0,0,0-.47.35c0,.25.15.42.43.32l3.43-1-3.37,1.19a.58.58,0,0,1-.54,0,.64.64,0,0,1-.23-.5.72.72,0,0,1,.74-.7,1.48,1.48,0,0,1,1.41,1.28,2,2,0,0,1-.65,1.83,3,3,0,0,1-.78.56,1.46,1.46,0,0,1-1,.18,1.25,1.25,0,0,1-.79-.75,1.58,1.58,0,0,1-.06-1,3.68,3.68,0,0,1,1.08-1.56l1.56-1.56L360,46.47a7.67,7.67,0,0,1-2.33,2.38,3,3,0,0,1-1.64.59,1.41,1.41,0,0,1-.89-.38,1.07,1.07,0,0,1-.34-1,3.26,3.26,0,0,1,.34-.82c.12-.22.22-.48.17-.56s-.17-.16-.36-.08a1.68,1.68,0,0,0-.57.42l-2.28,2.3-.57.57.15-.8a5.78,5.78,0,0,0-.17-2.8l.41.12a20.1,20.1,0,0,0-3.14,3.5l-.31.44-.13-.52a3,3,0,0,1,.48-2c.24-.52.31-1.2-.1-1.43s-1.09,0-1.71.05l-1.89.29-2.15.33,2-.81a1.92,1.92,0,0,1,2.28.69,1.7,1.7,0,0,1-.53,2.3,1.53,1.53,0,0,1-2.2-.8,1.47,1.47,0,0,1,.17-1.28,4.43,4.43,0,0,1,.79-.87l.35.36-1.94,1.81a12.09,12.09,0,0,1-1,.85,1.6,1.6,0,0,1-2.5-1.91A2.39,2.39,0,0,1,342.54,46.16Z" style="fill:#010101"/><path d="M0,65.75l.7,2.72-.17,0a14.61,14.61,0,0,0,1.71-2.79l.28-.6.12.66a12.84,12.84,0,0,0,.84,2.81l-.43,0,2-2.84.24-.34.18.36c.42.84.15,1.69.4,2.31s1,.78,1.65.58a5.23,5.23,0,0,0,1.89-1.11A8.87,8.87,0,0,0,11,65.78l.36.35a1.11,1.11,0,0,0,.13,1.7,1.48,1.48,0,0,0,1.86-.39c.22-.27.3-.62.13-.8a2.46,2.46,0,0,0-1-.46c-.71-.22-1.61-.29-1.92.3l-.19-.37a7.81,7.81,0,0,0,7.73-4.86l.45.21A12.65,12.65,0,0,0,16.77,68c0,.53.16,1.14.55,1.12a1.45,1.45,0,0,0,.67-.27c.25-.14.49-.29.73-.45A11,11,0,0,0,21.22,66l.42-.56-.25.65a2.78,2.78,0,0,0,.38,2.66,2.91,2.91,0,0,1-.57-2.73l.17.09a10.59,10.59,0,0,1-2.4,2.6,7.3,7.3,0,0,1-.72.52,1.62,1.62,0,0,1-.95.35,1,1,0,0,1-.87-.66,2.5,2.5,0,0,1-.16-.95,13.11,13.11,0,0,1,1.87-6.8l.45.21a8.34,8.34,0,0,1-8.25,5.19l-.37,0,.17-.33a1.45,1.45,0,0,1,1.21-.71,3.72,3.72,0,0,1,1.3.17,2.74,2.74,0,0,1,1.19.62.9.9,0,0,1,.19.78,1.36,1.36,0,0,1-.31.65,2,2,0,0,1-2.52.5A1.6,1.6,0,0,1,11,65.73l1.49-1.22-1.14,1.57a9.84,9.84,0,0,1-1.62,1.73A5.67,5.67,0,0,1,7.69,69a2.31,2.31,0,0,1-1.28,0,1.44,1.44,0,0,1-1-.92c-.28-.85,0-1.66-.37-2.23l.43,0-2,2.84-.25.35L3,68.72a9.06,9.06,0,0,1-.81-3l.4.07A15,15,0,0,1,.68,68.56l-.14.14,0-.19Z" style="fill:#010101"/><path d="M14.69,63.11c.2-.13.4-.21.6-.32l.64-.07,1.26-.14,1.27-.13.63-.07c.22.06.44.1.66.18-.2.12-.4.21-.6.31l-.64.07-1.26.14L16,63.22l-.63.07C15.13,63.23,14.91,63.19,14.69,63.11Z" style="fill:#010101"/><path d="M22.42,66.14a3.32,3.32,0,0,0,.94,1.58,1.66,1.66,0,0,0,1.57.5A1.59,1.59,0,0,0,26,67.09a.81.81,0,0,0-.12-.67c-.07-.07-.1-.07-.17,0a.14.14,0,0,0-.09.06l-.26-.21c1.82-.08,3.57.33,5.24,0l.06.49c-.63,0-1.12.56-1.62,1.13a1.43,1.43,0,0,0-.54.78.43.43,0,0,0,.36.54,2.33,2.33,0,0,0,1.74-.81,3.43,3.43,0,0,0,1-1.81l.48.11c-.22.66-.39,1.35,0,1.79a.65.65,0,0,0,.72.23.61.61,0,0,0,.33-.17c.06-.07.19-.28.3-.41A7.3,7.3,0,0,1,37,65.72l.13.48a4.27,4.27,0,0,0-1.89.77,1.33,1.33,0,0,0-.33,1.65.76.76,0,0,0,.74.37,8.78,8.78,0,0,0,1.05-.17l2.15-.4-2.1.63a8.08,8.08,0,0,1-1.08.29,1.18,1.18,0,0,1-1.16-.46,1.77,1.77,0,0,1,.4-2.29A4.62,4.62,0,0,1,37,65.72l.13.48a6.75,6.75,0,0,0-3.39,2.19c-.13.14-.17.24-.33.44a1.18,1.18,0,0,1-.6.32,1.2,1.2,0,0,1-.65,0,1.14,1.14,0,0,1-.55-.38,1.63,1.63,0,0,1-.35-1.17,4.58,4.58,0,0,1,.26-1.09l.48.12a3.85,3.85,0,0,1-1.08,2.08,3.74,3.74,0,0,1-1,.71,2,2,0,0,1-1.24.24A.94.94,0,0,1,28,68.52a1.84,1.84,0,0,1,.67-1,2.89,2.89,0,0,1,2-1.28l.05.5c-1.82.36-3.61-.06-5.32,0h-.25v-.22a.63.63,0,0,1,1.11-.44,1.27,1.27,0,0,1,.25,1.12A1.82,1.82,0,0,1,25,68.59a2,2,0,0,1-1.81-.73A3.36,3.36,0,0,1,22.42,66.14Z" style="fill:#010101"/><path d="M36.29,69.37a1.32,1.32,0,0,1,.25.28l0,.29a2.73,2.73,0,0,1-.15.56,3.16,3.16,0,0,1-.26.52l-.17.24a1.55,1.55,0,0,1-.37,0c0-.13,0-.24,0-.35l.14-.2a2.14,2.14,0,0,0,.21-.43,2.42,2.42,0,0,0,.13-.46,1.94,1.94,0,0,0,0-.24Z" style="fill:#010101"/><path d="M43.46,65.47a4.44,4.44,0,0,0-1.45.17,6.56,6.56,0,0,0-1.35.49,5,5,0,0,0-1.08.94c-.39.39-.31.53.08.74a2.62,2.62,0,0,0,1.31,0,4.08,4.08,0,0,0,3-2.59l.15-.44.28.36a1.25,1.25,0,0,1,.16,1,1,1,0,0,0,.07.66,1.36,1.36,0,0,0,1.19.57,1.91,1.91,0,0,0,1.26-.66A6.51,6.51,0,0,0,48,65.42l.37.33c-.62.45-1.23,1.22-.76,1.71a1.24,1.24,0,0,0,1,.28,3.16,3.16,0,0,0,1.12-.3,1.65,1.65,0,0,0,1.08-1.72.81.81,0,0,0-.61-.69.74.74,0,0,0-.83.27l0-.15s.17.14.41.13l.79-.09c.54-.07,1.09-.09,1.64-.12l3.28-.16-3.24.55c-.54.08-1.08.19-1.63.23-.28,0-.52.07-.83.09a1.31,1.31,0,0,1-.5-.08.63.63,0,0,1-.42-.5v-.09l0-.06a1.32,1.32,0,0,1,2.37.57A1.93,1.93,0,0,1,51,67a2.59,2.59,0,0,1-1.07.88,3.8,3.8,0,0,1-1.3.35,1.71,1.71,0,0,1-1.36-.44,1.19,1.19,0,0,1-.1-1.46,3.37,3.37,0,0,1,.92-1l1.08-.86-.72,1.19a7.16,7.16,0,0,1-1,1.38,2.39,2.39,0,0,1-1.61.81A1.83,1.83,0,0,1,44.21,67c-.36-.65.06-1.37-.18-1.56l.43-.08a4.45,4.45,0,0,1-2,2.36,3.87,3.87,0,0,1-3,.51.92.92,0,0,1-.64-.72,1,1,0,0,1,.46-.79,5,5,0,0,1,1.25-.86A6.15,6.15,0,0,1,43.46,65.47Z" style="fill:#010101"/><path d="M41.28,61.94c.18-.15.38-.27.57-.4l.63-.15,1.27-.31L45,60.77l.63-.15c.23,0,.46,0,.69.09-.18.15-.38.26-.57.4l-.63.15-1.27.31-1.27.31L42,62C41.74,62,41.51,62,41.28,61.94Z" style="fill:#010101"/><path d="M68.3,65.47a21,21,0,0,1-1.75,1.47,1.75,1.75,0,0,0-.59.79.7.7,0,0,0,.27.76A1.34,1.34,0,0,0,68,68.25a4.58,4.58,0,0,0,.87-2l.26-1,.23,1a2.44,2.44,0,0,0,1.36,1.6,3.24,3.24,0,0,0,.52.19,4.26,4.26,0,0,0,.54.16,2.69,2.69,0,0,0,1.16,0,2.52,2.52,0,0,1-1.18.4,3.43,3.43,0,0,1-.64,0,4.49,4.49,0,0,1-.61-.23,3,3,0,0,1-1.64-1.94h.49a5,5,0,0,1-1,2.19,1.85,1.85,0,0,1-2.42.3,1.2,1.2,0,0,1-.45-1.29,2.18,2.18,0,0,1,.74-1,3.33,3.33,0,0,1,1-.61Z" style="fill:#010101"/><path d="M85.69,67.65a13.6,13.6,0,0,0,1.85-3.19A4.45,4.45,0,0,0,87.46,61l.31-.06-.36,4.16L87,69.19l-.9,8.29-.5,0a16,16,0,0,0-.38-4.19,14.33,14.33,0,0,0-.6-2c-.12-.33-.25-.65-.39-1L84,69.76A.7.7,0,0,1,84,69a1.72,1.72,0,0,1,.54-.34l.49-.22L86,68,88,67.07l3.89-1.81.16.47a4.24,4.24,0,0,0-1.94,1,1.41,1.41,0,0,0-.49.84c-.06.32,0,.69.22.78s.5,0,.81-.25a4.72,4.72,0,0,0,1.91-2.63l.23-.81.24.79c.32,1-.23,1.89.16,2.56a.56.56,0,0,0,.75.36,2.68,2.68,0,0,0,.85-.81,5,5,0,0,1,1-1,2.13,2.13,0,0,1,1.41-.36,1.31,1.31,0,0,1,1.18,1,1.13,1.13,0,0,1-.65,1.39v-.48a4.09,4.09,0,0,1,2.64,3A3.85,3.85,0,0,1,99,74.85a3.92,3.92,0,0,1-1.87.89A1.56,1.56,0,0,1,96,75.61a1.18,1.18,0,0,1-.43-1.1,6.06,6.06,0,0,1,2.11-3.44,28.37,28.37,0,0,1,3.22-2.31c.54-.36,1.09-.71,1.61-1.1.25-.2.51-.39.74-.61a2.29,2.29,0,0,0,.61-.68.89.89,0,0,0,.11-.79.53.53,0,0,0-.7-.12,3.14,3.14,0,0,0-1.33,1.3,2,2,0,0,0-.07,1.83,1.6,1.6,0,0,0,1.56.93,1.66,1.66,0,0,1-1.64-.89,2.07,2.07,0,0,1,0-1.95,3.38,3.38,0,0,1,1.38-1.45.8.8,0,0,1,1.06.2,1.19,1.19,0,0,1-.07,1.09c-1.66,2.25-4.25,3.19-6.15,4.92a5.71,5.71,0,0,0-2,3.11.71.71,0,0,0,.22.65,1.16,1.16,0,0,0,.78,0,3.53,3.53,0,0,0,1.63-.78,3.36,3.36,0,0,0,1.19-3.27,3.6,3.6,0,0,0-2.31-2.64l-.83-.27.83-.21a.64.64,0,0,0,.32-.79.8.8,0,0,0-.75-.57,2.38,2.38,0,0,0-2,1.13,3.14,3.14,0,0,1-1,1,1,1,0,0,1-.84,0,1.2,1.2,0,0,1-.55-.59,2.53,2.53,0,0,1-.16-1.42,2.77,2.77,0,0,0,0-1.19l.48,0a5.54,5.54,0,0,1-1.18,2.12,5.88,5.88,0,0,1-.93.79,2.47,2.47,0,0,1-.56.31.89.89,0,0,1-.76,0,1.22,1.22,0,0,1-.48-1.29,1.89,1.89,0,0,1,.64-1.13,4.61,4.61,0,0,1,2.17-1.09l.16.47-3.89,1.81-2,.9-1,.45-.49.23a1.44,1.44,0,0,0-.37.2c-.1,0,.1.41.25.73s.29.67.41,1a16.47,16.47,0,0,1,1,6.42l-.5,0,.9-8.29L86.91,65l.53-4.13.07-.56.24.5a4.67,4.67,0,0,1-.06,3.72A13.33,13.33,0,0,1,85.69,67.65Z" style="fill:#010101"/><path d="M106.52,65.78a6.18,6.18,0,0,0-.55.82c-.16.28-.25.6-.4.87a4.82,4.82,0,0,0-.48,1.82l-.44-.18,1.68-1.87c.29-.31.55-.63.88-.93a1.8,1.8,0,0,1,1.32-.55,1.16,1.16,0,0,1,1,1.06,1,1,0,0,1-.37.71c-.16.15-.3.3-.3.36s.32.23.74.35.81.25,1.21.39c-.43,0-.85,0-1.27,0a2.29,2.29,0,0,1-.67-.06.9.9,0,0,1-.37-.24.61.61,0,0,1-.14-.5,1.27,1.27,0,0,1,.45-.62c.15-.15.23-.25.22-.36s-.31-.54-.6-.56c-.66,0-1.22.71-1.78,1.31L105,69.44l-.48.54,0-.72a5.58,5.58,0,0,1,.52-2,3.34,3.34,0,0,1,.62-.82A4.08,4.08,0,0,1,106.52,65.78Z" style="fill:#010101"/><path d="M124.55,66.47l-.3,2.88-.19,0a5.59,5.59,0,0,1,.62-1.57,4.94,4.94,0,0,1,1.11-1.32,1.11,1.11,0,0,1,1-.25.89.89,0,0,1,.58.88,6.9,6.9,0,0,1,0,.84c0,.27,0,.43.17.47l-.28.06,1.29-1.33.65-.66c.24-.21.34-.47.79-.67a.7.7,0,0,1,.68.16,1.11,1.11,0,0,1,.28.52,1.64,1.64,0,0,1-.11,1.06,2.21,2.21,0,0,0-.21.8.46.46,0,0,0,.32.46c1,.15,1.85-1.11,2.81-1.85a4.69,4.69,0,0,1,3.53-1.39l.66.09-.55.37-2,1.32c-.65.4-1.18,1-.8,1.61a.42.42,0,0,0,.67.13,7.48,7.48,0,0,0,.83-.78,11.12,11.12,0,0,0,1.4-1.87l1.07-1.83-.62,2a5,5,0,0,0-.21,1.71.51.51,0,0,0,.09.28s.08,0,.19,0a4.27,4.27,0,0,0,.76-.36,8.73,8.73,0,0,0,2.67-2.32l.42.27a2.87,2.87,0,0,0-.51,2,1.07,1.07,0,0,0,.54.71,1,1,0,0,0,.86-.12,7.58,7.58,0,0,0,3-3.14l.14-.27.24.19a9.19,9.19,0,0,1,1.05.94,2.63,2.63,0,0,1,.66,1.32,1.7,1.7,0,0,1-.45,1.42,1.18,1.18,0,0,1-1.39.38l-.19-.09.16-.13a6,6,0,0,1,3.63-1.16A5.82,5.82,0,0,0,146,69.6l0-.22a.92.92,0,0,0,1-.37,1.36,1.36,0,0,0,.28-1.12,4.11,4.11,0,0,0-1.59-2l.38-.08a8.26,8.26,0,0,1-3.19,3.36,1.46,1.46,0,0,1-1.31.12,1.59,1.59,0,0,1-.82-1,3.3,3.3,0,0,1,.56-2.33l.42.27a9.37,9.37,0,0,1-2.83,2.45,4.93,4.93,0,0,1-.89.41.68.68,0,0,1-.66-.18.93.93,0,0,1-.22-.57,5.25,5.25,0,0,1,.22-1.9l.46.2a12.09,12.09,0,0,1-1.46,2,7.53,7.53,0,0,1-.92.85,1,1,0,0,1-.75.19,1,1,0,0,1-.63-.47,1.31,1.31,0,0,1,0-1.39,3,3,0,0,1,.94-.89l2-1.33.11.46A4.21,4.21,0,0,0,134,67.3c-.47.39-.91.82-1.36,1.24a3.16,3.16,0,0,1-.84.56,1.58,1.58,0,0,1-1.07.15,1,1,0,0,1-.68-.94,2.82,2.82,0,0,1,.24-1,1.07,1.07,0,0,0,.1-.75c-.07-.26-.21-.39-.33-.33s-.38.33-.59.53l-.64.67-1.3,1.33-.12.12-.15-.07a.76.76,0,0,1-.41-.45,1.77,1.77,0,0,1-.06-.49c0-.3,0-.57,0-.81a.45.45,0,0,0-.22-.45.68.68,0,0,0-.57.15A4.21,4.21,0,0,0,125,67.92a4.86,4.86,0,0,0-.7,1.45l-.2,0Z" style="fill:#010101"/><path d="M142.25,64.06a.42.42,0,0,1,.12.24.41.41,0,0,1-.11.07.51.51,0,0,1-.48,0l-.11-.07a.5.5,0,0,1,.12-.24.46.46,0,0,0,.21-.14h0A.55.55,0,0,0,142.25,64.06Z" style="fill:#010101"/><path d="M160.64,68.85c.34-.21.68-.39,1-.61a4.66,4.66,0,0,0,.88-.59,1.59,1.59,0,0,0,.48-1.78l.3.13a1.47,1.47,0,0,0-.85,2,1.39,1.39,0,0,0,1,.67,1.68,1.68,0,0,0,1.3,0,1.61,1.61,0,0,1-1.4.54,1.9,1.9,0,0,1-1.3-.94,2,2,0,0,1,1.15-2.69l.19-.06.1.19a1.73,1.73,0,0,1,.08,1.3,2.32,2.32,0,0,1-.67,1.07,2.84,2.84,0,0,1-1,.63A6.66,6.66,0,0,1,160.64,68.85Z" style="fill:#010101"/><path d="M175.59,65.75a6.48,6.48,0,0,0-1.07,3.35l-.12,0a5.58,5.58,0,0,1,2.92-3.1l.11,0,.06.11a4,4,0,0,1,.3,3l-.31-.18,3-3,.18-.19.18.22a2.75,2.75,0,0,1,.33,2.85l-.16-.35a4.51,4.51,0,0,0,5.19-3l.26.32a2.58,2.58,0,0,0-1.78.89,1.49,1.49,0,0,0-.11,1.8,1.17,1.17,0,0,0,1.64.41A10.68,10.68,0,0,0,188,67.63,11.82,11.82,0,0,0,192,60.06l.4.23a9.19,9.19,0,0,0-3.24,4.26,7.33,7.33,0,0,0-.5,2.62,1.62,1.62,0,0,0,.41,1.09,1.09,1.09,0,0,0,1.09.07,9.46,9.46,0,0,0,6.39-8l.39.22a10.24,10.24,0,0,0-4,8.28l-.44-.15a11.92,11.92,0,0,1,3.54-2.82l.18-.09.12.14a1.28,1.28,0,0,1,.17,1.22c-.1.36-.24.68-.32,1-.22.67.32.73.93.35a17.68,17.68,0,0,0,3.38-2.3l.3.4a1.66,1.66,0,0,0,0,2.6l-.2,0a3.71,3.71,0,0,0,1.59-.78,1.75,1.75,0,0,0,.64-1.48,1.05,1.05,0,0,0-.9-1.07c-.51,0-1.09.37-1,.82l-.29-.21,4.67-.81c.4,0,.75-.14,1.22-.16a.92.92,0,0,1,.69.29.73.73,0,0,1,.14.76,5.92,5.92,0,0,1-.62,1.07,1.27,1.27,0,0,0-.28,1l-.3,0a19.1,19.1,0,0,1,1.51-2.06,11.13,11.13,0,0,1,.88-1,1.59,1.59,0,0,1,1.21-.48.89.89,0,0,1,.84.93c-.1.47-.51.72-.68,1.09a1.17,1.17,0,0,0,1.37,1.5A1.21,1.21,0,0,1,209.87,67c.17-.4.56-.67.62-1.07s-.35-.7-.73-.74a1.44,1.44,0,0,0-1,.47c-.29.29-.55.62-.82,1a19.57,19.57,0,0,0-1.42,2.08l-.2.32-.11-.36a1.54,1.54,0,0,1,.27-1.27,6.17,6.17,0,0,0,.54-1c.1-.29-.1-.47-.42-.46s-.75.13-1.13.19l-4.68.8-.25,0,0-.26a1.18,1.18,0,0,1,.48-1.06,1.59,1.59,0,0,1,1-.33,1.55,1.55,0,0,1,1.38,1.54,2.28,2.28,0,0,1-.81,1.89,4.23,4.23,0,0,1-1.79.88l-.11,0-.09-.06a2,2,0,0,1-.86-1.71,2.06,2.06,0,0,1,.83-1.73l.31.4a18.47,18.47,0,0,1-3.47,2.36,1.53,1.53,0,0,1-1.18.26.8.8,0,0,1-.5-.54,1.19,1.19,0,0,1,0-.63c.09-.37.23-.68.31-1a.79.79,0,0,0,0-.75l.29.05a11.82,11.82,0,0,0-3.39,2.7l-.42.5,0-.65a10.72,10.72,0,0,1,4.21-8.7l.45-.33-.05.55a9.94,9.94,0,0,1-6.73,8.48,2.34,2.34,0,0,1-.77.13,1.35,1.35,0,0,1-.79-.3,2,2,0,0,1-.59-1.44,7.61,7.61,0,0,1,.54-2.82,9.63,9.63,0,0,1,3.41-4.5l.46-.32-.07.56A12.34,12.34,0,0,1,188.27,68a10.71,10.71,0,0,1-1.9,1.32,1.82,1.82,0,0,1-1.25.18,1.76,1.76,0,0,1-1-.77,2.15,2.15,0,0,1-.32-1.22,2.06,2.06,0,0,1,.46-1.16,3,3,0,0,1,2.14-1.07l.37,0-.11.36a5,5,0,0,1-5.79,3.28l-.3-.07.13-.27a2.28,2.28,0,0,0-.28-2.33l.37,0-3,2.82-.55.51.24-.69a3.7,3.7,0,0,0-.19-2.75l.18.07a5.39,5.39,0,0,0-2.92,2.9l-.14.34,0-.37A6.55,6.55,0,0,1,175.59,65.75Z" style="fill:#010101"/><path d="M215.23,69.38l-.14-.2,0,0,.06-.06.06-.06,0,0,.21.14.14.21,0,0-.06.06-.06.06,0,0Z" style="fill:#010101"/></g></g></svg>