<svg xmlns="http://www.w3.org/2000/svg" viewBox="0 0 158.97 195.92"><title>alexandre</title><g id="Camada_2" data-name="Camada 2"><g id="Camada_1-2" data-name="Camada 1"><path d="M63.75,59.48a3.23,3.23,0,0,1-2.94.33,5.28,5.28,0,0,1-2.51-2,18.47,18.47,0,0,1-1.72-3,34.05,34.05,0,0,1-1.4-3.42,33.55,33.55,0,0,1-1.63-7.15,31.78,31.78,0,0,1-.22-3.65,4.37,4.37,0,0,1,.72-2.83,2.58,2.58,0,0,1,3.16-.35,7.69,7.69,0,0,1,2.54,2.8c.16.24.55,0,.39-.23a9.18,9.18,0,0,0-2.34-2.73,3.45,3.45,0,0,0-3.09-.49A3,3,0,0,0,53,39.06a14.45,14.45,0,0,0,0,3.6,33.56,33.56,0,0,0,1.49,7.87,32.22,32.22,0,0,0,1.39,3.65,22.11,22.11,0,0,0,1.81,3.44,6.29,6.29,0,0,0,2.8,2.53A3.67,3.67,0,0,0,64,59.86C64.21,59.7,64,59.31,63.75,59.48Z" style="fill:#1d1d1b"/><path d="M56,40a2.9,2.9,0,0,0-.52.29.29.29,0,0,0,0-.16l-.2-.4a.22.22,0,0,0-.3-.08A2.1,2.1,0,0,0,54.07,41a.23.23,0,0,0,.33.25l.33-.17a2.84,2.84,0,0,0,.19,3.54c.18.23.5-.09.31-.31a2.49,2.49,0,0,1-.48-2.24,2.08,2.08,0,0,1,.26-.59v.06a.21.21,0,0,0,.18.16.24.24,0,0,0,.23-.11l.63-.88a.18.18,0,0,0,0-.2l.09,0C56.42,40.34,56.3,39.9,56,40Z" style="fill:#1d1d1b"/><path d="M59.58,45.13a5.45,5.45,0,0,0-3.26,3.95c-.06.29.37.41.43.12s.09-.37.14-.56l0,0a2.8,2.8,0,0,1,1.31-1.21,1.89,1.89,0,0,1-.09.34l-.17.32a.23.23,0,0,0,.39.23,2.28,2.28,0,0,0,.2-.38l.14-.26a.34.34,0,0,1,0,.28c-.14.25.25.48.39.22a.76.76,0,0,0-.39-1.07h0c0-.14-.13-.27-.28-.22a3.32,3.32,0,0,0-.76.36,4.78,4.78,0,0,1,2.06-1.63C60,45.46,59.85,45,59.58,45.13Z" style="fill:#1d1d1b"/><path d="M60.52,48c-.21-.51-.41-1-.61-1.53a.24.24,0,0,0-.28-.16.23.23,0,0,0-.16.28c.21.51.41,1,.62,1.52a.22.22,0,0,0,.27.16A.23.23,0,0,0,60.52,48Z" style="fill:#1d1d1b"/><path d="M60.47,39.19c-.18-.23-.5.09-.32.31a16.3,16.3,0,0,1,2.55,4.38.22.22,0,0,0,0,.44.17.17,0,0,0,.1,0,17.42,17.42,0,0,1,.75,2.77c0,.28.48.16.43-.12A17,17,0,0,0,60.47,39.19Z" style="fill:#1d1d1b"/><path d="M55.06,28.57a12.45,12.45,0,0,0,.33-1.44,11.3,11.3,0,0,0,.17-1.41.24.24,0,0,0,.27-.08l3.1-4.13c.17-.23-.22-.46-.39-.23-1,1.32-2,2.63-2.95,3.94,0-.43,0-.86,0-1.29s-.47-.29-.45,0A13.37,13.37,0,0,1,55,27c-.09.5-.2,1-.34,1.49s-.33.9-.45,1.36A1.63,1.63,0,0,0,54.26,31c.17.34.54.68.39,1.08s-.48.6-.7.89a2.14,2.14,0,0,0-.43,1,2.54,2.54,0,0,0,.61,2.24c.2.22.52-.1.32-.31a2.12,2.12,0,0,1-.45-2,2.33,2.33,0,0,1,.58-.9l.16-.18a.22.22,0,0,0,.41.09,9.86,9.86,0,0,1,3.35-3.7c.25-.16,0-.55-.22-.39a9.15,9.15,0,0,0-1.16.89L58.59,27c.14-.25-.25-.48-.39-.23l-1.72,3.1a.22.22,0,0,0,.08.3A10.12,10.12,0,0,0,55.12,32a1.36,1.36,0,0,0-.26-.86,2.2,2.2,0,0,1-.27-.47,1.42,1.42,0,0,1,0-.79C54.75,29.44,54.93,29,55.06,28.57Z" style="fill:#1d1d1b"/><path d="M55.14,20.9l.62-.57a1,1,0,0,0,.41-.37v0l3.45-3.16c.21-.2-.11-.51-.32-.32l-3,2.73c0-.33,0-.66-.07-1-.06-.75-.11-1.51-.17-2.26,0-.29-.47-.29-.45,0,.08,1.07.22,2.16.23,3.23a1,1,0,0,1-.11.5l-.23.22a.59.59,0,0,1-.42,0c-.43-.12-.69-.55-.91-.91-.1-.14-.39-.15-.42.06A14.7,14.7,0,0,0,54,24.42a1.81,1.81,0,0,0-.58-.12.23.23,0,0,0,0,.45,1.13,1.13,0,0,1,.77.31.22.22,0,0,0,.38-.21,14.57,14.57,0,0,1-.31-1.46.22.22,0,0,0,.23,0c1-.93,2-1.85,3.08-2.77.21-.2-.11-.51-.32-.32L54.2,23a14,14,0,0,1-.05-3.24,1.72,1.72,0,0,0,.77.59l.11,0-.21.2C54.61,20.77,54.92,21.09,55.14,20.9Z" style="fill:#1d1d1b"/><path d="M59.07,12.3a9.5,9.5,0,0,1-2.7,2.1c-.26.14,0,.52.22.39a9.75,9.75,0,0,0,2.8-2.18C59.58,12.4,59.27,12.08,59.07,12.3Z" style="fill:#1d1d1b"/><path d="M68.81,2.48c-1.75.9-3.54,1.75-5.27,2.7a2.75,2.75,0,0,0-1.38,1.56c-.2.55-.29,1.25-.79,1.61a2.7,2.7,0,0,0-3.56,3.34.23.23,0,0,0,.44-.12A2.28,2.28,0,0,1,59.07,9a2.35,2.35,0,0,1,1.4-.42,2.28,2.28,0,0,1,.68.13c.25.08.33.1.54-.06.64-.5.68-1.38,1-2.07a2.2,2.2,0,0,1,1-1c.52-.29,1.06-.55,1.59-.82L69,2.86C69.3,2.73,69.07,2.35,68.81,2.48Z" style="fill:#1d1d1b"/><path d="M78.12,1.36a26.78,26.78,0,0,1-4.43.74,1,1,0,0,0,.12-.28.22.22,0,0,0-.43-.12.61.61,0,0,1-.53.47c-.28,0-.29.46,0,.44a27.32,27.32,0,0,0,5.39-.81A.23.23,0,0,0,78.12,1.36Z" style="fill:#1d1d1b"/><path d="M107.5,19.1l-.24-.6a.23.23,0,0,0,0-.2,5.24,5.24,0,0,1-.29-3.36.23.23,0,0,0-.15-.28l-1.11-.15a1.4,1.4,0,0,0,0-1.26A6.67,6.67,0,0,0,104,11.36c-1.46-1.37-2.91-2.76-4.4-4.11A29.38,29.38,0,0,0,90,1,15,15,0,0,0,83.75,0c-.28,0-.29.48,0,.45A16.8,16.8,0,0,1,93.93,3.38a56.82,56.82,0,0,1,8.39,7c.78.74,1.6,1.46,2.36,2.23.37.38,1.14,1.43.46,1.85a.16.16,0,0,0-.06.08,21.33,21.33,0,0,0-5.82-5.62A20.22,20.22,0,0,0,96,7.2c-.27-.11-.38.32-.12.43a20.63,20.63,0,0,1,9.61,8.31,19.9,19.9,0,0,1,1.6,3.28C107.17,19.49,107.6,19.37,107.5,19.1Zm-2.18-4.2,1.17.16a5.68,5.68,0,0,0-.09,1.64A20.41,20.41,0,0,0,105.32,14.9Z" style="fill:#1d1d1b"/><path d="M70.9,9.08a12,12,0,0,0-6,8.37c-.05.28.38.4.43.12a11.55,11.55,0,0,1,5.83-8.1C71.38,9.34,71.16,9,70.9,9.08Z" style="fill:#1d1d1b"/><path d="M84.61,4.83A52.69,52.69,0,0,0,72.9,6.64a.23.23,0,0,0,.12.44,51.63,51.63,0,0,1,11.59-1.8C84.89,5.27,84.89,4.82,84.61,4.83Z" style="fill:#1d1d1b"/><path d="M64.34,24.92a1.82,1.82,0,0,0-.08-1.71,2.88,2.88,0,0,0-1.64-.88c-.29-.1-.69-.28-.8-.61s0-.64.34-.6.4-.39.12-.43a.85.85,0,0,0-.91,1c.1.68.84,1,1.41,1.14a2.36,2.36,0,0,1,1,.48,1.23,1.23,0,0,1,.26,1,3.33,3.33,0,0,1-1.41,1.83c-.2.16.06.49.27.35a.6.6,0,0,1,.79.23A1.39,1.39,0,0,1,63.79,28c-.21.83-.46,1.64-.6,2.48a16.7,16.7,0,0,0,0,5,17.1,17.1,0,0,0,.66,2.83c.09.27.52.15.43-.12a16.44,16.44,0,0,1-.8-5.61,15.54,15.54,0,0,1,.36-2.87c.1-.46.23-.92.36-1.38A2.81,2.81,0,0,0,64.3,27a1.32,1.32,0,0,0-.83-1A3.37,3.37,0,0,0,64.34,24.92Z" style="fill:#1d1d1b"/><path d="M102.65,48.88c-.43-1-.87-2-1.3-3.05-.29-1.27-.57-2.53-.86-3.79a4.53,4.53,0,0,0,.27.48c.16.24.55,0,.39-.22a3.5,3.5,0,0,1-.58-1.88c0-.28-.46-.29-.45,0a3.87,3.87,0,0,0,.27,1.35A.23.23,0,0,0,100,42l.81,3.57a.25.25,0,0,0,0,.19l.08.19,0,.17a.21.21,0,0,0,.09.13c.4,1,.81,1.9,1.21,2.86a.24.24,0,0,0,.31.08A.23.23,0,0,0,102.65,48.88Z" style="fill:#1d1d1b"/><path d="M111.43,35.74a.22.22,0,0,0,0-.26,3.52,3.52,0,0,1-.74-2.65c0-1,.19-2,.19-3a15.58,15.58,0,0,0-1.29-6.17,14.89,14.89,0,0,0-1.8-3.12c-.17-.23-.56,0-.39.23A15.16,15.16,0,0,1,110,26.63a14.11,14.11,0,0,1,.35,3.24c0,1-.16,2-.19,3.05a4.31,4.31,0,0,0,.54,2.43.23.23,0,0,0-.36.24l0,.13h-.9a.21.21,0,0,0-.21.19,1.39,1.39,0,0,0-.33.1.22.22,0,0,0-.09.3.21.21,0,0,0,.25.1v0a.22.22,0,0,1-.1.2c-.17.09-.32-.1-.32-.26s-.41-.27-.44,0l0,.2L107,36.25c-.21,0-.4.23-.22.38a1,1,0,0,1,.26.31l-1.1-.53c-.26-.13-.49.26-.23.39l.53.25a10,10,0,0,0-2,.6l1.09-.7c.24-.16,0-.54-.23-.39L103,37.94a.23.23,0,0,0,0,.37,7.85,7.85,0,0,0-.76.52.26.26,0,0,0-.1.19q-.54.24-1.08.51c-.25.13,0,.52.23.39a29.31,29.31,0,0,1,6.49-2.36l.1,0,0,0a1,1,0,0,0,.92.24h0l1.38.29a.22.22,0,0,0,.18-.4l.14,0a.23.23,0,0,0,.19.18.21.21,0,0,0,.21-.1l.09.38a.22.22,0,0,0,.43-.12l-.44-1.9h.37A.22.22,0,0,0,111.43,35.74Zm-3.85,1.32c0-.07,0-.14-.07-.21l.72.19a.09.09,0,0,0,0,.05s0,0,0,0h0v0l0,.08Zm2,.48a.21.21,0,0,0-.27-.26.49.49,0,0,1-.56-.22.6.6,0,0,0,.42,0,.49.49,0,0,0,.2-.11,2,2,0,0,0,.49.56.24.24,0,0,0,.1,0,.6.6,0,0,0,.13.09Zm.3-.64a1.75,1.75,0,0,1-.28-.52.43.43,0,0,0,0-.05h.16l.15,0a.33.33,0,0,1,.12,0,.67.67,0,0,1,.24.16l.08.1A.52.52,0,0,0,109.86,36.9Z" style="fill:#1d1d1b"/><path d="M111,38.74l-.14,2.3c0,.29.43.29.45,0l.13-2.3C111.46,38.46,111,38.46,111,38.74Z" style="fill:#1d1d1b"/><path d="M95.63,39.9a.23.23,0,0,0,0-.2l-.91-1.35a.23.23,0,0,0-.39,0,1.78,1.78,0,0,0-.1.38h-.1a.21.21,0,0,0-.12.14.24.24,0,0,0-.26.16,1,1,0,0,0,0,.63.14.14,0,0,0,0,.06l0,.54a.23.23,0,0,0,.22.23.24.24,0,0,0,.23-.23v-.09l0,0a.23.23,0,0,0,.29-.06.27.27,0,0,0,0-.16.22.22,0,0,0,.27-.35l-.16-.16h0l0,0,.52.5a1.53,1.53,0,0,0-.84.49.22.22,0,0,0,0,.32.23.23,0,0,0,.31,0l.1-.11.06-.05h0l.12-.08.06,0h.1l.07,0,.14,0h.25a.22.22,0,0,0,.22-.22A.23.23,0,0,0,95.63,39.9Z" style="fill:#1d1d1b"/><path d="M93.62,39.81l-.91-.92a.23.23,0,1,0-.32.32l.92.91a.22.22,0,1,0,.31-.31Z" style="fill:#1d1d1b"/><path d="M93.16,38.21H91.94a.24.24,0,0,0-.23.23.23.23,0,0,0,.23.22h1.22a.22.22,0,0,0,.22-.22A.22.22,0,0,0,93.16,38.21Z" style="fill:#1d1d1b"/><path d="M91.29,38.09l-1-.44a.62.62,0,0,0-.19-.07.28.28,0,0,0-.19.09.35.35,0,0,0-.08.13,5.7,5.7,0,0,0-4.55-.44c-.27.09-.15.52.12.43a5.23,5.23,0,0,1,4.72.73c.22.15.42-.15.28-.34l.67.3a.25.25,0,0,0,.17,0,.21.21,0,0,0,.14-.1A.24.24,0,0,0,91.29,38.09Z" style="fill:#1d1d1b"/><path d="M91.52,42.6a10,10,0,0,0-2-2.77.23.23,0,0,0-.18-.36,18.57,18.57,0,0,0-10.9,3.39c-.23.17,0,.56.23.39a18.35,18.35,0,0,1,5.18-2.54.34.34,0,0,0,0,.1,2.88,2.88,0,0,0,1.59,1.72l-1.16,0c-.28,0-.29.46,0,.45l4.13-.18c.29,0,.29-.46,0-.45L87,42.46a2.07,2.07,0,0,0,1.27-1.73.22.22,0,0,0-.22-.22.23.23,0,0,0-.23.22v.1l0,.14a.65.65,0,0,1,0,.13.14.14,0,0,1,0,.06v0h0a2,2,0,0,1-.14.25,2.31,2.31,0,0,1-.14.19,1.57,1.57,0,0,1-.88.5.23.23,0,0,0-.16.18,2.42,2.42,0,0,1-2.07-1.62.19.19,0,0,0-.05-.09,17.42,17.42,0,0,1,2.17-.46.71.71,0,0,0,.4.23l.14.08.08,0v.15l0,.11a.56.56,0,0,1-.09.17s0,.05-.06.07V40.9a.22.22,0,0,0-.19-.22l-.1,0-.44.06a2.31,2.31,0,0,0-.1-.28.23.23,0,0,0-.31-.08.57.57,0,0,0-.27.49.23.23,0,0,0-.29,0,.25.25,0,0,0-.19,0,.24.24,0,0,0-.08.31,2.06,2.06,0,0,0,.67.79.21.21,0,0,0,.23,0l.1.07a.23.23,0,0,0,.33-.14,2.3,2.3,0,0,0,0-.26l.05,0h.09a.23.23,0,0,0,.43-.09v0A1.21,1.21,0,0,0,87.37,40a17.11,17.11,0,0,1,1.75-.1V40a.21.21,0,0,0-.14.26c0,.11.08.22.13.33a.32.32,0,0,0,0,.13.7.7,0,0,0,.13.17,3.46,3.46,0,0,0,1.5,1.41l.09,0a5.21,5.21,0,0,1,.28.52C91.26,43.09,91.65,42.86,91.52,42.6Z" style="fill:#1d1d1b"/><path d="M91.35,40.19l-1-.29a.23.23,0,0,0-.28.16.22.22,0,0,0,.16.27l.25.08a1.18,1.18,0,0,0,.53.88l0,.14a.22.22,0,0,0,.16.28.22.22,0,0,0,.27-.16l.07-.32a.22.22,0,0,0-.11-.25l-.11-.06,0,0,0,0A.67.67,0,0,1,91,40.7L91,40.59h0l.29,0a.23.23,0,0,0,.27-.16A.22.22,0,0,0,91.35,40.19Z" style="fill:#1d1d1b"/><path d="M82.62,42.49H80a.23.23,0,0,0,0,.45h2.6A.23.23,0,0,0,82.62,42.49Z" style="fill:#1d1d1b"/><path d="M89.94,44.54a5.78,5.78,0,0,1-.5.49l.39-1.19a.23.23,0,0,0-.15-.28.24.24,0,0,0-.28.16l-.58,1.78-.44.26a2.9,2.9,0,0,1,.39-1.1c.14-.22-.17-.43-.34-.27a.23.23,0,0,0-.32,0,2.49,2.49,0,0,0-.82,1.48.24.24,0,0,0,.14.27l-.13,0a.22.22,0,0,0,.12.43l.49-.15a.23.23,0,0,0,.21.15.22.22,0,0,0,.22-.23v-.11a5.69,5.69,0,0,0,1.92-1.41C90.45,44.64,90.13,44.32,89.94,44.54ZM87.9,46l-.2.07a.14.14,0,0,0,0-.06,2.34,2.34,0,0,1,.09-.38.36.36,0,0,1,0-.09v-.06l.09-.18a1.4,1.4,0,0,1,.1-.16l0,0A3.42,3.42,0,0,0,87.9,46Z" style="fill:#1d1d1b"/><path d="M86.13,46.29l-2,.14a.23.23,0,0,0-.22.23.22.22,0,0,0,.22.22l2-.14a.23.23,0,0,0,.22-.23A.22.22,0,0,0,86.13,46.29Z" style="fill:#1d1d1b"/><path d="M87.31,44.66a.22.22,0,0,0-.3.08l-.46.92a.23.23,0,1,0,.39.23l.45-.92A.22.22,0,0,0,87.31,44.66Z" style="fill:#1d1d1b"/><path d="M110,41.38a4,4,0,0,0-2.32-1.7.2.2,0,0,0-.25-.06,3.85,3.85,0,0,0-2.25.17c-.26.11-.15.54.12.43A3.69,3.69,0,0,1,106,40v0a1,1,0,0,0,0,.29,1.21,1.21,0,0,0,0,.38.75.75,0,0,0-.08.24l-.11-.13a1,1,0,0,0-.24-.17.14.14,0,0,0-.09-.11.24.24,0,0,0-.22,0,1.19,1.19,0,0,0-.33,0,.19.19,0,0,0-.15.18.24.24,0,0,0-.28-.22,5.15,5.15,0,0,0-2.85,1.59c-.19.21.12.53.32.32A4.69,4.69,0,0,1,104.53,41a.18.18,0,0,0,.15-.15s0,0,0,0a1.88,1.88,0,0,0,.18.38l-.12-.08a.23.23,0,0,0-.31.08.22.22,0,0,0,.08.3l1.53,1a.22.22,0,0,0,.3-.08.16.16,0,0,0,0-.09,1,1,0,0,0,.48-.15,1,1,0,0,0,.3-.34.21.21,0,0,0,.28-.08,2.65,2.65,0,0,0,.36-1.6,3.48,3.48,0,0,1,1.82,1.43C109.77,41.85,110.16,41.63,110,41.38Zm-2.75-.33h0l0-.15a.22.22,0,0,0-.23-.22.23.23,0,0,0-.22.21h0v0a.24.24,0,0,1,0,.08h0l0,0h0l-.08,0h0l0,0-.06-.06,0,0h0a.35.35,0,0,1,0-.08.41.41,0,0,1,0-.09l0,0h0a1.21,1.21,0,0,1,0-.18v-.1h0a.84.84,0,0,1,0-.17.21.21,0,0,0,0-.21,3.85,3.85,0,0,1,1,.06A2.11,2.11,0,0,1,107.26,41.05Z" style="fill:#1d1d1b"/><path d="M109.32,41.73l0-.3a.26.26,0,0,0-.1-.13.21.21,0,0,0-.17,0,.26.26,0,0,0-.14.1.81.81,0,0,0-.31,0,.54.54,0,0,0-.43.52.65.65,0,0,0,.22.47L104,42.22c-.29,0-.29.44,0,.45l4.43.14a.2.2,0,0,0,.21-.26l.16,0a.63.63,0,0,0,.39-.15.23.23,0,0,0,.06-.16.2.2,0,0,0,.11-.13A.54.54,0,0,0,109.32,41.73Zm-.44.38h-.14l-.06,0h0l0,0,0,0,0,0v0a.08.08,0,0,0,0,0v0h0v0h.19l0,0,0,0,0,0,0,.18Z" style="fill:#1d1d1b"/><path d="M108.9,42.1h0Z" style="fill:#1d1d1b"/><path d="M109.72,43.88a.23.23,0,0,0-.28-.16.24.24,0,0,0-.15.28,1.84,1.84,0,0,1-.36,1.38.69.69,0,0,0-.25-.6.64.64,0,0,0-.86.12.61.61,0,0,0-.16.45.59.59,0,0,0,.19.41.8.8,0,0,0,.44.17.22.22,0,0,0,.27.35A2.28,2.28,0,0,0,109.72,43.88Zm-1.41,1.23h.09a.08.08,0,0,1,0,0,.08.08,0,0,1,0,0,.25.25,0,0,1,0,.07v.08a0,0,0,0,1,0,0l-.36-.06v0a.06.06,0,0,1,0,0l0,0a.12.12,0,0,1,0-.05l0,0Z" style="fill:#1d1d1b"/><path d="M107.89,45.86l-1.68-.46a.23.23,0,0,0-.12.44l1.68.45A.22.22,0,0,0,107.89,45.86Z" style="fill:#1d1d1b"/><path d="M98.14,55a2.77,2.77,0,0,0-4,.43c-.16.23.22.46.39.22a2.26,2.26,0,0,1,2-.87.2.2,0,0,0,.12.1l.31.12a.77.77,0,0,0-.31.16h-.13a.54.54,0,0,0-.38-.21.22.22,0,0,0-.21.17.22.22,0,0,0,0,.08.31.31,0,0,0-.13.06l-.09,0a.22.22,0,0,0-.06-.19.23.23,0,0,0-.32,0l-.76.76a.23.23,0,1,0,.32.32l.36-.36.69.11a.49.49,0,0,0,.57-.08.36.36,0,0,0,.07-.1.22.22,0,0,0,.3-.14.05.05,0,0,1,0,0l.57,0a.24.24,0,0,0,.21-.28l.28.1A.22.22,0,0,0,98.14,55Z" style="fill:#1d1d1b"/><path d="M101.87,55.38a.24.24,0,0,0-.32,0,1.59,1.59,0,0,1-.13.13l0,0h0l-.07.05-.08,0,0,0h0a.23.23,0,0,0-.37-.11,1.15,1.15,0,0,1-.26.19l-.16,0a.21.21,0,0,0-.27.16v0a1.38,1.38,0,0,1-.85-.11.23.23,0,0,0-.31.08.23.23,0,0,0,.08.31,1.93,1.93,0,0,0,1.58,0,1.58,1.58,0,0,0,1.26-.5A.24.24,0,0,0,101.87,55.38Z" style="fill:#1d1d1b"/><path d="M103,51.82a.25.25,0,0,0-.23.23l-.4,3.35a.23.23,0,0,0,.23.22.22.22,0,0,0,.22-.22l.4-3.35A.22.22,0,0,0,103,51.82Z" style="fill:#1d1d1b"/><path d="M104.17,66.7l-.09-.1a.22.22,0,0,0,.07-.28l-1.64-3.23c-.13-.26-.52,0-.39.23.38.73.75,1.47,1.13,2.21a9.18,9.18,0,0,1-.57-1,.26.26,0,0,0,0-.11l-.31-.59a.2.2,0,0,0-.12-.1l-.45-.85c-.14-.26-.53,0-.39.22l1.53,2.91a.19.19,0,0,0,.23.1c.23.3.46.59.71.86S104.37,66.92,104.17,66.7Z" style="fill:#1d1d1b"/><path d="M106.31,67.08q-1.22-1.92-2.42-3.84c-.16-.24-.55,0-.39.23l.36.58a.14.14,0,0,0-.11,0,.24.24,0,0,0-.09.31l.46.92a.24.24,0,0,0,.31.08.25.25,0,0,0,.09-.3l1.4,2.23C106.07,67.55,106.46,67.33,106.31,67.08Z" style="fill:#1d1d1b"/><path d="M107.11,67.05a16.63,16.63,0,0,0-2.34-3.7c-.18-.22-.5.1-.32.32a16.17,16.17,0,0,1,2.28,3.61C106.85,67.54,107.23,67.31,107.11,67.05Z" style="fill:#1d1d1b"/><path d="M107.72,67.06l-1.53-3.37c-.12-.26-.5,0-.38.23l1.52,3.36C107.45,67.54,107.84,67.32,107.72,67.06Z" style="fill:#1d1d1b"/><path d="M108.62,68,107,64.25a.25.25,0,0,0-.28-.16.24.24,0,0,0-.16.28c.54,1.26,1.07,2.53,1.6,3.79a.25.25,0,0,0,.28.16A.23.23,0,0,0,108.62,68Z" style="fill:#1d1d1b"/><path d="M109.37,68l-1.53-3.36c-.12-.26-.51,0-.39.22L109,68.21C109.1,68.48,109.49,68.25,109.37,68Z" style="fill:#1d1d1b"/><path d="M110.32,68.13l-1.38-2.6c-.13-.26-.52,0-.38.22.45.87.91,1.74,1.37,2.6C110.07,68.61,110.45,68.38,110.32,68.13Z" style="fill:#1d1d1b"/><path d="M111.17,49.59c0-.29-.48-.29-.45,0,.22,1.73.43,3.46.64,5.19,0,.28.48.29.45,0C111.6,53.05,111.39,51.32,111.17,49.59Z" style="fill:#1d1d1b"/><path d="M111.46,55.55l-.07,2.23-2.18.29c-.12,0-.23.09-.23.22s.11.25.23.23l2.16-.29,0,1.15c0,.29.44.29.45,0l.12-3.83C111.92,55.27,111.47,55.27,111.46,55.55Z" style="fill:#1d1d1b"/><path d="M111,63.2l-.15,2.59c0,.29.43.29.45,0l.15-2.59C111.45,62.91,111,62.91,111,63.2Z" style="fill:#1d1d1b"/><path d="M113.74,75.66q-.93-4.18-1.88-8.36c-.06-.28-.49-.16-.43.12.63,2.78,1.25,5.57,1.88,8.36C113.37,76.06,113.81,75.94,113.74,75.66Z" style="fill:#1d1d1b"/><path d="M99.21,98.8a19.16,19.16,0,0,0-7.27-.48.25.25,0,0,0-.21.26c-1.84-.25-3.64.35-5.46.6l-.14,0V99c0-.29-.44-.29-.45,0v.28a4.92,4.92,0,0,1-4.07-1.15.19.19,0,0,0-.17-.06.18.18,0,0,0-.12-.1l-2.47-.85a1.23,1.23,0,0,1-.57-.25c-.12-.12-.22-.26-.33-.39-.24-.29-.5-.56-.77-.83a13.78,13.78,0,0,0-3.53-2.52c-.26-.13-.49.25-.23.38A13.55,13.55,0,0,1,77,96.1c.25.25.5.52.73.8a2.13,2.13,0,0,0,.33.4,3.06,3.06,0,0,0,.58.2l2.53.86h.06l0,0a5.37,5.37,0,0,0,4.38,1.28c0,1.28-.06,2.57-.1,3.85,0,.29.44.29.45,0l.1-3.9c2-.24,4-1,6-.55a.23.23,0,0,0,.23-.36,18.84,18.84,0,0,1,6.77.5A.22.22,0,0,0,99.21,98.8Z" style="fill:#1d1d1b"/><path d="M75.23,95.88a6,6,0,0,0-2.47-.52,2.07,2.07,0,0,1-1.1-.42,2,2,0,0,1-.45-1.47c0-1.3-.07-2.59-.1-3.89a9.31,9.31,0,0,1,0-1.75,3,3,0,0,1,.73-1.56c.74-.87,1.8-1.82,1.43-3.09a.22.22,0,0,0-.43.12c.36,1.22-.95,2.13-1.58,3a5.06,5.06,0,0,0-.64,3.29c0,1.33,0,2.65.1,4A2.67,2.67,0,0,0,71.13,95a1.79,1.79,0,0,0,1,.67c.94.3,2,.06,2.9.59C75.25,96.42,75.47,96,75.23,95.88Z" style="fill:#1d1d1b"/><path d="M70.18,83.25a5.34,5.34,0,0,1-2.1-1.54,4.52,4.52,0,0,1-.87-2.4,9.69,9.69,0,0,0-.3-2.74,7.37,7.37,0,0,0-.7-1.26A1.54,1.54,0,0,1,65.89,74c.1-.27-.34-.38-.44-.11-.3.82.29,1.56.7,2.22a5.34,5.34,0,0,1,.59,2.72,5.76,5.76,0,0,0,.57,2.55,4.81,4.81,0,0,0,1.63,1.78c.75.49,2.28.79,2.23,1.93,0,.29.43.29.45,0A2.07,2.07,0,0,0,70.18,83.25Z" style="fill:#1d1d1b"/><path d="M64.57,60c0-.28-.46-.29-.45,0l.59,12.69c0,.29.46.29.45,0Z" style="fill:#1d1d1b"/><path d="M65.39,49.29c0-.28-.48-.29-.45,0l.46,4.6a40.38,40.38,0,0,1-.84-7.35c0-.29-.46-.29-.45,0a40.82,40.82,0,0,0,1,8.31.21.21,0,0,0,.35.1c.1,1,.19,1.93.29,2.89,0,.29.48.29.45,0C66,55,65.67,52.14,65.39,49.29Z" style="fill:#1d1d1b"/><path d="M67.26,55.4c0-.28-.48-.29-.45,0l.9,8.26c0,.28.48.28.44,0Q67.72,59.52,67.26,55.4Z" style="fill:#1d1d1b"/><path d="M69.08,63.75a18.3,18.3,0,0,1-.45-5.9c0-.29-.43-.29-.45,0a19.07,19.07,0,0,0,.46,6C68.71,64.15,69.14,64,69.08,63.75Z" style="fill:#1d1d1b"/><path d="M69.62,60.22c-.05-.29-.48-.17-.43.12l1,5.81c0,.29.48.17.43-.12Z" style="fill:#1d1d1b"/><path d="M71.42,62.28c0-.29-.47-.29-.45,0,.12,1.83.25,3.67.37,5.5,0,.29.47.29.45,0C71.67,66,71.54,64.11,71.42,62.28Z" style="fill:#1d1d1b"/><path d="M72.92,64.51c0-.29-.48-.17-.44.12.31,2,.61,4.07.92,6.11,0,.29.47.17.43-.12C73.53,68.58,73.22,66.55,72.92,64.51Z" style="fill:#1d1d1b"/><path d="M74.83,67c0-.29-.46-.29-.45,0q.18,2.91.35,5.81c0,.29.47.29.45,0C75.06,70.89,75,69,74.83,67Z" style="fill:#1d1d1b"/><path d="M76.14,69.4c-.06-.29-.49-.17-.44.12A18.08,18.08,0,0,1,76,74.66c0,.28.42.28.45,0A18.56,18.56,0,0,0,76.14,69.4Z" style="fill:#1d1d1b"/><path d="M77.66,69.61c0-.28-.47-.29-.45,0l.3,3.82c0,.29.47.29.45,0Z" style="fill:#1d1d1b"/><path d="M79.17,74.05a.22.22,0,0,0-.22-.23.24.24,0,0,0-.23.23c.1,1,.21,2,.31,3a.23.23,0,0,0,.22.23.24.24,0,0,0,.23-.23C79.38,76.08,79.27,75.07,79.17,74.05Z" style="fill:#1d1d1b"/><path d="M81.16,70.86a4.28,4.28,0,0,0-.43,2.63.22.22,0,0,0,.27.16.24.24,0,0,0,.16-.28,3.86,3.86,0,0,1,.39-2.29C81.68,70.83,81.3,70.6,81.16,70.86Z" style="fill:#1d1d1b"/><path d="M82.6,69.31c0-.29-.47-.29-.45,0,0,.76.07,1.53.11,2.29,0,.29.47.29.45,0C82.67,70.84,82.63,70.07,82.6,69.31Z" style="fill:#1d1d1b"/><path d="M83.69,68a.22.22,0,0,0-.22.22l-.31,3.06a.22.22,0,0,0,.22.22.22.22,0,0,0,.23-.22l.31-3.06A.23.23,0,0,0,83.69,68Z" style="fill:#1d1d1b"/><path d="M84.61,67l0,3.36a.23.23,0,0,0,.45,0l0-3.36A.23.23,0,0,0,84.61,67Z" style="fill:#1d1d1b"/><path d="M86,67.25a.24.24,0,0,0-.23.22L85.6,69a.23.23,0,1,0,.45,0l.15-1.53A.22.22,0,0,0,86,67.25Z" style="fill:#1d1d1b"/><path d="M87.41,65.27a.23.23,0,0,0-.27.16c-.11.61-.21,1.22-.31,1.83a.24.24,0,0,0,.16.28.22.22,0,0,0,.27-.16l.31-1.83A.24.24,0,0,0,87.41,65.27Z" style="fill:#1d1d1b"/><path d="M89,63.39a6.27,6.27,0,0,0-.65,2.82.22.22,0,0,0,.44.06l.16-.42a.22.22,0,0,0-.12-.26,5.82,5.82,0,0,1,.56-2C89.51,63.36,89.12,63.13,89,63.39Z" style="fill:#1d1d1b"/><path d="M90.12,62a.22.22,0,1,0-.31,0,.12.12,0,0,0,0,.08l-.52,3.66a.24.24,0,0,0,.16.28.22.22,0,0,0,.27-.16l.52-3.66A.24.24,0,0,0,90.12,62Z" style="fill:#1d1d1b"/><path d="M91.27,61c-.41,1.58-.83,3.15-1.24,4.73a.22.22,0,0,0,.43.12c.42-1.58.83-3.15,1.24-4.73A.22.22,0,0,0,91.27,61Z" style="fill:#1d1d1b"/><path d="M91.71,61.21c-.16,1.27-.31,2.55-.46,3.82,0,.28.41.28.45,0,.15-1.27.3-2.55.46-3.82C92.19,60.92,91.74,60.92,91.71,61.21Z" style="fill:#1d1d1b"/><path d="M92.8,60.45l-.3,3c0,.29.42.29.45,0l.3-3C93.28,60.16,92.83,60.16,92.8,60.45Z" style="fill:#1d1d1b"/><path d="M94,58.77c-.2,1.73-.41,3.46-.62,5.19,0,.29.42.29.45,0,.21-1.73.41-3.46.62-5.19C94.52,58.48,94.07,58.48,94,58.77Z" style="fill:#1d1d1b"/><path d="M95.55,58.61c-.15,1.84-.3,3.67-.46,5.5,0,.29.43.29.45,0,.15-1.83.31-3.66.46-5.5C96,58.32,95.58,58.33,95.55,58.61Z" style="fill:#1d1d1b"/><path d="M97.21,59.37c0-.28-.47-.28-.45,0l.15,3.37c0,.28.46.29.45,0Z" style="fill:#1d1d1b"/><path d="M100.7,64.64a2.7,2.7,0,0,0-2-2c0-.67-.09-1.34-.13-2a.24.24,0,0,0-.23-.23.23.23,0,0,0-.22.23c0,.71.09,1.43.14,2.14a.19.19,0,0,0,0,.13.22.22,0,0,0,.14.13,2.26,2.26,0,0,1,1.83,1.76.23.23,0,0,0,.28.15A.21.21,0,0,0,100.7,64.64Z" style="fill:#1d1d1b"/><path d="M97.9,63.34c-.08-.07-.24-.1-.31,0l-1.07,1.38a.22.22,0,0,0,0,.32.23.23,0,0,0,.31,0l1.07-1.38A.22.22,0,0,0,97.9,63.34Z" style="fill:#1d1d1b"/><path d="M100.89,65.4a23.32,23.32,0,0,1-6,.8.23.23,0,0,0,0,.45,23.82,23.82,0,0,0,6.17-.82A.22.22,0,0,0,100.89,65.4Z" style="fill:#1d1d1b"/><path d="M103,69a5.87,5.87,0,0,1-1.06.54,2.43,2.43,0,0,0,1.36-1.69c0-.29-.38-.41-.43-.12-.27,1.39-1.81,1.81-3,1.8-1.43,0-2.88-.4-4.27.11-.27.1-.15.53.12.43,1.52-.56,3.12,0,4.69-.11L100,70a.25.25,0,0,0-.22.24H96.68a.23.23,0,0,0,0,.45l4.58,0a.23.23,0,0,0,0-.45h0a7.05,7.05,0,0,0,2-.85C103.46,69.22,103.24,68.83,103,69Z" style="fill:#1d1d1b"/><path d="M104.42,67.51c-.38.65-.75,1.31-1.12,2-.14.25.25.48.39.23l1.11-2A.22.22,0,0,0,104.42,67.51Z" style="fill:#1d1d1b"/><path d="M109.93,71.6c0-.29-.46-.29-.44,0,.06,1.43.12,2.85.19,4.28,0,.28.46.29.45,0C110.06,74.45,110,73,109.93,71.6Z" style="fill:#1d1d1b"/><path d="M110.52,70.47c-.06-.29-.49-.17-.44.12.31,1.53.61,3,.91,4.58.06.29.49.17.44-.12C111.12,73.52,110.82,72,110.52,70.47Z" style="fill:#1d1d1b"/><path d="M111.76,72.82c0-.29-.47-.29-.45,0l.15,2.29c0,.29.46.29.44,0Z" style="fill:#1d1d1b"/><path d="M109.16,74.66l-.15,2.9c0,.29.43.29.45,0l.15-2.9C109.63,74.37,109.18,74.37,109.16,74.66Z" style="fill:#1d1d1b"/><path d="M108.25,75.23a.23.23,0,0,0-.31.08,4,4,0,0,0-.38,1.77l-.08-.09a.22.22,0,0,0-.32,0,.23.23,0,0,0,0,.31l.52.62a.23.23,0,0,0,.38-.22,3.56,3.56,0,0,1,.27-2.16A.24.24,0,0,0,108.25,75.23Z" style="fill:#1d1d1b"/><path d="M106.66,76.27a.24.24,0,0,0-.23.23c0,.55-.09,1.1-.14,1.66a.21.21,0,0,0-.25,0,.22.22,0,0,0-.08.31l.31.42a.23.23,0,0,0,.42-.11c.06-.75.13-1.5.19-2.25A.23.23,0,0,0,106.66,76.27Z" style="fill:#1d1d1b"/><path d="M105.6,77.65a.24.24,0,0,0-.28.16l-.19.83-.35-1a.23.23,0,0,0-.43,0L104,79l.12-1.32a.23.23,0,0,0-.22-.23.24.24,0,0,0-.23.23l0,.51-.11-.43a.23.23,0,0,0-.44.06l0,.42a.25.25,0,0,0-.15,0,.25.25,0,0,0-.16.28,2,2,0,0,1-.52,1.78c-.21.21.11.53.31.32a2.39,2.39,0,0,0,.38-.52v0a.23.23,0,0,0,.44-.06l.07-.92.1.37a.23.23,0,0,0,.44-.06l0-.15a.22.22,0,0,0,.42,0l.22-.82.36,1a.22.22,0,0,0,.21.17.23.23,0,0,0,.22-.17c.12-.52.24-1,.37-1.57A.24.24,0,0,0,105.6,77.65Z" style="fill:#1d1d1b"/><path d="M102,78.72l-.42,2a.24.24,0,0,0-.34.25l.15.81a.22.22,0,0,0,.43,0l.61-3C102.45,78.56,102,78.44,102,78.72Z" style="fill:#1d1d1b"/><path d="M101.17,80.1a.22.22,0,0,0-.21.05.23.23,0,0,0,0-.29.22.22,0,0,0-.32,0,4.51,4.51,0,0,0-.92,1.76l-.09-.2a.24.24,0,0,0-.31-.08l0,0v-.08a.21.21,0,0,0-.15-.27.23.23,0,0,0-.21,0l0-.3c0-.22-.39-.21-.43,0l-.42,2h0a.22.22,0,0,0-.29,0l.37-1.48a.22.22,0,0,0-.43-.12l-.36,1.42a.23.23,0,0,0-.21,0,.17.17,0,0,0-.1.06l.18-.85a.22.22,0,1,0-.43-.12l-.31,1.43a.23.23,0,0,0-.21,0l.12-.82a.23.23,0,0,0-.16-.27.22.22,0,0,0-.28.16l-.4,2.75a.23.23,0,0,0,.16.28A.23.23,0,0,0,96,85l.11-.76q0,6.54-.07,13.09a.23.23,0,0,0,.45,0l.07-13.23a.22.22,0,0,0,.22-.16l.23-1,.12.85a.18.18,0,0,0,.11.14,97.77,97.77,0,0,1,.15,10.69c0,.29.44.29.45,0a98.67,98.67,0,0,0-.17-11,.21.21,0,0,0,0-.11l.09-.36,0,.06.3.27a.24.24,0,0,0,.38-.1l.24-1.19.07.43a.23.23,0,0,0,.43,0l.11-.82.35.81a.24.24,0,0,0,.25.1.25.25,0,0,0,.17-.22,4.1,4.1,0,0,1,.3-1.18l.14.44a.23.23,0,0,0,.44,0l.42-1.27A.21.21,0,0,0,101.17,80.1Zm-.28.15-.21.62a.28.28,0,0,0-.12-.14,3.91,3.91,0,0,1,.34-.49Z" style="fill:#1d1d1b"/><path d="M95.67,82.08a.23.23,0,0,0-.28.16c-.15.76-.31,1.53-.46,2.29a.24.24,0,0,0,.16.28.22.22,0,0,0,.27-.16c.16-.76.31-1.53.46-2.29A.23.23,0,0,0,95.67,82.08Z" style="fill:#1d1d1b"/><path d="M94.29,82.69a.25.25,0,0,0-.28.16l-.12.57a2,2,0,0,0-.71-.67.24.24,0,0,0-.31.08.24.24,0,0,0,.08.31,1,1,0,0,1,.17.1l0,0h0l.07.06a1.59,1.59,0,0,1,.13.13l.07.08h0l0,0a.86.86,0,0,1,.1.16l0,.08,0,0h0a2.11,2.11,0,0,1,.1.38.22.22,0,0,0,.21.16.23.23,0,0,0,.22-.16L94.45,83A.25.25,0,0,0,94.29,82.69Z" style="fill:#1d1d1b"/><path d="M98.65,87c0-.29-.46-.29-.45,0a78.6,78.6,0,0,0,.61,8.11c0,.28.49.28.45,0A78.6,78.6,0,0,1,98.65,87Z" style="fill:#1d1d1b"/><path d="M104.9,59.47a6.18,6.18,0,0,1-2.12-2.07s0,0,0,0a.24.24,0,0,0-.08-.3l-.34-.26c-.2-.14-.4.13-.31.31a6.77,6.77,0,0,0,2.58,2.75A.23.23,0,0,0,104.9,59.47Z" style="fill:#1d1d1b"/><path d="M103.43,60.64a4.33,4.33,0,0,1-.87-2.64c0-.29-.44-.29-.45,0a4.76,4.76,0,0,0,.93,2.87.23.23,0,0,0,.31.08A.23.23,0,0,0,103.43,60.64Z" style="fill:#1d1d1b"/><path d="M101.92,60.63a3.4,3.4,0,0,1-.31-2.42c.07-.28-.37-.4-.43-.12a3.92,3.92,0,0,0,.35,2.77C101.67,61.12,102.06,60.89,101.92,60.63Z" style="fill:#1d1d1b"/><path d="M100.56,59.77c-.1-.35-.2-.71-.31-1.07a.22.22,0,0,0-.43.12l.31,1.07a.22.22,0,0,0,.27.16A.24.24,0,0,0,100.56,59.77Z" style="fill:#1d1d1b"/><path d="M110.12,61.44l-.46,0-.13-1,.5-.07a.23.23,0,0,0,.16-.28.23.23,0,0,0-.27-.16l-.45.06,0-.17c0-.28-.49-.29-.45,0l0,.23-1.41.2c-.12,0-.18.17-.15.27a.22.22,0,0,0,.27.16l1.34-.18.13,1-.67,0,0-.25a.23.23,0,0,0-.28-.15.23.23,0,0,0-.16.27l0,.16-.27,0a.22.22,0,0,0,0,.44l.33,0c.07.52.15,1,.22,1.54a.22.22,0,1,0,.43-.12l-.2-1.45.66,0c.11.92.23,1.85.35,2.77,0,.28.48.29.45,0l-.36-2.8.41,0a.23.23,0,0,0,.23-.22A.23.23,0,0,0,110.12,61.44Z" style="fill:#1d1d1b"/><path d="M111.41,56.56a.23.23,0,0,0-.28-.15l-.91.3a.23.23,0,1,0,.12.44l.91-.31A.23.23,0,0,0,111.41,56.56Z" style="fill:#1d1d1b"/><path d="M62.36,72.7a8.44,8.44,0,0,1-.85-4.76.22.22,0,0,0-.28-.22.51.51,0,0,0-.37.43l0-7.09a.23.23,0,0,0-.45,0l0,8.86a.23.23,0,0,0,.45,0V68.3a.22.22,0,0,0,.16.15A8.89,8.89,0,0,0,62,72.92C62.1,73.18,62.49,73,62.36,72.7Z" style="fill:#1d1d1b"/><path d="M65.88,77.43l-2.26-3.84a.22.22,0,0,0-.39.22l2.26,3.85A.23.23,0,0,0,65.88,77.43Z" style="fill:#1d1d1b"/><path d="M59.81,69c-.3,1.83-.59,3.65-.89,5.48,0,.28.39.4.43.12.3-1.83.59-3.66.89-5.48C60.28,68.78,59.85,68.66,59.81,69Z" style="fill:#1d1d1b"/><path d="M69.36,87a16.07,16.07,0,0,1-5.6-6.17.22.22,0,0,0-.39,0,14.12,14.12,0,0,1-3.24-6.51c-.06-.28-.49-.16-.43.12A14.57,14.57,0,0,0,63.84,82a.24.24,0,0,0,.1,0,16.72,16.72,0,0,0,5.2,5.32C69.38,87.49,69.61,87.1,69.36,87Z" style="fill:#1d1d1b"/><path d="M58.39,73.68A59.48,59.48,0,0,0,54.78,82c-.1.27.34.39.43.12a59.21,59.21,0,0,1,3.56-8.17C58.91,73.65,58.52,73.42,58.39,73.68Z" style="fill:#1d1d1b"/><path d="M59.38,93.15a14.86,14.86,0,0,1-4.36-8,13.46,13.46,0,0,1-.23-2,.22.22,0,0,0,.2-.33l-.25-.42a.23.23,0,0,0-.42.12,14.9,14.9,0,0,0,.41,3.39.23.23,0,0,0-.23.16l-.31.86a5.77,5.77,0,0,1,.35-1.14.23.23,0,0,0-.09-.3.22.22,0,0,0-.3.08,6.26,6.26,0,0,0-.52,3,.22.22,0,0,0,.44.06l.38-1-.05,1.66c0,.28.44.28.45,0,0-.86,0-1.71.07-2.56a15.27,15.27,0,0,0,2.35,4.81,14.45,14.45,0,0,0,1.79,2C59.27,93.67,59.59,93.35,59.38,93.15Z" style="fill:#1d1d1b"/><path d="M77.09,102A79.73,79.73,0,0,1,62.83,94.6c-1.28-.83-2.53-1.71-3.75-2.61-.24-.17-.46.22-.23.39a80.46,80.46,0,0,0,14,8.28c1.37.63,2.76,1.23,4.16,1.78C77.24,102.55,77.35,102.12,77.09,102Z" style="fill:#1d1d1b"/><path d="M82.73,100c0-.29-.47-.16-.43.12l.6,3.82c0,.29.48.17.43-.12Z" style="fill:#1d1d1b"/><path d="M84.07,100v1.66a2.54,2.54,0,0,1-.17-1.76.22.22,0,0,0-.43-.11,3,3,0,0,0,.33,2.31.22.22,0,0,0,.34,0,.22.22,0,0,0,.38-.16v-2A.23.23,0,0,0,84.07,100Z" style="fill:#1d1d1b"/><path d="M88.94,104.09a7.84,7.84,0,0,0-3.79-.15c-.28.06-.16.49.12.43a7.34,7.34,0,0,1,2.84,0l-1.62,4.31c-.1.27.34.39.44.12l1.62-4.34.27.07A.22.22,0,0,0,88.94,104.09Z" style="fill:#1d1d1b"/><polygon points="81.47 103.47 81.47 103.47 81.47 103.47 81.47 103.47" style="fill:#1d1d1b"/><path d="M81.46,103.48h0Z" style="fill:#1d1d1b"/><path d="M81.47,103.49h0v0Z" style="fill:#1d1d1b"/><polygon points="81.47 103.51 81.47 103.51 81.47 103.51 81.47 103.51" style="fill:#1d1d1b"/><path d="M81.47,103.51h0Z" style="fill:#1d1d1b"/><path d="M85.78,109.77a1.8,1.8,0,0,0-1.4-.11.44.44,0,0,0-.33-.13h0a18.75,18.75,0,0,1-1.9-5.65,1,1,0,0,0,.19-.17l0,0v0a0,0,0,0,1,0,0h0a.24.24,0,0,0,0-.23l0,0,0,0h-.19l0,0,0,0v0s0,0,0,0l0,0h0l0,0a.42.42,0,0,0,0-.22.44.44,0,0,0-.36-.23.55.55,0,0,0-.55.45.48.48,0,0,0,.11.43.45.45,0,0,0,.23.14l.1,0h.29a19.11,19.11,0,0,0,2,5.78.05.05,0,0,0,0,0,.48.48,0,0,0,.19.54.18.18,0,0,0,.16,0c.1.17.2.35.31.52s.54,0,.39-.22-.17-.28-.25-.42a.38.38,0,0,0,.11-.24h.16a.49.49,0,0,1,.17,0H85l.08,0,0,0a.23.23,0,0,0,.27,0,1.27,1.27,0,0,1,.18.06.22.22,0,0,0,.3-.08A.23.23,0,0,0,85.78,109.77Z" style="fill:#1d1d1b"/><path d="M81.43,103.5Z" style="fill:#1d1d1b"/><polygon points="81.39 103.62 81.39 103.62 81.39 103.62 81.39 103.62 81.39 103.62" style="fill:#1d1d1b"/><path d="M81.47,103.54h0v0Z" style="fill:#1d1d1b"/><polygon points="81.47 103.48 81.47 103.48 81.47 103.48 81.47 103.48 81.47 103.48" style="fill:#1d1d1b"/><path d="M82,103.45s0,0,0,0Z" style="fill:#1d1d1b"/><path d="M81.45,103.6v0h0v0Z" style="fill:#1d1d1b"/><polygon points="81.47 103.48 81.47 103.48 81.47 103.48 81.47 103.48 81.47 103.48" style="fill:#1d1d1b"/><path d="M83.44,109.75a19.36,19.36,0,0,1-4.31-1.86c.25,0,.25-.45,0-.45l-.73,0a.23.23,0,0,0-.12.42,19,19,0,0,0,5.07,2.29A.22.22,0,0,0,83.44,109.75Z" style="fill:#1d1d1b"/><path d="M78.1,108.59q-.18,3.12-.38,6.26c0,.29.43.28.45,0q.19-3.13.38-6.26C78.57,108.3,78.12,108.3,78.1,108.59Z" style="fill:#1d1d1b"/><path d="M83.12,113.43c-.09-.28-.52-.16-.43.12a.82.82,0,0,1-.36.87,2,2,0,0,1-1.25.26,5.6,5.6,0,0,0-1.64.09.2.2,0,0,0-.35-.08l-.32.41a.23.23,0,0,0,.32.32,1.9,1.9,0,0,1,1.23-.32,10.3,10.3,0,0,0,1.47,0C82.56,115,83.39,114.28,83.12,113.43Z" style="fill:#1d1d1b"/><path d="M83.84,114.32a.21.21,0,0,0-.36,0,26.52,26.52,0,0,0-2,4.59c-.09.28.34.39.43.12a26.56,26.56,0,0,1,1.82-4.29h.07A.23.23,0,0,0,83.84,114.32Z" style="fill:#1d1d1b"/><path d="M88.43,119.38l-5.81.76c-.29,0-.29.49,0,.45l5.81-.76C88.71,119.8,88.71,119.35,88.43,119.38Z" style="fill:#1d1d1b"/><path d="M89,118l-2.12-4.44c-.12-.26-.51,0-.39.23q1.07,2.22,2.12,4.44C88.74,118.47,89.13,118.24,89,118Z" style="fill:#1d1d1b"/><path d="M92.44,115l-3.66-1.46a.2.2,0,0,0-.21-.26l-.42,0a.23.23,0,0,0-.06.44l4.23,1.7C92.59,115.51,92.71,115.08,92.44,115Z" style="fill:#1d1d1b"/><path d="M92.76,108.73a.24.24,0,0,0-.44-.1.21.21,0,0,0-.26-.16A47.2,47.2,0,0,0,87.28,110l2-5.14c.1-.27-.34-.39-.44-.12l-2.28,6c-.08.2.13.31.29.26,0,.56.09,1.12.13,1.69l-.17,0a.22.22,0,0,0-.28-.18l-.83.28a.27.27,0,0,0-.14.14h-.08a.23.23,0,0,0,.06.45l.06,0h0l.16,0,.12,0,1.4-.26a.22.22,0,0,0,.16-.22l-.07-.93a.18.18,0,0,0,0-.12l-.1-.87a.24.24,0,0,0-.23-.23h0l.13-.33a.17.17,0,0,0,.2,0,45.38,45.38,0,0,1,4.85-1.51.18.18,0,0,0,.13-.11c.16,1.92.31,3.83.47,5.75,0,.28.47.29.45,0Q93,111.64,92.76,108.73Z" style="fill:#1d1d1b"/><path d="M84.16,112.23l0,0,0,0h0v0l0,0L84,112l0-.06,0,0v0l0,0s0,0,0-.08l0-.14h0v-.11a.76.76,0,0,1,0-.15h0v0s0,0,0-.08a.23.23,0,0,0-.16-.28.23.23,0,0,0-.27.16,1.48,1.48,0,0,0,.4,1.43.22.22,0,0,0,.31,0A.23.23,0,0,0,84.16,112.23Z" style="fill:#1d1d1b"/><path d="M29.62,91.45a4,4,0,0,0-1.88-2.2c-.23-.17-.46.22-.23.38a3.87,3.87,0,0,1,1.64,1.78,1.32,1.32,0,0,1-.89,1.75c-.67.21-1.4.16-2.08.34a4.35,4.35,0,0,0-1.8,1,4.26,4.26,0,0,0-1.17,1.91c-1.76,1-3.5,2.1-5.28,3.1-1.49.84-3.32,1.64-5,.81a2.45,2.45,0,0,1-1.46-1.85c0-.28-.48-.28-.45,0a3.29,3.29,0,0,0,3.15,2.65c2,.15,3.8-1.11,5.42-2.07l2.86-1.68.71-.42c.23-.13.4-.19.47-.45a3.7,3.7,0,0,1,.54-1.09,3.84,3.84,0,0,1,2-1.45c.78-.23,1.62-.14,2.38-.44A1.74,1.74,0,0,0,29.62,91.45Z" style="fill:#1d1d1b"/><path d="M49.77,82c-.1-.26-.53-.15-.43.12a5.9,5.9,0,0,1,.57,2.6,2,2,0,0,1-1.14,1.71,2.22,2.22,0,0,1-2.1-.56,3.22,3.22,0,0,1-1.21-2.08A1.49,1.49,0,0,1,46.86,82c.29,0,.29-.43,0-.45a1.85,1.85,0,0,0-1.8,1.49,3.53,3.53,0,0,0,3.3,3.86,2.16,2.16,0,0,0,1.86-1.54A5.12,5.12,0,0,0,49.77,82Z" style="fill:#1d1d1b"/><path d="M149.44,100.18a14.17,14.17,0,0,0-5-3.65l-.31-.15c-.16-.33-.33-.64-.52-.95a.22.22,0,0,0-.38.23l.21.39c-1.89-.9-3.8-1.76-5.69-2.64l-14-6.5-7.92-3.68c-.26-.12-.49.27-.23.39l2.11,1-.29,0-2.44-1c-.27-.11-.38.33-.12.43l1.93.79-.16.1a1.38,1.38,0,0,0-.56,1.52,1.75,1.75,0,0,0,.58.69,2,2,0,0,1,.62,1,4.88,4.88,0,0,0,.87,1.77,6.05,6.05,0,0,0,3.77,1.93,18.67,18.67,0,0,0,2.47.19,2.86,2.86,0,0,0,1.8-.32,1.14,1.14,0,0,0,.24-1.49c-.24-.47-.85-1-.71-1.6.07-.28-.37-.4-.43-.12a1.61,1.61,0,0,0,.31,1.25c.22.34.61.76.56,1.19s-.79.64-1.24.65c-.7,0-1.41,0-2.11-.09A6.79,6.79,0,0,1,119,90.19a3.84,3.84,0,0,1-1.08-1.38,5.86,5.86,0,0,0-.7-1.67c-.21-.25-.54-.41-.71-.7a.79.79,0,0,1,.13-.91,1.24,1.24,0,0,1,.7-.43l1.79.73c.27.11.39-.33.12-.44l-.8-.32.31,0,7.53,3.49a.22.22,0,0,0-.1.41l10.16,5.36c.26.13.49-.26.23-.39l-9.61-5.07,2.56,1.19c4.6,2.13,9.21,4.25,13.8,6.4l.44.2a10.77,10.77,0,0,1,.81,2.4c.17.83.17,2-.7,2.44-.26.12,0,.51.22.38a2.4,2.4,0,0,0,1-2.65c0-.15-.05-.31-.08-.46a9.27,9.27,0,0,0,2.56,1.12.23.23,0,0,0,.12-.44,8.61,8.61,0,0,1-2-.78l1.3-.2a10.45,10.45,0,0,1,2.16,2C149.3,100.72,149.62,100.4,149.44,100.18Zm-4.5-1.82a.16.16,0,0,0-.08,0,9.93,9.93,0,0,0-.48-1.39,21,21,0,0,1,2,1.12Z" style="fill:#1d1d1b"/><path d="M132.37,96.36a36.66,36.66,0,0,1-4.12-1.2c.38-1.26.76-2.53,1.15-3.8.08-.27-.35-.39-.44-.12l-1.2,4a.22.22,0,0,0,.15.27,34.74,34.74,0,0,0,4.34,1.27C132.53,96.85,132.65,96.42,132.37,96.36Z" style="fill:#1d1d1b"/><path d="M138.5,99.06a8.73,8.73,0,0,0-5.15-3.32.23.23,0,0,0-.25.33l.88,1.75c.13.25.52,0,.39-.23l-.65-1.29a8.18,8.18,0,0,1,4.39,3C138.28,99.52,138.67,99.3,138.5,99.06Z" style="fill:#1d1d1b"/><path d="M5.42,101.38a8.93,8.93,0,0,0-5.2,6.21A8.51,8.51,0,0,0,0,110c0,.29.47.29.45,0a8.5,8.5,0,0,1,5.08-8.14C5.8,101.7,5.69,101.27,5.42,101.38Z" style="fill:#1d1d1b"/><path d="M15.94,109.71c-1-1.26-2.65-1.57-4.14-1.78s-3.26-.45-4.16-1.79c-.16-.24-.55,0-.39.23.89,1.33,2.53,1.72,4,1.94s3.33.39,4.35,1.72C15.8,110.26,16.11,109.94,15.94,109.71Z" style="fill:#1d1d1b"/><path d="M56.1,149.12a1.85,1.85,0,0,0-1.35,1.27,1.81,1.81,0,0,0,.15,1.31.18.18,0,0,0-.17,0,2.35,2.35,0,0,0-.56,3.49c.19.22.51-.1.32-.31a1.9,1.9,0,0,1,.47-2.79.23.23,0,0,0,.1-.16,2.26,2.26,0,0,0,.25.28c.22.19.54-.13.32-.32a1.38,1.38,0,0,1-.45-1.4,1.41,1.41,0,0,1,1-1C56.51,149.49,56.39,149.06,56.1,149.12Z" style="fill:#1d1d1b"/><path d="M56.72,152.68a2.08,2.08,0,0,0-1.51,2.42c.06.29.49.17.43-.12a1.63,1.63,0,0,1,1.2-1.87A.22.22,0,0,0,56.72,152.68Z" style="fill:#1d1d1b"/><path d="M55.81,159.37a2.7,2.7,0,0,1-.32-3.53c.17-.24-.22-.46-.39-.23a3.15,3.15,0,0,0,.4,4.08C55.71,159.88,56,159.57,55.81,159.37Z" style="fill:#1d1d1b"/><path d="M57,158.81a.23.23,0,0,0-.27-.16l-.92.15a.23.23,0,0,0-.16.28.24.24,0,0,0,.28.16l.92-.16A.22.22,0,0,0,57,158.81Z" style="fill:#1d1d1b"/><path d="M54.36,159a5.87,5.87,0,0,0-2,4c0,.29.42.29.45,0a5.39,5.39,0,0,1,1.84-3.63C54.89,159.17,54.58,158.85,54.36,159Z" style="fill:#1d1d1b"/><path d="M20.56,132.73c-.13-.26-.52,0-.38.23a1,1,0,0,1-.5,1.24,1.11,1.11,0,0,1-1.39-.37,1.66,1.66,0,0,1-.23-1.61,2.72,2.72,0,0,1,1.21-1.32c.22-.12.08-.42-.12-.42a4.13,4.13,0,0,0,.11-.92c0-.29-.44-.29-.45,0a2.74,2.74,0,0,1-.16,1.06.81.81,0,0,1-.68.51c-.55,0-.69-.73-.68-1.15a3.52,3.52,0,0,1,2-2.85.22.22,0,0,0-.1-.41,2.77,2.77,0,0,0,.47-1.63c0-.29-.46-.29-.45,0a2.36,2.36,0,0,1-.39,1.41,1.34,1.34,0,0,1-1.13.7.89.89,0,0,1-.68-.7,1.37,1.37,0,0,1,.19-1.13,4.45,4.45,0,0,1,1.14-1.15.17.17,0,0,0,0-.25,7.13,7.13,0,0,0,1.87-3c.09-.27-.35-.39-.43-.11A6.7,6.7,0,0,1,17.69,124a3.47,3.47,0,0,1,1-3.59c.19-.17,0-.45-.26-.36a5.1,5.1,0,0,0,.7-1.93c0-.28-.39-.4-.43-.12a5,5,0,0,1-.86,2.14,3.49,3.49,0,0,1-1.06-2.38,1.61,1.61,0,0,1,1.53-1.58c.29,0,.29-.43,0-.45l-.35,0a1.74,1.74,0,0,0,.75-.5,2.25,2.25,0,0,0,.51-1.49.23.23,0,0,0-.45,0,1.57,1.57,0,0,1-1.08,1.62,1,1,0,0,1-1.32-.85.86.86,0,0,1,.39-.8c.26-.14,0-.53-.22-.39a1.37,1.37,0,0,0-.21,2.12,1.55,1.55,0,0,0,1.41.35,2.19,2.19,0,0,0-1.39,1.76,4,4,0,0,0,1.35,3.09.2.2,0,0,0,.13.06,4,4,0,0,0-.41,3.75,2.19,2.19,0,0,0-.8,2.15,1.4,1.4,0,0,0,.93,1,1.14,1.14,0,0,0,.37,0,3.93,3.93,0,0,0-1,1.86,2.13,2.13,0,0,0,.19,1.55,1.06,1.06,0,0,0,.8.52,2.17,2.17,0,0,0-.29,1.93,1.9,1.9,0,0,0,1.12,1.18,1.41,1.41,0,0,0,1.49-.34A1.35,1.35,0,0,0,20.56,132.73Z" style="fill:#1d1d1b"/><path d="M57.6,163.92a96.48,96.48,0,0,1-10.29,14.54c-.09.1-.18.19-.26.29.36-.55.71-1.11,1-1.68,1.79-3.06,3.33-6.26,5.32-9.2a53.79,53.79,0,0,1,4.09-5.3c.19-.22-.13-.54-.32-.32a54.58,54.58,0,0,0-6.6,9.37,72.51,72.51,0,0,1-5.11,8.63,17.2,17.2,0,0,1-4,3.88c-.24.16,0,.55.23.39A16.32,16.32,0,0,0,44,182.58a.17.17,0,0,0,.21-.05,97.38,97.38,0,0,0,11.12-14.08q1.38-2.12,2.64-4.31C58.14,163.89,57.75,163.67,57.6,163.92Z" style="fill:#1d1d1b"/><path d="M58.24,165.28A56.26,56.26,0,0,1,54.09,174a56.09,56.09,0,0,1-5.55,7.87c-1.17,1.39-2.42,2.72-3.72,4-.21.2.11.52.32.31a58,58,0,0,0,6.36-7.37,57.45,57.45,0,0,0,5-8.39c.8-1.64,1.51-3.32,2.15-5C58.77,165.13,58.34,165,58.24,165.28Z" style="fill:#1d1d1b"/><path d="M60.09,177.11c-.12-2-.28-4-.44-6.05l0,0a.19.19,0,0,0,0-.27c-.29-3.53-.6-7.06-.89-10.59q-.69-8.7-1.4-17.39L55.93,125.3q-.69-8.68-1.4-17.38c-.05-.74-.11-1.47-.17-2.2,0-.28-.48-.29-.45,0L55.3,123l1.05,13a.22.22,0,0,0-.28.08,54.58,54.58,0,0,0-3.26,6,1.13,1.13,0,0,0-.12-.21,1.15,1.15,0,0,0-1.2-.46,1.58,1.58,0,0,0-1.08.95,2.18,2.18,0,0,0,.1,1.66,4.85,4.85,0,0,0,1.09,1.46c-.84,2.94-1.55,5.91-2.15,8.91a1.28,1.28,0,0,0-1.23.21A2.89,2.89,0,0,0,48,158c-.45,2.54-.91,5.07-1.36,7.61a.23.23,0,0,0-.12.06,24.5,24.5,0,0,1-6.24,4.5c-2.1,1-4.83,1.86-7,.64-1.94-1.08-2.68-3.34-3.09-5.39-.25-1.23-.41-2.48-.59-3.73-.22-1.44-.43-2.88-.64-4.32-.85-5.79-1.64-11.59-2.32-17.41s-1.25-11.62-1.64-17.45-.61-11.63-.59-17.44c0-.72,0-1.44,0-2.15a.23.23,0,0,0-.45,0c-.08,6,.1,12,.47,18s.92,11.92,1.6,17.86,1.48,11.83,2.33,17.73c.41,2.84.77,5.69,1.28,8.51.36,2,1,4.29,2.62,5.66,1.88,1.56,4.43,1.38,6.6.61a21.61,21.61,0,0,0,6.55-4c.38-.33.75-.67,1.12-1L46,169.16a.19.19,0,0,0-.19,0,25.1,25.1,0,0,1-6.39,3.94,8.76,8.76,0,0,1-7-.11,9.24,9.24,0,0,1-4.08-5,36,36,0,0,1-1.56-7.7q-1.15-8.16-2.06-16.37T23.1,127.5Q22.44,119.28,22,111c0-.68-.06-1.36-.1-2,0-.29-.46-.29-.45,0l0,.57a.28.28,0,0,0-.08-.11,44.28,44.28,0,0,0,0-6.91c1.32-.6,2.65-1.19,4-1.75,1.76-.72,3.54-1.41,5.32-2.06-.88.49-1.76,1-2.66,1.43s-1.84.91-2.77,1.34c-.22.1-.07.39.12.42l2.62.31c.29,0,.29-.42,0-.45l-1.84-.22c2.34-1.11,4.63-2.32,6.85-3.65l.11,0A12.14,12.14,0,0,0,32,99.51a29.71,29.71,0,0,1-3.28,1.54c-.26.1-.15.54.12.43.95-.38,1.87-.8,2.78-1.26-.09.18-.18.36-.26.55s.18.48.36.27a15.07,15.07,0,0,1,2.2-2.1,6.63,6.63,0,0,1-.51,1.56.22.22,0,0,0,.39.22L35,99.13c.17-.25.34-.52.53-.76.07-.08.18-.21.29-.23s.3,0,.21.17a.22.22,0,0,0,.39.22A4.66,4.66,0,0,1,40,95.9a.24.24,0,0,0,.19-.34A32.46,32.46,0,0,0,48,92c.4-.26.78-.54,1.15-.83l.39-.09a.2.2,0,0,0,.12-.33,15.67,15.67,0,0,0,2.22-2.24A9.94,9.94,0,0,0,54,84.29a5.06,5.06,0,0,0-.68-4.08,4.54,4.54,0,0,0-4.38-1.39,19.75,19.75,0,0,0-2.64.59c-.91.25-1.83.5-2.73.77-1.85.55-3.69,1.15-5.5,1.79q-5.44,1.92-10.67,4.36T17.19,91.72q-5,2.94-9.59,6.36c-.75.56-1.5,1.12-2.24,1.69-.22.18.1.5.32.32l0,0,0,.08c1.23,1.76,2.43,3.55,3.69,5.28a2.91,2.91,0,0,0,2,1.38,4.94,4.94,0,0,0,2.66-.73c.84-.43,1.69-.86,2.54-1.27V109a.23.23,0,0,0,.45,0v-.57h0v-3a.16.16,0,0,0,.09-.19l-.08-.66,1.68-.81v5.18a4.2,4.2,0,0,0-.5.17,4.62,4.62,0,0,0-1.69,1.18.23.23,0,0,0,0,.27,1.37,1.37,0,1,0,.91,2.58,1.47,1.47,0,0,0,.77-.68.24.24,0,0,0,.27-.28.8.8,0,0,1,.38-.71,3.18,3.18,0,0,1,.88-.4A1.68,1.68,0,0,0,21,109.94c.07.12.27.18.36.06l.15-.19s0,0,0-.06c0,.88.09,1.76.14,2.64,0-.1-.07-.21-.12-.31a1.39,1.39,0,0,0-1.35-.88,1,1,0,0,0-1,1c0,.29.49.29.45,0a.61.61,0,0,1,.73-.61c.45.07.72.56.84,1a3,3,0,0,1-.42,2.43,1.24,1.24,0,0,0-.27,0,.22.22,0,0,0,0,.44h0c-.2.21.12.53.32.32l.15-.19a1.08,1.08,0,0,1,.6.93,1.11,1.11,0,0,1-1,1.06c-.28,0-.29.46,0,.45a1.6,1.6,0,0,0,1.37-.94c.11,1.82.23,3.63.35,5.44a2.07,2.07,0,0,0-.73-.85,2.85,2.85,0,0,0-.27-3.69c-.21-.19-.53.12-.32.32a2.41,2.41,0,0,1,.19,3.16l-.22-.08a.23.23,0,0,0-.14.43l-.15.11c-.24.15,0,.54.23.39a2.79,2.79,0,0,0,.38-.3,1.61,1.61,0,0,1,.78,1.24,1.67,1.67,0,0,1-1,1.6c-.26.12,0,.5.23.39a2.08,2.08,0,0,0,1.12-1.29c.05.64.09,1.28.14,1.92.09,1.18.19,2.35.29,3.53a1.74,1.74,0,0,0-.87-.86l-.19-.07a1.87,1.87,0,0,0,.6-1.17,1.85,1.85,0,0,0-1-1.77c-.25-.13-.48.26-.22.39a1.35,1.35,0,0,1-.06,2.46,1.06,1.06,0,0,0-.31,0,.22.22,0,0,0,.12.43h0a.21.21,0,0,0,.14,0l.11,0a1.25,1.25,0,0,1,.54,2.42h0a.21.21,0,0,0-.24.1.23.23,0,0,0,.2.4l0,0a1.48,1.48,0,0,1,.79,1.53,4.08,4.08,0,0,1-1.29,2.2c-.19.22.13.54.32.32A4.39,4.39,0,0,0,23,133.13a2,2,0,0,0-.76-1.67,1.85,1.85,0,0,0,.71-1q.24,2.84.51,5.66a2.12,2.12,0,0,0-1-.64c-.27-.09-.39.35-.12.43a1.55,1.55,0,0,1,.24,2.88c-.26.14,0,.52.22.39a2.82,2.82,0,0,0,.29-.18,1.7,1.7,0,0,1-.13,2.9l-.17-.08c-.25-.09-.37.29-.16.41v0a.24.24,0,0,0,.28.16l.05,0a1.82,1.82,0,0,1,.87,1.25,1.76,1.76,0,0,1-.26,1.2l-.23-.14c-.26-.13-.48.25-.23.39a.75.75,0,0,1,.17.1,1.24,1.24,0,0,1-.18.14c-.23.16,0,.55.23.39a2.55,2.55,0,0,0,.3-.26,2.1,2.1,0,0,1,.65,1.73,2.16,2.16,0,0,1-1.61,1.79c-.28.06-.16.5.12.43a2.63,2.63,0,0,0,1.86-1.81l.06.54a.23.23,0,0,0-.28.09l-.29.42c-.17.24.22.46.38.22l.06-.07a3.21,3.21,0,0,1-.67,3.36c-.2.2.12.52.32.31a3.65,3.65,0,0,0,.31-.36,2.71,2.71,0,0,1,.81,2.05,2.54,2.54,0,0,1-.43,1.28,3.47,3.47,0,0,0-.29-.25c-.23-.17-.46.22-.23.39a1.71,1.71,0,0,1,.25.22,2.6,2.6,0,0,1-.43.38c-.23.16,0,.55.23.39a4,4,0,0,0,.48-.43,2.47,2.47,0,0,1-.5,3.32c-.23.18,0,.57.22.39a2.85,2.85,0,0,0,.44-.41,2.35,2.35,0,0,1,.05,2.94,1.45,1.45,0,0,0-.28,0,.22.22,0,0,0-.11.41s0,0,0,0c-.24.15,0,.54.22.38a2.2,2.2,0,0,0,.37-.3,1.94,1.94,0,0,1,.1,3.73c-.28.09-.16.53.11.43a2.44,2.44,0,0,0,1.57-1.62c.15.66.31,1.31.52,1.95a10.76,10.76,0,0,0,3.59,5.48A8.28,8.28,0,0,0,37.85,174a17.59,17.59,0,0,0,6.62-3.32c.47-.34.93-.69,1.39-1l-.29,1.66c0,.28.38.4.43.12l.28-1.57a.9.9,0,0,0,.07.27,1.64,1.64,0,0,0,1.78.91.36.36,0,0,0,0,.09,1.47,1.47,0,0,1-.34,1.89,6.79,6.79,0,0,1-1.92,1.19,1.7,1.7,0,0,1-2.12-.16.74.74,0,0,1-.09-.89,1.54,1.54,0,0,1,.8-.52c.92-.34,1.89-.6,2.83-.89.27-.09.15-.52-.12-.44l-1.69.53a13.16,13.16,0,0,0-1.42.48,1.29,1.29,0,0,0-.78,1.84,1.48,1.48,0,0,0,.39.43,3.07,3.07,0,0,1-1.57.22,2.51,2.51,0,0,0-1.35.31,1.3,1.3,0,0,0-.68,1,.92.92,0,0,0,.08.43c-.77-.19-1.7-.23-2.1.58a1,1,0,0,0-.09.7,4.91,4.91,0,0,0-3.29-.38.22.22,0,0,0-.09.37,10.41,10.41,0,0,0,5,3.42,2.89,2.89,0,0,0,1.2.2c.6-.08,1.13-.84.6-1.34-.2-.2-.52.11-.31.31s-.13.56-.38.59a2.42,2.42,0,0,1-1-.19,9.91,9.91,0,0,1-4.53-3,4.46,4.46,0,0,1,2.81.53.21.21,0,0,0,.24,0,2.46,2.46,0,0,0,.88.67,7.7,7.7,0,0,0,3.21.6c.82,0,1.94-.05,2.43-.83a1.21,1.21,0,0,0-.08-1.28,2.42,2.42,0,0,0,2.13-1.32,1.17,1.17,0,0,0-.36-1.37,1.07,1.07,0,0,0-.32-.16c.29-.13.57-.29.85-.44a5.11,5.11,0,0,0,1.12-.78,2,2,0,0,0,.47-2.39,6.8,6.8,0,0,0,1.18-.3,2.36,2.36,0,0,0,1.12-.73,1.24,1.24,0,0,0-.35-1.83l.13-.32a3.82,3.82,0,0,0,1.66-1.17,2.62,2.62,0,0,0,.52-2.34.22.22,0,0,0-.43.12,2.26,2.26,0,0,1-.65,2.18,4.34,4.34,0,0,1-2.26,1.1l-.12,0a4,4,0,0,0-1.68.1.15.15,0,0,1,0-.06c.06-.19.32-.4.45-.54l2.09-2.39c.19-.21-.13-.53-.32-.32l-2,2.32c-.24.27-.7.64-.68,1,0,.06,0,.1,0,.15l-.09.05a2.21,2.21,0,0,0-.73.84l1.89-10.59a1.17,1.17,0,0,0,1.54-.4,2.54,2.54,0,0,0,0-2.35.21.21,0,0,0-.15-.14l.09-.48a.17.17,0,0,0,0-.12c.6-3.06,1.33-6.08,2.18-9.08h0a1.48,1.48,0,0,0,.69-1.26.23.23,0,0,0-.38-.16l.43-1h0a.15.15,0,0,0,.09,0,.12.12,0,0,0,.07-.05.18.18,0,0,0,.05-.07.19.19,0,0,0,0-.08v-.06A.21.21,0,0,0,53,143l0,0a52.45,52.45,0,0,1,3.44-6.45c.1,1.27.2,2.55.31,3.82l.1,1.33a.21.21,0,0,0-.39,0,65.52,65.52,0,0,0-4.49,10.74c-.29.88-.54,1.77-.79,2.67a.17.17,0,0,0-.06.11l0,.25a1.85,1.85,0,0,0-.14.14,1.47,1.47,0,0,0-.16,1.32,2.12,2.12,0,0,0,.72,1,5.53,5.53,0,0,0-2.28,3.78.23.23,0,0,0,.2.22l-.6,2.3a.82.82,0,0,0-.11.56c0,.23.38.2.43,0l.1-.38.09-.06a.2.2,0,0,0,.1-.2c.38,0,.76,0,1.14,0l.05.07a.23.23,0,0,0,.37-.09,13.15,13.15,0,0,0,2.87-.4,1.79,1.79,0,0,0,1.32-.91,1,1,0,0,0-.17-1.05,3.66,3.66,0,0,0,1.85-1.16.22.22,0,0,0,0-.31.21.21,0,0,0-.31,0,3.36,3.36,0,0,1-2.15,1.14.22.22,0,0,0-.22.22.23.23,0,0,0,.22.23h.07a.22.22,0,0,0,.11.13c.44.22.18.79-.13,1a3.91,3.91,0,0,1-1.5.46,13.32,13.32,0,0,1-2.17.23,1,1,0,0,1-.17-.59.21.21,0,0,0,.17-.1c.16-.27.3-.55.46-.82a1.1,1.1,0,0,1,.87.05c.25.14.48-.25.23-.39a1.52,1.52,0,0,0-.81-.17c.55-1,1.09-2,1.59-3l.21.06a.22.22,0,0,0,.12-.43l-.13,0c.2-.4.38-.81.57-1.21a.24.24,0,0,0,.19-.39v0c.1-.22.21-.45.3-.68s-.27-.49-.38-.22-.15.31-.22.47a3.46,3.46,0,0,1-.44-2.29c0-.29-.38-.41-.43-.12a4,4,0,0,0,.65,2.9c-.21.48-.43,1-.66,1.43a2.57,2.57,0,0,1-1.54-1,1.27,1.27,0,0,1-.15-1,.57.57,0,0,1,.08-.13.21.21,0,0,0,.2-.16v-.06a.88.88,0,0,1,.32-.12.59.59,0,0,1,.69.29c.13.25.52,0,.39-.23a1,1,0,0,0-1.25-.48,65.61,65.61,0,0,1,3.76-10.29c.46-1,.94-2,1.46-3a.13.13,0,0,0,0-.06q.64,7.92,1.28,15.84c.25,3.07.49,6.14.74,9.21a.2.2,0,0,0-.2.1,27.4,27.4,0,0,0-3.58,7.55h0a4.09,4.09,0,0,0-.56,5.7,16.38,16.38,0,0,0-1.39,4.44c0,.28.38.4.43.12s.11-.61.18-.91A.23.23,0,0,0,54,184h0s0,0,0,.06l-2.08,6.28c-.09.28.34.4.43.12l2.08-6.28a.2.2,0,0,0-.19-.27,5.75,5.75,0,0,1,1.81-.46l0,.19a.15.15,0,0,0-.1.09,6.47,6.47,0,0,0-.7,2.39,6.83,6.83,0,0,0,0,1.28c.05.44.22.87.23,1.31,0,.66-.53,1.08-1,1.49a2.06,2.06,0,0,0-.8,1.4c0,.29.44.29.45,0,0-.57.53-.95.91-1.3a2.26,2.26,0,0,0,.86-1.4,4.77,4.77,0,0,0-.19-1.23,5.67,5.67,0,0,1,.4-3.35.19.19,0,0,0,.22-.16l.16-.73h.3c.29,0,.29-.44,0-.45h-.2l.55-2.48c.06-.28-.37-.4-.44-.12L56.13,183a6.46,6.46,0,0,0-2.36.63s0,0,0,0a14.68,14.68,0,0,1,.89-2.67h.09l2.14-.77a.22.22,0,0,0,.15-.27.23.23,0,0,0-.16-.16,3.93,3.93,0,0,0,1.1-4.42,12.94,12.94,0,0,1,1.29-3.52c.08,1,.17,2.06.25,3.09.37,4.61.72,9.66-1.45,13.91a13.84,13.84,0,0,1-.92,1.51c-.16.23.23.46.39.22C60.23,186.64,60.36,181.68,60.09,177.11ZM34,98.31l-.13.1-1,.64a11.09,11.09,0,0,1,1.19-1.47h0A6.1,6.1,0,0,1,34,98.31Zm.36.82,0,.06c0-.2.08-.41.1-.61l.59-.39C34.81,98.48,34.61,98.82,34.4,99.13Zm1.84-1.3-.09-.06a.57.57,0,0,0-.44-.07c.1-.18-.08-.44-.3-.31s-.6.38-.9.58a5,5,0,0,0,0-.55c.86-.29,1.72-.58,2.58-.85l.46-.15A5.18,5.18,0,0,0,36.24,97.83ZM20.45,110.08c-.3.51-1,.6-1.45.83a1.51,1.51,0,0,0-.86,1A.17.17,0,0,0,18,112a1,1,0,0,1-1.3.68.94.94,0,0,1-.35-1.41,1,1,0,0,1,.89-.36.23.23,0,0,0,.22-.23.22.22,0,0,0-.22-.22.65.65,0,0,0-.14,0,3.9,3.9,0,0,1,2.77-1.24.88.88,0,0,1,.61.2A.53.53,0,0,1,20.45,110.08Zm.53-.56a1,1,0,0,0-.93-.71,3,3,0,0,0-.79,0v-5.3l1.74-.79A46.36,46.36,0,0,1,21,109.52ZM21.4,102c0-.28-.48-.28-.45,0,0,.08,0,.16,0,.24-1.24.56-2.47,1.13-3.68,1.72-.91.44-1.8.89-2.7,1.35a7,7,0,0,1-2.71,1A2.46,2.46,0,0,1,9.7,105c-.6-.85-1.19-1.7-1.78-2.56s-1.19-1.69-1.78-2.54A.21.21,0,0,0,6,99.83q4.27-3.28,8.84-6.16,4.72-3,9.73-5.49t10.24-4.55q5.22-2,10.6-3.53a13.77,13.77,0,0,1,5.18-.87,3.43,3.43,0,0,1,2.13,1,3.53,3.53,0,0,1,.85,1.82,6.78,6.78,0,0,1-.83,4.22,14,14,0,0,1-3.21,3.92c-.21.18-.43.34-.65.51l-2.42.51c-.29.06-.17.5.12.44l1.44-.31a32.14,32.14,0,0,1-8.38,3.89c-1.62.53-3.25,1-4.88,1.58l.19-.12c.87-.55,1.72-1.12,2.56-1.7a.24.24,0,0,0,.07-.3C40.7,93.5,43.8,92.28,46.88,91a7.44,7.44,0,0,0,3.5-2.36,4.88,4.88,0,0,0,.71-2.26,5.45,5.45,0,0,1,.58-2.32,1.72,1.72,0,0,1,.8-.71c.1,0,.21-.16.16-.28a4.19,4.19,0,0,0-2.84-2.34,7.29,7.29,0,0,0-4.47.38c-1.67.61-3.26,1.44-4.9,2.12s-3.34,1.34-5,2c-3.41,1.28-6.85,2.48-10.22,3.84a69.35,69.35,0,0,0-8.82,4.23A38.39,38.39,0,0,0,8.65,99c-.18.17-.35.35-.53.53a2.14,2.14,0,0,0-.65-.3c-.28-.09-.39.35-.12.43a2.11,2.11,0,0,1,.46.19c-.18.21.13.52.32.31l0,0A11.22,11.22,0,0,1,9.83,103a3.7,3.7,0,0,0,1.4,1.48,2.49,2.49,0,0,0,2.21-.08c3.72-1.48,7.43-3,11.15-4.47l11.17-4.47.77-.31c-1.19.81-2.4,1.59-3.63,2.33-1.54.54-3.08,1.09-4.6,1.68-2.33.9-4.62,1.87-6.9,2.89ZM31.71,90.79A5,5,0,0,0,36.34,92a4.49,4.49,0,0,0,2.09-1.12,20.27,20.27,0,0,0,1.47-2.1,2,2,0,0,1,1-.74c.54-.13,1.1,0,1.64-.16a1.3,1.3,0,0,0,.9-.74,1,1,0,0,0-.28-1.08c-.88-.86-2-.15-3,0a4.12,4.12,0,0,1-3.26-.87c-.22-.18-.54.13-.32.31a4.64,4.64,0,0,0,2.32,1,5,5,0,0,0,1.22,0,10.32,10.32,0,0,0,1.35-.36,1.49,1.49,0,0,1,1.33.12.58.58,0,0,1,0,1,2.38,2.38,0,0,1-1.34.26,2.35,2.35,0,0,0-1.22.3,4.54,4.54,0,0,0-1.38,1.69,4.22,4.22,0,0,1-1.5,1.58,4.61,4.61,0,0,1-4.26.12,3.41,3.41,0,0,1-1.82-2,1.58,1.58,0,0,1,1.3-2c.29,0,.29-.46,0-.45l-.22,0c3.72-1.36,7.43-2.72,11-4.37A11.14,11.14,0,0,1,48.64,81,4.14,4.14,0,0,1,52.11,83c-1.28.7-1.32,2.35-1.51,3.66a3.71,3.71,0,0,1-1,2.13,6.15,6.15,0,0,1-1.8,1.26c-.74.37-1.51.66-2.28,1l-2.81,1.12L37.2,94.41,26.08,98.86,15,103.31l-1.35.54a4.26,4.26,0,0,1-1.38.43,2.1,2.1,0,0,1-1.72-1c-.79-1.07-1.06-2.5-2-3.41,4.3-4.4,9.79-7.41,15.41-9.79C26.48,89,29.11,88,31.74,87a2.07,2.07,0,0,0-.89,1.26A2.78,2.78,0,0,0,31.71,90.79Zm-10.45,24.4a3.86,3.86,0,0,0,.48-1.19c0,.6.07,1.19.11,1.78A1.75,1.75,0,0,0,21.26,115.19Zm2.14,23.45a1.5,1.5,0,0,0,.23-.33c0,.2.05.4.07.6A1.93,1.93,0,0,0,23.4,138.64Zm0,3.46a2.28,2.28,0,0,0,.58-.62l.12,1.18c0,.13,0,.26,0,.39A2.16,2.16,0,0,0,23.38,142.1Zm.52,3a2.19,2.19,0,0,0,.35-.87l.18,1.57A2.4,2.4,0,0,0,23.9,145.07Zm.87,6.61a3.31,3.31,0,0,0,.29-.67l.15,1.16A3.42,3.42,0,0,0,24.77,151.68Zm.82,10.78a2.77,2.77,0,0,0-.24-3.43,2.83,2.83,0,0,0,.47-1.56,2.93,2.93,0,0,0-.61-1.73,3,3,0,0,0,.36-.66l.57,4.26c.18,1.3.34,2.61.54,3.92A2.48,2.48,0,0,0,25.59,162.46ZM43.79,179a3.75,3.75,0,0,1-1.33.18,8.24,8.24,0,0,1-1.57-.12c-.77-.13-2-.34-2.39-1.13a.69.69,0,0,1,.48-1,2.37,2.37,0,0,1,1.48.16.19.19,0,0,0,.18,0l.08,0a3.88,3.88,0,0,0,1.39.33,16.17,16.17,0,0,0,1.7.11.18.18,0,0,0,.15,0c.34,0,.51.28.52.58S44.13,178.83,43.79,179Zm2.59-3.62a1,1,0,0,1-.27,1.12,3.79,3.79,0,0,1-2.63.64,13.37,13.37,0,0,1-1.42-.12,2.91,2.91,0,0,1-1.12-.26.58.58,0,0,1-.31-.79,1.3,1.3,0,0,1,.85-.57,5.64,5.64,0,0,1,1.3-.06,2.25,2.25,0,0,0,1.27-.35.23.23,0,0,0,.08-.09,2.13,2.13,0,0,0,1,.09.23.23,0,0,0,.38.19A.57.57,0,0,1,46.38,175.33Zm1-6.84.25-.14a.86.86,0,0,0,.27.05,7,7,0,0,0,1.21-.15l.31-.06c.2,0,.4.06.59.09a.21.21,0,0,0,.21.25.53.53,0,0,1,.46.48.79.79,0,0,1-.2.76,2.13,2.13,0,0,1-.94.55,7.4,7.4,0,0,1-1,.26c-.58.11-1.44.13-1.72-.53A1.39,1.39,0,0,1,47.38,168.49Zm2.27-11.08a.81.81,0,0,1-1,.6.7.7,0,0,1-.25-.15v0a.24.24,0,0,0-.26-.28,2,2,0,0,1-.19-.82,2.54,2.54,0,0,1,.32-1.48.79.79,0,0,1,1-.3c-.09.43-.18.86-.26,1.29-.05.28.39.41.44.12,0-.07,0-.15,0-.22A2,2,0,0,1,49.65,157.41Zm2.72-14.47a.22.22,0,0,0,0,.22c-.24.56-.49,1.13-.72,1.7a.14.14,0,0,0,0,.09,3.77,3.77,0,0,1-.65-.89,1.7,1.7,0,0,1-.07-1.61,1,1,0,0,1,1.14-.47A.69.69,0,0,1,52.37,142.94Zm-.6,15.22,0,0a5.82,5.82,0,0,0,.81.35c-.55,1.13-1.15,2.24-1.77,3.34l-.15.08a1.47,1.47,0,0,0-.59,1.48,1.4,1.4,0,0,0,.09.29l-.85,0c.35-1.36.71-2.72,1.06-4.09h0A5,5,0,0,1,51.77,158.16ZM57.56,175a.23.23,0,0,0-.12.32s0,0,0,.07c0,.23-.09.47-.13.71s.29.37.4.21a3.47,3.47,0,0,1-2,3.58.18.18,0,0,0-.1.24l-.56.2a.13.13,0,0,0,0-.05l-.14-.15a.24.24,0,0,0-.2-.24,3.71,3.71,0,0,1,0-4.49.23.23,0,0,0,.44.07,27,27,0,0,1,3.64-8.07c.09,1.21.19,2.41.29,3.62A13.48,13.48,0,0,0,57.56,175Z" style="fill:#1d1d1b"/><path d="M146.39,110.47c0-.29-.42-.28-.45,0l0,.4a.11.11,0,0,0,0,.08,38,38,0,0,1-2.11,10.61c-.25.73-.54,1.45-.84,2.16l-.06-.46a48.1,48.1,0,0,0-1.23-5.28,15.34,15.34,0,0,1-.6-6c0-.28-.39-.4-.43-.12a10.87,10.87,0,0,0-.06,2.67c-.12-.32-.25-.65-.39-1s-.5,0-.39.22a16.36,16.36,0,0,1,1,3.18.23.23,0,0,0-.08.12,20.65,20.65,0,0,0-.46,7.83c0,.29,0,.58,0,.87l-.27.77c-.06.18.17.38.33.26l.11-.09c.07.6.15,1.2.23,1.79.2,1.46.39,2.95.48,4.44-.17.46-.36.91-.57,1.36-.12.26.27.49.39.23s.15-.35.22-.52a18.13,18.13,0,0,1,0,2l-.52,3.09c-.05.18-.1.37-.16.55a10.12,10.12,0,0,1-2.89,4.53c-.21.19.11.51.32.32a9.9,9.9,0,0,0,2.5-3.46h0c-.31,1.1-.62,2.2-.92,3.31-.38,1.37-.74,2.75-1.1,4.13a17.7,17.7,0,0,0-.65,3.38,4.68,4.68,0,0,0,.92,3.32c.18.23.5-.09.32-.31a3.36,3.36,0,0,1-.51-.87c.46.75,1.17,1.39,1.66,2.08a7.81,7.81,0,0,1,1.45,4.39,7.64,7.64,0,0,1-.4,2.6c-.09.28.34.4.43.12a8.27,8.27,0,0,0,.17-4.6,8.59,8.59,0,0,0-.86-2.11,13.13,13.13,0,0,0-1.4-1.84,3.37,3.37,0,0,1-1.08-2.3.21.21,0,0,0-.28-.21,16.54,16.54,0,0,1,.68-3.59c.68-2.61,1.38-5.22,2.12-7.82.42-1.47.85-3,1.29-4.42a.22.22,0,0,0-.43-.12c-.13.43-.26.86-.38,1.29.08-.5.14-1,.17-1.51l.16-1c.33-2,.7-3.94,1-5.93a24.37,24.37,0,0,0,.24-4.35,39,39,0,0,0,3.08-10.91C146.26,112.68,146.35,111.57,146.39,110.47Zm-4.09,11.82a17.88,17.88,0,0,1,.28,2.39h0a24,24,0,0,1-.17,3.79l0-.09a1.17,1.17,0,0,0-.81-.48,4.87,4.87,0,0,0,.48-2.47c0-.15-.19-.3-.34-.19l-.45.34c0-.32,0-.65,0-1a2.21,2.21,0,0,0,.25-1.19l0-.11a17.69,17.69,0,0,0,.19-3.78C141.87,120.45,142.12,121.37,142.3,122.29ZM141,117.9a16.39,16.39,0,0,1,.19,2.1.23.23,0,0,0-.11.14c-.11.51-.23,1-.34,1.52a.2.2,0,0,0-.13.15c0,.08,0,.17-.05.25A18.15,18.15,0,0,1,141,117.9Zm.58,8a4.43,4.43,0,0,1-.38,1.68c0-.47,0-1,0-1.42Zm-.42,2.54.08,0c.53-.29.9.4.92.83a6.14,6.14,0,0,1-.31,1.69c-.09.32-.18.63-.28,1C141.48,130.72,141.33,129.57,141.17,128.42Z" style="fill:#1d1d1b"/><path d="M157.86,117.7a39.43,39.43,0,0,0-3.86-9.94,38,38,0,0,0-3.32-5c-.17-.23-.49.09-.31.32a38.49,38.49,0,0,1,5.26,9.17,39.17,39.17,0,0,1,2.62,10.16,37.74,37.74,0,0,1,.25,5.92c0,.28.44.28.45,0A39.35,39.35,0,0,0,157.86,117.7Z" style="fill:#1d1d1b"/><path d="M108.73,109.15a2.79,2.79,0,0,0-3.45-.76c-.27.12,0,.5.23.39a2.41,2.41,0,0,1,2.66.39,1.75,1.75,0,0,1,.14,2.22,1.72,1.72,0,0,1-1.34.53,7,7,0,0,1-1.58-.18,1.84,1.84,0,0,1-1.23-.74,1.66,1.66,0,0,1-.11-1.31,2.79,2.79,0,0,1,2.7-1.67c.29,0,.29-.47,0-.45a3.35,3.35,0,0,0-3,1.7,2.24,2.24,0,0,0-.11,1.61,1.94,1.94,0,0,0,1.21,1.16,6.1,6.1,0,0,0,1.86.32,2.49,2.49,0,0,0,1.75-.47A2.15,2.15,0,0,0,108.73,109.15Z" style="fill:#1d1d1b"/><path d="M110.56,133.28a1.93,1.93,0,0,0-2.52-.19,2.47,2.47,0,0,0-.44,3.18,3.1,3.1,0,0,0,3.19,1.52,2.53,2.53,0,0,0,2-2.53A2.19,2.19,0,0,0,110.56,133.28Zm.45,4a2.6,2.6,0,0,1-2.74-.82,2.25,2.25,0,0,1-.26-2.72,1.56,1.56,0,0,1,2-.33.23.23,0,0,0,.21.39.9.9,0,0,1,.16,0,.26.26,0,0,0,.21,0,1.72,1.72,0,0,1,1.69,1.27A2,2,0,0,1,111,137.27Z" style="fill:#1d1d1b"/><path d="M68.13,139.55c-.62-1.73-2.56-2.05-4.16-2.14-.29,0-.29.43,0,.45,1.22.07,2.64.21,3.43,1.27a1.71,1.71,0,0,1,.32,1.61,1.87,1.87,0,0,1-1.24,1.15,2.94,2.94,0,0,1-3.17-1.24,2.48,2.48,0,0,1,.17-3,2,2,0,0,1,3,.06c.17.23.56,0,.39-.23A2.46,2.46,0,0,0,63.6,137a2.86,2.86,0,0,0-1,3.41,3.43,3.43,0,0,0,3.39,2A2.24,2.24,0,0,0,68.13,139.55Z" style="fill:#1d1d1b"/><path d="M70,166.63a3,3,0,0,0-.55-.24,4.43,4.43,0,0,0-.68-.62,2.88,2.88,0,0,0-3.38-.21,4.23,4.23,0,0,0-1.54,3.05,4.37,4.37,0,0,0,1,3.22,4.24,4.24,0,0,0,2.83,1.4,3.64,3.64,0,0,0,2.92-1,3.91,3.91,0,0,0,1.11-2.84A3.28,3.28,0,0,0,70,166.63Zm-1.62,6.15A3.89,3.89,0,0,1,65.7,172a3.72,3.72,0,0,1-1.41-2.55,4.22,4.22,0,0,1,.73-2.92,2.37,2.37,0,0,1,1.31-1,2.4,2.4,0,0,1,1.6.22,3.33,3.33,0,0,1,.63.39,3.09,3.09,0,0,0-1.81.35c-.26.14,0,.53.22.39a2.82,2.82,0,0,1,2.2-.17,3.89,3.89,0,0,1,.51,4.48c-.16.24.23.47.38.22a4.2,4.2,0,0,0-.07-4.3,2.79,2.79,0,0,1,1.16,1.61A3.3,3.3,0,0,1,68.36,172.78Z" style="fill:#1d1d1b"/><path d="M65.94,191.92a3.64,3.64,0,0,0-4.24.6c-.2.2.12.52.32.32a3.09,3.09,0,0,1,5.23,2.8c-.06.28.37.4.43.11A3.65,3.65,0,0,0,65.94,191.92Z" style="fill:#1d1d1b"/><path d="M110.66,190.73c-.92-.35-2.12-.75-3-.06a1.4,1.4,0,0,0-.33,2c.2.21.52-.11.32-.32-.41-.43,0-1.13.37-1.41.74-.48,1.76-.07,2.5.21C110.81,191.27,110.93,190.83,110.66,190.73Z" style="fill:#1d1d1b"/><path d="M65.81,112.51c-.23-.17-.45.22-.22.39a1.51,1.51,0,0,1,.36,1.86,2.24,2.24,0,0,1-1.85,1.12A4.69,4.69,0,0,1,60,113.49a3.22,3.22,0,0,1-.37-2.08,2.78,2.78,0,0,1,4.78,2.06.23.23,0,0,0,.45,0,3.35,3.35,0,0,0-2.4-3.26,3.27,3.27,0,0,0-2.6.44c.1-.26-.27-.47-.39-.21a3.71,3.71,0,0,0-.26.75,3.87,3.87,0,0,0-.43.57.22.22,0,0,0,.37.25,4.5,4.5,0,0,0,2.17,3.48,4.67,4.67,0,0,0,3,.82,2.63,2.63,0,0,0,2.1-1.36A2,2,0,0,0,65.81,112.51Z" style="fill:#1d1d1b"/><path d="M98.11,144.68c-3.08-2.24-6.26-4.57-10-5.58a13.45,13.45,0,0,0-5.39-.41,10,10,0,0,0-2.58.69,16,16,0,0,0-2.41,1.39A8,8,0,0,1,75,142.1a3,3,0,0,1-2.63-.52c-.21-.19-.53.13-.31.32,1.26,1.1,3.08.82,4.47.12.86-.44,1.64-1,2.46-1.53a9.37,9.37,0,0,1,2.53-1.11c3.71-1,7.59.18,10.85,2a56.28,56.28,0,0,1,5.51,3.69C98.12,145.24,98.34,144.85,98.11,144.68Z" style="fill:#1d1d1b"/><path d="M68.48,185a6.59,6.59,0,0,0-1,1.48.24.24,0,0,0,.19.34,25.18,25.18,0,0,0-1.22,3.48.22.22,0,0,0,.43.12,25.79,25.79,0,0,1,2-5.15A.23.23,0,0,0,68.48,185Z" style="fill:#1d1d1b"/><path d="M99.06,179.65a12.32,12.32,0,0,1,2.6-7.56c.18-.23-.14-.55-.32-.32a13.42,13.42,0,0,0-1.75,3,.21.21,0,0,0-.37,0,26.67,26.67,0,0,1-2.1,3.43L98.51,175c.11-.26-.27-.49-.39-.23l-1.71,4-1.72-.94c.51-1.29,1-2.59,1.54-3.89.1-.25-.27-.37-.41-.17l-2.37,3.39-.79-.43c-.25-.14-.48.25-.22.39l.75.41-.33.46a17.18,17.18,0,0,1-2.29,2.87l-.09,0a17,17,0,0,1,2.45-5c.15-.2-.18-.46-.35-.27-1.26,1.46-2.45,3-3.59,4.53l-.27-.13c.5-1.23,1-2.47,1.37-3.73.09-.27-.35-.39-.44-.12-.4,1.24-.84,2.45-1.32,3.66l-.26-.13c-.26-.12-.49.26-.23.39l.31.15c-.43,1.05-.89,2.09-1.39,3.12a.22.22,0,0,0,.39.22c.63-1,1.3-1.93,2-2.87l.81.4c0,.16-.09.32-.13.49a.22.22,0,0,0,.33.25,5,5,0,0,0,.51-.4l1.62.78a.21.21,0,0,0,.22,0l-.12.3c-.1.27.33.39.43.12q.87-2.16,1.72-4.34l1.71.93-.22.52c-.1.21.17.49.35.27l.39-.5,3,1.64c.25.14.48-.25.23-.39-1-.53-2-1.07-2.95-1.61a26.71,26.71,0,0,0,2.23-3.45,12.63,12.63,0,0,0-.66,4A.23.23,0,0,0,99.06,179.65Zm-10.83,1.47c.11-.25.22-.5.32-.76l.17.09Zm1.84-.52-.67-.32c.54-.73,1.08-1.45,1.65-2.16A17,17,0,0,0,90.07,180.6Zm5-5c-.28.68-.55,1.36-.82,2l-.45-.25Zm-2.51,6.33a.26.26,0,0,0-.1-.11L91,181.05a18.22,18.22,0,0,0,2.11-2.67l.46-.66.55.3Z" style="fill:#1d1d1b"/><path d="M121.85,180.23c-.55-.24-1.09-.51-1.62-.79a12.33,12.33,0,0,0,2.79-5.69c.06-.28-.37-.4-.43-.12a12,12,0,0,1-2.76,5.59c-.42-.23-.84-.48-1.25-.73l.14-.25c.13-.26-.25-.49-.38-.23,0,.08-.09.16-.14.24h0l3.06-5.83.43.15c.27.1.39-.34.11-.44a56.51,56.51,0,0,0-6.28-1.84c1.68-1.13,2.58-3.52,1.12-5.21a5.07,5.07,0,0,0-1.47-1.09,7.85,7.85,0,0,0-1.76-.69,2.76,2.76,0,0,0-.83-.3,3,3,0,0,0-2.74,1,4.23,4.23,0,0,0-.15,5.4,31.64,31.64,0,0,0-10.49.72,36.86,36.86,0,0,0-10.32,4.78c-1.62,1-3.22,2-4.87,3l.18-.55c.08-.27-.35-.39-.44-.12s-.2.66-.31,1c-.82.46-1.65.91-2.49,1.33.19-.53.39-1.06.61-1.59a.23.23,0,0,0-.33-.25l-.91.66c-.23.17,0,.56.23.39l.3-.23c-.16.44-.33.87-.49,1.31l-.79.4a.22.22,0,0,0-.39-.22l-.35.57,0,0c-1.26.58-2.55,1.1-3.85,1.58.37-.75.76-1.49,1.18-2.21.15-.25-.24-.48-.38-.23Q75,181,74.31,182.37c-.56.2-1.12.4-1.68.58l.07-.2c.1-.27-.33-.39-.43-.12l-.19.5q-2.16.69-4.38,1.2l-1.44.32c-.29.06-.17.49.12.43,1.85-.38,3.69-.86,5.5-1.42-.41,1.1-.83,2.19-1.24,3.29l-.79-.22c-.28-.09-.4.35-.12.43l.75.21-1.08,2.87c-.09.24.29.4.41.18l1.5-2.81,1,.28a1.21,1.21,0,0,0,0,.18c-.06.2.22.39.37.21l.23-.25q3.73,1,7.53,1.77c.28,0,.4-.38.12-.44-2.46-.49-4.89-1.06-7.31-1.7l1-1.12c.19-.22-.13-.54-.32-.32l-1,1.05a32.22,32.22,0,0,1,1.7-4.54c.93-.34,1.86-.7,2.77-1.09l1-.43-3.86,6.22a.23.23,0,0,0,.39.23l4.2-6.78c.34-.15.67-.32,1-.48q-.87,2.5-1.53,5.07l-1.12-.38c-.27-.09-.39.34-.12.43s.75.26,1.13.38c-.22.89-.43,1.77-.61,2.66,0,.28.38.4.44.12q.27-1.32.6-2.64a52.21,52.21,0,0,0,7.61,1.78c.28,0,.4-.39.12-.44a52,52,0,0,1-6.3-1.38c.65-1.1,1.23-2.23,1.77-3.38l2.28.74c-.11.43-.23.85-.33,1.28a.22.22,0,0,0,.37.22l.64-.6c.22-.2-.1-.51-.31-.32l-.07.07c0-.17.09-.34.13-.51l5.36,1.75c.27.09.39-.34.12-.43L85,183.07q.85-3.1,2-6.13a.19.19,0,0,0-.13-.26l.83-.51A45.35,45.35,0,0,1,97.73,171a28.44,28.44,0,0,1,8-1.28l-3.76,7.8c-.46-.29-.9-.6-1.34-.92-.23-.17-.46.22-.23.39.45.33.91.64,1.37.94l-.63,1.3c-.13.26.26.49.39.23l.62-1.29c.5.31,1,.61,1.54.89,0,.11-.09.21-.13.32s.17.34.33.25l.41-.26a26.89,26.89,0,0,0,3,1.31c.28.1.39-.33.12-.43a25.56,25.56,0,0,1-2.75-1.18,5.55,5.55,0,0,0,1.5-1.86c.12-.26-.26-.49-.39-.23a5.25,5.25,0,0,1-1.54,1.86c.39-.95.8-1.89,1.23-2.83l2.41,1.55-.81,1.35c-.12.21.12.39.31.31l.56-.24c.23-.1.08-.42-.14-.41l.45-.77,2.81,1.8c.25.16.47-.23.23-.38l-.57-.37c.17-.18,0-.53-.25-.36s-.28-.16-.25-.3a1.17,1.17,0,0,1,.22-.43l.67-1,.09-.14c.66.53,1.32,1.06,2,1.57l-1.54,2.27c-.13.2.13.4.31.31l1-.5c.26-.13,0-.52-.22-.39l-.25.12,1-1.55c.72.53,1.46,1,2.21,1.56-.16.43-.33.87-.49,1.31-.08.23.22.35.38.22l1-.82a.22.22,0,0,0,.26,0l1.2.75a.23.23,0,0,0,.23-.39l-1.1-.68a8.24,8.24,0,0,0,1.13-1.44c.38.24.77.46,1.17.68l-.55.55c-.21.19.11.51.32.31s.43-.41.63-.63c.56.29,1.12.57,1.69.83C121.88,180.74,122.11,180.35,121.85,180.23Zm-49.42,7.22-.91-.25c0-.23-.28-.41-.41-.17l0,.05h0l1.35-3.58,1.63-.55A32.74,32.74,0,0,0,72.43,187.45Zm9.45-5.38-.12,0c-.28-.09-.39.34-.12.43l.06,0c-.53,1.13-1.11,2.23-1.75,3.31a.32.32,0,0,0,0,.09L79,185.6c.48-1.85,1-3.68,1.68-5.47.66-.33,1.33-.67,2-1l.51-.28C82.81,179.92,82.37,181,81.88,182.07Zm2.64.86-2.2-.72c.55-1.22,1.05-2.46,1.48-3.73.89-.51,1.78-1,2.66-1.6C85.72,178.87,85.08,180.89,84.52,182.93Zm25.12-18a3.15,3.15,0,0,1,1.56-1.43,1.71,1.71,0,0,0-.78,1.29c0,.29.42.28.45,0a1.34,1.34,0,0,1,.82-1.05,2.3,2.3,0,0,1,1.53-.07,2,2,0,0,1,1,1.19.23.23,0,0,0,.44-.12,2.45,2.45,0,0,0-.37-.74,5.85,5.85,0,0,1,1.71,1,2.64,2.64,0,0,1,.86,2.73,3.63,3.63,0,0,1-1.54,2.12l-.25.15a.21.21,0,0,0-.22.07c-1.41-.29-2.83-.53-4.26-.69l-.25,0A3.93,3.93,0,0,1,109.64,165Zm4.47,5.47a3.72,3.72,0,0,1-3.23-.52C112,170.05,113,170.23,114.11,170.44Zm-6,6.68-2.44-1.57c.78-1.7,1.62-3.38,2.52-5,.14-.26-.24-.48-.38-.23-.91,1.63-1.74,3.3-2.52,5l-1.16-.74c-.24-.16-.47.23-.23.39l1.2.77c-.44.95-.86,1.91-1.25,2.87-.52-.27-1-.57-1.52-.88,1.29-2.68,2.59-5.37,3.88-8.06q1.4,0,2.79.09l1.09.1a4.09,4.09,0,0,0,1.74,1s0,0,0,.06l-2.17,3.66-.69-.61c-.21-.2-.53.12-.32.31s.52.47.78.69C109,175.7,108.54,176.41,108.11,177.12Zm2.56-.58a11.91,11.91,0,0,0-.77,1.22,1.26,1.26,0,0,0-.13.43l-1.28-.83,1.23-2.07,1.14,1Zm.43-.67c-.39-.32-.77-.65-1.15-1l2.22-3.74a.22.22,0,0,0,0-.21,4.37,4.37,0,0,0,2.18-.11q-1.44,2.22-2.86,4.44Zm2.73,2.12,2.61-3.87c.17-.24-.22-.46-.38-.23l-2.59,3.84c-.69-.51-1.36-1-2-1.58.34-.53.69-1.06,1-1.6l2.53-3.92a50.54,50.54,0,0,1,5.33,1.47l.49.16-3,5.74-.6-.41c.61-1.44,1.26-2.86,2-4.24.13-.26-.25-.49-.39-.23q-1,2.06-2,4.19l-.63-.45c-.23-.18-.45.21-.22.38l.67.49c-.24.58-.47,1.17-.7,1.75C115.23,179,114.52,178.5,113.83,178Zm2.93,2-.42-.27c.22-.58.45-1.16.69-1.73l.57.39Z" style="fill:#1d1d1b"/><path d="M125.2,180.24l-3.2-2.15c-.24-.16-.47.23-.23.39l3.21,2.15C125.22,180.79,125.44,180.4,125.2,180.24Z" style="fill:#1d1d1b"/><path d="M134.52,142.47l-5,1.07c-.28.06-.17.49.12.43l5-1.06C134.92,142.85,134.81,142.41,134.52,142.47Z" style="fill:#1d1d1b"/><path d="M135.89,146.42a36.42,36.42,0,0,1-3.52,1.05l.14-1.44a.22.22,0,0,0-.22-.22.22.22,0,0,0-.23.22l-.15,1.53v0a36.46,36.46,0,0,1-3.76.65l-.21-8.11a.18.18,0,0,0,.14-.2l-.21-2.13c0-.29-.45-.3-.44,0l.27,10.49q-.92.1-1.83.15c-.29,0-.29.47,0,.45.62,0,1.23-.08,1.85-.15v.51c0,.29.46.29.45,0l0-.56a35.27,35.27,0,0,0,7.85-1.83C136.28,146.75,136.16,146.32,135.89,146.42Z" style="fill:#1d1d1b"/><path d="M137,147.79A73.63,73.63,0,0,1,125.2,151c-.29,0-.17.48.12.43a72.57,72.57,0,0,0,11.76-3.22C137.35,148.13,137.23,147.69,137,147.79Z" style="fill:#1d1d1b"/><path d="M136.51,151.63l-11.61,2.62c-.29.06-.17.49.12.43l11.61-2.61C136.91,152,136.79,151.57,136.51,151.63Z" style="fill:#1d1d1b"/><path d="M134.46,156.38a13.73,13.73,0,0,1-7.77,1c-.28,0-.4.39-.12.44a14.24,14.24,0,0,0,8.12-1.09C135,156.65,134.72,156.26,134.46,156.38Z" style="fill:#1d1d1b"/><path d="M139.37,156.87c-.68.28-1.36.55-2.05.81l-.44-.5c-.2-.22-.51.1-.32.32l.3.34c-.56.2-1.12.39-1.69.57l-.3-.29c-.22-.19-.53.12-.32.32l.14.13c-.79.24-1.58.48-2.38.68-.21-.18-.42-.36-.62-.55s-.53.12-.32.32l.42.37q-1.53.38-3.06.66l-.94.16a.25.25,0,0,0-.25,0c-.65.11-1.31.2-2,.28-.29,0-.29.49,0,.45.7-.08,1.4-.18,2.09-.3l.75.66q-2.66.63-5.35,1c-.29,0-.17.47.12.43,1.9-.26,3.78-.62,5.64-1.06l1.83,1.62-4.94,1.73L123.13,163c-.22-.18-.54.14-.31.32l2.39,1.94-1.83.64c-.28.1-.16.53.11.44l2.13-.75,1,.84-1.46.54c-.27.1-.15.53.12.43l1.74-.64,1.88,1.52a7.63,7.63,0,0,1-.83.17c-.28.05-.16.48.12.44s.77-.16,1.15-.25l2.13,1.72c.22.18.54-.14.32-.32l-1.93-1.55a13.82,13.82,0,0,0,2-.76l1.78,1.56.08,0a22.53,22.53,0,0,1-3.37,2.26,8.94,8.94,0,0,0-3-2.83,8.14,8.14,0,0,0-2.27-.92.25.25,0,0,0-.12,0l-3.09-2.57c-.22-.18-.54.13-.31.32l7.93,6.59c.22.18.54-.14.32-.32l-4-3.35a8.53,8.53,0,0,1,4.29,3.47h0a8,8,0,0,1,.73,1.46l-.26.26c-.22.19.1.51.31.31l.12-.1a7.94,7.94,0,0,1,.34,1.8c0,.29.47.29.45,0a8.23,8.23,0,0,0-.44-2.14,35.47,35.47,0,0,0,5.48-6.67c.15-.24-.24-.47-.39-.23l-.46.71a.22.22,0,0,0-.2.06,22.5,22.5,0,0,1-1.75,1.63.14.14,0,0,0-.06-.11l-1.66-1.45a14.11,14.11,0,0,0,3.18-2.2c.21-.2-.11-.51-.32-.32a13.57,13.57,0,0,1-3.23,2.2l-1.8-1.57,2.16-.8.41.36c.22.19.53-.13.32-.32l-.25-.22,1.25-.46c.27-.09.15-.53-.12-.43l-1.51.56-.89-.79,1.83-.64c.27-.09.15-.53-.12-.43l-2.09.73-1.79-1.58c1.26-.32,2.52-.68,3.76-1.08a26.21,26.21,0,0,0,2.41,1.64.23.23,0,0,0,.23-.39,23.88,23.88,0,0,1-2.13-1.42l1-.35c.27-.09.16-.53-.12-.43s-.87.3-1.3.45l-.49-.39q1.18-.31,2.34-.69l4.06,3.81c.21.2.53-.12.32-.31l-3.89-3.65.95-.32.69-.25,2,2.2c.19.22.51-.1.31-.32L137.64,158c.62-.23,1.23-.47,1.84-.73C139.75,157.19,139.63,156.76,139.37,156.87Zm-4.48,12a35.7,35.7,0,0,1-3.7,4.17,9.52,9.52,0,0,0-.58-1.15A24.13,24.13,0,0,0,134.89,168.92Zm-3.38-1.54a14.77,14.77,0,0,1-2,.73l-1.93-1.56,2.11-.77Zm.42-2.92-2.17.8-.52-.45c-.21-.19-.53.13-.31.32l.35.31-2.13.78-1-.83,4.92-1.72Zm-3-3.24-.7-.63c1.33-.23,2.64-.51,3.95-.84l.5.41C131.45,160.55,130.2,160.91,128.94,161.22Z" style="fill:#1d1d1b"/><path d="M136.6,168.29l-4,5.29c-.18.23.21.45.38.22q2-2.64,4.06-5.29C137.16,168.29,136.77,168.06,136.6,168.29Z" style="fill:#1d1d1b"/><path d="M129.37,172.22a49.25,49.25,0,0,1-8.14-6.24c-.71-.68-1.4-1.37-2.08-2.09-.2-.21-.51.11-.31.32a50.75,50.75,0,0,0,7.84,6.79c.81.56,1.63,1.09,2.47,1.61C129.4,172.76,129.62,172.37,129.37,172.22Z" style="fill:#1d1d1b"/><path d="M140.23,159.56a.23.23,0,0,0,0,.45A.23.23,0,0,0,140.23,159.56Z" style="fill:#1d1d1b"/><path d="M14.19,111.41A19.93,19.93,0,0,0,12,118.16c0,.28.39.4.43.12a19.42,19.42,0,0,1,2.17-6.64C14.72,111.38,14.33,111.16,14.19,111.41Z" style="fill:#1d1d1b"/><path d="M15.33,112.6a22.91,22.91,0,0,0-3.06,6.09.23.23,0,0,0,.38.22l1.72-2c-.88,1.31-2.11,2.48-1.76,4.18.06.28.49.16.43-.12a3.79,3.79,0,0,1,1-2.91,7.41,7.41,0,0,0,1.45-2.56c.05-.2-.22-.4-.37-.22l-2,2.41a22,22,0,0,1,2.59-4.82C15.89,112.59,15.5,112.37,15.33,112.6Z" style="fill:#1d1d1b"/><path d="M14.26,119.94l-1.07,2c-.14.26.25.48.39.23l1.07-2C14.78,119.91,14.4,119.68,14.26,119.94Z" style="fill:#1d1d1b"/><path d="M24.23,165.39a1.53,1.53,0,0,1-1.46-1.17,1.48,1.48,0,0,1,.3-1.23,1.26,1.26,0,0,0,.45-.15,1.13,1.13,0,0,0,.57-1.26c-.09-.27-.52-.16-.43.12a.56.56,0,0,1-.09.49.21.21,0,0,0-.22,0,2.06,2.06,0,0,0-.52.4A1,1,0,0,1,22,162a2,2,0,0,1,.6-2.22.86.86,0,0,0,.29-.14,1.29,1.29,0,0,0,.6-1.48c-.09-.27-.52-.15-.43.12a.78.78,0,0,1-.08.65.21.21,0,0,0-.22.05c-.13.12-.27.26-.4.4h0a1.27,1.27,0,0,1-1.24-.85A2.52,2.52,0,0,1,22,156a1.06,1.06,0,0,0,.94-1.53.22.22,0,0,0-.38.23.43.43,0,0,1,0,.16.19.19,0,0,0-.15.06c-.21.19-.42.39-.63.61a1,1,0,0,1-.61-.51,1.53,1.53,0,0,1,.11-1.38,3.37,3.37,0,0,1,.47-.65,1.49,1.49,0,0,0,.81-1.73.23.23,0,0,0-.44.12,1,1,0,0,1-.07.69l-.1.06c-.15.15-.3.3-.44.47a1,1,0,0,1-.64,0,1,1,0,0,1-.69-.75,1.44,1.44,0,0,1,.4-1.2,2.35,2.35,0,0,1,.33-.3l.14,0a1.47,1.47,0,0,0,1.39-.45c.19-.21-.13-.53-.32-.31a.94.94,0,0,1-.62.32l.4-.22c.26-.13,0-.52-.22-.39a9.1,9.1,0,0,0-.85.51,1.31,1.31,0,0,1-.72-1.07,2.55,2.55,0,0,1,1.31-2.32l.14,0a1.27,1.27,0,0,0,.8-1.54c-.1-.28-.53-.16-.44.11a.73.73,0,0,1-.18.77l-.12,0-.36.23a.86.86,0,0,1-.32,0,1.53,1.53,0,0,1-1.15-1.46,2.94,2.94,0,0,1,.53-1.95,1.14,1.14,0,0,0,.65-.3,1.19,1.19,0,0,0,.38-.68,2.39,2.39,0,0,1,.22-.12c.26-.13,0-.52-.23-.39h0a1.08,1.08,0,0,0-.13-.29c-.17-.23-.56,0-.39.23a.64.64,0,0,1,.11.3,3.53,3.53,0,0,0-.86.82,1.24,1.24,0,0,1-.94-.72c-.52-1.17.41-2.57,1.39-3.17a.22.22,0,0,0-.22-.39.82.82,0,0,0,.06-.38c0-.29-.48-.29-.45,0a.63.63,0,0,1-.55.63.77.77,0,0,1-.84-.44c-.49-.85.1-1.79.56-2.51.15-.25-.24-.47-.39-.23a4.75,4.75,0,0,0-.77,1.7,25.52,25.52,0,0,0-1.58-4.22.19.19,0,0,0-.17-.1,11.52,11.52,0,0,0,.23-3.26c0-.2-.32-.34-.42-.11l-.6,1.36.27-2.62a5,5,0,0,0,.06-.56c0-.29-.42-.28-.45,0l0,.5a4.2,4.2,0,0,1-.61,1.61c0-.88,0-1.76-.08-2.64a9.2,9.2,0,0,1,1.6-3.7l.29.45c.15.24.54,0,.39-.22l-.47-.73c-.07-.11-.26-.17-.35-.05a9.55,9.55,0,0,0-1.5,2.7v-.26c0-.29-.46-.29-.45,0,0,.58,0,1.17.05,1.76a9.74,9.74,0,0,0,0,3.49.21.21,0,0,0,.38.08.19.19,0,0,0,.11-.07,4.36,4.36,0,0,0,.48-.65l-.24,2.31a.23.23,0,0,0,.42.11l.77-1.77a10.78,10.78,0,0,1-.42,2.88c-.05.2.23.4.38.22l.15-.19A22.19,22.19,0,0,1,17,135c-.59-.66-1.33-1.24-1.9-1.86a19.19,19.19,0,0,1-2.81-4.55,1.81,1.81,0,0,1-.27-1.42.56.56,0,0,1,.46-.39.41.41,0,0,1,.43.29c0,.28.48.28.44,0a.88.88,0,0,0-1.58-.36c-.62.81,0,1.82.37,2.58A24.74,24.74,0,0,0,13.63,132a12.1,12.1,0,0,0,2,2.35c.86.78,1.85,1.68,1.83,2.93a.21.21,0,0,0,.22.22,25.38,25.38,0,0,1,.74,5c0,.28.47.29.45,0s0-.46-.05-.68a1.73,1.73,0,0,0,.64.59,1.75,1.75,0,0,0,.32.12,3.38,3.38,0,0,0-.47,1.51,2.4,2.4,0,0,0,.58,1.86,1.69,1.69,0,0,0,.8.48,2.92,2.92,0,0,0-1,1.75,2,2,0,0,0,.77,2c-.07.07-.15.14-.22.22a1.9,1.9,0,0,0-.49,1.57A1.46,1.46,0,0,0,21.13,153a2.24,2.24,0,0,0-.47,1.75,1.52,1.52,0,0,0,.82,1,3,3,0,0,0-.88,2.37A1.91,1.91,0,0,0,22,159.81a2.43,2.43,0,0,0-.54,1.91,1.69,1.69,0,0,0,.74,1.13.93.93,0,0,0,.31.13,2,2,0,0,0-.2,1.36,2,2,0,0,0,1.89,1.5C24.52,165.85,24.52,165.4,24.23,165.39Zm-5.91-27.25a1.4,1.4,0,0,0,.37.32,1.2,1.2,0,0,0,.81.09,3.6,3.6,0,0,0-.83,1.44C18.58,139.37,18.46,138.76,18.32,138.14Z" style="fill:#1d1d1b"/><path d="M103.44,107.48a80.46,80.46,0,0,1-5.39-6.94.2.2,0,0,0,.22-.27,1.31,1.31,0,0,0-1.13-.88.22.22,0,0,0-.2.33,79.51,79.51,0,0,0,6.19,8.07C103.32,108,103.63,107.69,103.44,107.48Z" style="fill:#1d1d1b"/><path d="M113.9,101.53a6.37,6.37,0,0,1-2.17-3.09.23.23,0,0,0-.44.12,6.88,6.88,0,0,0,2.38,3.36.24.24,0,0,0,.31-.08A.25.25,0,0,0,113.9,101.53Z" style="fill:#1d1d1b"/><path d="M149.55,105.28a.23.23,0,0,0-.33-.19l.36-4c0-.28-.42-.28-.45,0-.15,1.71-.31,3.43-.46,5.14-2.83-3.41-7.14-5.1-11.18-6.63a136.67,136.67,0,0,1-15.35-6.84q-4.26-2.25-8.34-4.82a.18.18,0,0,0-.12,0,19.6,19.6,0,0,0,.58-6.38,18.67,18.67,0,0,0-.87-4.44c-.09-.27-.52-.15-.43.12a18.85,18.85,0,0,1,.82,7.57,19.15,19.15,0,0,1-.74,3.75c-.16.53-.34,1.06-.55,1.58-.23-.06-.41.28-.17.4h0a9.77,9.77,0,0,1-.73,1.4,3.42,3.42,0,0,1-2.83,1.9c-.29,0-.29.43,0,.44a3.33,3.33,0,0,0,2.82-1.53,17,17,0,0,1-2.78,5.77l-.18.21a30.17,30.17,0,0,1-3.49,2.1,6.19,6.19,0,0,1-1.49.09l-.19,0a.21.21,0,0,0-.26-.12l-.21.07h0l-.1-.15a.24.24,0,0,0-.42,0,15.12,15.12,0,0,1-2.47-.79c-.27-.11-.39.33-.12.43a15,15,0,0,0,2.46.78,3.8,3.8,0,0,0-.7.57l-.48-.71c-.16-.23-.55,0-.39.23l.58.85a2.87,2.87,0,0,0-.28.48c-.08.17,0,.4.25.33l.47-.17,2.2,3.21-.17.26a.22.22,0,0,0,.31.3l.17-.11.45.66c.16.24.55,0,.38-.23l-.46-.67,2.36-1.52.37.65-.39.46a.22.22,0,0,0,.27.35l.46-.21.67,1.17c.14.25.53,0,.39-.23l-.65-1.13,1.15-.52.55.83-.12,1.66c0,.29.43.29.45,0l.11-1.49a.19.19,0,0,0,0-.26l0,0,.09-1.35c0-.18-.2-.25-.34-.19l-.6.28L109,104l.88-1,2.17,3.12c.16.24.55,0,.39-.22l-2.26-3.25.17-.21c.16-.18,0-.5-.27-.35l-.2.13-1.23-1.78.91-1,2.6,3.4a.23.23,0,0,0,.31.08.24.24,0,0,0,.08-.31L109.88,99c.4-.46.81-.92,1.22-1.37l.06-.06a.25.25,0,0,0,0,.14c1.13,1.42,2.25,2.85,3.37,4.27.18.23.5-.09.32-.32l-3.37-4.27a.17.17,0,0,0-.13-.07l1.87-2.06c.2-.21-.12-.53-.32-.32a28.74,28.74,0,0,1-3,2.79,11.94,11.94,0,0,0,.73-1.3A32.19,32.19,0,0,0,112,92.81c.07-.22-.17-.33-.33-.25a10.44,10.44,0,0,0,1-1.85l15.16,7.58L143.34,106c1.24.62,2.64,1.53,4.08,1.39a2.71,2.71,0,0,0,1.18-.42l-.09,1c0,.29.42.29.45,0l.06-.75c.15,0,.28-.17.17-.32l-.12-.16v-.18A1.74,1.74,0,0,0,149.55,105.28ZM104,101.34l-.54.23-.19-.27C103.54,101.32,103.78,101.34,104,101.34Zm-1.22,0,.26.37c-.37.15-.75.3-1.13.43l-.06-.08A2.74,2.74,0,0,1,102.8,101.38Zm-.61,1.19c.38-.14.76-.29,1.13-.45l1.65,2.32c-.26.36-.51.72-.75,1.09C103.54,104.54,102.86,103.56,102.19,102.57Zm3.18,2.44a.23.23,0,0,0,.07.07l-.68.45.48-.7Zm.42-.15s0,0,0-.07l-.25-.35.78-1,.48.84Zm.79-1.86.66-.84.82,1.23-.92.59Zm.79,1.37.94-.61.15.22-.79.92Zm1.63.42-1,.48.77-.91Zm.53-2.35-1.09.7-.91-1.35.84-1Zm.4-4.15c-.91,1-1.8,2-2.66,3.11l0-.08c-.16-.24-.55,0-.39.23l.15.22-.64.81-.64-1.12a.22.22,0,0,0-.38.23l.73,1.28c-.15.19-.31.39-.45.59l-.36.49-1.49-2.11c.51-.22,1-.46,1.52-.71a5.84,5.84,0,0,0,1.19-.37A7.24,7.24,0,0,0,108.93,99Zm37,8.66a5.2,5.2,0,0,1-1.91-.6c-.6-.28-1.18-.58-1.77-.87l-7.48-3.74-14.85-7.43-8-4c.11-.27.21-.53.29-.77a12,12,0,0,0,.38-1.2l.57.67c.13.15.31,0,.36-.11a126.43,126.43,0,0,0,14,7.5c2.53,1.15,5.1,2.21,7.7,3.2a68.12,68.12,0,0,1,6.56,2.72,17.19,17.19,0,0,1,5.61,4.28A2.36,2.36,0,0,1,146.94,107Z" style="fill:#1d1d1b"/><path d="M116.23,99.88l-3.06-3.2a.22.22,0,0,0-.32.31l3.06,3.21C116.11,100.41,116.43,100.09,116.23,99.88Z" style="fill:#1d1d1b"/><path d="M114.15,112l-2-3.51a.22.22,0,0,0-.38.22l2,3.52C113.9,112.46,114.29,112.24,114.15,112Z" style="fill:#1d1d1b"/><path d="M105.46,113.38,101.18,112l.15-1.2c0-.18-.2-.26-.34-.19l-1.55.83L99,111.3a5.09,5.09,0,0,0,.19-3,.24.24,0,0,0-.28-.16,9.2,9.2,0,0,0-2,1.14l.83-1.58c.29-.55.92-1.41.49-2a.89.89,0,0,0-1-.33l-4-5.4c-.17-.23-.56,0-.39.22l3.93,5.29-.57.2c-.42.13-.83.27-1.24.43l-4.1-6.09c-.16-.24-.55,0-.39.23l4.06,6-.88.36c-.26.12,0,.51.23.39l.91-.37.23.34c.16.24.55,0,.38-.23l-.18-.28.75-.27c.36-.12.73-.24,1.1-.34l.66.89h0a1.19,1.19,0,0,0-.08.16l-.54,1L96,110a.22.22,0,0,0,.35.27,8.8,8.8,0,0,1,2.47-1.62,4.7,4.7,0,0,1-.22,2.52l-2.16-.71a.23.23,0,0,0-.12.44l2.1.68a4.06,4.06,0,0,1-.38.63c-.13.2.13.41.31.31l1.12-.6,1.21.4-.15,1.2a.22.22,0,0,0,.22.22l1.88-.18c.28,0,.28-.48,0-.45l-1.62.16.1-.81,4.22,1.37C105.61,113.91,105.73,113.47,105.46,113.38Zm-7.88-7.65a.31.31,0,0,1,.33.26.6.6,0,0,1,0,.19Zm2.45,5.89.8-.43-.08.66Z" style="fill:#1d1d1b"/><path d="M80.25,117.66c-1.75.46-2.23,2.39-2.47,4a11.35,11.35,0,0,1-.64,2.55,8.52,8.52,0,0,1-1.27,2.18,8.84,8.84,0,0,1-2.09,1.91c-.24.16,0,.55.23.39a9.44,9.44,0,0,0,3.18-3.52,9.06,9.06,0,0,0,.82-2.25,25.31,25.31,0,0,1,.58-2.88,2.78,2.78,0,0,1,1.78-1.9A.22.22,0,0,0,80.25,117.66Z" style="fill:#1d1d1b"/><path d="M62.13,28.12a11,11,0,0,0-6.43,5.5c-.13.26.26.48.39.22a10.57,10.57,0,0,1,6.16-5.29C62.53,28.46,62.41,28,62.13,28.12Z" style="fill:#1d1d1b"/><path d="M58.91,25,55.13,28.8a.22.22,0,0,0,.32.31l3.78-3.78C59.43,25.13,59.12,24.81,58.91,25Z" style="fill:#1d1d1b"/><path d="M58.5,23.61a.22.22,0,0,0-.3.08l-2.07,2.75a.24.24,0,0,0,.08.31.24.24,0,0,0,.31-.08l2.07-2.75A.23.23,0,0,0,58.5,23.61Z" style="fill:#1d1d1b"/><path d="M79.8,37.34a.23.23,0,0,0-.31.09l-1,1.37a.23.23,0,0,0,.08.31.24.24,0,0,0,.31-.08l1-1.38A.23.23,0,0,0,79.8,37.34Z" style="fill:#1d1d1b"/></g></g></svg>