<svg xmlns="http://www.w3.org/2000/svg" viewBox="0 0 218.06 215.5"><title>checkov-pensador</title><g id="Camada_2" data-name="Camada 2"><g id="Camada_1-2" data-name="Camada 1"><path d="M95.2,19a30.32,30.32,0,0,0,6.79-.6c2.16-.53,4-1.74,6-2.57a12.08,12.08,0,0,1,15.55,6.21c.15.33-.34.62-.49.29a11.51,11.51,0,0,0-14.73-6c-2,.78-3.77,2-5.85,2.54a29.4,29.4,0,0,1-7.31.71A.28.28,0,0,1,95.2,19Z" style="fill:#010101"/><path d="M91.21,20.46l2.55-1.28a.28.28,0,0,1,.28.49L91.5,21a.3.3,0,0,1-.39-.1A.29.29,0,0,1,91.21,20.46Z" style="fill:#010101"/><path d="M124.11,26.34a29.53,29.53,0,0,0,6.82,9.3c.27.25-.13.65-.4.4a30,30,0,0,1-6.91-9.42C123.46,26.3,124,26,124.11,26.34Z" style="fill:#010101"/><path d="M117.76,9.8A16.43,16.43,0,0,1,125,10.91a7.43,7.43,0,0,1,4,4.23,9.07,9.07,0,0,1,.2,3.48,8.12,8.12,0,0,0,.11,2,10.69,10.69,0,0,0,.55,1.77c1,2.55,2.1,5,3.17,7.57A16.84,16.84,0,0,0,134,31.9a17.5,17.5,0,0,0,1.12,1.59,3.81,3.81,0,0,1,1,3.18.28.28,0,0,1-.54-.15,3.42,3.42,0,0,0-1-2.79,16.17,16.17,0,0,1-1.78-2.92c-1.05-2.36-2-4.77-3-7.15a13.25,13.25,0,0,1-1.1-3.4c-.16-1.24.11-2.48,0-3.72a6.22,6.22,0,0,0-3.22-4.73c-2.31-1.37-5.11-1.49-7.72-1.44A.29.29,0,0,1,117.76,9.8Z" style="fill:#010101"/><path d="M73.57,28a7.06,7.06,0,0,1,1.66-1.42,2.21,2.21,0,0,1,.27-2.27,27.42,27.42,0,0,1,2-2.57l4.15-5.22A5.67,5.67,0,0,1,83,13.23c1.16-1.31,2.87-1.93,4.35-2.78A6.31,6.31,0,0,0,89.24,8.9a4.18,4.18,0,0,1,1.33-1.83,4.25,4.25,0,0,1,3.72-.74,8.8,8.8,0,0,1,2.49-3.68A10.62,10.62,0,0,1,102.86.08c5.15-.55,10,1.92,14.24,4.5,2.15,1.29,4.31,2.8,5.53,5.06.17.32-.32.61-.49.29a12.66,12.66,0,0,0-4.6-4.42,45.29,45.29,0,0,0-6.25-3.36c-4.19-1.78-9.43-2.51-13.35.29a8.09,8.09,0,0,0-3.45,5.5c0,.35-.61.36-.57,0a9,9,0,0,1,.21-1.06,3.65,3.65,0,0,0-3.22.64A3.36,3.36,0,0,0,90,8.58a.23.23,0,0,1,0,.25,4.44,4.44,0,0,1-.27.38,3.91,3.91,0,0,0-.2,1.23.28.28,0,0,1-.56,0A2.26,2.26,0,0,1,89,10c-2.12,1.84-5.46,2.28-6.51,5.21a5.17,5.17,0,0,0-.26,1,.3.3,0,0,1,0,.4l-.07.09a5.4,5.4,0,0,0,.19,1.65.29.29,0,0,1-.55.16,5.34,5.34,0,0,1-.18-1.12l-3.31,4.17c-.64.81-1.29,1.61-1.92,2.42-.47.61-1.1,1.52-.67,2.29l0,0a.29.29,0,0,1,.39.1.3.3,0,0,1-.1.39A6.49,6.49,0,0,0,74,28.38a.29.29,0,0,1-.4,0A.31.31,0,0,1,73.57,28Z" style="fill:#010101"/><path d="M134.46,53.72s0,0,0,0Z" style="fill:#010101"/><path d="M130.86,39.57a.29.29,0,0,1,.4,0,2,2,0,0,1,.7,1.31c.4-.75.6-1.59,1-2.33A2.77,2.77,0,0,1,135.1,37a2.36,2.36,0,0,1,2.14,1.5A12.43,12.43,0,0,1,138,42a50,50,0,0,1,.61,7.53,31.87,31.87,0,0,1-.24,3.79,5.22,5.22,0,0,1-.79,2.5,2.14,2.14,0,0,1-2.61.75,2.11,2.11,0,0,1-1.14-2.49.15.15,0,0,1,0-.07.3.3,0,0,1,0-.35,1.13,1.13,0,0,1,.46-.46l-.23-.6a.27.27,0,0,1,.19-.35.29.29,0,0,1,.35.2l0,.08a.2.2,0,0,1,.11-.06.3.3,0,0,1,.32.13l.44.65a.29.29,0,0,1,0,.35.31.31,0,0,1-.33,0s0,0,0,0l0,0H135a.27.27,0,0,1-.24.26.28.28,0,0,1-.29-.15h0l-.1.11,0,0a.43.43,0,0,0,0,.07h0a.25.25,0,0,1,.08.27,1.54,1.54,0,0,0,1.11,1.92,1.7,1.7,0,0,0,1.9-1.11,7.81,7.81,0,0,0,.51-2.54q.15-1.59.15-3.18a47.44,47.44,0,0,0-.48-6.41c-.13-1-.27-2-.47-3a2.79,2.79,0,0,0-1.44-2.28c-1-.36-1.83.54-2.24,1.33a20.53,20.53,0,0,1-1.27,2.73.29.29,0,0,1-.41.07h-.12a.29.29,0,0,1-.2-.35v-.18a.74.74,0,0,0,0-.21.15.15,0,0,0,0-.07h0a.36.36,0,0,0,0-.1,1,1,0,0,0-.06-.23l0,0v0l0,0,0,0a.82.82,0,0,0-.12-.2l0,0h0a.46.46,0,0,0-.07-.07l-.17-.17A.27.27,0,0,1,130.86,39.57Z" style="fill:#010101"/><path d="M135.4,40.11h0a1.88,1.88,0,0,1,.23-.16.28.28,0,0,1,.29.49,1.37,1.37,0,0,0-.2.13v.09a.28.28,0,0,1,.36.19l.09.48,0-.61c0-.36.55-.36.57,0,.06,1.22.13,2.44.19,3.67,0,.36-.55.36-.56,0l-.06-1.08a.28.28,0,0,1-.32-.2l-.24-1.17a.28.28,0,0,1-.52,0,.92.92,0,0,1,0-.59.28.28,0,0,1-.52-.14A1,1,0,0,1,135.4,40.11Z" style="fill:#010101"/><path d="M135.07,46a.28.28,0,0,1,.35.19l.41,2.12a.28.28,0,1,1-.54.15l-.42-2.12A.29.29,0,0,1,135.07,46Z" style="fill:#010101"/><path d="M134.1,44.63a.27.27,0,0,1,.17-.13.29.29,0,0,1,.22,0,.33.33,0,0,1,.13.17l.38,1a.28.28,0,0,1,0,.22.36.36,0,0,1-.17.13.28.28,0,0,1-.22,0,.31.31,0,0,1-.13-.17l-.39-1A.32.32,0,0,1,134.1,44.63Z" style="fill:#010101"/><path d="M133.42,55.05a8.54,8.54,0,0,1,.84,5.23c-.06.36-.6.21-.55-.15a7.86,7.86,0,0,0-.78-4.79C132.76,55,133.25,54.73,133.42,55.05Z" style="fill:#010101"/><path d="M133.65,65a13.87,13.87,0,0,0,0-2,.28.28,0,0,1,.49-.18l.08-1.65c0-.37.58-.37.56,0,0,.82-.07,1.65-.11,2.48a.28.28,0,0,1-.44.23,6.73,6.73,0,0,1-.06,1.19c-.11.73-.23,1.46-.34,2.18-.06.36-.61.21-.55-.15Z" style="fill:#010101"/><path d="M127.3,44.68Z" style="fill:#010101"/><path d="M105,84.14a32,32,0,0,0,4.18,3.42,33.32,33.32,0,0,0,18.18,5.89,29.08,29.08,0,0,1-4.46,7c-.24.27.16.67.4.4a31.24,31.24,0,0,0,5.57-9.48,38.94,38.94,0,0,0,1.38-4.46l.46-.45a18.3,18.3,0,0,0,3.29-4.1,15.85,15.85,0,0,0,1.7-4.62,16.68,16.68,0,0,0,.32-2.82,12,12,0,0,0,.13-1.22.24.24,0,0,0-.16-.25A15.48,15.48,0,0,0,134.67,68c-.15-.33-.64,0-.49.28a14.69,14.69,0,0,1,1.29,5.37c0,.39,0,.78,0,1.17a12.17,12.17,0,0,1-1.06,3.22l0,0a.24.24,0,0,0-.22.2c0,.16-.09.31-.13.46a32.87,32.87,0,0,1-3,4.39,59.86,59.86,0,0,0,.66-10.7.28.28,0,0,0,.24-.27c.06-.71.13-1.42.19-2.12a.26.26,0,0,0-.23-.27l.25-.81.39,1.15a.29.29,0,0,0,.35.2.3.3,0,0,0,.2-.35c-.2-.58-.39-1.16-.58-1.73a.25.25,0,0,0-.09-.13l.15-.48c.1-.35-.44-.49-.55-.15L131.53,69c-.45-7.15-1.63-14.24-2.27-21.37a.25.25,0,0,0,.26-.34l-.46-1.22a.3.3,0,0,0-.35-.2l-.08.05a.32.32,0,0,0,.1-.21,1.6,1.6,0,0,0-1.25-1.6,1.83,1.83,0,0,0-1.15-1.51.29.29,0,1,0-.15.55,1,1,0,0,1,.25.15,1.35,1.35,0,0,0-1.44.19,1.25,1.25,0,0,0-.18,1.61,1.36,1.36,0,0,0,1.63.58,1.62,1.62,0,0,0,1-1l.1,0h.06l.2.12v0l0,0,.08.08,0,.05h0a.36.36,0,0,1,.07.1.31.31,0,0,1,0,.1l0,0h0a.9.9,0,0,1,.06.22h0a.13.13,0,0,0,0,.06.57.57,0,0,1,0,.13.3.3,0,0,0,.29.29l.08,0a.86.86,0,0,0,.15,1.45c.38,4.35,1,8.68,1.48,13,.39,3.34.74,6.71.89,10.09l-.19.63a.3.3,0,0,0-.07.11c-.25.9-.51,1.8-.77,2.7a.29.29,0,0,0,.55.15l.54-1.91a59,59,0,0,1-.56,10.37c-.08.48-.17,1-.26,1.45l-.49.63c-1.6,2.07-3.37,4.42-3.61,7.11a.43.43,0,0,0,0,.11l-1.89-.21a.29.29,0,0,0,0,.57l1.93.21a.3.3,0,0,0,.28-.29.24.24,0,0,0,0-.12.29.29,0,0,0,.26-.27,10,10,0,0,1,1.76-4.36c.47-.73,1-1.44,1.53-2.15-.1.44-.19.88-.3,1.32l-.51.54A7.18,7.18,0,0,0,127,92a.28.28,0,0,0,.56,0,6.32,6.32,0,0,1,1.93-4.24,38.22,38.22,0,0,1-1.84,5.2.27.27,0,0,0-.2-.09,31.93,31.93,0,0,1-5.34-.56,33.1,33.1,0,0,1-8.24-2.73l6.16,2a.28.28,0,0,0,.15-.54l-6.74-2.14a.27.27,0,0,0-.34.35,32.3,32.3,0,0,1-7.64-5.49C105.16,83.48,104.75,83.88,105,84.14Zm21.89-39.81a1,1,0,0,1-.77.88.81.81,0,0,1-.91-.49.65.65,0,0,1,.25-.86.91.91,0,0,1,.46-.1h0l.08,0,.07,0a.5.5,0,0,1,.2.15.28.28,0,0,0,.47-.16A1,1,0,0,1,126.91,44.33ZM133,81.48a15.13,15.13,0,0,1-2.23,3.27c0-.16.07-.32.1-.48C131.56,83.35,132.29,82.43,133,81.48Zm-2.45,4.37c0-.21.09-.41.13-.62a.25.25,0,0,0,.4,0A16.21,16.21,0,0,0,134.57,79c.18-.33.36-.68.52-1a15.34,15.34,0,0,1-2.16,5.1A18.36,18.36,0,0,1,130.52,85.85Z" style="fill:#010101"/><path d="M117.3,38.18a2.71,2.71,0,0,1,2.15.64.29.29,0,0,1,0,.33h0a.31.31,0,0,1,.31,0,.59.59,0,0,1,.64-.06.29.29,0,0,1,.1.39,2.22,2.22,0,0,1-.44.48.24.24,0,0,1-.11.13l-.12,0a2,2,0,0,1-.64.28.27.27,0,0,1-.33-.16.28.28,0,0,1,.11-.35l.41-.29,0-.08a.28.28,0,0,1,0-.22.21.21,0,0,1,0-.07.29.29,0,0,1-.35,0,.83.83,0,0,0-.16-.12,1.37,1.37,0,0,0-.2-.13,1.88,1.88,0,0,0-.39-.16,1.73,1.73,0,0,0-.41-.08h-.43a.29.29,0,0,1-.35-.2C117.08,38.4,117.15,38.2,117.3,38.18Z" style="fill:#010101"/><path d="M116.6,40.18h0S116.61,40.18,116.6,40.18Z" style="fill:#010101"/><path d="M111,42.13a1.4,1.4,0,0,0,1-.11,3.35,3.35,0,0,0,.46,3c1.32,1.78,3.94,2.18,6,1.78a7.7,7.7,0,0,0,3.86-2,.27.27,0,0,0,.31-.12,3.7,3.7,0,0,0,.25-.43h0l1.16.2a.3.3,0,0,0,.35-.2.28.28,0,0,0-.2-.35l-1-.17c.11-.16.22-.32.32-.49a.29.29,0,0,0-.23-.42,4.68,4.68,0,0,0-2.56-4.79,6,6,0,0,0-6.52.78A6.79,6.79,0,0,0,113.05,40l.09-.69,1.49-1.16a.27.27,0,0,0,0-.4.29.29,0,0,0-.4,0l-1.09.85a.25.25,0,0,0-.13-.09.29.29,0,0,0-.35.2l0,.3-.33.25a.29.29,0,0,0-.16,0,.25.25,0,0,0-.13.17v0l0,0a.27.27,0,0,0,0,.33l-.12.2a.27.27,0,0,0-.21.06.29.29,0,0,0,0,.37s0,0,0,0l-.77,1.16A.28.28,0,0,0,111,42.13Zm4.5-2.26a.93.93,0,0,0,.17.48,1,1,0,0,0,.15.14h-.16l-.13,0-.06,0h0l0,0a.35.35,0,0,1-.09-.06h0l0,0-.06-.06,0,0a.43.43,0,0,1,0-.07l0,0v0a.24.24,0,0,1,0-.08.22.22,0,0,0,.19,0Zm-2.7,1.64a.29.29,0,0,0,.19.07h2.12a.28.28,0,0,0,0-.56h-2a6.74,6.74,0,0,1,1.62-1.81,1.3,1.3,0,0,0-.17.58,1.22,1.22,0,0,0,.6,1.1,1.26,1.26,0,0,0,1.15,0l.11,0a.29.29,0,0,0,.27.22,1.18,1.18,0,0,0,.68-.31,1.26,1.26,0,0,0,.29-.43l.07-.1a1.33,1.33,0,0,0-.22-1.6.29.29,0,0,0-.4,0A.3.3,0,0,0,117,39v0h0a.31.31,0,0,0-.17-.13.83.83,0,0,0-.54,0,.18.18,0,0,0-.07,0,.75.75,0,0,0-.42,0,.28.28,0,0,0-.23-.19,5.24,5.24,0,0,1,5.51.19,4.16,4.16,0,0,1,1.6,4.53c-.19.2-.39.4-.59.59a.28.28,0,0,0,0,.35,7.16,7.16,0,0,1-4,2c-1.8.26-4.28-.19-5.23-1.92A3.1,3.1,0,0,1,112.75,41.51Zm3.49-1.35,0,0h0l-.05,0,0,0,0,0,0-.05v0a1.08,1.08,0,0,0,.7-.37l0,.06h0v0a.29.29,0,0,1,0,.09h0v.13h0v0l0,.09h0v0a.43.43,0,0,0,0,.07h0l0,0,0,0h0l0,0h0l-.08,0h-.17l-.07,0Zm-4.15,1.09.11-.32c.08,0,.18-.1.19-.19l.08-.58a.29.29,0,0,0,.2.26h.08a6.17,6.17,0,0,0-.47.82A.41.41,0,0,0,112.09,41.25Z" style="fill:#010101"/><path d="M113.71,41.82l1.74-.19a.28.28,0,0,1,.28.28.3.3,0,0,1,0,.1l0,0a.29.29,0,0,1,.35.2.3.3,0,0,1-.19.35h0a.33.33,0,0,1,.22,0,.36.36,0,0,1,.13.17.17.17,0,0,1,0,.1l.43-.07a.33.33,0,0,1,.22,0,.31.31,0,0,1,.13.17.29.29,0,0,1,0,.13l.89-.57a.28.28,0,1,1,.29.49l-.95.61a.29.29,0,0,1-.39-.1.34.34,0,0,1,0-.22h0l-1.16.19a.34.34,0,0,1-.22,0,.33.33,0,0,1-.13-.17v-.09l-.42.07a.28.28,0,0,1-.22,0,.25.25,0,0,1-.13-.17s0,0,0,0l-.23.09a.29.29,0,0,1-.35-.2.3.3,0,0,1,.2-.35l.89-.33-1.39.15a.28.28,0,0,1-.28-.29A.29.29,0,0,1,113.71,41.82Z" style="fill:#010101"/><path d="M113.83,36.76h0v0h0Z" style="fill:#010101"/><path d="M113.55,36.12a.28.28,0,0,1,.4.4l0,0,0,.05,0,0v0s0,0,0,.07h0v0h0v.14h0v0s0,0,0,.06v0s0,0,0,0h0l0,0,0,.07,0,0h0l0,0h0a.28.28,0,0,1,.1.38.28.28,0,0,1-.38.11,1.08,1.08,0,0,1-.18-1.62Z" style="fill:#010101"/><path d="M113.94,37.18Z" style="fill:#010101"/><path d="M113.86,37.05s0,0,0,0h0Z" style="fill:#010101"/><path d="M113.83,36.92h0a.08.08,0,0,1,0,0h0Z" style="fill:#010101"/><path d="M109.48,36.9a1.56,1.56,0,0,0,1.74.29l-.69.46a.29.29,0,0,0-.11.37l0,0a.28.28,0,0,0,.1.39l1.35.58a.3.3,0,0,0,.39-.1.32.32,0,0,0,0-.27l1.59-.69a.28.28,0,0,0-.29-.49l-1.9.82,0,0-.65-.28.76-.51h0a.29.29,0,0,0,.39.1l1.54-.78a.28.28,0,0,0,.1-.38.24.24,0,0,0-.22-.13l1.82-1,0,0a.29.29,0,0,0,.35-.2v0l1.76-.94a.31.31,0,0,0,.19.21.29.29,0,0,0,.35-.2l.21-.63.25,0s0,0,0,0l0,.07a.34.34,0,0,0,0,.22.36.36,0,0,0,.17.13.28.28,0,0,0,.22,0l.67-.5.55,0a.29.29,0,0,0,0-.57l-.47,0,0,0a.34.34,0,0,0-.22,0l0,0-.89.08a.3.3,0,0,0-.2-.3.29.29,0,0,0-.35.2l-.05.15c-.49.05-1,.12-1.47.19l-.07,0a.28.28,0,0,0-.18-.17.29.29,0,0,0-.35.2l0,.07-.24,0a.43.43,0,0,0-.1-.09.28.28,0,0,0-.38.1l-.05.09c-.63.13-1.26.26-1.88.42s-1.11.3-1.67.48a5.91,5.91,0,0,0-1.34.52A1.38,1.38,0,0,0,109.48,36.9ZM116,34.39l.17-.5,1-.16Zm-1.21.65.55-1,.19,0c-.08.26-.17.52-.26.78Zm-1.36.62c.24-.39.48-.78.73-1.16a.28.28,0,0,0,0-.22l.43-.1-.73,1.35-.35.18Zm-.7.05.33-1.08a.11.11,0,0,0,0-.08l.18,0,.29-.07Zm-1.57.85c.17-.52.34-1,.52-1.55v-.07c.25-.08.51-.14.76-.21l-.51,1.68a.28.28,0,0,0,0,.18.29.29,0,0,0,.1.46l-.18.09h0a.31.31,0,0,0-.17-.13.28.28,0,0,0-.26-.48Zm-1-1a.28.28,0,0,0,.12.16.19.19,0,0,0,.1,0h.12l.09-.05a.3.3,0,0,0,.08-.08l.19-.39s0,0,0-.06l.16-.06c-.16.48-.33,1-.49,1.46a.2.2,0,0,0,0,.15,1,1,0,0,1-.38,0C109.64,36.54,109.82,35.89,110.15,35.59Z" style="fill:#010101"/><path d="M109.23,38.25a.28.28,0,0,1,.38-.1l2.12,1a.28.28,0,0,1,.11.38.29.29,0,0,1-.39.11l-2.12-1A.28.28,0,0,1,109.23,38.25Z" style="fill:#010101"/><path d="M107.45,37.11a.28.28,0,0,1,.17-.13.29.29,0,0,1,.35.2c0,.32.11.65.17,1a.33.33,0,0,1,0,.22.36.36,0,0,1-.17.13.29.29,0,0,1-.35-.2l-.17-1A.33.33,0,0,1,107.45,37.11Z" style="fill:#010101"/><path d="M108.06,37a.28.28,0,0,1,.13-.17.29.29,0,0,1,.39.1l.38.78a.31.31,0,0,1,0,.21.25.25,0,0,1-.13.17.28.28,0,0,1-.38-.1l-.38-.77A.28.28,0,0,1,108.06,37Z" style="fill:#010101"/><path d="M100.51,44.31a.31.31,0,0,1,.13-.17.29.29,0,0,1,.22,0l1,.39a.29.29,0,0,1,.16.13.25.25,0,0,1,0,.22.26.26,0,0,1-.1.14h0a.3.3,0,0,1,.1.39.29.29,0,0,1-.39.1l0,0-.12,0h-.11a.2.2,0,0,0-.11,0,.19.19,0,0,0-.09.05l0,0a.28.28,0,0,1-.4,0,.29.29,0,0,1,0-.4.91.91,0,0,1,.51-.25l-.57-.23a.31.31,0,0,1-.17-.13A.33.33,0,0,1,100.51,44.31Z" style="fill:#010101"/><path d="M97.67,40.63s0,0,0,0v0Z" style="fill:#010101"/><path d="M91.38,44.05a.29.29,0,0,0,.39-.1c.1-.2.18-.4.26-.6a.28.28,0,0,0,.54.15c.2-.9.39-1.8.58-2.7a.24.24,0,0,0,0-.19,16,16,0,0,1,3.8-.86.1.1,0,0,0-.05.06c-.26.51-.52,1-.77,1.54a.28.28,0,0,0,.1.39.28.28,0,0,0,.38-.1l.53-1a.59.59,0,0,0,0,.13.29.29,0,0,0,.28.29.3.3,0,0,0,.29-.29v-.07h0v0h0s0-.05,0-.08a.49.49,0,0,1,0-.11h0l0,0a1.74,1.74,0,0,1,.11-.18h0l0,0,.08-.08,0,0,0,0h0l0,0,.09-.05,0,0h0a.83.83,0,0,1,.21-.06h.09l-.55,1a.3.3,0,0,0,.11.39.28.28,0,0,0,.38-.1c.26-.45.52-.9.77-1.35,0,0,0-.05,0-.07h.23l-.36.54a.28.28,0,1,0,.49.29l.52-.78.6,0-.45,1a.29.29,0,0,0,.1.39.3.3,0,0,0,.39-.1l.54-1.23.38.06c-.29.83-.59,1.66-.88,2.48-.12.35.42.5.55.16l.89-2.53a2.84,2.84,0,0,1,.31.06.31.31,0,0,0,.17,0l.43.05a.31.31,0,0,0,.07.24s0,0,0,0l0,0,.07.12a1.54,1.54,0,0,1,.09.19,2.37,2.37,0,0,1,.09.36c-.27-.13-.59.22-.34.43l.11.11a.24.24,0,0,0-.14.12l-.92,1.66c-.25-.23-.62.15-.38.41a3.57,3.57,0,0,1,.87,3.2c-.09.35.46.5.54.15a4.14,4.14,0,0,0-.13-2.29.23.23,0,0,0,.16-.13L104,43.6l-.15,1.56a.29.29,0,0,0,.29.28.2.2,0,0,0,.13,0,9.25,9.25,0,0,1-2,3.7.31.31,0,0,0-.07-.09.15.15,0,0,0-.09-.06.2.2,0,0,0-.11,0,.31.31,0,0,0-.2.09l-.38.38a.33.33,0,0,0-.09.2.29.29,0,0,0,.09.2.16.16,0,0,0,.08.06,6.91,6.91,0,0,1-1.38.85.28.28,0,0,0-.1.37L96.6,52.65c-.33.15,0,.64.29.49l4.22-2a.25.25,0,0,0,.06-.41A7.76,7.76,0,0,0,103.11,49a.29.29,0,0,0,.07-.22,6.27,6.27,0,0,0,.42-.63l.07.36-.12,0a.27.27,0,0,0-.08.07.31.31,0,0,0,0,.1.21.21,0,0,0,0,.11.23.23,0,0,0,0,.11l.2.38a.26.26,0,0,0,.16.13.22.22,0,0,0,.14,0l-.52.94a.29.29,0,0,0,.11.39.28.28,0,0,0,.38-.1l1.16-2.12a.3.3,0,0,0-.1-.39.32.32,0,0,0-.17,0,.6.6,0,0,0,.06-.11.76.76,0,0,0,0-.3l.1,0a.29.29,0,0,0,.13-.19.25.25,0,0,0,.19,0,.31.31,0,0,0,.2-.35l-.39-1.93a.2.2,0,0,0,0-.09,4,4,0,0,0,0-1.42.77.77,0,0,0,0-.15.23.23,0,0,0-.09-.21,4.26,4.26,0,0,0-.46-1.18.24.24,0,0,0-.07-.13,5,5,0,0,0-.33-.47,2.28,2.28,0,0,0-.35-1.51,6.27,6.27,0,0,0,2.71-.67c.33-.16,0-.65-.28-.49a5.67,5.67,0,0,1-3.46.53.22.22,0,0,0-.14,0l-.14,0,.08-.21a.24.24,0,0,0-.15-.32h.09a.29.29,0,0,0,.28-.28.28.28,0,0,0-.28-.28l-1.74.18a.29.29,0,0,0-.28.28.28.28,0,0,0,.28.29l.31,0-.06.15-.55-.06a.31.31,0,0,0-.14-.23.3.3,0,0,0-.39.1l0,.08a17.11,17.11,0,0,0-8.1,1.41c-.24.11-.15.38,0,.48a.36.36,0,0,0,0,.11,5.13,5.13,0,0,1-.54,2.55A.3.3,0,0,0,91.38,44.05Zm13.13,2.32c0-.13.1-.25.14-.38h0l.21,1Zm-.6-4s0-.07,0-.1h0c-.33.67-.67,1.33-1,2a4.34,4.34,0,0,0-.28-.46.3.3,0,0,0,.08-.08l.72-1.3A.27.27,0,0,0,103.91,42.4ZM101.6,39l.55-.06a.38.38,0,0,0-.11.14l-.09.25-.34-.05A.31.31,0,0,0,101.6,39Z" style="fill:#010101"/><polygon points="97.55 45.24 97.55 45.24 97.55 45.24 97.55 45.24" style="fill:#010101"/><polygon points="97.56 45.25 97.55 45.24 97.56 45.24 97.56 45.25" style="fill:#010101"/><path d="M97.56,45.25h0Z" style="fill:#010101"/><polygon points="97.68 45.34 97.69 45.35 97.69 45.35 97.68 45.34" style="fill:#010101"/><polygon points="97.56 45.24 97.56 45.24 97.56 45.24 97.56 45.24 97.56 45.24" style="fill:#010101"/><path d="M92.08,46.29a7.47,7.47,0,0,1,5.86-2.23c-.21.07-.42.14-.63.23a.45.45,0,0,0-.28,0,.26.26,0,0,0-.2.24,8.16,8.16,0,0,0-3.28,2.8c-.2.3.29.59.49.29a7.48,7.48,0,0,1,2.8-2.47A.86.86,0,0,0,97,46s0,0,0,0a0,0,0,0,0,0,0l-.25-.25a.28.28,0,0,0-.4,0,.29.29,0,0,0,0,.4l.38.39a.41.41,0,0,0,0,.16l.08.08a12.61,12.61,0,0,0-1.54.82c-.31.2,0,.69.29.49a11.72,11.72,0,0,1,4.85-1.75c.36,0,.36-.62,0-.57a12.32,12.32,0,0,0-1.71.34,1.89,1.89,0,0,0,.45-.89v-.05a3,3,0,0,0,0-.42.3.3,0,0,0-.29-.28.28.28,0,0,0-.28.28v0l-.25-.06a.28.28,0,0,0-.32.15.83.83,0,0,0-.3-.18l.64-.2a.27.27,0,0,0,.15-.43c.26-.07.34-.49,0-.54a8,8,0,0,0-6.86,2.34C91.43,46.15,91.83,46.55,92.08,46.29Zm5.38-.62,0,0h0l-.06-.11v0a.13.13,0,0,1,0-.06h0s0,0,0,0v0h0v0a.3.3,0,0,0,.13-.09h.09l0,0,0,0,0,0h0v0l0,.06h0a.56.56,0,0,1,0,.12v.08h0v0h0a.58.58,0,0,0-.19,0Z" style="fill:#010101"/><path d="M98.52,49.15a4.69,4.69,0,0,0,2.23-2,.28.28,0,0,1,.49.29,5.07,5.07,0,0,1-2.44,2.2.27.27,0,0,1-.38-.1A.28.28,0,0,1,98.52,49.15Z" style="fill:#010101"/><path d="M89.81,46.29l1.16,1a.29.29,0,0,0,.4,0,.35.35,0,0,0,.07-.12,3.46,3.46,0,0,0,.19.7,3.66,3.66,0,0,0,.42.78h0a.27.27,0,0,0-.24.08,1.17,1.17,0,0,0-.29.52s0,.06,0,.09a.5.5,0,0,0,0,.12,1.09,1.09,0,0,0,0,.31.27.27,0,0,0,.14.31.24.24,0,0,0,0,.14.29.29,0,0,0,.28.29h1c-.13,1-.27,1.94-.41,2.91a.29.29,0,0,0,.2.35.28.28,0,0,0,.35-.2l.24-1.72a.29.29,0,0,0,.27.2.3.3,0,0,0,.28-.29V50.36a.26.26,0,0,0-.07-.17.19.19,0,0,0-.14-.09,0,0,0,0,0,0,0,6,6,0,0,0,1.47.69,9.42,9.42,0,0,0,5.72-.41c.34-.12.19-.67-.15-.55a11.86,11.86,0,0,1-3.17.66l1.16-.16a.28.28,0,0,0,.2-.35.3.3,0,0,0-.35-.2l-2.89.4a.23.23,0,0,0-.16.11l-.5-.15a4.35,4.35,0,0,1-2.85-3,4.25,4.25,0,0,1,1.2-3.7,5,5,0,0,1,1.08-.9.28.28,0,0,0,.2.22.29.29,0,0,0,.35-.2l.08-.36c2.07-.94,4.62-.52,6.77.31a.27.27,0,0,0,.13.24.29.29,0,0,0,.34-.05l.18.08c.33.15.62-.34.29-.49l-.2-.08.74-1.49a.29.29,0,0,0-.1-.39.28.28,0,0,0-.39.1L101.89,42a10.67,10.67,0,0,0-5.52-.82l-.61.13.45-.78a.28.28,0,1,0-.49-.29l-.63,1.1.15-.69a.29.29,0,0,0-.2-.35.28.28,0,0,0-.34.2l-.07.28a.12.12,0,0,0,0,0,.28.28,0,0,0-.39.1l-.63,1.29c.07-.36.15-.71.22-1.07a.29.29,0,1,0-.55-.15l-.39,1.93a.5.5,0,0,0,0,.17c-.17.18-.33.37-.49.57a4.84,4.84,0,0,0-1,3.37s0,0,0,0l-1.16-1a.27.27,0,0,0-.4,0A.29.29,0,0,0,89.81,46.29Zm2.25,3.29,0-.1a.44.44,0,0,0,.12-.15.78.78,0,0,0,.07-.3.14.14,0,0,0,0-.09,5.14,5.14,0,0,0,1,.94l-.46-.12a.25.25,0,0,0-.13-.2.28.28,0,0,0-.37.08Z" style="fill:#010101"/><path d="M95.35,51.76a.24.24,0,0,1,.06-.09l.09-.06s0,0,0,0a.2.2,0,0,1,0-.11.33.33,0,0,1,.13-.17l.07,0a.2.2,0,0,1,.15,0,.35.35,0,0,1,.15.07l.05,0,.06.08a.65.65,0,0,1,.05.2.59.59,0,0,1,0,.13.65.65,0,0,1,0,.13l0,0a.27.27,0,0,1-.08.1.42.42,0,0,1-.17.1.5.5,0,0,1-.21,0,.42.42,0,0,1-.18-.11.15.15,0,0,1-.06-.09.2.2,0,0,1,0-.11A.23.23,0,0,1,95.35,51.76Z" style="fill:#010101"/><path d="M92,51.14v2.7a.28.28,0,0,1-.56,0v-2.7A.28.28,0,0,1,92,51.14Z" style="fill:#010101"/><path d="M91,51.91V54a.29.29,0,0,1-.57,0V51.91A.29.29,0,0,1,91,51.91Z" style="fill:#010101"/><path d="M90.27,51.71V54.8a.29.29,0,0,1-.57,0V51.71A.29.29,0,0,1,90.27,51.71Z" style="fill:#010101"/><path d="M88.89,51.71c0-.36.6-.36.57,0l-.37,4c0,.36-.6.37-.57,0Z" style="fill:#010101"/><path d="M87.58,52.1a.29.29,0,0,1,.57,0L88,54a.29.29,0,0,1-.28.28.28.28,0,0,1-.28-.28Z" style="fill:#010101"/><path d="M89.93,49.06a.43.43,0,0,1,.17-.13l1-.38a.25.25,0,0,1,.22,0,.33.33,0,0,1,.13.17.28.28,0,0,1-.2.34l-1,.39a.25.25,0,0,1-.22,0,.33.33,0,0,1-.13-.17A.34.34,0,0,1,89.93,49.06Z" style="fill:#010101"/><path d="M93.12,37a.3.3,0,0,1,.39.11h0l0,.05.08.09.19.19.18.16h0l0,0,.11.07a2.67,2.67,0,0,0,.43.25l.07,0h0l.11.05.25.07a.29.29,0,1,1-.15.55A3.52,3.52,0,0,1,93,37.39.29.29,0,0,1,93.12,37Z" style="fill:#010101"/><path d="M91.51,37.64a.24.24,0,0,1,.2-.08.3.3,0,0,1,.2.08l1,.79a.25.25,0,0,1,.09.2.28.28,0,0,1-.09.2.28.28,0,0,1-.2.08.3.3,0,0,1-.2-.08L91.51,38a.28.28,0,0,1-.08-.2A.3.3,0,0,1,91.51,37.64Z" style="fill:#010101"/><path d="M89.46,36.81a.3.3,0,0,1,.39.1L92,40a.28.28,0,0,1-.1.38.28.28,0,0,1-.39-.1c-.71-1-1.42-2.05-2.12-3.08A.28.28,0,0,1,89.46,36.81Z" style="fill:#010101"/><path d="M88.35,37l2.56,2.65a.28.28,0,0,1-.4.4L88,37.35C87.7,37.09,88.1,36.69,88.35,37Z" style="fill:#010101"/><path d="M85.73,39c-.27-.24.13-.63.4-.4a13,13,0,0,1,2.94,3.53.28.28,0,0,1-.49.29A12.77,12.77,0,0,0,86,39.23l3.58,4.94a.23.23,0,0,1,.07.07l.09.13a.29.29,0,0,1,.07-.16,2.83,2.83,0,0,0,.65-2,.28.28,0,0,1,.28-.28.3.3,0,0,1,.22.11l.14-.66a.29.29,0,0,1,.35-.2.3.3,0,0,1,.2.35l-.57,2.7a.3.3,0,0,1-.35.2.28.28,0,0,1-.2-.32,3.65,3.65,0,0,1-.32.45.28.28,0,0,1-.26.07l0,.07c.21.3-.28.58-.49.29l-4.1-5.66C85.24,39.15,85.51,38.93,85.73,39Z" style="fill:#010101"/><path d="M84.45,41a35.78,35.78,0,0,0,5.72,6.32c.28.24-.12.64-.4.41A36.64,36.64,0,0,1,84,41.25C83.75,41,84.24,40.66,84.45,41Z" style="fill:#010101"/><path d="M84.28,39.1l2.46,2.74c.25.27-.15.68-.4.4L83.88,39.5C83.64,39.23,84,38.83,84.28,39.1Z" style="fill:#010101"/><path d="M81.22,46.2l4.4,4.08a.46.46,0,0,1,.13.08l.35.35c.26-.39.51-.79.77-1.19L84.2,47.09c-.27-.25.13-.65.4-.4l2.18,2-5.39-6.28c-.24-.28.16-.68.4-.4l6.14,7.16a.3.3,0,0,1-.11.47l1,.93c.27.24-.13.64-.4.4l-1.14-1-.9,1.39a.3.3,0,0,1-.39.1.23.23,0,0,1-.07-.07l-.07,0L80.82,46.6C80.55,46.35,81,46,81.22,46.2Z" style="fill:#010101"/><path d="M82.53,41.15a24.26,24.26,0,0,0,5.69,6.74c.29.23-.12.63-.4.4A24.76,24.76,0,0,1,82,41.43.28.28,0,0,1,82.53,41.15Z" style="fill:#010101"/><path d="M82.11,52.45a10.17,10.17,0,0,0,4.43,2.2,17,17,0,0,1-.68-2.09.29.29,0,0,1,.55-.15A15.66,15.66,0,0,0,89,58c.22.3-.27.58-.48.29a15.88,15.88,0,0,1-1.77-3,.22.22,0,0,1-.18,0,10.59,10.59,0,0,1-4.89-2.39C81.43,52.61,81.84,52.21,82.11,52.45Z" style="fill:#010101"/><path d="M80.35,47.85l5.14,4.51c.27.24-.13.64-.4.4L80,48.25C79.67,48,80.07,47.61,80.35,47.85Z" style="fill:#010101"/><path d="M82.91,55a6.6,6.6,0,0,0,4.64,3.17c.36,0,.21.6-.15.54a7.11,7.11,0,0,1-5-3.42A.28.28,0,0,1,82.91,55Z" style="fill:#010101"/><path d="M84.51,58.55a.29.29,0,0,1,.35-.2l.77.18a.28.28,0,0,1,.2.35.29.29,0,0,1-.35.2l-.77-.19A.29.29,0,0,1,84.51,58.55Z" style="fill:#010101"/><path d="M84.93,64.44a12.62,12.62,0,0,0,3.36,3.91,5.28,5.28,0,0,0,1.65.93.3.3,0,0,1,.32-.14,2.52,2.52,0,0,0,1.54-.31l-.87,0a.29.29,0,0,1-.14-.53.79.79,0,0,0,.35-1l-1,1.14a.28.28,0,0,1-.4-.4c.38-.46.76-.91,1.15-1.36a.27.27,0,0,1,.4,0,0,0,0,0,0,0,0,.3.3,0,0,1,.19.13,1.34,1.34,0,0,1,.07,1.38l.65,0s0-.06,0-.09c.06-.35.57-.21.55.12a.3.3,0,0,1,0,.44,2.74,2.74,0,0,1-.36.32,2.22,2.22,0,0,1-1.26.83,3.49,3.49,0,0,1-2.73-.66,12.9,12.9,0,0,1-4.07-4.49C84.27,64.4,84.76,64.12,84.93,64.44Z" style="fill:#010101"/><path d="M87.28,66.56a.24.24,0,0,1,.2-.08.3.3,0,0,1,.2.08l1,.77a.27.27,0,0,1,.09.2.31.31,0,0,1-.09.2.24.24,0,0,1-.2.08.3.3,0,0,1-.2-.08l-1-.77a.27.27,0,0,1-.09-.2A.31.31,0,0,1,87.28,66.56Z" style="fill:#010101"/><path d="M72.86,76.79l4.68-9c.16-.3.58-.08.51.22,2.29.35,3.93-1.88,5.11-3.5s2.75-3.47,5-3.45a.29.29,0,0,1,0,.57c-2.43,0-3.85,2.34-5.14,4s-3,3.28-5.21,2.86l-4.44,8.57C73.19,77.4,72.7,77.11,72.86,76.79Z" style="fill:#010101"/><path d="M77.22,46.85c0,.21.09.42.14.63l0-.06a7,7,0,0,0,2.41-5.35.25.25,0,0,1,.1-.22.29.29,0,0,1,.17-.19,5,5,0,0,0,3.18-3.95,4.87,4.87,0,0,1-.52-.12c-.34-.11-.2-.66.15-.55a3.43,3.43,0,0,0,.46.11.28.28,0,0,1,.54.1,5.8,5.8,0,0,0,4.32-1.19c.29-.22.69.18.4.4a6.22,6.22,0,0,1-1.57.92.27.27,0,0,1,.28.11c.77,1.06,1.54,2.11,2.3,3.17a.27.27,0,0,1,.19.13l.39.65c.19.32-.28.58-.49.29-1-1.32-1.92-2.63-2.87-3.95a.22.22,0,0,1,.07-.35,6.51,6.51,0,0,1-3.09.38,5.65,5.65,0,0,1-3.45,4.35,7.48,7.48,0,0,1-2.57,5.66.28.28,0,0,1-.36,0,26,26,0,0,1,.62,5.27.3.3,0,0,1,.25.07c1.11.88,2.22,1.76,3.32,2.65a.28.28,0,0,1,0,.4.29.29,0,0,1-.4,0L78.08,53.7a25.21,25.21,0,0,1-.79,6,.28.28,0,0,1-.54-.15A24.76,24.76,0,0,0,76.67,47,.29.29,0,0,1,77.22,46.85Z" style="fill:#010101"/><path d="M89.31,35.67a.33.33,0,0,1,.13-.17.34.34,0,0,1,.22,0l.58.2a.27.27,0,0,1,.17.13.31.31,0,0,1,0,.21.28.28,0,0,1-.13.17.25.25,0,0,1-.22,0L89.51,36a.37.37,0,0,1-.17-.13A.33.33,0,0,1,89.31,35.67Z" style="fill:#010101"/><path d="M91.82,36.15a2.32,2.32,0,0,0,3.11-2.49.3.3,0,0,1,.2-.35.28.28,0,0,1,.34.2,2.94,2.94,0,0,1-1,2.66,3,3,0,0,1-2.84.53C91.32,36.58,91.47,36,91.82,36.15Z" style="fill:#010101"/><path d="M83.62,33.38l3.3-.16a.27.27,0,0,1-.11-.21v-.58a.28.28,0,0,1,.08-.2.31.31,0,0,1,.2-.09.3.3,0,0,1,.29.29V33a.33.33,0,0,1-.09.2h0l6-.29A15.94,15.94,0,0,1,89,30.3c-.28-.24.12-.64.4-.4a14.85,14.85,0,0,0,4.08,2.49.29.29,0,0,1,.2.35.31.31,0,0,1-.12.16l.63,0c.36,0,.36.55,0,.57L83.62,34C83.26,34,83.26,33.4,83.62,33.38Z" style="fill:#010101"/><path d="M74.72,40.12a33.23,33.23,0,0,1,5.45-5.35c.28-.22.69.17.4.4a33.23,33.23,0,0,0-5.45,5.35C74.89,40.81,74.5,40.4,74.72,40.12Z" style="fill:#010101"/><path d="M89.13,59.74c.2-1,.39-1.93.58-2.89a.29.29,0,1,1,.55.15c-.19,1-.39,1.93-.58,2.89a.29.29,0,0,1-.55-.15Z" style="fill:#010101"/><path d="M89.52,62.06c.47-1.74.93-3.47,1.4-5.2a.28.28,0,0,1,.54.15c-.46,1.73-.93,3.46-1.39,5.2A.29.29,0,0,1,89.52,62.06Z" style="fill:#010101"/><path d="M91.19,64.2a.59.59,0,0,0,.06-.14.35.35,0,0,0,0,.14c.78,1.61,1.57,3.21,2.35,4.81h0a.26.26,0,0,0,.15.32l2.16,4.42a.24.24,0,0,0,0,.4l.36.29.23.46a.26.26,0,0,0,.43,0l4,3.18c.29.22.69-.18.41-.4l-4.66-3.65q-1.26-2.56-2.5-5.13l1.25-4.84,1,1-.66,2.72a.27.27,0,0,0-.12.46h0l-.44,1.83c-.09.35.46.5.54.15l.38-1.54.84.78-.63,2c-.12.34.43.49.54.15L97.53,70l.72.68a.29.29,0,0,0,.46-.1c0,.12-.08.25-.13.38-.13.34.42.48.55.15a26.67,26.67,0,0,0,1.56-6.83c0-.36-.54-.36-.57,0s-.06.52-.1.77l-.68-.62.64-2c.12-.34-.43-.49-.54-.15L98.88,64l-1.21-1.11L98,61.63a.29.29,0,0,0-.55-.15l-.23.94-1-1,.35-1.35A.29.29,0,0,0,96,60L95.69,61,94.6,60c.05-.45.08-.91.1-1.36a.29.29,0,0,0-.57,0c0,.29,0,.58,0,.88l-.69-.64c-.26-.24-.67.16-.4.4l1,.94a15.86,15.86,0,0,1-1.17,4.26c-.15.33.34.61.49.28a17.15,17.15,0,0,0,.74-2.08l1,.94-1.17,4.53q-1-2.13-2.08-4.25a.26.26,0,0,0-.43-.05,17.76,17.76,0,0,0,1.43-6.18c0-.36-.55-.36-.56,0a17,17,0,0,1-1.5,6.23C90.56,64.25,91,64.53,91.19,64.2Zm7.5.37c-.16.48-.31,1-.47,1.45l-1.06-1,.36-1.48Zm.92,2.84-.94-.94L99.15,65l.67.62a.34.34,0,0,0,.12.06Q99.81,66.54,99.61,67.41Zm-1.89,2,.75-2.31,1,1a23.56,23.56,0,0,1-.74,2.48.24.24,0,0,0-.07-.28ZM97,65.61l1,1c-.25.78-.5,1.56-.76,2.34l-.88-.82Zm-1.35-2.14c.12-.46.24-.92.35-1.38l1,1-.36,1.45ZM95.18,63l-.92-.91s0,0,0,0c.11-.45.21-.91.28-1.37l1,.95Z" style="fill:#010101"/><path d="M81.15,32.77a.29.29,0,0,1-.08-.19.29.29,0,0,1,.49-.2,1.4,1.4,0,0,1,.17,1.53.28.28,0,0,1-.39.11.3.3,0,0,1-.1-.39l0,0a.08.08,0,0,1,0-.05l0-.15h0a.2.2,0,0,0,0-.07.76.76,0,0,0,0-.15v0s0,0,0-.07,0-.09,0-.13v0a.25.25,0,0,1,0-.07l0-.06v0h0Z" style="fill:#010101"/><path d="M77.06,29.06a43.72,43.72,0,0,1,5.72-.25.19.19,0,0,1,.11-.12,2.92,2.92,0,0,0,1.47-1.92.29.29,0,0,1,.35-.2.3.3,0,0,1,.2.35,3.46,3.46,0,0,1-1.24,1.92c1.15.06,2.3.15,3.44.3.35,0,.36.61,0,.56a42.24,42.24,0,0,0-10-.07C76.7,29.67,76.7,29.1,77.06,29.06Z" style="fill:#010101"/><path d="M73,37.3q1.23-2.8,2.48-5.61c.15-.33.64,0,.49.29l-2.48,5.6C73.3,37.92,72.81,37.63,73,37.3Z" style="fill:#010101"/><path d="M69.23,43.63l2.41-4c.19-.31.68,0,.49.29q-1.2,2-2.41,4A.28.28,0,0,1,69.23,43.63Z" style="fill:#010101"/><path d="M66.55,55.1a39.33,39.33,0,0,0,2-9c0-.36.61-.37.57,0a40.1,40.1,0,0,1-2,9.12C67,55.6,66.43,55.45,66.55,55.1Z" style="fill:#010101"/><path d="M68.33,51.38q1.64-2.52,3.28-5c.2-.3.69,0,.49.29l-3.28,5C68.62,52,68.13,51.68,68.33,51.38Z" style="fill:#010101"/><path d="M60.27,68.67a13.5,13.5,0,0,0,4-5.64c.13-.33.68-.19.55.15a14.16,14.16,0,0,1-4.17,5.89C60.39,69.3,60,68.9,60.27,68.67Z" style="fill:#010101"/><path d="M60.09,69.18a.28.28,0,0,1,0,.56A.28.28,0,0,1,60.09,69.18Z" style="fill:#010101"/><path d="M59.58,70a.29.29,0,0,1,.28-.28.28.28,0,0,1,.28.28L60,72a.29.29,0,0,1-.28.29.28.28,0,0,1-.28-.29Z" style="fill:#010101"/><path d="M69,66.11a10.1,10.1,0,0,0,5.71,2.66c.36,0,.36.61,0,.57a10.78,10.78,0,0,1-6.11-2.82C68.36,66.27,68.76,65.87,69,66.11Z" style="fill:#010101"/><path d="M87.23,25.5a4.46,4.46,0,0,0,3.19-3.19.29.29,0,0,1,.55.15A5,5,0,0,1,87.38,26,.28.28,0,0,1,87.23,25.5Z" style="fill:#010101"/><path d="M85.09,25.79l1.15-.19a.28.28,0,0,1,.22,0,.3.3,0,0,1,.13.17c0,.14,0,.33-.19.35l-1.16.2a.33.33,0,0,1-.22,0,.31.31,0,0,1-.13-.17A.29.29,0,0,1,85.09,25.79Z" style="fill:#010101"/><path d="M89,21.12a.31.31,0,0,1,.13-.17.34.34,0,0,1,.22,0l.59.16a.31.31,0,0,1,.17.13.34.34,0,0,1,0,.22.33.33,0,0,1-.13.17.29.29,0,0,1-.22,0l-.59-.16a.31.31,0,0,1-.17-.13A.28.28,0,0,1,89,21.12Z" style="fill:#010101"/><path d="M76.59,25.37A40.89,40.89,0,0,0,87,21.7c.33-.17.61.32.29.49a41.69,41.69,0,0,1-10.55,3.73C76.39,26,76.24,25.45,76.59,25.37Z" style="fill:#010101"/><path d="M72.64,29.47c.06-.35.61-.2.55.16l-.94,5.79c-.06.35-.61.2-.55-.16Q72.18,32.36,72.64,29.47Z" style="fill:#010101"/><path d="M70.89,36.27a.29.29,0,0,1,.57,0L71,40.53a.29.29,0,0,1-.57,0Z" style="fill:#010101"/><path d="M112.48,54a1.37,1.37,0,0,1,1.08-1.25,1.28,1.28,0,0,1,1.41.76,1.3,1.3,0,0,1,0,1,.29.29,0,0,1-.34.2.28.28,0,0,1-.2-.35l0-.1s0-.05,0-.06a.6.6,0,0,0,0-.19h0v0l0-.1a.31.31,0,0,0,0-.08s0-.06,0-.06l-.09-.15,0-.05a.46.46,0,0,1-.07-.07h0l0,0-.06,0-.07,0,0,0h0a.18.18,0,0,1,0,.1.2.2,0,0,1,0,.11.28.28,0,0,1-.13.17.42.42,0,0,1-.12,0,.19.19,0,0,1,0,.07.36.36,0,0,1-.07.18l.3,0a.31.31,0,0,1,.21,0,.27.27,0,0,1,.13.17c0,.14,0,.33-.19.35l-1.16.18a.33.33,0,0,1-.22,0,.25.25,0,0,1-.13-.17.26.26,0,0,1,0-.21A.29.29,0,0,1,112.48,54Z" style="fill:#010101"/><path d="M108.15,54.55h0Z" style="fill:#010101"/><path d="M105.37,54.85a2.53,2.53,0,0,1,2-1.11.31.31,0,0,1,.27.18h0a.28.28,0,0,1,0-.18.29.29,0,0,1,.39-.1l1.74,1a.29.29,0,0,1,.1.39.29.29,0,0,1-.39.1l-.57-.31a.27.27,0,0,1-.08.07L109,55a.26.26,0,0,1,0,.3.28.28,0,0,1-.25.18.47.47,0,0,1-.46-.27l-.45.25-.06,0s0,0,0,0a.33.33,0,0,1,0,.22.31.31,0,0,1-.17.13.28.28,0,0,1-.22,0l-.57-.39a.27.27,0,0,1-.13-.17.33.33,0,0,1,0-.22.31.31,0,0,1,.17-.13.33.33,0,0,1,.22,0l.33.22a.25.25,0,0,1,.13-.2l.64-.34-.07,0h0l-.09,0h-.63a.27.27,0,0,1-.25-.18l-.24.05-.22.08h0l0,0-.12.06-.2.13,0,0h0a.36.36,0,0,0-.09.08A.77.77,0,0,0,106,55l0,0s0,0,0,0l-.07.11a.28.28,0,1,1-.49-.29Z" style="fill:#010101"/><path d="M104.21,52.15l.77-1.54a.27.27,0,0,1,.38-.1.28.28,0,0,1,.11.38l-.78,1.55a.28.28,0,0,1-.38.1A.28.28,0,0,1,104.21,52.15Z" style="fill:#010101"/><path d="M104,50.62c.19-.26.38-.52.58-.77a.28.28,0,0,1,.17-.13.26.26,0,0,1,.21,0,.23.23,0,0,1,.13.16.28.28,0,0,1,0,.22l-.58.77a.3.3,0,0,1-.17.13.33.33,0,0,1-.22,0,.31.31,0,0,1-.13-.17A.25.25,0,0,1,104,50.62Z" style="fill:#010101"/><path d="M115.41,50.39a.31.31,0,0,1,.17-.13.28.28,0,0,1,.22,0l.77.58a.31.31,0,0,1,.13.17.28.28,0,0,1,0,.22.31.31,0,0,1-.17.13.33.33,0,0,1-.22,0l-.77-.58a.31.31,0,0,1-.13-.17A.28.28,0,0,1,115.41,50.39Z" style="fill:#010101"/><path d="M117.36,51.43a.28.28,0,0,1,.35.19l0,.11a.4.4,0,0,1,.15-.1.29.29,0,0,1,.34.2l.39,1.55a.28.28,0,0,1-.53.17.26.26,0,0,1-.18.16.29.29,0,0,1-.35-.2l-.39-1.73A.29.29,0,0,1,117.36,51.43Z" style="fill:#010101"/><path d="M119.23,52.21a.28.28,0,0,1,.34.2l.42,1.38,0-.1a.31.31,0,0,1,.17-.13.34.34,0,0,1,.22,0,.37.37,0,0,1,.13.17l.38,1a.26.26,0,0,1,0,.21.3.3,0,0,1-.17.13.28.28,0,0,1-.22,0,.36.36,0,0,1-.13-.17l-.26-.65,0,.11a.28.28,0,1,1-.54.15c-.2-.64-.39-1.29-.58-1.93A.28.28,0,0,1,119.23,52.21Z" style="fill:#010101"/><path d="M111.41,56.77c.32,1,.64,2.06,1,3.09.11.35.66.2.55-.15-.19-.63-.39-1.26-.58-1.89l.69,1a.29.29,0,0,0,.41.07h0a.27.27,0,0,0,.34.19l.23-.07a.34.34,0,0,0,0,.1.25.25,0,0,0,.13.17.33.33,0,0,0,.22,0h.06l1.39,3.3a.29.29,0,0,0,.39.1.3.3,0,0,0,.1-.39L115,59.26l.33,0a10.68,10.68,0,0,1,1.37,3.58c.06.36.61.2.54-.15A10.82,10.82,0,0,0,115.88,59a.29.29,0,0,0,0-.22.25.25,0,0,0-.13-.17.27.27,0,0,0-.15,0l-.08-.13a.29.29,0,0,0-.41-.07v0a.3.3,0,0,0-.35-.2l-.42.14,1.54-.56a.28.28,0,0,0,.19-.34.27.27,0,0,0-.21-.2h0a.28.28,0,0,0-.15-.54l-1.27.38a.3.3,0,0,0,0-.1l.06-.61s0,0,0,0l.23.07a.29.29,0,0,0,.35-.2.3.3,0,0,0-.2-.35,2.59,2.59,0,0,0-1.35-.15.35.35,0,0,0,0-.11.3.3,0,0,0-.17-.13l-1.16-.18a.33.33,0,0,0-.22,0,.25.25,0,0,0-.13.17.29.29,0,0,0,.2.35l.7.1a.2.2,0,0,0-.11.13.28.28,0,0,0-.28.35l.22.88a.29.29,0,0,0-.35-.06.23.23,0,0,0-.1.12l-.22-.71C111.85,56.28,111.31,56.42,111.41,56.77Zm1.86-.43a2.17,2.17,0,0,1,.65-.14l.15,0a.29.29,0,0,0,0,.13l0,.2-.33-.15a.32.32,0,0,0-.29,0Z" style="fill:#010101"/><path d="M112.74,64.82a3.83,3.83,0,0,1,2.12-1,.25.25,0,0,1,.25.16l.07,0,.25-.1q-.14-.37-.3-.75a.1.1,0,0,1,0,.07.28.28,0,0,1-.17.13.28.28,0,0,1-.34-.2c-.07-.31-.13-.62-.19-.93a.34.34,0,0,1,0-.22l0,0a9.58,9.58,0,0,0-.9-1.22c-.24-.27.16-.67.4-.4a10.15,10.15,0,0,1,2,3.38l1.86-.7c.3-.12.51.37.22.51l-1,.49a.32.32,0,0,1-.3,0l-.79.3a.34.34,0,0,1-.15.06l-.5.18a.27.27,0,0,1-.32-.14h0l-.57.3a.29.29,0,0,1-.35-.06l-.12.05a3.64,3.64,0,0,0-.82.54.28.28,0,0,1-.4-.4Z" style="fill:#010101"/><path d="M110.16,65.31l1.54-.39a.28.28,0,1,1,.15.54l-1.54.39a.28.28,0,0,1-.35-.2A.27.27,0,0,1,110.16,65.31Z" style="fill:#010101"/><path d="M110.74,61.59l.77-1.16a.29.29,0,0,1,.39-.1.29.29,0,0,1,.1.39l-.76,1.14a.33.33,0,0,1,.16.07A5.36,5.36,0,0,1,113,64.18a.28.28,0,0,1-.2.34.29.29,0,0,1-.35-.19,4.86,4.86,0,0,0-1.47-2,.27.27,0,0,1,0-.32.17.17,0,0,1-.1,0A.29.29,0,0,1,110.74,61.59Z" style="fill:#010101"/><path d="M102,66l2.69-5.11a.24.24,0,0,1,.33-.12,8,8,0,0,0-1.48-4.45c-.21-.3.28-.58.49-.28a8.61,8.61,0,0,1,1.56,5.31.29.29,0,0,1-.55.1l-2.55,4.84C102.35,66.62,101.87,66.33,102,66Z" style="fill:#010101"/><path d="M100.88,65.73a.36.36,0,0,1,.13-.17.34.34,0,0,1,.22,0,.43.43,0,0,1,.17.13l.57.78a.24.24,0,0,1,0,.22.36.36,0,0,1-.13.17.28.28,0,0,1-.22,0,.26.26,0,0,1-.16-.13l-.58-.77A.28.28,0,0,1,100.88,65.73Z" style="fill:#010101"/><path d="M115,68.15l5.41-2.89a.28.28,0,0,1,.28.49l-5.4,2.89C114.93,68.81,114.64,68.32,115,68.15Z" style="fill:#010101"/><path d="M111.2,68.6h3.47a.28.28,0,0,1,0,.56H111.2A.28.28,0,0,1,111.2,68.6Z" style="fill:#010101"/><path d="M108,66.88a.3.3,0,0,1,.35.19c0-.06,0,0,0,0l0,0,.06.1.06.1,0,0h0a1.29,1.29,0,0,0,.16.17l.09.08,0,0s0,0,0,0a.76.76,0,0,0,.19.12l.11.06h0l0,0a1.55,1.55,0,0,0,.23.06l.11,0h.08a.29.29,0,0,1,.28.29.28.28,0,0,1-.28.28,2.14,2.14,0,0,1-1.83-1.34A.28.28,0,0,1,108,66.88Z" style="fill:#010101"/><path d="M116.4,58.55a.29.29,0,0,1,.34.18.24.24,0,0,1,.1-.12.28.28,0,0,1,.39.1,5.26,5.26,0,0,1,1,3A.25.25,0,0,1,118,62l.08.22a.29.29,0,0,1-.2.35.28.28,0,0,1-.35-.2L116.2,58.9A.29.29,0,0,1,116.4,58.55Z" style="fill:#010101"/><path d="M118.61,61.29l0,0a.28.28,0,0,1,.39.1l.59.89a.29.29,0,0,1-.1.39.29.29,0,0,1-.39-.11l-.48-.72A.29.29,0,0,1,118.61,61.29Z" style="fill:#010101"/><path d="M119.29,60.58a.28.28,0,0,1,.4,0,2.28,2.28,0,0,1,.66,2,.29.29,0,0,1-.35.2.3.3,0,0,1-.2-.35v-.06a.49.49,0,0,1,0-.12,1.48,1.48,0,0,0,0-.21v0h0a.43.43,0,0,0,0-.11.9.9,0,0,0-.06-.22l0-.1h0l0,0a1.28,1.28,0,0,0-.11-.2l-.06-.09,0,0h0l-.17-.18A.29.29,0,0,1,119.29,60.58Z" style="fill:#010101"/><path d="M120,58.71a7.06,7.06,0,0,1,1.85,3.54c.07.36-.48.51-.55.15a6.56,6.56,0,0,0-1.7-3.29A.28.28,0,0,1,120,58.71Z" style="fill:#010101"/><path d="M121.54,59.15c.44,1.29.89,2.57,1.34,3.86.12.35-.43.49-.55.15L121,59.3C120.87,59,121.42,58.81,121.54,59.15Z" style="fill:#010101"/><path d="M122.31,60.31a.3.3,0,0,1,.35.2l.42,1.1a.28.28,0,0,1,.07-.26.29.29,0,0,1,.4,0,2.69,2.69,0,0,1,.26.33h0a.28.28,0,0,1,.4,0l.6.76a.25.25,0,0,1,.12-.16.3.3,0,0,1,.39.1l.77,1.16a.28.28,0,0,1-.1.39.3.3,0,0,1-.39-.1l-.11-.17a0,0,0,0,1,0,0,.29.29,0,0,1-.4,0l-.69-.87a4.29,4.29,0,0,1,.2.86.28.28,0,0,1-.28.29.3.3,0,0,1-.29-.29,3.37,3.37,0,0,0-.88-1.92l0-.06.51,1.33a.3.3,0,0,1-.2.35.3.3,0,0,1-.35-.2l-1-2.51A.3.3,0,0,1,122.31,60.31Z" style="fill:#010101"/><path d="M126.16,63.4a.29.29,0,0,1,.13-.16l.08,0a.29.29,0,0,1,.12-.36.3.3,0,0,1,.39.1s0,0,0,0l0,0,.08.08.16.16.08.07,0,0h0l.19.13.19.1.1.05,0,0h0a3.22,3.22,0,0,0,.44.14.29.29,0,0,1,.2.34.29.29,0,0,1-.35.2,2.59,2.59,0,0,1-1-.41l.14.19a.28.28,0,0,1,0,.22.36.36,0,0,1-.13.17.28.28,0,0,1-.22,0l-.07,0a.36.36,0,0,1-.1-.11l-.58-.77A.32.32,0,0,1,126.16,63.4Z" style="fill:#010101"/><path d="M128.75,63.58a.29.29,0,0,1,0,.57A.29.29,0,0,1,128.75,63.58Z" style="fill:#010101"/><path d="M121.23,65.13H122a.28.28,0,1,1,0,.56h-.77a.28.28,0,1,1,0-.56Z" style="fill:#010101"/><path d="M125.67,66.28a9.51,9.51,0,0,1,3.61,1c.33.16,0,.65-.28.48a8.86,8.86,0,0,0-3.33-.92C125.3,66.82,125.3,66.26,125.67,66.28Z" style="fill:#010101"/><path d="M125.6,67.42a.28.28,0,0,1,.38-.1l2.31,1.17A.28.28,0,0,1,128,69l-2.31-1.17A.28.28,0,0,1,125.6,67.42Z" style="fill:#010101"/><path d="M125.78,68.8a.29.29,0,0,1,.35-.19A5.27,5.27,0,0,1,128.76,70a.28.28,0,0,1-.4.4A4.75,4.75,0,0,0,126,69.15.28.28,0,0,1,125.78,68.8Z" style="fill:#010101"/><path d="M127.54,70.86a.28.28,0,0,1,.39-.1l1.54,1a.28.28,0,1,1-.28.49l-1.54-1A.29.29,0,0,1,127.54,70.86Z" style="fill:#010101"/><path d="M127.21,71.76a.28.28,0,0,1,.4,0A3.93,3.93,0,0,1,129,74a.3.3,0,0,1-.2.35.29.29,0,0,1-.35-.2,3.43,3.43,0,0,0-1.26-2A.28.28,0,0,1,127.21,71.76Z" style="fill:#010101"/><path d="M127.3,73.05a.3.3,0,0,1,.39.1l1,1.93a.28.28,0,1,1-.49.28l-1-1.92A.29.29,0,0,1,127.3,73.05Z" style="fill:#010101"/><path d="M124.25,74.28l.19,4c0,.36-.55.36-.57,0l-.19-4C123.67,73.91,124.23,73.92,124.25,74.28Z" style="fill:#010101"/><path d="M119.69,76.54l1,4.72h0c.52,1,1,2.06,1.54,3.09.16.32-.32.61-.49.28l-.57-1.15.75,3.48c.07.35-.47.5-.55.15l-2.25-10.43C119.06,76.33,119.61,76.18,119.69,76.54Z" style="fill:#010101"/><path d="M115.5,70.18a.28.28,0,0,1,.39.1l1.46,3.25a.29.29,0,0,1,.46,0,8.54,8.54,0,0,1,.82,1.66,3.25,3.25,0,0,0-1.8-3c-.32-.16,0-.65.29-.49a4,4,0,0,1,.52.32s.06,0,.08,0h0a4.21,4.21,0,0,0-1.46-2.2.3.3,0,0,1-.11-.39.28.28,0,0,1,.39-.1,4.8,4.8,0,0,1,1.85,3.19l.1.07a.34.34,0,0,1,.13.16.33.33,0,0,1,0,.22l0,0a3.72,3.72,0,0,1,.62,2.18.29.29,0,0,1-.47.21,8.87,8.87,0,0,1,.47,2.1.29.29,0,0,1-.28.28.3.3,0,0,1-.29-.28,8.46,8.46,0,0,0-1-3.17.23.23,0,0,1-.11.13.28.28,0,0,1-.39-.1c-.58-1.28-1.15-2.57-1.73-3.86A.28.28,0,0,1,115.5,70.18Z" style="fill:#010101"/><path d="M117.88,78.25a.29.29,0,0,1,.34.2l.39,1.35a.29.29,0,0,1-.2.35.3.3,0,0,1-.35-.2c-.12-.45-.25-.9-.38-1.35A.29.29,0,0,1,117.88,78.25Z" style="fill:#010101"/><path d="M119.19,82.31a12.59,12.59,0,0,1,.78,4.12.29.29,0,0,1-.57,0,11.71,11.71,0,0,0-.76-4C118.51,82.11,119.06,82,119.19,82.31Z" style="fill:#010101"/><path d="M120.19,88.45a.28.28,0,0,1,.3-.12.25.25,0,0,1,.16-.06h.58a.3.3,0,0,1,.2.08.26.26,0,0,1,.08.2.28.28,0,0,1-.19.27l.8.49a.3.3,0,0,1,.1.39.28.28,0,0,1-.39.1l-1.54-1A.28.28,0,0,1,120.19,88.45Z" style="fill:#010101"/><path d="M96.54,72.92a.3.3,0,0,1,.4,0l1.73,1.35a.28.28,0,0,1-.4.4l-1.73-1.35A.27.27,0,0,1,96.54,72.92Z" style="fill:#010101"/><path d="M100.44,71.21c0-.36.6-.36.56,0a11.87,11.87,0,0,0,.42,4.55.29.29,0,0,1-.55.15A12,12,0,0,1,100.44,71.21Z" style="fill:#010101"/><path d="M102.59,71.58a.3.3,0,0,1,.24-.28v0a.28.28,0,0,1,.54-.15,5.12,5.12,0,0,1,0,2.85.28.28,0,0,1-.5.08l-.1.81a.29.29,0,0,1-.28.28.28.28,0,0,1-.28-.28Z" style="fill:#010101"/><path d="M103.1,70.14a.29.29,0,0,1,0,.57A.29.29,0,0,1,103.1,70.14Z" style="fill:#010101"/><path d="M104,71.19a.3.3,0,0,1,.41-.25.29.29,0,0,1,.27-.22.3.3,0,0,1,.29.28c.13,1,.25,2.06.38,3.09a.28.28,0,0,1-.28.28.3.3,0,0,1-.29-.28L104.49,72l-.14,2.3c0,.36-.59.37-.57,0Z" style="fill:#010101"/><path d="M105.81,70.71a.28.28,0,0,1,.34.2l.33,1.44V71a.28.28,0,0,1,.28-.28.29.29,0,0,1,.29.28v1.54a.29.29,0,0,1-.29.29.41.41,0,0,1-.19-.08l.11.48a.28.28,0,0,1-.54.16l-.53-2.33A.28.28,0,0,1,105.81,70.71Z" style="fill:#010101"/><path d="M107.39,70.37a.31.31,0,0,1,.33,0l0-.1a.29.29,0,0,1,.2-.35.28.28,0,0,1,.35.19l.37,1.94a.28.28,0,0,1-.2.34.25.25,0,0,1-.17,0,5.24,5.24,0,0,1,0,.79.29.29,0,0,1-.55-.15,3.85,3.85,0,0,0-.36-2.29A.3.3,0,0,1,107.39,70.37Z" style="fill:#010101"/><path d="M108.81,69.76a.3.3,0,0,1,.35.2l.39,1.16a.29.29,0,1,1-.55.15l-.39-1.16A.3.3,0,0,1,108.81,69.76Z" style="fill:#010101"/><path d="M125.8,80.78a17.11,17.11,0,0,0,3.79-5.43c.15-.34.64,0,.49.28a17.6,17.6,0,0,1-3.88,5.55C125.94,81.43,125.54,81,125.8,80.78Z" style="fill:#010101"/><path d="M124.17,83.68l.06,0h0l0,0,.09-.07.18-.17.17-.2s0,0,0,0l0,0,.07-.11a2.46,2.46,0,0,0,.25-.45h0l0-.06a1.17,1.17,0,0,1,0-.11c0-.09.05-.18.07-.27a.28.28,0,0,1,.35-.19.29.29,0,0,1,.2.34,3.34,3.34,0,0,1-1.29,1.91.28.28,0,0,1-.29-.49Z" style="fill:#010101"/><path d="M132.58,46.8c.39,1.86.78,3.73,1.18,5.59.07.35-.47.51-.55.15-.39-1.86-.78-3.73-1.18-5.59C132,46.6,132.5,46.44,132.58,46.8Z" style="fill:#010101"/><path d="M78,57.49a.29.29,0,0,1,.4,0,2.08,2.08,0,0,0,1.84.49.3.3,0,0,1,.35.2.29.29,0,0,1-.2.35A2.68,2.68,0,0,1,78,57.89.29.29,0,0,1,78,57.49Z" style="fill:#010101"/><path d="M122.76,100.58A5.55,5.55,0,0,0,128.21,96c-.28.12-.6-.23-.34-.44s.32-.26.47-.39c-.3-1.77-.61-3.55-.91-5.32-.07-.36.48-.51.54-.15l.87,5.06a26.46,26.46,0,0,0,6.95-9.06,19.91,19.91,0,0,0,1.39-12.54,16.75,16.75,0,0,0-3-6.46c-.22-.29.28-.57.49-.28a18.34,18.34,0,0,1,3.44,12.32,22.62,22.62,0,0,1-4.69,12,29,29,0,0,1-4.64,4.82v0a6.08,6.08,0,0,1-6.06,5.65A.28.28,0,0,1,122.76,100.58Z" style="fill:#010101"/><path d="M102.26,79.4a48.5,48.5,0,0,0,6.83,12.52l0,0c-.2-.3.29-.59.49-.28.61.93,1.21,1.88,1.81,2.82a22.28,22.28,0,0,0,4.31,3.3,18.61,18.61,0,0,0,5.66,2.2c.35.07.2.61-.15.54a19.63,19.63,0,0,1-8.75-4.34c1.89,3.06,3.72,6.15,5.46,9.3q3.91,7.06,7.3,14.4t6.2,14.84q2.83,7.56,5.11,15.31t4,15.58c.14.66.28,1.33.41,2,.08.35-.47.51-.54.15q-1.62-7.87-3.81-15.62t-4.95-15.3q-2.78-7.58-6.09-14.94t-7.14-14.41q-3.51-6.49-7.48-12.73a34.74,34.74,0,0,1-6.31-8.78,69.67,69.67,0,0,1-2.85-6.36C101.57,79.21,102.12,79.06,102.26,79.4Z" style="fill:#010101"/><path d="M102.59,78.35l3.83,2.79-1.51-.38c-.35-.09-.5.46-.15.54l2.32.58a.24.24,0,0,0,.26-.08l.53.39a.34.34,0,0,0,.07.18l1.25,1.5-.27-.11c-.34-.14-.49.41-.15.55l1.18.48.88,1-1.31-.58a.22.22,0,0,0-.08-.15,30.63,30.63,0,0,0-5.31-4,.28.28,0,0,0-.28.49A29.93,29.93,0,0,1,109,85.47a.22.22,0,0,0,.14.23l6.93,3.12c.33.15.62-.34.29-.49l-.22-.1a.61.61,0,0,0-.07-.1L113.74,86a.29.29,0,0,0-.18-.35l-.36-.15-2-1.81a.26.26,0,0,0-.36,0l-.58-.58a12.76,12.76,0,0,1,6.86,4.35c.23.29.63-.12.4-.4a13.3,13.3,0,0,0-7.84-4.67.3.3,0,0,0-.35.31.28.28,0,0,0-.12-.2l-6.37-4.63C102.58,77.65,102.3,78.14,102.59,78.35Zm11.27,8.86A.28.28,0,0,0,114,87l.55.5ZM111,85.94a.31.31,0,0,0,.2-.5l-.17-.2,1,.39L113.39,87ZM109.2,83a.34.34,0,0,0,.17-.3.21.21,0,0,0,.07.15.25.25,0,0,0,.07.25l1.49,1.5-.71-.29Z" style="fill:#010101"/><path d="M113.08,84.26A17.67,17.67,0,0,1,117,88a.28.28,0,1,1-.49.29,16.73,16.73,0,0,0-3.76-3.56C112.5,84.54,112.78,84.05,113.08,84.26Z" style="fill:#010101"/><path d="M42.81,102.5l6.28-11.08A87.2,87.2,0,0,0,54.58,81,19.49,19.49,0,0,0,56,74.84a.2.2,0,0,1,0-.11c-.23-.18-.08-.62.23-.5l18.51,7,3.72,1.41a.28.28,0,0,1,.18-.22c.66-.25.28-1.13-.07-1.45a8.6,8.6,0,0,0-1.86-1.08c-1.38-.71-2.78-1.38-4.2-2a65,65,0,0,0-8.78-3c-1.58-.42-3.17-.77-4.78-1.07v.84a.28.28,0,0,1-.56,0V73.51a.3.3,0,0,1,.23-.28.42.42,0,0,1,.16,0A64.46,64.46,0,0,1,78.09,80c.61.33,1.32.76,1.5,1.49a1.32,1.32,0,0,1-.3,1.23.29.29,0,0,1,.32.35v0l.5.19c.34.13.19.67-.15.54l-.5-.19Q77.74,90.07,76,96.5c-.59,2.22-1.17,4.43-1.76,6.64a51.29,51.29,0,0,1-1.69,5.45A17.27,17.27,0,0,1,69.34,114c-.25.26-.65-.14-.4-.41,2.58-2.81,3.68-6.56,4.65-10.17,1.17-4.35,2.32-8.71,3.48-13.07l1.85-7L61.44,76.79,56.6,75c-.21,3.78-1.77,7.29-3.54,10.58-2,3.68-4.11,7.28-6.17,10.92l-3.59,6.34A.28.28,0,0,1,42.81,102.5Z" style="fill:#010101"/><path d="M41.66,113.38a9,9,0,0,1,1.92-2.24A21.83,21.83,0,0,1,44,102a.29.29,0,0,1,.55.15,21.27,21.27,0,0,0-.46,8.7.25.25,0,0,1,.11.44l-.08.07a.31.31,0,0,1-.21.18,10.22,10.22,0,0,0-3.21,5.81,21.77,21.77,0,0,0,.44,8.54c.07.36-.48.51-.55.15C39.74,121.87,39.31,117.21,41.66,113.38Z" style="fill:#010101"/><path d="M37.65,129.09a22,22,0,0,1,2-4.17c.2-.31.69,0,.49.29a21.64,21.64,0,0,0-2.88,15.39,20.93,20.93,0,0,0,1.31,4.3c.14.33-.35.62-.49.28A22.18,22.18,0,0,1,37.65,129.09Z" style="fill:#010101"/><path d="M67.56,126a16.8,16.8,0,0,0,1.68-11c-.07-.36.48-.51.55-.15a17.38,17.38,0,0,1-.36,7.92,9.82,9.82,0,0,1,3.31-2c.35-.12.5.42.15.54a9.23,9.23,0,0,0-3.34,2,.26.26,0,0,1-.32,0,17,17,0,0,1-1.18,2.79C67.88,126.63,67.39,126.34,67.56,126Z" style="fill:#010101"/><path d="M88.52,107a67.21,67.21,0,0,0,4.17-18.13c.15-1.77.24-3.54.25-5.31a.29.29,0,0,1,.57,0,67.71,67.71,0,0,1-2.75,18.55c-.5,1.71-1.06,3.38-1.7,5C88.94,107.47,88.39,107.32,88.52,107Z" style="fill:#010101"/><path d="M78.59,139a42.56,42.56,0,0,0,5.91-11.61c.39-1.16.72-2.34,1-3.53.08-.36.63-.21.54.15a42.77,42.77,0,0,1-4.91,12.15c-.64,1.07-1.32,2.11-2,3.13C78.87,139.55,78.38,139.27,78.59,139Z" style="fill:#010101"/><path d="M76.27,131.19c0-.36.61-.36.57,0a8,8,0,0,0,1.42,5.59c.21.3-.28.58-.49.28A8.41,8.41,0,0,1,76.27,131.19Z" style="fill:#010101"/><path d="M52.37,146.92a111,111,0,0,0,13.89.14c.36,0,.36.55,0,.57a112.93,112.93,0,0,1-13.89-.14C52,147.46,52,146.9,52.37,146.92Z" style="fill:#010101"/><path d="M43.7,146.9a9.55,9.55,0,0,1,3.8,1c.33.16,0,.65-.28.49a8.85,8.85,0,0,0-3.52-.93C43.33,147.45,43.33,146.88,43.7,146.9Z" style="fill:#010101"/><path d="M155.46,94l.57-1-.09-.39a.29.29,0,0,1,.49-.27,37.22,37.22,0,0,1,5.31-6.81.28.28,0,0,1,.4.4,36.57,36.57,0,0,0-5.51,7.17,115.52,115.52,0,0,1,2.42,13.7,116.69,116.69,0,0,1,.78,14.6c0,2.77-.15,5.54-.37,8.3,0,.36-.59.36-.57,0a116,116,0,0,0,.26-14.56,114.92,114.92,0,0,0-1.54-14.46c-.39-2.3-.86-4.59-1.38-6.86-.1.16-.19.33-.28.49C155.78,94.58,155.29,94.3,155.46,94Z" style="fill:#010101"/><path d="M160,86.42a21.12,21.12,0,0,0,5.15-7.31c.13-.33.68-.18.54.15a21.61,21.61,0,0,1-5.29,7.56C160.12,87.07,159.72,86.67,160,86.42Z" style="fill:#010101"/><path d="M153.64,75.64a28.17,28.17,0,0,1,10.89,2c.34.14.19.68-.15.55a27.42,27.42,0,0,0-10.74-2A.29.29,0,0,1,153.64,75.64Z" style="fill:#010101"/><path d="M140.59,71.7l7.53,1.92c.35.09.2.64-.16.55l-7.52-1.93A.28.28,0,0,1,140.59,71.7Z" style="fill:#010101"/><path d="M161.56,75.84l11.48,1a.22.22,0,0,1,.2-.28,11.61,11.61,0,0,1,6.48.23,5.65,5.65,0,0,1,3.37,3.92,26.12,26.12,0,0,1,8.37,17.56,25.06,25.06,0,0,1-.27,5.61l0,.07a.28.28,0,0,1,.31,0,16.6,16.6,0,0,1,5.4,10.79,37.06,37.06,0,0,1,4.7,10.37c.33,1.21.6,2.44.81,3.67.06.36-.48.51-.54.15a37,37,0,0,0-4.43-12.26L197,116c.05,1.77-.11,3.54-.23,5.31a22.6,22.6,0,0,0,.21,6c.07.36-.48.51-.55.15-.69-3.4,0-6.83,0-10.26a20.31,20.31,0,0,0-.09-2.21c-.29-.45-.59-.89-.91-1.32s.28-.58.49-.29l.26.38a16,16,0,0,0-1.93-5.43,16.36,16.36,0,0,0-3.14-3.89.23.23,0,0,1,0-.31.33.33,0,0,1-.14,0q.62,8.25,1.22,16.5c0,.36-.54.36-.56,0l-1.24-16.79c0-.23.2-.31.37-.25a25.65,25.65,0,0,0-4.43-18.43,24.79,24.79,0,0,0-3-3.43,15.78,15.78,0,0,1,.15,2.28c0,1.11,0,2.23,0,3.34a66.84,66.84,0,0,1-.37,6.79,29.6,29.6,0,0,1-1.76,7.36.27.27,0,0,1-.19.17,48.14,48.14,0,0,1,.54,15.52c-.16,1.25-.38,2.48-.64,3.71q1,8.82,2,17.65,1.1,9.63,2.2,19.26l1.25,10.83c0,.36-.53.36-.57,0q-1.11-9.63-2.21-19.26t-2.21-19.26l-.94-8.22a.29.29,0,0,1-.26-.35c0-.22.09-.45.14-.68l-.18-1.58c0-.31.37-.35.51-.13a48,48,0,0,0,.41-13.49,45.37,45.37,0,0,0-.74-4.5.29.29,0,0,1,.48-.28,37.38,37.38,0,0,0,1.92-12.11c0-2.06.13-4.15,0-6.2a9.69,9.69,0,0,0-.24-1.54.24.24,0,0,1-.06-.19,5,5,0,0,0-2.16-3.06c-2.09-1.29-4.65-1-7-.64h0a.24.24,0,0,1-.26.31l-11.54-1C161.2,76.38,161.2,75.81,161.56,75.84Z" style="fill:#010101"/><path d="M149.88,101.58a125.73,125.73,0,0,0,4,17.56,89.67,89.67,0,0,0,6.92,16.6,75.47,75.47,0,0,0,4.75,7.6c1.9,2.65,4,5.17,6.09,7.65s4.22,4.87,6.26,7.35,4.06,5.07,6,7.67c3.94,5.24,7.67,10.62,11.39,16l1.18,1.72q-.27-7.27-.55-14.56l-.19-5.21c0-.37.55-.37.56,0l.69,18.3.2,5.21a.29.29,0,0,1-.57,0l-.11-3.05a.29.29,0,0,1-.32-.11c-3.73-5.43-7.45-10.85-11.36-16.15-2-2.65-4-5.28-6-7.85s-4.16-5-6.28-7.46a101.06,101.06,0,0,1-11.21-15.09,87.7,87.7,0,0,1-7.26-16.3,117.79,117.79,0,0,1-4.35-17.55c-.13-.73-.25-1.47-.36-2.2C149.28,101.37,149.83,101.22,149.88,101.58Z" style="fill:#010101"/><path d="M149.66,82.8a11.51,11.51,0,0,0,6.12,5.81c.33.13.19.68-.15.54a12,12,0,0,1-6.46-6.06C149,82.76,149.51,82.47,149.66,82.8Z" style="fill:#010101"/><path d="M140.13,75.93l-.36-.77c-.16-.33.33-.61.49-.29a105.84,105.84,0,0,1,7.15,19.41q.74,2.86,1.32,5.76c.07.36-.47.51-.55.15a104.28,104.28,0,0,0-5.38-18.13.25.25,0,0,1-.41-.07l-2.6-5.64A.3.3,0,0,1,140.13,75.93Z" style="fill:#010101"/><path d="M198.1,136.66c.15-.36.32-.71.48-1.07.2.11.52,0,.42-.3a2.47,2.47,0,0,1-.11-.36,29.63,29.63,0,0,1,2.63-4.3l.19.45c.14.33.63,0,.49-.29l-.32-.75.36-.06c.36,0,.37-.6,0-.56a4.58,4.58,0,0,0-3.31,2,4.54,4.54,0,0,0-.64,3.51c-.26.53-.51,1.08-.74,1.63C197.41,136.85,198,137,198.1,136.66Zm.65-2.67a3.84,3.84,0,0,1,2.3-3.68A29.8,29.8,0,0,0,198.75,134Z" style="fill:#010101"/><path d="M203,129.16a31.29,31.29,0,0,1,5.55,14.36c0,.36-.53.36-.57,0a30.65,30.65,0,0,0-5.47-14.08C202.29,129.14,202.78,128.86,203,129.16Z" style="fill:#010101"/><path d="M202.77,149.83l5.86-4.53c.29-.22.69.18.4.4l-5.86,4.53C202.89,150.45,202.48,150.05,202.77,149.83Z" style="fill:#010101"/><path d="M209.83,144.34a18.11,18.11,0,0,1,5.84,7.3c.14.33-.35.62-.49.29a17.73,17.73,0,0,0-5.63-7.11C209.26,144.61,209.54,144.12,209.83,144.34Z" style="fill:#010101"/><path d="M209.15,148.72a3.5,3.5,0,0,0,4.39,1.45c.33-.15.62.33.29.49a4.08,4.08,0,0,1-5.17-1.65C208.48,148.69,209,148.4,209.15,148.72Z" style="fill:#010101"/><path d="M209.76,156.35l5.21-.19c.36,0,.36.53,0,.56a6.41,6.41,0,0,1,.52.39,6,6,0,0,0-.91-4.56c-.21-.3.28-.58.48-.28a6.48,6.48,0,0,1,.93,5.27,6.71,6.71,0,0,1,1.92,3.26c.4,1.65,0,3.6-1.8,4.2a2.13,2.13,0,0,1-.42.1,9.78,9.78,0,0,1,1.06,5.42c0,.36-.6.36-.56,0a9.26,9.26,0,0,0-1.14-5.39,2.14,2.14,0,0,1-1.27-.57c-.26-.25.14-.65.4-.4a1.32,1.32,0,0,0,.46.29c-.09-.12-.17-.26-.26-.38-.22-.29.27-.58.49-.29s.36.52.52.79a2.35,2.35,0,0,0,1-.32,2.63,2.63,0,0,0,1.1-2.42,5.74,5.74,0,0,0-1.7-3.69l-.06.16c-.13.34-.68.19-.54-.15.05-.14.1-.29.14-.44a7,7,0,0,0-.94-.7.25.25,0,0,1-.13-.26l-4.51.17C209.39,156.93,209.4,156.37,209.76,156.35Z" style="fill:#010101"/><path d="M205.72,163.2a24.61,24.61,0,0,1,8.33-5.86c.33-.14.62.35.28.49a24.26,24.26,0,0,0-8.21,5.77C205.87,163.87,205.47,163.47,205.72,163.2Z" style="fill:#010101"/><path d="M208.21,163.84l4.25-.19c.36,0,.36.55,0,.57l-4.25.19C207.85,164.42,207.85,163.86,208.21,163.84Z" style="fill:#010101"/><path d="M214,188.19l0,0a.28.28,0,0,1-.4-.4,8.61,8.61,0,0,0,.74-.86c.1-.35.19-.71.28-1.06a.29.29,0,0,1,.48-.11,9.36,9.36,0,0,0,.81-7,.26.26,0,0,1,0-.23.22.22,0,0,1,0-.24,9.4,9.4,0,0,0-.77-8.27c-.19-.31.3-.59.49-.28a9.9,9.9,0,0,1,.82,8.7s0,.05,0,.08a.19.19,0,0,1,0,.09,9.91,9.91,0,0,1-1.59,8.53,104.48,104.48,0,0,0-2.7,14.15c-.05.35-.61.36-.57,0A106.73,106.73,0,0,1,214,188.19Z" style="fill:#010101"/><path d="M205.22,168.09a22.87,22.87,0,0,1,10.43,7.85c.22.29-.28.57-.49.28a22.32,22.32,0,0,0-10.09-7.58C204.73,168.52,204.88,168,205.22,168.09Z" style="fill:#010101"/><path d="M195.82,197.26a9.78,9.78,0,0,1,3.8,1.45,9.58,9.58,0,0,1,4.18,6,9.9,9.9,0,0,1-1.47,7.58.23.23,0,0,0,0,.25l-.14.19c-.24.28.16.68.4.4a10.08,10.08,0,0,0,2.36-6l.63,1.84a.29.29,0,0,0,.56-.07l.12-3.34a7.72,7.72,0,0,1,1.24,3.25c0,.28.5.42.56.07.19-1.35.39-2.7.58-4.05a10.67,10.67,0,0,0,1.19,2.42,13.21,13.21,0,0,1-7,7.75c-.34.15,0,.64.28.49a12.32,12.32,0,0,0,2.75-1.69,13.78,13.78,0,0,0,4.43-6.26.25.25,0,0,0,.14-.17c.11-.4.19-.81.26-1.22a13,13,0,0,0,.32-2.24.25.25,0,0,0-.18-.26,11.76,11.76,0,0,0-.44-2.63.29.29,0,0,0-.55,0c-.16.71-.33,1.42-.5,2.12l-1.44-4.3c-.08-.24-.48-.29-.54,0a24.49,24.49,0,0,0-.37,2.69l-.57-3.74a.28.28,0,0,0-.54,0l-.35,2.35a18.43,18.43,0,0,0-.71-3.09c-.08-.24-.5-.3-.54,0l-.27,1.78-.54-3.06c-.06-.34-.52-.21-.56.08-.06.62-.13,1.23-.2,1.85,0-.3-.11-.6-.17-.91s-.5-.27-.54,0l-.31,2c-.42-1-.83-2-1.25-3a.29.29,0,0,0-.55,0c-.13.33-.26.67-.38,1l-.1-1.18c0-.36-.59-.37-.56,0,0,.71.11,1.42.16,2.13a10.31,10.31,0,0,0-3.06-1C195.61,196.66,195.46,197.2,195.82,197.26Zm6.67,3.33c-.15-.2-.32-.38-.48-.56a.22.22,0,0,0,.09-.17l.22-1.35c.07.39.14.78.22,1.17s.52.21.55-.08c.07-.59.13-1.17.19-1.76.17.93.33,1.86.49,2.8,0,.26.51.27.55,0l.33-2.2a18.28,18.28,0,0,1,.54,4.18c0,.31.51.4.55.07l.44-2.94q.4,2.73.83,5.48c.05.31.58.23.56-.08a22.13,22.13,0,0,1,.18-5.08l1.38,4.16a.29.29,0,0,0,.55,0l.45-1.9a11.24,11.24,0,0,1,0,3.75c0,.14-.07.29-.11.43a10.16,10.16,0,0,1-1.22-3.15c-.05-.26-.5-.28-.54,0l-.57,3.91a8.47,8.47,0,0,0-1.51-2.74.29.29,0,0,0-.49.2l-.09,2.6c-.25-.74-.51-1.48-.76-2.23a.28.28,0,0,0-.44-.14A9.82,9.82,0,0,0,202.49,200.59Zm-2.85-2.53c.19-.48.37-1,.56-1.46l1.14,2.75A10.71,10.71,0,0,0,199.64,198.06Z" style="fill:#010101"/><path d="M198.38,193.11a14.41,14.41,0,0,1,11.55,6,13.68,13.68,0,0,1,1.78,3.41c.12.34-.42.49-.55.15a13.79,13.79,0,0,0-9.17-8.47,13,13,0,0,0-3.61-.49A.29.29,0,0,1,198.38,193.11Z" style="fill:#010101"/><path d="M194.4,198.77c1.51,1.32,2.08,3.37,2.72,5.19l2.43,6.82,1.39,3.91c.13.34-.42.49-.54.15L198,208.22c-.76-2.12-1.44-4.29-2.29-6.37a6.86,6.86,0,0,0-1.75-2.68C193.73,198.93,194.13,198.53,194.4,198.77Z" style="fill:#010101"/><path d="M192.44,198a10.42,10.42,0,0,0,4.52-7.44c0-.36.6-.37.56,0a11,11,0,0,1-4.8,7.93C192.42,198.73,192.14,198.24,192.44,198Z" style="fill:#010101"/><path d="M183.88,138.29A135.5,135.5,0,0,0,186,152.76a138.2,138.2,0,0,0,3.6,14.18q1.22,3.93,2.67,7.77c.13.35-.42.49-.55.16a140.66,140.66,0,0,1-4.45-14,138.11,138.11,0,0,1-2.94-14.4c-.41-2.71-.73-5.44-1-8.17C183.28,137.93,183.84,137.93,183.88,138.29Z" style="fill:#010101"/><path d="M97.22,107.75q4.45,4.91,8.73,10T114.36,128q4.06,5.19,8,10.51t7.61,10.84q3.72,5.52,7.24,11.17c.28.46.57.92.86,1.38a.28.28,0,0,1-.49.29q-3.48-5.64-7.16-11.14t-7.51-10.83q-3.9-5.38-8-10.64t-8.28-10.25q-4.26-5.07-8.69-10l-1.1-1.21C96.57,107.89,97,107.48,97.22,107.75Z" style="fill:#010101"/><path d="M96.74,104.37l6.54-7.73c.24-.28.64.13.4.4l-6.54,7.73C96.91,105.05,96.51,104.65,96.74,104.37Z" style="fill:#010101"/><path d="M93.84,101.42l4.24.19a.29.29,0,0,1,0,.57L93.84,102C93.48,102,93.48,101.41,93.84,101.42Z" style="fill:#010101"/><path d="M84.75,134.54A63.21,63.21,0,0,1,98.48,143c1,.84,2.06,1.73,3,2.64a4.67,4.67,0,0,0-.81-2.36.23.23,0,0,1,.07-.35h0a24.42,24.42,0,0,0-5.54-3.85c-1-.5-2-.88-3.06-1.32a4.35,4.35,0,0,1-1.9-1.34.29.29,0,0,1-.55,0,.72.72,0,0,1,.37-.88c.13-.06.33-.05.39.1a3.76,3.76,0,0,0,2.29,1.73,32.2,32.2,0,0,1,3.07,1.36,24.72,24.72,0,0,1,5.64,4,.27.27,0,0,1-.14.46,5.21,5.21,0,0,1,.53,4.2s0,0,0,.06a.28.28,0,0,1,.42.24,111.46,111.46,0,0,0,1,14.49c.19,1.38.4,2.75.63,4.12.06.36-.49.51-.55.15a113.28,113.28,0,0,1-1.52-14.59c0-1.39-.07-2.78-.08-4.17a.21.21,0,0,1,0-.12.28.28,0,0,1-.39-.33,4.71,4.71,0,0,0,.17-.91,62.75,62.75,0,0,0-13-9.37q-2-1.08-4-2C84.13,134.88,84.42,134.39,84.75,134.54Z" style="fill:#010101"/><path d="M138.89,168.77c0-.36.54-.36.56,0a62.47,62.47,0,0,1-.84,15.51c-.07.36-.61.21-.55-.15A61.74,61.74,0,0,0,138.89,168.77Z" style="fill:#010101"/><path d="M164.94,200.14a25.08,25.08,0,0,1,17.73-5.47,24.5,24.5,0,0,1,5.3,1c.35.11.2.66-.15.55a24.43,24.43,0,0,0-18.06,1.44,23.6,23.6,0,0,0-4.42,2.84C165.06,200.77,164.66,200.37,164.94,200.14Z" style="fill:#010101"/><path d="M132.41,199.07A109.62,109.62,0,0,1,148,202.15c1.46.41,2.92.84,4.37,1.31.35.11.2.66-.15.54a107.92,107.92,0,0,0-15.35-3.71c-1.49-.25-3-.47-4.5-.65C132.05,199.6,132,199,132.41,199.07Z" style="fill:#010101"/><path d="M78.34,148.3A39.19,39.19,0,0,0,85,154.07a.27.27,0,0,1,.37.26h0l.15.1a.3.3,0,0,1-.16.54q-.11,7.49-.22,15a.28.28,0,0,1-.56,0q.11-7.66.22-15.33a40.13,40.13,0,0,1-6.89-5.92C77.69,148.43,78.09,148,78.34,148.3Z" style="fill:#010101"/><path d="M.27,141.89l27,1.6,7.63.45a.28.28,0,0,1,0,.56l-2.91.13a.26.26,0,0,1-.27-.31L7.9,142.91l-7.63-.45C-.09,142.44-.09,141.87.27,141.89Z" style="fill:#010101"/><path d="M143.5,128.3a14.72,14.72,0,0,0,1.28-13.67c-.14-.33.35-.62.49-.28a15.4,15.4,0,0,1,.22,11.31,14.73,14.73,0,0,1-1.5,2.93C143.79,128.89,143.3,128.61,143.5,128.3Z" style="fill:#010101"/><path d="M134.9,124.11l.75.28a.25.25,0,0,1,.16.06l6,2.26c.33.13.19.67-.15.55l-5.88-2.21a5.59,5.59,0,0,0,3.5,6.28,2.35,2.35,0,0,0,.6-.48l.34-.51.07-.07a2.74,2.74,0,0,0-.07-2.73c-.21-.3.28-.59.48-.29a3.28,3.28,0,0,1-.28,3.82l-.55.82a.3.3,0,0,1-.32.13l-.26-.08-.1.05a.25.25,0,0,1-.34-.21,6.17,6.17,0,0,1-3.6-6.93l-.54-.2C134.41,124.53,134.56,124,134.9,124.11Z" style="fill:#010101"/><path d="M122.58,102.64c.07-.35.62-.2.54.15A14.39,14.39,0,0,0,128,116.3a12.82,12.82,0,0,0,3.66,2.18c.34.13.19.68-.15.55a15,15,0,0,1-9.12-11.91A13.76,13.76,0,0,1,122.58,102.64Z" style="fill:#010101"/><path d="M143.91,107.27a1.87,1.87,0,0,0,2.12.38,2.41,2.41,0,0,0,1.42-2c.25-2.14-1.37-3.8-2.76-5.18a.28.28,0,0,1,.4-.4c1.61,1.61,3.49,3.67,2.82,6.16a2.84,2.84,0,0,1-1.9,2,2.4,2.4,0,0,1-2.5-.58C143.27,107.4,143.67,107,143.91,107.27Z" style="fill:#010101"/><path d="M120.26,69.56a.28.28,0,0,1,.39-.1l3,1.3a.28.28,0,0,1,.1.38.29.29,0,0,1-.39.11l-3-1.31A.28.28,0,0,1,120.26,69.56Z" style="fill:#010101"/><path d="M120.74,72.1a.3.3,0,0,1,.4,0,.26.26,0,0,1,0-.33.29.29,0,0,1,.38-.1l1.74,1.3a.28.28,0,0,1,.11.38.29.29,0,0,1-.39.11l-1.53-1.14,1.9,1.52a.28.28,0,0,1-.4.4l-2.17-1.74A.28.28,0,0,1,120.74,72.1Z" style="fill:#010101"/><path d="M113.44,75.72c0-.35.6-.2.54.15l-.78,4.79c-.06.36-.6.21-.55-.15C112.92,78.92,113.18,77.32,113.44,75.72Z" style="fill:#010101"/><path d="M109.74,77.86c.12-.73.25-1.46.38-2.18a.28.28,0,1,1,.54.15c-.12.72-.25,1.45-.38,2.18a.28.28,0,0,1-.54-.15Z" style="fill:#010101"/><path d="M108.36,74.19a.29.29,0,0,1,.28.28v.87a.29.29,0,0,1-.57,0v-.87A.29.29,0,0,1,108.36,74.19Z" style="fill:#010101"/><path d="M97.22,72.17a3.1,3.1,0,0,1,1.92,1,.28.28,0,0,1-.4.4,2.5,2.5,0,0,0-.34-.31l0,0,0,0-.09-.06L98,73l-.1,0-.05,0h0l-.21-.08-.23-.06-.1,0h-.09a.3.3,0,0,1-.29-.29C96.94,72.32,97.06,72.15,97.22,72.17Z" style="fill:#010101"/><path d="M95.67,58.56a.3.3,0,0,1,.39-.1l.72.44a.29.29,0,0,1,.13.16.28.28,0,0,1,0,.22.27.27,0,0,1-.38.1L95.77,59a.31.31,0,0,1-.13-.17A.28.28,0,0,1,95.67,58.56Z" style="fill:#010101"/><path d="M105.32,56.31l.72,1.93c-.13-.54-.25-1.09-.38-1.64a.26.26,0,0,1,0-.2v0c-.2-.31.29-.59.49-.28s.22.39.33.6l-.08-.25c-.12-.34.43-.49.55-.15l1.3,3.91c.12.34-.43.49-.54.15l-.27-.79a.27.27,0,0,1-.48.2l.1.45a.29.29,0,0,1-.44.31.28.28,0,0,1-.41-.16c-.49-1.3-1-2.6-1.45-3.9C104.65,56.12,105.2,56,105.32,56.31Z" style="fill:#010101"/><path d="M108.2,57.18l0,.2a.3.3,0,0,1,.21-.26.29.29,0,0,1,.35.2L110,60.51a.28.28,0,0,1-.2.34.28.28,0,0,1-.35-.19c-.34-1-.69-1.93-1-2.89l.69,2.31a.28.28,0,0,1-.54.15l-.87-2.89C107.54,57,108.09,56.84,108.2,57.18Z" style="fill:#010101"/><path d="M109.5,57.4a.29.29,0,0,1,.35.2c.33,1,.66,1.93,1,2.9a.29.29,0,0,1-.55.15l-1-2.9A.29.29,0,0,1,109.5,57.4Z" style="fill:#010101"/><path d="M110.62,58.57a.28.28,0,0,1,.35.2l.45,1.44a.29.29,0,0,1-.2.35.3.3,0,0,1-.35-.2l-.44-1.44A.28.28,0,0,1,110.62,58.57Z" style="fill:#010101"/><path d="M109.29,61.21l.69,2.47a.29.29,0,0,1-.55.15l-.69-2.47A.29.29,0,0,1,109.29,61.21Z" style="fill:#010101"/><path d="M108.2,61.23l1,3.91a.29.29,0,0,1-.55.15l-1-3.91A.28.28,0,0,1,108.2,61.23Z" style="fill:#010101"/><path d="M105.46,61.64a.28.28,0,0,1,.39.11l1.27,2.88,0,0-.87-2.51c-.12-.35.42-.5.54-.15l.84,2.4c-.24-.79-.47-1.59-.71-2.38a.29.29,0,0,1,.55-.15l.9,3c.09.29-.29.44-.47.27l.19.56c.11.3-.37.5-.52.21l-.34-.67a.2.2,0,0,1-.08.08.29.29,0,0,1-.37,0l-.4-.41a.27.27,0,0,1,0-.41c-.35-.81-.7-1.61-1.06-2.42A.3.3,0,0,1,105.46,61.64Z" style="fill:#010101"/><path d="M105,62.8a.29.29,0,0,1,.39.1c.43,1,.87,2,1.3,3a.3.3,0,0,1-.1.39.29.29,0,0,1-.39-.1c-.43-1-.87-2-1.3-3A.3.3,0,0,1,105,62.8Z" style="fill:#010101"/><path d="M104.79,63.5a.3.3,0,0,1,.35.2l1.3,3.18a.28.28,0,0,1-.2.35.29.29,0,0,1-.35-.19l-1.3-3.19A.29.29,0,0,1,104.79,63.5Z" style="fill:#010101"/><path d="M104.49,64.52a.3.3,0,0,1,.35.2c.42,1.06.85,2.13,1.28,3.19a.28.28,0,0,1-.2.35.3.3,0,0,1-.35-.2c-.42-1.06-.85-2.13-1.28-3.19A.28.28,0,0,1,104.49,64.52Z" style="fill:#010101"/><path d="M104.14,64.85l.73,2.32c.11.34-.44.49-.55.15L103.6,65A.28.28,0,0,1,104.14,64.85Z" style="fill:#010101"/></g></g></svg>