<svg xmlns="http://www.w3.org/2000/svg" viewBox="0 0 232.45 269.94"><title>cigarro</title><g id="Camada_2" data-name="Camada 2"><g id="Camada_1-2" data-name="Camada 1"><path d="M228.28,132.28a17.07,17.07,0,0,1,3.51,13.83c-.09.5-.89.45-.79-.05a16.39,16.39,0,0,0-3.31-13.26C227.36,132.4,228,131.88,228.28,132.28Z" style="fill:#010101"/><path d="M210,121l14.22,8.47c.44.27,0,.92-.45.66l-14.22-8.47C209.07,121.39,209.52,120.74,210,121Z" style="fill:#010101"/><path d="M195.81,124.43a21.24,21.24,0,0,1,9.45-3.2c.51,0,.67.74.16.78a20.72,20.72,0,0,0-9.26,3.13C195.73,125.42,195.38,124.7,195.81,124.43Z" style="fill:#010101"/><path d="M151.92,144.85l31.76-15,9-4.23a.4.4,0,0,1,.36.71l-31.76,15-9,4.24A.4.4,0,0,1,151.92,144.85Z" style="fill:#010101"/><path d="M147.84,148.81a6.4,6.4,0,0,1,4.56,0,.4.4,0,0,1-.16.77l-1-.06a.36.36,0,0,1-.34-.27,5.45,5.45,0,0,0-2.71.29.4.4,0,1,1-.35-.71Z" style="fill:#010101"/><path d="M70.69,189.36c4-3.39,8.69-5.63,13.48-7.57,5.08-2,10.18-4,15.13-6.31a251.86,251.86,0,0,0,29.58-16.85c5.4-3.5,10.73-7.12,16.07-10.73.41-.29.94.31.52.6-9.39,6.36-18.79,12.73-28.57,18.5-4.88,2.88-9.86,5.61-15,8.1s-10.08,4.52-15.23,6.54c-5.47,2.14-11,4.45-15.5,8.32C70.82,190.29,70.3,189.69,70.69,189.36Z" style="fill:#010101"/><path d="M56.31,199.87a33.16,33.16,0,0,1,15-6.9.4.4,0,0,1,.15.78,32.4,32.4,0,0,0-14.64,6.72C56.44,200.79,55.91,200.19,56.31,199.87Z" style="fill:#010101"/><path d="M187.54,205.85a.4.4,0,0,1,0,.79A.4.4,0,0,1,187.54,205.85Z" style="fill:#010101"/><path d="M185,138c4.7,3.76,9.45,7.58,13.27,12.28a29.29,29.29,0,0,1,6.84,15.62c0,.12,0,.24,0,.37a56.08,56.08,0,0,0,11.48-6.92c1.28-1,2.52-2.08,3.71-3.19.37-.35.89.25.52.6a56,56,0,0,1-14.33,9.75c-.44.21-.88.4-1.33.6a19.14,19.14,0,0,1-1.39,8c-.19.47-.94.21-.75-.26a18.2,18.2,0,0,0,1.34-7.41c-.81.34-1.63.67-2.46,1-.47.17-.83-.54-.35-.71.94-.35,1.86-.73,2.78-1.13a24.58,24.58,0,0,0-1.85-7.86c-2.21-5.35-6.07-9.78-10.29-13.66-2.45-2.25-5.05-4.34-7.65-6.42C184.19,138.31,184.63,137.65,185,138Z" style="fill:#010101"/><path d="M179.36,145.86c7.32,7.34,14.17,16.24,14.45,27a22,22,0,0,1-1.42,8.54.4.4,0,0,1-.75-.26l.29-1.29a.3.3,0,0,1,.22-.24,24.32,24.32,0,0,0-.22-13.58,38.56,38.56,0,0,0-7.32-13.27,82.78,82.78,0,0,0-5.84-6.43C178.41,146,179,145.5,179.36,145.86Z" style="fill:#010101"/><path d="M191.75,183.92l8.28-5.31c.43-.28.78.44.35.71l-8.27,5.31C191.68,184.91,191.33,184.2,191.75,183.92Z" style="fill:#010101"/><path d="M177.58,191.67a48.66,48.66,0,0,0,11.88-7.29c.39-.33.91.27.52.6a49.39,49.39,0,0,1-12,7.4C177.47,192.59,177.11,191.88,177.58,191.67Z" style="fill:#010101"/><path d="M115.34,202.55c2.77,1.53,5.56,3,8.29,4.6a22.83,22.83,0,0,1,5.9,4.52,10.82,10.82,0,0,1,2.1,3.57c.17.47-.54.83-.71.35-1-3-3.52-5.13-6.14-6.81-3.18-2-6.58-3.75-9.88-5.57C114.45,203,114.9,202.31,115.34,202.55Z" style="fill:#010101"/><path d="M52,251.5l.25.22a.43.43,0,0,0,0,.29,8,8,0,0,1,.15,7.35c-.22.46.53.72.75.26a7.45,7.45,0,0,0,.49-1.29.41.41,0,0,0,.47-.25l.5-1.37s0,.07,0,.11a7.17,7.17,0,0,1-2.58,5.6c-.39.32.13.92.52.59a7.9,7.9,0,0,0,2.84-6.29,8,8,0,0,0-3-5.88C52.09,250.52,51.65,251.18,52,251.5ZM54.1,256l0,.1a8.38,8.38,0,0,0-.26-2.44,7.09,7.09,0,0,1,.76,2.09A.4.4,0,0,0,54.1,256Z" style="fill:#010101"/><path d="M50.29,243.47a9.84,9.84,0,0,1,2.33,4.87.4.4,0,0,1-.78.16A9.14,9.14,0,0,0,49.7,244,.39.39,0,0,1,50.29,243.47Z" style="fill:#010101"/><path d="M2.34,229.08a28.81,28.81,0,0,1,2.75-1.86l1.17-.75a.33.33,0,0,1,.21-.34l1.14-.54.61-.39a.3.3,0,0,1,.31,0l.86-.41a.36.36,0,0,1,.11-.15l1.72-1.23c.09-.78.21-1.55.34-2.29,1.12-6.2,2.46-12.78,6-18.1a28.89,28.89,0,0,1,3-3.67,10,10,0,0,0,1.47-1.95,6,6,0,0,0,.63-2.7,30.16,30.16,0,0,1,.16-5.29,12.37,12.37,0,0,1,1.87-4.5c1.82-2.71,4.76-4.32,6.79-6.84,1.45-1.82,2.34-4.76,1-6.9A3.37,3.37,0,0,0,31.29,170c-.45-.25,0-.9.45-.66,2.23,1.22,2.56,4,1.94,6.28-.81,3-3.37,4.83-5.55,6.77a14.81,14.81,0,0,0-3.25,3.81,11.58,11.58,0,0,0-1.43,5c-.09,1.86.32,3.75-.24,5.56a10.35,10.35,0,0,1-2.73,3.88c-4.64,4.94-6.33,11.64-7.65,18.1a46.68,46.68,0,0,0-.84,4.8l.24-.1c.47-.2.82.49.35.71l-.56.26a.27.27,0,0,1-.1.11,11.08,11.08,0,0,0,.31,3.25,6.27,6.27,0,0,0,2.56,3.61c1.31.91,2.82,1.51,4.09,2.5a11.22,11.22,0,0,1,4,7.68,18.21,18.21,0,0,1-2.17,9.95c-.38.78-.8,1.54-1.24,2.29-.26.44-.92,0-.66-.45a21.08,21.08,0,0,0,3.36-10.1A11.1,11.1,0,0,0,19,235a20.43,20.43,0,0,0-3.9-2.51,7.83,7.83,0,0,1-3.08-3,9.39,9.39,0,0,1-.92-4.59l-3.42,1.57c-1.47.94-3,1.86-4.38,2.87a3.68,3.68,0,0,0-1.6,2,3.09,3.09,0,0,0,.36,2.46c.27.43-.44.78-.71.35A3.9,3.9,0,0,1,2.34,229.08Z" style="fill:#010101"/><path d="M29.5,261.85a11.12,11.12,0,0,0,10.85,4.75.37.37,0,0,1,.39.17,4.74,4.74,0,0,1,.31-.54c.55-.82,1.5-1.67,1.46-2.73,0-.88-.86-1.51-1.23-2.25a2.28,2.28,0,0,1,.08-2.18c.41-.78,1.16-1.56.83-2.51-.58-1.7-2.82-2.12-3.78-3.55A3.77,3.77,0,0,1,38,250.4c.07-.73.35-1.81-.24-2.39-.77-.78-2.19-.09-3.15-.24a1.79,1.79,0,0,1-1.66-1.4c-.07-.5.71-.66.77-.15.11.8,1.19.83,1.81.76a3.61,3.61,0,0,1,2.51.24c1.31.86.74,2.61.71,3.89-.06,1.93,1.75,2.51,3,3.56A3.66,3.66,0,0,1,43,256.55a3,3,0,0,1-.56,2.22c-.44.73-.86,1.4-.4,2.23a11.54,11.54,0,0,1,1.14,1.87,3,3,0,0,1-.56,2.54c-.5.76-1.32,1.49-1.43,2.43-.08.73.64,1.8,1.37,1.07.54-.53.58-1.37.89-2a2.4,2.4,0,0,1,1.5-1.37,1.35,1.35,0,0,1,1.49,1c.11.3.17.83.47,1,.58.35,1-.47,1.17-.89a19.83,19.83,0,0,0,.61-3.51,35.29,35.29,0,0,0,0-7.55c-.06-.5.72-.66.77-.15a36.27,36.27,0,0,1,.06,7c-.11,1.14-.27,2.28-.49,3.41-.17.86-.33,1.89-1.17,2.36a1.33,1.33,0,0,1-1.86-.49c-.3-.55-.43-1.91-1.33-1.17-1.09.89-.79,3.36-2.62,3.42a1.68,1.68,0,0,1-1.59-1.29,2.2,2.2,0,0,1,0-1.27,11.93,11.93,0,0,1-11.71-5.18C28.51,261.78,29.23,261.43,29.5,261.85Z" style="fill:#010101"/><path d="M27.63,83.54c.48.63,1,1.25,1.49,1.86a21.08,21.08,0,0,0-2.33,4.83c-1.75,5.34-1.42,11.14-.42,16.59,1.06,5.85,2.94,11.51,4,17.36a87.27,87.27,0,0,1,1,9.93,6.92,6.92,0,0,1-3.18-1.41,12,12,0,0,1-3.44-4.89c-.67-1.54-1.06-3.42-2.32-4.62a2.9,2.9,0,0,0-3.91-.37c-.95.87-1.11,2.25-1.54,3.39a2.87,2.87,0,0,1-1.17,1.56,13.54,13.54,0,0,1-1.86.73,2.63,2.63,0,0,0-.64.35c-2.74-5.16-1.44-11.78.34-17A69.9,69.9,0,0,1,24.3,91.89c.31-.41-.35-.85-.66-.44Q22,93.64,20.47,96a63.05,63.05,0,0,0-8.64,19.35c-1.09,4.58-1.38,9.88.89,14.08a2.33,2.33,0,0,0-.29,2.36c.62,1.62,2.26,2.27,3.26,3.59,1.19,1.57.1,3.51.47,5.26.27,1.27,1.31,2.68,2.77,2.33.5-.12.34-.9-.16-.78-.85.21-1.45-.57-1.71-1.29a5.78,5.78,0,0,1,0-2.65,5.13,5.13,0,0,0-.28-2.69,5.66,5.66,0,0,0-1.58-1.83,7.53,7.53,0,0,1-1.7-1.68,2,2,0,0,1-.3-1.89,11.54,11.54,0,0,0,1.42,1.83c2.44,2.58,5.79,3.9,9,5.44a30.3,30.3,0,0,0-2.79,4.23,4.7,4.7,0,0,0,.39,4.8c2.12,2.88,6.24,2.81,8.56,5.4a.4.4,0,0,0,.59-.53c-1.35-1.51-3.28-2.17-5.1-2.95-1.5-.65-3.15-1.57-3.85-3.13-.87-1.92.34-3.93,1.47-5.46.48-.65,1-1.31,1.44-2a16.57,16.57,0,0,1,6.29,4.84c3.86,5.31-.3,11.62-1.34,17.13a9.73,9.73,0,0,0,1.28,7.48c1.59,2.33,4,3.86,5.85,6a8.36,8.36,0,0,1,.88,1.25.39.39,0,0,0-.33.34A16.19,16.19,0,0,1,30.24,186c-.41.3.11.9.52.6a17,17,0,0,0,6.87-11.37,8.46,8.46,0,0,1,.51,5.18c-1.87,2.31-4.46,4.22-6.48,6.21a37.19,37.19,0,0,0-10.4,19.57,49.61,49.61,0,0,0-.66,6,.31.31,0,0,0-.33.26L19,217.56c-1.55.79-3.1,1.57-4.66,2.32a.4.4,0,0,0,.35.71c1.36-.65,2.71-1.33,4.06-2-.17.7-.33,1.39-.5,2.08a10.1,10.1,0,0,1-.4,1.29A7.58,7.58,0,0,0,13,223.21c-.42.3.11.89.52.6a6.34,6.34,0,0,1,4-1.11l0,.05c-.77,1.09-2.43,1.34-2.68,2.82a2.41,2.41,0,0,0,.4,1.69c-.74.23-1.72.39-2.12-.37a.4.4,0,0,0-.71.36,2.17,2.17,0,0,0,2.35.95,4.82,4.82,0,0,0,1.09-.33,1.89,1.89,0,0,0,.68.3.44.44,0,0,0,.51-.53.59.59,0,0,0,.11-.08l.09-.1a1.62,1.62,0,0,1,1.11.2c.95.6,1.15,1.92,1.65,2.83a2.74,2.74,0,0,0,2.28,1.68c.51,0,.56-.8.05-.79-1.11,0-1.64-1.19-2-2.07a4.58,4.58,0,0,0-1.54-2.3,2,2,0,0,0-.88-.32l.1-.12a11.36,11.36,0,0,1,5.74,1c.46.21.72-.54.26-.75a12.08,12.08,0,0,0-5.39-1.05c.17-.26.33-.52.48-.8a13,13,0,0,0,.83-1.87A20.83,20.83,0,0,1,24,224.74c2.83,1.48,5.64,3,8.45,4.54L32,230a12.21,12.21,0,0,1-4.05-2.8c-.35-.38-.94.15-.59.52.15.16.32.3.48.45a.38.38,0,0,0-.45.25l-.08.29A2.87,2.87,0,0,0,25,227.38c-.51,0-.57.79-.05.79a2.08,2.08,0,0,1,2.05,2c0,.39.66.41.76,0l.08-.26a3.74,3.74,0,0,0,1.06,1.22.4.4,0,0,0,.62-.3h0l1.11,1.26a.35.35,0,0,0,.37.11,16.43,16.43,0,0,0-1.45,7.22c0,.81.11,1.62.21,2.42a16.32,16.32,0,0,0-4.51-5.78c-.4-.32-.84.34-.44.66a15.36,15.36,0,0,1,4.64,6.43.35.35,0,0,0,.51.17,37.44,37.44,0,0,1,.63,6.84c-.12,3-1.05,6.32-3.73,8-.42.27-.08,1,.35.71a8,8,0,0,0,2.66-2.81c3.55-6.28-.45-13.31.65-19.93A16.81,16.81,0,0,1,31.76,232a6.26,6.26,0,0,1,1.2,2.3c.1.34.66.46.77,0l.13-.49L35,236.19a.4.4,0,0,0,.74-.26l-.1-.72a27,27,0,0,1,5.2,3.34.4.4,0,0,0,.08.78.38.38,0,0,0,.41-.36l.1.08a.33.33,0,0,0,.09.53l1.14.61a.47.47,0,0,0,.56-.14c.13.46.27.91.44,1.36a10.06,10.06,0,0,0,1.46,2.6.39.39,0,0,0,.33.53h.1l.11.13a6.08,6.08,0,0,1,1.52,2.22,4,4,0,0,0-.46-.35l-.11-.52a.39.39,0,0,0-.77.16l0,.29a.38.38,0,0,0,0,.39l.18.41.06.29-.22-.38c-.26-.44-1-.09-.71.35L46.62,250l.06.06.63,2.94a.39.39,0,0,0,.71.14,3.53,3.53,0,0,0,.58-1,4.8,4.8,0,0,0,.08-2.78,5.32,5.32,0,0,0-.64-1.44.14.14,0,0,0,0-.07,4.14,4.14,0,0,0-1.38-3.2.41.41,0,0,0,.34-.47A6.71,6.71,0,0,0,43.75,239c-.26-1-.51-1.93-.85-2.87-.84-2.36-2.53-4.78-5.19-5.11-.51-.06-.56.73-.06.79A5,5,0,0,1,41,234a14,14,0,0,1,1.84,4.48c-.18-.07-.36-.15-.54-.2a.37.37,0,0,0-.38.09,28.11,28.11,0,0,0-6.36-4.13c-.15-1-.29-2.07-.44-3.1-.06-.45-.76-.38-.78.05s-.07,1.08-.1,1.62l-.12-.22a.4.4,0,0,0-.73,0l-.07.3a7.29,7.29,0,0,0-1.14-1.71c.28-.56.57-1.1.89-1.64l2,1.07c.45.24.9-.41.45-.66l-2-1.08c.27-.43.54-.86.82-1.28a.4.4,0,0,0,.39.19,2.4,2.4,0,0,0,1-.33,26.14,26.14,0,0,1,3.64,2.55c.39.33.83-.33.44-.66A27,27,0,0,0,36.37,227a3.87,3.87,0,0,0,1-1.61,4.72,4.72,0,0,0,.06-2.3c.5-.75,1-1.5,1.42-2.26a17.43,17.43,0,0,0,2.57-7.54c0-.07,0-.14,0-.2l3.37-.33a.4.4,0,1,0-.16-.78l-3.21.31a14.39,14.39,0,0,0-.87-4.4c3.1.4,5.82-1.6,7.93-3.7,2.28-2.27,4.68-5.25,8.16-5.45.5,0,.56-.82.05-.79-3.29.19-5.71,2.54-7.88,4.78s-5.1,5.08-8.58,4.3c-.26-.64-.54-1.27-.85-1.9-1.33-2.74-3-5.37-3.87-8.32a10.72,10.72,0,0,1-.3-1.43l1.74-3.84c.22-.47-.54-.72-.75-.26L35,193.73a16.65,16.65,0,0,1,1.34-6.11,43.76,43.76,0,0,0,2.56-7c.17-.21.34-.41.5-.63a10.58,10.58,0,0,0,2-6.77A31.07,31.07,0,0,0,39.35,165c-.39-1.13-.8-2.26-1.21-3.38a9.16,9.16,0,0,0,1.3-3c1.22-5.31-1.51-10.28-2.21-15.44a21.61,21.61,0,0,1,1.12-8.91c.29-1,.59-2.09.89-3.13.71,2.09,2.19,4,2.38,6.24a7.81,7.81,0,0,1-3.49,7.11c-.42.27-.07,1,.36.71a8.35,8.35,0,0,0,3-3.3,8.81,8.81,0,0,0,1-3.74,9.19,9.19,0,0,0-1-4.17,14.48,14.48,0,0,1-1.72-4.45l.81-2.82A2.31,2.31,0,0,1,42,126c.51-.07.35-.85-.15-.78a2.73,2.73,0,0,0-.94.3l0-.14c.8-2.79,1.73-5.57,2.39-8.4.49-2.11.79-4.45-.13-6.49s-2.94-3-4.43-4.49a4.4,4.4,0,0,1-1.3-3.4c.05-1.36.41-2.69.4-4-.05-4.7-3.58-8.38-6.49-11.69-.42-.49-.84-1-1.25-1.48A15.42,15.42,0,0,1,38,79.28c.48-.16.32-.94-.16-.78a14.48,14.48,0,0,0-3,1.32,17.1,17.1,0,0,0-5.23,4.9A81.18,81.18,0,0,1,22,73.47c-2.69-4.79-5-9.77-7.34-14.76C12.3,53.54,9.75,48.3,8.84,42.62A23,23,0,0,1,9,34a26.17,26.17,0,0,1,3.39-7.43,11.8,11.8,0,0,0,2-6.46,5.58,5.58,0,0,0-2.55-4.73c-.44-.26-.89.4-.45.66a4.21,4.21,0,0,1,1.9,2.38A8.34,8.34,0,0,1,12.38,25c-1.18,2.3-2.73,4.38-3.59,6.85C7,37,7.65,42.63,9.27,47.75a123.07,123.07,0,0,0,6.43,15A149.69,149.69,0,0,0,23.25,77.1C24.61,79.31,26.06,81.47,27.63,83.54ZM47.25,248.9a.39.39,0,0,0,.24-.37,4,4,0,0,1,.53,2.56,3.36,3.36,0,0,1-.15.7C47.66,250.83,47.45,249.86,47.25,248.9Zm-3.14-8.7a6.1,6.1,0,0,1,2.06,3.6l-.19,0a10.38,10.38,0,0,1-1.84-3.46ZM30.45,230.14a.29.29,0,0,0-.15.19,1.25,1.25,0,0,0,0,.19l-.82-.93a.4.4,0,0,0-.69.24v.1a2.9,2.9,0,0,1-.6-1.44h0A13.24,13.24,0,0,0,30.45,230.14Zm6.66-8.08c-.13-.4-.28-.79-.44-1.18-.61-1.48-1.44-3-1.26-4.68.15-1.35,1-2.73.38-4.08a4.57,4.57,0,0,0-2.16-1.88q2.43-1.5,4.82-3.07c.42-.27.07-1-.36-.71q-2.54,1.68-5.12,3.27l0,0a1.33,1.33,0,0,1-.34-.41,1.62,1.62,0,0,1,.31-1.57c.59-1,1-2,.19-3-.36-.46-.93-.83-1.09-1.41A3.67,3.67,0,0,1,32.6,201l2-4.43a16.28,16.28,0,0,0,.8,2.45c1.13,2.74,2.74,5.24,3.9,8a14.76,14.76,0,0,1,1.25,5.36l-.9.09a.41.41,0,0,0-.31.47.42.42,0,0,0,.47.31l.72-.07a11.48,11.48,0,0,1-.4,2.64A22.89,22.89,0,0,1,37.11,222.06Zm-1.94,4.26,1.54-2.22a3.27,3.27,0,0,1,0,.54,3,3,0,0,1-1,1.94C35.48,226.5,35.33,226.4,35.17,226.32Zm-16.09-3.44a12.07,12.07,0,0,1-1.57,2.94,10.87,10.87,0,0,0-1.25.21.4.4,0,0,0,.16.78l.33-.07h0A6.82,6.82,0,0,0,16,227a1.43,1.43,0,0,1-.37-.63,1.4,1.4,0,0,1,.52-1.53c.48-.39,1.06-.65,1.51-1.08a3.69,3.69,0,0,0,.73-1Zm.62-4.77.44-.22.06,0a23.31,23.31,0,0,1-.86,4.26l-.66-.1A32.05,32.05,0,0,0,19.7,218.11Zm.73-3.07c0,.62-.08,1.24-.13,1.86l-.36.18C20.1,216.4,20.27,215.72,20.43,215Zm.63,2.36c4-2.1,8-4.35,11.82-6.71a7.68,7.68,0,0,1,1.94,1.36c.91,1.09,0,2.73-.18,3.93a8.24,8.24,0,0,0,.94,4.37,17.21,17.21,0,0,1,1,2.57l-.26.39c-.59.89-1.2,1.78-1.8,2.67-.4-.2-.8-.4-1.21-.58s-.72.54-.26.75.69.33,1,.5c-.43.64-.85,1.29-1.24,1.95l-2.66-1.43-4.69-2.52a31.71,31.71,0,0,0-4.33-2.05c-.33-.11-.67-.22-1-.31A25,25,0,0,0,21.06,217.4ZM37.73,182c-.95,3-2.52,5.71-3.22,8.77a12.17,12.17,0,0,0-.17,4.49l-.59,1.31c-.77,1.69-1.63,3.37-2.3,5.11a3,3,0,0,0-.19,2,3.35,3.35,0,0,0,.9,1.3c.41.44.77.87.57,1.5a16,16,0,0,1-.82,1.52,2,2,0,0,0,.33,2.23q-5.45,3.32-11.1,6.28c.14-1.69.19-3.39.3-5a38.17,38.17,0,0,1,3.73-14.48,39.35,39.35,0,0,1,9.41-12C35.66,184,36.74,183,37.73,182Zm1-16.42c.12.34.24.68.35,1,.9,2.74,1.89,5.68,1.5,8.61A9.65,9.65,0,0,1,39.17,179v-.08a8.09,8.09,0,0,0-.57-3.46.4.4,0,0,0,0-.39A12.66,12.66,0,0,1,38.71,165.57Zm-5.77-17.21c0-.17,0-.34,0-.51a83,83,0,0,0,3.13,10.42c.4,1.11.81,2.21,1.21,3.31a.34.34,0,0,0,.09.24c.33.9.66,1.8,1,2.71a.56.56,0,0,0-.14.16,13.45,13.45,0,0,0-1,8.38A13.88,13.88,0,0,0,36,171.59c-2-1.92-4.42-3.6-5.56-6.19-1.22-2.8-.45-5.9.42-8.68S32.77,151.25,32.94,148.36Zm-1.5-13.42c.14,2.3.28,4.6.52,6.89.07.75.17,1.49.28,2.23a9.94,9.94,0,0,0-2.2-3.3,20.38,20.38,0,0,0-5.42-3.64,6.32,6.32,0,0,0,.73-2A4,4,0,0,0,24,131.24c-.41-.31-.85.35-.45.66,1.53,1.16,1.15,3.4.33,4.87-3.65-1.77-7.47-3.29-9.84-6.69-.13-.19-.24-.38-.36-.57a5.67,5.67,0,0,1,1.22-.52,5.53,5.53,0,0,0,1.65-.77c1-.74,1.26-2,1.61-3.14a4,4,0,0,1,.75-1.54,1.79,1.79,0,0,1,1.95-.41c1.62.57,2.14,2.44,2.7,3.88a18.73,18.73,0,0,0,2.26,4.35A8.59,8.59,0,0,0,31.44,134.94ZM29.65,86c.92,1.09,1.86,2.16,2.79,3.25a21.46,21.46,0,0,1,3.93,5.91,9.31,9.31,0,0,1,.68,3.49c0,1.33-.38,2.63-.41,4,0,2.28,1.2,3.73,2.9,5.07a11.52,11.52,0,0,1,2.38,2.19,5.91,5.91,0,0,1,1,3.49c0,2.54-.88,5-1.58,7.43l-1.59,5.54a4,4,0,0,0-.85,1.79,5.14,5.14,0,0,0-.06,1.35l0,.12c-.8,2.78-1.73,5.57-2.26,8.42a18.87,18.87,0,0,0,.44,8.22c1.13,4.55,3.27,10,.76,14.4-.43-1.17-.87-2.34-1.29-3.52a82.63,82.63,0,0,1-2.58-8.28,58,58,0,0,1-1.33-8.6c-.15-1.75-.26-3.51-.37-5.27a5.71,5.71,0,0,0,1.62-.23c.49-.14.34-.91-.15-.77a5.35,5.35,0,0,1-1.53.19,87.89,87.89,0,0,0-1.28-11.42c-1.14-5.77-3-11.39-3.94-17.21-.9-5.54-1-11.46,1.22-16.72A19.76,19.76,0,0,1,29.65,86Z" style="fill:#010101"/><path d="M17.56,55.42a.4.4,0,0,0,.78-.16,7.86,7.86,0,0,1,.22-4.08,8.35,8.35,0,0,1,1.81-3.13A9.23,9.23,0,0,1,23.43,46a2.42,2.42,0,0,0,.24.45c.3.42.89-.11.6-.52a1.49,1.49,0,0,1-.14-.24c1.65-.73,3.56-1.71,4.28-3.35a10.14,10.14,0,0,0,1.12-.26,4.42,4.42,0,0,0,2.75-2.16,6,6,0,0,0,.48-1.24,16.1,16.1,0,0,0,1.3,2.2,10.24,10.24,0,0,1,1.65,2.57,3.12,3.12,0,1,1-6,1.62c-.08-.36-.66-.45-.76-.05a13.09,13.09,0,0,1-8.69,9.12c-.49.15-.33.93.16.78a13.94,13.94,0,0,0,9-8.61,4.11,4.11,0,0,0,3.92,2,4,4,0,0,0,3.37-4c0-2.07-1.83-3.57-2.78-5.26a16.78,16.78,0,0,1-.81-1.72c.06-.34.11-.68.16-1a.39.39,0,0,0-.63-.33A15.65,15.65,0,0,1,32,33,14.67,14.67,0,0,1,41.3,18.28c2-.8,4.21-1.19,6.17-2.15a7.16,7.16,0,0,0,3.67-3.83,4.3,4.3,0,0,0-.7-4.63c-.36-.37-1,.15-.6.52,1.38,1.4.93,3.55-.07,5-1.24,1.84-3.41,2.61-5.45,3.24a25.46,25.46,0,0,0-5.48,2.11,15.87,15.87,0,0,0-4.15,3.55A15.19,15.19,0,0,0,31.2,32.65a15.65,15.65,0,0,0,1.05,4.82,5.9,5.9,0,0,1-1.06,2.67,4.16,4.16,0,0,1-2.53,1.33,3.34,3.34,0,0,0,.05-.78c0-.51-.82-.56-.79-.06a3,3,0,0,1-.13,1l-.48.08a5.44,5.44,0,0,0-3.43,1.61,2.91,2.91,0,0,0-.62,1.87,12.31,12.31,0,0,0-1.81.92,8.56,8.56,0,0,0-2.51,2.47A9,9,0,0,0,17.56,55.42Zm7.78-11.17c-.43.23-.87.42-1.32.62A2.88,2.88,0,0,1,25.69,43a7.46,7.46,0,0,1,1.68-.46A5.68,5.68,0,0,1,25.34,44.25Z" style="fill:#010101"/><path d="M26.07,34.88c1.14-1.31,3.22-3.63,1.57-5.38-.35-.37.25-.89.6-.52,1.44,1.52.61,3.76-.52,5.18s-3.61,3.62-2.23,5.73c.28.43-.44.78-.71.36C23.58,38.42,24.85,36.3,26.07,34.88Z" style="fill:#010101"/><path d="M25.2.41c0,3.29,0,6.6,1.16,9.72.52,1.42,1.18,2.79,1.63,4.24a12.65,12.65,0,0,1,.5,4.7,33,33,0,0,1-1,5.57c-.12.49-.87.23-.75-.26.8-3.22,1.54-6.51.54-9.77-.45-1.49-1.15-2.9-1.67-4.37a18.14,18.14,0,0,1-1-4.48A51.27,51.27,0,0,1,24.4.36C24.41-.15,25.2-.1,25.2.41Z" style="fill:#010101"/><path d="M38.19,59.63c2.87-2.43,6.34-3.85,9.67-5.52,3.08-1.55,6.2-3.51,8-6.6,1.61-2.85,1.6-7-1.13-9.23-.39-.32,0-1,.45-.66a7.78,7.78,0,0,1,2.29,8c-.8,3.29-3.43,5.76-6.18,7.53-3.27,2.1-7,3.35-10.28,5.45a21.5,21.5,0,0,0-7.06,7.5A21.79,21.79,0,0,0,31,77.1c0,.51-.79.46-.79,0A22.87,22.87,0,0,1,38.19,59.63Z" style="fill:#010101"/><path d="M25.29,57.93a28,28,0,0,0,2.6-2.84,3.94,3.94,0,0,0,.66-1.88,5.44,5.44,0,0,1,.35-2,2.88,2.88,0,0,1,2.85-1.33c1.43.08,2.89.78,4.24,0a4.26,4.26,0,0,0,1.9-3.36,11.88,11.88,0,0,0-1.23-5.22c-.19-.48.52-.83.71-.36,1,2.5,2,5.35.64,7.9a4.19,4.19,0,0,1-2.42,2.07c-1.43.44-2.81-.29-4.24-.23a2.07,2.07,0,0,0-1.63.7,4.11,4.11,0,0,0-.39,2.06,5.58,5.58,0,0,1-1.64,3.16,24.32,24.32,0,0,0-2.55,2.82,8.91,8.91,0,0,0-1.34,3.32,9.39,9.39,0,0,0,1.82,7.62c.32.39-.28.92-.6.52A10.23,10.23,0,0,1,25.29,57.93Z" style="fill:#010101"/><path d="M33.8,77.4a26.94,26.94,0,0,0,3.39-1.48,9.79,9.79,0,0,1,2.67-1.62c2.24-.55,3.29,2,4.19,3.54a29.37,29.37,0,0,0,4.45,5.61c1.93,2,4,3.72,6.15,5.48.39.32,0,1-.44.66-3.34-2.79-6.73-5.61-9.35-9.12a25.73,25.73,0,0,1-1.77-2.71,7.16,7.16,0,0,0-1.69-2.4c-.93-.67-1.88-.16-2.69.44A12.12,12.12,0,0,1,36,77.36a15.92,15.92,0,0,0-3.33,1.52,3.41,3.41,0,0,0-1.67,3c.05.5-.73.66-.78.15C30,79.75,31.94,78.2,33.8,77.4Z" style="fill:#010101"/><path d="M21.43,99a13.59,13.59,0,0,1,3.24-4.1.39.39,0,0,1,.52.59,13.64,13.64,0,0,0-4.49,8.27,13.84,13.84,0,0,0,.06,4.76,16,16,0,0,0,1.84,4.67c.81,1.51,1.27,3.69-.46,4.76-.44.26-.79-.45-.36-.72A2.06,2.06,0,0,0,22.5,115a10.37,10.37,0,0,0-1.21-2.59,13.65,13.65,0,0,1-1.41-4.4A15.2,15.2,0,0,1,21.43,99Z" style="fill:#010101"/><path d="M33.47,107.67l-.81-3.78a.39.39,0,0,1,.77-.16c.49,2.26,1,4.51,1.46,6.79a5.52,5.52,0,0,1-.12,3.07c-.35.89-1,1.62-1.32,2.52-.65,1.87.62,3.73,1.57,5.25a16.18,16.18,0,0,1,2.29,5.31,14.67,14.67,0,0,1-.13,6.59c-.12.49-.87.23-.75-.26a13.8,13.8,0,0,0,.15-5.93,15.46,15.46,0,0,0-2.23-5.29c-.92-1.47-2-3.12-1.86-4.94a5.58,5.58,0,0,1,.94-2.41,4.54,4.54,0,0,0,.79-3A34.55,34.55,0,0,0,33.47,107.67Z" style="fill:#010101"/><path d="M44.49,138.27c2.75.39,4.74-2.38,4.74-4.88A8.83,8.83,0,0,0,48,129.15c-.7-1.25-1.64-2.33-2.4-3.53a5.33,5.33,0,0,1-1-4.11c.11-.5.86-.23.75.26-.35,1.51.53,3,1.36,4.14a22.19,22.19,0,0,1,2.45,3.85c1.17,2.6,1.26,5.68-.83,7.84a4.58,4.58,0,0,1-3.91,1.46C43.93,139,44,138.2,44.49,138.27Z" style="fill:#010101"/><path d="M37.64,84.67c1.52-1.29,3.86-.39,5.43.33s3.45,2,3.53,4c0,.51-.78.45-.8,0,0-1.48-1.41-2.46-2.61-3.07A11.93,11.93,0,0,0,40.93,85a3.3,3.3,0,0,0-2.58.09,1.88,1.88,0,0,0-.86,1.55c0,.73.68,1,1.31,1.07,1.22.13,2.92-.06,3.28,1.49a3.49,3.49,0,0,1-.52,2.33A3.65,3.65,0,0,0,41,93c0,.42.25,1.09.76,1s.67.74.16.78a1.6,1.6,0,0,1-1.68-1.44c-.17-1,.51-1.86.86-2.76a1.77,1.77,0,0,0,.11-1.35,1.25,1.25,0,0,0-1.11-.63,7,7,0,0,1-2.42-.34C36.24,87.56,36.55,85.6,37.64,84.67Z" style="fill:#010101"/><path d="M34,34.13c1.51-1.39,3.34-3,3.66-5.18.24-1.63-.47-3.61-2.21-4a.4.4,0,0,1,0-.73,12.06,12.06,0,0,0,4.7-3.63c.31-.4,1,0,.65.44a12.82,12.82,0,0,1-4.23,3.51,4.46,4.46,0,0,1,2,4.25c-.22,2.49-2.22,4.38-3.95,6C34.14,35.08,33.62,34.48,34,34.13Z" style="fill:#010101"/><path d="M23.46,232.18a.4.4,0,0,1,.5-.25,6,6,0,0,1,3.4,5,.4.4,0,0,1-.43.37.41.41,0,0,1-.37-.42,5.08,5.08,0,0,0-2.86-4.21A.4.4,0,0,1,23.46,232.18Z" style="fill:#010101"/><path d="M41.07,240.32c.22-.45,1-.2.75.26a4.06,4.06,0,0,0-.21,3.17,7.62,7.62,0,0,0,1.94,2.54c1.18,1.24,2.41,3.29,1.12,4.89-.31.4-1,0-.65-.44a2.39,2.39,0,0,0-.06-2.67,15.21,15.21,0,0,0-2-2.31A4.89,4.89,0,0,1,41.07,240.32Z" style="fill:#010101"/><path d="M47.23,256a.4.4,0,0,1,.52.6,2.07,2.07,0,0,0-.38,2.89c.33.4-.27.92-.59.53A2.88,2.88,0,0,1,47.23,256Z" style="fill:#010101"/><path d="M32.83,252.53c.87,1.78,1.74,3.55,2.62,5.33a.4.4,0,0,1-.71.35c-.88-1.77-1.75-3.55-2.63-5.32A.4.4,0,0,1,32.83,252.53Z" style="fill:#010101"/><path d="M34,249l4.76,9.28a.4.4,0,0,1-.71.35l-4.76-9.28A.4.4,0,0,1,34,249Z" style="fill:#010101"/><path d="M1,240.44a1.51,1.51,0,0,0,1.54-.22A1.25,1.25,0,0,0,3,238.78a.39.39,0,0,0-.53-.18.41.41,0,0,0-.18.53.27.27,0,0,1,0,.18.46.46,0,0,1-.11.18.8.8,0,0,1-.49.27.6.6,0,0,1-.49-.13,1.08,1.08,0,0,1-.32-.49,2.15,2.15,0,0,1,.8-2.15.35.35,0,0,0,0,.25l.24,1.06a.4.4,0,0,0,.47.31l1.42-.43,0,.1c.2.88.63,2,.18,2.85a1.24,1.24,0,0,0-1.34,1.15c-.07,1.13,1,1.72,1.83,2.22,1.53.93,1.52,2.66,1.78,4.25a4.62,4.62,0,0,0,2.51,3.77c1.83.88,3.87.65,5.81,1a4.53,4.53,0,0,1,2.73,1.32,2.41,2.41,0,0,1,.61,2.46c-.19.48.57.74.75.26a2.82,2.82,0,0,0,.14-1.31c.22-.12.52.11.64.28a2.22,2.22,0,0,1,.22,1.22,2.82,2.82,0,0,0,.78,2,2.88,2.88,0,0,0,3.68.33c.41-.3-.11-.9-.52-.59a2.1,2.1,0,0,1-3-.85,6.4,6.4,0,0,1-.23-1.74.24.24,0,0,1,.08.06c.42.3.86-.36.45-.66a8.35,8.35,0,0,1-3-3.17c-.61-1.38.09-2.48.72-3.69l.65-.08a.4.4,0,0,0,0-.77l-.32-.09,0-.11.49,0c.36,0,.61-.53.25-.73l-.63-.34a3.39,3.39,0,0,0-.16-.83l.67,0a.4.4,0,0,0,.25-.72,8.65,8.65,0,0,0-1.12-.69l1.15.06a.4.4,0,0,0,.16-.77c-.33-.15-.65-.31-1-.49a2,2,0,0,0,.1-.26,2.3,2.3,0,0,0,0-1.25,12.63,12.63,0,0,0,1.74-.29c.5-.12.34-.9-.16-.78a12.06,12.06,0,0,1-2.06.31,1,1,0,0,0-.14-.15.36.36,0,0,0-.57.18,11.58,11.58,0,0,1-1.55-.08,3,3,0,0,0,.45-1.39,2.86,2.86,0,0,0-2.12-3.06,3.15,3.15,0,0,0-3.2,1.15A2.73,2.73,0,0,0,10,238a.41.41,0,0,0-.31.47l0,0a.38.38,0,0,0,.36.41.35.35,0,0,0,.32-.14h0a.39.39,0,0,0-.14.39c.08.4.17.79.26,1.19l.13.56c0,.15.06.3.2.39a.75.75,0,0,0,.25.09,2.05,2.05,0,0,0,1.67-.29,7.73,7.73,0,0,0,2.8,2.85l.32.23-.49,0a.4.4,0,0,0,0,.79,8.56,8.56,0,0,1,1.6.32l-.31.27-1.1-.08c-.37,0-.61.54-.25.73l.44.24,0,0a8.76,8.76,0,0,0-.77,1.07.75.75,0,0,0-.07.12,8.42,8.42,0,0,0-1.13,4.1c0,.51.78.57.79.06a7.56,7.56,0,0,1,.4-2.34.41.41,0,0,0,.46.36l2.22-.28A7.68,7.68,0,0,0,17,250.8a3.59,3.59,0,0,0,.37,3,5,5,0,0,0-.83-.56c-2.87-1.43-8.26.32-9.37-3.73-.37-1.39-.27-2.9-.9-4.21a3.65,3.65,0,0,0-1.54-1.57,3.44,3.44,0,0,1-1.14-.85.79.79,0,0,1-.17-.72c.06-.16.3-.38.49-.28a.41.41,0,0,0,.55-.11c.74-1,.41-2.25.15-3.34a4.93,4.93,0,0,1-.25-1.74c.08-.77.69-1.08,1.38-1.28,1-.27,2-.52,3-.78a11,11,0,0,1,3.06-.47c1.52.06,3.38,1,3.37,2.75,0,.51.79.56.79.05a3.6,3.6,0,0,0-2.42-3.25,7.84,7.84,0,0,0-4.86.12c-.91.23-1.82.48-2.73.72a3.48,3.48,0,0,0-1.83.87,2.35,2.35,0,0,0-.49,1.94h0l-1,.32-.15-.64a.4.4,0,0,0-.47-.31s0,0-.08,0l.46-.42a.4.4,0,0,0-.52-.6,6.35,6.35,0,0,0-1.46,1.64A2.17,2.17,0,0,0,1,240.44Zm14.12,8.63a6.94,6.94,0,0,1,.39-.83l1.76.52-2,.25A.34.34,0,0,0,15.11,249.07Zm1.4-2.28,1.29.7L16,247.4C16.18,247.19,16.34,247,16.51,246.79Zm-4.39-6.9.09.19,0,.08a.19.19,0,0,1,0,.07,1.6,1.6,0,0,1,.05.21,1.21,1.21,0,0,1-.87.17c-.12-.55-.24-1.09-.37-1.64,0,0,0-.05,0-.08l.12.05,0,0,.1.06.09.07a.38.38,0,0,0,.18.13h0l.06,0,0,0,.08.09.15.17.07.09,0,0A1.28,1.28,0,0,1,12.12,239.89Zm3.29,1.73a.4.4,0,0,0,.38.68,13.59,13.59,0,0,0,2.28,1.87l-.07.09-.72,0a15.33,15.33,0,0,0-1.28-1,6.21,6.21,0,0,1-2.62-2.84.3.3,0,0,0-.32-.22v0a3,3,0,0,0-.3-.72,2.89,2.89,0,0,0-.54-.66,2.21,2.21,0,0,1,1.09-.77,2.06,2.06,0,0,1,2.55.92A2.31,2.31,0,0,1,15.41,241.62Zm3,1.84a11.11,11.11,0,0,1-1.35-1c.44,0,.87,0,1.31,0A1.24,1.24,0,0,1,18.43,243.46Z" style="fill:#010101"/><path d="M169.53,141.8a.4.4,0,0,1,.5-.25l2.9,1.27a.4.4,0,0,1,.24.51.39.39,0,0,1-.5.24l-2.9-1.27A.39.39,0,0,1,169.53,141.8Z" style="fill:#010101"/><path d="M80.81,230.38a145.82,145.82,0,0,0,17.54-5.45,148.26,148.26,0,0,0,16.73-7.62c2.5-1.34,5-2.77,7.37-4.25a.39.39,0,0,1,.1-.73l1.57-.25a.4.4,0,0,1,.26.74A146.27,146.27,0,0,1,91,228.34q-5,1.59-10,2.82C80.47,231.28,80.31,230.5,80.81,230.38Z" style="fill:#010101"/><path d="M214.39,138.14l11.27-6.26c.45-.25.8.46.35.71l-11.27,6.26C214.29,139.1,213.94,138.38,214.39,138.14Z" style="fill:#010101"/><path d="M120.71,191.28l19.13-10.64,19-10.59,10.82-6c.45-.25.8.46.36.71l-19.14,10.64L131.88,186l-10.82,6C120.61,192.24,120.26,191.52,120.71,191.28Z" style="fill:#010101"/><path d="M49,230.34q9-6.71,18.31-12.93t19-12q5.43-3.22,11-6.28c.45-.25.8.46.36.71q-9.76,5.4-19.24,11.31T59.74,223.52q-5.19,3.63-10.25,7.42C49.08,231.25,48.56,230.65,49,230.34Z" style="fill:#010101"/><path d="M41.24,228.36l12.42-7c.45-.25.8.46.36.71q-6.23,3.47-12.43,6.95C41.14,229.32,40.79,228.61,41.24,228.36Z" style="fill:#010101"/><path d="M51.56,212.38a5.81,5.81,0,0,1,5.16,1.53,5.73,5.73,0,0,1,1.56,5c-.09.5-.88.45-.79,0a5,5,0,0,0-1.3-4.4,5,5,0,0,0-4.47-1.34A.4.4,0,0,1,51.56,212.38Z" style="fill:#010101"/><path d="M60.28,208a23.84,23.84,0,0,1,7.08,5.83c.32.4-.27.92-.6.52a23.22,23.22,0,0,0-6.93-5.69C59.38,208.41,59.83,207.76,60.28,208Z" style="fill:#010101"/><path d="M44.12,233.52c-.83-1.56.35-3.06,1.41-4.14.36-.36.88.24.53.6a4.78,4.78,0,0,0-1.38,2c-.22.86.34,1.45.77,2.12a3.4,3.4,0,0,1-.19,4c-.14.18-.47.27-.62,0s-.39-.57-.59-.86.31-.94.6-.52l.27.4a2.55,2.55,0,0,0,.26-1.59A6.86,6.86,0,0,0,44.12,233.52Z" style="fill:#010101"/><path d="M22,220.76a.41.41,0,0,1,.51-.24l3.47.78a.39.39,0,0,1,.24.5.39.39,0,0,1-.5.24l-3.47-.77A.41.41,0,0,1,22,220.76Z" style="fill:#010101"/><path d="M29,219.86l2.17-.13a.39.39,0,0,1,.37.42.4.4,0,0,1-.42.37l-2.17.13a.4.4,0,1,1,.05-.79Z" style="fill:#010101"/><path d="M84.79,191.15l12,2.31c.5.1.45.89,0,.79l-12.05-2.31C84.25,191.84,84.29,191.05,84.79,191.15Z" style="fill:#010101"/><path d="M161.79,151.9a.42.42,0,0,1,.51-.25,6.16,6.16,0,0,1,3.92,3.07c.24.45-.47.8-.71.35A5.39,5.39,0,0,0,162,152.4.4.4,0,0,1,161.79,151.9Z" style="fill:#010101"/><path d="M178.21,181.57c-.06-.5.71-.67.77-.16a18.17,18.17,0,0,1-.45,6.73c-.13.49-.88.23-.75-.27A17.14,17.14,0,0,0,178.21,181.57Z" style="fill:#010101"/><path d="M201.63,178.59c3-1.68,6.08-3.37,9-5.19a60.19,60.19,0,0,0,13.79-11.07,33,33,0,0,0,7.6-14c.26,0,.51-.26.33-.55l-.21-.33c-.16-.25-.65-.32-.73.05a28.78,28.78,0,0,1-3.41,8.57,43.36,43.36,0,0,1-11.36,12.25c-1.48,1.13-3,2.18-4.59,3.19l0,0a38.87,38.87,0,0,0,2.54-4.71c.84-.52,1.68-1,2.5-1.59a17.85,17.85,0,0,1-1.38,2.08c-.32.4.34.84.65.44a17.72,17.72,0,0,0,2.11-3.45,88.41,88.41,0,0,0,7.92-6.12c.39-.33-.14-.93-.52-.6-1.34,1.16-2.7,2.28-4.1,3.35l-.43.32a15.22,15.22,0,0,0,1.32-2.91.37.37,0,0,0,.38-.36l.06-1.26c0-.43-.67-.61-.77-.16a15,15,0,0,1-2.73,5.9.67.67,0,0,0-.06.12l-.49.35a18.63,18.63,0,0,0,.93-3.52c.09-.51-.71-.56-.79-.06a17.28,17.28,0,0,1-1.35,4.42q-1.33.91-2.7,1.77a37.32,37.32,0,0,0,1.42-4.09c.14-.49-.61-.76-.75-.27a37.16,37.16,0,0,1-1.84,5.09c-.79.48-1.59.95-2.39,1.4l.72-1.88a.4.4,0,0,0-.75-.26l-1.05,2.74-1.72.92a16.08,16.08,0,0,0,.12-2.4c0-.51-.8-.57-.79-.06a15.54,15.54,0,0,1-.19,2.9q-1,.51-2,1a.4.4,0,0,0,.35.71c.5-.23,1-.48,1.48-.72a15.63,15.63,0,0,1-1.45,3.93.43.43,0,0,0,0,.45q-2.55,1.47-5.12,2.89C200.83,178.12,201.18,178.84,201.63,178.59Zm7.92-5.44,1.65-4.31,2.24-1.28c-.6,1.21-1.25,2.38-2,3.53a.41.41,0,0,0,.41.61C211.11,172.19,210.33,172.67,209.55,173.15Zm-2.29,1.34a16.76,16.76,0,0,0,1.44-4.32l1.43-.76-1.45,3.78a.34.34,0,0,0,.11.42Z" style="fill:#010101"/><path d="M130.48,211.69l4.16-2.4a5.55,5.55,0,0,1-2,3.54c-.4.32.12.92.52.6a6.27,6.27,0,0,0,2.33-4.45.32.32,0,0,0,0-.17l4.83-2.79a19.52,19.52,0,0,1-2.81,6.68L131,216.33c-.44.25-.09,1,.35.71l5.09-2.87a.41.41,0,0,0,.73.27c.3-.37.57-.76.84-1.15l2.47-1.4,11.34-6.39a.39.39,0,0,0,.58-.06l.29-.43,4.08-2.3a.4.4,0,0,0,.7.1c.17-.25.32-.5.47-.76l10.19-5.75a.43.43,0,0,0,.58-.07c.13-.15.24-.31.36-.46l2.58-1.45-.07.09c-.29.42.37.86.66.45a28.05,28.05,0,0,0,4.7-11.3,27.68,27.68,0,0,0-4.16-20.31,28.42,28.42,0,0,0-15.95-11.57c-.5-.13-.76.62-.27.75a27.39,27.39,0,0,1,19.69,21.67,27.61,27.61,0,0,1-.3,10.33h0l-10.13,5.87L148,200.64,130.13,211C129.69,211.24,130,212,130.48,211.69Zm39.69-17.43a19.16,19.16,0,0,0,2.35-5.48l1.19-.92c.41-.31-.12-.91-.52-.6l-.75.58a.34.34,0,0,0-.54.2c0,.09-.05.18-.07.27l-4.05,3.13c0-.2,0-.4,0-.6,0-.51-.78-.57-.79-.06a9.81,9.81,0,0,1-.12,1.33L164,194.33c.12-.3.24-.6.35-.91.19-.48-.56-.74-.75-.26l-.81,2.11-3.22,2.48a14.69,14.69,0,0,0,.33-2.57.37.37,0,0,0-.28-.38l16.08-9.31a27,27,0,0,1-3.18,7.49.36.36,0,0,0-.19.05Zm-11.55,6.51a15.44,15.44,0,0,0,.65-1.76l3-2.31-.26.68c-.19.48.56.74.75.26s.48-1.25.73-1.88l3.18-2.45a10.2,10.2,0,0,1-.73,1.9.4.4,0,0,0,.25.5.4.4,0,0,0,.5-.24,10.43,10.43,0,0,0,1-2.92l3.83-3a18.83,18.83,0,0,1-2.89,5.57l-5.35,3Zm-5,2.81a21.54,21.54,0,0,0,2.35-5.85.43.43,0,0,0-.51-.51l3-1.74.68-.39a.08.08,0,0,0,0,0,14,14,0,0,1-.54,3.4l-.86.66c-.37.29,0,.8.41.65a14.18,14.18,0,0,1-.76,1.63Zm-4.74,2.68q1.08-3.06,2.14-6.13a.39.39,0,0,0,0-.32l4.3-2.49a.26.26,0,0,0-.07.15,21.27,21.27,0,0,1-3.06,6.94Zm-5.12,2.89c.69-2,1.39-3.91,2.08-5.87a.34.34,0,0,0-.12-.42l4.4-2.54-2.25,6.42a.28.28,0,0,0,0,.09Zm-2.72-2.94a.42.42,0,0,0-.26-.48l4.22-2.45c-.72,2-1.45,4.07-2.17,6.11a.35.35,0,0,0,0,.27l-4,2.24A20.32,20.32,0,0,0,141.05,206.21Z" style="fill:#010101"/><path d="M78.42,245.05a29.28,29.28,0,0,0,4.4-10.19c.11-.5.85-.23.75.26a29.87,29.87,0,0,1-4.49,10.37A.4.4,0,0,1,78.42,245.05Z" style="fill:#010101"/><path d="M57.47,259.3l15.81-9.09,18.37-10.57-.22.68c-.15.49.6.75.75.26l.48-1.52,8.62-5,4.49-2.59a.41.41,0,0,0,.4-.23l14.49-8.34a.42.42,0,0,0,.6-.18l.1-.22,8.09-4.65c.44-.26.09-1-.36-.71l-7.17,4.12c.73-1.61,1.47-3.23,2.2-4.85.21-.46-.54-.72-.75-.26q-1.31,2.9-2.63,5.79l-5.46,3.14a16.54,16.54,0,0,0,2.19-5.26l2.64-1.7c.42-.28.07-1-.35-.71l-2.08,1.34c0-.24.07-.47.1-.71,0-.5-.74-.56-.79-.05s-.13.9-.23,1.34l-2.7,1.75c0-.19.06-.38.08-.57,0-.51-.75-.56-.8-.05s-.1.8-.18,1.2l-3.59,2.21.12-.25c.21-.46-.54-.72-.75-.26l-.58,1.26-3.66,2.2.81-3c.13-.5-.62-.76-.75-.27l-1,3.83q-2.11,1.25-4.23,2.46c.34-1,.69-2.05,1-3.08a.4.4,0,0,0-.75-.26l-1.33,3.93c-1.27.72-2.53,1.44-3.81,2.14l.66-2.13c.15-.49-.6-.75-.75-.26-.3,1-.6,2-.91,2.94-1.23.68-2.46,1.37-3.7,2-.45.24-.1.95.35.71,1-.54,2-1.1,3-1.65L92,238.53l-6.7,3.85-.43.25a23.13,23.13,0,0,0,3.28-11.1.4.4,0,0,0-.79-.05,22.37,22.37,0,0,1-3.31,11,.39.39,0,0,0,.15.56L75,248.32a21,21,0,0,0,3.15-6.73l0,0a.41.41,0,0,0,.12-.6l.06-.24c.11-.5-.64-.76-.75-.26l-.15.6-5.14,3c.07-.25.14-.5.2-.75.11-.5-.64-.76-.75-.26s-.28,1.07-.45,1.59l-3.58,2.09c.14-.64.26-1.28.36-1.93s-.72-.55-.8-.05a23.89,23.89,0,0,1-.5,2.52l-3.93,2.29c-.44.26-.09,1,.35.71l3.28-1.91a26,26,0,0,1-2.17,5.2c-.25.44.41.89.66.44a26.89,26.89,0,0,0,2.49-6.21l3.42-2a19.66,19.66,0,0,1-2.87,5c-.31.4.35.84.66.44a20.37,20.37,0,0,0,3.29-6.1l5.17-3a20.61,20.61,0,0,1-3.5,6.65.33.33,0,0,0-.07.32l-16.42,9.45C56.68,258.85,57,259.56,57.47,259.3ZM106.75,230l2.22-4.81c1.31-.8,2.62-1.62,3.92-2.44a12.76,12.76,0,0,1-1.54,3.33c-.28.43.37.87.65.45a13.59,13.59,0,0,0,1.87-4.38l2.62-1.69a15.79,15.79,0,0,1-2.62,5.29.32.32,0,0,0-.07.2l-.51.29ZM93,237.94c.44-1.4.87-2.81,1.31-4.22.9-.5,1.82-1,2.72-1.5l1-.59-.07.2a.4.4,0,0,0,.75.26L99.1,231c1.44-.82,2.89-1.64,4.32-2.49-.13.49-.27,1-.4,1.47s.62.75.75.26l.63-2.31,3.36-2q-1.1,2.38-2.2,4.77Z" style="fill:#010101"/><path d="M58.69,256.28l3.81-8.14c.21-.45,1-.2.75.27l-3.81,8.13C59.23,257,58.47,256.74,58.69,256.28Z" style="fill:#010101"/><path d="M58,252.13a.4.4,0,0,1-.05.79A.4.4,0,0,1,58,252.13Z" style="fill:#010101"/><path d="M64.56,240.89c1.61-.2,2.54-1.66,3.33-2.92A6.8,6.8,0,0,1,71,234.88a20.43,20.43,0,0,1,4.47-.71c1.32-.2,2.85-.71,3.39-2.06.19-.47.94-.21.75.26-1.27,3.19-5.29,2.32-7.9,3.1-1.76.53-2.56,2.05-3.49,3.49a5.16,5.16,0,0,1-3.48,2.7C64.22,241.72,64.05,241,64.56,240.89Z" style="fill:#010101"/><path d="M54.05,244.3a14.76,14.76,0,0,0,5.71-1.74c.44-.25.8.46.35.71a15.36,15.36,0,0,1-5.9,1.81.41.41,0,0,1-.47-.31A.4.4,0,0,1,54.05,244.3Z" style="fill:#010101"/></g></g></svg>