<svg id="Camada_1" data-name="Camada 1" xmlns="http://www.w3.org/2000/svg" viewBox="0 0 257.74 95.39"><defs><style>.cls-1{fill:#1d1d1b;}.cls-2{fill:none;}</style></defs><title>pagina2_nota1</title><path class="cls-1" d="M776.57,855a7.2,7.2,0,0,0,4.66-2.64v.19c-.16-.21-.47-.17-.75,0a2.7,2.7,0,0,0-.76.58l-1.46,1.43a11.9,11.9,0,0,0-2.42,3.21,6.25,6.25,0,0,0-.59,1.87c0,.3.07.56.24.6a2.28,2.28,0,0,0,.87-.12,6,6,0,0,0,3.23-2.17l.32.37a11.83,11.83,0,0,0-4.11,4,12,12,0,0,0-1.22,2.62,3.75,3.75,0,0,0-.09,2.69,1.25,1.25,0,0,0,1,.7,3.86,3.86,0,0,0,1.37-.14,8.52,8.52,0,0,0,2.64-1.11,8.77,8.77,0,0,0,3.56-4.38l.47.17-.94,2.62a4,4,0,0,0-.34,1.26c0,.42.21.6.52.44a7.7,7.7,0,0,0,1-.89l1-1,2-2,.66-.65-.24.89a22.31,22.31,0,0,0-.52,2.66,2.88,2.88,0,0,0,0,1.24c.13.36.38.39.63.1s.47-.77.75-1.12a11.73,11.73,0,0,1,.94-1,10,10,0,0,1,2.27-1.61l.13-.06.06.12a2.08,2.08,0,0,1,.16,1.27,9.14,9.14,0,0,1-.29,1.2,5.64,5.64,0,0,0-.26,1.19,1.32,1.32,0,0,0,.39,1.11,1.36,1.36,0,0,1-.46-1.11,6.2,6.2,0,0,1,.19-1.22,3.23,3.23,0,0,0,0-2.31l.18,0a9.2,9.2,0,0,0-2.1,1.67,10.6,10.6,0,0,0-.84,1c-.27.36-.43.73-.77,1.15a.9.9,0,0,1-.82.37.89.89,0,0,1-.66-.62,3.23,3.23,0,0,1,0-1.48,22.79,22.79,0,0,1,.54-2.71l.42.24-2,2-1,1a6.52,6.52,0,0,1-1.08,1,.83.83,0,0,1-.93-.05,1,1,0,0,1-.33-.83,4.29,4.29,0,0,1,.37-1.42l.94-2.63.47.17a9.23,9.23,0,0,1-3.77,4.63,8.73,8.73,0,0,1-2.79,1.18,4.18,4.18,0,0,1-1.55.14,1.73,1.73,0,0,1-1.34-1,4.19,4.19,0,0,1,.06-3.08,12.52,12.52,0,0,1,1.26-2.73,12.38,12.38,0,0,1,4.29-4.16l1.08-.62-.75,1a6.59,6.59,0,0,1-3.5,2.35,2.43,2.43,0,0,1-1.15.12.82.82,0,0,1-.51-.5,1.49,1.49,0,0,1-.08-.61,6.69,6.69,0,0,1,.64-2.06,12.73,12.73,0,0,1,2.51-3.35c.48-.49,1-.94,1.53-1.39a3.27,3.27,0,0,1,.91-.6,1.49,1.49,0,0,1,.57-.12.79.79,0,0,1,.57.3l.07.11-.08.09A7.33,7.33,0,0,1,776.57,855Z" transform="translate(-770.94 -852.05)"/><path class="cls-1" d="M817.39,859.1a15.35,15.35,0,0,1-.88,2.43,23.63,23.63,0,0,1-1.42,2.16l-.4-.31,3.25-4.08.48-.61,0,.77-.21,4.55c0,.76,0,1.52-.12,2.27s-.21,1.51-.33,2.27c-.07-.77-.09-1.53-.14-2.29s.06-1.51.09-2.27l.21-4.55.44.17-3.25,4.08-.39-.3a18.24,18.24,0,0,0,1.37-2.12C816.53,860.58,817,859.85,817.39,859.1Z" transform="translate(-770.94 -852.05)"/><path class="cls-1" d="M823.14,860.37c0-.52-.66-.69-1-.53s-.55.61-.77,1c-.41.82-.73,1.82-.13,2.43a.74.74,0,0,0,1,.13,3.2,3.2,0,0,0,.85-1,6.33,6.33,0,0,0,.86-2.63l.5,0-.19,4.26c0,.71,0,1.42-.13,2.12s-.19,1.42-.3,2.12c-.06-.71-.08-1.42-.12-2.13s0-1.42,0-2.13l.19-4.26.5,0a7,7,0,0,1-.93,2.84,3.62,3.62,0,0,1-1,1.18,1.21,1.21,0,0,1-.86.21,1.35,1.35,0,0,1-.77-.41,1.85,1.85,0,0,1-.45-1.56,4.9,4.9,0,0,1,.49-1.44,1.81,1.81,0,0,1,1.13-1.08,1,1,0,0,1,.79.15A.66.66,0,0,1,823.14,860.37Z" transform="translate(-770.94 -852.05)"/><path class="cls-1" d="M830.1,859.54a5.81,5.81,0,0,0-1.59,1.91,5.89,5.89,0,0,0-.82,2.29,4.67,4.67,0,0,0,.31,2.38,1.53,1.53,0,0,0,1.8,1,3.29,3.29,0,0,0,1.92-1.32,4.61,4.61,0,0,0,.92-2.22,5.34,5.34,0,0,0-.17-2.42,5,5,0,0,0-1.11-2.22,4.8,4.8,0,0,1,1.58,2.07,5.76,5.76,0,0,1,.2,2.64,5.35,5.35,0,0,1-1,2.46,3.85,3.85,0,0,1-2.22,1.5,2.09,2.09,0,0,1-1.41-.17,2.17,2.17,0,0,1-1-1.06,5.14,5.14,0,0,1-.34-2.65,6.3,6.3,0,0,1,.88-2.49A5.42,5.42,0,0,1,830.1,859.54Z" transform="translate(-770.94 -852.05)"/><path class="cls-1" d="M838.41,858.88c-.13.58-.29,1.16-.43,1.74a12.81,12.81,0,0,1-.55,1.69l-1.21,3.34-.29-.33,3.07-.77a3.22,3.22,0,0,0,1.35-.53c.32-.26.44-.81.19-1l.42-.1a21,21,0,0,0-.66,2.93c0,.5-.17,1-.25,1.49s-.16,1-.22,1.51c-.06-.51-.09-1-.1-1.53a6.61,6.61,0,0,1,.08-1.54,20.33,20.33,0,0,1,.67-3l.12-.4.3.29a1.06,1.06,0,0,1,.25,1,1.45,1.45,0,0,1-.47.82,3.73,3.73,0,0,1-1.56.64l-3.07.76-.46.12.16-.44,1.21-3.34a11.83,11.83,0,0,1,.66-1.65C837.88,860,838.13,859.41,838.41,858.88Z" transform="translate(-770.94 -852.05)"/><path class="cls-1" d="M862.77,865.8a4.59,4.59,0,0,0-2.73,2.34,2.15,2.15,0,0,0,0,1.69,1.74,1.74,0,0,0,1.28.92,1.34,1.34,0,0,0,1.3-.75,4,4,0,0,0,.55-1.67,1.51,1.51,0,0,0-.58-1.43,1,1,0,0,0-1.34.12l-.15-.38a4.77,4.77,0,0,0,3.21-.64,12.35,12.35,0,0,1,3.34-1.3l.38-.05-.1.36c-.34,1.22-1.41,1.88-1.87,2.75a2,2,0,0,0-.13,1.42.75.75,0,0,0,1,.55,7.28,7.28,0,0,0,2.7-1.62,7.47,7.47,0,0,0,1.82-2.59l.41.26a5.53,5.53,0,0,0-1.36,2.81c-.07.52-.14,1.1.15,1.37a1.25,1.25,0,0,0,1.29,0,2.84,2.84,0,0,0,1.78-2.26c.09-.93-1.16-1.8-1.91-1.28l-.17-.38a21.17,21.17,0,0,0,5.47-1.65,21.71,21.71,0,0,1-5.39,2.07l-.83.2.66-.57a1.49,1.49,0,0,1,1.82,0,1.87,1.87,0,0,1,.85,1.61,2.69,2.69,0,0,1-.68,1.66,3.78,3.78,0,0,1-1.41,1.05,2.27,2.27,0,0,1-.9.19,1.29,1.29,0,0,1-.93-.35,1.34,1.34,0,0,1-.36-.92,5.06,5.06,0,0,1,.07-.88,5.84,5.84,0,0,1,1.49-3.06l1-1.05-.55,1.31a8,8,0,0,1-1.94,2.77,7.71,7.71,0,0,1-2.92,1.73,1.35,1.35,0,0,1-1-.09,1.39,1.39,0,0,1-.61-.79,2.47,2.47,0,0,1,.16-1.79c.6-1,1.59-1.67,1.83-2.65l.28.31a11.75,11.75,0,0,0-3.19,1.25,8.82,8.82,0,0,1-1.69.65,3.66,3.66,0,0,1-1.86,0l-.34-.08.19-.29a1.22,1.22,0,0,1,1-.55,1.75,1.75,0,0,1,1,.28,2.06,2.06,0,0,1,.8,1.89,4.49,4.49,0,0,1-.62,1.89,2.21,2.21,0,0,1-.73.76,1.65,1.65,0,0,1-1.06.23,2,2,0,0,1-1.61-1.25,2.49,2.49,0,0,1,.12-2A4.71,4.71,0,0,1,862.77,865.8Z" transform="translate(-770.94 -852.05)"/><path class="cls-1" d="M877.2,865.24c0,.71,0,1.43,0,2.14l-.29,2.11-.42-.2c.47-.47.4-1.31.52-2.12a3.29,3.29,0,0,1,1.33-2.12,3,3,0,0,1,1.16-.52,1.47,1.47,0,0,1,.72,0,.74.74,0,0,1,.53.64,1.49,1.49,0,0,1-.67,1.2c-.31.25-.59.49-.6.75l-.14-.25a6.17,6.17,0,0,1,.7.42,3,3,0,0,1,.55.58,4.2,4.2,0,0,1,.72,1.39,4.64,4.64,0,0,0-1-1.13c-.19-.16-.41-.28-.6-.43a3.13,3.13,0,0,0-.61-.38l-.16-.08,0-.16a1.73,1.73,0,0,1,.79-1.1,1,1,0,0,0,.48-.76c0-.21-.28-.3-.64-.21a2.71,2.71,0,0,0-1,.44,2.77,2.77,0,0,0-1.13,1.79c-.06.37-.07.77-.13,1.18a2.12,2.12,0,0,1-.53,1.21l-.52.52.1-.73.27-2.11C876.84,866.62,877,865.93,877.2,865.24Z" transform="translate(-770.94 -852.05)"/><path class="cls-1" d="M882.77,865l-.13,4.75-.5,0h0a14,14,0,0,1,.25-2.64,4.79,4.79,0,0,1,1.19-2.44,1.45,1.45,0,0,1,.67-.39,1,1,0,0,1,.81.13,1.63,1.63,0,0,1,.73,1.3,2.07,2.07,0,0,1-.5,1.36,6.21,6.21,0,0,1-1,1l-.05-.41c1.68.82,3.68.38,5.44-.25.45-.16.9-.34,1.34-.52a2.41,2.41,0,0,0,1.07-.72.55.55,0,0,0-.22-.86,1,1,0,0,0-1.1.14,3.56,3.56,0,0,0-1.37,2.23,1.43,1.43,0,0,0,.4,1.12,1.11,1.11,0,0,0,1.13.21,6.88,6.88,0,0,0,2.6-.95,1.72,1.72,0,0,0,.39-2.46,1.48,1.48,0,0,1,.47,1.34,2.17,2.17,0,0,1-.66,1.35,5.44,5.44,0,0,1-2.7,1.21,2.16,2.16,0,0,1-.81.05,1.49,1.49,0,0,1-.77-.39,2,2,0,0,1-.55-1.52,3.05,3.05,0,0,1,.55-1.46,4.27,4.27,0,0,1,1-1.14,1.55,1.55,0,0,1,1.62-.17,1.11,1.11,0,0,1,.58.7,1,1,0,0,1-.18.89,2.85,2.85,0,0,1-1.29.89l-1.36.53a12.54,12.54,0,0,1-2.87.7,5.53,5.53,0,0,1-3-.48l-.35-.16.3-.25c.65-.53,1.31-1.17,1.29-1.9a1.12,1.12,0,0,0-.48-.9.69.69,0,0,0-.88.19,4.33,4.33,0,0,0-1,2.18,13.52,13.52,0,0,0-.24,2.55h0l-.5,0Z" transform="translate(-770.94 -852.05)"/><path class="cls-1" d="M895,865.47a15,15,0,0,0-.26,1.85c0,.31-.07.61-.1.92s0,.61-.05.91l-.5,0a6.18,6.18,0,0,1,.66-2.46,3.31,3.31,0,0,1,2-1.66,2.18,2.18,0,0,1,1.38,0,.76.76,0,0,1,.46.71,1.18,1.18,0,0,1-.27.71,1.63,1.63,0,0,1-.53.48l-.55.28c-.35.18-.65.4-.68.68l-.14-.27c.28.14.56.26.85.38a9.29,9.29,0,0,1,.87.35,17.9,17.9,0,0,0,1.76.7,13.6,13.6,0,0,1-1.9-.28,4.88,4.88,0,0,1-.91-.31l-.89-.38L896,868l0-.19a1.54,1.54,0,0,1,.94-1,2.13,2.13,0,0,0,.92-.62.75.75,0,0,0,.17-.41.25.25,0,0,0-.17-.26,1.81,1.81,0,0,0-1,0,2.89,2.89,0,0,0-1.69,1.42,5.61,5.61,0,0,0-.59,2.26l-.5,0c0-.32,0-.64.06-1a3.31,3.31,0,0,1,.16-.94A9.8,9.8,0,0,1,895,865.47Z" transform="translate(-770.94 -852.05)"/><path class="cls-1" d="M905,865.17a3.23,3.23,0,0,0-2.9.55,2.94,2.94,0,0,0-.93,1.14,1.69,1.69,0,0,0-.11,1.33,1,1,0,0,0,1,.56,2,2,0,0,0,1.24-.55c.69-.67,1-1.71,1.72-2.56l.4.29a7,7,0,0,0-1,2.49,2.29,2.29,0,0,0-.06.6.3.3,0,0,0,.25.27,1,1,0,0,0,.51-.12,1.84,1.84,0,0,0,.47-.39,21.25,21.25,0,0,0,1.55-2.26,3.34,3.34,0,0,1,2.44-1.59l.38,0-.14.36-1.4,3.64-.24-.34a1.74,1.74,0,0,0,1.21-.63,9,9,0,0,0,.91-1.24,4.71,4.71,0,0,1,1.11-1.25,1.86,1.86,0,0,1,1.72-.37l.37.13-.26.28a4.78,4.78,0,0,0-1.26,3.66l-.42-.17a53.61,53.61,0,0,0,4.87-4.78l.12-.13.17.06a.72.72,0,0,1,.43.47,1.13,1.13,0,0,1,0,.55,3.62,3.62,0,0,1-.36.85,2.38,2.38,0,0,0-.39,1.56,1.45,1.45,0,0,0,.92,1.24,1.34,1.34,0,0,0,1.55-.34,1.42,1.42,0,0,1-1.6.47,1.68,1.68,0,0,1-1.13-1.33,2.63,2.63,0,0,1,.29-1.77c.24-.48.41-1.17.1-1.23l.28-.06a57.41,57.41,0,0,1-4.92,4.82l-.37.32,0-.49a5.3,5.3,0,0,1,1.39-4l.1.4a1.4,1.4,0,0,0-1.26.3,4.11,4.11,0,0,0-1,1.12,8.6,8.6,0,0,1-1,1.32,2.29,2.29,0,0,1-1.56.78h-.37l.13-.35,1.4-3.64.24.34a2.9,2.9,0,0,0-2.05,1.38,20,20,0,0,1-1.59,2.32,1.68,1.68,0,0,1-1.43.65.81.81,0,0,1-.65-.67,2.72,2.72,0,0,1,0-.78,7.8,7.8,0,0,1,1.05-2.67l.4.3c-.64.74-1,1.79-1.75,2.6a2.54,2.54,0,0,1-1.56.69,1.88,1.88,0,0,1-.89-.17,1.29,1.29,0,0,1-.61-.71,2.11,2.11,0,0,1,.23-1.68,3.31,3.31,0,0,1,1.12-1.17A3.36,3.36,0,0,1,905,865.17Z" transform="translate(-770.94 -852.05)"/><path class="cls-1" d="M938.87,865.23a.47.47,0,0,0-.6-.17,1.57,1.57,0,0,0-.57.34,6,6,0,0,0-1,1,3.27,3.27,0,0,0-.54,1.17,1.72,1.72,0,0,0,.16,1.2,1.22,1.22,0,0,0,.94.63,2.4,2.4,0,0,0,1.24-.24,3.64,3.64,0,0,0,1.93-1.7,1.09,1.09,0,0,0-.14-1.09,2,2,0,0,0-1.06-.64,1.94,1.94,0,0,0-.61-.1,1.11,1.11,0,0,0-.55.16c-.27.17-.16.44.24.46a5,5,0,0,0,1.3-.25c.45-.12.9-.25,1.34-.4a21.62,21.62,0,0,0,2.6-1l.19-.09.12.17a11.18,11.18,0,0,1,.93,1.48,3.44,3.44,0,0,1,.44,1.76,2.41,2.41,0,0,1-.82,1.62,1.57,1.57,0,0,1-1.65.35,1.48,1.48,0,0,0,1.48-.53,2,2,0,0,0,.52-1.44,3.61,3.61,0,0,0-.42-1.53,10.17,10.17,0,0,0-.89-1.42l.31.08a23.23,23.23,0,0,1-2.65,1.06c-.45.15-.91.28-1.37.41a5.35,5.35,0,0,1-1.46.26.87.87,0,0,1-.8-.48.65.65,0,0,1,0-.53.9.9,0,0,1,.33-.38,1.89,1.89,0,0,1,1.57-.11,2.53,2.53,0,0,1,1.32.81,1.61,1.61,0,0,1,.2,1.58,4,4,0,0,1-2.19,2,2.8,2.8,0,0,1-1.5.27,1.71,1.71,0,0,1-1.32-.88,2.42,2.42,0,0,1,.52-2.86,6.1,6.1,0,0,1,1.13-.91,1.69,1.69,0,0,1,.68-.28C938.48,864.91,938.8,865,938.87,865.23Z" transform="translate(-770.94 -852.05)"/><path class="cls-1" d="M961.86,869.29a22.57,22.57,0,0,0,1.73-1.49,6,6,0,0,0,1.51-1.56.92.92,0,0,0,.09-.85.56.56,0,0,0-.71-.21,3.57,3.57,0,0,0-1.51,1.43,1.3,1.3,0,0,0,.21,1.76,1.76,1.76,0,0,0,1.88.35,3.36,3.36,0,0,0,1.62-1.32,11.91,11.91,0,0,0,1.21-1.91,9.63,9.63,0,0,1-.8,2.19,3.85,3.85,0,0,1-1.87,1.52,2.3,2.3,0,0,1-2.39-.47,1.93,1.93,0,0,1-.6-1.13,1.89,1.89,0,0,1,.31-1.25,3.92,3.92,0,0,1,1.79-1.64,1.06,1.06,0,0,1,1.29.42,1.4,1.4,0,0,1-.08,1.34,3.43,3.43,0,0,1-.76,1c-.29.26-.57.52-.88.76A12.56,12.56,0,0,1,961.86,869.29Z" transform="translate(-770.94 -852.05)"/><path class="cls-1" d="M968,865.25a2.5,2.5,0,0,0,0,2.84,2.24,2.24,0,0,0,4-1.33,1.13,1.13,0,0,0-.63-1,.79.79,0,0,0-1,.33l-.16-.33a6.09,6.09,0,0,0,5.68-1.19l.28.41a2.92,2.92,0,0,0-1.8,2,1.26,1.26,0,0,0,.36,1.15,1.34,1.34,0,0,0,1.21.25,3.2,3.2,0,0,0,1.25-.59,6.35,6.35,0,0,0,1-1.06,4.74,4.74,0,0,1,2.45-1.92l.63-.15-.37.53a6.37,6.37,0,0,0-1.09,4.1l-.4-.17,5.84-4.73.25-.2.13.29a1.47,1.47,0,0,1-.13,1.33c-.19.36-.41.68-.57,1a1.12,1.12,0,0,0-.11.91,1,1,0,0,0,.72.53,2.18,2.18,0,0,0,1.85-.77c.55-.52,1.09-1.07,1.6-1.64a26.35,26.35,0,0,0,4.81-7.79l.46.2-1.42,3c-.49,1-1,1.95-1.5,2.92a9.71,9.71,0,0,0-.66,1.48,2.12,2.12,0,0,0,0,1.53,2.06,2.06,0,0,0,1.17,1,7.21,7.21,0,0,0,1.59.37,7,7,0,0,1-1.62-.29,2.18,2.18,0,0,1-1.3-1,2.38,2.38,0,0,1-.12-1.68,10.07,10.07,0,0,1,.6-1.56c.46-1,.89-2,1.36-3l1.43-3,.46.2a26.92,26.92,0,0,1-4.91,7.94c-.52.59-1.06,1.14-1.64,1.68a2.65,2.65,0,0,1-2.29.89,1.5,1.5,0,0,1-1.07-.82,1.6,1.6,0,0,1,.12-1.33c.35-.71,1-1.37.7-1.9l.38.09-5.84,4.73-.37.3,0-.47a6.88,6.88,0,0,1,1.18-4.43l.26.39a4.35,4.35,0,0,0-2.18,1.75,6.37,6.37,0,0,1-1.08,1.13,3.48,3.48,0,0,1-1.45.69,1.89,1.89,0,0,1-1.64-.36,1.77,1.77,0,0,1-.53-1.6,2.57,2.57,0,0,1,.77-1.45,5.61,5.61,0,0,1,1.3-.9l2-1L976.28,865a6.6,6.6,0,0,1-6.16,1.28l-.26-.08.1-.25a1.3,1.3,0,0,1,1.64-.62,1.58,1.58,0,0,1,1,1.44,2.66,2.66,0,0,1-3.48,2.47,2.23,2.23,0,0,1-1.21-1A2.59,2.59,0,0,1,968,865.25Z" transform="translate(-770.94 -852.05)"/><path class="cls-1" d="M996.88,865.33a4.72,4.72,0,0,0-2.16,2.3c-.21.48-.42,1-.11,1.24a1,1,0,0,0,1.23,0c.82-.56,1.79-1.32,1.94-2.27a1.16,1.16,0,0,0-.44-1.19.78.78,0,0,0-1.08.22l-.11-.33a3.92,3.92,0,0,0,4.3-.55l.13-.12.15.08a2.75,2.75,0,0,1-1.38,5.17l-1.19,0,1.09-.46a11.79,11.79,0,0,1,1.83-.58,12.14,12.14,0,0,1,1.89-.28,15.77,15.77,0,0,0-1.81.55,14.48,14.48,0,0,0-1.7.77l-.1-.48a2.25,2.25,0,0,0,1.14-4.23l.28,0a4.4,4.4,0,0,1-4.86.63l-.22-.11.11-.22a1.27,1.27,0,0,1,1.78-.45,1.66,1.66,0,0,1,.68,1.71,2.93,2.93,0,0,1-.85,1.55,7.54,7.54,0,0,1-1.34,1.08,1.51,1.51,0,0,1-1.82-.11,1,1,0,0,1-.29-1,2.45,2.45,0,0,1,.33-.83A4.79,4.79,0,0,1,996.88,865.33Z" transform="translate(-770.94 -852.05)"/><path class="cls-1" d="M989.18,862.59c.41-.1.82-.17,1.22-.26l1.21-.05c.81,0,1.62-.12,2.43-.22s1.6-.23,2.4-.38l1.19-.25c.42,0,.83,0,1.25,0-.37.2-.76.36-1.14.54l-1.2.25c-.81.15-1.62.28-2.44.39s-1.64.17-2.46.22l-1.23.05C990,862.76,989.59,862.7,989.18,862.59Z" transform="translate(-770.94 -852.05)"/><path class="cls-1" d="M775.9,885.9a.88.88,0,0,0-1.14-.65,3.38,3.38,0,0,0-1.22.84,1.7,1.7,0,0,0-.68,1.21,1.39,1.39,0,0,0,.73,1.11,1.91,1.91,0,0,0,2.4-.77,6.65,6.65,0,0,0,1-2.73l0-.18.2,0a.7.7,0,0,1,.59.28,1.22,1.22,0,0,1,.22.5,2.8,2.8,0,0,1,0,1l-.23,1.75c-.18,1.16-.38,2.32-.61,3.48a70,70,0,0,1-1.73,6.85l-.47-.16a43.27,43.27,0,0,0,1.32-6,15.93,15.93,0,0,1,2-5.86l.09-.15.18,0a.8.8,0,0,1,.57.57,2.65,2.65,0,0,1,.12.64,1.24,1.24,0,0,0,.37.92,1.56,1.56,0,0,0,1.91,0,3.78,3.78,0,0,0,1.25-1.82,20.31,20.31,0,0,1,.84-2.27l.83-1.61-.36,1.78-.49,2.39a4.07,4.07,0,0,0-.15,1.09c0,.23.36.27.71.15a3.08,3.08,0,0,0,.94-.61,8.13,8.13,0,0,0,.82-.84,7,7,0,0,0,1.19-2l.19-.49.26.45a1.91,1.91,0,0,1,.06,1.46,2.86,2.86,0,0,0-.15,1.18.8.8,0,0,0,.75.58,3.1,3.1,0,0,0,1.2-.11,6.51,6.51,0,0,0,4-2.94c.25-.38.28-.62,0-.71a1.19,1.19,0,0,0-1,.24,3,3,0,0,0-1.16,2.11,2,2,0,0,0,1.16,2,2,2,0,0,0,2.37-.37,2.05,2.05,0,0,1-2.43.5,2.21,2.21,0,0,1-1-.86,2.55,2.55,0,0,1-.34-1.32,3.29,3.29,0,0,1,1.19-2.41,1.6,1.6,0,0,1,1.41-.38.75.75,0,0,1,.58.68,1.28,1.28,0,0,1-.26.74,7.06,7.06,0,0,1-4.27,3.17,3.75,3.75,0,0,1-1.39.12,1.31,1.31,0,0,1-1.16-1,2.92,2.92,0,0,1,.15-1.41,1.5,1.5,0,0,0,0-1.09l.45,0a7.64,7.64,0,0,1-1.27,2.17,8.4,8.4,0,0,1-.89.9,3.7,3.7,0,0,1-1.1.7,1.46,1.46,0,0,1-.73.08.8.8,0,0,1-.62-.57,1.55,1.55,0,0,1,0-.72l.12-.6.49-2.39.47.16a19.29,19.29,0,0,0-.82,2.22,4.32,4.32,0,0,1-1.44,2.06,2.06,2.06,0,0,1-2.53-.09,1.76,1.76,0,0,1-.53-1.23c0-.4-.11-.77-.31-.78l.27-.11a15.54,15.54,0,0,0-2,5.68,41.62,41.62,0,0,1-1.34,6l-.47-.16q1-3.36,1.71-6.8.35-1.73.6-3.45l.24-1.74a2.4,2.4,0,0,0,0-.8c-.06-.25-.17-.4-.3-.38l.24-.2a6.25,6.25,0,0,1-1.09,2.93,2.89,2.89,0,0,1-1.33.92,1.87,1.87,0,0,1-1.61-.18,1.66,1.66,0,0,1-.79-1.38,1.86,1.86,0,0,1,.8-1.33,3.59,3.59,0,0,1,1.31-.79A.91.91,0,0,1,775.9,885.9Z" transform="translate(-770.94 -852.05)"/><path class="cls-1" d="M816.66,884.61c.31-.42,1-.15,1.17.32a3.64,3.64,0,0,1,.08,1.43l-.15,2.86-.29-.05a9.21,9.21,0,0,1,3-4.76l.43-.35,0,.55a20.31,20.31,0,0,0,.34,4.4l-.41-.14,4.26-4.06.46-.44,0,.64a26.22,26.22,0,0,0,.09,4.34l-.42-.16,3-2.89a11.54,11.54,0,0,1,1.6-1.4,3,3,0,0,1,1-.43,1.39,1.39,0,0,1,1.18.31l.29.26-.36.15a7.34,7.34,0,0,0-2.42,1.53,2.43,2.43,0,0,0-.61,1.19.84.84,0,0,0,.39,1,1.25,1.25,0,0,0,1.12-.36,4.69,4.69,0,0,0,.94-1.07l1.76-2.4.45-.62v.76c0,1-.68,1.82-.55,2.61a.77.77,0,0,0,.59.76,2.09,2.09,0,0,0,1.15-.28,6.56,6.56,0,0,0,3.42-3.76l.47.17-1,2.61c-.15.43-.08.72.29.81a2.37,2.37,0,0,0,1.23-.15,5.77,5.77,0,0,0,3.69-3.6l.1-.3.27.16a6.76,6.76,0,0,1,1.42,1.15,3.43,3.43,0,0,1,.86,1.63,2.34,2.34,0,0,1-.41,1.8,1.71,1.71,0,0,1-1.62.77l-.37-.06.35-.12,3.57-1.18-3.5,1.36,0-.19a1.47,1.47,0,0,0,1.36-.74,2.06,2.06,0,0,0,.28-1.56,4.35,4.35,0,0,0-2.19-2.42l.38-.14a6.31,6.31,0,0,1-4,3.92,2.79,2.79,0,0,1-1.51.15.92.92,0,0,1-.67-.6,1.3,1.3,0,0,1,0-.84l1-2.63.47.16a7.11,7.11,0,0,1-3.68,4.06,2.7,2.7,0,0,1-1.45.32,1.17,1.17,0,0,1-.72-.46,1.52,1.52,0,0,1-.27-.74c-.13-1.08.59-1.87.54-2.66l.46.13-1.79,2.43a5.25,5.25,0,0,1-1,1.16,1.72,1.72,0,0,1-1.63.42,1.2,1.2,0,0,1-.63-.68,1.72,1.72,0,0,1,0-.87,2.84,2.84,0,0,1,.73-1.43,7.46,7.46,0,0,1,2.59-1.65l-.06.41c-.41-.38-1.09-.17-1.62.17a11.06,11.06,0,0,0-1.52,1.34l-3,2.89-.37.36,0-.51A27.2,27.2,0,0,1,825,885l.42.19-4.26,4.06-.33.32-.09-.45a21.29,21.29,0,0,1-.35-4.51l.41.2a9.74,9.74,0,0,0-3,4.46l-.29,0,.29-2.85a3.47,3.47,0,0,0,0-1.4C817.65,884.52,817,884.21,816.66,884.61Z" transform="translate(-770.94 -852.05)"/><path class="cls-2" d="M838.32,881.82" transform="translate(-770.94 -852.05)"/><path class="cls-1" d="M864.84,888.25l1-5.16c.17-.86.4-1.7.59-2.55L867,878l.49.1a41.07,41.07,0,0,0-.47,4.29c0,.72-.07,1.43-.07,2.15a4.66,4.66,0,0,0,.3,2,1.63,1.63,0,0,0,1.44,1c.6,0,1.08-.59,1.51-1.15a14.75,14.75,0,0,1,3.14-3.07l.3.4a7.09,7.09,0,0,0-1.84,2,2.71,2.71,0,0,0-.4,1.21c0,.38.08.94.28,1s.69-.21,1-.46a4.16,4.16,0,0,0,.91-1,14.27,14.27,0,0,0,1.25-2.43l.44.17a4.93,4.93,0,0,0-.3,2.47,4,4,0,0,0,.35,1.22,1.14,1.14,0,0,0,.46.41c.17.1.46.09.52-.14,0,.24-.35.29-.54.19a1.26,1.26,0,0,1-.54-.4,4,4,0,0,1-.48-1.24,5.27,5.27,0,0,1,.09-2.67l.44.17a11.64,11.64,0,0,1-1.28,2.54,4.88,4.88,0,0,1-1,1.07,4.49,4.49,0,0,1-.63.4,1.05,1.05,0,0,1-.88.12,1,1,0,0,1-.51-.74,2.45,2.45,0,0,1-.07-.76,3.18,3.18,0,0,1,.46-1.43,7.6,7.6,0,0,1,2-2.09l.3.4a14.08,14.08,0,0,0-3,3,6.44,6.44,0,0,1-.75.85,1.88,1.88,0,0,1-1.12.49,2.13,2.13,0,0,1-1.93-1.31,5.33,5.33,0,0,1-.34-2.24c0-.73,0-1.46.07-2.18A42,42,0,0,1,867,878l.49.1-.6,2.55c-.21.85-.38,1.71-.61,2.55Z" transform="translate(-770.94 -852.05)"/><path class="cls-1" d="M878.78,884.06l-1.43,4.25-.24-.08a14.12,14.12,0,0,1,.72-2.23,5.13,5.13,0,0,1,1.37-2,1.86,1.86,0,0,1,1.2-.53,1.1,1.1,0,0,1,1,1,1.52,1.52,0,0,1-.41,1.26,4.86,4.86,0,0,1-1,.78l.06-.36a2.8,2.8,0,0,0,3.77.49,11.16,11.16,0,0,0,1.5-1.67,4.66,4.66,0,0,1,.88-.83,2,2,0,0,1,1.25-.32l1.32.14-1.28.35a3.54,3.54,0,0,0-2.53,3.18,3.08,3.08,0,0,0,0,.53c0,.15.07.19.16.22a1.72,1.72,0,0,0,.94-.25,5.9,5.9,0,0,0,1.8-1.31,13.64,13.64,0,0,0,2.42-3.85,22.9,22.9,0,0,1,2.24-4.12l.42.26c-.68,1.36-1.32,2.73-1.9,4.14-.3.7-.57,1.4-.84,2.11s-.62,1.45-.38,2,1,.74,1.71.64a5.89,5.89,0,0,0,2-.78,6.74,6.74,0,0,0,2.78-3.32l.23.33a3.34,3.34,0,0,0-2.39,1.09,2.47,2.47,0,0,0-.74,2.43,1.31,1.31,0,0,0,1,.69,6.14,6.14,0,0,0,1.42,0,17.22,17.22,0,0,0,2.86-.46,16.92,16.92,0,0,1-2.84.63,6.53,6.53,0,0,1-1.47.08,1.57,1.57,0,0,1-1.31-.79,2.13,2.13,0,0,1-.07-1.55,3.5,3.5,0,0,1,.74-1.35,3.71,3.71,0,0,1,2.75-1.26H897l-.12.34a7.17,7.17,0,0,1-3,3.57,6,6,0,0,1-2.21.85,2.9,2.9,0,0,1-1.24-.08,1.51,1.51,0,0,1-1-.85,2,2,0,0,1,0-1.29c.11-.39.26-.73.39-1.1.27-.71.55-1.42.85-2.13q.89-2.12,1.92-4.17l.42.27a22.4,22.4,0,0,0-2.19,4,14.22,14.22,0,0,1-2.51,4,6.52,6.52,0,0,1-2,1.42,2.12,2.12,0,0,1-1.28.28.76.76,0,0,1-.53-.63,3.35,3.35,0,0,1,0-.63,4,4,0,0,1,2.9-3.65l0,.49a2.08,2.08,0,0,0-1.7,1,12.6,12.6,0,0,1-1.57,1.74,3.29,3.29,0,0,1-4.48-.59l-.16-.21.22-.15a3.91,3.91,0,0,0,.85-.68,1.06,1.06,0,0,0,.3-.86c0-.31-.26-.58-.5-.58a1.57,1.57,0,0,0-.85.42,7.81,7.81,0,0,0-2.17,3.88l-.24-.07Z" transform="translate(-770.94 -852.05)"/><path class="cls-1" d="M861.56,882.64c.4-.16.81-.29,1.21-.44L864,882l2.48-.44,2.47-.5,1.24-.26c.43,0,.85,0,1.29,0-.39.19-.79.35-1.18.52l-1.24.27-2.49.5-2.49.45-1.25.2C862.42,882.68,862,882.68,861.56,882.64Z" transform="translate(-770.94 -852.05)"/><path class="cls-1" d="M915.39,884.65c.38.33.33.9.34,1.35a1.34,1.34,0,0,0,.46,1.16,1.6,1.6,0,0,0,1.19.31,3,3,0,0,0,1.18-.48c.71-.49,1.42-1.27,1.19-2-.09-.37-.44-.68-.73-.61s-.59.49-.42.68l-.25-.11a46,46,0,0,1,5.11-.49l.52,0-.31.42a9.2,9.2,0,0,0-1.22,2.27c-.16.4-.21.77,0,1a1.22,1.22,0,0,0,1,.05,13.73,13.73,0,0,0,2.32-1.12,5.45,5.45,0,0,0,1-.79,2.34,2.34,0,0,0,.65-1c.1-.36,0-.79-.22-.82s-.53.24-.7.61a4.73,4.73,0,0,0-.65,2.39,2.2,2.2,0,0,0,.44,1.07,1.25,1.25,0,0,0,1,.4c.83-.06,1.65-.66,2.55-.6-.91,0-1.58.69-2.51.88a1.57,1.57,0,0,1-1.39-.39,2,2,0,0,1-.64-1.3,5.25,5.25,0,0,1,.7-2.68,2.2,2.2,0,0,1,.43-.61.88.88,0,0,1,.83-.25.83.83,0,0,1,.61.64,1.7,1.7,0,0,1,0,.78,4.18,4.18,0,0,1-1.86,2.08,13.27,13.27,0,0,1-2.46,1.18,1.63,1.63,0,0,1-1.5-.15,1,1,0,0,1-.34-.79,2.24,2.24,0,0,1,.17-.72,9.59,9.59,0,0,1,1.29-2.4l.21.4a45,45,0,0,0-5.05.49l-.16,0-.09-.13a.88.88,0,0,1,0-.94,1.12,1.12,0,0,1,.72-.51,1.23,1.23,0,0,1,1.32,1,1.85,1.85,0,0,1-.32,1.54,4.1,4.1,0,0,1-1.08,1,2.57,2.57,0,0,1-1.42.53,2,2,0,0,1-1.44-.54,1.58,1.58,0,0,1-.42-1.4C915.59,885.53,915.72,885,915.39,884.65Z" transform="translate(-770.94 -852.05)"/><path class="cls-1" d="M931.79,884.15a5.48,5.48,0,0,0-1.45,3.72l-.18-.08a5,5,0,0,0,1-2.24,2.76,2.76,0,0,1,1.66-2.06,1.65,1.65,0,0,1,1.41.34,1.15,1.15,0,0,1,.2,1.47,4.35,4.35,0,0,1-.94,1c-.31.26-.62.55-.64.84s.21.57.53.75a1.71,1.71,0,0,0,1.07.17,4.26,4.26,0,0,0,2.08-1.12c.58-.56,1.1-1.25,1.75-1.84a3.59,3.59,0,0,1,2.41-1.11H942l-1.27.48a9.16,9.16,0,0,0-2.74,1.43,3,3,0,0,0-.87,1.17c-.2.46-.23.94.14,1.05a1.93,1.93,0,0,0,1.34-.25,5.66,5.66,0,0,0,1.3-.81,6,6,0,0,0,1.78-2.45l.45.21a4.47,4.47,0,0,0-.49,2.54c.05.45.15.87.43.87a1.66,1.66,0,0,0,1-.56l4.13-3.7.53-.49-.12.71a15.73,15.73,0,0,1-1.24,4l-.18-.35a2,2,0,0,0,1.5-.36A7.92,7.92,0,0,0,949,886.3c.41-.42.82-.87,1.28-1.26a3.88,3.88,0,0,1,1.66-.89l.39-.09-.1.39-.7,2.82c-.15.47-.1.85.2.88a1.67,1.67,0,0,0,1.09-.51c.73-.65,1.43-1.31,2.17-1.94l2.21-1.88.13-.11.1.12a1.11,1.11,0,0,1,.25.86,3.42,3.42,0,0,1-.18.81,2.48,2.48,0,0,0-.2,1.5,1.19,1.19,0,0,0,1.21.73,4.18,4.18,0,0,0,1.56-.28,4.57,4.57,0,0,1-1.56.37,1.34,1.34,0,0,1-1.37-.76,2.73,2.73,0,0,1,.12-1.63c.13-.5.25-1-.07-1.38l.23,0-2.11,2c-.7.67-1.44,1.3-2.15,2a2.08,2.08,0,0,1-1.5.63A.81.81,0,0,1,951,888a1.78,1.78,0,0,1,.08-.82l.7-2.82.29.31a6.1,6.1,0,0,0-2.68,2,8,8,0,0,1-1.37,1.2,2.51,2.51,0,0,1-1.87.43l-.31-.06.13-.29a15.26,15.26,0,0,0,1.21-3.85l.41.23-4.12,3.7a2,2,0,0,1-1.39.69.85.85,0,0,1-.71-.58,2.52,2.52,0,0,1-.16-.74,4.89,4.89,0,0,1,.54-2.83l.45.21a6.52,6.52,0,0,1-3.33,3.54,2.39,2.39,0,0,1-1.73.26,1,1,0,0,1-.61-.82,2.28,2.28,0,0,1,.18-.89,3.62,3.62,0,0,1,1-1.36,9.5,9.5,0,0,1,2.88-1.52l.09.49a3.11,3.11,0,0,0-2.07,1c-.62.56-1.11,1.22-1.76,1.84a4.64,4.64,0,0,1-2.33,1.24,2.17,2.17,0,0,1-1.39-.22,1.92,1.92,0,0,1-.56-.47,1.06,1.06,0,0,1-.22-.77,1.94,1.94,0,0,1,.8-1.17,3.65,3.65,0,0,0,.83-.84.62.62,0,0,0-.1-.84,1.26,1.26,0,0,0-1-.25c-.7.15-1.16.95-1.43,1.7a5.33,5.33,0,0,1-1.17,2.29l-.19.18v-.26A5.57,5.57,0,0,1,931.79,884.15Z" transform="translate(-770.94 -852.05)"/><path class="cls-1" d="M924.85,882.33l-.25,0s0,0,0,0v-.15l.25,0,.25,0v.15s0,0,0,0Z" transform="translate(-770.94 -852.05)"/><path class="cls-1" d="M976.44,883.68a3,3,0,0,0-1.47.67,4.62,4.62,0,0,0-1,1.23,3,3,0,0,0-.38,1.49c0,.48.17,1.11.48,1.23s.81-.25,1.22-.6a12.83,12.83,0,0,0,1.2-1.13,13.4,13.4,0,0,0,1.94-2.67l.45.21a7.94,7.94,0,0,0-.43,1.93,4.87,4.87,0,0,0,.12,1.92c.1.28.28.44.52.43s.6-.12.93-.2l2-.48-1.88.84a2.6,2.6,0,0,1-1,.34,1.08,1.08,0,0,1-1-.74,3.32,3.32,0,0,1-.18-1.09,9.32,9.32,0,0,1,0-1.06,8.09,8.09,0,0,1,.46-2.06l.46.2a14.1,14.1,0,0,1-2,2.77,12.55,12.55,0,0,1-1.25,1.17,5.58,5.58,0,0,1-.7.53,1.15,1.15,0,0,1-1,.16,1.24,1.24,0,0,1-.65-.79,3.14,3.14,0,0,1-.15-.9,3.52,3.52,0,0,1,.44-1.74,3.13,3.13,0,0,1,2.89-1.66Z" transform="translate(-770.94 -852.05)"/><path class="cls-1" d="M994.53,888.45a6.56,6.56,0,0,1,.47-3,2.39,2.39,0,0,1,2.73-1.37,1.91,1.91,0,0,1,1.2,1.14,2.65,2.65,0,0,1,.1,1.62,4.47,4.47,0,0,1-2,2.4l-.37.26,0-.45a1.66,1.66,0,0,1,.69-1.35,2.84,2.84,0,0,1,1.35-.53,15.33,15.33,0,0,0,2.6-.45,10,10,0,0,0,2.39-1,9,9,0,0,0,1-.74c.3-.25.23-.5-.07-.68a.88.88,0,0,0-1,.24,4.67,4.67,0,0,0-.82,1,1.9,1.9,0,0,0-.17,2.2,2,2,0,0,0,2.2.37,6.26,6.26,0,0,0,2-1.65,5.9,5.9,0,0,1-1.88,1.94,2.61,2.61,0,0,1-1.4.32,1.8,1.8,0,0,1-1.72-2.11,3.37,3.37,0,0,1,.52-1.33,4.7,4.7,0,0,1,.92-1.07,1.92,1.92,0,0,1,.67-.38,1.12,1.12,0,0,1,.84.08,1,1,0,0,1,.53.69.94.94,0,0,1-.35.8,10.17,10.17,0,0,1-1.13.8,10.58,10.58,0,0,1-2.51,1.1,15.77,15.77,0,0,1-2.66.46,2.46,2.46,0,0,0-1.12.43,1.19,1.19,0,0,0-.5.94l-.39-.2a4,4,0,0,0,1.75-2.11,1.74,1.74,0,0,0-1-2.16,1.63,1.63,0,0,0-1.25.17,2.64,2.64,0,0,0-1,.9A6.88,6.88,0,0,0,994.53,888.45Z" transform="translate(-770.94 -852.05)"/><path class="cls-1" d="M1008.9,884.16a8,8,0,0,0-.7,2.08,7.23,7.23,0,0,0-.29,2.12l-.49,0a6.1,6.1,0,0,1,2.9-4.09,1.75,1.75,0,0,1,1.38-.23,1.23,1.23,0,0,1,.62.44.94.94,0,0,1,.15.8,2.21,2.21,0,0,1-.92,1c-.32.24-.61.49-.58.76l-.16-.22.88.31a5.45,5.45,0,0,1,.87.35c.57.28,1.14.54,1.7.83-.62-.13-1.23-.29-1.84-.43a5.53,5.53,0,0,1-.9-.28l-.88-.31-.16-.06V887a1,1,0,0,1,.28-.73,3,3,0,0,1,.5-.45c.33-.24.67-.49.73-.75s-.13-.54-.43-.64a1.3,1.3,0,0,0-1,.2,5.65,5.65,0,0,0-2.65,3.74l-.45,2.33-.05-2.37a7.54,7.54,0,0,1,.31-2.27A7,7,0,0,1,1008.9,884.16Z" transform="translate(-770.94 -852.05)"/><path class="cls-1" d="M774.58,903.22a5.41,5.41,0,0,0-2.34,1.87,1.79,1.79,0,0,0,.66,2.5,1.6,1.6,0,0,0,1.33-.3,4.94,4.94,0,0,0,1.15-.93,5.31,5.31,0,0,0,1.28-2.61l.45.19a7.2,7.2,0,0,0-.77,1.29,1.88,1.88,0,0,0-.11,1.35,1.16,1.16,0,0,0,.87.84,1.69,1.69,0,0,0,1.22-.51,2,2,0,0,0,.8-2.45,1.08,1.08,0,0,0-1-.66.91.91,0,0,0-.89.69l-.24-.28a5.73,5.73,0,0,0,2.09-.34,7.37,7.37,0,0,1,2.17-.75,1.13,1.13,0,0,1,1.07.8,2.09,2.09,0,0,1-.17,1.24c-.26.69-.62,1.4-.38,1.93l-.41-.05,3.72-4.21.23-.25.17.29a4.14,4.14,0,0,1,.58,1.9,4.21,4.21,0,0,1-.07,1c-.07.34-.16.6-.2.9a1.08,1.08,0,0,0,.08.72c.1.13.31.15.56,0a11.12,11.12,0,0,0,1.5-1,13.87,13.87,0,0,0,4.35-5.87,13.3,13.3,0,0,0,.55-1.76,1.48,1.48,0,0,0,0-.78.31.31,0,0,0-.43-.2c-.42.18-.68.83-1,1.36s-.54,1.12-.78,1.69a21.92,21.92,0,0,0-1.59,7.23l-.45-.16,2-2.62.49-.66a3,3,0,0,1,.6-.67.77.77,0,0,1,.57-.14.68.68,0,0,1,.5.35,1.23,1.23,0,0,1,0,1c-.26.56-.6,1-.41,1.33a1,1,0,0,0,1.12.51,3.15,3.15,0,0,0,1.33-.69,8.65,8.65,0,0,0,1.19-1.07,10.45,10.45,0,0,0,1-1.23c.13-.21.13-.31,0-.41a.85.85,0,0,0-.62-.07,4,4,0,0,0-1.91,2.35,1.83,1.83,0,0,0-.15,1.49,1.33,1.33,0,0,0,1.29.67c1.09,0,2-.86,3.12-.9-1.12.09-2,1-3.11,1a1.5,1.5,0,0,1-1.49-.71,2.09,2.09,0,0,1,.08-1.68,8.7,8.7,0,0,1,.74-1.5,2.74,2.74,0,0,1,1.32-1.14,1.23,1.23,0,0,1,1,.08.67.67,0,0,1,.32.51.9.9,0,0,1-.15.53,8.43,8.43,0,0,1-1,1.33,10.29,10.29,0,0,1-1.26,1.12,3.54,3.54,0,0,1-1.56.78,1.51,1.51,0,0,1-1.65-.79,1.23,1.23,0,0,1,0-1c.12-.28.28-.51.36-.72a.77.77,0,0,0,0-.58c-.08-.13-.19-.15-.35,0a2.8,2.8,0,0,0-.49.56l-.49.66-2,2.62-.48.64,0-.8a22.38,22.38,0,0,1,1.63-7.4c.24-.58.5-1.16.79-1.73l.46-.84a1.82,1.82,0,0,1,.77-.76.83.83,0,0,1,1.09.5,2,2,0,0,1,0,1.07,16.84,16.84,0,0,1-.57,1.83,14.61,14.61,0,0,1-4.51,6.08,11.48,11.48,0,0,1-1.6,1.08.93.93,0,0,1-1.16-.17,1.45,1.45,0,0,1-.19-1.1,6.68,6.68,0,0,0,.27-1.81,3.62,3.62,0,0,0-.51-1.66l.4,0-3.71,4.21-.26.28-.16-.34a1.83,1.83,0,0,1,0-1.26c.11-.38.27-.73.39-1.07a1.59,1.59,0,0,0,.15-.92.61.61,0,0,0-.59-.44,7.61,7.61,0,0,0-2,.73,6.29,6.29,0,0,1-2.28.35h-.28l0-.28a1.43,1.43,0,0,1,1.37-1.12,1.57,1.57,0,0,1,1.47.94,2.13,2.13,0,0,1,.07,1.71,3.21,3.21,0,0,1-1,1.35,2.16,2.16,0,0,1-1.6.61,1.64,1.64,0,0,1-1.29-1.18,2.45,2.45,0,0,1,.12-1.69,7.3,7.3,0,0,1,.83-1.39l.67-.93-.21,1.12a5.56,5.56,0,0,1-2.76,3.74,1.88,1.88,0,0,1-1.59.25,1.7,1.7,0,0,1-.95-1.27,2,2,0,0,1,.26-1.53A5.4,5.4,0,0,1,774.58,903.22Z" transform="translate(-770.94 -852.05)"/><path class="cls-1" d="M802.31,903a5,5,0,0,0-1.58.84,7.12,7.12,0,0,0-1.18,1.28,2.69,2.69,0,0,0-.55,1.55.94.94,0,0,0,.88,1,3.29,3.29,0,0,0,1.63-.39,6.74,6.74,0,0,0,1.48-.94,7,7,0,0,0,2.07-2.81l.42.25a4.45,4.45,0,0,0-1.08,3.51l-.3-.21a8.78,8.78,0,0,0,1-.29c.33-.12.67-.19,1-.31a13.92,13.92,0,0,0,1.95-.83,11,11,0,0,1-1.8,1.18,5.85,5.85,0,0,1-1,.44q-.51.16-1,.3l-.26.06,0-.27a5,5,0,0,1,1.19-3.91l.94-1-.52,1.31a7.37,7.37,0,0,1-2.21,3,6.94,6.94,0,0,1-1.6,1,3.69,3.69,0,0,1-1.89.44,1.5,1.5,0,0,1-1-.48,1.52,1.52,0,0,1-.36-1,3.18,3.18,0,0,1,.64-1.85,3.79,3.79,0,0,1,1.4-1.27A4.76,4.76,0,0,1,802.31,903Z" transform="translate(-770.94 -852.05)"/><path class="cls-1" d="M811.72,903a4.58,4.58,0,0,0-1.87,1.06,2.73,2.73,0,0,0-1,1.79,1.28,1.28,0,0,0,.23.92.69.69,0,0,0,.79.15c.57-.27.86-1,1.24-1.59a74.89,74.89,0,0,0,4-7.71l.46.2-3.46,7.5a1.41,1.41,0,0,0,.08,1.64c.38.39,1,0,1.59-.35a12,12,0,0,0,3-2.66l.36.34a3.51,3.51,0,0,0-1,1.4,1.46,1.46,0,0,0,.3,1.47c.35.4.88.34,1.42.07a7.43,7.43,0,0,0,1.54-.91,6.41,6.41,0,0,0,1.26-1.23.9.9,0,0,0-.2-1.31,1.53,1.53,0,0,0-1.51-.2,5.41,5.41,0,0,0-1.5.93l0-.42a3.67,3.67,0,0,0,3.09-.65,8.49,8.49,0,0,1,1.64-.76,2.79,2.79,0,0,1,1.87,0,1.82,1.82,0,0,1,1.27,1.45,3.3,3.3,0,0,1-.41,1.81,4.5,4.5,0,0,1-1,1.54,1.71,1.71,0,0,1-1.77.44l-.22-.08.18-.14a6.64,6.64,0,0,1,4.2-1.35,6.49,6.49,0,0,0-4,1.55l0-.22a1.43,1.43,0,0,0,1.42-.46,4,4,0,0,0,.79-1.46,3.56,3.56,0,0,0,.35-1.57,1.31,1.31,0,0,0-.94-1c-1-.4-2.1.15-3.1.71a7.48,7.48,0,0,1-1.65.74,2.89,2.89,0,0,1-1.88-.06l-.39-.17.33-.26a6,6,0,0,1,1.64-1,2.07,2.07,0,0,1,2,.28,1.55,1.55,0,0,1,.58.92,1.5,1.5,0,0,1-.27,1.05,7.05,7.05,0,0,1-1.37,1.36,8.74,8.74,0,0,1-1.64,1,2.58,2.58,0,0,1-1,.26,1.37,1.37,0,0,1-1-.44,2,2,0,0,1-.42-2,4,4,0,0,1,1.12-1.6l.37.33A12.29,12.29,0,0,1,814,907a5.2,5.2,0,0,1-1,.5,1.16,1.16,0,0,1-1.21-.2,1.48,1.48,0,0,1-.47-1.11,2.77,2.77,0,0,1,.25-1.09l3.48-7.52.45.21a79.23,79.23,0,0,1-4,7.77,3.73,3.73,0,0,1-1.52,1.69,1,1,0,0,1-1.19-.3,1.55,1.55,0,0,1-.24-1.15,2.9,2.9,0,0,1,1.17-1.87A4.64,4.64,0,0,1,811.72,903Z" transform="translate(-770.94 -852.05)"/><path class="cls-1" d="M805.65,902l-.15-.21,0,0,.07-.06.06-.06,0,0,.21.15.15.21,0,0L806,902l-.06.07,0,0Z" transform="translate(-770.94 -852.05)"/><path class="cls-1" d="M839.87,903.65a1.46,1.46,0,0,0-1,.75,3.23,3.23,0,0,0-.61,1.09,3.89,3.89,0,0,0-.23,1.25,1.35,1.35,0,0,0,.35,1,1.2,1.2,0,0,0,1.08.15,6.51,6.51,0,0,0,1.22-.42,5.73,5.73,0,0,0,1.11-.69,6.63,6.63,0,0,0,1.11-.76,4.75,4.75,0,0,1-.8,1.15,6.51,6.51,0,0,1-1.2.75,7.07,7.07,0,0,1-1.34.46,1.71,1.71,0,0,1-1.51-.26,1.85,1.85,0,0,1-.52-1.43,4.19,4.19,0,0,1,.26-1.41,3.87,3.87,0,0,1,.7-1.27A1.59,1.59,0,0,1,839.87,903.65Z" transform="translate(-770.94 -852.05)"/><path class="cls-1" d="M844.36,903.47a3.69,3.69,0,0,0-1.61,2.42,1.48,1.48,0,0,0,.53,1.25,1.44,1.44,0,0,0,1.31.12,1.71,1.71,0,0,0,1.11-2.13,1.35,1.35,0,0,0-2.12-.4l-.16-.4a4,4,0,0,0,2.29-.38c.75-.31,1.47-.72,2.25-1.05a3.19,3.19,0,0,1,.64-.22.89.89,0,0,1,.81.2.93.93,0,0,1,.18.8l-.11.62-.43,2.45-.46-.18a22.44,22.44,0,0,1,3.28-3.93l.56-.53-.14.76-.75,4-.34-.28c1.21-.46,1.85-1.77,2.63-2.9.1-.15.2-.28.32-.43a1.49,1.49,0,0,1,.47-.39.65.65,0,0,1,1,.68c-.1.75-.39,1.38-.46,2a1.45,1.45,0,0,0,.64,1.51c.49.23,1.11-.13,1.62-.54a8.6,8.6,0,0,0,2.46-3.12l.34.33a1.49,1.49,0,0,0-.73,1.19,5.53,5.53,0,0,0,0,1.57c.07.45.57.57,1.07.49a2.88,2.88,0,0,0,1.39-.65,2,2,0,0,0,.7-1.28,1.81,1.81,0,0,0-.42-1.37,1.3,1.3,0,0,0-2.2.61l-.24-.23a29,29,0,0,0,7.06-1.76,29.33,29.33,0,0,1-7,2.18l-.26,0v-.27a1.73,1.73,0,0,1,3-.92,2.29,2.29,0,0,1,.56,1.76,2.48,2.48,0,0,1-.87,1.61,3.39,3.39,0,0,1-1.64.76,1.87,1.87,0,0,1-1-.07,1.05,1.05,0,0,1-.67-.79,5.89,5.89,0,0,1,0-1.78,2,2,0,0,1,1-1.55l.63-.29-.29.62a9.06,9.06,0,0,1-2.61,3.3,4,4,0,0,1-.94.59,1.56,1.56,0,0,1-1.2,0,1.93,1.93,0,0,1-.92-2c.08-.73.38-1.39.45-2s-.57-.14-.9.46-.73,1.16-1.17,1.72a3.91,3.91,0,0,1-1.69,1.36l-.42.16.08-.44.76-4,.42.22a21.81,21.81,0,0,0-3.21,3.84l-.67,1,.22-1.21.43-2.45c.07-.39.2-.89.06-1s-.54,0-.89.13c-.75.32-1.47.73-2.26,1.06a4.65,4.65,0,0,1-2.56.4l-.41-.07.25-.33a1.65,1.65,0,0,1,1.63-.52,1.91,1.91,0,0,1,1.36,1,1.81,1.81,0,0,1-.17,1.68,2.27,2.27,0,0,1-1.3,1,1.74,1.74,0,0,1-1.59-.25,1.68,1.68,0,0,1-.54-1.47A3.76,3.76,0,0,1,844.36,903.47Z" transform="translate(-770.94 -852.05)"/><path class="cls-1" d="M884.34,897.18c0,.14,0,.24.07.35l-.12.22c-.07.15-.13.3-.19.46a4.21,4.21,0,0,0-.12.48l0,.25-.27.23a2,2,0,0,1-.22-.29l0-.28a3.75,3.75,0,0,1,.36-1.07l.13-.25A1.89,1.89,0,0,1,884.34,897.18Z" transform="translate(-770.94 -852.05)"/><path class="cls-1" d="M885.73,897.52c0,.13,0,.24.08.35a1.19,1.19,0,0,0-.12.22,2.62,2.62,0,0,0-.19.46,2.85,2.85,0,0,0-.13.48l0,.25-.27.23a1.54,1.54,0,0,1-.23-.29l0-.28a3.75,3.75,0,0,1,.36-1.07l.13-.25A1.89,1.89,0,0,1,885.73,897.52Z" transform="translate(-770.94 -852.05)"/><path class="cls-1" d="M891.62,899.7c.09.34.14.68.2,1l-.05,1-.11,2-.1,2,0,1c-.11.33-.19.67-.31,1-.08-.34-.13-.68-.19-1l0-1,.1-2,.11-2,.05-1C891.42,900.37,891.5,900,891.62,899.7Z" transform="translate(-770.94 -852.05)"/><path class="cls-1" d="M890.56,900.59a5.72,5.72,0,0,1,2-1.24,5.07,5.07,0,0,1,2.39-.11,4.31,4.31,0,0,1,3.39,3.14,3.49,3.49,0,0,1-.23,2.42,4.56,4.56,0,0,1-1.62,1.78,8.2,8.2,0,0,1-4.49,1.23h-.5l.45-.17.74-.3-.66.46-.06-.17a15.35,15.35,0,0,0,4.25-1.46,4.15,4.15,0,0,0,1.44-1.59,3,3,0,0,0,.2-2.07,3.84,3.84,0,0,0-3-2.78,5,5,0,0,0-2.17.09A6.53,6.53,0,0,0,890.56,900.59Z" transform="translate(-770.94 -852.05)"/><path class="cls-1" d="M901.41,904.21a1.85,1.85,0,0,0-1.62.35,4.4,4.4,0,0,0-1.14,1.25c-.3.46-.61,1-.29,1.37a1.7,1.7,0,0,0,1.43.2,3.19,3.19,0,0,0,1.5-.55,1,1,0,0,0,.33-1.22c-.47-.59-2.38-1-2.33-.1l-.31-.2,4.42-1.12a1.59,1.59,0,0,1,1.31.06,1,1,0,0,1,.41.63,1.83,1.83,0,0,1,0,.67c-.19.76-.59,1.5-.34,2l-.42,0,1.48-1.93.74-1a5.89,5.89,0,0,1,.83-1,1.29,1.29,0,0,1,.7-.27.56.56,0,0,1,.47.21.63.63,0,0,1,.12.46c-.07.46-.16.81-.24,1.22l-.49,2.38-.43-.22,4-4.17.16-.17.19.15a1.24,1.24,0,0,1,.32,1.24,5.64,5.64,0,0,1-.4,1.07c-.26.52-.19,1.47.29,1.39.22,0,.5-.26.78-.49l.79-.71a15.38,15.38,0,0,0,1.49-1.53l.27.18a3.58,3.58,0,0,0-.72,1.88,1.44,1.44,0,0,0,.39.9,1,1,0,0,0,.94.31,1,1,0,0,1-1-.25,1.5,1.5,0,0,1-.5-1,3.67,3.67,0,0,1,.6-2l.27.18a14.94,14.94,0,0,1-1.4,1.69c-.26.26-.54.51-.82.74a2.13,2.13,0,0,1-1.06.6.9.9,0,0,1-.7-.28,1.2,1.2,0,0,1-.26-.62,2.23,2.23,0,0,1,.17-1.2c.3-.61.61-1.39.21-1.72l.34,0-4,4.17-.6.63.18-.85.49-2.38.24-1.16c0-.07,0-.09,0-.11s0,0-.06,0a.88.88,0,0,0-.41.17,5.68,5.68,0,0,0-.73.88l-.74,1-1.48,1.93-.24.33-.18-.36a1.83,1.83,0,0,1,0-1.3c.11-.38.25-.74.34-1.08s.06-.62-.16-.76a1.22,1.22,0,0,0-.91,0l-4.42,1.12-.27.07,0-.27a1,1,0,0,1,.54-1,1.51,1.51,0,0,1,1-.12,8.11,8.11,0,0,1,.88.24,1.53,1.53,0,0,1,.83.59,1.5,1.5,0,0,1-.45,1.88,4,4,0,0,1-1.72.67,3,3,0,0,1-.94,0,1.35,1.35,0,0,1-.9-.48,1,1,0,0,1-.09-1,3.71,3.71,0,0,1,.48-.77,4.65,4.65,0,0,1,1.29-1.21A1.92,1.92,0,0,1,901.41,904.21Z" transform="translate(-770.94 -852.05)"/><path class="cls-1" d="M916.18,901.47l-.26,0s0,0,0,0v-.16l.25,0,.25,0v.16s0,0,0,0Z" transform="translate(-770.94 -852.05)"/><path class="cls-1" d="M918.5,904.56a4.74,4.74,0,0,0-.81,1.88,8.33,8.33,0,0,0-.16,1,4.11,4.11,0,0,0,0,1l-.45-.11a27.32,27.32,0,0,1,2.31-2.73c.41-.44.83-.85,1.28-1.26a1.23,1.23,0,0,1,.48-.27.78.78,0,0,1,.63.1,1.2,1.2,0,0,1,.48,1c0,.77-.54,1.23-.72,1.71s-.06,1,.38,1a8.42,8.42,0,0,0,1.58-.48,12.86,12.86,0,0,0,1.61-.73,9.5,9.5,0,0,1-1.44,1.08,4.11,4.11,0,0,1-.81.41,2.5,2.5,0,0,1-.95.22.94.94,0,0,1-.9-.67,1.64,1.64,0,0,1,.07-1c.26-.61.68-1.06.68-1.52a.7.7,0,0,0-.26-.56c-.14-.09-.29,0-.5.13-.42.38-.85.8-1.25,1.22a27.5,27.5,0,0,0-2.26,2.69l-.35.47-.1-.58a4.57,4.57,0,0,1-.05-1.11,3.63,3.63,0,0,1,.21-1.08A4.52,4.52,0,0,1,918.5,904.56Z" transform="translate(-770.94 -852.05)"/><path class="cls-1" d="M928.4,904.05a.55.55,0,0,0-.49-.41,1.4,1.4,0,0,0-.67.06,4.33,4.33,0,0,0-1.16.7,5.65,5.65,0,0,0-1.61,2.12c-.15.37-.13.91.12,1a.82.82,0,0,0,.51-.1l.6-.27a5.26,5.26,0,0,0,1.95-1.74,6.42,6.42,0,0,0,.34-.56c.1-.2.16-.39.31-.65a.71.71,0,0,1,.39-.32.68.68,0,0,1,.53.07,1.87,1.87,0,0,1,.55.58,4.47,4.47,0,0,1,.69,2.79,10.72,10.72,0,0,1-.54,2.76,14.71,14.71,0,0,1-1.08,2.6,8.38,8.38,0,0,1-1.75,2.23,6.07,6.07,0,0,1-1.18.82,1.81,1.81,0,0,1-1.55.15,1.7,1.7,0,0,1-.9-1.28,2.1,2.1,0,0,1,.28-1.49,7,7,0,0,1,2.11-1.91,43.73,43.73,0,0,0,8.06-7.43l.37.33a8.93,8.93,0,0,0-1.63,2.49c-.24.46-.23.83.16,1a1.89,1.89,0,0,0,1.3-.18c.87-.41,1.68-1.14,1.57-2.06a.93.93,0,0,0-.71-.87.79.79,0,0,0-.93.53l-.27-.22a20.86,20.86,0,0,1,6.4-1,20.54,20.54,0,0,0-6.26,1.34l-.3.11,0-.32a1,1,0,0,1,.5-.79,1.48,1.48,0,0,1,.9-.2,1.39,1.39,0,0,1,1.13,1.31,2.08,2.08,0,0,1-.53,1.61,4.18,4.18,0,0,1-1.31,1,2.33,2.33,0,0,1-1.69.2.94.94,0,0,1-.64-.75,1.56,1.56,0,0,1,.19-.87,9.23,9.23,0,0,1,1.73-2.63l.37.33a44.07,44.07,0,0,1-8.15,7.52,6.59,6.59,0,0,0-2,1.75,1.48,1.48,0,0,0,.4,2.06c.68.29,1.55-.35,2.19-.89a7.68,7.68,0,0,0,1.64-2.1,12.8,12.8,0,0,0,1-2.5,10.47,10.47,0,0,0,.52-2.64,4,4,0,0,0-.6-2.48,1.61,1.61,0,0,0-.39-.42c-.13-.06-.14-.06-.25.08s-.18.39-.29.6a5,5,0,0,1-.37.63,6,6,0,0,1-2.13,1.9,4,4,0,0,1-.67.28,1.14,1.14,0,0,1-.83,0,.79.79,0,0,1-.45-.75,1.63,1.63,0,0,1,.17-.76,5.69,5.69,0,0,1,1.83-2.12,4.32,4.32,0,0,1,1.24-.65,1.65,1.65,0,0,1,.7,0A.59.59,0,0,1,928.4,904.05Z" transform="translate(-770.94 -852.05)"/><path class="cls-1" d="M961.6,901.46a6.11,6.11,0,0,0-2.52,2.33,1.94,1.94,0,0,0-.19.79.51.51,0,0,0,.36.52c.47.09,1-.31,1.64-.4a1.89,1.89,0,0,1,1.74.8,2.76,2.76,0,0,1,.56,1.82,3.35,3.35,0,0,1-2.47,2.64,6.55,6.55,0,0,1-.9.21,2.68,2.68,0,0,1-1,0,.69.69,0,0,1-.49-.43.71.71,0,0,1,.14-.64,4.22,4.22,0,0,1,.7-.65,12.57,12.57,0,0,1,3.25-1.5,11.49,11.49,0,0,0,5.52-4l.38.33-2.06,2.05c-.33.34-.72.69-1,1a.54.54,0,0,0,.1.89,1,1,0,0,0,1.1-.06,5.18,5.18,0,0,0,1-.93,13.14,13.14,0,0,0,1.66-2.31l1-1.75-.53,1.94c-.26.93-1,1.49-1.08,2.19,0,.35.09.73.33.82s.58,0,.86-.3a20.2,20.2,0,0,0,1.6-1.88,3.76,3.76,0,0,1,2.18-1.46l.4-.07-.12.39-1.17,3.85-.42-.24,1.86-2c.62-.65,1.27-1.26,1.91-1.89l.1-.1.12.06a1,1,0,0,1,.45.78,1.83,1.83,0,0,1-.16.81,3.56,3.56,0,0,0-.54,1.37,1.15,1.15,0,0,0,.83,1.05,1.18,1.18,0,0,0,1.28-.56,1.23,1.23,0,0,1-1.3.65,1.26,1.26,0,0,1-1-1.13,3.48,3.48,0,0,1,.46-1.49c.17-.41.14-1-.2-1.15l.22,0c-.61.67-1.19,1.35-1.81,2l-1.87,1.94-.72.75.3-1,1.17-3.86.28.32a3.26,3.26,0,0,0-1.88,1.3,23.69,23.69,0,0,1-1.64,1.93,1.92,1.92,0,0,1-.6.38,1,1,0,0,1-.8,0,1.28,1.28,0,0,1-.63-1.32c.12-1,.94-1.56,1.09-2.28l.46.19a13.13,13.13,0,0,1-1.72,2.4,5.86,5.86,0,0,1-1.13,1,1.9,1.9,0,0,1-.79.27,1.39,1.39,0,0,1-.85-.22,1.08,1.08,0,0,1-.5-.77,1.15,1.15,0,0,1,.28-.85c.36-.41.7-.7,1-1l2.07-2,.37.33a12.11,12.11,0,0,1-5.75,4.14,12.57,12.57,0,0,0-3.13,1.43,3.94,3.94,0,0,0-.59.55c-.11.2-.11.21.09.29a2.25,2.25,0,0,0,.77,0,4.64,4.64,0,0,0,.82-.19,2.85,2.85,0,0,0,2.12-2.2,2,2,0,0,0-1.75-2.15c-.51,0-1.05.43-1.78.29a.82.82,0,0,1-.55-.84,2.21,2.21,0,0,1,.28-.89A6.08,6.08,0,0,1,961.6,901.46Z" transform="translate(-770.94 -852.05)"/><path class="cls-1" d="M981.49,904.06a.64.64,0,0,0-.67-.36,2,2,0,0,0-.78.22,8.81,8.81,0,0,0-1.34,1,4.08,4.08,0,0,0-1,1.21,1.6,1.6,0,0,0-.18,1.35.32.32,0,0,0,.43.16,3.42,3.42,0,0,0,.67-.36,11.45,11.45,0,0,0,1.31-1,10.9,10.9,0,0,0,2.09-2.5l.21-.36.22.36a3.1,3.1,0,0,1,.27,2.1,13,13,0,0,1-.59,1.95,36.74,36.74,0,0,1-1.48,3.71,13.78,13.78,0,0,1-2.17,3.41,4.6,4.6,0,0,1-1.72,1.18,2.47,2.47,0,0,1-1.09.15,1.12,1.12,0,0,1-1-.7,1.51,1.51,0,0,1,.08-1.15,3.12,3.12,0,0,1,.61-.89,9.19,9.19,0,0,1,1.54-1.32c1.1-.78,2.29-1.39,3.39-2.1a14.94,14.94,0,0,0,1.59-1.15c.52-.4,1-.8,1.51-1.25a18,18,0,0,0,2.61-3,16.4,16.4,0,0,1-5.44,5.79c-1.13.72-2.31,1.33-3.37,2.08a9.87,9.87,0,0,0-1.47,1.26,1.74,1.74,0,0,0-.59,1.52c.16.47.87.47,1.43.25a3.86,3.86,0,0,0,1.52-1,13.11,13.11,0,0,0,2.09-3.27,38.93,38.93,0,0,0,1.46-3.67,12.29,12.29,0,0,0,.56-1.86A2.51,2.51,0,0,0,982,904h.44a11,11,0,0,1-2.19,2.61,11.4,11.4,0,0,1-1.37,1,4.27,4.27,0,0,1-.8.42.85.85,0,0,1-1-.39,1.5,1.5,0,0,1-.13-1,2.61,2.61,0,0,1,.36-.84,4.5,4.5,0,0,1,1.24-1.22,8.83,8.83,0,0,1,1.46-.85,2.24,2.24,0,0,1,.84-.16A.68.68,0,0,1,981.49,904.06Z" transform="translate(-770.94 -852.05)"/><path class="cls-1" d="M986.84,903.75a11.59,11.59,0,0,0-1.2,3.51l-.15,0a10.75,10.75,0,0,1,3-3.79,1.36,1.36,0,0,1,.61-.31.68.68,0,0,1,.72.36,1.38,1.38,0,0,1-.33,1.35,3.37,3.37,0,0,1-1.1.65,1.28,1.28,0,0,0-.71.65c-.2.62.73.9,1.45.86a6.16,6.16,0,0,0,1.14-.19c.38-.08.77-.18,1.14-.29a4.76,4.76,0,0,0,2-1.12,2.65,2.65,0,0,0,.85-2l.34.22a5.36,5.36,0,0,0-1.69,1,2.76,2.76,0,0,0-1,1.55c0,.55.57,1,1.16,1a2.18,2.18,0,0,0,1.6-.84c.45-.49.8-1.09,1.25-1.66a4.11,4.11,0,0,1,.78-.78,1.76,1.76,0,0,1,.53-.3.59.59,0,0,1,.72.33,1.49,1.49,0,0,1-.14,1.22l-.47.93-.94,1.87-.4-.29,3.95-3.9.57-.57-.15.8L1000,906c-.06.31-.13.65-.17.93s0,.59.14.62.43-.07.69-.21a4.27,4.27,0,0,0,.79-.48,6.89,6.89,0,0,0,1.29-1.35c.75-1,1.33-2.18,2-3.31a10,10,0,0,1,2.52-3.06l.76-.56-.38.87-3.11,7.16c-.14.29-.28.61-.22.73s.27.12.54,0a11.41,11.41,0,0,0,1.7-.88,13.2,13.2,0,0,0,2.92-2.46l1.21-1.36-.8,1.64-1.33,2.72,0-.29a2,2,0,0,0,2.09.26,5.74,5.74,0,0,0,1.89-1.44c.29-.3.58-.58.57-.88a.92.92,0,0,0-.59-.77c-.68-.3-1.49.16-2.15.61l-.08-.25a27.81,27.81,0,0,0,6.53-1,28.83,28.83,0,0,1-6.52,1.27l-.48,0,.4-.28a5.3,5.3,0,0,1,1.1-.67,1.75,1.75,0,0,1,1.35-.07,1.31,1.31,0,0,1,.87,1.11,1.85,1.85,0,0,1-.65,1.22,5.6,5.6,0,0,1-2.06,1.58,2.51,2.51,0,0,1-2.62-.37l-.13-.12.08-.17,1.33-2.72.41.28a13.73,13.73,0,0,1-3,2.55,14.12,14.12,0,0,1-1.77.92,1.65,1.65,0,0,1-.57.12.68.68,0,0,1-.62-.4c-.15-.53.13-.83.22-1.12l3.11-7.16.38.3a9.42,9.42,0,0,0-2.39,2.91c-.66,1.1-1.24,2.27-2,3.35a7.62,7.62,0,0,1-1.39,1.45,4.81,4.81,0,0,1-.87.53,5.11,5.11,0,0,1-.47.21.83.83,0,0,1-.66,0,.78.78,0,0,1-.4-.56,1.78,1.78,0,0,1,0-.56c.05-.36.12-.65.18-1l.37-1.91.42.23-3.95,3.89-1.08,1.08.69-1.37.94-1.86c.28-.62.77-1.28.6-1.73,0-.06-.05-.06-.14,0a1.51,1.51,0,0,0-.36.22,3.76,3.76,0,0,0-.69.69c-.42.53-.77,1.14-1.27,1.68a2.65,2.65,0,0,1-2,1,2,2,0,0,1-1.1-.41,1.36,1.36,0,0,1-.53-1.11,2,2,0,0,1,.44-1.09,6.21,6.21,0,0,1,.73-.81,5.9,5.9,0,0,1,1.85-1.14l.32-.12,0,.34a3.15,3.15,0,0,1-1,2.34,5.24,5.24,0,0,1-2.18,1.24,12.23,12.23,0,0,1-1.19.31,6.58,6.58,0,0,1-1.23.2,2.81,2.81,0,0,1-1.29-.23,1.12,1.12,0,0,1-.56-.48,1,1,0,0,1-.1-.77,1.66,1.66,0,0,1,1-1,3.71,3.71,0,0,0,1-.52,1,1,0,0,0,.29-.86.28.28,0,0,0-.29-.15,1.13,1.13,0,0,0-.44.22,10.42,10.42,0,0,0-3.09,3.57l-.26.51.11-.56A11.9,11.9,0,0,1,986.84,903.75Z" transform="translate(-770.94 -852.05)"/><path class="cls-1" d="M1001.69,900.23c.39-.11.79-.19,1.18-.28l1.18-.05c.78,0,1.57-.1,2.35-.17s1.57-.15,2.35-.25l1.17-.16c.4,0,.8,0,1.21.07-.38.16-.76.29-1.14.43l-1.18.16c-.78.1-1.57.18-2.36.25s-1.59.13-2.38.17l-1.19.05C1002.48,900.38,1002.09,900.33,1001.69,900.23Z" transform="translate(-770.94 -852.05)"/><path class="cls-1" d="M1018.05,897.37c.11,0,.19,0,.29,0l.1.13.19.26.19.25.1.13c0,.09-.06.17-.11.28l-.29,0-.1-.13-.19-.25-.19-.26-.1-.13A1.46,1.46,0,0,1,1018.05,897.37Z" transform="translate(-770.94 -852.05)"/><path class="cls-1" d="M1019.81,897.39l.26,0,0,.07.06.12.07.13,0,.06-.19.18-.26.05,0-.07-.06-.12-.07-.13,0-.06Z" transform="translate(-770.94 -852.05)"/><path class="cls-2" d="M1020.58,907.86" transform="translate(-770.94 -852.05)"/><path class="cls-1" d="M779.65,917.87l-.26,2a16.56,16.56,0,0,1-.34,2l-.85,3.89-.49-.12,2.1-8,.23-.86.26.86,1.25,4.25.31,1.06c.1.36.16.72.24,1.09l.46,2.17-.8-2.07c-.13-.35-.27-.69-.38-1l-.31-1.06-1.25-4.25h.48l-2.1,8-.49-.13.85-3.88a14.3,14.3,0,0,1,.51-1.92Z" transform="translate(-770.94 -852.05)"/><path class="cls-1" d="M778.36,924.51a4.4,4.4,0,0,1,.31-.41l.42-.16.82-.34.82-.34.41-.16a4.7,4.7,0,0,1,.51.06,4.31,4.31,0,0,1-.32.4l-.41.17-.82.33-.83.34-.41.17A4.53,4.53,0,0,1,778.36,924.51Z" transform="translate(-770.94 -852.05)"/><path class="cls-2" d="M783.69,926.23" transform="translate(-770.94 -852.05)"/><path class="cls-1" d="M784.48,926.29a13,13,0,0,0,4.43-6.21,11.47,11.47,0,0,0,.45-1.84,1.63,1.63,0,0,0-.14-.8c-.12-.22-.26-.26-.44-.15a2.91,2.91,0,0,0-.54.69c-.16.27-.32.54-.45.82a8.37,8.37,0,0,0-.57,5.54A3.59,3.59,0,0,0,788,926a1.25,1.25,0,0,0,1.46.44,5.56,5.56,0,0,0,1.31-1.27l1.29-1.46a11.75,11.75,0,0,1,1.39-1.45,1.4,1.4,0,0,1,2.08.25l.11.18-.19.13c-.78.55-1.67.79-2.3,1.31a1.5,1.5,0,0,0-.58,1,1.16,1.16,0,0,0,.23,1,.91.91,0,0,0,1,0,3.25,3.25,0,0,0,1-.68,8.79,8.79,0,0,0,1.46-2.14l.22-.4.22.4a10.47,10.47,0,0,1,1.29,5.78,4,4,0,0,1-1.29,2.76,2.64,2.64,0,0,1-3,.32.92.92,0,0,1-.52-.8,1.48,1.48,0,0,1,.44-.75c.32-.38.66-.74,1-1.09.69-.7,1.41-1.37,2.12-2a19.4,19.4,0,0,0,3.74-4.37l.44.24a2.34,2.34,0,0,0-.45,2,.81.81,0,0,0,.65.53,2.12,2.12,0,0,0,1-.31,5.52,5.52,0,0,0,2.77-3.32l.24-.84.08.86a4,4,0,0,1-.39,1.67,1.65,1.65,0,0,0-.06,1.51,1.25,1.25,0,0,0,1.41.41,4.7,4.7,0,0,0,1.5-.67,4.6,4.6,0,0,1-1.48.75,1.36,1.36,0,0,1-1.56-.4,1.84,1.84,0,0,1,0-1.68,3.45,3.45,0,0,0,.29-1.54l.32,0a5.67,5.67,0,0,1-2.84,3.68,2.58,2.58,0,0,1-1.23.36,1.31,1.31,0,0,1-1.07-.84,1.91,1.91,0,0,1,0-1.29,5.27,5.27,0,0,1,.5-1.1l.44.24a19.77,19.77,0,0,1-3.84,4.5c-.71.67-1.42,1.33-2.1,2-.34.35-.66.7-1,1.07-.16.18-.34.38-.33.47s.1.22.29.33a2.13,2.13,0,0,0,2.43-.29,3.48,3.48,0,0,0,1.11-2.42,10,10,0,0,0-1.23-5.49h.44a9.41,9.41,0,0,1-1.55,2.25,3.69,3.69,0,0,1-1.19.79,1.38,1.38,0,0,1-1.52-.14,1.63,1.63,0,0,1-.38-1.47,2,2,0,0,1,.75-1.27c.76-.61,1.66-.85,2.33-1.33l-.07.31a.7.7,0,0,0-.6-.32,1.16,1.16,0,0,0-.75.26,11.44,11.44,0,0,0-1.3,1.37l-1.29,1.46a5.74,5.74,0,0,1-1.49,1.4,1.57,1.57,0,0,1-1.13.06,2.23,2.23,0,0,1-.9-.62,4.09,4.09,0,0,1-.91-1.84,8.63,8.63,0,0,1,0-4,8.45,8.45,0,0,1,.65-1.89,7.5,7.5,0,0,1,.48-.88,3.26,3.26,0,0,1,.67-.83.8.8,0,0,1,.68-.13.86.86,0,0,1,.5.45,1.91,1.91,0,0,1,.17,1.09,11.28,11.28,0,0,1-.56,1.92A13.17,13.17,0,0,1,784.48,926.29Z" transform="translate(-770.94 -852.05)"/><path class="cls-1" d="M809,922l-.26,1.85a16.57,16.57,0,0,1-.3,1.85l-.45-.2,1.09-1.63.55-.82a2.74,2.74,0,0,1,.7-.84.81.81,0,0,1,.7,0,.85.85,0,0,1,.45.49,1.72,1.72,0,0,1,0,1.14c-.15.38-.32.62-.46.91a1.12,1.12,0,0,0-.14.77c.12.48.81.53,1.37.34a7.88,7.88,0,0,0,1.69-.85,9.32,9.32,0,0,0,2.68-2.7l.11-.16.18.05a2.45,2.45,0,0,1,1.36,1.08,2.35,2.35,0,0,1,.36,1.7,2.39,2.39,0,0,1-2.52,1.82,2.19,2.19,0,0,0,2-1.9,2.06,2.06,0,0,0-.3-1.36,2,2,0,0,0-1.09-.86l.28-.1a9.7,9.7,0,0,1-2.83,2.84,8.11,8.11,0,0,1-1.81.92,2.48,2.48,0,0,1-1.09.1,1.12,1.12,0,0,1-.91-.78,1.59,1.59,0,0,1,.17-1.12c.14-.31.34-.62.44-.86a1.25,1.25,0,0,0,0-.79c-.1-.24-.25-.28-.44-.19a2.3,2.3,0,0,0-.53.67l-.55.82-1.09,1.64-.68,1,.22-1.2c.11-.61.33-1.2.5-1.8Z" transform="translate(-770.94 -852.05)"/><path class="cls-1" d="M837.34,921.73a4.48,4.48,0,0,0-1.85,1.81,3.47,3.47,0,0,0-.41,1.21.68.68,0,0,0,.55.83,1.59,1.59,0,0,0,1.08-.42,5.12,5.12,0,0,0,.83-1,8.67,8.67,0,0,0,1.16-2.29l.49.11-.3,2.61c-.07.45-.06.8.19.88a1.28,1.28,0,0,0,1-.27,7.7,7.7,0,0,0,2.78-4.14l.48.16A21.43,21.43,0,0,0,842,925.9l-.47-.15.82-1.72a10.38,10.38,0,0,1,.91-1.74,2.07,2.07,0,0,1,.83-.67.9.9,0,0,1,.63,0,1,1,0,0,1,.51.39,1.49,1.49,0,0,1,.09,1.12,5.52,5.52,0,0,0-.17.89c-.07.56.36.93.94,1a2.82,2.82,0,0,0,1.69-.31,5.54,5.54,0,0,0,2.55-2.51l.45.23a10.64,10.64,0,0,0-.63,1.32,4.25,4.25,0,0,0-.34,1.35c0,.46.22.58.73.48a2.71,2.71,0,0,0,1.26-.52,1.73,1.73,0,0,0,.5-2.32,1.15,1.15,0,0,0-2,.18l-.24-.32a10.28,10.28,0,0,0,3.21-.52c.52-.16,1-.4,1.55-.6a3.35,3.35,0,0,1,1.76-.25,1.73,1.73,0,0,1,1.44,1.15,2.57,2.57,0,0,1-.3,1.77,5.13,5.13,0,0,1-1,1.41,2.19,2.19,0,0,1-.75.48,1,1,0,0,1-.9-.1l-.19-.13.21,0,3.4-.93-3.34,1.12,0-.18c.46.27,1,0,1.34-.42a4.31,4.31,0,0,0,.84-1.36,2.07,2.07,0,0,0,.19-1.46,1.32,1.32,0,0,0-1.06-.81c-1-.17-2,.5-3.07.84a10.94,10.94,0,0,1-3.36.54h-.35l.11-.32a1.64,1.64,0,0,1,2.88-.32,2.24,2.24,0,0,1-.62,3,3.24,3.24,0,0,1-1.48.62,1.28,1.28,0,0,1-.9-.1,1,1,0,0,1-.41-.87,4.41,4.41,0,0,1,.38-1.54,10.33,10.33,0,0,1,.65-1.39l.44.24a6,6,0,0,1-2.78,2.74,3.31,3.31,0,0,1-2,.35,1.78,1.78,0,0,1-1-.46,1.35,1.35,0,0,1-.37-1.07,6.7,6.7,0,0,1,.18-1,1.07,1.07,0,0,0,0-.74c-.24-.42-.81-.11-1.16.36a11,11,0,0,0-.85,1.64L842,926l-.77,1.62.3-1.77a21.77,21.77,0,0,1,1.36-4.74l.48.16a8.22,8.22,0,0,1-3,4.42,1.74,1.74,0,0,1-1.46.33.85.85,0,0,1-.54-.69,2.79,2.79,0,0,1,0-.72l.3-2.61.49.1a7.24,7.24,0,0,1-1.27,2.41,2.85,2.85,0,0,1-2.32,1.42.91.91,0,0,1-.63-.44,1.15,1.15,0,0,1-.11-.72,3.42,3.42,0,0,1,.51-1.26A4.45,4.45,0,0,1,837.34,921.73Z" transform="translate(-770.94 -852.05)"/><path class="cls-1" d="M877.59,922.14c.08-.28-.27-.35-.47-.3a1,1,0,0,0-.59.31,6.87,6.87,0,0,0-.89,1.05,4.8,4.8,0,0,0-.66,1.19.74.74,0,0,0,.45,1,2,2,0,0,0,2.19-1,8.41,8.41,0,0,0,1.07-2.47l.48.13a12,12,0,0,0-.26,2.47c0,.38.12.77.35.82s.63-.16,1-.37a11.08,11.08,0,0,0,3.56-3.42l1.06-1.62-.61,1.83a89.91,89.91,0,0,0-3,11.38l-.49-.1,1.06-5a10.22,10.22,0,0,1,2.08-4.77,5,5,0,0,1,2.24-1.47,2.55,2.55,0,0,1,1.4-.07,1.46,1.46,0,0,1,1.08,1,2.61,2.61,0,0,1-.89,2.56,3.22,3.22,0,0,1-2.57.84l-1.87-.23,1.87-.26a13.7,13.7,0,0,0,3.75-.89,4.42,4.42,0,0,0,2.51-2.59l.46.19a10.85,10.85,0,0,0-.66,1.57c-.15.53-.39,1.12-.22,1.52a1.42,1.42,0,0,0,1.19.76,2.57,2.57,0,0,0,1.53-.29,2.14,2.14,0,0,0,1-1.11,1.76,1.76,0,0,0-.12-1.47,1.15,1.15,0,0,0-1.22-.58,1.1,1.1,0,0,0-1,.89l-.3-.27a18,18,0,0,0,5.51-2l.15-.09.06.16c.38,1,1.5,1.56,2,2.59a1.47,1.47,0,0,1,0,1.63c-.34.42-1.09.65-1.47.17.4.46,1.11.19,1.42-.22a1.38,1.38,0,0,0,0-1.51c-.51-1-1.64-1.44-2.15-2.54l.22.07a16.17,16.17,0,0,1-5.57,2.23l-.33.06,0-.33a1.59,1.59,0,0,1,1.38-1.34,1.65,1.65,0,0,1,1.73.82,2.28,2.28,0,0,1,.16,1.89A2.66,2.66,0,0,1,894,926.3a3.08,3.08,0,0,1-1.84.35,1.9,1.9,0,0,1-1.58-1.08,1.72,1.72,0,0,1,0-1c.07-.3.16-.57.25-.86a12.38,12.38,0,0,1,.69-1.64l.46.19a4.93,4.93,0,0,1-2.79,2.9,13.89,13.89,0,0,1-3.88.92v-.49a2.77,2.77,0,0,0,2.17-.72,2.12,2.12,0,0,0,.74-2c-.19-.71-1.13-.84-1.86-.59a4.48,4.48,0,0,0-2,1.32,9.73,9.73,0,0,0-2,4.55l-1.06,5-.49-.1a92,92,0,0,1,3-11.43l.45.21a11.57,11.57,0,0,1-3.72,3.58,1.94,1.94,0,0,1-1.37.42.94.94,0,0,1-.6-.58,2.35,2.35,0,0,1-.12-.71,11.8,11.8,0,0,1,.27-2.59l.49.13a8.38,8.38,0,0,1-1.24,2.55,3.06,3.06,0,0,1-1.13.92,1.74,1.74,0,0,1-1.46.07.93.93,0,0,1-.55-.53,1.07,1.07,0,0,1,0-.75,5.3,5.3,0,0,1,.74-1.21,7,7,0,0,1,1-1,1,1,0,0,1,.63-.3.66.66,0,0,1,.34.05A.23.23,0,0,1,877.59,922.14Z" transform="translate(-770.94 -852.05)"/><path class="cls-1" d="M894.47,918.56c0-.12,0-.2,0-.3l.13-.09.26-.19.25-.19.13-.1a2.43,2.43,0,0,1,.28.1c0,.12,0,.2,0,.3l-.13.09-.25.2-.26.19-.12.1C894.65,918.63,894.57,918.61,894.47,918.56Z" transform="translate(-770.94 -852.05)"/><path class="cls-1" d="M915.16,926.53a5.9,5.9,0,0,0,3.31-2.77,3.74,3.74,0,0,0,.4-1c.06-.34,0-.68-.29-.62s-.47.38-.7.65a5.13,5.13,0,0,0-.61.88,1.81,1.81,0,0,0-.08,1.86,1,1,0,0,0,.71.48,1.76,1.76,0,0,0,.94-.24,4.62,4.62,0,0,0,2.45-3.27l.08-.46.34.32a5.09,5.09,0,0,1,1.56,2.14,2.2,2.2,0,0,1,0,1.41,1.6,1.6,0,0,1-1,1l-2.29.64,2.1-1.1a17.34,17.34,0,0,0,4.87-3.49,8.23,8.23,0,0,0,2.32-5.32l.47.11a18.44,18.44,0,0,0-1.75,6.83,1.09,1.09,0,0,0,.66,1.2,2.43,2.43,0,0,0,1.57-.19c.52-.24,1-.6,1.51-.89a2.19,2.19,0,0,0,1.11-1.12.59.59,0,0,0-.18-.57c-.17-.13-.29-.12-.46,0a4.75,4.75,0,0,0-.82,1.46,1.52,1.52,0,0,0,.16,1.47,1.38,1.38,0,0,0,1.4.41,5.36,5.36,0,0,0,2.81-1.87,11.28,11.28,0,0,0,2-2.91l.11-.23.23.12a4.42,4.42,0,0,1,1.48,1.17,3.13,3.13,0,0,1,.68,1.78,2.37,2.37,0,0,1-.73,1.74,1.85,1.85,0,0,1-1.77.52l-.18-.06.15-.11a5.67,5.67,0,0,1,3.34-1,5.62,5.62,0,0,0-3.22,1.19l0-.16a1.6,1.6,0,0,0,1.51-.54,2,2,0,0,0,.56-1.52,3.43,3.43,0,0,0-2-2.53l.34-.11a12.13,12.13,0,0,1-2,3,5.84,5.84,0,0,1-3.09,2,1.91,1.91,0,0,1-1.88-.58,2,2,0,0,1-.24-1.94,5.06,5.06,0,0,1,.93-1.66.91.91,0,0,1,.55-.28.82.82,0,0,1,.6.22,1.08,1.08,0,0,1,.34,1.06,1.83,1.83,0,0,1-.56.87,4.8,4.8,0,0,1-.76.54c-.53.31-1,.67-1.59.94a2.88,2.88,0,0,1-1.93.2,1.38,1.38,0,0,1-.81-.69,2.08,2.08,0,0,1-.19-1,18.78,18.78,0,0,1,1.8-7l.5-1,0,1.15a8.78,8.78,0,0,1-2.45,5.65,17.79,17.79,0,0,1-5,3.6l-.18-.47a1.45,1.45,0,0,0,.75-1.8,4.77,4.77,0,0,0-1.44-1.91l.42-.14a5.12,5.12,0,0,1-2.72,3.63,2.29,2.29,0,0,1-1.21.29,1.44,1.44,0,0,1-1.08-.71,2.09,2.09,0,0,1-.31-1.21,2.5,2.5,0,0,1,.39-1.16,5.36,5.36,0,0,1,.71-.92l.39-.41a1,1,0,0,1,.6-.33.59.59,0,0,1,.6.41,1.27,1.27,0,0,1,0,.64,3.74,3.74,0,0,1-.49,1A6,6,0,0,1,915.16,926.53Z" transform="translate(-770.94 -852.05)"/><path class="cls-1" d="M924.6,920.9c.33-.16.66-.27,1-.41l1-.16,2-.32,2-.32,1-.15c.36,0,.71,0,1.06.08-.32.16-.65.27-1,.41l-1,.16-2,.32-2.05.32-1,.16C925.31,921,925,921,924.6,920.9Z" transform="translate(-770.94 -852.05)"/><path class="cls-1" d="M957.58,925.56a6.49,6.49,0,0,0,3-1.65,2.58,2.58,0,0,0,.58-1.55,1.65,1.65,0,0,0-.64-1.43l.16,0a5.82,5.82,0,0,0-1.26,2.44,1.71,1.71,0,0,0,.22,1.24,1.43,1.43,0,0,0,1,.62,2.42,2.42,0,0,0,2.23-1.07,7.62,7.62,0,0,0,1.06-2.53l.14-.52.31.46a1,1,0,0,1,.13.71,2.13,2.13,0,0,1-.22.6,5.18,5.18,0,0,0-.46,1c-.17.59.39,1.16,1,1.32a1.62,1.62,0,0,0,1,0,2.5,2.5,0,0,0,.86-.54,7.08,7.08,0,0,0,1.27-1.75v.24a.94.94,0,0,0-1.22-.38l0-.47a5.74,5.74,0,0,0,5-1.16l.24.43a3.74,3.74,0,0,0-2.28,1.5,1.67,1.67,0,0,0-.14,1.25,1.13,1.13,0,0,0,.91.73,2.84,2.84,0,0,0,2.4-1.1,8.79,8.79,0,0,1,2.22-2.11l.46-.24-.1.51-.66,3.27-.39-.25,4.3-3,.42-.29,0,.51-.17,3.09-.21-.26a3.93,3.93,0,0,0,2.88-.89,7.2,7.2,0,0,0,2-2.46c1-1.92,1.34-4.14,2.46-6.11l1.2-2.12-.74,2.32-1.41,4.37-.7,2.19a4.87,4.87,0,0,0-.41,2.12,1,1,0,0,0,.49.74,1.64,1.64,0,0,0,1,.09,8.52,8.52,0,0,0,2.09-.73,9.65,9.65,0,0,0,3.44-2.8l.89-1.16-.45,1.39-1,3.19-.25-.33a6.8,6.8,0,0,0,2.17-.35,2.49,2.49,0,0,0,1.5-1.34,1.38,1.38,0,0,0-.33-1.75c-.51-.36-1.39-.32-1.62.23v-.2a1.21,1.21,0,0,0,1.13.62,2.87,2.87,0,0,0,1.46-.34,11.3,11.3,0,0,1,1.54-.65,2.44,2.44,0,0,1,3.08,3,2.46,2.46,0,0,1-2.76,1.55l-.2-.05.18-.11a9.4,9.4,0,0,1,4.92-1.33,9.17,9.17,0,0,0-4.83,1.48l0-.16a2.24,2.24,0,0,0,2.46-1.47,2.12,2.12,0,0,0-1.24-2.49,2,2,0,0,0-1.46,0,13.38,13.38,0,0,0-1.45.68,3.36,3.36,0,0,1-1.7.4,1.7,1.7,0,0,1-1.55-.94l0-.1,0-.1a1.37,1.37,0,0,1,1.1-.75,1.89,1.89,0,0,1,1.25.32,1.87,1.87,0,0,1,.51,2.36,3,3,0,0,1-1.79,1.61,7.18,7.18,0,0,1-2.32.38l-.36,0,.11-.34,1-3.2.44.23a10.17,10.17,0,0,1-3.62,3,9.49,9.49,0,0,1-2.23.77,2.12,2.12,0,0,1-1.28-.14,1.46,1.46,0,0,1-.75-1.1,5.3,5.3,0,0,1,.42-2.35l.7-2.19L986,915.7l.46.2C985.39,917.76,985,920,984,922a7.71,7.71,0,0,1-2.12,2.63,4.4,4.4,0,0,1-3.25,1l-.23,0v-.23l.17-3.09.39.22-4.29,3-.51.36.12-.61.65-3.28.36.27a8.35,8.35,0,0,0-2.07,2,3.32,3.32,0,0,1-2.85,1.25,1.62,1.62,0,0,1-1.3-1.05,2.14,2.14,0,0,1,.17-1.65,4.13,4.13,0,0,1,2.57-1.74l1.24-.42-1,.85a6.28,6.28,0,0,1-5.5,1.26l-.64-.16.59-.3a1.44,1.44,0,0,1,1.9.59l.06.12-.07.12A7.84,7.84,0,0,1,967,925a3,3,0,0,1-1,.64,2.21,2.21,0,0,1-2.32-.62,1.4,1.4,0,0,1-.31-1.27,5.06,5.06,0,0,1,.49-1.07c.17-.32.26-.61.12-.82l.45-.06a7.92,7.92,0,0,1-1.13,2.69,2.82,2.82,0,0,1-2.7,1.19,1.82,1.82,0,0,1-1.29-.84,2,2,0,0,1-.23-1.5,6,6,0,0,1,1.4-2.53l.07-.09.09.07a1.87,1.87,0,0,1,.67,1.63,2.62,2.62,0,0,1-.67,1.62A6.45,6.45,0,0,1,957.58,925.56Z" transform="translate(-770.94 -852.05)"/><path class="cls-1" d="M981.53,919c.39-.12.78-.2,1.17-.31l1.18-.07c.79-.06,1.57-.12,2.36-.2s1.56-.18,2.35-.28l1.17-.16,1.21.06c-.38.17-.76.29-1.14.43l-1.18.17c-.78.1-1.57.19-2.36.27s-1.58.15-2.37.21l-1.19.08C982.33,919.14,981.93,919.1,981.53,919Z" transform="translate(-770.94 -852.05)"/><path class="cls-1" d="M1005.07,924.66a1.3,1.3,0,0,1,.41.24,2.8,2.8,0,0,1,.13.41,2.42,2.42,0,0,1,0,.85,2.49,2.49,0,0,1-.25.8,2.85,2.85,0,0,1-.23.37,1.57,1.57,0,0,1-.46.12,3.83,3.83,0,0,0,.07-.43l.18-.28a2.13,2.13,0,0,0,.2-.65,1.94,1.94,0,0,0,0-.68c0-.11-.06-.21-.1-.32A4.28,4.28,0,0,0,1005.07,924.66Z" transform="translate(-770.94 -852.05)"/><path class="cls-1" d="M770.94,944.11a3.61,3.61,0,0,0,2-1.68,3.47,3.47,0,0,0,.38-2.51l.42.13a3.17,3.17,0,0,0-1.22,2.2c0,.81.67,1.66,1.46,1.47s1.31-1,1.7-1.82a6.88,6.88,0,0,1,.74-1.24,2.3,2.3,0,0,1,1.28-.86l.32-.06,0,.32-.16,3.41-.45-.15,2.1-3.12a3.78,3.78,0,0,1,.3-.41.62.62,0,0,1,.69-.2,1.2,1.2,0,0,1,.55,1,7,7,0,0,1,0,1.93c0,.28,0,.61.11.68s.29,0,.51-.18l1.36-1.29,2.72-2.6L786,939l.17.2a1.33,1.33,0,0,1,.3.94,2.7,2.7,0,0,1-.19.86,4.08,4.08,0,0,0-.37,1.5,1,1,0,0,0,.33.6,1.1,1.1,0,0,0,.72.19,3.53,3.53,0,0,0,1.52-.49,3.71,3.71,0,0,1-1.51.65,1.31,1.31,0,0,1-.86-.15,1.23,1.23,0,0,1-.51-.75,4.23,4.23,0,0,1,.23-1.69c.12-.51.25-1,0-1.33h.36l-2.73,2.6-1.37,1.3a1.59,1.59,0,0,1-.48.31.69.69,0,0,1-.68-.12,1.3,1.3,0,0,1-.29-1.1,6.16,6.16,0,0,0,0-1.82,2,2,0,0,0-.08-.4.42.42,0,0,0-.16-.22s-.05,0-.13.08a4.07,4.07,0,0,0-.25.35l-2.11,3.12-.5.74,0-.89.16-3.42.31.26c-.8.17-1.28,1-1.68,1.84a6.22,6.22,0,0,1-.77,1.24,2.36,2.36,0,0,1-1.29.84,1.59,1.59,0,0,1-1.49-.51,2.18,2.18,0,0,1-.56-1.45,3.71,3.71,0,0,1,1.38-2.58l.33-.31.09.45a3.69,3.69,0,0,1-.64,2.77A3.62,3.62,0,0,1,770.94,944.11Z" transform="translate(-770.94 -852.05)"/><path class="cls-1" d="M804.88,937.21c-.24.55-.48,1.1-.69,1.65-.09.29-.26.53-.37.8s-.23.54-.34.81l-.44-.23a31.24,31.24,0,0,0,2.28-3.75l.44-.84,0,1c.05,1.25.05,2.51,0,3.76,0,.63,0,1.26-.1,1.88s-.24,1.24-.4,1.85l-.08-1.88.08-1.86c0-1.25,0-2.49,0-3.73l.47.1a32.2,32.2,0,0,1-2.31,3.81l-1.19,1.68.76-1.92c.11-.28.22-.56.35-.83a6.15,6.15,0,0,1,.41-.81A14,14,0,0,1,804.88,937.21Z" transform="translate(-770.94 -852.05)"/><path class="cls-1" d="M811,936.93a2.45,2.45,0,0,0-1.2.4,4.09,4.09,0,0,0-.87.84,1.79,1.79,0,0,0-.11,2.14c.44.61,1.36.05,1.95-.46a3.73,3.73,0,0,0,1.18-2.11l.49.06L812.2,941a10.51,10.51,0,0,1-.19,1.57l-.31,1.57-.07-1.6a10.45,10.45,0,0,1,.07-1.58l.25-3.16.49.06a4.16,4.16,0,0,1-1.34,2.4,3.87,3.87,0,0,1-1.19.75,1.43,1.43,0,0,1-.78.09,1.22,1.22,0,0,1-.69-.43,2.26,2.26,0,0,1,.09-2.75A2.45,2.45,0,0,1,811,936.93Z" transform="translate(-770.94 -852.05)"/><path class="cls-1" d="M816.66,937.49c-.17.55-.37,1.09-.55,1.64l-.78,1.52-.43-.25,2.23-3.29.48-.71,0,.86c0,1,0,2,0,3,0,.51.11,1,.12,1.52v1.54c-.18-.49-.31-1-.44-1.49a11.32,11.32,0,0,1-.16-1.54c-.07-1-.09-2.05-.06-3.08l.45.14-2.23,3.29-.43-.25.78-1.53C816,938.43,816.3,938,816.66,937.49Z" transform="translate(-770.94 -852.05)"/><path class="cls-1" d="M820,936.74a4,4,0,0,1,1.15-.28,1.83,1.83,0,0,1,1.2.43,1.52,1.52,0,0,1,.42,1.24c0,.4-.08.76-.12,1.14l-.25,2.26a19,19,0,0,1-.3,2.25l-.26-.2c.33-.06.65-.12,1-.16l-.84.52-.25.16v-.36a19.12,19.12,0,0,1,.19-2.27l.24-2.25c0-.75.31-1.58-.15-2a1.74,1.74,0,0,0-.89-.34A5.48,5.48,0,0,0,820,936.74Z" transform="translate(-770.94 -852.05)"/><path class="cls-1" d="M821.49,940.59c.11-.14.23-.24.34-.36l.42-.13.83-.25.83-.25.42-.13c.16,0,.32.06.48.11a3.92,3.92,0,0,1-.34.37l-.41.12-.83.26-.83.25-.42.13A5,5,0,0,1,821.49,940.59Z" transform="translate(-770.94 -852.05)"/><path class="cls-1" d="M828.9,944.61a1.81,1.81,0,0,1,.33.2l.08.3a6,6,0,0,1,.1.61c0,.2,0,.41,0,.61l0,.31a2.44,2.44,0,0,1-.29.27c-.09-.11-.14-.22-.21-.32l0-.27a5,5,0,0,0,0-.55,4.85,4.85,0,0,0-.09-.55,2.68,2.68,0,0,0-.07-.27A3.23,3.23,0,0,1,828.9,944.61Z" transform="translate(-770.94 -852.05)"/><path class="cls-1" d="M844,939.27a3,3,0,0,0-2.23,1.65,1.45,1.45,0,0,0,1.25,1.91,1.35,1.35,0,1,0-.5-2.55l.12-.3c0,.15.29.23.58.2a6.37,6.37,0,0,0,.93-.21l1.92-.51,3.86-1,1.26-.33-1,.78a7.94,7.94,0,0,0-2.08,2.28,1.42,1.42,0,0,0-.22,1.29,1.1,1.1,0,0,0,1.14.48,3.9,3.9,0,0,0,1.44-.43,10.81,10.81,0,0,0,1.37-.76,11,11,0,0,0,2.38-2l.34.37a4,4,0,0,0-1,1,1.2,1.2,0,0,0-.12,1.18.82.82,0,0,0,1,.34,6.33,6.33,0,0,0,1.34-.53,2.17,2.17,0,0,0,1-.87,1,1,0,0,0,0-1.14,1.06,1.06,0,0,0-1.13-.26,3.14,3.14,0,0,0-1.21.64l-.23-.42a39.42,39.42,0,0,0,5.94-2,39.7,39.7,0,0,1-5.81,2.46l-1.07.35.84-.77a3.11,3.11,0,0,1,1.43-.76,1.55,1.55,0,0,1,1.63.42,1.51,1.51,0,0,1,.08,1.69,2.67,2.67,0,0,1-1.22,1.09,7.27,7.27,0,0,1-1.46.57,1.61,1.61,0,0,1-.87,0,1.16,1.16,0,0,1-.71-.59,1.73,1.73,0,0,1,.15-1.68,4.42,4.42,0,0,1,1.15-1.1l.33.36a11.75,11.75,0,0,1-2.48,2.13,13.37,13.37,0,0,1-1.43.8,4.35,4.35,0,0,1-1.62.47,2.36,2.36,0,0,1-.9-.12,1.26,1.26,0,0,1-.72-.64,1.9,1.9,0,0,1,.24-1.76,8.32,8.32,0,0,1,2.21-2.44l.21.45-3.85,1-1.92.51a5.68,5.68,0,0,1-1,.23,1.54,1.54,0,0,1-.59-.06.74.74,0,0,1-.5-.49l-.06-.21.18-.09a1.9,1.9,0,0,1,2.67,1.31,1.94,1.94,0,0,1-.47,1.57,1.66,1.66,0,0,1-1.54.59,2,2,0,0,1-1.32-.92,1.67,1.67,0,0,1-.08-1.55A3.12,3.12,0,0,1,844,939.27Z" transform="translate(-770.94 -852.05)"/><path class="cls-1" d="M860.45,938.46c-.15.75-.33,1.48-.51,2.22l-.75,2.14-.48-.14a7.91,7.91,0,0,1,1.47-3,3.39,3.39,0,0,1,1.33-1.14,1.41,1.41,0,0,1,1,0,1,1,0,0,1,.71.73,1.28,1.28,0,0,1-.18,1,3.76,3.76,0,0,1-.54.68c-.35.35-.64.86-.53,1.2a.58.58,0,0,0,.46.32,8.15,8.15,0,0,1,.77.3l1.51.64-1.62-.28a7.1,7.1,0,0,1-.8-.17,1.12,1.12,0,0,1-.79-.64,1.34,1.34,0,0,1,.11-1,2.83,2.83,0,0,1,.52-.73c.36-.37.71-.82.61-1.18a.76.76,0,0,0-1-.38,2.87,2.87,0,0,0-1.12,1,7.2,7.2,0,0,0-1.37,2.82l-.48-.14.74-2.14C859.79,939.83,860.1,939.14,860.45,938.46Z" transform="translate(-770.94 -852.05)"/><path class="cls-1" d="M866,938.78a11.27,11.27,0,0,0-.71,3.92l-.35,0a6.14,6.14,0,0,1,.52-2,6.94,6.94,0,0,1,1.19-1.75,2,2,0,0,1,1-.62,1,1,0,0,1,1.12.61.83.83,0,0,1-.14.7c-.13.17-.26.28-.35.4a.94.94,0,0,0-.2.76,1.44,1.44,0,0,0,1.15,1.17,3,3,0,0,0,1.83-.31,4.84,4.84,0,0,0,2.48-2.86l0,.2c-.08-.22-.5-.14-.83.09a3.13,3.13,0,0,0-.8.92,1.52,1.52,0,0,0-.23,1.1.81.81,0,0,0,.68.69,1.88,1.88,0,0,0,1.1-.38,10.88,10.88,0,0,0,1.08-.74,11.62,11.62,0,0,0,1.87-1.84l.45-.56v.71c0,.92-.56,1.59-.49,2.26a.77.77,0,0,0,.43.72,1.17,1.17,0,0,0,.92-.16,9.34,9.34,0,0,0,1.78-1.41,12.33,12.33,0,0,0,1.5-1.73l.4-.55.06.67a3.49,3.49,0,0,1-.43,1.64,1.67,1.67,0,0,0,0,1.43,1.52,1.52,0,0,0,1.16.87,1.7,1.7,0,0,0,1.44-.49,1.74,1.74,0,0,1-1.46.62,1.72,1.72,0,0,1-1.38-.87,2,2,0,0,1-.13-1.69,4.24,4.24,0,0,0,.32-1.45l.45.12a13.33,13.33,0,0,1-1.57,1.79,10.07,10.07,0,0,1-1.89,1.5,1.65,1.65,0,0,1-1.32.17,1.24,1.24,0,0,1-.76-1.15c-.05-.92.53-1.61.49-2.28l.45.15a11.49,11.49,0,0,1-2,1.92,9.85,9.85,0,0,1-1.13.78,2.31,2.31,0,0,1-1.41.45,1.34,1.34,0,0,1-1.11-1.08,2,2,0,0,1,.29-1.46,3.65,3.65,0,0,1,.95-1.09,1.63,1.63,0,0,1,.73-.29.77.77,0,0,1,.82.38l0,.1,0,.1a5.32,5.32,0,0,1-2.75,3.15,3.41,3.41,0,0,1-2.14.35,1.94,1.94,0,0,1-1.54-1.58,1.41,1.41,0,0,1,.31-1.16c.26-.29.46-.49.39-.64a.49.49,0,0,0-.54-.26,1.5,1.5,0,0,0-.71.48,5.83,5.83,0,0,0-1.11,1.62,7,7,0,0,0-.62,1.87l-.35,0A11.47,11.47,0,0,1,866,938.78Z" transform="translate(-770.94 -852.05)"/><path class="cls-1" d="M898.05,940c0-.27-.25-.35-.45-.36a1.32,1.32,0,0,0-.63.13c-.21.1-.43.2-.63.31s-.41.18-.6.3a1.81,1.81,0,0,0-.83.9,1.17,1.17,0,0,0,.05,1.11c.44.65,1.53.35,2.13-.21s1.14-1.49,2.11-2l.82-.4-.51.77a1.8,1.8,0,0,0,.45,2.34,1.39,1.39,0,0,0,.59.24,1.88,1.88,0,0,0,.67.1,1.94,1.94,0,0,0,1.29-.56,1.93,1.93,0,0,1-1.24.9,2,2,0,0,1-.82.06,2.24,2.24,0,0,1-.78-.33,2.29,2.29,0,0,1-.58-3l.32.37c-.78.36-1.25,1.2-2,1.88a2.91,2.91,0,0,1-1.37.68,1.48,1.48,0,0,1-1.5-.56,2,2,0,0,1,.94-2.73,4.17,4.17,0,0,1,.67-.33l.7-.17a1.67,1.67,0,0,1,.77,0C897.86,939.51,898.15,939.76,898.05,940Z" transform="translate(-770.94 -852.05)"/><path class="cls-1" d="M919.66,935.23c0,.4-.1.78-.14,1.16l-.36,1.08c-.23.73-.43,1.46-.62,2.19s-.35,1.48-.5,2.23l-.2,1.12c-.15.36-.27.72-.42,1.09,0-.39,0-.78-.08-1.18l.21-1.13c.15-.75.32-1.5.5-2.25s.4-1.48.63-2.22l.36-1.09C919.24,935.89,919.43,935.55,919.66,935.23Z" transform="translate(-770.94 -852.05)"/><path class="cls-1" d="M919.11,936.07a2.57,2.57,0,0,1,3.73.43,2.64,2.64,0,0,1-1.08,3.72l-.12-.27a1.45,1.45,0,0,1,1.64.37,2.09,2.09,0,0,1,.65,1.58,3.34,3.34,0,0,1-.56,1.6,9.24,9.24,0,0,1-1,1.28l-.24-.41a8.86,8.86,0,0,0,4.09-2.13,8,8,0,0,0,.81-.84c.27-.29.42-.59.25-.7-.46-.45-1.28-.12-1.62.51a1.49,1.49,0,0,0-.24,1,1.45,1.45,0,0,0,.52.85,2.53,2.53,0,0,0,2.06.45,3.64,3.64,0,0,0,1.9-1.13,11.38,11.38,0,0,0,1.38-1.88l.31.36a1.32,1.32,0,0,0-.43,1.78,1.35,1.35,0,0,0,.69.72,1.88,1.88,0,0,0,1,.12,2.92,2.92,0,0,0,1.81-1.2,2,2,0,0,0,.28-2l.18.12a1.84,1.84,0,0,0-1.7.71l-.23-.39,4.84-.65.68-.09-.46.51a4.78,4.78,0,0,0-.8,1.19,2,2,0,0,0-.21,1.3.9.9,0,0,0,.93.61,2.8,2.8,0,0,0,1.3-.44,2.3,2.3,0,0,0,.91-1,1.44,1.44,0,0,0-.07-1.25.85.85,0,0,0-1-.46c-.39.1-.72.49-.63.83l-.25-.2c2.54-.15,5.17-.32,7.38-1.56a6.7,6.7,0,0,0,2.6-2.6,4.52,4.52,0,0,0,.48-3.53l.39.13a10.52,10.52,0,0,0-4.39,8.36A10,10,0,0,0,945,943a3,3,0,0,0,.25,1.08c.14.21.47.14.81-.06s.68-.46,1-.7a23.21,23.21,0,0,0,3.68-3.32l.35.35c-.6.52-1.2,1.11-1.2,1.78a1.1,1.1,0,0,0,.41.87.77.77,0,0,0,.9-.1,22.06,22.06,0,0,0,1.9-1.48c.61-.53,1.2-1.08,1.76-1.66l.15.18a3,3,0,0,0-1.12,1.18,2,2,0,0,0-.17,1.59,1.42,1.42,0,0,0,1.3.86,1.13,1.13,0,0,0,1.28-.85,1.16,1.16,0,0,1-1.28.91,1.5,1.5,0,0,1-1.41-.88,2.09,2.09,0,0,1,.12-1.71,3.21,3.21,0,0,1,1.15-1.3l.78-.51L955,940c-.54.6-1.12,1.18-1.72,1.74a24.14,24.14,0,0,1-1.88,1.58,1.62,1.62,0,0,1-.64.28,1,1,0,0,1-.73-.15,1.51,1.51,0,0,1-.66-1.22,3,3,0,0,1,1.36-2.17l.35.35a23.76,23.76,0,0,1-3.75,3.4c-.35.25-.68.48-1.06.72a1.72,1.72,0,0,1-.68.25.82.82,0,0,1-.78-.32,3,3,0,0,1-.34-1.32,9.29,9.29,0,0,1-.06-1.29,11,11,0,0,1,4.59-8.76l.28-.19.1.32a5.06,5.06,0,0,1-.52,3.92,7.22,7.22,0,0,1-2.79,2.8,11.63,11.63,0,0,1-3.73,1.24,36.46,36.46,0,0,1-3.87.38h-.22l0-.2a1.27,1.27,0,0,1,1-1.42,1.23,1.23,0,0,1,.92.07,1.55,1.55,0,0,1,.64.63,2,2,0,0,1,.09,1.69,2.74,2.74,0,0,1-1.11,1.22,3.18,3.18,0,0,1-1.55.52,1.42,1.42,0,0,1-1.42-1,2.4,2.4,0,0,1,.24-1.64,5.13,5.13,0,0,1,.88-1.33l.22.42-4.85.64-.58.08.35-.47a2.35,2.35,0,0,1,2.17-.92l.13,0,0,.11a2.46,2.46,0,0,1-.29,2.55,3.39,3.39,0,0,1-2.14,1.41,2.37,2.37,0,0,1-1.34-.15,1.86,1.86,0,0,1-1-1,2.17,2.17,0,0,1-.16-1.33,1.53,1.53,0,0,1,.85-1.11l.75-.33-.43.69a11.89,11.89,0,0,1-1.45,2,4.17,4.17,0,0,1-2.17,1.27,3,3,0,0,1-2.47-.55,1.93,1.93,0,0,1-.69-1.17,2,2,0,0,1,.3-1.31,2,2,0,0,1,1-.86,1.36,1.36,0,0,1,1.38.26.74.74,0,0,1,.15.82,2.26,2.26,0,0,1-.38.57,7.84,7.84,0,0,1-.85.88,9.37,9.37,0,0,1-4.32,2.25l-.79.17.55-.59a4.69,4.69,0,0,0,1.54-2.57,1.67,1.67,0,0,0-.49-1.3,1.11,1.11,0,0,0-1.27-.35l-.12-.27a2.42,2.42,0,0,0,1.08-3.37A2.5,2.5,0,0,0,919.11,936.07Z" transform="translate(-770.94 -852.05)"/><path class="cls-1" d="M960,939.57a8.36,8.36,0,0,0-1.09.63,5.63,5.63,0,0,0-1,.6,5.38,5.38,0,0,0-.9.82c-.28.29-.44.6-.34.87a1.09,1.09,0,0,0,.81.54,1.46,1.46,0,0,0,1.06-.15,10,10,0,0,0,1.05-.65,3.4,3.4,0,0,1,1.28-.32,3.93,3.93,0,0,0-1,.74,10.36,10.36,0,0,1-1.1.68,2,2,0,0,1-1.38.19,1.53,1.53,0,0,1-1.17-.85,1.13,1.13,0,0,1,0-.81,2.31,2.31,0,0,1,.41-.58,6.76,6.76,0,0,1,1-.88,6.41,6.41,0,0,1,1.13-.66A4.89,4.89,0,0,1,960,939.57Z" transform="translate(-770.94 -852.05)"/><path class="cls-1" d="M957.77,943.6a2.17,2.17,0,0,1,.47.39,5.29,5.29,0,0,1,.15.57,3.42,3.42,0,0,1,0,1.15,3.49,3.49,0,0,1-.41,1.07,3.19,3.19,0,0,1-.35.47,2,2,0,0,1-.58.19,5.15,5.15,0,0,0,.21-.52,3.69,3.69,0,0,0,.29-.4,2.74,2.74,0,0,0,.36-1.88,3.59,3.59,0,0,0-.12-.47A5.41,5.41,0,0,0,957.77,943.6Z" transform="translate(-770.94 -852.05)"/><path class="cls-1" d="M963.89,939.81a3.71,3.71,0,0,0-2.35,1.29,1.59,1.59,0,0,0-.41,1.13c0,.37.36.58.76.68a2.94,2.94,0,0,0,2.39-.7A3,3,0,0,0,965.4,940v-.48l.4.28a.79.79,0,0,1,.27.79,1.35,1.35,0,0,1-.31.66c-.28.33-.58.59-.62.86a.72.72,0,0,0,.48.69,1.12,1.12,0,0,0,1,0,9.9,9.9,0,0,0,1.85-1.43l1.82-1.59.32.38a4.4,4.4,0,0,0-1,1,1.26,1.26,0,0,0-.13,1.21.76.76,0,0,0,1,.4,7.26,7.26,0,0,0,1.39-.44,2.08,2.08,0,0,0,1-.85,1.26,1.26,0,0,0,0-1.22,1.21,1.21,0,0,0-1-.65,1.35,1.35,0,0,0-1.11.52l-.08.08s0,0,0-.12,0,0,0,0a.5.5,0,0,0,.22.1,2.59,2.59,0,0,0,.63-.09l1.46-.25,2.92-.51-2.85.81-1.43.4a2.05,2.05,0,0,1-.82.14,1.16,1.16,0,0,1-.45-.21.52.52,0,0,1-.19-.3.42.42,0,0,1,.22-.41l-.08.08a1.78,1.78,0,0,1,1.53-.72,1.68,1.68,0,0,1,1.44.9,1.78,1.78,0,0,1,0,1.69,2.58,2.58,0,0,1-1.26,1.08,8.14,8.14,0,0,1-1.5.47,1.6,1.6,0,0,1-.89,0,1.24,1.24,0,0,1-.66-.65,1.75,1.75,0,0,1,.16-1.69,5,5,0,0,1,1.12-1.13l.32.38-1.82,1.6a9.93,9.93,0,0,1-2,1.51c-.76.44-2.2,0-2.13-1.18a2.39,2.39,0,0,1,.73-1.11c.21-.24.27-.65.12-.73l.4-.19a3.62,3.62,0,0,1-4.11,3.42,1.52,1.52,0,0,1-.75-.35,1.11,1.11,0,0,1-.35-.78,2,2,0,0,1,.63-1.38A3.78,3.78,0,0,1,963.89,939.81Z" transform="translate(-770.94 -852.05)"/><path class="cls-1" d="M964.16,936.48c.18-.09.35-.15.52-.22h.51c.33,0,.67,0,1,0a8.27,8.27,0,0,0,1-.12l.5-.09c.18,0,.36.08.55.14a5.07,5.07,0,0,1-.45.36l-.52.09c-.34,0-.69.09-1,.12s-.69,0-1,0h-.52A4.29,4.29,0,0,1,964.16,936.48Z" transform="translate(-770.94 -852.05)"/><path class="cls-1" d="M988.56,936.41c0,.3,0,.59,0,.88s-.14.54-.2.81c-.12.55-.23,1.1-.31,1.65s-.15,1.1-.19,1.66l0,.84c-.1.27-.17.55-.27.83-.1-.28-.16-.57-.23-.85l0-.86c0-.57.11-1.13.2-1.7s.19-1.12.31-1.68l.2-.83C988.24,936.91,988.38,936.65,988.56,936.41Z" transform="translate(-770.94 -852.05)"/><path class="cls-1" d="M988,937.1a2.17,2.17,0,0,1,3.18.59,2.26,2.26,0,0,1-1.28,3.12l-1.49.49,1.35-.82a2.5,2.5,0,0,1,2.7.17,2.29,2.29,0,0,1,.84,1.16c.14.47.17.9.3,1.26s.37.52.7.4a3.81,3.81,0,0,0,1-.66,5.82,5.82,0,0,0,1.49-2l.44.24a2.61,2.61,0,0,0-.5,1.53.91.91,0,0,0,1,.83,1.61,1.61,0,0,0,1.31-.75,5.62,5.62,0,0,0,.71-1.57l.47.18a7.45,7.45,0,0,0-.63,2.71l-.15-.24c.8.35,1.73-.3,2.33-1a7.06,7.06,0,0,1,2.19-2.2,2,2,0,0,1,1.68,0,2.12,2.12,0,0,1,1.11,1.24,2,2,0,0,1-1.69,2.56l-1.32.16,1.17-.63,5.73-3.08a2.47,2.47,0,0,1,.84-.29.92.92,0,0,1,1.11,1.28,4.38,4.38,0,0,1-.37.79,4.15,4.15,0,0,1-2.76,1.92l-.51.09.25-.46a1.82,1.82,0,0,1,1-.81,5.45,5.45,0,0,1,1.16-.24,7.31,7.31,0,0,0,2.14-.47,6.8,6.8,0,0,0,3.3-2.73l.37.32a9.17,9.17,0,0,0-1.47,1.64,1.67,1.67,0,0,0-.38.88c0,.25.22.39.51.31.63-.13,1.11-.78,1.69-1.27l1.69-1.53.92-.83-.61,1.07a3.91,3.91,0,0,0-.58,1.76,1.17,1.17,0,0,0,.26.82,1.11,1.11,0,0,0,.8.34c.63,0,1.29-.11,1.93-.16l1.95-.21-1.93.31c-.66.08-1.28.24-2,.26a1.33,1.33,0,0,1-1-.37,1.41,1.41,0,0,1-.38-1,4.38,4.38,0,0,1,.53-2l.31.24-1.62,1.6-.82.78a2.55,2.55,0,0,1-1.1.62,1,1,0,0,1-.74-.1.85.85,0,0,1-.38-.67,2,2,0,0,1,.47-1.19,9.21,9.21,0,0,1,1.56-1.74l1.23-1.06-.86,1.38a7.28,7.28,0,0,1-3.54,2.94,8.11,8.11,0,0,1-2.26.5c-.72.08-1.48.23-1.77.79l-.27-.37a3.7,3.7,0,0,0,2.43-1.68c.23-.41.5-1,.28-1.21s-.8-.1-1.21.13l-5.72,3.08-.15-.47a1.5,1.5,0,1,0-.83-2.84,6.67,6.67,0,0,0-2,2.07,4.4,4.4,0,0,1-1.24,1,1.91,1.91,0,0,1-1.67.12l-.15-.08V944a8,8,0,0,1,.67-2.89l.46.18a6.16,6.16,0,0,1-.77,1.7,2.15,2.15,0,0,1-1.71,1,1.57,1.57,0,0,1-1-.33,1.38,1.38,0,0,1-.49-1,3.15,3.15,0,0,1,.57-1.85l.44.24a6.21,6.21,0,0,1-1.62,2.15,4.22,4.22,0,0,1-1.17.76,1,1,0,0,1-.84-.06,1.2,1.2,0,0,1-.48-.65c-.17-.45-.2-.91-.32-1.28a1.83,1.83,0,0,0-.66-.9,2.09,2.09,0,0,0-2.22-.27l-.14-.33a2,2,0,0,0,1.22-2.69A2.09,2.09,0,0,0,988,937.1Z" transform="translate(-770.94 -852.05)"/><path class="cls-1" d="M1028.43,943.56c-.09,0-.17-.06-.24,0a.2.2,0,0,0,.1.13h.06s0,0,.06,0a.18.18,0,0,0,.06-.16c-.09,0-.16,0-.23.06a.21.21,0,0,1-.27,0,.33.33,0,0,1,.09-.24.38.38,0,0,1,.22-.1.32.32,0,0,1,.24,0,.31.31,0,0,1,.16.19A.2.2,0,0,1,1028.43,943.56Z" transform="translate(-770.94 -852.05)"/></svg>