<svg id="Camada_1" data-name="Camada 1" xmlns="http://www.w3.org/2000/svg" viewBox="0 0 282.63 60.6"><defs><style>.cls-1{fill:#1d1d1b;}</style></defs><title>pagina2_nota3</title><path class="cls-1" d="M770.43,871.49A12.54,12.54,0,0,0,770,874a10.72,10.72,0,0,0-.08,2.53,4.49,4.49,0,0,0,.84,2.28,1.91,1.91,0,0,0,.9.7,1.5,1.5,0,0,0,1.08-.07,3.11,3.11,0,0,0,1.37-1.9,24.47,24.47,0,0,0,.61-2.49c.17-.84.31-1.69.43-2.55s.34-1.7.49-2.55c.05.87,0,1.74,0,2.62s-.25,1.72-.43,2.58a23.88,23.88,0,0,1-.63,2.56,3.51,3.51,0,0,1-1.63,2.18,2,2,0,0,1-1.45.09,2.53,2.53,0,0,1-1.14-.86,5.05,5.05,0,0,1-.94-2.54,11.27,11.27,0,0,1,.08-2.66A10.6,10.6,0,0,1,770.43,871.49Z" transform="translate(-758.49 -869.4)"/><path class="cls-1" d="M775.77,876.61c-.08-.63.64-1.09,1.24-1a1.48,1.48,0,0,1,1.07,1.41,4.68,4.68,0,0,1-.4,1.77c-.18.54-.27,1.11.08,1.39l-.41.1a11.75,11.75,0,0,1,3.26-4.56l.37-.31,0,.47.35,4.22-.38-.2A8.26,8.26,0,0,0,784.3,876l.12-.3.26.19a1.83,1.83,0,0,1,.62,1.47c0,.51-.08,1,0,1.4a1.33,1.33,0,0,0,.5,1,1,1,0,0,0,1.06-.23c.71-.56,1.43-1.23,2.14-1.84l2.15-1.88.29-.24.12.37a.82.82,0,0,1-.33.85,3,3,0,0,1-.64.37,1.84,1.84,0,0,0-1,.73,2,2,0,0,0,0,2.26l-.3-.06a8.1,8.1,0,0,0,4-4.39l.54-1.44-.06,1.55c0,.64-.07,1.28-.14,1.93l-.09,1c0,.33-.08.65.06.83s.49.19.8.18a6.17,6.17,0,0,0,1-.12,5.68,5.68,0,0,0,1.79-.69,6,6,0,0,1-1.76.84,5.24,5.24,0,0,1-1,.18,1.19,1.19,0,0,1-1-.2,1.49,1.49,0,0,1-.2-1v-1c0-.64,0-1.29.08-1.93l.49.1a8.62,8.62,0,0,1-4.25,4.66l-.18.08-.12-.15a2.48,2.48,0,0,1,0-2.86,2.37,2.37,0,0,1,1.17-.9c.4-.17.79-.43.7-.64l.4.12-2.15,1.88c-.73.62-1.4,1.25-2.18,1.87a2.07,2.07,0,0,1-.71.36,1.29,1.29,0,0,1-.88-.1,1.74,1.74,0,0,1-.75-1.42c-.06-.52,0-1,0-1.44a1.34,1.34,0,0,0-.42-1.08l.38-.11a8.58,8.58,0,0,1-3.51,4.15l-.34.21,0-.41-.35-4.17.41.16a11,11,0,0,0-3.11,4.36l-.13.34-.28-.25a1.16,1.16,0,0,1-.36-1,3.21,3.21,0,0,1,.25-.91,4.48,4.48,0,0,0,.51-1.62,1.26,1.26,0,0,0-.83-1.28A1,1,0,0,0,775.77,876.61Z" transform="translate(-758.49 -869.4)"/><path class="cls-1" d="M817.08,875.8a3,3,0,0,0-3,2.7,1.29,1.29,0,0,0,.33,1,.8.8,0,0,0,.88.15,3.08,3.08,0,0,0,1.37-1.57,37.53,37.53,0,0,0,3-8.62l.49.12-1.19,4.61a12.14,12.14,0,0,0-.58,4.59,1.28,1.28,0,0,0,.41.87,1,1,0,0,0,.9-.06,5.89,5.89,0,0,0,1.83-1.34c.51-.55.93-1.24,1.46-1.87a3.82,3.82,0,0,1,.94-.84,2,2,0,0,1,1.3-.3l.29,0-.08.27c-.36,1.17-1.4,1.73-2.15,2.36a3.34,3.34,0,0,0-.93,1.07,1.72,1.72,0,0,0-.12.63c0,.2.11.37.22.38a1.3,1.3,0,0,0,.61-.11,5.65,5.65,0,0,0,.67-.29,5,5,0,0,0,1.18-.87,4.78,4.78,0,0,0,1.37-2.54l.28-1.53.21,1.53c.12.84-.24,1.56-.16,2.19a1.22,1.22,0,0,0,.36.8.7.7,0,0,0,.78,0c1.24-.59,1.73-2.1,2.78-3.22a2.67,2.67,0,0,1,2.13-.95,2.1,2.1,0,0,1,1.14.45,1.41,1.41,0,0,1,.53,1.16,3.84,3.84,0,0,1-1,2.06,4.89,4.89,0,0,1-1.87,1.25l-.49.18.35-.38a3.64,3.64,0,0,1,4.13-.78,3.52,3.52,0,0,0-4,1l-.13-.2a4.54,4.54,0,0,0,1.68-1.26,3.43,3.43,0,0,0,.84-1.83,1.2,1.2,0,0,0-1.23-1.1,2.12,2.12,0,0,0-1.72.8c-1,1-1.43,2.57-2.94,3.33a1.19,1.19,0,0,1-1.29-.1,1.71,1.71,0,0,1-.55-1.13c-.07-.85.28-1.54.17-2.17h.49a5.43,5.43,0,0,1-2.81,3.77,5,5,0,0,1-.75.32,1.62,1.62,0,0,1-.89.12.89.89,0,0,1-.59-.82,2,2,0,0,1,.17-.87,3.56,3.56,0,0,1,1.07-1.26c.8-.65,1.72-1.21,2-2.1l.21.32a2.12,2.12,0,0,0-1.8,1c-.5.58-.91,1.27-1.47,1.88a6.12,6.12,0,0,1-2,1.45,1.38,1.38,0,0,1-1.38,0,1.74,1.74,0,0,1-.63-1.2,12.59,12.59,0,0,1,.6-4.79l1.18-4.62.49.11a38.55,38.55,0,0,1-3,8.74,3.39,3.39,0,0,1-1.7,1.72,1.17,1.17,0,0,1-1.24-.29,1.54,1.54,0,0,1-.36-1.18A3.07,3.07,0,0,1,817.08,875.8Z" transform="translate(-758.49 -869.4)"/><path class="cls-1" d="M852.87,875.09a1.13,1.13,0,0,1,1.32.36,2.3,2.3,0,0,1,.6,1.33c.09,1-.16,2,.23,2.77l-.39,0a14.14,14.14,0,0,1,2.14-4.29l.11-.15.18.06a1.14,1.14,0,0,1,.63.57,2,2,0,0,1,.16.76,6.39,6.39,0,0,1-.19,1.38,2.07,2.07,0,0,0,.17,1.17.47.47,0,0,0,.77.15,5.43,5.43,0,0,0,.77-1l.75-1.13,1.5-2.26.27-.4.17.45a4.74,4.74,0,0,1,0,3.55,2.15,2.15,0,0,0-.16.74.41.41,0,0,0,.31.39,1.84,1.84,0,0,0,1.28-.67l2.48-2.42a5.39,5.39,0,0,1,1.41-1.13,1.4,1.4,0,0,1,1.85.49l.17.31-.36,0a4.16,4.16,0,0,0-2.33,1.15,2.89,2.89,0,0,0-.72,1c-.11.34.1.62.5.71a2.65,2.65,0,0,0,2.31-.84,4.5,4.5,0,0,0,1.39-2.21l.49.08a4,4,0,0,0,.3,2.41,1.9,1.9,0,0,0,.86.73,1.08,1.08,0,0,0,1-.14,3.44,3.44,0,0,0,1-2.22,3.07,3.07,0,0,1,1.23-2.26,3,3,0,0,0-1,2.29,3.65,3.65,0,0,1-1,2.48,1.56,1.56,0,0,1-1.43.29,2.07,2.07,0,0,1-1.14-.91,4.45,4.45,0,0,1-.37-2.71l.49.08a5,5,0,0,1-1.54,2.47,4.82,4.82,0,0,1-1.23.8,2.43,2.43,0,0,1-1.53.15,1.32,1.32,0,0,1-.73-.46,1.07,1.07,0,0,1-.14-.88,3.36,3.36,0,0,1,.86-1.25,4.73,4.73,0,0,1,2.61-1.29l-.19.36a.93.93,0,0,0-1.2-.26,5.2,5.2,0,0,0-1.26,1l-2.48,2.41a3.52,3.52,0,0,1-.73.58,1.53,1.53,0,0,1-1,.23.92.92,0,0,1-.72-.85,2.5,2.5,0,0,1,.19-.94,4.32,4.32,0,0,0,0-3.2l.44.05-1.5,2.26-.76,1.13a5,5,0,0,1-.87,1.13,1,1,0,0,1-1.52-.3,2.45,2.45,0,0,1-.22-1.47,6.42,6.42,0,0,0,.18-1.31c0-.41-.14-.77-.46-.87l.29-.09A18.26,18.26,0,0,0,855,879.7l-.19.49-.19-.47a3.41,3.41,0,0,1-.15-1.51,13.74,13.74,0,0,0,.1-1.42,2.2,2.2,0,0,0-.48-1.28A1.08,1.08,0,0,0,852.87,875.09Z" transform="translate(-758.49 -869.4)"/><path class="cls-1" d="M874.69,875.34a4,4,0,0,1,1.39-.48,1.16,1.16,0,0,1,1.29.65,1.37,1.37,0,0,1-.44,1.45,4.32,4.32,0,0,1-1.25.87l.11-.23a1.44,1.44,0,0,0,1.42.83,2.74,2.74,0,0,0,1.73-.54c1-.77,1.66-2,2.82-2.9l.31.4a8.42,8.42,0,0,0-1.13,1.18,5,5,0,0,0-.82,1.37c-.16.48-.15,1,.21,1.24a1.64,1.64,0,0,0,1.39-.09,7.46,7.46,0,0,0,2.34-2.22,5.13,5.13,0,0,1,2.82-2l1.55-.28-1.39.75a9.47,9.47,0,0,0-2.25,1.67,2.67,2.67,0,0,0-.72,1.08.93.93,0,0,0,.31,1c.28.22.64.06,1-.23a9.24,9.24,0,0,0,1.06-.91,8.93,8.93,0,0,0,1.65-2.26l.75-1.48-.28,1.63c-.19,1.09-1,1.88-1,2.76a1.48,1.48,0,0,0,.38,1.16.94.94,0,0,0,1.11,0,5.54,5.54,0,0,0,2.67-4.73v-.36l.33.12a3.25,3.25,0,0,1,2.14,3.12,3.28,3.28,0,0,1-.7,1.84,2.34,2.34,0,0,1-.76.66,1.09,1.09,0,0,1-.54.07.55.55,0,0,1-.28-.13.35.35,0,0,1-.1-.34v-.07l0,0a12.77,12.77,0,0,1,3.84-1.14,12.51,12.51,0,0,0-3.72,1.37l.07-.1c0,.17.33.19.54.07a2.11,2.11,0,0,0,.59-.6,2.85,2.85,0,0,0,.51-1.62,2.68,2.68,0,0,0-.49-1.6,2.76,2.76,0,0,0-1.32-1l.33-.23a6,6,0,0,1-2.93,5.17,1.84,1.84,0,0,1-.82.25,1.2,1.2,0,0,1-.86-.3,1.88,1.88,0,0,1-.54-1.56c.12-1.14.89-1.91,1-2.81l.47.15a9.27,9.27,0,0,1-2.86,3.35,2.33,2.33,0,0,1-.7.39,1,1,0,0,1-.9-.15,1.44,1.44,0,0,1-.5-1.56,3,3,0,0,1,.85-1.3,9.69,9.69,0,0,1,2.36-1.76l.16.46a4.63,4.63,0,0,0-2.51,1.87,8,8,0,0,1-2.53,2.36,3,3,0,0,1-.89.24,1.49,1.49,0,0,1-1-.19,1.19,1.19,0,0,1-.53-.88,2.26,2.26,0,0,1,.12-.94,5.14,5.14,0,0,1,.9-1.52,7.83,7.83,0,0,1,1.19-1.25l.31.39c-1,.75-1.67,2-2.8,2.89a3.2,3.2,0,0,1-2.06.64,1.86,1.86,0,0,1-1.77-1.21l0-.18.15-.06a4,4,0,0,0,1.2-.72,1.17,1.17,0,0,0,.47-1.18,1,1,0,0,0-1.11-.63A4,4,0,0,0,874.69,875.34Z" transform="translate(-758.49 -869.4)"/><path class="cls-1" d="M915.07,876.35a4.73,4.73,0,0,0-2.62,2.36,1.6,1.6,0,0,0,.35,1.62,2.24,2.24,0,0,0,1.6.56,5.55,5.55,0,0,0,3.22-1.33,7.8,7.8,0,0,0,2.21-2.73l.31.35a1.83,1.83,0,0,0-1,2.16,1.4,1.4,0,0,0,.78.93,1.88,1.88,0,0,0,2.28-.76,1.38,1.38,0,0,0,.06-1.22,1.82,1.82,0,0,0-2.1-1.12l0-.49a6.18,6.18,0,0,0,4.6-1.24l.28-.23.11.35a7.23,7.23,0,0,1,0,4.27l-.43-.23a21.84,21.84,0,0,1,4.83-4.17l.42-.27,0,.5-.36,4.62-.46-.15a10.09,10.09,0,0,1,4.07-3.51l.73-.35-.41.7a3.23,3.23,0,0,0-.66,2.33,1.27,1.27,0,0,0,.66.86,1.05,1.05,0,0,0,1-.19,6.51,6.51,0,0,0,.94-.89l.93-1,1.84-1.93.65-.68-.21.9-.88,3.71-.23-.31a3.77,3.77,0,0,0,3.81-2.87l.07-.32.28.15a.78.78,0,0,1,.38.4.88.88,0,0,1,0,.51,3.57,3.57,0,0,1-.3.74c-.21.44-.43.89-.27,1.2a1.2,1.2,0,0,0,1,.58,1.44,1.44,0,0,0,1.17-.43,10.2,10.2,0,0,0,1.45-2.5,4.1,4.1,0,0,1,1-1.2,2,2,0,0,1,1.6-.39l.21.05v.21a22,22,0,0,1-.79,4.62l-.4-.25a37.78,37.78,0,0,0,3.51-3.65l.28-.34.15.4c.39,1.12-.4,2-.18,2.76.07.4.31.68.65.62a4,4,0,0,0,1.15-.52,8.76,8.76,0,0,0,3.56-3.91l.08-.17.16.08a10,10,0,0,1,1.52.93,3.05,3.05,0,0,1,1.07,1.43,1.84,1.84,0,0,1-.39,1.73,1.25,1.25,0,0,1-1.64.4l-.07,0,.07,0a6.37,6.37,0,0,1,3.15-1,6.28,6.28,0,0,0-3.08,1.08V880a1.09,1.09,0,0,0,1.43-.41,1.64,1.64,0,0,0,.31-1.54,2.91,2.91,0,0,0-1-1.28,9.49,9.49,0,0,0-1.5-.84l.25-.09a8.72,8.72,0,0,1-3.63,4.21,4.69,4.69,0,0,1-1.36.58,1,1,0,0,1-.83-.29,1.43,1.43,0,0,1-.36-.74,3,3,0,0,1,.15-1.46,1.85,1.85,0,0,0,0-1.2l.43.07a39,39,0,0,1-3.57,3.7l-.64.58.23-.83a21.81,21.81,0,0,0,.77-4.52l.19.26c-.84-.2-1.64.56-2.1,1.35a9.94,9.94,0,0,1-1.54,2.61,2,2,0,0,1-1.55.57,1.68,1.68,0,0,1-1.43-.88,1.22,1.22,0,0,1,0-.9,6.76,6.76,0,0,1,.3-.72c.22-.44.44-.93.15-1l.36-.17a4.28,4.28,0,0,1-4.33,3.26l-.3,0,.07-.29.88-3.71.43.22-1.86,2-.94,1a6.53,6.53,0,0,1-1,.94,1.53,1.53,0,0,1-1.51.24,1.83,1.83,0,0,1-1-1.19,3.73,3.73,0,0,1,.72-2.71l.32.35a9.57,9.57,0,0,0-3.86,3.33l-.53.8.07-1,.36-4.63.38.23a21.8,21.8,0,0,0-4.71,4.07l-.79.92.36-1.15a6.75,6.75,0,0,0,0-4l.4.12a6.71,6.71,0,0,1-5,1.35l-1.13-.15,1.09-.33a2.32,2.32,0,0,1,2.72,1.4,2,2,0,0,1-.09,1.66,2.41,2.41,0,0,1-2.92,1,1.91,1.91,0,0,1-1.06-1.26A2.31,2.31,0,0,1,920,876.7l.6-.21-.29.56a8.1,8.1,0,0,1-2.44,2.82,5.81,5.81,0,0,1-3.46,1.27,2.34,2.34,0,0,1-1.73-.68,1.75,1.75,0,0,1-.33-1.79,3.5,3.5,0,0,1,1.15-1.43A6.06,6.06,0,0,1,915.07,876.35Z" transform="translate(-758.49 -869.4)"/><path class="cls-1" d="M978.72,875.79l-.43,4.54-.4-.14c.67-1.37,1.46-2.66,2.19-4a1.48,1.48,0,0,1,.44-.51.93.93,0,0,1,.76-.13,1.43,1.43,0,0,1,.89,1c.17.91-.29,1.65-.19,2.29a1,1,0,0,0,.43.76c.22.12.5,0,.78-.2a5.91,5.91,0,0,0,1.35-1.71,8.93,8.93,0,0,1,1.34-1.91,3,3,0,0,1,2.21-1l.73.05-.61.41a10.16,10.16,0,0,0-2.36,2.22,5.32,5.32,0,0,0-.81,1.35.71.71,0,0,0,.43,1,1.35,1.35,0,0,0,1.28-.41,13,13,0,0,0,1-1.25,28,28,0,0,0,1.82-2.76l.28-.5.17.54a3.37,3.37,0,0,1,0,1.87,4.28,4.28,0,0,0-.27,1.66,1.34,1.34,0,0,0,1,1.13,1.53,1.53,0,0,0,1.57-.43,1.6,1.6,0,0,1-1.61.59,1.58,1.58,0,0,1-1.3-1.23c-.25-1.28.49-2.44.17-3.43l.45,0a29,29,0,0,1-1.85,2.81,11.07,11.07,0,0,1-1.1,1.31,1.85,1.85,0,0,1-1.76.53,1.17,1.17,0,0,1-.77-.67,1.46,1.46,0,0,1,0-1,5.59,5.59,0,0,1,.9-1.5,10.37,10.37,0,0,1,2.48-2.33l.12.45a2.47,2.47,0,0,0-1.83.84A8.91,8.91,0,0,0,985,878a6.63,6.63,0,0,1-1.47,1.85,1.84,1.84,0,0,1-.59.31,1,1,0,0,1-.74-.07,1.48,1.48,0,0,1-.69-1.14c-.08-.88.35-1.61.2-2.23a.93.93,0,0,0-.54-.65c-.24-.07-.45.09-.63.41-.75,1.31-1.44,2.68-2.24,4l-.62,1,.21-1.12Z" transform="translate(-758.49 -869.4)"/><path class="cls-1" d="M1015,876.85a6.18,6.18,0,0,0-1.2,1.25,3.1,3.1,0,0,0-.69,1.5,1,1,0,0,0,1,.86,2.1,2.1,0,0,0,1.36-.68c.78-.73,1.33-1.93.76-2.82a1.08,1.08,0,0,0-1.19-.57c-.45.13-.81.65-.65,1l-.22-.16a9.83,9.83,0,0,0,9.7-7.07l.11.28c-.24-.18-.67.13-.93.49s-.53.83-.77,1.25a22.23,22.23,0,0,0-1.26,2.71,21,21,0,0,0-1.3,5.8l-.34-.26a6.31,6.31,0,0,0,2.69-2,5.37,5.37,0,0,0,.84-1.4.67.67,0,0,0-.09-.65.43.43,0,0,0-.56-.15v-.21a2.53,2.53,0,0,0,3.14.51,2.67,2.67,0,0,1-3.35-.32l-.1-.1.12-.1a.74.74,0,0,1,1,.13,1.1,1.1,0,0,1,.25,1,4.25,4.25,0,0,1-.87,1.61,6.92,6.92,0,0,1-2.9,2.11l-.37.14,0-.39a21.25,21.25,0,0,1,1.34-5.94,21.7,21.7,0,0,1,1.28-2.77c.26-.45.5-.87.81-1.31a2.15,2.15,0,0,1,.62-.58.93.93,0,0,1,1,0l.16.1-.05.18a10.32,10.32,0,0,1-10.21,7.44H1014l-.05-.16a1.17,1.17,0,0,1,.15-1.05,1.46,1.46,0,0,1,.82-.62,1.55,1.55,0,0,1,1.76.78,2.18,2.18,0,0,1,.18,1.89,4,4,0,0,1-1,1.56,2.24,2.24,0,0,1-1.73.74,1.37,1.37,0,0,1-1.31-1.29,1.77,1.77,0,0,1,.34-.87,6.27,6.27,0,0,1,1.84-1.88Z" transform="translate(-758.49 -869.4)"/><path class="cls-1" d="M1026.12,876.6l-.7,3.46-.27-.2a3.73,3.73,0,0,0,1-2,4.12,4.12,0,0,1,.49-1.16,2.72,2.72,0,0,1,1-.87,1.28,1.28,0,0,1,1.38.06,1.38,1.38,0,0,1,.49,1.3,3,3,0,0,1-1.59,1.93l.05-.37a2.38,2.38,0,0,0,3.35.06c.45-.46.73-1.1,1.22-1.66a2.53,2.53,0,0,1,.93-.67,1.47,1.47,0,0,1,1.2,0l.52.26-.54.2a4.2,4.2,0,0,0-1.92,1.51,1.23,1.23,0,0,0-.32,1c.07.27.44.31.83.2a6.12,6.12,0,0,0,2.11-1.33,6.46,6.46,0,0,0,1.46-2.05l.29-.65.18.69a1.58,1.58,0,0,1-.23,1.17,4.92,4.92,0,0,0-.41.89,1.69,1.69,0,0,0,.66,1.58,2.57,2.57,0,0,0,1.84.55,8.9,8.9,0,0,0,2-.4,9,9,0,0,1-2,.61,2.91,2.91,0,0,1-2.11-.43,1.93,1.93,0,0,1-.9-2c.22-.76.79-1.3.65-1.81l.47,0a6.68,6.68,0,0,1-1.58,2.21,6.6,6.6,0,0,1-2.31,1.45,1.64,1.64,0,0,1-.77.05.85.85,0,0,1-.67-.56,1.66,1.66,0,0,1,.38-1.44,4.61,4.61,0,0,1,2.16-1.69l0,.46a1.41,1.41,0,0,0-1.55.54c-.42.48-.71,1.13-1.23,1.68a2.88,2.88,0,0,1-4.09-.08l-.19-.22.24-.16c.65-.41,1.3-.9,1.37-1.57a.76.76,0,0,0-1.15-.85,2.17,2.17,0,0,0-.78.7,3.83,3.83,0,0,0-.42,1,3.33,3.33,0,0,1-1.26,2.11l-.42.26.14-.45Z" transform="translate(-758.49 -869.4)"/><path class="cls-1" d="M760.94,896.33a3.56,3.56,0,0,0-2,3.55.85.85,0,0,0,.12.44.29.29,0,0,0,.27.1,1.89,1.89,0,0,0,.86-.41,4.57,4.57,0,0,0,1.22-1.72,38,38,0,0,0,1.49-4.2c.41-1.43.75-2.89,1-4.35l.47.13a23.11,23.11,0,0,0-1.58,6.43,13.19,13.19,0,0,0-.09,1.64,2,2,0,0,0,.49,1.35c.33.29.84.19,1.35,0a5.45,5.45,0,0,0,2.54-1.9,5.87,5.87,0,0,0,.43-.67,1.08,1.08,0,0,0,.2-.63c0-.29-.62-.13-.91.26a3.51,3.51,0,0,0-.76,1.36,3.59,3.59,0,0,0-.08,1.53,2.08,2.08,0,0,0,.79,1.29,2.13,2.13,0,0,0,2.93-.22,2.28,2.28,0,0,1-3.1.46,2.76,2.76,0,0,1-1-3.21,4.11,4.11,0,0,1,.87-1.55,1.65,1.65,0,0,1,.81-.53.81.81,0,0,1,.57,0,.7.7,0,0,1,.4.5,1.61,1.61,0,0,1-.26,1,5.66,5.66,0,0,1-.47.73,6.28,6.28,0,0,1-1.23,1.24,6,6,0,0,1-1.54.83,3,3,0,0,1-.88.22,1.38,1.38,0,0,1-1-.3,2.35,2.35,0,0,1-.67-1.7,13.74,13.74,0,0,1,.09-1.72,23.54,23.54,0,0,1,1.62-6.56l.9-2.21-.42,2.34a44.09,44.09,0,0,1-1,4.41,37.46,37.46,0,0,1-1.52,4.27,5.05,5.05,0,0,1-1.36,1.9,2.08,2.08,0,0,1-1.15.52.77.77,0,0,1-.69-.36,1.35,1.35,0,0,1-.13-.65A3.7,3.7,0,0,1,760.94,896.33Z" transform="translate(-758.49 -869.4)"/><path class="cls-1" d="M797.33,891.72a8.37,8.37,0,0,0-3.24,3.17,8.12,8.12,0,0,0-.85,2.1,5.45,5.45,0,0,0-.17,2.18,1.34,1.34,0,0,0,1.48,1,4.07,4.07,0,0,0,2-.71,13.07,13.07,0,0,0,5.31-7.13,5.73,5.73,0,0,0,.26-1.07c0-.35-.07-.61-.28-.6-.47,0-.86.94-1.22,1.56a21.44,21.44,0,0,0-2.5,8.71l-.47-.12a11.21,11.21,0,0,1,2.8-3.64,5,5,0,0,1,.48-.38.71.71,0,0,1,.81,0,1.18,1.18,0,0,1,.28,1.34,8.71,8.71,0,0,1-.67,1,.86.86,0,0,0-.11.84,1.44,1.44,0,0,0,1.63.69,4.7,4.7,0,0,0,1.79-1.14,9,9,0,0,0,1.48-1.61,2.41,2.41,0,0,0,.45-1.95l.4.14c-.94.71-1.93,1.52-2,2.64a1.49,1.49,0,0,0,.56,1.37,1.74,1.74,0,0,0,1.53.12c1.07-.34,1.7-1.43,2.38-2.42a5.81,5.81,0,0,1,1.28-1.39,2.72,2.72,0,0,1,1.86-.59l.78.08-.68.39a5.6,5.6,0,0,0-2,1.55,1.75,1.75,0,0,0,.14,2.22,1.49,1.49,0,0,0,1.16.27,9.4,9.4,0,0,0,1.28-.27,8.93,8.93,0,0,0,2.4-1.08,9.41,9.41,0,0,1-2.36,1.21,8,8,0,0,1-1.3.33,1.69,1.69,0,0,1-1.35-.26,2.08,2.08,0,0,1-.31-2.63,5.62,5.62,0,0,1,2.08-1.78l.1.47a2.22,2.22,0,0,0-1.52.49,5.49,5.49,0,0,0-1.16,1.28,17.9,17.9,0,0,1-1.07,1.49,3.52,3.52,0,0,1-1.57,1.12,2.24,2.24,0,0,1-2-.19,2,2,0,0,1-.78-1.82,3.11,3.11,0,0,1,.8-1.77,9,9,0,0,1,1.4-1.23l.29-.22.1.36a2.91,2.91,0,0,1-.52,2.34,9.15,9.15,0,0,1-1.57,1.71,4.9,4.9,0,0,1-2,1.25,1.91,1.91,0,0,1-2.21-1,1.38,1.38,0,0,1,.15-1.31,8.4,8.4,0,0,0,.63-.89.71.71,0,0,0-.12-.74c-.07,0-.13-.05-.25,0a2.82,2.82,0,0,0-.41.33,10.72,10.72,0,0,0-2.68,3.48l-.56,1.14.08-1.27A22,22,0,0,1,800.2,892c.19-.34.38-.68.58-1a1.44,1.44,0,0,1,1.09-.81.78.78,0,0,1,.68.45,1.31,1.31,0,0,1,.09.69,6.8,6.8,0,0,1-.28,1.18,13.5,13.5,0,0,1-2.11,4.18,13.7,13.7,0,0,1-3.4,3.22,4.63,4.63,0,0,1-2.29.79,2,2,0,0,1-1.25-.31,1.69,1.69,0,0,1-.7-1.11A8.22,8.22,0,0,1,797.33,891.72Z" transform="translate(-758.49 -869.4)"/><path class="cls-1" d="M818.21,891.08l-.39,2.12c-.21.69-.39,1.38-.56,2.07-.35,1.39-.64,2.79-.87,4.19l-.48-.13a25.59,25.59,0,0,1,2-3.78c.38-.61.78-1.2,1.21-1.76a19.54,19.54,0,0,1,1.53-1.49c-.39.59-.78,1.18-1.13,1.79s-.82,1.13-1.19,1.72a25.59,25.59,0,0,0-1.93,3.71l-.82,2,.35-2.11c.23-1.42.53-2.83.87-4.23.18-.7.37-1.39.56-2.09S817.89,891.73,818.21,891.08Z" transform="translate(-758.49 -869.4)"/><path class="cls-1" d="M817.58,896.32c.15.17.27.34.4.51l.16.57.31,1.15.32,1.15.16.57c0,.22,0,.42-.08.64-.15-.16-.27-.34-.4-.5l-.16-.58-.32-1.15-.32-1.14-.16-.58C817.52,896.75,817.53,896.54,817.58,896.32Z" transform="translate(-758.49 -869.4)"/><path class="cls-1" d="M822.32,896.3a5.24,5.24,0,0,0-1.18,1.22,1.84,1.84,0,0,0-.3,1.49,1.12,1.12,0,0,0,.91,1,1.87,1.87,0,0,0,1.42-.41,2,2,0,0,0,.51-2.69,1.61,1.61,0,0,0-2.53.16l-.12-.33a3.14,3.14,0,0,0,2.06.1c.72-.15,1.45-.4,2.24-.49a1.56,1.56,0,0,1,.67.05.85.85,0,0,1,.53.56,6.45,6.45,0,0,1,.07,1.2l0,2.27-.43-.17c.67-.67,1.29-1.41,2-2l2.13-1.91-1.84,2.19c-.59.76-1.31,1.39-1.95,2.09l-.42.46v-.62l0-2.27a8.37,8.37,0,0,0-.05-1.06c0-.24-.31-.3-.67-.26-.71.08-1.43.32-2.18.48a3.65,3.65,0,0,1-2.39-.14l-.22-.11.11-.22a1.8,1.8,0,0,1,1.62-1,2.17,2.17,0,0,1,1.74.71,2.12,2.12,0,0,1,.41,1.84,2.85,2.85,0,0,1-1,1.56,2.36,2.36,0,0,1-1.8.51,1.56,1.56,0,0,1-1.31-1.36,2.29,2.29,0,0,1,.57-1.74A4.89,4.89,0,0,1,822.32,896.3Z" transform="translate(-758.49 -869.4)"/><path class="cls-1" d="M843.4,900.66a13.9,13.9,0,0,0,1.81-1.15,11.56,11.56,0,0,0,1.7-1.24,3.54,3.54,0,0,0,.68-.73.49.49,0,0,0,0-.66.81.81,0,0,0-.77-.13,1.32,1.32,0,0,0-.64.6,3.75,3.75,0,0,0-.5,1.92,1.41,1.41,0,0,0,1.05,1.36,2.3,2.3,0,0,0,1.87-.28,8.17,8.17,0,0,0,1.77-1.16,7.41,7.41,0,0,1-1.52,1.6,2.85,2.85,0,0,1-2.27.32,1.88,1.88,0,0,1-1-.67,2,2,0,0,1-.4-1.14,4.3,4.3,0,0,1,.57-2.2,1.81,1.81,0,0,1,.91-.83,1.34,1.34,0,0,1,1.26.23,1,1,0,0,1,.32.65,1.18,1.18,0,0,1-.18.65,3.72,3.72,0,0,1-.78.84,11.85,11.85,0,0,1-1.77,1.3A9.78,9.78,0,0,1,843.4,900.66Z" transform="translate(-758.49 -869.4)"/><path class="cls-1" d="M851.29,896.32l-1,4.32-.42-.15a11.81,11.81,0,0,1,1-2c.19-.32.39-.64.6-1a4,4,0,0,1,.77-.89,1.91,1.91,0,0,1,1.17-.48.93.93,0,0,1,.88,1,2.18,2.18,0,0,1-.65,1.06,4,4,0,0,0-.66.81.71.71,0,0,0,0,.8,1.17,1.17,0,0,0,.75.46,1.64,1.64,0,0,0,1.66-.77c.44-.55.72-1.23,1.18-1.87a2.73,2.73,0,0,1,2-1.31l.9-.07-.74.52a4.45,4.45,0,0,0-1.51,1.87,2,2,0,0,0-.16,1.11c.07.37.28.61.59.58a1.43,1.43,0,0,0,.82-.66l.76-1,1.51-2.08.43.26a4.44,4.44,0,0,0-.46,1.71,3.31,3.31,0,0,0,.34,1.7,2.31,2.31,0,0,0,1.36,1.08,1.89,1.89,0,0,0,1.76-.28,2,2,0,0,1-1.8.46,2.61,2.61,0,0,1-1.64-1.06,3.06,3.06,0,0,1-.52-1.92,5,5,0,0,1,.51-1.91l.43.26L859.54,899l-.76,1a1.87,1.87,0,0,1-1.17.86,1,1,0,0,1-.79-.29,1.35,1.35,0,0,1-.34-.7,2.38,2.38,0,0,1,.19-1.4,5,5,0,0,1,1.69-2.08l.16.46a2.25,2.25,0,0,0-1.59,1.1c-.4.57-.7,1.27-1.19,1.89a3.17,3.17,0,0,1-.91.79,1.79,1.79,0,0,1-1.24.16,1.63,1.63,0,0,1-1.08-.69,1.24,1.24,0,0,1,0-1.3,4.85,4.85,0,0,1,.73-.91,1.86,1.86,0,0,0,.52-.78.42.42,0,0,0-.4-.47,1.49,1.49,0,0,0-.84.37,7.47,7.47,0,0,0-1.25,1.71c-.38.62-.67,1.29-1,1.94l-.42-.15Z" transform="translate(-758.49 -869.4)"/><path class="cls-1" d="M879.77,896.76a5.63,5.63,0,0,0-1.62.88,2.31,2.31,0,0,0-.82,1.42,1.15,1.15,0,0,0,.7,1.27,2.49,2.49,0,0,0,1.65-.11,2.65,2.65,0,0,0,1.32-1.07,1.85,1.85,0,0,0,.14-1.59,1.24,1.24,0,0,0-1.19-.88,1.17,1.17,0,0,0-1.17.83l-.24-.3a15.83,15.83,0,0,0,2.92-.23c.48-.09,1-.11,1.46-.21s1-.19,1.46-.31a12,12,0,0,1-1.38.6,8.27,8.27,0,0,1-1.45.42,16.11,16.11,0,0,1-3,.23h-.3l.06-.29a1.66,1.66,0,0,1,1.65-1.23,1.75,1.75,0,0,1,1.66,1.2,2.3,2.3,0,0,1-.17,2,3.13,3.13,0,0,1-1.56,1.27,2.88,2.88,0,0,1-2,.11,1.52,1.52,0,0,1-.82-.72,2,2,0,0,1-.19-1.06,2.48,2.48,0,0,1,.34-1,2.17,2.17,0,0,1,.77-.68A5,5,0,0,1,879.77,896.76Z" transform="translate(-758.49 -869.4)"/><path class="cls-1" d="M895.43,900.12a6.33,6.33,0,0,0,3.83-2.71,1.18,1.18,0,0,0,.27-1,.83.83,0,0,0-.93-.39c-.74.16-1.07,1-1.36,1.72a2,2,0,0,0,.08,2.13.85.85,0,0,0,.88.32,1.66,1.66,0,0,0,.83-.65c.93-1.29,1.87-2.62,2.83-3.91l.16-.22.21.18a2.45,2.45,0,0,1,.7,1.11,3.6,3.6,0,0,1,.14,1.26,9.05,9.05,0,0,1-.54,2.38l-.43-.24,4.1-4.7.22-.26.18.3a1.6,1.6,0,0,1,.07,1.33,5.88,5.88,0,0,1-.56,1.09,2.61,2.61,0,0,0-.43,1,1.32,1.32,0,0,0,.12.94.59.59,0,0,0,.75.14,5.28,5.28,0,0,0,.9-.63,13,13,0,0,0,1.66-1.57,14.39,14.39,0,0,0,3.65-8.25l.45.17a16.71,16.71,0,0,0-2,4.66l-1.35,5-2.7,10-.42-.23a14.05,14.05,0,0,0,3-5.06,6,6,0,0,0,.37-2.84,3.34,3.34,0,0,0-.45-1.31,1.7,1.7,0,0,0-1.06-.73l-1.52-.31,1.54-.18a14.07,14.07,0,0,0,6.74-2.7l.33.37a14.2,14.2,0,0,0-2.89,4.65l-.28-.33a6,6,0,0,0,4.59-4.28l.48.13-.7,2.47a2.22,2.22,0,0,0-.15,1.12c.09.29.4.39.77.3a5.28,5.28,0,0,0,2.09-1.21,6.19,6.19,0,0,0,1.43-2l.09-.21.22.07a2.52,2.52,0,0,1-.72,4.92l-1.05,0,.93-.49,3.73-2c.61-.33,1.26-.64,1.83-1a1.62,1.62,0,0,0,.65-.7.87.87,0,0,0-.14-.86.52.52,0,0,0-.77-.07,2.69,2.69,0,0,0-.59.81,2.9,2.9,0,0,0-.27,2,1.88,1.88,0,0,0,1.35,1.41,1.71,1.71,0,0,0,1.89-.53c-.87,1.24-3.07.62-3.36-.85a3.08,3.08,0,0,1,.22-2.11,2.84,2.84,0,0,1,.63-.89.73.73,0,0,1,1.09.07,1.13,1.13,0,0,1,.21,1.12,1.92,1.92,0,0,1-.73.86c-.61.41-1.22.71-1.83,1.07l-3.67,2.09-.13-.47a2,2,0,0,0,.57-3.95l.31-.13a6.64,6.64,0,0,1-1.56,2.15,5.76,5.76,0,0,1-2.32,1.33,1.36,1.36,0,0,1-.77,0,1,1,0,0,1-.57-.61,2.46,2.46,0,0,1,.14-1.4l.7-2.48.48.14a6.5,6.5,0,0,1-5,4.64l-.44.08.16-.42a14.41,14.41,0,0,1,3-4.81l.33.37a14.59,14.59,0,0,1-7,2.8l0-.5a2.19,2.19,0,0,1,1.37.94,3.6,3.6,0,0,1,.53,1.52,6.51,6.51,0,0,1-.39,3.07,14.26,14.26,0,0,1-3.11,5.24l-.68.73.26-1,2.69-10,1.36-5a16.79,16.79,0,0,1,2.09-4.8l.55-.81-.09,1a15,15,0,0,1-3.78,8.54,13.86,13.86,0,0,1-1.72,1.62,5.23,5.23,0,0,1-1,.7,1.09,1.09,0,0,1-1.35-.31,2.35,2.35,0,0,1,.29-2.47c.4-.63.81-1.36.49-1.9l.4,0-4.08,4.69-.86,1,.43-1.22a8.93,8.93,0,0,0,.51-2.25,2.36,2.36,0,0,0-.68-2l.38,0c-.95,1.32-1.9,2.6-2.9,3.89a2.06,2.06,0,0,1-1.08.77,1.24,1.24,0,0,1-1.25-.48,1.8,1.8,0,0,1-.39-1.25,3.73,3.73,0,0,1,.32-1.21,6.75,6.75,0,0,1,.57-1.1,1.61,1.61,0,0,1,1-.74,1.05,1.05,0,0,1,1.13.54,1.32,1.32,0,0,1-.32,1.2A6.37,6.37,0,0,1,895.43,900.12Z" transform="translate(-758.49 -869.4)"/><path class="cls-1" d="M915.34,893.4a3.37,3.37,0,0,1,.22-.68,2.84,2.84,0,0,1,.5-.48,4.19,4.19,0,0,1,1.22-.68l.4-.15-.07.42a3.71,3.71,0,0,0,0,1.37,3.08,3.08,0,0,0,.18.66,7,7,0,0,0,.07.75,2.76,2.76,0,0,1-.55-.58,6.21,6.21,0,0,1-.2-.74,4.43,4.43,0,0,1,0-1.54l.33.28a3.64,3.64,0,0,0-1.07.6,4.49,4.49,0,0,0-.46.41A6.1,6.1,0,0,0,915.34,893.4Z" transform="translate(-758.49 -869.4)"/><path class="cls-1" d="M945.46,896.93a4.5,4.5,0,0,1,.35,4l-.4-.16a9.28,9.28,0,0,1,.76-1.91c.16-.3.32-.6.5-.9a2.61,2.61,0,0,1,.7-.86.85.85,0,0,1,.68-.13.87.87,0,0,1,.54.41,1.78,1.78,0,0,1,.22,1.14,8.33,8.33,0,0,1-.29,1,1.47,1.47,0,0,0-.07.84c.12.5.87.59,1.31.25a3.72,3.72,0,0,0,1-1.55,5.84,5.84,0,0,1,1.12-1.78,2.16,2.16,0,0,1,2.09-.61l.81.26-.82.22a3.63,3.63,0,0,0-2.12,1.56,3.54,3.54,0,0,0-.51,1.24c-.1.44,0,.85.29.89s.71-.27,1-.59l.89-1.13,1.79-2.26.93-1.18-.5,1.42a9.85,9.85,0,0,0-.43,1.54,3,3,0,0,0,0,1.53,1.72,1.72,0,0,0,1,1.05,1.22,1.22,0,0,0,1.46-.29,1.3,1.3,0,0,1-1.51.45A2,2,0,0,1,955,900.3a3.22,3.22,0,0,1-.2-1.73,9.8,9.8,0,0,1,.45-1.63l.43.24-1.78,2.26-.91,1.14a1.8,1.8,0,0,1-1.44.76.89.89,0,0,1-.7-.64,1.79,1.79,0,0,1,0-.83,4,4,0,0,1,.58-1.42,4.11,4.11,0,0,1,2.41-1.77l0,.47a1.66,1.66,0,0,0-1.59.5,5.33,5.33,0,0,0-1,1.63,4.17,4.17,0,0,1-1.21,1.75,1.54,1.54,0,0,1-1.14.28,1.16,1.16,0,0,1-.94-.78c-.21-.85.27-1.52.34-2.07a1.33,1.33,0,0,0-.14-.82.36.36,0,0,0-.53-.12,2.15,2.15,0,0,0-.54.7q-.26.42-.48.87c-.3.59-.54,1.2-.8,1.82l-.4-.16A4.41,4.41,0,0,0,945.46,896.93Z" transform="translate(-758.49 -869.4)"/><path class="cls-1" d="M975.66,896.34a2.67,2.67,0,0,0-2.21,1.81,2.64,2.64,0,0,0,.43,2.79h-.1a19.74,19.74,0,0,0,5.41-10.64l.41.11a63.84,63.84,0,0,0-2.26,7.49,1.64,1.64,0,0,0,.23,1.62,1.67,1.67,0,0,0,1.6.27,2.38,2.38,0,0,0,1.32-1.13,9,9,0,0,0,.75-1.76l.44.22A4.92,4.92,0,0,0,981,901l-.3-.19a6.11,6.11,0,0,0,4.36-4.36l.09-.39.31.25a9.21,9.21,0,0,1,1.2,1.14,3.52,3.52,0,0,1,.81,1.51,2.4,2.4,0,0,1-.27,1.74,1.76,1.76,0,0,1-1.52.94l-1.39,0,1.32-.44a10.77,10.77,0,0,0,7.14-9.72l.49.08a38.07,38.07,0,0,0-1.88,10l-.36-.24a13.19,13.19,0,0,0,4.81-4l.36.34a5,5,0,0,0-1.85,3.63L994,901a4.85,4.85,0,0,0,3.76-3.43l.47.18a5.21,5.21,0,0,0-.32,3.8l-.43-.1,3.88-4.11.41-.44,0,.6a9.64,9.64,0,0,1-.68,4l-.42-.25,3.42-4.17.83-1-.4,1.25-.94,2.92c-.19.47-.17.91.16,1a1.72,1.72,0,0,0,1.24-.31c.77-.57,1.59-1.26,2.38-1.88l2.39-1.91.28.41a7.57,7.57,0,0,0-3.47,4.32l-.25-.33a9.41,9.41,0,0,0,7.08-4l.39.3a6.85,6.85,0,0,0-.88,1.24,1.91,1.91,0,0,0-.21,1.35,1.23,1.23,0,0,0,.84.92,1.52,1.52,0,0,0,1.21-.51l4.81-4.11.07-.06.31.38a11.38,11.38,0,0,0-3.46,4.51l-.23-.31a6.36,6.36,0,0,0,5-3.33l.25.16a3.84,3.84,0,0,0-1.19,2.85,1.59,1.59,0,0,0,.86,1.2,2.7,2.7,0,0,0,1.56-.07l6.44-1.32-6.4,1.47a2.87,2.87,0,0,1-1.67.09,1.77,1.77,0,0,1-1-1.33,2.6,2.6,0,0,1,.27-1.67,8.15,8.15,0,0,1,.9-1.4l.25.16a6.72,6.72,0,0,1-5.16,3.63l-.37,0,.14-.35a10.92,10.92,0,0,1,3.57-4.73l.31.39-.07.06-4.81,4.11a2,2,0,0,1-1.63.62,1.72,1.72,0,0,1-1.22-1.28,2.35,2.35,0,0,1,.25-1.71,7.07,7.07,0,0,1,.94-1.33l.4.3a9.9,9.9,0,0,1-7.46,4.23l-.36,0,.1-.34a8.13,8.13,0,0,1,3.71-4.61l.28.42-2.4,1.91c-.81.64-1.56,1.28-2.43,1.91a2.15,2.15,0,0,1-1.67.37,1,1,0,0,1-.6-.79,1.88,1.88,0,0,1,.14-.85l.94-2.92.43.24-3.43,4.16-1,1.25.6-1.5a9.12,9.12,0,0,0,.64-3.76l.44.16-3.88,4.11-.3.32-.12-.42a5.69,5.69,0,0,1,.35-4.17l.47.18a5.35,5.35,0,0,1-4.17,3.79l-.3,0v-.3a5.43,5.43,0,0,1,2-4l1.44-1.14-1.08,1.48a13.76,13.76,0,0,1-5,4.21l-.38.19,0-.43a39.05,39.05,0,0,1,1.9-10.16l.53-1.58,0,1.67a11.25,11.25,0,0,1-7.48,10.18l-.08-.49a1.25,1.25,0,0,0,1.08-.69,2,2,0,0,0,.22-1.38,4.76,4.76,0,0,0-1.85-2.37l.41-.13a6.62,6.62,0,0,1-4.73,4.73l-.24.06-.06-.25a5.38,5.38,0,0,1,.78-4.25l1-1.52-.6,1.74a9.36,9.36,0,0,1-.79,1.86,2.92,2.92,0,0,1-1.61,1.35,2.14,2.14,0,0,1-2.09-.4,1.59,1.59,0,0,1-.47-1,3.29,3.29,0,0,1,.1-1.05,50.54,50.54,0,0,1,2.35-7.53l.41.11A20,20,0,0,1,973.88,901l0,.05-.05-.05a2.71,2.71,0,0,1-.39-2.91A2.68,2.68,0,0,1,975.66,896.34Z" transform="translate(-758.49 -869.4)"/><path class="cls-1" d="M1014.75,894.23a.19.19,0,0,0,0,.24l0,0s0,.06,0,0,0,0,0,0a.05.05,0,0,0,0,0,.18.18,0,0,0,.21-.13.33.33,0,0,1,.27.24.46.46,0,0,1-.16.28.51.51,0,0,1-.66.1.52.52,0,0,1-.15-.65.61.61,0,0,1,.2-.26C1014.57,894.05,1014.72,894.11,1014.75,894.23Z" transform="translate(-758.49 -869.4)"/><path class="cls-1" d="M995.66,895.41c.12-.18.24-.35.37-.51s.33-.19.5-.28l1-.58.41-.24,0,.47a5.57,5.57,0,0,0,0,1c0,.17.06.33.07.5l-.1.55a3.24,3.24,0,0,1-.37-.46,3.1,3.1,0,0,1-.1-.53,5.78,5.78,0,0,1,0-1.1l.37.24-1,.58-.49.29A3.2,3.2,0,0,1,995.66,895.41Z" transform="translate(-758.49 -869.4)"/><path class="cls-1" d="M990.17,894.53c.16-.15.33-.27.49-.4l.55-.18c.37-.12.73-.25,1.09-.39s.71-.29,1.06-.45l.53-.24c.21,0,.41,0,.63,0a4.93,4.93,0,0,1-.42.49l-.53.25-1.09.46-1.11.4-.56.18A4.86,4.86,0,0,1,990.17,894.53Z" transform="translate(-758.49 -869.4)"/><path class="cls-1" d="M759.94,920.93c.57-.39,1.25-.61,1.82-1a2,2,0,0,0,.68-.69,1.59,1.59,0,0,0,.13-.93c-.06-.3-.23-.59-.48-.64a.63.63,0,0,0-.69.25,2.38,2.38,0,0,0-.35,1.77,1.59,1.59,0,0,0,1,1.4,1.71,1.71,0,0,0,1.59-.64,8.64,8.64,0,0,0,1.1-1.69,3.2,3.2,0,0,1,1.62-1.49l.3-.1,0,.32a8.25,8.25,0,0,1-.52,3.71l-.26-.34a1.54,1.54,0,0,0,1-.65,7.91,7.91,0,0,0,.71-1.17,8.35,8.35,0,0,1,.77-1.26,1.94,1.94,0,0,1,1.37-.78h.15l.08.11a1.62,1.62,0,0,1,.2,1.18,7.33,7.33,0,0,1-.3,1c-.23.63-.45,1.34,0,1.6s1-.15,1.43-.63a14.48,14.48,0,0,0,1-1.74,55.35,55.35,0,0,0,3.31-7.52l.47.16-.94,2.82c-.31.94-.6,1.89-1,2.82a4.05,4.05,0,0,0-.34,2.78,1.6,1.6,0,0,0,1,.92,1.12,1.12,0,0,0,1.31-.35,1.16,1.16,0,0,1-1.34.45,1.77,1.77,0,0,1-1.19-.93,4.38,4.38,0,0,1,.13-3c.26-1,.6-1.89.91-2.83l.94-2.83.47.17a55.14,55.14,0,0,1-3.34,7.59,14.48,14.48,0,0,1-1.08,1.82,2.88,2.88,0,0,1-.85.73,1.18,1.18,0,0,1-1.23,0,1.16,1.16,0,0,1-.51-1.12,4.7,4.7,0,0,1,.27-1.06c.23-.63.47-1.32.17-1.76l.22.1a1.5,1.5,0,0,0-1,.61,7.46,7.46,0,0,0-.72,1.17,8.19,8.19,0,0,1-.76,1.25,2.1,2.1,0,0,1-1.34.84l-.41,0,.14-.39a7.69,7.69,0,0,0,.49-3.49l.33.22a2.61,2.61,0,0,0-1.35,1.28,9,9,0,0,1-1.17,1.76,2.19,2.19,0,0,1-2.09.78,1.65,1.65,0,0,1-.94-.73,2.7,2.7,0,0,1-.38-1.07,2.55,2.55,0,0,1,.49-2.16,1,1,0,0,1,1.82.66,1.79,1.79,0,0,1-.23,1.08,2,2,0,0,1-.8.71C761.22,920.42,760.54,920.58,759.94,920.93Z" transform="translate(-758.49 -869.4)"/><path class="cls-1" d="M770.58,915.65c.22-.09.44-.15.65-.23h.65c.43,0,.86,0,1.29,0s.85-.07,1.28-.12l.64-.09c.23.05.45.08.68.15-.2.13-.4.23-.61.35l-.65.08c-.44.06-.87.1-1.31.12s-.88,0-1.32,0h-.66A5.92,5.92,0,0,1,770.58,915.65Z" transform="translate(-758.49 -869.4)"/><path class="cls-1" d="M777.51,917.1c-.16,1-.35,2.07-.53,3.11l-.44-.12a4.61,4.61,0,0,1,1-1.89,4.67,4.67,0,0,1,1.75-1.3.7.7,0,0,1,.73.15.82.82,0,0,1,.2.69,1.23,1.23,0,0,1-.25.6,2.9,2.9,0,0,1-.44.38,1.53,1.53,0,0,0-.65.6.73.73,0,0,0,.11.73,1.35,1.35,0,0,0,.68.52,1.41,1.41,0,0,0,.86,0,4.85,4.85,0,0,0,1.66-1,6.55,6.55,0,0,0,1.35-1.44,1.78,1.78,0,0,0,.26-1.72l.36.11a4.29,4.29,0,0,0-1.43,1.41,2.65,2.65,0,0,0-.41,1.87,2.17,2.17,0,0,0,1.17,1.44,1.6,1.6,0,0,0,1.9-.21,1.72,1.72,0,0,1-2,.5,2.2,2.2,0,0,1-1.54-1.64,3.17,3.17,0,0,1,.47-2.23,5,5,0,0,1,1.6-1.57l.24-.14.12.25a2.29,2.29,0,0,1-.3,2.2,7,7,0,0,1-1.45,1.56A5.24,5.24,0,0,1,780.7,921a1.78,1.78,0,0,1-2.09-.71,1.25,1.25,0,0,1-.16-1.22,2.18,2.18,0,0,1,.82-.81c.6-.25.62-1.11.2-.92a4.81,4.81,0,0,0-2.49,2.84l-.44-.12C776.86,919.1,777.17,918.09,777.51,917.1Z" transform="translate(-758.49 -869.4)"/><path class="cls-1" d="M801.44,918.11a4.06,4.06,0,0,0-1.33,1.38,1.47,1.47,0,0,0-.09,1.61,1,1,0,0,0,1.45.27,2.4,2.4,0,0,0,1.19-1.28,1.47,1.47,0,0,0-.31-1.59,1.36,1.36,0,0,0-.73-.38.75.75,0,0,0-.67.19c-.09.15,0,.24.25.34a1.71,1.71,0,0,0,.87,0c.66-.07,1.33-.15,2-.2-.63.24-1.26.45-1.89.68a2.09,2.09,0,0,1-1.11,0,1,1,0,0,1-.56-.36.66.66,0,0,1,0-.75,1.49,1.49,0,0,1,2.16.13,2,2,0,0,1,.43,2.11,2.93,2.93,0,0,1-1.45,1.57,2,2,0,0,1-1.11.19,1.42,1.42,0,0,1-1-.66,2,2,0,0,1,.1-2.15A3.86,3.86,0,0,1,801.44,918.11Z" transform="translate(-758.49 -869.4)"/><path class="cls-1" d="M820.85,918.19a2.38,2.38,0,0,0-1.77,1.49,2.33,2.33,0,0,0,.17,2.25l-.08,0a3.25,3.25,0,0,0,2-.35,2.16,2.16,0,0,0,1.11-1.59,1.58,1.58,0,0,0-.72-1.63,1.38,1.38,0,0,0-1.69.19l.05-.21c.07.42.57.59,1.09.58a4.24,4.24,0,0,0,1.52-.4,16.09,16.09,0,0,0,2.92-1.57,9.73,9.73,0,0,0,2.41-2.19c.62-.84,1-2,.38-2.82l.38,0a12.15,12.15,0,0,0-3.19,7.44c0,.65-.12,1.5.27,1.77a.66.66,0,0,0,.73-.07,3.63,3.63,0,0,0,.76-.62c.5-.45.84-1,.56-1.56-.13-.23-.36-.35-.53-.24s-.31.42-.19.47l-.22-.05a43.55,43.55,0,0,0,5.5-1.66l.62-.23-.31.58a7.2,7.2,0,0,0-.74,3c-.07,1,0,2.12,0,3.19a11.5,11.5,0,0,1-.39,3.24,5.18,5.18,0,0,1-1.77,2.79l-.09.06h-.1a1.65,1.65,0,0,1-1.26-1.14,2.22,2.22,0,0,1,.1-1.66,7.5,7.5,0,0,1,2.11-2.29,37.49,37.49,0,0,0,4.55-3.92,8.77,8.77,0,0,0,1.55-2.47c.18-.43.08-.93-.33-.92a1.33,1.33,0,0,0-1,.77,2.38,2.38,0,0,0,.15,2.72,1.59,1.59,0,0,0,2.52-.31,1.36,1.36,0,0,1-1.17.85,1.83,1.83,0,0,1-1.45-.44,2.6,2.6,0,0,1-.3-2.95,1.62,1.62,0,0,1,1.27-1,.74.74,0,0,1,.75.53,1.39,1.39,0,0,1,0,.86,7.77,7.77,0,0,1-1.57,2.68,39.25,39.25,0,0,1-4.61,4,6.9,6.9,0,0,0-2,2.11,1.66,1.66,0,0,0-.09,1.29,1.14,1.14,0,0,0,.86.8l-.19,0A4.63,4.63,0,0,0,831,927a11.18,11.18,0,0,0,.37-3.11c0-1.06,0-2.13,0-3.22a7.74,7.74,0,0,1,.8-3.18l.3.35a42.85,42.85,0,0,1-5.56,1.67l-.12,0-.1-.08a.7.7,0,0,1-.18-.76,1,1,0,0,1,.45-.52.79.79,0,0,1,.73,0,1,1,0,0,1,.49.47,1.43,1.43,0,0,1,0,1.23,2.82,2.82,0,0,1-.69.92,3.82,3.82,0,0,1-.87.7,1.15,1.15,0,0,1-1.25,0,1.45,1.45,0,0,1-.51-1.13c0-.37,0-.72,0-1.08a12.67,12.67,0,0,1,3.33-7.75l.2-.22.18.24a2.23,2.23,0,0,1,.37,1.8,4.23,4.23,0,0,1-.74,1.61,9.94,9.94,0,0,1-2.54,2.31,16.15,16.15,0,0,1-3,1.62,4.74,4.74,0,0,1-1.7.44,2.25,2.25,0,0,1-.94-.18,1.13,1.13,0,0,1-.65-.79l0-.13.08-.09a1.89,1.89,0,0,1,2.33-.31,2,2,0,0,1,.89,2.14,2.53,2.53,0,0,1-1.38,1.82,3.55,3.55,0,0,1-2.22.27h0l0,0a2.5,2.5,0,0,1-.08-2.43A2.41,2.41,0,0,1,820.85,918.19Z" transform="translate(-758.49 -869.4)"/><path class="cls-1" d="M841.38,917.7a4.57,4.57,0,0,0-1.75.87,2,2,0,0,0-.74,1.62,1.34,1.34,0,0,0,.87,1.3,1.86,1.86,0,0,0,1.62-.48,6.3,6.3,0,0,0,1.28-1.43c.38-.53.75-1.08,1.09-1.64a25.87,25.87,0,0,0,1.77-3.53l.44.22a17.36,17.36,0,0,0-2,6.2c-.08.53.15.81.65.73a4.06,4.06,0,0,0,1.4-.66,6.27,6.27,0,0,0,2.1-2.38l.32-.64.15.7a18,18,0,0,1,0,1.85,1.12,1.12,0,0,0,1,.93,1.86,1.86,0,0,0,1.55-.54,6,6,0,0,0,1.11-1.43,6.46,6.46,0,0,1-1,1.58,2.17,2.17,0,0,1-1.73.79,1.73,1.73,0,0,1-1-.32,1.4,1.4,0,0,1-.52-.94c-.08-.71.16-1.3,0-1.81l.47.06a6.94,6.94,0,0,1-2.27,2.57,4.47,4.47,0,0,1-1.61.73,1.07,1.07,0,0,1-1-.29,1.25,1.25,0,0,1-.23-1,17.71,17.71,0,0,1,2.11-6.39l.45.22a26.87,26.87,0,0,1-1.8,3.6c-.35.57-.72,1.13-1.12,1.68a7.07,7.07,0,0,1-1.37,1.53,2.35,2.35,0,0,1-2.07.56,1.65,1.65,0,0,1-.92-.7,1.83,1.83,0,0,1-.25-1.09,2.3,2.3,0,0,1,1-1.79A4.37,4.37,0,0,1,841.38,917.7Z" transform="translate(-758.49 -869.4)"/><path class="cls-1" d="M852.34,918.26c.3.88-.12,1.92.3,2.64s1.44.53,2.16.15,1.49-1.09,1.47-1.85a.82.82,0,0,0-.53-.82c-.31-.08-.71.18-.68.44l-.28-.24,5.25-.64.53-.06-.29.45a8.47,8.47,0,0,0-1.08,2.41.32.32,0,0,0,.16.34,1.12,1.12,0,0,0,.54.09,4.74,4.74,0,0,0,1.26-.31,2.38,2.38,0,0,0,1-.73,1.62,1.62,0,0,0,.31-1.13.9.9,0,0,0-.68-.77.78.78,0,0,0-.91.32l-.43,0c0,.06.19.1.21.06l0,0s0-.17,0-.14a.52.52,0,0,0,.26,0l.87-.12c.59-.09,1.17-.16,1.76-.2l3.53-.27-3.47.68c-.58.12-1.16.21-1.75.28L861,919a.86.86,0,0,1-.61-.06.43.43,0,0,1-.17-.23.39.39,0,0,1,0-.29.53.53,0,0,1,.2-.19.33.33,0,0,1,.4.12l-.43,0a1.38,1.38,0,0,1,2.53.6,2.06,2.06,0,0,1-.39,1.49,2.86,2.86,0,0,1-1.21.9,5.28,5.28,0,0,1-1.42.35,1.49,1.49,0,0,1-.81-.16.81.81,0,0,1-.42-.83,8.75,8.75,0,0,1,1.16-2.62l.24.38-5.25.64-.26,0,0-.27a.91.91,0,0,1,.44-.79,1.2,1.2,0,0,1,.85-.16,1.31,1.31,0,0,1,.92,1.29,2,2,0,0,1-.59,1.41,4.16,4.16,0,0,1-1.14.9,2.72,2.72,0,0,1-1.43.39,1.43,1.43,0,0,1-1.27-.83C852,920,852.53,919.17,852.34,918.26Z" transform="translate(-758.49 -869.4)"/><path class="cls-1" d="M841.38,916.83c.27-.18.55-.31.83-.46l.9-.19c.6-.13,1.2-.24,1.81-.34s1.21-.19,1.82-.27l.91-.1c.32,0,.63.08.94.16-.29.12-.59.22-.88.33l-.91.11c-.6.08-1.2.16-1.8.26s-1.19.21-1.79.34l-.89.19C842,916.85,841.7,916.86,841.38,916.83Z" transform="translate(-758.49 -869.4)"/><path class="cls-1" d="M850,916.8a1.41,1.41,0,0,1,.2.24.77.77,0,0,1-.08.19.71.71,0,0,1-.33.36.52.52,0,0,1-.59-.11.55.55,0,0,1-.16-.28c.06-.15.2-.25.31-.19a.12.12,0,0,0,.19.1h0l0,0a.21.21,0,0,0,.1-.13.33.33,0,0,0,.05-.12Z" transform="translate(-758.49 -869.4)"/><path class="cls-1" d="M879.53,922c.34-.36.69-.69,1-1.06a11.92,11.92,0,0,0,1-1c.31-.34.75-.75.56-.9a.9.9,0,0,0-1-.17,1.44,1.44,0,0,0,0,2.78,1.63,1.63,0,0,0,1.32.1,1.75,1.75,0,0,1-1.47.38,2,2,0,0,1-1.24-1,1.82,1.82,0,0,1,0-1.61,2.21,2.21,0,0,1,1.18-1.09,1.36,1.36,0,0,1,1.62.38.71.71,0,0,1,.09.53,1.11,1.11,0,0,1-.22.42c-.16.2-.32.37-.49.56-.34.35-.7.69-1.08,1A8.68,8.68,0,0,1,879.53,922Z" transform="translate(-758.49 -869.4)"/><path class="cls-1" d="M894.76,917.93c-.84.74-1.64,1.63-1.54,2.61a1,1,0,0,0,.83,1,1.7,1.7,0,0,0,1.36-.4,2.08,2.08,0,0,0,.72-1.28,1.31,1.31,0,0,0-.47-1.26,1.58,1.58,0,0,0-2.4.62l-.28-.31,2.2-.4c.76-.06,1.5-.13,2.26-.16-.72.23-1.44.43-2.17.65l-2.2.4-.38.07.09-.37a1.78,1.78,0,0,1,1.37-1.25,2.21,2.21,0,0,1,1.81.35,1.82,1.82,0,0,1,.67,1.73,2.59,2.59,0,0,1-.9,1.59A2.21,2.21,0,0,1,894,922a1.4,1.4,0,0,1-.86-.49,1.7,1.7,0,0,1-.37-.9,2,2,0,0,1,.61-1.7A5.78,5.78,0,0,1,894.76,917.93Z" transform="translate(-758.49 -869.4)"/><path class="cls-1" d="M916.52,918.55l-.35,2.66a26.15,26.15,0,0,1-.44,2.65l-1,5.26-.5-.06c.1-1.54.27-3.08.52-4.6.13-.77.27-1.53.43-2.28a8.6,8.6,0,0,1,.74-2.25,2.78,2.78,0,0,1,1.9-1.54,1.61,1.61,0,0,1,1.29.34,1.28,1.28,0,0,1,.33,1.31,6.15,6.15,0,0,1-.46,1.11,4,4,0,0,1-.66,1,1.77,1.77,0,0,1-2.4.38l-.58-.46.73,0,4.22.12-4.2.38.15-.44a1.3,1.3,0,0,0,1.71-.33,3.71,3.71,0,0,0,.58-.91,6,6,0,0,0,.42-1,.78.78,0,0,0-.17-.82,1.11,1.11,0,0,0-.88-.21,2.21,2.21,0,0,0-1.53,1.28,7.77,7.77,0,0,0-.7,2.12c-.16.74-.3,1.49-.43,2.25a43.07,43.07,0,0,0-.51,4.55l-.49-.06,1-5.27c.15-.88.37-1.75.6-2.61Z" transform="translate(-758.49 -869.4)"/><path class="cls-1" d="M922.11,918.53l-.77,3.57-.12-.08c.82-.66.23-1.94,1-2.84a1,1,0,0,1,.84-.24.71.71,0,0,1,.65.64,1.46,1.46,0,0,1-.32.8.59.59,0,0,0-.11.55c.14.3.72.36,1.15.27a4,4,0,0,0,1.3-.6,2.08,2.08,0,0,0,.88-1,1.23,1.23,0,0,0-.16-1.21l.34,0a3.81,3.81,0,0,0-1.4,1.66,1.06,1.06,0,0,0,.12.92,1.14,1.14,0,0,0,.82.48,1.9,1.9,0,0,0,1.83-.8,6.68,6.68,0,0,0,.94-2.06l.1-.33.28.21a7.21,7.21,0,0,1,1.12,1,2.67,2.67,0,0,1,.72,1.38,1.67,1.67,0,0,1-.61,1.49,1.46,1.46,0,0,1-.76.36,1.06,1.06,0,0,1-.87-.26l-.32-.32.43-.11a16.27,16.27,0,0,0,4-1.58,7.52,7.52,0,0,0,.89-.55,1.24,1.24,0,0,0,.48-.73c0-.19-.17-.31-.39-.18a2.33,2.33,0,0,0-.66.72,1.92,1.92,0,0,0-.44,1.8.74.74,0,0,0,.61.49,1.31,1.31,0,0,0,.84-.3,21.46,21.46,0,0,0,1.55-1.49l1.54-1.55.62-.62-.2.86-.76,3.25-.43-.22,2.66-3.07.12-.14.19.08a.69.69,0,0,1,.36.66,1.58,1.58,0,0,1-.18.58,6.24,6.24,0,0,0-.4.9c-.23.52.36,1,.91,1a2.38,2.38,0,0,0,1.53-.94,19.5,19.5,0,0,0,1.27-1.58A37.14,37.14,0,0,0,947,912.1l.47.19-3.69,9.78-.27-.33a7.15,7.15,0,0,0,5.06-3.49l.2.27a2.64,2.64,0,0,0-1.87.94,1.32,1.32,0,0,0,.26,1.86,4.64,4.64,0,0,0,2.2.06l2.27-.2-2.26.29-1.14.15a2,2,0,0,1-1.16-.14,1.54,1.54,0,0,1-.4-2.17,3,3,0,0,1,2-1.16l.36-.06-.17.33a7,7,0,0,1-5.32,3.81l-.42.07.15-.4,3.69-9.79.46.19a37.32,37.32,0,0,1-3.74,7.34,16.88,16.88,0,0,1-1.3,1.63,2.84,2.84,0,0,1-1.89,1.1,1.56,1.56,0,0,1-1.11-.43,1.27,1.27,0,0,1-.33-.56,1.2,1.2,0,0,1,0-.63,5.87,5.87,0,0,1,.43-1,1.31,1.31,0,0,0,.13-.4c0-.11,0-.13-.11-.19l.32-.06-2.66,3.07-.66.77.23-1,.76-3.25.42.24-1.55,1.54a19.81,19.81,0,0,1-1.61,1.54,1.69,1.69,0,0,1-1.18.4,1.25,1.25,0,0,1-1-.8,1.83,1.83,0,0,1,0-1.24,3.94,3.94,0,0,1,.54-1,2.72,2.72,0,0,1,.83-.87.81.81,0,0,1,.76,0,.7.7,0,0,1,.37.7,1.71,1.71,0,0,1-.66,1.07,9.48,9.48,0,0,1-1,.6,16.85,16.85,0,0,1-4.12,1.63l.12-.43a.71.71,0,0,0,1-.11,1.19,1.19,0,0,0,.44-1,3.57,3.57,0,0,0-1.64-2l.38-.13a7.07,7.07,0,0,1-1,2.22,2.6,2.6,0,0,1-1,.82,2.41,2.41,0,0,1-1.3.16,1.66,1.66,0,0,1-1.16-.69,1.56,1.56,0,0,1-.18-1.34,4.23,4.23,0,0,1,1.58-1.92l.18-.15.15.18a1.72,1.72,0,0,1,.26,1.71,2.46,2.46,0,0,1-1.07,1.28,3.88,3.88,0,0,1-1.5.64,2.43,2.43,0,0,1-.85,0,1,1,0,0,1-.75-.56,1,1,0,0,1,.17-.9,1.15,1.15,0,0,0,.29-.59c0-.36-.67-.5-1-.21-.72.64-.21,2-1.14,2.77l-.17.14.06-.22Z" transform="translate(-758.49 -869.4)"/><path class="cls-1" d="M941.83,915.13c.38-.07.76-.11,1.14-.17l1.13,0c.75,0,1.5,0,2.25,0s1.51,0,2.26-.08l1.12-.08c.38.06.76.09,1.15.15-.37.14-.74.24-1.11.35l-1.14.08c-.75,0-1.51.07-2.27.08s-1.52,0-2.28,0l-1.14,0A10.86,10.86,0,0,1,941.83,915.13Z" transform="translate(-758.49 -869.4)"/><path class="cls-1" d="M955.51,921.82l0,.25h-.09v-.5h.09l0,.25,0,.25h-.09v-.5h.09Z" transform="translate(-758.49 -869.4)"/><path class="cls-1" d="M982.77,894.51a.19.19,0,0,0,0,.25l0,0c0,.06,0,.06,0,0s0,0,0,0l0,0a.19.19,0,0,0,.21-.13c.12,0,.22.1.28.24a.59.59,0,0,1-.16.28.53.53,0,0,1-.67.09.52.52,0,0,1-.15-.65.59.59,0,0,1,.2-.25A.32.32,0,0,1,982.77,894.51Z" transform="translate(-758.49 -869.4)"/></svg>