<svg id="Camada_1" data-name="Camada 1" xmlns="http://www.w3.org/2000/svg" viewBox="0 0 225.69 78.19">
    <defs>
        <style>.cls-1{
            fill:none;
            }
            .cls-4{
            fill:#1d1d1b;
            }
        </style>
    </defs>
    <title>pagina1_nota1</title>
    <path class="cls-1" d="M886.13,878.71" transform="translate(-786.96 -860.61)"/>
    <path class="cls-1" d="M885.53,878.71" transform="translate(-786.96 -860.61)"/>
    <path class="cls-1" d="M885.53,878.71" transform="translate(-786.96 -860.61)"/>
    <path class="cls-1" d="M885.53,878.71" transform="translate(-786.96 -860.61)"/>
    <path class="cls-1" d="M885.53,878.71" transform="translate(-786.96 -860.61)"/>
    <path class="cls-4"
          d="M851.5,872.31c.22-1,.45-2,.65-2.94s.52-1.92.75-2.89c.46-1.94.85-3.9,1.14-5.87l.5,0c.07,2.06.23,4.12.48,6.16.13,1,.27,2,.44,3.05s.21,2.06.32,3.09c-.31-1-.57-2-.82-3s-.31-2-.43-3.08c-.25-2.06-.42-4.13-.49-6.2l.5,0c-.3,2-.69,4-1.15,5.91-.24,1-.49,1.95-.76,2.92S851.92,871.39,851.5,872.31Z"
          transform="translate(-786.96 -860.61)"/>
    <path class="cls-4"
          d="M852.5,871.49a1.93,1.93,0,0,1,.19-.38l.3-.15.59-.31.6-.31.3-.15a3.52,3.52,0,0,1,.41.07,2.69,2.69,0,0,1-.19.38l-.29.15-.6.31-.6.3-.29.16A3.34,3.34,0,0,1,852.5,871.49Z"
          transform="translate(-786.96 -860.61)"/>
    <path class="cls-4"
          d="M871.08,869l-.37,3.8-.4-.12a9.62,9.62,0,0,1,1.23-2.19,13.15,13.15,0,0,1,1.66-1.91l.16-.15.17.14a3.38,3.38,0,0,1,.84,2.18,2,2,0,0,0,.37.91,1.07,1.07,0,0,0,.72.48c.51,0,.8-.87,1.19-1.45l1.11-1.92.18-.32.23.28a7,7,0,0,1,1.55,3.67l-.27-.22A7.42,7.42,0,0,0,882.8,871a1.75,1.75,0,0,0,.89-1.27.47.47,0,0,0-.35-.45.88.88,0,0,0-.7.1,1.45,1.45,0,0,0-.66,1.35,1.92,1.92,0,0,0,.7,1.42A2.93,2.93,0,0,0,886,872a3.14,3.14,0,0,1-3.58.53,2,2,0,0,1-1-1.74,1.94,1.94,0,0,1,.92-1.81,1.41,1.41,0,0,1,1.09-.14,1,1,0,0,1,.7.92,2.2,2.2,0,0,1-1.11,1.69,7.84,7.84,0,0,1-3.58,1.27l-.25,0,0-.25a6.49,6.49,0,0,0-1.45-3.4l.41,0L877.08,871l-.56,1a1.23,1.23,0,0,1-1.08.74,1.54,1.54,0,0,1-1.1-.68,2.35,2.35,0,0,1-.46-1.12c-.13-.73-.18-1.5-.67-1.88l.33,0a13.29,13.29,0,0,0-1.59,1.84,19.75,19.75,0,0,0-1.25,2.08l-.7,1.22.29-1.34Z"
          transform="translate(-786.96 -860.61)"/>
    <path class="cls-4"
          d="M889.14,869.38a2.69,2.69,0,0,0-2,.5,2.12,2.12,0,0,0-.93,1.7c0,.57.8.79,1.44.63a3.7,3.7,0,0,0,1.72-1.08,8.13,8.13,0,0,0,1.76-3.87,28.44,28.44,0,0,1,1-4.34l.47.19a16.52,16.52,0,0,0-1.3,6.94,6.87,6.87,0,0,0,.2,1.69c.17.5.67.5,1.14.17a9.14,9.14,0,0,0,2.33-2.58l.41.23a2.28,2.28,0,0,0,1.49,3.17,2.3,2.3,0,0,1-1.72-1.18,2.43,2.43,0,0,1-.18-2.2l.4.22a8.3,8.3,0,0,1-2.46,2.75,1.58,1.58,0,0,1-1,.32,1.06,1.06,0,0,1-.86-.71,6.91,6.91,0,0,1-.24-1.87,17,17,0,0,1,1.34-7.15l.46.19a27.7,27.7,0,0,0-1,4.27,8.65,8.65,0,0,1-1.88,4.1,4.3,4.3,0,0,1-2,1.23,2.19,2.19,0,0,1-1.24-.06,1.14,1.14,0,0,1-.8-1A2.71,2.71,0,0,1,889.14,869.38Z"
          transform="translate(-786.96 -860.61)"/>
    <path class="cls-4"
          d="M896.76,864.8a.24.24,0,0,0-.23.11h-.1s0,0,0,0h0a.2.2,0,0,0,.14.21.33.33,0,0,1-.19.29.57.57,0,0,1-.29-.11.52.52,0,0,1-.2-.59.52.52,0,0,1,.5-.34.49.49,0,0,1,.29.06A.32.32,0,0,1,896.76,864.8Z"
          transform="translate(-786.96 -860.61)"/>
    <path class="cls-4"
          d="M897.42,872.9l2.65-2.27,1.32-1.13c.24-.19.41-.36.69-.58a.94.94,0,0,1,.54-.11.51.51,0,0,1,.32.11.34.34,0,0,1,.13.26.46.46,0,0,1-.08.22l0,.06-.08,0c-.93.32-2,.67-2.25,1.52a1.15,1.15,0,0,0,.15,1.18,1.48,1.48,0,0,0,1.23.29,6.12,6.12,0,0,0,4.65-3.18l.23-.43.21.42c.46.92,0,1.83.33,2.45s1.15.61,1.79.21a2.75,2.75,0,0,0,.84-.75c.23-.32.43-.68.65-1a3.4,3.4,0,0,1,2-1.71l.46-.1-.18.44a6.76,6.76,0,0,0-.4,3.53l-.43-.13,3.42-3.89.15-.17.18.13a1.24,1.24,0,0,1,.45.68,2.53,2.53,0,0,1,0,.72c0,.45-.12.88-.12,1.27a.84.84,0,0,0,.43.84,1.31,1.31,0,0,0,1-.19,23,23,0,0,0,2-1.55l2-1.63,1-.81-.62,1.12a4.43,4.43,0,0,1-1.53,1.38,2,2,0,0,0-1,1.36.8.8,0,0,0,1,.81,2,2,0,0,0,1.39-1,13.73,13.73,0,0,1,1.18-1.61,1.38,1.38,0,0,1,1-.46,1.21,1.21,0,0,1,.92.54,6,6,0,0,1,.73,1.85,2.47,2.47,0,0,0,.48.83,1,1,0,0,0,.87.33,1,1,0,0,1-.91-.29,2.52,2.52,0,0,1-.55-.82,6.11,6.11,0,0,0-.81-1.75.92.92,0,0,0-.73-.38,1,1,0,0,0-.72.41,14.76,14.76,0,0,0-1,1.63,2.93,2.93,0,0,1-.71.79,2.33,2.33,0,0,1-1,.4,1.54,1.54,0,0,1-1.12-.26,1.24,1.24,0,0,1-.46-1.09,2.51,2.51,0,0,1,1.21-1.73,4,4,0,0,0,1.37-1.21l.38.31-2,1.63-1,.82a8.36,8.36,0,0,1-1.08.79,1.72,1.72,0,0,1-1.45.21,1.33,1.33,0,0,1-.74-1.3c0-.47.09-.9.12-1.31a1,1,0,0,0-.28-1l.34,0-3.43,3.89-.35.4-.08-.52a7.25,7.25,0,0,1,.43-3.8l.28.34a2.87,2.87,0,0,0-1.63,1.49c-.22.34-.42.7-.68,1.05a3.12,3.12,0,0,1-1,.89,2.5,2.5,0,0,1-1.31.37,1.53,1.53,0,0,1-.71-.23,1.5,1.5,0,0,1-.48-.58c-.36-.93,0-1.81-.3-2.4h.43a6.62,6.62,0,0,1-5,3.45,2,2,0,0,1-1.64-.45,1.64,1.64,0,0,1-.27-1.69,2.43,2.43,0,0,1,1.12-1.24,6.65,6.65,0,0,1,1.49-.53l-.12.08s0,.09,0,.1,0,0-.09,0a.55.55,0,0,0-.31,0l-.67.5-1.39,1Z"
          transform="translate(-786.96 -860.61)"/>
    <path class="cls-4"
          d="M906.53,865.81a.18.18,0,0,0,.19.13v0a.1.1,0,0,0-.09,0,.11.11,0,0,0-.09,0v0a.17.17,0,0,0,.18-.15.26.26,0,0,1,.3,0,.49.49,0,0,1,0,.24.43.43,0,0,1-.37.32.43.43,0,0,1-.41-.28.57.57,0,0,1,0-.23A.26.26,0,0,1,906.53,865.81Z"
          transform="translate(-786.96 -860.61)"/>
    <path class="cls-4"
          d="M943,872.22l2.1-1.57c.66-.56,1.54-1,1.8-1.71.14-.37-.09-.57-.41-.49a3.64,3.64,0,0,0-1.07.52,2.41,2.41,0,0,0-1.21,1.93,1.6,1.6,0,0,0,1.54,1.4,2.84,2.84,0,0,0,2.21-.79c1.28-1.06,2-2.82,3.73-3.71l.52-.28-.17.57-.37,1.23-.4,1.28-.09-1.34a1.24,1.24,0,0,1,1-1.22,1.3,1.3,0,0,1,1.49.54,1.39,1.39,0,0,1-.23,1.56,1.48,1.48,0,0,1-1.49.53l.26-.41a5.67,5.67,0,0,0,2.52,1.64,4.25,4.25,0,0,0,2.92,0c.88-.42,1.37-1.41,2.09-2.23a3.2,3.2,0,0,1,1.42-.94,1.72,1.72,0,0,1,1.74.3l.4.4-.56,0a4.11,4.11,0,0,0-2.6.77,1.38,1.38,0,0,0-.4,1.13.92.92,0,0,0,.62.88,2.07,2.07,0,0,0,1.22-.35l1.32-.63,2.65-1.26.07,0,0,0,1.41,1.73-1.53-1.63.1,0-2.55,1.46-1.29.73a2.23,2.23,0,0,1-1.54.4,1.42,1.42,0,0,1-1-1.33,1.84,1.84,0,0,1,.55-1.54,4.56,4.56,0,0,1,2.91-.9l-.16.43a1.21,1.21,0,0,0-1.24-.18,2.74,2.74,0,0,0-1.2.79c-.67.74-1.16,1.81-2.24,2.35a4.72,4.72,0,0,1-3.29,0,6.3,6.3,0,0,1-2.75-1.79l-.57-.66.83.25a1,1,0,0,0,1-.36.91.91,0,0,0,.18-1,.8.8,0,0,0-.93-.29c-.37.09-.68.38-.64.7l-.49-.06.37-1.22.35.29c-1.49.76-2.24,2.48-3.63,3.66a3.38,3.38,0,0,1-2.59.9,2.6,2.6,0,0,1-1.32-.56,1.84,1.84,0,0,1-.66-1.32,2.9,2.9,0,0,1,1.42-2.36,3.47,3.47,0,0,1,1.27-.6.86.86,0,0,1,.81.29.79.79,0,0,1,.05.83,2.28,2.28,0,0,1-.94,1l-1.11.71Z"
          transform="translate(-786.96 -860.61)"/>
    <path class="cls-4"
          d="M981.17,872.34a6.41,6.41,0,0,1,1.37-3.56l.38-.48-.19.59a4.1,4.1,0,0,0-.19,2.26,1.53,1.53,0,0,0,1.61,1.09,2.58,2.58,0,0,0,1.9-.93,8.45,8.45,0,0,0,1.23-2l.45.2a4.19,4.19,0,0,0-.3,2.18.83.83,0,0,0,.61.63,1.54,1.54,0,0,0,1-.17,2.6,2.6,0,0,0,.85-.66,9,9,0,0,0,.61-1,4,4,0,0,1,1.65-1.88l.34-.16,0,.38a7.71,7.71,0,0,1-.65,3.31l-.1-.32a.89.89,0,0,0,1-.15,3.14,3.14,0,0,0,.81-1,6,6,0,0,1,.79-1.19,1.63,1.63,0,0,1,1.43-.61l.23,0,0,.23a4.74,4.74,0,0,0,.68,2.94h-.42a15.81,15.81,0,0,1,3.23-3.55l.22-.18.15.24a2.17,2.17,0,0,1,.08,1.67,3.32,3.32,0,0,0-.17,1.37c.1.35.52.49,1,.39a3.1,3.1,0,0,0,1.3-.52,18.83,18.83,0,0,0,2.23-2,4.39,4.39,0,0,1,2.82-1.42l0,.5a4.5,4.5,0,0,0-2.36,1.32,4.1,4.1,0,0,0-.78,1.12.85.85,0,0,0-.13.53c0,.1.08.13.28.09a11.32,11.32,0,0,0,4.49-3.34l.2-.26.08.31a15,15,0,0,0,2.17,4.91,15.54,15.54,0,0,1-2.48-4.82l.28.05a10.82,10.82,0,0,1-2,2.16,9.55,9.55,0,0,1-2.61,1.48.82.82,0,0,1-.51,0,.61.61,0,0,1-.37-.44,1.26,1.26,0,0,1,.16-.86,4.94,4.94,0,0,1,.86-1.26,5.08,5.08,0,0,1,2.63-1.47l.06.5a3.89,3.89,0,0,0-2.49,1.29,19.13,19.13,0,0,1-2.3,2.06,3.59,3.59,0,0,1-1.5.6,1.78,1.78,0,0,1-.88,0,1.13,1.13,0,0,1-.66-.69,3.41,3.41,0,0,1,.17-1.63,1.77,1.77,0,0,0,0-1.29l.37.06a15.1,15.1,0,0,0-3.14,3.44l-.22.33-.2-.34a5.28,5.28,0,0,1-.75-3.25l.21.27a1.14,1.14,0,0,0-1,.46A5.28,5.28,0,0,0,994,871a3.76,3.76,0,0,1-1,1.12,1.4,1.4,0,0,1-1.56.18l-.18-.12.09-.19a7.31,7.31,0,0,0,.6-3.09l.35.22a3.68,3.68,0,0,0-1.43,1.66,8.55,8.55,0,0,1-.65,1.05,3,3,0,0,1-1,.79,2,2,0,0,1-1.33.2,1.34,1.34,0,0,1-1-1,4.53,4.53,0,0,1,.33-2.49l.45.2a9.14,9.14,0,0,1-1.3,2.08,3,3,0,0,1-2.27,1.09,2.08,2.08,0,0,1-1.26-.4,2,2,0,0,1-.7-1.1,4.26,4.26,0,0,1,.33-2.43l.19.12A6.21,6.21,0,0,0,981.17,872.34Z"
          transform="translate(-786.96 -860.61)"/>
    <path class="cls-4"
          d="M850.55,891.45c-.16,1.51-.35,3-.53,4.54l-.78,4.49-.49-.08c.23-1.62.52-3.23.88-4.83.18-.8.38-1.59.59-2.38a17.56,17.56,0,0,1,.75-2.37,3.23,3.23,0,0,1,1.82-1.82,2,2,0,0,1,1.37,0,1.9,1.9,0,0,1,1,.94,2.46,2.46,0,0,1-.24,2.57,4.09,4.09,0,0,1-2.14,1.41l-.1-.48a8.56,8.56,0,0,0,1.86-.45,13.82,13.82,0,0,0,1.75-.8,9,9,0,0,0,3-2.53,9.29,9.29,0,0,1-2.72,2.9,6.81,6.81,0,0,1-1.81.9,9,9,0,0,1-2,.47l-.11-.49a3.56,3.56,0,0,0,1.88-1.22,2,2,0,0,0,.2-2.06,1.39,1.39,0,0,0-1.77-.68,2.72,2.72,0,0,0-1.52,1.56,16.54,16.54,0,0,0-.73,2.29c-.21.78-.4,1.57-.58,2.36-.36,1.59-.65,3.19-.88,4.79l-.49-.07.78-4.5C849.87,894.42,850.19,892.93,850.55,891.45Z"
          transform="translate(-786.96 -860.61)"/>
    <path class="cls-4"
          d="M859.38,889.73a10,10,0,0,0-1.64,3.5l-.17-.08a10.19,10.19,0,0,1,2.72-3.28,4.41,4.41,0,0,1,1-.51,2.14,2.14,0,0,1,1.16-.12,1.17,1.17,0,0,1,.59.31.84.84,0,0,1,.22.69,1.68,1.68,0,0,1-.69,1c-.27.23-.53.47-.57.68s.1.4.39.49a4.68,4.68,0,0,0,2,0,6,6,0,0,0,3.44-2l.3.38c-.83.38-1.7.92-1.61,1.77a.69.69,0,0,0,.66.71,2.47,2.47,0,0,0,1.23-.31c.77-.37,1.25-1.35.61-1.94s-1.91-.08-.69,0a7.77,7.77,0,0,0,7.59-6.69l.24.27c-.28,0-.53.33-.69.71s-.3.83-.45,1.25l-.9,2.53-1.79,5.05-3.58,10.11-.46-.18a22.41,22.41,0,0,0,1.9-8.8V894.1a1.4,1.4,0,0,1,.46-1.23,4.74,4.74,0,0,1,1.15-.39l1.11-.29L877.3,891l.16,0-.09.13a2.83,2.83,0,0,0-.34,2.51,2.91,2.91,0,0,1,.23-2.58l.07.1L873,892.52l-1.1.34a4.28,4.28,0,0,0-1,.37c-.22.15-.24.49-.22.85s0,.77,0,1.16a23,23,0,0,1-2,9l-.46-.18,3.58-10.11,1.79-5.06.9-2.53c.15-.43.28-.83.46-1.28a2.39,2.39,0,0,1,.39-.64,1.05,1.05,0,0,1,.77-.37h.28l0,.27a8.27,8.27,0,0,1-8.1,7.14,1.1,1.1,0,0,1-.84-.3.5.5,0,0,1,0-.63,1,1,0,0,1,.37-.31,1.4,1.4,0,0,1,1.58.4,1.62,1.62,0,0,1,.4.74,1.48,1.48,0,0,1-.07.84,2.27,2.27,0,0,1-1.07,1.15,2.79,2.79,0,0,1-1.51.36,1.15,1.15,0,0,1-.8-.37,1.34,1.34,0,0,1-.32-.79,1.79,1.79,0,0,1,.62-1.47,5,5,0,0,1,1.27-.79l1-.51-.75.9a6.49,6.49,0,0,1-3.73,2.18,6.61,6.61,0,0,1-1.09.12,3.48,3.48,0,0,1-1.13-.13,1.12,1.12,0,0,1-.56-.36.84.84,0,0,1-.16-.7,2,2,0,0,1,.72-.95c.26-.23.51-.47.53-.68s-.13-.39-.42-.47a2.64,2.64,0,0,0-1.83.48,9.83,9.83,0,0,0-2.77,3.06l-.34.51.17-.58A10.21,10.21,0,0,1,859.38,889.73Z"
          transform="translate(-786.96 -860.61)"/>
    <path class="cls-4" d="M878,888.23l-.14-.22,0,0,.07-.08.08-.07,0,0,.21.14.14.21,0,0-.07.08-.08.07,0,0Z"
          transform="translate(-786.96 -860.61)"/>
    <path class="cls-4"
          d="M876.92,892.66a1.09,1.09,0,0,0,1.09.59,2.06,2.06,0,0,0,1.2-.45c.66-.57,1-1.43,1.66-2.1a2.1,2.1,0,0,1,1.28-.66,1.59,1.59,0,0,1,1.43.46,1.27,1.27,0,0,1,0,1.54,3.88,3.88,0,0,1-1.07,1l0-.43a1.28,1.28,0,0,0,1.18-.09,3,3,0,0,0,1-.9,11,11,0,0,1,1-1.15,2.35,2.35,0,0,1,1.44-.7,1.41,1.41,0,0,1,1.48.75,1.73,1.73,0,0,1-.19,1.64,4.45,4.45,0,0,1-1.94,1.35.94.94,0,0,1-.47,0,.49.49,0,0,1-.29-.17.48.48,0,0,1-.09-.37l0-.15.14,0a63,63,0,0,0,7.46-3l.2.46a4.35,4.35,0,0,0-1.94,1.16,1.3,1.3,0,0,0,.19,1.8c.53.38,1.17-.31,1.73-.85a15.64,15.64,0,0,0,1.55-1.8l.35.35a1.22,1.22,0,0,0-.2,1.53,1.59,1.59,0,0,0,1.47.77,2.91,2.91,0,0,0,1.72-.63,8.28,8.28,0,0,0,1.36-1.41l.22.4c-.36,0-.61.48-.57.89a1,1,0,0,0,.79.84,2.56,2.56,0,0,0,2.42-1.15c.31-.39.73-.79.79-1.16a1,1,0,0,0-.59-1c-.79-.44-1.81,0-2.67.52l-.13-.36,6.57-.77-6.51,1.16-1,.17.86-.54a6.56,6.56,0,0,1,1.42-.73,2,2,0,0,1,1.69.12,1.5,1.5,0,0,1,.84,1.52,1.74,1.74,0,0,1-.4.79l-.5.6a4.71,4.71,0,0,1-1.24,1.06,2.33,2.33,0,0,1-1.68.25,1.63,1.63,0,0,1-.78-.43,1.27,1.27,0,0,1-.39-.85,1.55,1.55,0,0,1,.21-.89,1.12,1.12,0,0,1,.81-.54l.59-.06-.37.47a8.92,8.92,0,0,1-1.45,1.5,3.39,3.39,0,0,1-2,.73,2.12,2.12,0,0,1-1.92-1,1.72,1.72,0,0,1,.35-2.16l1.43-1.12-1.08,1.47a15.7,15.7,0,0,1-1.6,1.86,7.84,7.84,0,0,1-1,.83,1.23,1.23,0,0,1-1.4.07,1.77,1.77,0,0,1-.31-2.52,4.69,4.69,0,0,1,2.15-1.32l.19.46a63.38,63.38,0,0,1-7.52,3l.17-.2s-.06-.06,0,0a.53.53,0,0,0,.25,0,3.44,3.44,0,0,0,.6-.28,3,3,0,0,0,1-.85,1.25,1.25,0,0,0,.15-1.16.93.93,0,0,0-1-.47c-.9.07-1.45.9-2.06,1.67a3.68,3.68,0,0,1-1.17,1,1.81,1.81,0,0,1-1.64.08l-.38-.19.36-.24a3.34,3.34,0,0,0,.92-.82.83.83,0,0,0,.06-1,1.15,1.15,0,0,0-1-.35,1.63,1.63,0,0,0-1.09.48c-.64.58-1.05,1.43-1.79,2a2.17,2.17,0,0,1-1.3.4A1.13,1.13,0,0,1,876.92,892.66Z"
          transform="translate(-786.96 -860.61)"/>
    <path class="cls-4"
          d="M893,887.07c.22-.12.44-.2.66-.3l.67,0,1.35-.09,1.35-.08.68,0c.23.07.45.12.69.21a6.31,6.31,0,0,1-.66.29l-.68,0-1.35.08-1.34.09-.68,0C893.43,887.21,893.2,887.16,893,887.07Z"
          transform="translate(-786.96 -860.61)"/>
    <path class="cls-4"
          d="M921.73,890.93a2.31,2.31,0,0,0-3,.62,2.29,2.29,0,0,0,.45,3h-.1a12,12,0,0,0,5.71-8.69l.22-1.77.23,1.78c.19,1.41-.59,2.62-1.16,3.71a5.24,5.24,0,0,0-.63,1.7,3.11,3.11,0,0,0,.17,1.72,1.45,1.45,0,0,0,1.29.87,3.8,3.8,0,0,0,1.72-.4,5.05,5.05,0,0,0,2.46-2.55l.26.34a2.63,2.63,0,0,0-1.69,1,1.1,1.1,0,0,0-.24.84,1,1,0,0,0,.46.7,2.15,2.15,0,0,0,1.88-.17,5.12,5.12,0,0,0,1.6-1.33,5.91,5.91,0,0,1,1.8-1.39,2,2,0,0,1,2.3.43,1.91,1.91,0,0,1,.21,2.33,2,2,0,0,1-2.23.76l-1.27-.43,1.35-.06a10.07,10.07,0,0,0,6.93-3.26l.34.36a1.89,1.89,0,0,0-.26,2.55l-.29-.07,3.14-1.33c.52-.23,1.09-.42,1.31-.78s.09-.3-.07-.41a.4.4,0,0,0-.25-.07c-.07,0,0,0,0,0l-.26-.25,6.49-.25,1.15,0-1,.52a11.2,11.2,0,0,0-3.19,2.4l-.12-.41a3.48,3.48,0,0,0,4.08-2.07l.28.33c-.41.06-.54.71-.32,1.14a1.2,1.2,0,0,0,1.29.53,5.62,5.62,0,0,0,2.93-1.67,7.64,7.64,0,0,0,1.78-3,7,7,0,0,0,.25-3.43l.38.17a7.38,7.38,0,0,0-3.43,6.64,1.7,1.7,0,0,0,.74,1.5c.48.22,1.14-.07,1.76-.29a12.58,12.58,0,0,0,3.41-2l.25.42a2,2,0,0,0-1,2.64l-.19-.13a3.08,3.08,0,0,0,3.27-2.23l0,.18a1.61,1.61,0,0,0-2.43-.36l-.2-.42,6.64-.51.43,0-.19.39-1.44,3.07-.46-.19a4.69,4.69,0,0,1,5.51-2.68l.21.06-.11.19-1.29,2.18-.06-.2A3.38,3.38,0,0,0,974,891l.11,0-1.21,1.73v0a1.71,1.71,0,0,0,2.52.54,1.76,1.76,0,0,1-2.59-.51v0l1.18-1.76.19-.3-.08.35a3.57,3.57,0,0,1-4.7,2.4l-.15-.06.08-.14,1.23-2.21.1.25a4.29,4.29,0,0,0-4.94,2.53l-.46-.2,1.44-3.07.25.35-6.64.52-.66,0,.46-.47a2.09,2.09,0,0,1,3.23.47l0,.08,0,.09a3.57,3.57,0,0,1-3.81,2.61l-.13,0-.06-.11a2.48,2.48,0,0,1,1.25-3.34l1.51-.61-1.26,1a13.08,13.08,0,0,1-3.55,2.08,8.25,8.25,0,0,1-1,.34,1.86,1.86,0,0,1-1.16,0,1.57,1.57,0,0,1-.79-.86,3.38,3.38,0,0,1-.24-1.07,7.9,7.9,0,0,1,3.66-7.1l.31-.19.07.36a7.6,7.6,0,0,1-.26,3.67,8.1,8.1,0,0,1-1.91,3.15,6.08,6.08,0,0,1-3.23,1.82,2.31,2.31,0,0,1-1-.11,1.38,1.38,0,0,1-.79-.71,1.55,1.55,0,0,1-.11-1,1,1,0,0,1,.78-.8l.44-.07-.15.4a4,4,0,0,1-4.69,2.38l-.39-.11.28-.3a11.73,11.73,0,0,1,3.34-2.51l.12.47-6.49.25h-.36l.1-.27c.48-1.26,1.91,0,1.29.7a3.09,3.09,0,0,1-1.54,1l-3.15,1.33-.17.07-.12-.14a2.38,2.38,0,0,1,.34-3.26l.34.36a10.54,10.54,0,0,1-7.28,3.43l.07-.48a1.51,1.51,0,0,0,1.65-.57,1.41,1.41,0,0,0-.17-1.72,1.46,1.46,0,0,0-1.73-.3,5.34,5.34,0,0,0-1.64,1.28c-.26.26-.48.52-.78.79a3.89,3.89,0,0,1-1,.64,2.59,2.59,0,0,1-2.34.15,1.45,1.45,0,0,1-.7-1.06,1.62,1.62,0,0,1,.33-1.21,3.13,3.13,0,0,1,2-1.16l.44-.06-.18.41a5.54,5.54,0,0,1-2.71,2.81,4.21,4.21,0,0,1-2,.45,2,2,0,0,1-1.72-1.15,4.48,4.48,0,0,1,.48-3.88,6.34,6.34,0,0,0,1.15-3.42h.45a12.25,12.25,0,0,1-6.08,8.77l0,0,0,0a2.39,2.39,0,0,1-.41-3.16A2.35,2.35,0,0,1,921.73,890.93Z"
          transform="translate(-786.96 -860.61)"/>
    <path class="cls-4"
          d="M973.64,888a2.08,2.08,0,0,0,.21-.2l.12,0a.73.73,0,0,0,.25,0,.57.57,0,0,0,.22-.11.39.39,0,0,0,.1-.08,1.16,1.16,0,0,0,.28.05.82.82,0,0,1,.07.31l-.16.13a1.27,1.27,0,0,1-.37.18,1.4,1.4,0,0,1-.41.06l-.21,0A.72.72,0,0,1,973.64,888Z"
          transform="translate(-786.96 -860.61)"/>
    <path class="cls-4"
          d="M974.26,894c1.22-.46,2-1.52,3-2.3a4.17,4.17,0,0,1,1.75-.83,2.19,2.19,0,0,1,1.9.43l.06.06,0,.09a5,5,0,0,1-2.66,2.76l-.18-.35a3.08,3.08,0,0,1,3.78.63,3.88,3.88,0,0,1,.67,3.85,4.56,4.56,0,0,1-1,1.73,3.74,3.74,0,0,1-1.76,1,2.14,2.14,0,0,1-2-.46,2.18,2.18,0,0,1-.57-2,3.29,3.29,0,0,1,1-1.79,8,8,0,0,1,1.58-1.17l3.27-2,6.53-4,2-1.21-1.67,1.6a8.15,8.15,0,0,1-4.52,2.18l.21-.29a1.4,1.4,0,0,0,.89,1,2.22,2.22,0,0,0,1.46.08,5.9,5.9,0,0,0,2.44-2l.28.39c-.66.22-.43,1.34.15,1.78a1.31,1.31,0,0,0,1,.24,2.82,2.82,0,0,0,1.12-.44,26,26,0,0,0,2-1.63,3.33,3.33,0,0,1,2.65-.79l2,.47-2.08,0a4.38,4.38,0,0,0-2,.52,4.16,4.16,0,0,0-.87.62,1.09,1.09,0,0,0-.47.75.7.7,0,0,0,.52.57,1.07,1.07,0,0,0,.88-.11,6.64,6.64,0,0,0,1.49-1.54,35.6,35.6,0,0,0,4.73-7.55l.43.24a28.2,28.2,0,0,0-2,3.76q-.43,1-.78,2a11.58,11.58,0,0,0-.58,2c-.08.65.14,1.4.71,1.29a2.76,2.76,0,0,0,.86-.43l.91-.58,3.64-2.29.88-.56-.53.9a2.46,2.46,0,0,1-1.23.93c-.45.18-.91.3-1.29.5a1.49,1.49,0,0,0-.68,1c-.11.4.05.76.45.77a2,2,0,0,0,1.08-.62l1.06-.92,2.13-1.85.15-.13v.19a4.21,4.21,0,0,0,3.53,3.75,4.3,4.3,0,0,1-3.72-3.73l.16.06-2.06,1.92-1,1a2.13,2.13,0,0,1-1.31.75.85.85,0,0,1-.76-.41,1.17,1.17,0,0,1-.11-.83,2,2,0,0,1,.88-1.29c.87-.49,1.9-.58,2.32-1.27l.35.34-3.65,2.3-.91.57a2.7,2.7,0,0,1-1.05.5,1.07,1.07,0,0,1-1.13-.64,2.46,2.46,0,0,1-.14-1.19,11.36,11.36,0,0,1,.59-2.12c.25-.69.51-1.36.8-2a29.85,29.85,0,0,1,2-3.83l.44.24a36.19,36.19,0,0,1-4.79,7.66,6.93,6.93,0,0,1-1.64,1.65,1.38,1.38,0,0,1-2.14-.88,1.57,1.57,0,0,1,.63-1.14,5.11,5.11,0,0,1,1-.68,4.85,4.85,0,0,1,2.27-.58l0,.49a2.79,2.79,0,0,0-2.24.7c-.68.5-1.29,1.18-2.08,1.66a3.31,3.31,0,0,1-1.31.5,1.77,1.77,0,0,1-1.44-.35,2.07,2.07,0,0,1-.72-1.28,1.2,1.2,0,0,1,.71-1.35l.86-.29-.58.69a6.25,6.25,0,0,1-2.67,2.15,2.65,2.65,0,0,1-1.8-.09A1.91,1.91,0,0,1,985,892l0-.26.25,0a7.65,7.65,0,0,0,4.25-2l.3.4-6.53,4L980,896c-1.06.64-2.14,1.44-2.32,2.62a1.68,1.68,0,0,0,.43,1.55,1.61,1.61,0,0,0,1.55.33,3.21,3.21,0,0,0,1.53-.86,4,4,0,0,0,.9-1.54,3.34,3.34,0,0,0-.56-3.34,2.68,2.68,0,0,0-3.2-.64l-.18-.36a4.66,4.66,0,0,0,2.56-2.49l0,.15a2,2,0,0,0-1.69-.43,4.15,4.15,0,0,0-1.7.73C976.35,892.5,975.49,893.55,974.26,894Z"
          transform="translate(-786.96 -860.61)"/>
    <path class="cls-4"
          d="M848.7,914.38l3.27-2.45v.14a1.13,1.13,0,0,0-1.31.06,1.76,1.76,0,0,0-.69,1.21,6.63,6.63,0,0,0-.06,1.48c0,.51.26.83.71.71a8.5,8.5,0,0,0,2.53-1.46,9,9,0,0,0,2-2.18l.36-.56.1.66a9.52,9.52,0,0,1-.33,4.14l-.45-.21a14.4,14.4,0,0,1,4.07-4.23l.47-.32-.08.56a7.42,7.42,0,0,0,.44,3.7l-.27-.16a4.25,4.25,0,0,0,2.44-1.38,8.85,8.85,0,0,0,1.55-2.48c.79-1.81,1.26-3.87,2.6-5.52l.84-1-.41,1.28L865,910.9l-.74,2.28a2.47,2.47,0,0,0,0,2.07c.41.5,1.25.17,1.86-.23a22.12,22.12,0,0,0,1.83-1.51,14.08,14.08,0,0,1,2-1.39,7.25,7.25,0,0,1,1.13-.52,1.88,1.88,0,0,1,1.35-.05l1,.38-1.05.09a7.25,7.25,0,0,0-2.48,1,4.65,4.65,0,0,0-1.06.76,1.28,1.28,0,0,0-.24,1.1.67.67,0,0,0,.81.48,4.34,4.34,0,0,0,1.21-.53,5.55,5.55,0,0,0,1.12-.73,4.28,4.28,0,0,0,.8-1.06l.84-1.42-.38,1.61c0,.17-.09.35-.11.5a.82.82,0,0,0,.06.43,3.52,3.52,0,0,0,.44.89,1.53,1.53,0,0,0,.16.13.33.33,0,0,0,.15,0,1.7,1.7,0,0,0,.48-.05,6.14,6.14,0,0,0,1-.3,5.82,5.82,0,0,0,3-2.78l.29.35c-.71.16-.76,1.32-.27,1.86a.9.9,0,0,0,1,.29,1.51,1.51,0,0,0,.89-.69,1.7,1.7,0,0,0,.31-1.12,1.76,1.76,0,0,0-.54-1,2.68,2.68,0,0,0-2.36-.63v-.27a12.64,12.64,0,0,0,6.7-.5,12.83,12.83,0,0,1-6.75.78l-.66-.11.65-.17a3,3,0,0,1,2.69.61,2.17,2.17,0,0,1,.72,1.28,2.23,2.23,0,0,1-.32,1.45,2,2,0,0,1-1.2.91,1.44,1.44,0,0,1-1.47-.45,1.94,1.94,0,0,1-.44-1.45,1.35,1.35,0,0,1,1-1.22l.53-.13-.24.48a6.3,6.3,0,0,1-3.31,3,5.82,5.82,0,0,1-1.1.33,2.25,2.25,0,0,1-.61.06.92.92,0,0,1-.37-.11,1.43,1.43,0,0,1-.26-.22,3.48,3.48,0,0,1-.55-1.06,1.29,1.29,0,0,1-.08-.65,4.44,4.44,0,0,1,.11-.57l.46.18a5,5,0,0,1-.89,1.18,5.88,5.88,0,0,1-1.23.8,4.43,4.43,0,0,1-1.36.58,1.23,1.23,0,0,1-.85-.14,1.19,1.19,0,0,1-.52-.69,1.78,1.78,0,0,1,.33-1.56,5,5,0,0,1,1.21-.87,14,14,0,0,1,1.28-.65,4.31,4.31,0,0,1,1.44-.4l-.1.48a1.57,1.57,0,0,0-1,.07,6.24,6.24,0,0,0-1,.49,14.18,14.18,0,0,0-1.94,1.33,20.64,20.64,0,0,1-1.86,1.55,3.69,3.69,0,0,1-1.18.52,1.32,1.32,0,0,1-1.34-.38,1.94,1.94,0,0,1-.37-1.3,4.68,4.68,0,0,1,.22-1.25l.74-2.29,1.48-4.57.43.24c-1.24,1.52-1.71,3.53-2.52,5.4a9.12,9.12,0,0,1-1.65,2.62,4.76,4.76,0,0,1-2.72,1.54l-.2,0-.07-.18a8,8,0,0,1-.48-3.95l.39.24a13.9,13.9,0,0,0-3.93,4.08l-1,1.63.58-1.83a8.82,8.82,0,0,0,.31-3.92l.46.1a9.84,9.84,0,0,1-2.1,2.31,7.66,7.66,0,0,1-2.78,1.47.92.92,0,0,1-.88-.27,1.29,1.29,0,0,1-.26-.83,7.42,7.42,0,0,1,.13-1.56,2,2,0,0,1,.85-1.34,1.31,1.31,0,0,1,1.54,0l.09.07-.09.06Z"
          transform="translate(-786.96 -860.61)"/>
    <path class="cls-4"
          d="M872,909.84c.21-.13.41-.22.62-.34l.64-.1c.42-.08.85-.17,1.27-.27s.84-.21,1.25-.33l.62-.2.7,0c-.17.17-.36.3-.54.45l-.63.2c-.43.12-.86.24-1.29.34l-1.29.27-.66.11A5.73,5.73,0,0,1,872,909.84Z"
          transform="translate(-786.96 -860.61)"/>
    <path class="cls-4"
          d="M861.47,909.18c.22-.14.44-.24.67-.37l.71-.11,1.42-.24,1.42-.24.71-.13c.25,0,.5.07.76.13-.22.14-.45.24-.67.37l-.72.12-1.42.24-1.42.24-.71.12A6.54,6.54,0,0,1,861.47,909.18Z"
          transform="translate(-786.96 -860.61)"/>
    <path class="cls-4"
          d="M898,916.11c.59-1.7,1.13-3.42,1.6-5.16.24-.87.45-1.74.66-2.61s.46-1.74.65-2.61l.49.11a30.43,30.43,0,0,0-.74,7.55l0,1a3.46,3.46,0,0,0,.11.86c.09.41.85.12,1.41-.05a10.16,10.16,0,0,0,3.26-1.82c.46-.39,1-.84,1-1.33s-.64-.64-1.15-.47a1.77,1.77,0,0,0-.94,2.69,2.54,2.54,0,0,0,3.2.17,7.8,7.8,0,0,0,2.29-2.88l.17-.3.23.26a1.77,1.77,0,0,1,.33,1.43c-.06.46-.18.87-.22,1.28a1.1,1.1,0,0,0,.26,1,1.15,1.15,0,0,0,1,.18,3.33,3.33,0,0,0,2-1.26.81.81,0,0,0,0-1c-.2-.3-.56-.45-.77-.28l-.07-.44a4.47,4.47,0,0,0,2.73,0,4.24,4.24,0,0,0,1.23-.64,2.92,2.92,0,0,0,.28-.21.54.54,0,0,0,.17-.2.52.52,0,0,0,.08-.24c0-.08,0,0,0-.05h.09a2.8,2.8,0,0,0-1.3.93,2,2,0,0,0-.46,1.51,1.54,1.54,0,0,0,1,1.18,1.28,1.28,0,0,0,1.54-.33,1.32,1.32,0,0,1-1.57.43,1.69,1.69,0,0,1-1.2-1.25,2.23,2.23,0,0,1,.41-1.73,3.28,3.28,0,0,1,1.41-1.14l0,0h.05a.45.45,0,0,1,.32.15.55.55,0,0,1,.11.3,1,1,0,0,1-.1.47,1,1,0,0,1-.28.36,1.81,1.81,0,0,1-.3.25,4.67,4.67,0,0,1-1.37.7,5,5,0,0,1-3.05,0l-.46-.15.39-.29a.92.92,0,0,1,.86-.1,1.31,1.31,0,0,1,.62.49,1.35,1.35,0,0,1,.26.74,1.56,1.56,0,0,1-.21.75,2.83,2.83,0,0,1-1,1,4.27,4.27,0,0,1-1.28.53,1.63,1.63,0,0,1-1.45-.3,1.59,1.59,0,0,1-.42-1.41c.05-.46.17-.89.22-1.29a1.28,1.28,0,0,0-.2-1l.4,0a8.26,8.26,0,0,1-2.45,3.05,3.4,3.4,0,0,1-2,.56,2.53,2.53,0,0,1-1.89-.82,2,2,0,0,1-.31-2.06,2.37,2.37,0,0,1,1.49-1.44,1.8,1.8,0,0,1,1.1,0,1,1,0,0,1,.69,1,2.78,2.78,0,0,1-1.19,1.69,10.83,10.83,0,0,1-3.42,1.9,8.35,8.35,0,0,1-1,.27,1.14,1.14,0,0,1-.6,0,.78.78,0,0,1-.47-.47,3.27,3.27,0,0,1-.15-1l0-1a30.48,30.48,0,0,1,.75-7.68l.49.11c-.21.88-.41,1.76-.65,2.63s-.54,1.73-.83,2.58Q899.07,913.62,898,916.11Z"
          transform="translate(-786.96 -860.61)"/>
    <path class="cls-4"
          d="M897.77,909.24c.26-.17.53-.31.79-.46l.86-.21,1.73-.39,1.74-.34.88-.14c.3,0,.6,0,.91.11-.28.14-.56.25-.83.38l-.87.15-1.73.33-1.71.38-.85.22C898.38,909.26,898.08,909.27,897.77,909.24Z"
          transform="translate(-786.96 -860.61)"/>
    <path class="cls-4"
          d="M935.36,912.58a.88.88,0,0,0-.69-.83,1.34,1.34,0,0,0-1.08.17,5.12,5.12,0,0,0-1.58,1.63,1.22,1.22,0,0,0-.16.94.92.92,0,0,0,.71.55,2.49,2.49,0,0,0,2.05-.45,4.9,4.9,0,0,0,1.48-1.68,8.38,8.38,0,0,0,.78-2.17,12.3,12.3,0,0,1,1.63-4.53l1-1.36-.56,1.59a47.54,47.54,0,0,0-1.77,6.44,5.5,5.5,0,0,0-.17,1.58,1,1,0,0,0,.84.91,3.55,3.55,0,0,0,1.53-.27c.53-.17,1-.35,1.56-.57a5,5,0,0,0,2.44-1.92c.09-.22,0-.33-.07-.37a1.14,1.14,0,0,0-.64.1,2.82,2.82,0,0,0-1.26.85,1.26,1.26,0,0,0-.13,1.32,2,2,0,0,0,1.18.92,4.77,4.77,0,0,0,3.14-.69,4.8,4.8,0,0,1-3.21,1,2.31,2.31,0,0,1-1.49-1,1.6,1.6,0,0,1-.24-.94,1.73,1.73,0,0,1,.35-.9,3.23,3.23,0,0,1,1.48-1,1.5,1.5,0,0,1,1-.12.67.67,0,0,1,.43.48.92.92,0,0,1-.07.56,5.29,5.29,0,0,1-2.7,2.19c-.53.23-1.07.41-1.6.59a4.16,4.16,0,0,1-1.75.29,1.5,1.5,0,0,1-.89-.45,1.6,1.6,0,0,1-.38-.9,5.45,5.45,0,0,1,.17-1.74,47.53,47.53,0,0,1,1.79-6.51l.43.24a12.2,12.2,0,0,0-1.55,4.35A6.69,6.69,0,0,1,934.9,915a3,3,0,0,1-2.46.51,1.42,1.42,0,0,1-1.07-.87,1.58,1.58,0,0,1,.28-1.32,5.14,5.14,0,0,1,1.85-1.59,1.46,1.46,0,0,1,1.21-.09A1,1,0,0,1,935.36,912.58Z"
          transform="translate(-786.96 -860.61)"/>
    <path class="cls-4"
          d="M959.27,911.88a3.43,3.43,0,0,0-3,.11,2.58,2.58,0,0,0-1.09,1,1.51,1.51,0,0,0-.19,1.32,1.14,1.14,0,0,0,1.09.64,2.29,2.29,0,0,0,1.36-.41c.83-.59,1.37-1.57,2.26-2.29l.81-.65-.42.94a3.64,3.64,0,0,0-.24,2.16c0,.36.25.66.41.6s.52-.41.79-.65c.56-.53,1-1.16,1.55-1.73A18.67,18.67,0,0,0,964,911a14.6,14.6,0,0,1-1.1,2.11A11.16,11.16,0,0,1,961.4,915l-.44.42a1.27,1.27,0,0,1-.61.37.74.74,0,0,1-.75-.35,1.74,1.74,0,0,1-.24-.64,4.15,4.15,0,0,1,.27-2.46l.38.3c-.8.63-1.33,1.62-2.28,2.3a2.71,2.71,0,0,1-1.67.51,1.64,1.64,0,0,1-1.53-.94,2,2,0,0,1,.22-1.77,3.15,3.15,0,0,1,1.3-1.16A3.22,3.22,0,0,1,959.27,911.88Z"
          transform="translate(-786.96 -860.61)"/>
    <path class="cls-4"
          d="M964.35,911a.67.67,0,0,1,.87,0,.9.9,0,0,1,.38.84,1.68,1.68,0,0,1-1.36,1.21V913a3.41,3.41,0,0,1,2.16,3.15l-.21-.08a13.43,13.43,0,0,0,2.56-4.91l.08-.31.25.21,1.71,1.47.15.13-.11.17a4.19,4.19,0,0,1-1.8,1.61l-.25-.44a1.31,1.31,0,0,1,.84-.23,1.93,1.93,0,0,1,.76.28c.43.26.79.57,1.16.84a3.06,3.06,0,0,0,1.14.57,1.66,1.66,0,0,0,1.16-.31,13.61,13.61,0,0,0,1.89-2,3.73,3.73,0,0,1,1.23-.86,1.77,1.77,0,0,1,1.57,0l.31.18-.26.23c-.84.7-1.93.64-2.6,1.08a1.46,1.46,0,0,0-.61,1c0,.36.22.6.62.59a3.25,3.25,0,0,0,2.23-1.19,10.87,10.87,0,0,0,1.49-2.29l.45.21a3.22,3.22,0,0,0-.39,1.89c.11.54.8,1,1.22.73a2.55,2.55,0,0,0,.6-.73l.58-.88,1.18-1.76.34-.51.11.6a7.32,7.32,0,0,1-.28,3.77l-.39-.27a13.86,13.86,0,0,0,3.13-3.61l.16-.27.23.21a1.18,1.18,0,0,1,.34.76,2.78,2.78,0,0,1-.09.72,10.05,10.05,0,0,0-.3,1.24.54.54,0,0,0,.43.69,1.78,1.78,0,0,0,1-.42,13.56,13.56,0,0,0,3.51-3.73l.56-.88-.1,1a52.51,52.51,0,0,1-1.67,9c-.21.74-.42,1.47-.67,2.2a11.39,11.39,0,0,1-.86,2.17,3.9,3.9,0,0,1-1.7,1.71,1.83,1.83,0,0,1-2.29-.79,2.83,2.83,0,0,1-.11-2.44,5.35,5.35,0,0,1,1.5-1.85c1.21-1,2.38-1.89,3.48-3a34.92,34.92,0,0,0,5.67-7.08l.42.27a13.52,13.52,0,0,0-1.11,2,8,8,0,0,0-.4,1c-.09.34-.07.7.12.79s.49,0,.75-.23a6,6,0,0,0,.72-.84,7.59,7.59,0,0,0,1-2l.35-1.07.14,1.12c.15,1.16.28,2.32.4,3.48l-.11-.16c.64.38,1.48-.25,1.87-.93s.54-1.63,1-2.4a1.47,1.47,0,0,1,2.4-.31.82.82,0,0,1,.25.67.87.87,0,0,1-.4.58c-.36.25-.85.35-1,.75l0-.07,3.36,2-3.42-1.93,0,0,0,0c.17-.49.69-.59,1-.84a.75.75,0,0,0,.32-.47.68.68,0,0,0-.22-.51,1.35,1.35,0,0,0-1.11-.38,1.34,1.34,0,0,0-.91.71c-.45.71-.54,1.59-1,2.42a2.78,2.78,0,0,1-.94,1,1.4,1.4,0,0,1-1.45.11l-.1,0v-.11c-.17-1.16-.33-2.32-.47-3.48l.49,0a8.13,8.13,0,0,1-1.1,2.13,6.28,6.28,0,0,1-.8.92,1.78,1.78,0,0,1-.58.36.92.92,0,0,1-.77-.07.88.88,0,0,1-.39-.68,1.59,1.59,0,0,1,.06-.66,8.84,8.84,0,0,1,.43-1.13,14,14,0,0,1,1.14-2.08l.42.27a35.22,35.22,0,0,1-5.75,7.18,44.34,44.34,0,0,1-3.49,3,4.86,4.86,0,0,0-1.37,1.67,2.35,2.35,0,0,0,.08,2,1.32,1.32,0,0,0,1.67.57,3.32,3.32,0,0,0,1.45-1.49,11.28,11.28,0,0,0,.83-2.08c.24-.72.45-1.44.66-2.18a51.12,51.12,0,0,0,1.65-9l.46.16a13.84,13.84,0,0,1-3.64,3.87,2.09,2.09,0,0,1-1.37.5,1,1,0,0,1-.72-.44,1.1,1.1,0,0,1-.16-.79,9,9,0,0,1,.32-1.31,1,1,0,0,0-.11-1l.38,0a14,14,0,0,1-3.25,3.73l-.68.56.29-.83a6.9,6.9,0,0,0,.26-3.52l.45.09-1.17,1.77-.59.88a2.91,2.91,0,0,1-.74.88,1.17,1.17,0,0,1-1.27-.06,1.63,1.63,0,0,1-.71-1,3.67,3.67,0,0,1,.42-2.2l.45.22a11.09,11.09,0,0,1-1.56,2.4,3.72,3.72,0,0,1-2.6,1.35,1.18,1.18,0,0,1-.82-.29,1,1,0,0,1-.3-.85,2,2,0,0,1,.82-1.34c.93-.55,1.93-.48,2.55-1l0,.41c-.7-.41-1.6.11-2.21.73a13.52,13.52,0,0,1-2,2.08,2.11,2.11,0,0,1-1.51.38,3.25,3.25,0,0,1-1.37-.66c-.39-.28-.74-.59-1.12-.81a.9.9,0,0,0-1-.07l-.26-.44a3.86,3.86,0,0,0,1.61-1.39l0,.31-1.66-1.52.33-.1a13.64,13.64,0,0,1-2.77,5l-.22.25v-.33a3.24,3.24,0,0,0-2-3L964,913l.18,0a1.58,1.58,0,0,0,1.33-1.1.88.88,0,0,0-.33-.81A.67.67,0,0,0,964.35,911Z"
          transform="translate(-786.96 -860.61)"/>
    <path class="cls-4" d="M992.25,906.83l.14.21,0,0-.08.07-.07.08,0,0-.21-.14-.14-.22,0,0,.07-.07.08-.08,0,0Z"
          transform="translate(-786.96 -860.61)"/>
    <path class="cls-4"
          d="M854,932.38a4.23,4.23,0,0,0-1.87,2.08,1.87,1.87,0,0,0,.1,1.32,1.05,1.05,0,0,0,1,.6,1.4,1.4,0,0,0,1.28-1.72,1.79,1.79,0,0,0-2.06-1l0-.49a8.16,8.16,0,0,0,5.57-1l.22-.14.13.24a2,2,0,0,1,.09,1.44c-.12.45-.31.86-.45,1.25-.28.72-.29,1.75.4,1.93a1.25,1.25,0,0,0,1-.26,4.71,4.71,0,0,0,.87-.86,7.65,7.65,0,0,0,1.24-2.19l.1-.28.26.15a.9.9,0,0,1,.41.59,1.81,1.81,0,0,1,0,.62c-.08.37-.2.7-.25,1a1,1,0,0,0,.12.81,1.19,1.19,0,0,0,.75.39,2.5,2.5,0,0,0,1.82-.5,6.25,6.25,0,0,0,1.45-1.41,38.75,38.75,0,0,0,2.2-3.57l2.13-3.65.45.22-1.27,3.17c-.43,1.05-.82,2.12-1.28,3.16a3.25,3.25,0,0,0-.44,1.53,1.3,1.3,0,0,0,1,1,2.21,2.21,0,0,0,1.59-.19,7.89,7.89,0,0,0,1.4-1,8.12,8.12,0,0,1-1.34,1.06,2.32,2.32,0,0,1-1.71.31,1.58,1.58,0,0,1-1.29-1.21,3.68,3.68,0,0,1,.35-1.75c.39-1.08.85-2.12,1.26-3.18l1.27-3.17.45.22-2.14,3.65a37.23,37.23,0,0,1-2.24,3.62,6.3,6.3,0,0,1-1.56,1.53,3,3,0,0,1-2.17.57,1.67,1.67,0,0,1-1.08-.57,1.52,1.52,0,0,1-.22-1.21c.07-.37.19-.71.26-1s0-.57-.16-.68l.37-.13a7.89,7.89,0,0,1-1.32,2.33,5,5,0,0,1-1,1,1.71,1.71,0,0,1-1.44.33,1.34,1.34,0,0,1-.91-1.18,3,3,0,0,1,.19-1.4c.31-.81.72-1.64.39-2.29l.35.1a8.75,8.75,0,0,1-5.92,1.1l-1.15-.21,1.13-.28A2.25,2.25,0,0,1,855,934.5a1.63,1.63,0,0,1-.29,1.6,2,2,0,0,1-1.44.68,1.41,1.41,0,0,1-1.3-.87,2.07,2.07,0,0,1,0-1.51A4.25,4.25,0,0,1,854,932.38Z"
          transform="translate(-786.96 -860.61)"/>
    <path class="cls-4"
          d="M864.5,931.37c.33-.14.66-.25,1-.38l1-.13,2-.32,2-.38,1-.2c.35,0,.69,0,1,0-.31.18-.63.31-.94.47l-1,.2-2,.38-2,.32-1,.14C865.2,931.46,864.85,931.43,864.5,931.37Z"
          transform="translate(-786.96 -860.61)"/>
    <path class="cls-4"
          d="M870.77,936a3.25,3.25,0,0,0,3.21-3.16v0l0-.06a.87.87,0,0,1,.83-.47,1.42,1.42,0,0,1,.82.33,1.2,1.2,0,0,1,.45.76,2,2,0,0,1-.05.84,5.29,5.29,0,0,1-.67,1.37c-.26.39-.22.72.14.84a1.84,1.84,0,0,0,1.23-.14,7.68,7.68,0,0,0,1.17-.78,8.19,8.19,0,0,0,1.85-2.13l.26.37c-.76.11-.95,1.48-.27,1.9a2,2,0,0,0,2.68-2.71c-.48-.63-1.79-.59-2,.16l-.15-.32a5.28,5.28,0,0,0,5.25-1.09l.28-.26.13.35a6.51,6.51,0,0,1,.55,2.83,2.76,2.76,0,0,1-.58,1.4,1.91,1.91,0,0,1-1.36.71l-1.39.05,1.3-.43a12.06,12.06,0,0,1,4.33-.58,11.74,11.74,0,0,0-4.19.95l-.08-.38a2,2,0,0,0,1.47-1.78,6,6,0,0,0-.52-2.6l.4.1a5.75,5.75,0,0,1-5.76,1.2l-.23-.08.08-.24a1.52,1.52,0,0,1,1.38-.93,1.84,1.84,0,0,1,1.52.63,2.37,2.37,0,0,1-.36,3,2.4,2.4,0,0,1-3,.41,1.6,1.6,0,0,1-.6-1.54A1.39,1.39,0,0,1,880,933.2l.53-.08-.28.45a8.74,8.74,0,0,1-2,2.27,7.94,7.94,0,0,1-1.26.85,2.3,2.3,0,0,1-1.62.15.9.9,0,0,1-.63-.71,1.25,1.25,0,0,1,.23-.86,4.79,4.79,0,0,0,.62-1.24,1,1,0,0,0-.24-1.08c-.3-.25-.77-.29-.92,0l0-.11A3.45,3.45,0,0,1,870.77,936Z"
          transform="translate(-786.96 -860.61)"/>
    <path class="cls-4"
          d="M903.23,937.76a33.57,33.57,0,0,0,3-5.71,35.82,35.82,0,0,0,1.89-6.15l.5.11-1.27,5.54c-.2.92-.45,1.84-.58,2.75a3.41,3.41,0,0,0,.44,2.54,1.7,1.7,0,0,0,2.17.7,8.6,8.6,0,0,0,2-1.81,42.77,42.77,0,0,1,4.27-3.8l.63-.49-.24.77a5,5,0,0,1-2.58,3l-.21-.46a1.19,1.19,0,0,1,.7-.06,1.72,1.72,0,0,1,.55.31c.31.25.54.53.79.77.48.52,1.08.77,1.61.39a6.39,6.39,0,0,0,1.34-1.57,3.12,3.12,0,0,1,.87-.78,1.43,1.43,0,0,1,1.25-.12l.31.13-.21.25c-.62.76-1.53,1.05-1.95,1.69a1.16,1.16,0,0,0-.21,1,.71.71,0,0,0,.79.43,3.05,3.05,0,0,0,1.91-1.36,6,6,0,0,0,1.06-2.25l.48.14a4.37,4.37,0,0,0-.3,1.93,1.25,1.25,0,0,0,.37.77,1,1,0,0,0,.77.23,3,3,0,0,0,1.6-1,12.37,12.37,0,0,0,1.32-1.56A13.86,13.86,0,0,0,929,926.4l.37.22a6,6,0,0,0-2.49,3,19.86,19.86,0,0,0-1.1,4,4.83,4.83,0,0,0-.07,2,1.92,1.92,0,0,0,1.16,1.37,1.26,1.26,0,0,0,1.52-.72,1.31,1.31,0,0,0-.6-1.63l-.3-.15.33,0a40.14,40.14,0,0,0,4.74-.82,41.71,41.71,0,0,1-4.72,1l0-.19a1.56,1.56,0,0,1,.78,1.92,1.61,1.61,0,0,1-1.89,1,2.29,2.29,0,0,1-1.5-1.61,4.68,4.68,0,0,1,0-2.17,20.79,20.79,0,0,1,1.14-4.06,6.39,6.39,0,0,1,2.71-3.27l.38-.21v.43a14.43,14.43,0,0,1-2.73,7.93A14.22,14.22,0,0,1,925.4,936a3.38,3.38,0,0,1-1.89,1.15,1.47,1.47,0,0,1-1.16-.35,1.66,1.66,0,0,1-.53-1.07,4.79,4.79,0,0,1,.32-2.17l.47.14a6.29,6.29,0,0,1-1.14,2.44,3.53,3.53,0,0,1-2.26,1.56,1.22,1.22,0,0,1-1.31-.76,1.66,1.66,0,0,1,.27-1.46c.58-.83,1.5-1.09,2-1.72l.1.39c-.52-.22-1.13.23-1.55.75a6.25,6.25,0,0,1-1.45,1.68,1.48,1.48,0,0,1-1.23.21,2.47,2.47,0,0,1-1-.66c-.5-.49-1-1.17-1.48-.92l-.21-.45a4.47,4.47,0,0,0,2.31-2.66l.39.27a42.72,42.72,0,0,0-4.21,3.75,8.86,8.86,0,0,1-2.19,1.91,2.13,2.13,0,0,1-1.57.1,2.58,2.58,0,0,1-1.22-1,4,4,0,0,1-.53-2.9c.14-1,.39-1.87.59-2.8l1.26-5.53.5.11a32.46,32.46,0,0,1-2.14,6.15A34.05,34.05,0,0,1,903.23,937.76Z"
          transform="translate(-786.96 -860.61)"/>
    <path class="cls-4"
          d="M933.15,933.84a2.3,2.3,0,0,0-2.36,1,1.64,1.64,0,0,0-.27,1.26.84.84,0,0,0,1,.52,4.38,4.38,0,0,0,2.26-1.35,5.54,5.54,0,0,0,1.32-2.3l.38.16a3.75,3.75,0,0,0-.66,1.86c0,.6.41,1.24,1,1.23a3.92,3.92,0,0,0,1.75-.84,12.59,12.59,0,0,0,1.59-1.33,12.82,12.82,0,0,0,3.72-7.28l.41.23a11.41,11.41,0,0,0-2.84,3.31,10.47,10.47,0,0,0-.9,2,5.75,5.75,0,0,0-.39,2.11,2.4,2.4,0,0,0,.71,1.83,1.68,1.68,0,0,0,1.84.09,6.08,6.08,0,0,0,1.65-1.36c.5-.55,1-1.1,1.48-1.67a16.65,16.65,0,0,0,2.46-3.64,3,3,0,0,0,.33-1,.53.53,0,0,0-.45-.55c-.62-.16-1.13.38-1.41,1a40,40,0,0,0-2.42,8.54l-.46-.18a11,11,0,0,1,3.79-3.45l.15-.09.15.13a.89.89,0,0,1,.26.78,2.12,2.12,0,0,1-.24.67,4,4,0,0,0-.45,1.08.63.63,0,0,0,.42.74,1.91,1.91,0,0,0,1.09.05,5,5,0,0,0,2-1.21,6.07,6.07,0,0,0,1.38-2l.12-.29.26.19a.65.65,0,0,1,.27.5,1.14,1.14,0,0,1-.13.47c-.14.25-.29.44-.41.64-.28.4-.33.72,0,1a1,1,0,0,0,1.09.27,2.54,2.54,0,0,0,1.11-.72,2.22,2.22,0,0,0,.67-2.38c-.31-.71-1.69-.89-1.92-.15l-.15-.31a4.54,4.54,0,0,0,5-1.43l.13-.16.16.12a3,3,0,0,1,1,2.85,2.93,2.93,0,0,1-1.8,2.36l-.7.24.61-.41a7.38,7.38,0,0,1,5-1.19,7.3,7.3,0,0,0-4.88,1.35l-.09-.17a2.68,2.68,0,0,0,1.57-2.22,2.62,2.62,0,0,0-1-2.48l.29,0a4.78,4.78,0,0,1-5.46,1.64l-.23-.08.08-.23a1.14,1.14,0,0,1,.61-.68,1.67,1.67,0,0,1,.85-.12,1.7,1.7,0,0,1,1.38.89,2.17,2.17,0,0,1,.06,1.62,3.38,3.38,0,0,1-.82,1.33,3.08,3.08,0,0,1-1.34.85,1.51,1.51,0,0,1-1.59-.41,1.22,1.22,0,0,1-.33-.85,1.67,1.67,0,0,1,.32-.79c.27-.4.61-.89.39-.94l.38-.11a6.5,6.5,0,0,1-1.49,2.13,5.56,5.56,0,0,1-2.26,1.34,2.42,2.42,0,0,1-1.38-.08,1.21,1.21,0,0,1-.6-.5,1.24,1.24,0,0,1-.12-.77,4.45,4.45,0,0,1,.49-1.23c.19-.37.29-.7.08-.87l.29,0a10.45,10.45,0,0,0-3.61,3.29l-.65.95.19-1.13A41,41,0,0,1,945.3,929a2.77,2.77,0,0,1,.7-1,1.43,1.43,0,0,1,1.27-.31,1.12,1.12,0,0,1,.61.35,1,1,0,0,1,.23.69,3.44,3.44,0,0,1-.37,1.16,17.5,17.5,0,0,1-2.54,3.76c-.49.57-1,1.12-1.49,1.68a6.6,6.6,0,0,1-1.8,1.46,2.14,2.14,0,0,1-2.37-.15,2.86,2.86,0,0,1-.9-2.2,6.23,6.23,0,0,1,.41-2.28,12,12,0,0,1,3.91-5.53l.49-.39-.09.62a13.33,13.33,0,0,1-3.87,7.57,12.93,12.93,0,0,1-1.66,1.38,4.06,4.06,0,0,1-2,.93,1.37,1.37,0,0,1-1.1-.58,2,2,0,0,1-.36-1.15,4.25,4.25,0,0,1,.8-2.07l.92-1.53-.54,1.7a5.85,5.85,0,0,1-1.5,2.4,4.64,4.64,0,0,1-2.46,1.34,1.38,1.38,0,0,1-.72-.11.87.87,0,0,1-.46-.58,1.78,1.78,0,0,1,.33-1.36A2.38,2.38,0,0,1,933.15,933.84Z"
          transform="translate(-786.96 -860.61)"/>
    <path class="cls-1" d="M963.75,937.42" transform="translate(-786.96 -860.61)"/>
    <path class="cls-4"
          d="M902.27,931.26c.42-.13.84-.22,1.26-.33l1.28-.08,2.55-.16,2.55-.16,1.27-.08c.43.06.86.1,1.29.17-.42.13-.84.22-1.26.33l-1.27.08-2.55.16-2.55.16-1.28.09C903.13,931.38,902.71,931.34,902.27,931.26Z"
          transform="translate(-786.96 -860.61)"/>
    <path class="cls-4"
          d="M787,930.51c1.18-.85,2.38-1.66,3.57-2.48l3.7-2.27,7.41-4.54,7.4-4.53,3.7-2.27,3.83-2.06L813,914.84l-3.7,2.27-7.4,4.54-7.4,4.53-3.7,2.27C789.52,929.14,788.25,929.84,787,930.51Z"
          transform="translate(-786.96 -860.61)"/>
    <path class="cls-4"
          d="M816.2,909.82a13.74,13.74,0,0,0,.92,1.74c.19.26.32.56.49.83a8.67,8.67,0,0,0,.53.81l-.38,0c.16-.12.1-.45-.09-.71a8.49,8.49,0,0,0-.83-.71,1.27,1.27,0,0,1-.45-1.25,1.75,1.75,0,0,1,.85-1,5.71,5.71,0,0,1,2.26-.64l2.25-.37.38-.06-.1.38-.71,2.49a11.2,11.2,0,0,1-.45,1.22l-.49,1.2.21-1.28c.09-.43.12-.87.25-1.28l.71-2.49.28.32-2.25.36a5.45,5.45,0,0,0-2.09.58,1.3,1.3,0,0,0-.62.68.84.84,0,0,0,.31.77,5.89,5.89,0,0,1,.89.78,1.45,1.45,0,0,1,.27.62.83.83,0,0,1-.24.75l-.21.19-.16-.23c-.19-.27-.38-.56-.55-.84a4.24,4.24,0,0,1-.46-.9A10,10,0,0,1,816.2,909.82Z"
          transform="translate(-786.96 -860.61)"/>
    <path class="cls-4" d="M1012.39,893.44a1.54,1.54,0,0,1,.21,1.27,1.51,1.51,0,0,1-.76,1Z"
          transform="translate(-786.96 -860.61)"/>
    <path class="cls-4" d="M884.17,915.5a1.65,1.65,0,0,1-.55,2.32Z" transform="translate(-786.96 -860.61)"/>
    <path class="cls-4"
          d="M964.55,937.35l.12.23-.06.06-.11.11-.11.11-.06.06-.23-.12c-.05-.09-.08-.16-.12-.24l.06,0,.11-.11.11-.11,0-.06Z"
          transform="translate(-786.96 -860.61)"/>
</svg>