<svg id="Camada_1" data-name="Camada 1" xmlns="http://www.w3.org/2000/svg" viewBox="0 0 269.12 92.42"><defs><style>.cls-1{fill:#1d1d1b;}.cls-2{fill:none;}</style></defs><title>pagina3_nota3</title><path class="cls-1" d="M778.29,857.73a35.62,35.62,0,0,0,6.07-4.23l.29.38a8.07,8.07,0,0,0-1.44,1.42,6.09,6.09,0,0,0-1,1.76,1.76,1.76,0,0,0,.19,1.74c.39.41,1.21.48,1.44,0l.33.34a11.45,11.45,0,0,0-4.05,3.39,11.2,11.2,0,0,0-1.33,2.29,1.94,1.94,0,0,0,2.33,2.93,5.94,5.94,0,0,0,2.41-1,15.37,15.37,0,0,0,3.71-3.83l.62-.82-.17,1-.55,3.35c-.31,1.38,1.12.08,1.77-.59a6.94,6.94,0,0,0,1-1.31,4.36,4.36,0,0,1,.49-.76.86.86,0,0,1,1.1-.15.6.6,0,0,1,.21.28,1.59,1.59,0,0,1,0,.29c0,.2,0,.3,0,.45l-.08.85-.17,1.68-.21-.27a1.91,1.91,0,0,0,1.37-.42,4.71,4.71,0,0,0,1.07-1.15,14.82,14.82,0,0,1,1-1.36A3.61,3.61,0,0,1,796,863l.2-.09,0,.21a3,3,0,0,1-.17,1.46,7.57,7.57,0,0,0-.4,1.34,1.38,1.38,0,0,0,.34,1.25.89.89,0,0,0,1.24.1,1,1,0,0,1-1.3,0,1.52,1.52,0,0,1-.45-1.34,6.86,6.86,0,0,1,.31-1.39,2.69,2.69,0,0,0,.09-1.31l.24.12c-.94.47-1.42,1.5-2.06,2.41a5.27,5.27,0,0,1-1.19,1.26,2.4,2.4,0,0,1-1.73.52l-.24,0,0-.24.16-1.69.08-.85c0-.28.07-.57,0-.57a.28.28,0,0,0-.21,0,.39.39,0,0,0-.23.13,4.48,4.48,0,0,0-.42.66,7.55,7.55,0,0,1-1,1.41,8,8,0,0,1-1.33,1.13,1.46,1.46,0,0,1-.47.22.72.72,0,0,1-.62-.16,1.17,1.17,0,0,1-.2-1l.55-3.35.45.19a16.18,16.18,0,0,1-3.84,4,6.61,6.61,0,0,1-2.61,1,2.89,2.89,0,0,1-2.75-.77,2.13,2.13,0,0,1-.44-1.43,4.39,4.39,0,0,1,.31-1.41,11.57,11.57,0,0,1,1.4-2.41,12,12,0,0,1,4.23-3.54l.7-.35-.37.7a1.2,1.2,0,0,1-1.13.57,1.69,1.69,0,0,1-1.1-.49,2.22,2.22,0,0,1-.32-2.24,7,7,0,0,1,1-1.91,6.77,6.77,0,0,1,1.56-1.51l.29.38A35.46,35.46,0,0,1,778.29,857.73Z" transform="translate(-765.25 -853.49)"/><path class="cls-1" d="M821.11,858.73c-.15.72-.34,1.43-.51,2.14-.11.35-.26.68-.37,1l-.37,1-.46-.2,2.29-4.21.63-1.16-.16,1.31-.54,4.4-.27,2.2c-.18.72-.33,1.45-.52,2.17,0-.75,0-1.49,0-2.23l.26-2.2.54-4.4.47.15L819.84,863l-.45-.21.37-1c.13-.34.23-.69.37-1C820.46,860.05,820.76,859.38,821.11,858.73Z" transform="translate(-765.25 -853.49)"/><path class="cls-1" d="M826.78,858.34a2.78,2.78,0,0,0-1.26.9,3.09,3.09,0,0,0-.8,1.26,2.83,2.83,0,0,0-.11,1.47c.09.45.36,1,.68,1.09s.81-.33,1.22-.62a3.43,3.43,0,0,0,1-1.09,1.13,1.13,0,0,0-.06-1.27.91.91,0,0,0-1.2-.54.84.84,0,0,1,.81-.23,1.4,1.4,0,0,1,1.12,1.36,1.8,1.8,0,0,1-.23.9,3.68,3.68,0,0,1-1.17,1.27,8.19,8.19,0,0,1-.68.47,1.27,1.27,0,0,1-1,.23,1.2,1.2,0,0,1-.74-.64,2.88,2.88,0,0,1-.31-.83,3.31,3.31,0,0,1,.13-1.74,3.55,3.55,0,0,1,.93-1.45A2.66,2.66,0,0,1,826.78,858.34Z" transform="translate(-765.25 -853.49)"/><path class="cls-1" d="M825.52,863.12a9.05,9.05,0,0,0-.65,1.17,2.85,2.85,0,0,0-.5,1.11,1.23,1.23,0,0,0,.26,1,1.2,1.2,0,0,0,1,.36,1.7,1.7,0,0,0,1-.47,1.44,1.44,0,0,0,.4-1,2.09,2.09,0,0,0-.33-1.13,2.9,2.9,0,0,0-.71-1.08,2.75,2.75,0,0,1,1.14.82,2.62,2.62,0,0,1,.4,1.4,1.91,1.91,0,0,1-.55,1.38,2.09,2.09,0,0,1-1.35.61,1.64,1.64,0,0,1-1.41-.52,1.7,1.7,0,0,1-.38-1.46,3.68,3.68,0,0,1,.57-1.31A6,6,0,0,1,825.52,863.12Z" transform="translate(-765.25 -853.49)"/><path class="cls-1" d="M832.83,858.32a8,8,0,0,0-1.46,1,2,2,0,0,0-.88,1.32A1.29,1.29,0,0,0,831,862a3,3,0,0,0,1.64.05,3.33,3.33,0,0,0,1.59-.56,1.54,1.54,0,0,0,.67-1.34,1.25,1.25,0,0,0-1-1,5.67,5.67,0,0,0-1.74-.36,5.11,5.11,0,0,1,1.88-.12,2.12,2.12,0,0,1,.9.5,1.57,1.57,0,0,1,.47,1,2.05,2.05,0,0,1-.87,1.8,3.79,3.79,0,0,1-1.82.65,3.33,3.33,0,0,1-1.94-.1,1.75,1.75,0,0,1-.79-1.84,2.52,2.52,0,0,1,1.06-1.66A6.74,6.74,0,0,1,832.83,858.32Z" transform="translate(-765.25 -853.49)"/><path class="cls-1" d="M833,862.76a1.45,1.45,0,0,0-1.46.63,5.43,5.43,0,0,0-1.07,1.31,1.31,1.31,0,0,0-.12,1.42,1.57,1.57,0,0,0,1.39.48,2.78,2.78,0,0,0,2.49-1.81,1.6,1.6,0,0,0-.36-1.44,1.42,1.42,0,0,0-1.4-.72,1.61,1.61,0,0,1,1.78.4,2.08,2.08,0,0,1,.46,1.89,2.75,2.75,0,0,1-1.14,1.54,3.75,3.75,0,0,1-1.8.63,2.06,2.06,0,0,1-1.83-.68,1.46,1.46,0,0,1-.24-1,2.65,2.65,0,0,1,.33-.93,6.52,6.52,0,0,1,1.18-1.44,2.62,2.62,0,0,1,.88-.41A1.1,1.1,0,0,1,833,862.76Z" transform="translate(-765.25 -853.49)"/><path class="cls-1" d="M838.77,858.07c-.07.45-.16.88-.25,1.32a6.36,6.36,0,0,1-.33,1.3c-.25.83-.58,1.73-.77,2.51,0,.42.05.53.49.42a6.85,6.85,0,0,0,1.24-.35,2,2,0,0,0,.92-.71,1.19,1.19,0,0,0,.19-1h.47a14.86,14.86,0,0,0-.6,2.8c0,.24,0,.47-.06.71s-.08.48-.1.72c-.07.48-.1,1-.13,1.45a10.31,10.31,0,0,1-.23-1.46c0-.24-.05-.49-.05-.74l.07-.74a14.34,14.34,0,0,1,.63-2.89l.23-.74.24.73a2,2,0,0,1-1.39,2.39,7.38,7.38,0,0,1-1.33.38.8.8,0,0,1-1.08-1c.22-1,.53-1.73.79-2.6a7.32,7.32,0,0,1,.48-1.25C838.39,858.88,838.57,858.47,838.77,858.07Z" transform="translate(-765.25 -853.49)"/><path class="cls-1" d="M844.94,868.2a2.82,2.82,0,0,1,.23.41l0,.41a7,7,0,0,1-.1.8,7.1,7.1,0,0,1-.17.8l-.11.39a2.67,2.67,0,0,1-.36.31c0-.16-.07-.3-.12-.45l.11-.37c.06-.25.11-.5.16-.76s.07-.51.1-.77l0-.38A4.56,4.56,0,0,1,844.94,868.2Z" transform="translate(-765.25 -853.49)"/><path class="cls-1" d="M865.19,856.32a12.52,12.52,0,0,0-4.06,6.43,7.35,7.35,0,0,0-.24,3.71,2.31,2.31,0,0,0,2.67,1.8,5.09,5.09,0,0,0,3.06-1.94,18.81,18.81,0,0,0,3.76-6.65,17,17,0,0,0,.5-1.86c.13-.57.1-1.29-.32-1.46l.29-.07a16.89,16.89,0,0,0-3.92,10.31l-.47-.12a8.59,8.59,0,0,1,3.42-3.42l.43-.23-.07.49-.32,2.41c0,.39-.12.84-.14,1.18s.17.48.5.44c.66-.11,1.24-.78,1.78-1.33a8.85,8.85,0,0,0,1.33-2,1,1,0,0,0,.09-.88.22.22,0,0,0-.26,0,1.27,1.27,0,0,0-.37.34,5.66,5.66,0,0,0-1.09,2.07,1.71,1.71,0,0,0,.86,1.94,3.43,3.43,0,0,0,2.35-.18,3.5,3.5,0,0,1-2.4.32,1.93,1.93,0,0,1-1.1-2.12,5.77,5.77,0,0,1,1-2.28,1.57,1.57,0,0,1,.49-.51.7.7,0,0,1,.86.11,1,1,0,0,1,.2.78,2.12,2.12,0,0,1-.21.66,9.07,9.07,0,0,1-1.41,2.06,10.55,10.55,0,0,1-.89.88,2.38,2.38,0,0,1-1.19.61,1,1,0,0,1-.78-.19.94.94,0,0,1-.29-.74c0-.47.1-.83.15-1.24l.32-2.42.37.25a8.17,8.17,0,0,0-3.22,3.22l-.5.91,0-1a17.31,17.31,0,0,1,4-10.62l.12-.14.17.07a1.17,1.17,0,0,1,.66,1,3.06,3.06,0,0,1,0,1c-.14.65-.31,1.28-.51,1.91a19.37,19.37,0,0,1-1.58,3.61,19.72,19.72,0,0,1-2.28,3.22,5.6,5.6,0,0,1-3.39,2.11,2.82,2.82,0,0,1-3.2-2.17,7.32,7.32,0,0,1,.27-4A12.68,12.68,0,0,1,865.19,856.32Z" transform="translate(-765.25 -853.49)"/><path class="cls-1" d="M878.3,863.74a4.24,4.24,0,0,0-1.41,1.63c-.28.62-.54,1.42-.13,1.76a1.63,1.63,0,0,0,1.78-.1A4.54,4.54,0,0,0,880,865.5c.73-1.23,1.27-2.63,1.9-4l1.84-4,.45.21a43.3,43.3,0,0,0-2,4.89c-.29.83-.52,1.68-.84,2.51s-.56,1.68-.81,2.53c.11-.89.26-1.76.44-2.64a17.43,17.43,0,0,1,.74-2.56,41.66,41.66,0,0,1,2-4.94l.45.21-1.83,4c-.64,1.34-1.16,2.71-1.93,4a5.17,5.17,0,0,1-1.58,1.68,2.11,2.11,0,0,1-2.37.06,1.16,1.16,0,0,1-.34-1.26,4.64,4.64,0,0,1,.51-1A4,4,0,0,1,878.3,863.74Z" transform="translate(-765.25 -853.49)"/><path class="cls-1" d="M881.63,864.58c.1-.26.23-.49.34-.73l.53-.56,1-1.12,1.05-1.12.52-.57c.24-.13.46-.27.71-.39-.1.26-.23.49-.34.74l-.53.56-1.05,1.12-1,1.12-.52.56C882.1,864.32,881.88,864.47,881.63,864.58Z" transform="translate(-765.25 -853.49)"/><path class="cls-1" d="M883,863.86l.23.42a2.54,2.54,0,0,0,0,.39,3.88,3.88,0,0,0,.17.75,3.45,3.45,0,0,0,.33.7,3.71,3.71,0,0,0,.23.32c0,.15.06.29.08.46a2,2,0,0,1-.47-.15l-.26-.36a3.45,3.45,0,0,1-.38-.8,3.67,3.67,0,0,1-.2-.87c0-.15,0-.3,0-.45A2.71,2.71,0,0,1,883,863.86Z" transform="translate(-765.25 -853.49)"/><path class="cls-1" d="M888,863.24a4.29,4.29,0,0,0-2.29,1.93,2.88,2.88,0,0,0-.39,1.36,1.14,1.14,0,0,0,.53,1.09,1.1,1.1,0,0,0,1.17-.29,2.78,2.78,0,0,0,.75-1.2,1.37,1.37,0,0,0-.13-1.26.78.78,0,0,0-1-.21l-.22-.43,3.57-.82a.93.93,0,0,1,.61.09.69.69,0,0,1,.29.63,7.37,7.37,0,0,1-.28.92,7.83,7.83,0,0,0-.29,1.72c0,.27.08.51.18.5a1.79,1.79,0,0,0,.72-.21,3.86,3.86,0,0,0,1.35-1,3.67,3.67,0,0,0,.77-1.49c.06-.26,0-.52-.1-.59s-.36,0-.32,0l-.2-.18a8,8,0,0,0,3.26-.25,7.68,7.68,0,0,1-3.29.69h-.16l0-.19a.56.56,0,0,1,.38-.61.75.75,0,0,1,.66.09,1.06,1.06,0,0,1,.3,1.09,4.15,4.15,0,0,1-.88,1.72,4.47,4.47,0,0,1-1.53,1.16l-.45.17a1,1,0,0,1-.57.07.69.69,0,0,1-.5-.46,1.48,1.48,0,0,1-.08-.54,7.63,7.63,0,0,1,.32-1.85c.08-.3.23-.62.25-.82s0-.21-.33-.19l-3.53.82-1,.22.75-.65a1.05,1.05,0,0,1,1-.22,1.47,1.47,0,0,1,.8.48,1.84,1.84,0,0,1,.23,1.73,3.29,3.29,0,0,1-.9,1.42,1.55,1.55,0,0,1-1.71.37,1.62,1.62,0,0,1-.82-1.54,2.5,2.5,0,0,1,.53-1.59A4.38,4.38,0,0,1,888,863.24Z" transform="translate(-765.25 -853.49)"/><path class="cls-1" d="M914.3,863.24a4.12,4.12,0,0,0-2.45,2.15,1.86,1.86,0,0,0,1.17,2.52,2.39,2.39,0,0,0,1.48-.4,12.56,12.56,0,0,0,1.36-.93,8.84,8.84,0,0,0,2.13-2.51l.4.29a5.77,5.77,0,0,0-.79,1,2.49,2.49,0,0,0-.42,1.16.51.51,0,0,0,.61.56,2,2,0,0,0,1.07-.52,1.68,1.68,0,0,0,.5-2.12c-.43-.61-1.59-.77-1.93-.12l-.27-.37,2.27-.42c.77-.13,1.49-.28,2.3-.4a.87.87,0,0,1,.73.24,1.11,1.11,0,0,1,.29.67,3.89,3.89,0,0,1-.15,1.22l-.51,2.25-.45-.21,1.53-2,.77-1a7.88,7.88,0,0,1,.83-1,.88.88,0,0,1,.83-.21.65.65,0,0,1,.35.38.87.87,0,0,1,0,.42l-.22,1.25-.45,2.46-.43-.21,3.48-3.63a3,3,0,0,1,1.06-.85.8.8,0,0,1,.86.12.76.76,0,0,1,.07.87,8.66,8.66,0,0,0-.6,1.09,4.52,4.52,0,0,0-.31,1.13c0,.37,0,.76.27.84s.68-.06,1.06-.15a8.22,8.22,0,0,0,2.21-1,8.56,8.56,0,0,0,3.13-3.66l.3.33a6,6,0,0,0-1.93.88,2.51,2.51,0,0,0-1.07,1.72,1.55,1.55,0,0,0,.88,1.72,1.34,1.34,0,0,0,1.78-.74,1.39,1.39,0,0,1-1.82.85,1.7,1.7,0,0,1-1.08-1.85,2.81,2.81,0,0,1,1.08-2,6.55,6.55,0,0,1,2-1.05l.51-.19-.22.51a8.8,8.8,0,0,1-3.3,3.89,9.05,9.05,0,0,1-2.34,1.08l-.63.16a1.25,1.25,0,0,1-.76,0,.92.92,0,0,1-.53-.63,2,2,0,0,1-.05-.72,5.05,5.05,0,0,1,.35-1.28,9.38,9.38,0,0,1,.61-1.11c.08-.16.07-.25,0-.3s-.15-.06-.31,0a2.42,2.42,0,0,0-.88.72l-3.48,3.63-.58.6.15-.82.46-2.46.22-1.22c0-.19,0-.26-.07-.27s-.19,0-.32.13a8.64,8.64,0,0,0-.76.93l-.76,1-1.53,2-.69.9.25-1.11.51-2.25c.21-.7.27-1.62-.34-1.53s-1.5.27-2.25.41l-2.27.41-.51.1.25-.47a1.43,1.43,0,0,1,1.42-.66,1.93,1.93,0,0,1,1.35.73,1.82,1.82,0,0,1,.24,1.53,2.69,2.69,0,0,1-.8,1.27,2.57,2.57,0,0,1-1.37.64,1.05,1.05,0,0,1-.83-.26,1,1,0,0,1-.32-.8,2.93,2.93,0,0,1,.49-1.41A6,6,0,0,1,918,864l1.41-1.48-1,1.78a9.7,9.7,0,0,1-2.25,2.65,7.52,7.52,0,0,1-1.46,1,2.75,2.75,0,0,1-1.77.35,1.84,1.84,0,0,1-1.32-1.21,2.4,2.4,0,0,1,0-1.75A4.25,4.25,0,0,1,914.3,863.24Z" transform="translate(-765.25 -853.49)"/><path class="cls-1" d="M940.9,863.08a3.93,3.93,0,0,0-1.29.3,3.57,3.57,0,0,0-1.17.46c-.68.44-1.4,1.19-1.27,1.9a1.52,1.52,0,0,0,1.87.92,3.13,3.13,0,0,0,1.1-.57c.39-.2.76-.47,1.15-.72a8.06,8.06,0,0,1-.85,1.12,3.8,3.8,0,0,1-1.28.66,2.19,2.19,0,0,1-1.49-.15,1.71,1.71,0,0,1-1-1.16,1.82,1.82,0,0,1,.43-1.46,3.93,3.93,0,0,1,1.07-1,4.28,4.28,0,0,1,1.33-.54A3.58,3.58,0,0,1,940.9,863.08Z" transform="translate(-765.25 -853.49)"/><path class="cls-1" d="M939.13,868a1.2,1.2,0,0,1,.26.29c0,.1,0,.2,0,.31a3,3,0,0,1-.15.59,3.55,3.55,0,0,1-.28.55c-.06.08-.12.17-.19.25a1.58,1.58,0,0,1-.38,0c0-.13,0-.24,0-.36s.1-.13.15-.21a2.38,2.38,0,0,0,.23-.45,2.72,2.72,0,0,0,.13-.49,2.11,2.11,0,0,0,0-.25Z" transform="translate(-765.25 -853.49)"/><path class="cls-1" d="M945.75,862.74a3.91,3.91,0,0,0-2.93,1.72,2.36,2.36,0,0,0-.45,1.51,1,1,0,0,0,1.06.81,2.29,2.29,0,0,0,1.5-.52,2.33,2.33,0,0,0,.8-1.37,1,1,0,0,0-.62-1.17c-.47-.15-1.09,0-1.11.47l-.28-.27a14.87,14.87,0,0,0,4.58-1.51l.54-.28-.19.58-.81,2.52a4.41,4.41,0,0,0-.3,1.19c0,.36.16.34.57.09a10.77,10.77,0,0,0,3.59-3.67l.42.26a3.78,3.78,0,0,0-.53,1.32,2.17,2.17,0,0,0,.1,1.38,1.5,1.5,0,0,0,1.1.8,1.16,1.16,0,0,0,1.3-.49,1.26,1.26,0,0,1-1.33.66,1.74,1.74,0,0,1-1.37-.81,2.49,2.49,0,0,1-.29-1.62,4.23,4.23,0,0,1,.6-1.51l.43.26a11.29,11.29,0,0,1-3.75,3.84,1.1,1.1,0,0,1-.79.25.64.64,0,0,1-.43-.3.94.94,0,0,1-.12-.43,2.17,2.17,0,0,1,.12-.74l.2-.63.82-2.52.35.29a15,15,0,0,1-4.74,1.56l-.31.05,0-.32a1.06,1.06,0,0,1,.71-.87,1.61,1.61,0,0,1,1,0,1.3,1.3,0,0,1,.83.69,1.8,1.8,0,0,1,.14,1,2.79,2.79,0,0,1-2.81,2.32,1.64,1.64,0,0,1-1-.32,1.48,1.48,0,0,1-.55-.91,2.27,2.27,0,0,1,.61-1.84A4,4,0,0,1,945.75,862.74Z" transform="translate(-765.25 -853.49)"/><path class="cls-1" d="M972.68,863.72a1.65,1.65,0,0,0-1.47,0,2.33,2.33,0,0,0-.59.42,2.86,2.86,0,0,0-.5.54,8.06,8.06,0,0,0-.75,1.36c-.26.48-.23.83.2.94s.81-.17,1.19-.5.79-.71,1.15-1.08a17.76,17.76,0,0,0,2-2.45l.6-.91-.14,1.07c-.15,1.14-.74,2.09-.64,3.08a1.71,1.71,0,0,0,.18.68,1.1,1.1,0,0,0,.41.52,1,1,0,0,0,1.37-.1,1.18,1.18,0,0,1-1.52.41,1.46,1.46,0,0,1-.7-.6,2.22,2.22,0,0,1-.24-.86c-.1-1.2.53-2.2.65-3.19l.45.17a17.63,17.63,0,0,1-2,2.52c-.37.39-.77.76-1.18,1.12a1.85,1.85,0,0,1-1.66.6,1,1,0,0,1-.72-.72,1.54,1.54,0,0,1,.21-.92,9.26,9.26,0,0,1,.79-1.44A2.1,2.1,0,0,1,972.68,863.72Z" transform="translate(-765.25 -853.49)"/><path class="cls-1" d="M989.49,867.51a15.21,15.21,0,0,0,1.8-2.57,30.33,30.33,0,0,0,1.33-2.83,37.58,37.58,0,0,0,1.79-6l.48.16q-1,2.25-1.83,4.56c-.27.78-.53,1.56-.77,2.34a5.5,5.5,0,0,0-.33,2.31,1.68,1.68,0,0,0,1.42,1.43,2.72,2.72,0,0,0,2.13-.55,7.46,7.46,0,0,0,1.59-1.76c.41-.61.74-1.5.27-1.94l.3,0a6.86,6.86,0,0,0-1.93,1.55,2.06,2.06,0,0,0-.33,2.17,1.32,1.32,0,0,0,.73.8,1.44,1.44,0,0,0,1.13-.07c.75-.36,1.35-1,2.11-1.45-.72.47-1.22,1.19-2,1.66a1.77,1.77,0,0,1-1.36.21,1.81,1.81,0,0,1-1.06-.95,2.58,2.58,0,0,1,.38-2.68,7.65,7.65,0,0,1,2.07-1.67l.16-.1.14.14a1.41,1.41,0,0,1,.34,1.38,3.54,3.54,0,0,1-.54,1.2,7.62,7.62,0,0,1-1.71,1.88,3.17,3.17,0,0,1-2.51.64,2.16,2.16,0,0,1-1.82-1.84,5.67,5.67,0,0,1,.35-2.54c.24-.79.5-1.57.77-2.35.55-1.56,1.17-3.09,1.84-4.6l.47.15a37.47,37.47,0,0,1-1.82,6.1,14.32,14.32,0,0,1-1.52,2.8A13.65,13.65,0,0,1,989.49,867.51Z" transform="translate(-765.25 -853.49)"/><path class="cls-1" d="M986.62,862.17c.48-.23,1-.41,1.44-.61l1.5-.35,3-.72,3-.72,1.5-.36c.52,0,1-.09,1.56-.12-.48.22-1,.41-1.44.61l-1.5.36-3,.71-3,.72-1.5.36C987.66,862.09,987.15,862.15,986.62,862.17Z" transform="translate(-765.25 -853.49)"/><path class="cls-1" d="M767.5,889.64a5.75,5.75,0,0,1,.82-3,2.2,2.2,0,0,1,1.3-1.06,2.14,2.14,0,0,1,1.68.29,2.72,2.72,0,0,1,1.1,1.27,2.69,2.69,0,0,1,.09,1.68,4.2,4.2,0,0,1-2,2.51l-.13.08-.11-.07a.9.9,0,0,1,.09-1.5,4.51,4.51,0,0,1,1.27-.48c.83-.23,1.67-.39,2.47-.63a6.24,6.24,0,0,0,2.2-1.06,3.21,3.21,0,0,0,1.24-2l.46.17a6.35,6.35,0,0,0-.74,1.61,6.86,6.86,0,0,0-.28,1.72.47.47,0,0,0,.32.51,1.12,1.12,0,0,0,.78-.07c.51-.24.92-.81,1.52-1-.57.27-.84.85-1.4,1.22a1.45,1.45,0,0,1-1,.21.91.91,0,0,1-.72-.85,6.62,6.62,0,0,1,.29-1.9,7.35,7.35,0,0,1,.8-1.73l.64-1-.18,1.17a3.74,3.74,0,0,1-1.43,2.28,6.69,6.69,0,0,1-2.37,1.15c-.83.25-1.67.41-2.48.63a4.36,4.36,0,0,0-1.11.41.47.47,0,0,0-.24.35.28.28,0,0,0,.1.3h-.25a3.76,3.76,0,0,0,1.78-2.2,2.2,2.2,0,0,0-.07-1.37,2.25,2.25,0,0,0-.9-1,1.62,1.62,0,0,0-1.29-.23,2.27,2.27,0,0,0-1.08.81A5.86,5.86,0,0,0,767.5,889.64Z" transform="translate(-765.25 -853.49)"/><path class="cls-1" d="M781.36,885.56l-.85,3.83-.17-.07a15.92,15.92,0,0,1,1.43-2.46c.28-.39.58-.77.89-1.13a2.39,2.39,0,0,1,1.25-.87,1.06,1.06,0,0,1,1.26,1,5,5,0,0,1-.2,1.48,3.07,3.07,0,0,0-.14,1.28.6.6,0,0,0,.8.42,3.75,3.75,0,0,0,1.15-.63,8.84,8.84,0,0,0,1-.91,11.27,11.27,0,0,0,1.63-2.24,28.44,28.44,0,0,0,2.13-5.19l.48.15-2.21,7.89c-.14.62-.06,1.35.47,1.35a2.68,2.68,0,0,0,.9-.2,7.38,7.38,0,0,0,.91-.4,7.31,7.31,0,0,0,2.89-2.65l.39.31a4.48,4.48,0,0,0-1.34,2.55c0,.21,0,.3.19.35a1.14,1.14,0,0,0,.62,0,6.64,6.64,0,0,0,1.35-.63,2.63,2.63,0,0,0,1-1,1.8,1.8,0,0,0,.15-1.32,1,1,0,0,0-.91-.76.88.88,0,0,0-1,.54l-.3-.31,5.77-1.33.35-.08,0,.35a15.64,15.64,0,0,1-1.29,4.64l-.41-.27,3.68-3.93.58-.62-.15.84a29.27,29.27,0,0,0-.45,4l-.44-.17a22.09,22.09,0,0,1,5-4.22l.29-.18-.06.33-.29,1.6c-.08.53-.21,1.09-.26,1.6,0,.26.21.41.48.46a3.55,3.55,0,0,0,.8.06,3.39,3.39,0,0,0,1.55-.42,3.63,3.63,0,0,1-1.55.5,3.75,3.75,0,0,1-.82,0,1,1,0,0,1-.41-.16.5.5,0,0,1-.19-.4c0-.58.13-1.09.19-1.64l.21-1.62.23.15a27.16,27.16,0,0,0-4.78,4.3l-.47.52,0-.7a30.32,30.32,0,0,1,.46-4l.43.21-3.68,3.93-1,1.1.63-1.38a15.24,15.24,0,0,0,1.24-4.48l.3.27-5.77,1.33-.43.1L795,886a1.51,1.51,0,0,1,2.84.2,2.32,2.32,0,0,1-.19,1.7,3.12,3.12,0,0,1-1.15,1.21,7.26,7.26,0,0,1-1.47.68,1.57,1.57,0,0,1-.92,0,.81.81,0,0,1-.54-.87,5,5,0,0,1,1.49-2.87l1.46-1.42-1.07,1.73a7.89,7.89,0,0,1-3.09,2.84,8.35,8.35,0,0,1-1,.42,3.07,3.07,0,0,1-1.1.23,1,1,0,0,1-.94-.81,2.57,2.57,0,0,1,0-1.14l2.21-7.93.48.15a29.74,29.74,0,0,1-2.16,5.28,11.74,11.74,0,0,1-1.71,2.33,9.2,9.2,0,0,1-1.09,1,4.4,4.4,0,0,1-1.32.72,1.21,1.21,0,0,1-.87-.08,1.17,1.17,0,0,1-.54-.71,4,4,0,0,1,.13-1.52,5,5,0,0,0,.2-1.31.59.59,0,0,0-.68-.59,2,2,0,0,0-1,.69c-.32.34-.63.7-.92,1.06a16.65,16.65,0,0,0-1.52,2.36l-.38.73.21-.79Z" transform="translate(-765.25 -853.49)"/><path class="cls-1" d="M813.5,885a6.67,6.67,0,0,0-2.48,1.91,3.69,3.69,0,0,0-.72,1.29c-.14.45-.12,1,.19,1.2a1,1,0,0,0,1.17-.22,6.55,6.55,0,0,0,1-1.13,10.21,10.21,0,0,0,1.47-2.74l.46.19a6.47,6.47,0,0,0-.63,2.4,2.35,2.35,0,0,0,.11,1.11c.12.22.51.18.86,0a6.79,6.79,0,0,0,3.23-3.66l.18-.5.27.46a10.07,10.07,0,0,1,.76,1.46,3.58,3.58,0,0,1,.29,1.69,2.3,2.3,0,0,1-.87,1.54,1.63,1.63,0,0,1-1.77.27l-.39-.2.36-.23a11.6,11.6,0,0,1,2.15-1.06,13.08,13.08,0,0,1,2.28-.63,15.21,15.21,0,0,0-2.17.89,18.12,18.12,0,0,0-2,1.22l0-.44a1.12,1.12,0,0,0,1.23-.21,1.82,1.82,0,0,0,.68-1.2,4.93,4.93,0,0,0-1-2.85l.45,0a7.29,7.29,0,0,1-3.48,4,1.82,1.82,0,0,1-.72.19.85.85,0,0,1-.78-.37,1.56,1.56,0,0,1-.2-.75c0-.22,0-.45,0-.67a7.05,7.05,0,0,1,.68-2.59l.46.19a10.67,10.67,0,0,1-1.54,2.88,7.1,7.1,0,0,1-1.11,1.23,2.14,2.14,0,0,1-.81.41,1.16,1.16,0,0,1-1.43-1,2.39,2.39,0,0,1,.08-.89,3.2,3.2,0,0,1,.93-1.41A6.33,6.33,0,0,1,813.5,885Z" transform="translate(-765.25 -853.49)"/><path class="cls-1" d="M785.17,883.43c.41-.18.82-.32,1.23-.47l1.28-.22,2.55-.44,2.56-.44,1.27-.22c.44,0,.88,0,1.32,0-.41.18-.82.31-1.23.47l-1.28.22-2.55.44-2.56.44-1.27.22C786.05,883.45,785.61,883.46,785.17,883.43Z" transform="translate(-765.25 -853.49)"/><path class="cls-1" d="M777.55,883.28c-.09-.07-.13-.12-.2-.18s0,0,0-.06l.07-.13.06-.13,0-.06.26,0,.19.18,0,.06-.06.13-.07.13,0,.06Z" transform="translate(-765.25 -853.49)"/><path class="cls-1" d="M841.09,885.93a2.6,2.6,0,0,0-2.67,2.63c0,.66.48,1.27,1,1a2.89,2.89,0,0,0,1.23-1.52,53.76,53.76,0,0,0,3.19-8.11l.48.14-1.75,5.83a5.11,5.11,0,0,0-.43,2.81.63.63,0,0,0,.9.41,5.85,5.85,0,0,0,1.28-.68,6.38,6.38,0,0,0,1.94-2.16,1.37,1.37,0,0,0,.22-.61.79.79,0,0,0-.11-.53c0-.06-.17-.06-.32.08s-.33.36-.49.55a5.72,5.72,0,0,0-.79,1.19,2.09,2.09,0,0,0-.14,1.37,1.25,1.25,0,0,0,.92,1,1.13,1.13,0,0,0,1.28-.5,1.19,1.19,0,0,1-1.3.64,1.49,1.49,0,0,1-1.18-1,3,3,0,0,1,.83-3c.18-.2.33-.38.53-.58a.71.71,0,0,1,1-.06,1.2,1.2,0,0,1,.23.91,1.9,1.9,0,0,1-.27.81,6.81,6.81,0,0,1-2.1,2.33,6.46,6.46,0,0,1-1.4.75,1.27,1.27,0,0,1-.92,0,1.1,1.1,0,0,1-.61-.71,3,3,0,0,1,0-1.64c.13-.52.29-1,.43-1.47l1.75-5.83.48.14a53.81,53.81,0,0,1-3.23,8.19,3.25,3.25,0,0,1-1.5,1.77,1.15,1.15,0,0,1-1.27-.32,1.64,1.64,0,0,1-.36-1.18A2.79,2.79,0,0,1,841.09,885.93Z" transform="translate(-765.25 -853.49)"/><path class="cls-1" d="M865.89,890.18a26.47,26.47,0,0,0,3.17-9.87l.42.11A16.59,16.59,0,0,0,868.3,888c.06.63.09,1.36.49,1.61s1-.06,1.51-.43a5.23,5.23,0,0,0,2-3.08l.49.12a7.75,7.75,0,0,0-.14,3.55l-.37-.16a8.37,8.37,0,0,0,3.43-4.09l.38-1,.1,1.06a10.53,10.53,0,0,1-.39,2.66,2,2,0,0,0,.68,2.09,2.07,2.07,0,0,0,2.16-.51,12.57,12.57,0,0,0,1.75-1.88,20.73,20.73,0,0,0,4.2-9.43l.43.22a15.51,15.51,0,0,0-4.33,8.83,2.88,2.88,0,0,0,.5,2.22,1.38,1.38,0,0,0,1.94.25,3.89,3.89,0,0,0,1.29-2,1,1,0,0,0-.06-.95A.44.44,0,0,0,884,887c-.15,0-.19.1-.17.16l-.24-.21a5.56,5.56,0,0,0,4.74-2.4l.16.38a1.39,1.39,0,0,0-1.24.57,4.93,4.93,0,0,0-.83,1.38,4.58,4.58,0,0,0-.44,1.56,1.32,1.32,0,0,0,.69,1.26,2.23,2.23,0,0,0,2.8-.92,6.77,6.77,0,0,0,.74-3.24,6.89,6.89,0,0,1-.62,3.31,2.45,2.45,0,0,1-3,1.11,1.66,1.66,0,0,1-.91-1.52,5,5,0,0,1,.39-1.71,5.73,5.73,0,0,1,.85-1.55,1.81,1.81,0,0,1,1.71-.74l.37.08-.21.31a6,6,0,0,1-5.17,2.62h-.2l0-.2a.6.6,0,0,1,.16-.51.78.78,0,0,1,.4-.21.92.92,0,0,1,.83.2,1.46,1.46,0,0,1,.19,1.46,4.42,4.42,0,0,1-1.48,2.21,1.86,1.86,0,0,1-2.61-.34,3.3,3.3,0,0,1-.61-2.59,16,16,0,0,1,4.46-9.13l.56-.57-.13.78a21.32,21.32,0,0,1-4.31,9.66,13,13,0,0,1-1.84,2,3.78,3.78,0,0,1-1.23.68,1.85,1.85,0,0,1-1.47-.12,1.91,1.91,0,0,1-.88-1.19,3.54,3.54,0,0,1-.05-1.41,10.36,10.36,0,0,0,.38-2.54l.48.07a8.8,8.8,0,0,1-3.63,4.33l-.31.19-.07-.35a8.37,8.37,0,0,1,.15-3.79l.48.12a5.77,5.77,0,0,1-2.17,3.38,3.37,3.37,0,0,1-.91.52,1.35,1.35,0,0,1-1.17-.07,1.47,1.47,0,0,1-.59-1c-.07-.35-.09-.67-.13-1a15.85,15.85,0,0,1,1.28-7.78l.67-1.48-.25,1.6A27,27,0,0,1,865.89,890.18Z" transform="translate(-765.25 -853.49)"/><path class="cls-1" d="M890.35,885.56a14.46,14.46,0,0,0-.14,2.17,11.77,11.77,0,0,0,0,2.14l-.47-.08,1.51-3a2.6,2.6,0,0,1,1.17-1.37.85.85,0,0,1,1,.3,1.1,1.1,0,0,1,0,1,2.62,2.62,0,0,1-.5.77,4.8,4.8,0,0,0-.55.58c-.32.41-.46.93-.11,1.07a1.85,1.85,0,0,0,.71.08c.27,0,.54,0,.81,0a9.18,9.18,0,0,0,1.65-.13,7.37,7.37,0,0,1-1.61.51,3.09,3.09,0,0,1-.85.1,2.13,2.13,0,0,1-.93-.13.87.87,0,0,1-.47-1,2,2,0,0,1,.4-.85,4,4,0,0,1,.59-.63,2.06,2.06,0,0,0,.4-.62.64.64,0,0,0,0-.57.36.36,0,0,0-.44-.11,2.22,2.22,0,0,0-.91,1.15l-1.5,3-.4.79-.07-.87a11.76,11.76,0,0,1,0-2.22A10.92,10.92,0,0,1,890.35,885.56Z" transform="translate(-765.25 -853.49)"/><path class="cls-1" d="M862.78,885c.27-.19.56-.34.84-.51l.92-.24q.93-.24,1.86-.42c.62-.13,1.25-.24,1.88-.34l.94-.14c.33,0,.65.07,1,.14-.3.13-.6.24-.91.36l-.93.13c-.62.1-1.23.21-1.85.34s-1.23.26-1.83.41l-.91.25C863.43,885,863.11,885,862.78,885Z" transform="translate(-765.25 -853.49)"/><path class="cls-1" d="M897.24,885.54a5.42,5.42,0,0,0-2.25,2.2,1.85,1.85,0,0,0-.25,1.47.56.56,0,0,0,.5.39,1.74,1.74,0,0,0,.73-.15,7.07,7.07,0,0,0,4.31-4.24l.25-.68.23.69a2.18,2.18,0,0,1-.08,1.39c-.15.42-.34.8-.47,1.17-.25.66-.09,1.71.55,1.72s1.13-.85,1.65-1.46l1.55-2,1.21-1.54-.78,1.8a4.3,4.3,0,0,0-.43,2.06,1.2,1.2,0,0,0,.38.82,1,1,0,0,0,.87.2,5.16,5.16,0,0,0,1.82-1.08,21.59,21.59,0,0,0,1.69-1.46,13.84,13.84,0,0,0,2.7-3.5,7.89,7.89,0,0,0,1-4.22l.28.23A4.29,4.29,0,0,0,909.7,882a15.65,15.65,0,0,0-.81,2,10.14,10.14,0,0,0-.53,2,3.11,3.11,0,0,0,.33,2,2.11,2.11,0,0,0,1.52,1.09,1.64,1.64,0,0,0,1.55-.9,6,6,0,0,0,.66-2l.44-2.24.06,2.27c0,1.18-.74,2.09-.71,3a.86.86,0,0,0,.77.79,2.06,2.06,0,0,0,1.3-.34,2.16,2.16,0,0,0,1.11-2.31c-.23-.8-1.64-1.17-2-.43l-.21-.37a8.45,8.45,0,0,0,5.12-1.55l.13-.1.14.08a4.88,4.88,0,0,1,1.49,1.3,3.23,3.23,0,0,1,.65,1.9,2.76,2.76,0,0,1-.71,1.89,2.25,2.25,0,0,1-.41.34,1.21,1.21,0,0,1-.55.19,1.13,1.13,0,0,1-.59-.09.64.64,0,0,1-.38-.62l0-.21.19,0a11.84,11.84,0,0,0,3.78-1.06,12.13,12.13,0,0,0,1.72-1c.53-.38,1.13-.78,1.25-1.36a.47.47,0,0,0-.39-.57,1.3,1.3,0,0,0-.86.22,2.44,2.44,0,0,0-1.07,1.56,2.4,2.4,0,0,0,2.12,2.81,2.48,2.48,0,0,1-2.28-2.84,2.6,2.6,0,0,1,1.1-1.73,1.45,1.45,0,0,1,1-.29.77.77,0,0,1,.66.89A2.94,2.94,0,0,1,924,888a11,11,0,0,1-5.69,2.22l.22-.23c0,.09.16.2.42.17a.65.65,0,0,0,.33-.11,1.92,1.92,0,0,0,.32-.26,2.22,2.22,0,0,0,.57-1.55,3.35,3.35,0,0,0-1.89-2.76l.27,0a8.87,8.87,0,0,1-5.43,1.65h-.39l.18-.36a1.42,1.42,0,0,1,1.63-.61,1.82,1.82,0,0,1,1.31,1.12,2.17,2.17,0,0,1-.19,1.68,3.29,3.29,0,0,1-1.13,1.21,2.48,2.48,0,0,1-1.63.41,1.33,1.33,0,0,1-1.2-1.24,4,4,0,0,1,.38-1.59,3.88,3.88,0,0,0,.32-1.39l.49,0a6.6,6.6,0,0,1-.72,2.14,2.16,2.16,0,0,1-2,1.14,2.59,2.59,0,0,1-1.9-1.34,3.6,3.6,0,0,1-.4-2.26,10.23,10.23,0,0,1,.56-2.16,15.16,15.16,0,0,1,.83-2.05,7.33,7.33,0,0,1,1.29-1.85,3.66,3.66,0,0,1,2-1l.27,0,0,.26a8.4,8.4,0,0,1-1,4.49,14.62,14.62,0,0,1-2.8,3.63,22.27,22.27,0,0,1-1.73,1.49,5.56,5.56,0,0,1-2,1.18,1.53,1.53,0,0,1-1.27-.3,1.7,1.7,0,0,1-.57-1.16,4.93,4.93,0,0,1,.47-2.32l.43.26-1.56,2c-.27.33-.5.65-.8,1a1.63,1.63,0,0,1-1.27.66,1.05,1.05,0,0,1-.72-.33,1.48,1.48,0,0,1-.34-.67,2.4,2.4,0,0,1,.07-1.38c.3-.81.75-1.57.54-2.24h.47a7.37,7.37,0,0,1-4.7,4.31,1.89,1.89,0,0,1-.83.13.8.8,0,0,1-.67-.56,2,2,0,0,1,.33-1.6A5.46,5.46,0,0,1,897.24,885.54Z" transform="translate(-765.25 -853.49)"/><path class="cls-1" d="M935,890.53a13.26,13.26,0,0,0,1.2-1c.36-.38.79-.67,1.14-1a10.51,10.51,0,0,0,1.81-2.49l.19.36a2,2,0,1,0-.73,4,2.41,2.41,0,0,0,2.11-.36,2.2,2.2,0,0,1-2.21.85,2.37,2.37,0,0,1-1.4-4,2.58,2.58,0,0,1,2.31-.95l.34.06-.16.31a11.09,11.09,0,0,1-1.91,2.61,5.86,5.86,0,0,1-1.24,1A9.2,9.2,0,0,1,935,890.53Z" transform="translate(-765.25 -853.49)"/><path class="cls-1" d="M953,886.3l-.34-.65h0a4.83,4.83,0,0,0-2.24,2.27,2,2,0,0,0,.13,1.49,1.15,1.15,0,0,0,1.16.65,5.27,5.27,0,0,0,2.83-1.28,5.36,5.36,0,0,0,1-1.19,2.65,2.65,0,0,0,.34-.67c.06-.23,0-.42-.07-.42l.25,0a4.36,4.36,0,0,0-1.36,2.55,3,3,0,0,0,0,.71c0,.19.06.21.24.19a4.85,4.85,0,0,0,.67-.28l.67-.34a3.3,3.3,0,0,0,1.08-.94,1.94,1.94,0,0,0,.32-1.31,1,1,0,0,0-.8-.85.83.83,0,0,0-1,.45l-.24-.33a12.3,12.3,0,0,0,2.48-.32q.6-.15,1.2-.36a3.21,3.21,0,0,1,1.34-.26.94.94,0,0,1,.74.38,1,1,0,0,1,.08.83l-.43,1.22-.84,2.41-.43-.24a41.47,41.47,0,0,1,3.39-3.5,1.74,1.74,0,0,1,.55-.4.65.65,0,0,1,.84.23,1.72,1.72,0,0,1-.1,1.38l-.77,2.29-.41-.26,4.05-3.68.19-.18.17.22a1.43,1.43,0,0,1,.21,1.21,4.38,4.38,0,0,1-.43,1,2.21,2.21,0,0,0-.39,1.85c.28.6,1.15.5,1.79.36a4.46,4.46,0,0,0,1.87-.93,4.47,4.47,0,0,1-1.84,1.06,3.75,3.75,0,0,1-1.07.18,1.11,1.11,0,0,1-1-.53,2.51,2.51,0,0,1,.26-2.18c.29-.62.52-1.33.2-1.76l.36,0-4,3.66-.71.65.3-.91.78-2.29a3.64,3.64,0,0,0,.16-.55.6.6,0,0,0,0-.41.16.16,0,0,0-.22,0,2,2,0,0,0-.41.32,41.85,41.85,0,0,0-3.34,3.45l-.86,1,.44-1.24.84-2.42.42-1.19c.11-.37,0-.54-.38-.57a2.6,2.6,0,0,0-1.14.24c-.41.14-.83.26-1.25.36a12.41,12.41,0,0,1-2.58.34l-.38,0,.13-.34a1.46,1.46,0,0,1,2.76.47,2.35,2.35,0,0,1-.39,1.66,3.74,3.74,0,0,1-1.25,1.1c-.23.13-.47.25-.71.37a4.87,4.87,0,0,1-.78.31.72.72,0,0,1-.57-.11.76.76,0,0,1-.27-.5,3.88,3.88,0,0,1,0-.85,4.9,4.9,0,0,1,1.52-2.85l.1-.09.14,0a.64.64,0,0,1,.43.49,1.28,1.28,0,0,1,0,.52,3.48,3.48,0,0,1-.4.82,5.88,5.88,0,0,1-1.14,1.3,5.66,5.66,0,0,1-3.15,1.39,1.6,1.6,0,0,1-1.52-1,2.35,2.35,0,0,1,0-1.75,5,5,0,0,1,2.48-2.22l0,0v0Z" transform="translate(-765.25 -853.49)"/><path class="cls-1" d="M983.28,886.33a1.75,1.75,0,0,0-1.51.92,9.81,9.81,0,0,0-.88,1.62c-.23.56-.12,1.16.37,1.33a2.34,2.34,0,0,0,1.65-.33,4.17,4.17,0,0,0,1.41-1.14,1.26,1.26,0,0,0,.14-1.51,1.53,1.53,0,0,0-1.47-.57,2.66,2.66,0,0,0-1.5.87l-.12-.42a6.38,6.38,0,0,0,2.61.1,7.25,7.25,0,0,0,2.59-.67,6.6,6.6,0,0,1-2.51,1.18,7.39,7.39,0,0,1-2.81-.12l-.41-.1.29-.31a3.13,3.13,0,0,1,1.79-1,2,2,0,0,1,2,.79,1.77,1.77,0,0,1-.14,2.09,4.85,4.85,0,0,1-1.58,1.28,2.78,2.78,0,0,1-2.06.36,1.26,1.26,0,0,1-.78-.87,2,2,0,0,1,.11-1.09,4.52,4.52,0,0,1,1.06-1.71A1.84,1.84,0,0,1,983.28,886.33Z" transform="translate(-765.25 -853.49)"/><path class="cls-1" d="M996.47,890.71a41.17,41.17,0,0,0,2.18-4.42c.32-.76.6-1.52.88-2.29s.57-1.54.81-2.32l.47.17c-.82,2-1.68,4-2.46,6a1.81,1.81,0,0,0,0,1.39,1.49,1.49,0,0,0,1.11.74,2.73,2.73,0,0,0,2.49-1.34,3.67,3.67,0,0,0,.4-.63,1,1,0,0,0,.09-.63.27.27,0,0,0-.34-.18,1.35,1.35,0,0,0-.57.36,3.06,3.06,0,0,0-.88,1.19,1.35,1.35,0,0,0,.18,1.29.93.93,0,0,0,1.18.2,4.33,4.33,0,0,0,1.18-1l2.28-2.32.7-.72-.29,1a16.54,16.54,0,0,0-.65,3.77l-.42-.2,3.81-3.5.46-.42,0,.62-.19,2.86-.42-.2c1.29-1.22,2.53-2.5,3.88-3.67l.14-.12.13.11a.87.87,0,0,1,.24.86,2.25,2.25,0,0,1-.32.74,5.25,5.25,0,0,0-.75,1.25,1.22,1.22,0,0,0,.29,1.3.73.73,0,0,0,1.16-.37.78.78,0,0,1-1.22.45,1.35,1.35,0,0,1-.42-1.43,5.1,5.1,0,0,1,.68-1.36c.23-.39.37-.94.08-1.13h.27c-1.22,1.3-2.54,2.49-3.81,3.74l-.47.46.05-.65.18-2.86.42.2-3.81,3.5-.46.41,0-.61a17,17,0,0,1,.67-3.88l.42.24-2.27,2.32a4.73,4.73,0,0,1-1.34,1.06,1.45,1.45,0,0,1-1.77-.34,1.87,1.87,0,0,1-.26-1.78,3.41,3.41,0,0,1,1-1.39,1.72,1.72,0,0,1,.8-.48.77.77,0,0,1,.92.54,2.09,2.09,0,0,1-.57,1.69,4.51,4.51,0,0,1-1.25,1.17,2.45,2.45,0,0,1-1.72.36,2,2,0,0,1-1.48-1,2.31,2.31,0,0,1,0-1.77c.81-2,1.65-4,2.47-6l.47.17c-.26.79-.52,1.58-.82,2.35s-.67,1.51-1,2.25A42.25,42.25,0,0,1,996.47,890.71Z" transform="translate(-765.25 -853.49)"/><path class="cls-1" d="M1015.39,887c-.65,1.32-1.27,2.66-1.85,4l-1.71,4.07-.31-.33a2.89,2.89,0,0,0,1.39-1.16,15.16,15.16,0,0,0,1-1.73l1.86-3.56a3.75,3.75,0,0,1,1.34-1.64,1.63,1.63,0,0,1,1.14-.17,1.24,1.24,0,0,1,.95.73,1.25,1.25,0,0,1-.19,1.19,2.41,2.41,0,0,1-.84.72,5.71,5.71,0,0,0-1.69.9l-.2-.42a6.94,6.94,0,0,0,5.39-3.63l.38.31a7.34,7.34,0,0,0-1.47,1.77,2.47,2.47,0,0,0-.41,1,.46.46,0,0,0,.46.54,2.31,2.31,0,0,0,1-.26,9.17,9.17,0,0,0,1-.52c.64-.39,1.49-.84,1.41-1.43a2,2,0,0,0-1.53-1.27,2.1,2.1,0,0,0-1,0,.65.65,0,0,0-.33.26c0,.08,0,.18.11.25a3.52,3.52,0,0,0,1.11.08,11.69,11.69,0,0,0,1.18-.08,12.47,12.47,0,0,0,2.33-.53,12,12,0,0,1-2.3.71,9.37,9.37,0,0,1-1.2.18,3.21,3.21,0,0,1-1.27,0,.59.59,0,0,1-.36-.73,1,1,0,0,1,.53-.54,2,2,0,0,1,1.33-.08,3,3,0,0,1,1.18.55,1.79,1.79,0,0,1,.74,1.14,1.39,1.39,0,0,1-.61,1.25,8.43,8.43,0,0,1-1,.68,11.12,11.12,0,0,1-1.09.55,2.78,2.78,0,0,1-1.28.3,1,1,0,0,1-.92-1.08,3,3,0,0,1,.48-1.21,7.77,7.77,0,0,1,1.58-1.9l1-.88-.62,1.18a7.4,7.4,0,0,1-5.79,3.9l-.66.07.46-.49a5.78,5.78,0,0,1,1.82-1c.52-.27,1-.83.79-1.29s-.92-.58-1.38-.3a3.28,3.28,0,0,0-1.14,1.44l-1.86,3.56a16.56,16.56,0,0,1-1,1.77,3.34,3.34,0,0,1-1.64,1.36l-.52.17.21-.5.86-2c.31-.68.65-1.33,1-2Q1014.25,888.87,1015.39,887Z" transform="translate(-765.25 -853.49)"/><path class="cls-1" d="M995.54,884.28c.29-.17.6-.29.9-.44l1-.16c.63-.11,1.27-.2,1.92-.28s1.28-.16,1.93-.21l1-.08c.33.06.65.11,1,.19-.32.12-.63.2-1,.31l-1,.08c-.64,0-1.27.12-1.91.2s-1.27.18-1.9.28l-1,.17C996.2,884.32,995.87,884.32,995.54,884.28Z" transform="translate(-765.25 -853.49)"/><path class="cls-1" d="M768.6,908c-.65-.06-1.06.51-1.24,1a3.4,3.4,0,0,0-.13,1.7c.09.55.31,1.07.8,1.1a3,3,0,0,0,1.55-.47,2.63,2.63,0,0,0,1.13-1.18,2.06,2.06,0,0,0,0-1.56,1.29,1.29,0,0,0-1.16-.86,1.2,1.2,0,0,0-1.22.68l-.14-.32a4.61,4.61,0,0,0,2.92-.27,4.56,4.56,0,0,1,3.26-.11,2,2,0,0,1,1.09,1.36,2.4,2.4,0,0,1-.27,1.7,3.2,3.2,0,0,1-2.94,1.41l-1.15-.05,1.06-.43a8.59,8.59,0,0,1,1.23-.45c.42-.11.84-.21,1.27-.28a14,14,0,0,1,2.57-.24,17.55,17.55,0,0,0-2.49.55c-.41.13-.81.27-1.2.43s-.8.28-1.18.45l-.09-.48a2.68,2.68,0,0,0,2.48-1.16,1.65,1.65,0,0,0-.6-2.36,4.17,4.17,0,0,0-2.9.14,5,5,0,0,1-3.24.25l-.24-.08.09-.23a1.7,1.7,0,0,1,1.72-1,1.8,1.8,0,0,1,1.59,1.17,2.56,2.56,0,0,1-.05,2,3.22,3.22,0,0,1-1.33,1.4,3.47,3.47,0,0,1-1.87.54,1.28,1.28,0,0,1-.92-.58,2,2,0,0,1-.28-1,3.79,3.79,0,0,1,.37-1.85,2,2,0,0,1,.58-.74A1,1,0,0,1,768.6,908Z" transform="translate(-765.25 -853.49)"/><path class="cls-1" d="M790,908.05c.09-.27-.2-.42-.41-.42a1.15,1.15,0,0,0-.66.15,4,4,0,0,0-1.49,2.27c-.11.45-.09.9.17,1s.75,0,1.1-.27a5.8,5.8,0,0,0,2.35-3.29l.48.14-.67,2c-.19.65-.58,1.45-.29,1.81.14.18.39.17.67,0a2.31,2.31,0,0,0,.73-.64,12,12,0,0,0,1.22-1.7,29.68,29.68,0,0,0,2.93-7.94l.5-1.87v1.93c0,2.29-1,4.32-1.62,6.37a11.19,11.19,0,0,0-.5,3.14.79.79,0,0,0,.87.91,2.91,2.91,0,0,0,1.42-.69,3,3,0,0,1-1.4.84.92.92,0,0,1-.85-.22,1.32,1.32,0,0,1-.35-.82,7.67,7.67,0,0,1,.33-3.3c.61-2.1,1.6-4.1,1.6-6.22l.49.06a30.67,30.67,0,0,1-3,8.07,12.18,12.18,0,0,1-1.27,1.77,2.7,2.7,0,0,1-.88.75,1.28,1.28,0,0,1-.63.16.83.83,0,0,1-.65-.31,1.39,1.39,0,0,1-.14-1.25l.34-1,.67-2,.48.15a6.4,6.4,0,0,1-1.43,2.6,6.28,6.28,0,0,1-1.14,1,1.72,1.72,0,0,1-1.6.31.92.92,0,0,1-.48-.8,2.13,2.13,0,0,1,.13-.78,4.34,4.34,0,0,1,.72-1.32,4,4,0,0,1,1.11-1,1.25,1.25,0,0,1,.74-.09C789.85,907.57,790.14,907.79,790,908.05Z" transform="translate(-765.25 -853.49)"/><path class="cls-1" d="M800.59,908.84a1.07,1.07,0,0,0-.86-1.21,1.43,1.43,0,0,0-1.49.38,4,4,0,0,0-.87,1.37,4.07,4.07,0,0,0-.44,1.55.83.83,0,0,0,.94.86,2.37,2.37,0,0,0,1.4-.63,6,6,0,0,0,1.78-2.64l.25-.73.21.75a2.61,2.61,0,0,1,0,1.16,1.2,1.2,0,0,0,.07.86c.26.42,1.12.3,1.49-.14a8.53,8.53,0,0,0,1-1.81,2.67,2.67,0,0,1,.74-.9,1.51,1.51,0,0,1,1.19-.34l.86.16-.81.32a4.66,4.66,0,0,0-2.85,4l-.35-.24a9.23,9.23,0,0,0,4.65-4.93l.48.13a82.67,82.67,0,0,1-3.4,12l-.45-.2A35.9,35.9,0,0,0,808,908l.25-1.24.24,1.24c.19,1-.27,1.81-.12,2.52a1.13,1.13,0,0,0,.55.83c.27.13.59,0,.9-.27a7.9,7.9,0,0,0,2.65-4l.45.2a4.23,4.23,0,0,0-.49,3.48l-.37-.14a8.42,8.42,0,0,0,2.91-3.16l1-1.83-.51,2c-.21.87-.47,1.78-.66,2.62a1,1,0,0,0,.05.52.25.25,0,0,0,.32.11,5.58,5.58,0,0,0,1.15-.57,9.37,9.37,0,0,0,3.6-3.86l.22.36a2.43,2.43,0,0,0-2.2,3c.1.38.19.47.54.41a4.2,4.2,0,0,0,1-.36,4.48,4.48,0,0,0,1.67-1.41c.22-.3.37-.64.6-1a1.64,1.64,0,0,1,1.06-.79,1.46,1.46,0,0,1,1.26.42,2.56,2.56,0,0,1,.7,1.05,3.92,3.92,0,0,1-1.61,4.27l0,0h0a.63.63,0,0,1-.45-.83,1.18,1.18,0,0,1,.68-.64c.54-.23,1.08-.43,1.63-.61a23,23,0,0,1,3.37-.83,22.59,22.59,0,0,0-3.33.95,17.14,17.14,0,0,0-1.59.66,1,1,0,0,0-.55.53c-.07.22.07.52.26.52l-.08,0a3.59,3.59,0,0,0,1.36-3.93c-.24-.64-.87-1.26-1.47-1.13s-.87.93-1.35,1.59a5.1,5.1,0,0,1-1.85,1.57,5,5,0,0,1-1.17.4,1,1,0,0,1-.75-.13,1.17,1.17,0,0,1-.37-.63,2.93,2.93,0,0,1,2.69-3.59h.41l-.18.37a10,10,0,0,1-3.79,4.07,6.54,6.54,0,0,1-1.3.63.76.76,0,0,1-.87-.36,1.42,1.42,0,0,1-.1-.82c.2-.95.45-1.8.67-2.7l.47.18a9,9,0,0,1-3.09,3.35l-.28.18-.1-.31a4.74,4.74,0,0,1,.55-3.9l.87-1.36-.42,1.56a8.39,8.39,0,0,1-2.82,4.3,2.08,2.08,0,0,1-.62.37,1.11,1.11,0,0,1-.8,0,1.64,1.64,0,0,1-.83-1.19c-.15-1,.29-1.79.12-2.52h.49a36.37,36.37,0,0,1-4,10.8l-.45-.21a84.71,84.71,0,0,0,3.38-11.93l.47.13a9.68,9.68,0,0,1-4.9,5.21l-.37.17,0-.41a5.1,5.1,0,0,1,3.16-4.48l.05.48c-.55-.11-1.11.41-1.41,1a8.18,8.18,0,0,1-1.05,1.93,1.78,1.78,0,0,1-1.09.54,1.21,1.21,0,0,1-1.18-.47,1.62,1.62,0,0,1-.14-1.22,2.68,2.68,0,0,0,.07-1l.45,0a6.47,6.47,0,0,1-2,2.75,2.69,2.69,0,0,1-1.61.65,1.15,1.15,0,0,1-.86-.31,1.12,1.12,0,0,1-.33-.85,4.17,4.17,0,0,1,.52-1.62,3.92,3.92,0,0,1,.95-1.39,1.9,1.9,0,0,1,.75-.41,1.6,1.6,0,0,1,.84.06A1.11,1.11,0,0,1,800.59,908.84Z" transform="translate(-765.25 -853.49)"/><path class="cls-1" d="M792.57,905.42c.32-.21.65-.38,1-.56l1.05-.33,2.1-.65,2.11-.64,1.05-.33c.37,0,.74-.07,1.12-.08-.32.2-.65.37-1,.56l-1,.32-2.1.65-2.1.65-1,.33C793.32,905.37,793,905.41,792.57,905.42Z" transform="translate(-765.25 -853.49)"/><path class="cls-1" d="M845.44,907.55c-.51,1.71-1,3.44-1.36,5.18-.16.88-.37,1.74-.48,2.62a16.63,16.63,0,0,0-.14,2.64l-.49-.06,1.28-4.59.64-2.29a14.05,14.05,0,0,1,.8-2.28,4.27,4.27,0,0,1,1.58-1.92,2.49,2.49,0,0,1,1.26-.39,1.59,1.59,0,0,1,.69.17,1,1,0,0,1,.48.61,2.49,2.49,0,0,1-.21,1.31,5.26,5.26,0,0,1-.56,1.11,5.7,5.7,0,0,1-1.75,1.74L847,911l3.86-1.42a7.77,7.77,0,0,0,1.78-.88,2,2,0,0,0,.95-1.48l.44.18a6.2,6.2,0,0,0-1.26,2c-.25.69-.22,1.63.47,1.75a1.48,1.48,0,0,0,1-.33,9.68,9.68,0,0,0,.9-.81,11.46,11.46,0,0,0,1.53-1.94,11.5,11.5,0,0,1-1.37,2.08,9.3,9.3,0,0,1-.87.91,1.78,1.78,0,0,1-1.26.5,1.17,1.17,0,0,1-1-1,2.82,2.82,0,0,1,.13-1.36,7,7,0,0,1,1.37-2.17l.46-.51,0,.69a2.52,2.52,0,0,1-1.16,1.87,8,8,0,0,1-1.9.94l-3.85,1.42-2.22.82,2-1.26a5.24,5.24,0,0,0,1.59-1.59,5,5,0,0,0,.51-1,2.1,2.1,0,0,0,.19-1c-.05-.26-.35-.41-.69-.41a2.07,2.07,0,0,0-1,.32,3.84,3.84,0,0,0-1.39,1.7,35.73,35.73,0,0,0-1.41,4.5l-1.28,4.58-.44,1.59,0-1.65a16.48,16.48,0,0,1,.15-2.72,16.27,16.27,0,0,1,.53-2.66C844.14,910.89,844.79,909.22,845.44,907.55Z" transform="translate(-765.25 -853.49)"/><path class="cls-1" d="M856.09,908.51a10.38,10.38,0,0,0-.2,1.44c0,.24,0,.48,0,.72s0,.44,0,.46.29,0,.51,0a3.58,3.58,0,0,0,.66-.19,2.75,2.75,0,0,0,1.07-.77,1.76,1.76,0,0,0,0-2.32,1.2,1.2,0,0,0-1.93.5l-.28-.29a13.76,13.76,0,0,0,2.78-.59c.23-.07.44-.17.67-.23l.69-.2c.46-.15.91-.32,1.36-.5a12.28,12.28,0,0,1-1.22.81l-.65.35c-.23.1-.47.16-.7.25a14.82,14.82,0,0,1-2.87.61l-.35,0,.07-.33a1.7,1.7,0,0,1,2.77-.79,2.26,2.26,0,0,1,.09,3,3,3,0,0,1-1.28.91,3.81,3.81,0,0,1-.75.22,1.14,1.14,0,0,1-.9-.1.69.69,0,0,1-.26-.5,1.79,1.79,0,0,1,0-.41c0-.24.11-.49.18-.73A7.74,7.74,0,0,1,856.09,908.51Z" transform="translate(-765.25 -853.49)"/><path class="cls-1" d="M861.85,906.76c0,.78-.09,1.54-.13,2.31a8.79,8.79,0,0,1-.12,1.15l-.17,1.14-.49-.08a10.77,10.77,0,0,1,2.34-4.88,1.6,1.6,0,0,1,.59-.49.83.83,0,0,1,.89.08,1,1,0,0,1,.32.8,2,2,0,0,1-.15.74,4.8,4.8,0,0,1-1.71,2.19l0-.38a7.42,7.42,0,0,0,1.69,1.24,2,2,0,0,0,1.87.11,4.83,4.83,0,0,0,1.4-1.47,4.45,4.45,0,0,1,1.57-1.54,4.72,4.72,0,0,0-1.26,1.73,3.43,3.43,0,0,1-1.48,1.73,2.56,2.56,0,0,1-2.32-.11,7.76,7.76,0,0,1-1.81-1.33l-.23-.21.26-.17a4.35,4.35,0,0,0,1.52-2c.15-.35.16-.83,0-1s-.53,0-.79.34a10.36,10.36,0,0,0-2.22,4.65l-.49-.08.17-1.14a8.35,8.35,0,0,1,.21-1.13C861.5,908.26,861.66,907.51,861.85,906.76Z" transform="translate(-765.25 -853.49)"/><path class="cls-1" d="M871.88,907a7.09,7.09,0,0,0-2.25,1.74,2.86,2.86,0,0,0-.67,1.13c0,.34.24.55.68.52a3.18,3.18,0,0,0,1.26-.42,5.92,5.92,0,0,0,1.15-.77,6.31,6.31,0,0,0,1.67-2.2l.62-1.38-.15,1.5c-.09,1-.8,1.62-1,2.32a1.48,1.48,0,0,0,0,1,.56.56,0,0,0,.72.34,2.36,2.36,0,0,0,.88-.68l.87-.9,1.74-1.79.31.39c-.7.42-.61,1.6,0,2.21a2.34,2.34,0,0,0,2.48.34,3.5,3.5,0,0,0,2-1.69,1.2,1.2,0,0,0,.07-.59.77.77,0,0,0-.3-.44c-.32-.26-.79-.26-.92,0l-.25-.37a17.61,17.61,0,0,1,4.76.35,17.18,17.18,0,0,0-4.7.15l-.46.08.21-.44a.91.91,0,0,1,.83-.48,1.49,1.49,0,0,1,.83.3,1.22,1.22,0,0,1,.49.76,1.75,1.75,0,0,1-.09.85,3.93,3.93,0,0,1-2.35,2,2.78,2.78,0,0,1-3-.48,2.35,2.35,0,0,1-.6-1.49,1.64,1.64,0,0,1,.75-1.48l1.61-1-1.31,1.35L876,909.63l-.87.9a2.88,2.88,0,0,1-1.09.81,1.08,1.08,0,0,1-1.33-.61,2,2,0,0,1,0-1.4c.32-.88,1-1.48,1-2.21l.47.12a6.68,6.68,0,0,1-1.8,2.38,6.88,6.88,0,0,1-1.24.83,3.55,3.55,0,0,1-1.47.48,1.24,1.24,0,0,1-.85-.22.84.84,0,0,1-.3-.89,3.05,3.05,0,0,1,.89-1.26A6.66,6.66,0,0,1,871.88,907Z" transform="translate(-765.25 -853.49)"/><path class="cls-1" d="M888.07,907.93a4.41,4.41,0,0,0-3,.78,2.19,2.19,0,0,0-.88,1.15,1.16,1.16,0,0,0,.33,1.2c.31.32.71.25,1.18,0a13.93,13.93,0,0,0,1.34-.8,14.31,14.31,0,0,0,2.38-2l.95-1-.54,1.27a2.44,2.44,0,0,0-.23,2.06.83.83,0,0,0,.71.51,1.46,1.46,0,0,0,.9-.4c.56-.49,1.13-1.09,1.69-1.63l1.69-1.66.78-.77-.37,1-1.4,3.87-.16-.32a1.44,1.44,0,0,0,1.25-.24,8.07,8.07,0,0,0,1.12-1,8.59,8.59,0,0,1,1.2-1,2.19,2.19,0,0,1,1.63-.41l.29.07-.11.28c-.27.66-.61,1.41-.82,2,0,.24.07.29.4.2a3.63,3.63,0,0,0,.84-.58c.57-.47,1.12-.95,1.66-1.45s1.05-1,1.58-1.55l.29-.28.11.37a2.33,2.33,0,0,1-.16,1.51,7.89,7.89,0,0,0-.49,1.29,1.19,1.19,0,0,0,.28,1.21c.32.27,1,.35,1.18-.12-.17.5-.86.49-1.25.22a1.37,1.37,0,0,1-.45-1.35,9.86,9.86,0,0,1,.39-1.37,1.94,1.94,0,0,0,.05-1.23l.4.08c-.5.57-1.05,1.07-1.59,1.59s-1.11,1-1.69,1.46l-.43.35a2.14,2.14,0,0,1-.55.32.93.93,0,0,1-.75,0,.68.68,0,0,1-.31-.75c.26-.8.57-1.4.85-2.11l.18.34a1.69,1.69,0,0,0-1.26.33,8.46,8.46,0,0,0-1.12,1,8.15,8.15,0,0,1-1.21,1,1.93,1.93,0,0,1-1.66.29l-.25-.09.09-.23,1.4-3.88.41.26-1.69,1.67c-.58.55-1.09,1.11-1.72,1.66a1.91,1.91,0,0,1-1.23.51,1.35,1.35,0,0,1-1.15-.78,2.05,2.05,0,0,1-.16-1.31,5.35,5.35,0,0,1,.38-1.17l.41.26a14.87,14.87,0,0,1-2.46,2.09c-.45.3-.92.57-1.39.82a2.14,2.14,0,0,1-.85.29,1.29,1.29,0,0,1-.91-.34,1.59,1.59,0,0,1-.38-1.72,2.58,2.58,0,0,1,1.13-1.24A4.56,4.56,0,0,1,888.07,907.93Z" transform="translate(-765.25 -853.49)"/><path class="cls-2" d="M854.62,904.71" transform="translate(-765.25 -853.49)"/><path class="cls-1" d="M908,912.31a.22.22,0,0,0,0-.24s-.05,0-.05,0,0,0,0,0,0,0,0,0l.05,0a.19.19,0,0,0,0-.23.27.27,0,0,1,.17-.23.34.34,0,0,1,.17.13.47.47,0,0,1,.09.3.48.48,0,0,1-.08.29.39.39,0,0,1-.17.14A.24.24,0,0,1,908,912.31Z" transform="translate(-765.25 -853.49)"/><path class="cls-1" d="M919.69,904.39c-.15,1.27-.35,2.54-.52,3.8l-.76,3.75-.49-.11,2.13-7.41.3-1,.19,1.07a13.84,13.84,0,0,0,1.2,3.72,4.38,4.38,0,0,0,1.07,1.53,1.45,1.45,0,0,0,1.58.23c.46-.28.59-.95.78-1.59l.56-1.91c.44-1.26.88-2.52,1.35-3.77-.27,1.31-.58,2.61-.87,3.91l-.56,1.91c-.09.32-.17.64-.3,1a1.83,1.83,0,0,1-.7.89,1.9,1.9,0,0,1-2.15-.26,4.75,4.75,0,0,1-1.21-1.7,14.56,14.56,0,0,1-1.24-3.85l.48,0L918.4,912l-.48-.12.76-3.76C919,906.86,919.34,905.62,919.69,904.39Z" transform="translate(-765.25 -853.49)"/><path class="cls-1" d="M929.33,908a4,4,0,0,0-2,2.25.8.8,0,0,0,.46,1,1.5,1.5,0,0,0,1.29-.39,1.86,1.86,0,0,0,.43-2.58,1.12,1.12,0,0,0-1.2-.4,1,1,0,0,0-.7,1l-.24-.22a14.44,14.44,0,0,0,2.18-.16,20.91,20.91,0,0,0,2.22-.24,13.5,13.5,0,0,1-2.14.73,15.63,15.63,0,0,1-2.26.17h-.22l0-.21a1.48,1.48,0,0,1,1-1.53,1.59,1.59,0,0,1,1.74.55,2,2,0,0,1,.43,1.75,2.83,2.83,0,0,1-.91,1.53,2,2,0,0,1-1.76.49,1.16,1.16,0,0,1-.75-.67,1.55,1.55,0,0,1-.05-1,2.44,2.44,0,0,1,1-1.45A3.8,3.8,0,0,1,929.33,908Z" transform="translate(-765.25 -853.49)"/><path class="cls-1" d="M939.93,912.45a10.52,10.52,0,0,0,1.61-1.08,8.56,8.56,0,0,0,1.49-1.19c.43-.44,1-1,.79-1.39a1,1,0,0,0-1.32-.34,2.79,2.79,0,0,0-1,1.44,2.2,2.2,0,0,0-.23,1.66c.21.44.9.29,1.47.07a4.45,4.45,0,0,0,1.69-.86,4.23,4.23,0,0,1-1.51,1.33,3.79,3.79,0,0,1-1,.25,1.09,1.09,0,0,1-1.06-.55,1.7,1.7,0,0,1-.11-1.12,4,4,0,0,1,.32-1,3.26,3.26,0,0,1,1.24-1.67,1.55,1.55,0,0,1,1.13-.15,1.23,1.23,0,0,1,.91.75,1.27,1.27,0,0,1-.23,1.15,6.23,6.23,0,0,1-.68.76,9.46,9.46,0,0,1-1.56,1.26A8.16,8.16,0,0,1,939.93,912.45Z" transform="translate(-765.25 -853.49)"/><path class="cls-1" d="M946.1,908.31l-1.1,3.74-.1,0,3.57-4.06.17-.19.07.24a5.36,5.36,0,0,1-.48,3.94l-.05-.25a1.42,1.42,0,0,0,1.41.15,3.87,3.87,0,0,0,1.29-.92,11.62,11.62,0,0,0,1.76-2.78,34.42,34.42,0,0,0,2.43-6.25l.47.16c-.64,1.49-1.2,3-1.7,4.55s-.93,3.13-1.26,4.68c-.06.37,0,.66.28.76a1.32,1.32,0,0,0,1-.13,5.4,5.4,0,0,0,1.82-1.43c.55-.58,1.06-1.23,1.7-1.79a3.21,3.21,0,0,1,2.4-.91l2.2.23-2.19.27a4,4,0,0,0-3.35,3.92l-.32-.23a6.26,6.26,0,0,0,3.95-4l.48.13-.59,2.7a2.6,2.6,0,0,0-.1,1.24c.09.32.39.35.71.08.61-.59,1.25-1.33,1.88-2l1.88-2,.56-.61-.13.82-.67,4.06-.48-.15a9.5,9.5,0,0,1,3.68-4.13l.59-.35-.22.65a7.09,7.09,0,0,0,0,4.55l-.41-.11a22.69,22.69,0,0,0,6.85-11.28l.48.14L971,912.5l-.2-.32a5.86,5.86,0,0,0,6-3.48l.48.14a4.92,4.92,0,0,1-.9,1.6,1.28,1.28,0,0,0-.14,1.37.48.48,0,0,0,.52.18,4.09,4.09,0,0,0,.78-.24,3.86,3.86,0,0,0,1.36-.92,2.27,2.27,0,0,0,.21-3,1.5,1.5,0,0,0-2.55.55l-.11-.12a26.45,26.45,0,0,0,7.54-1.19,26.39,26.39,0,0,1-7.53,1.41h-.14l0-.14a1.77,1.77,0,0,1,3-.74,2.64,2.64,0,0,1-.13,3.46,4.36,4.36,0,0,1-1.49,1.07,4.88,4.88,0,0,1-.89.29,1,1,0,0,1-1-.39,1.73,1.73,0,0,1,.14-1.92,4.71,4.71,0,0,0,.83-1.42l.47.14a6.34,6.34,0,0,1-6.56,3.78l-.3,0,.09-.29,3.6-10.76.48.14a23.33,23.33,0,0,1-7,11.53l-.29.26-.12-.36a7.59,7.59,0,0,1,0-4.87l.36.29a9,9,0,0,0-3.48,3.91l-.78,1.7.3-1.85.68-4.05.43.21-1.89,2c-.64.68-1.2,1.34-1.93,2a1.1,1.1,0,0,1-.81.29.84.84,0,0,1-.69-.61,3,3,0,0,1,.09-1.49l.59-2.71.48.13a6.72,6.72,0,0,1-4.27,4.27l-.32.11v-.34a4.47,4.47,0,0,1,3.78-4.43v.5a2.66,2.66,0,0,0-2,.79c-.59.52-1.1,1.15-1.66,1.75a6,6,0,0,1-2,1.55,1.8,1.8,0,0,1-1.38.13.93.93,0,0,1-.55-.58,1.37,1.37,0,0,1,0-.72,47.42,47.42,0,0,1,1.27-4.75c.5-1.56,1.08-3.09,1.72-4.59l.47.16a35.21,35.21,0,0,1-2.46,6.35,10.92,10.92,0,0,1-1.87,2.89,4,4,0,0,1-1.48,1,2.19,2.19,0,0,1-.92.12A1.79,1.79,0,0,1,948,912l-.14-.1.08-.15a5,5,0,0,0,.55-3.68l.24.06-3.7,4-.17.19.08-.24Z" transform="translate(-765.25 -853.49)"/><path class="cls-1" d="M968.48,905.75c.42-.12.83-.2,1.24-.31l1.25-.1c.84-.08,1.67-.19,2.49-.32s1.65-.28,2.47-.46l1.22-.29c.43,0,.85-.07,1.28-.08-.38.21-.77.38-1.16.56l-1.23.3c-.83.18-1.66.33-2.5.47s-1.68.24-2.52.32l-1.26.1C969.33,905.89,968.9,905.84,968.48,905.75Z" transform="translate(-765.25 -853.49)"/><path class="cls-1" d="M948.57,905.23c.47-.18.95-.33,1.42-.5l1.47-.26,2.93-.52,2.94-.51,1.47-.26c.5,0,1,0,1.51,0-.47.18-.95.33-1.43.5l-1.46.26-2.94.52-2.93.51-1.47.26C949.58,905.23,949.08,905.25,948.57,905.23Z" transform="translate(-765.25 -853.49)"/><path class="cls-1" d="M994.51,912.89a5.06,5.06,0,0,0,2.84-1.34,4,4,0,0,0,.91-1.24.84.84,0,0,0,0-.64.51.51,0,0,0-.4-.33c-.27,0-.71.52-1,.87a2.05,2.05,0,0,0-.58,1.29c0,.93,1.21,1.48,2.1,1.15a6.09,6.09,0,0,0,2.44-1.85,15.54,15.54,0,0,0,1.87-2.56,14.42,14.42,0,0,0,1.29-2.9,14.61,14.61,0,0,0,.41-1.54c.09-.46,0-1-.29-1.13l.25,0a11.24,11.24,0,0,0-2.62,3.59,10.5,10.5,0,0,0-1,4.29,1.11,1.11,0,0,0,1.26,1.12,3.87,3.87,0,0,0,2-.79,10.14,10.14,0,0,0,3-3.26l.33.35a9.89,9.89,0,0,0-1.88,1.08,3.1,3.1,0,0,0-1.22,1.65,1.75,1.75,0,0,0,.49,1.9,1.47,1.47,0,0,0,2,0,1.56,1.56,0,0,1-2.08.18,2,2,0,0,1-.72-2.11,3.53,3.53,0,0,1,1.24-2,10.28,10.28,0,0,1,2-1.14l.73-.37-.41.71a10.42,10.42,0,0,1-3.14,3.43,4.26,4.26,0,0,1-2.23.88,1.6,1.6,0,0,1-1.78-1.58,10.85,10.85,0,0,1,1.07-4.54,11.64,11.64,0,0,1,2.74-3.75l.1-.1.15,0a1,1,0,0,1,.62.81,2.41,2.41,0,0,1,0,.89,16.3,16.3,0,0,1-.42,1.6,15.18,15.18,0,0,1-3.27,5.64,6.55,6.55,0,0,1-2.67,2,2.36,2.36,0,0,1-1.75-.13,1.71,1.71,0,0,1-1-1.5,2.58,2.58,0,0,1,.69-1.61,6.63,6.63,0,0,1,.57-.61,1.17,1.17,0,0,1,.89-.43,1.07,1.07,0,0,1,.67,1.6,4.09,4.09,0,0,1-1.08,1.28A5.12,5.12,0,0,1,994.51,912.89Z" transform="translate(-765.25 -853.49)"/><path class="cls-1" d="M1017.35,908.41a5.35,5.35,0,0,0-1.45,3.24l-.26-.07a11.69,11.69,0,0,1,2.19-3.22,1.35,1.35,0,0,1,.49-.32.75.75,0,0,1,.69.11,1.14,1.14,0,0,1,.32,1.13,3.36,3.36,0,0,1-.45.93,1.19,1.19,0,0,0-.21.74,1,1,0,0,0,1.23.64,3.26,3.26,0,0,0,1.47-1l2.78-2.65.29.4a8.56,8.56,0,0,0-2.12,1.66c-.52.63-1.51,1.56-.69,1.8a1.05,1.05,0,0,0,1-.35,12.41,12.41,0,0,0,1-1,15.84,15.84,0,0,0,1.68-2.16l.44.23a9.1,9.1,0,0,0-.53,1.85c-.13.57,0,1.35.45,1.28a2.28,2.28,0,0,0,.77-.4,8.59,8.59,0,0,0,.76-.59,8,8,0,0,0,1.28-1.44l.43.26a5.67,5.67,0,0,0-.45,1.21,2.54,2.54,0,0,0-.1,1.2c.08.33.37.36.79.22a3.73,3.73,0,0,0,1.13-.56,1.82,1.82,0,0,0,.76-2.07,1.08,1.08,0,0,0-1.77-.35l-.18-.33a7.49,7.49,0,0,0,5.3-1.93,7.71,7.71,0,0,1-5.3,2.36h-.4l.22-.34a1.49,1.49,0,0,1,2.59.4,2.33,2.33,0,0,1-.92,2.66,4.21,4.21,0,0,1-1.28.62,1.44,1.44,0,0,1-.79.08.87.87,0,0,1-.63-.63,3.06,3.06,0,0,1,.09-1.46,6.74,6.74,0,0,1,.49-1.32l.43.26a8.61,8.61,0,0,1-1.36,1.53,9.65,9.65,0,0,1-.81.62,2.53,2.53,0,0,1-1,.49.86.86,0,0,1-.65-.22,1.24,1.24,0,0,1-.31-.54,2.42,2.42,0,0,1,0-1.1,9,9,0,0,1,.56-2l.44.23a16.22,16.22,0,0,1-1.73,2.23c-.32.34-.65.67-1,1a1.53,1.53,0,0,1-1.51.44,1,1,0,0,1-.63-.66,1.08,1.08,0,0,1,.23-.84,9.72,9.72,0,0,1,.89-1.12,9.38,9.38,0,0,1,2.25-1.75l1.7-.94-1.41,1.34-2.77,2.65a3.85,3.85,0,0,1-1.72,1.1,1.71,1.71,0,0,1-1.09-.15,1.28,1.28,0,0,1-.73-.89c-.11-.87.59-1.38.66-1.85a.7.7,0,0,0-.14-.64c-.11-.1-.31,0-.52.18a13.41,13.41,0,0,0-2.3,3l-.37.68.12-.76A5.52,5.52,0,0,1,1017.35,908.41Z" transform="translate(-765.25 -853.49)"/><path class="cls-1" d="M1023.26,905.56c.16-.1.31-.17.46-.25l.44,0a10.07,10.07,0,0,0,1.77-.32l.43-.14c.16,0,.33,0,.51.08a4.4,4.4,0,0,1-.35.39l-.45.15a7.77,7.77,0,0,1-.93.21c-.31.06-.62.1-.94.13l-.47,0A3,3,0,0,1,1023.26,905.56Z" transform="translate(-765.25 -853.49)"/><path class="cls-1" d="M770.75,924.65a70.83,70.83,0,0,0-1.52,9.91,69.42,69.42,0,0,0-.34,10l-.49-.07a8.37,8.37,0,0,0-2.83-9.19l-.32-.25.36-.18,5.31-2.63a20.2,20.2,0,0,0,4.88-3.18l.29.4a10,10,0,0,0-2.27,1.66,10.24,10.24,0,0,0-.94,1,1.38,1.38,0,0,0-.28,1.11c.09.26.5.19.86-.11a6.05,6.05,0,0,0,1-.95,6.14,6.14,0,0,0,1.27-2.44l.29-1.18.19,1.19a5,5,0,0,1-.38,2.07,1.21,1.21,0,0,0,0,.82.68.68,0,0,0,.57.42,2.5,2.5,0,0,0,1.65-.66,13,13,0,0,0,4.61-8.47l.36.25a4.75,4.75,0,0,0-1.92,1.95,9.79,9.79,0,0,0-.91,2.72,7.53,7.53,0,0,0-.15,2.87,1.86,1.86,0,0,0,2.08,1.56,1.93,1.93,0,0,1-2.22-1.53,7.71,7.71,0,0,1,0-2.95,9.71,9.71,0,0,1,.81-2.86,4.55,4.55,0,0,1,2.08-2.21l.41-.19-.05.44a13.46,13.46,0,0,1-3.32,7.38,13.23,13.23,0,0,1-1.48,1.42,2.88,2.88,0,0,1-2,.78,1.21,1.21,0,0,1-1-.72,1.75,1.75,0,0,1,0-1.15,4.42,4.42,0,0,0,.38-1.84h.49a6.59,6.59,0,0,1-1.37,2.65,6.28,6.28,0,0,1-1.1,1,1.82,1.82,0,0,1-.75.37.81.81,0,0,1-.86-.46,1.83,1.83,0,0,1,.34-1.61,10.45,10.45,0,0,1,3.38-2.85l1.66-.89-1.38,1.29a20.53,20.53,0,0,1-5,3.27l-5.3,2.63,0-.43a8.87,8.87,0,0,1,3,9.76l-.43,1.27-.05-1.34a69.1,69.1,0,0,1,.35-10.07A70.2,70.2,0,0,1,770.75,924.65Z" transform="translate(-765.25 -853.49)"/><path class="cls-1" d="M786.11,929.25a.59.59,0,0,0-.57-.43.9.9,0,0,0-.68.27,7.44,7.44,0,0,0-.94,1.2,10.35,10.35,0,0,0-.71,1.36A1.87,1.87,0,0,0,783,933c.15.38.58.26.92-.09a10.82,10.82,0,0,0,1-1.1,8.91,8.91,0,0,0,1.45-2.63l.44-1.23,0,1.31.17,4.1-.33-.21A7.19,7.19,0,0,0,791,928.9l.19-.55.27.52a1.94,1.94,0,0,1-.14,1.72,9.23,9.23,0,0,0-.66,1.35,1.38,1.38,0,0,0,.18,1.23c.25.26.69.12,1-.24.71-.71,1.49-1.47,2.18-2.18.3-.35.48-.87.21-1s-.68.26-.86.65l-.26-.36a26.13,26.13,0,0,0,5.43-1.41l.21.45A7.39,7.39,0,0,0,796.5,931a2.77,2.77,0,0,0-.66,1.22.67.67,0,0,0,.45.89,1.62,1.62,0,0,0,1.17-.5,13.23,13.23,0,0,0,1-1.08,24.84,24.84,0,0,0,1.81-2.41L801,928l-.29,1.31c-.17.75-.36,1.5-.56,2.24l-.3,1.11c-.11.37-.22.74,0,.92a1.12,1.12,0,0,0,1,0l1.08-.38,2.17-.77-2.12.91-1.06.45a1.33,1.33,0,0,1-1.23,0,.74.74,0,0,1-.29-.63,3.26,3.26,0,0,1,.1-.6l.23-1.13c.14-.76.31-1.51.5-2.25l.45.2a27.58,27.58,0,0,1-1.85,2.45,12.6,12.6,0,0,1-1.07,1.14,2,2,0,0,1-1.58.61,1.08,1.08,0,0,1-.76-.57,1.37,1.37,0,0,1-.1-.9,3.34,3.34,0,0,1,.77-1.44,8.12,8.12,0,0,1,2.41-2l.21.45a26,26,0,0,1-5.54,1.44l-.49.07.23-.43a2.27,2.27,0,0,1,.55-.69.89.89,0,0,1,1-.17.75.75,0,0,1,.37.43,1,1,0,0,1,0,.53,2.14,2.14,0,0,1-.43.77c-.75.78-1.46,1.48-2.22,2.23a1.89,1.89,0,0,1-.76.47,1,1,0,0,1-1-.24,1.86,1.86,0,0,1-.32-1.71,9.34,9.34,0,0,1,.7-1.45,1.48,1.48,0,0,0,.14-1.28l.46,0a7.71,7.71,0,0,1-4.52,4.56l-.32.12,0-.34-.17-4.14.49.08a9.69,9.69,0,0,1-1.54,2.78,8,8,0,0,1-1.1,1.16,1.49,1.49,0,0,1-.81.41.79.79,0,0,1-.81-.55,2.19,2.19,0,0,1,.29-1.63,9.66,9.66,0,0,1,.83-1.34,6.81,6.81,0,0,1,1-1.17,1,1,0,0,1,.75-.24A.62.62,0,0,1,786.11,929.25Z" transform="translate(-765.25 -853.49)"/><path class="cls-1" d="M818.34,935.33a9.16,9.16,0,0,1,1.19-2.83,6.33,6.33,0,0,1,1-1.23,2,2,0,0,1,1.49-.63,1.25,1.25,0,0,1,.79.43,1.72,1.72,0,0,1,.34.8,3.77,3.77,0,0,1-.15,1.61,6,6,0,0,1-1.64,2.71l-.63.59.22-.83a2.81,2.81,0,0,1,1.46-1.63,18.47,18.47,0,0,0,1.76-1,9.53,9.53,0,0,0,2.74-2.88l.4.29a10.15,10.15,0,0,0-1.68,2.71c-.1.24-.2.51-.27.74a.47.47,0,0,0,.1.5,1.31,1.31,0,0,0,1.27-.11c.83-.51,1.52-1.55,1.09-2.44a1,1,0,0,0-1-.63c-.42.08-.8.52-.68.88l-.34-.16a13.28,13.28,0,0,0,5.16-3.89,13.12,13.12,0,0,0,1.73-2.75,11.71,11.71,0,0,0,.6-1.52,1.3,1.3,0,0,0,.12-.67.41.41,0,0,0-.4-.28c-.42-.05-.75.36-1,.83s-.46,1-.67,1.5a28.53,28.53,0,0,0-1,3.12,27,27,0,0,0-.92,6.51l-.35-.24a4.67,4.67,0,0,0,2-1.22,1.74,1.74,0,0,0,.36-1.06,1.2,1.2,0,0,0-.46-1l-.38-.24.44,0a5,5,0,0,0,3.68-1.23,5.11,5.11,0,0,1-3.69,1.46l.07-.21a1.42,1.42,0,0,1,.64,1.17,2,2,0,0,1-.36,1.3,4.81,4.81,0,0,1-2.15,1.46l-.36.15V935a28,28,0,0,1,.95-6.63,27.57,27.57,0,0,1,1.06-3.18c.21-.52.43-1,.68-1.53a2.64,2.64,0,0,1,.52-.76,1.23,1.23,0,0,1,.94-.35.91.91,0,0,1,.85.66,1.72,1.72,0,0,1-.14.94,11.26,11.26,0,0,1-.62,1.58,13.86,13.86,0,0,1-7.14,6.89l-.26.11-.08-.27a1.11,1.11,0,0,1,.23-1,1.38,1.38,0,0,1,2.4.41,2,2,0,0,1-.08,1.8A3.46,3.46,0,0,1,827,935a2.27,2.27,0,0,1-.88.28,1.25,1.25,0,0,1-1-.23,1,1,0,0,1-.26-1,6.9,6.9,0,0,1,.29-.8,10.76,10.76,0,0,1,1.76-2.85l.41.3a10.19,10.19,0,0,1-2.88,3c-.58.4-1.23.7-1.8,1a2.35,2.35,0,0,0-1.23,1.32l-.41-.24a5.42,5.42,0,0,0,1.49-2.48,3.92,3.92,0,0,0,.19-1.42A.93.93,0,0,0,822,931a1.77,1.77,0,0,0-1.28.47,6,6,0,0,0-1,1.13A9.14,9.14,0,0,0,818.34,935.33Z" transform="translate(-765.25 -853.49)"/><path class="cls-1" d="M834.52,930.77c-.22,1.2-.48,2.4-.73,3.6l-.44-.14a11.88,11.88,0,0,1,1.1-2.37,13,13,0,0,1,.72-1.1,3.29,3.29,0,0,1,1-1,1.24,1.24,0,0,1,1.49.12,1.56,1.56,0,0,1,.37,1.43,2,2,0,0,1-.81,1.17,6.21,6.21,0,0,1-1.16.67l0-.43a4.54,4.54,0,0,0,4.1.47A4.74,4.74,0,0,0,842,932.1a4.12,4.12,0,0,0,.64-.85,1.65,1.65,0,0,0,.29-.92c-.05-.27-.13-.26-.53-.14a3.44,3.44,0,0,0-.93.49,2.32,2.32,0,0,0-1,1.72,1.89,1.89,0,0,0,.77,1.77,1.65,1.65,0,0,0,2-.18,1.76,1.76,0,0,1-2.14.44,2.09,2.09,0,0,1-1.14-2.06,2.84,2.84,0,0,1,1.19-2.09,3.65,3.65,0,0,1,1.07-.56,1.22,1.22,0,0,1,.7-.09.73.73,0,0,1,.49.65,2.19,2.19,0,0,1-.35,1.22,4.76,4.76,0,0,1-.72,1,5.32,5.32,0,0,1-2,1.25,5,5,0,0,1-4.57-.53l-.34-.25.38-.18c.75-.35,1.54-.79,1.7-1.5a1,1,0,0,0-.23-1,.73.73,0,0,0-.9,0,5.62,5.62,0,0,0-1.53,1.87,17,17,0,0,0-1.09,2.28l-.45-.14C833.74,933.09,834.11,931.92,834.52,930.77Z" transform="translate(-765.25 -853.49)"/><path class="cls-1" d="M856.93,931.5a1.2,1.2,0,0,0-1.29.06,1.64,1.64,0,0,0-.46.45,3.72,3.72,0,0,0-.41.53,4.09,4.09,0,0,0-.59,1.21.73.73,0,0,0,.51.86,1.28,1.28,0,0,0,1.16-.14,4.32,4.32,0,0,0,1-.91,6.67,6.67,0,0,0,1.29-2.44l.48.14-.4,1.4a13.34,13.34,0,0,0-.34,1.35.48.48,0,0,0,.19.43.87.87,0,0,0,.53.24,2.5,2.5,0,0,0,1.32-.4,2.45,2.45,0,0,1-1.31.74,1.33,1.33,0,0,1-.84-.18,1,1,0,0,1-.39-.85,10.55,10.55,0,0,1,.36-1.47l.4-1.4.48.14a7.05,7.05,0,0,1-1.39,2.62,4.66,4.66,0,0,1-1.14,1,1.83,1.83,0,0,1-1.6.18,1.43,1.43,0,0,1-.67-.55,1.18,1.18,0,0,1-.14-.87,4.31,4.31,0,0,1,.66-1.38,3.82,3.82,0,0,1,.46-.62,2.5,2.5,0,0,1,.68-.42A1.32,1.32,0,0,1,856.93,931.5Z" transform="translate(-765.25 -853.49)"/><path class="cls-1" d="M874,930.51a2.9,2.9,0,0,0-3,2.91,1.59,1.59,0,0,0,.42,1,.75.75,0,0,0,.93.13,5.49,5.49,0,0,0,1.78-1.44,13.53,13.53,0,0,0,2.17-4.16,18.28,18.28,0,0,1,2-4.4l.43.26a24.5,24.5,0,0,0-2.72,7.2,11,11,0,0,0-.11,1.89c0,.3.11.4.32.39a2.36,2.36,0,0,0,.79-.36,19.78,19.78,0,0,0,3.12-2.25l.35.36c-.65.63-1.27,1.46-.82,2.16a.62.62,0,0,0,.89.27,5.45,5.45,0,0,0,1-.81,2.19,2.19,0,0,0,.67-2.31,1.13,1.13,0,0,0-.85-.72,1,1,0,0,0-1,.35l0-.09a.18.18,0,0,0,.06.19.79.79,0,0,0,.32.13,1.54,1.54,0,0,0,.82-.06l1.81-.57,1.81-.56a2.12,2.12,0,0,0,.77-.37.87.87,0,0,0,.22-.27.17.17,0,0,0,0-.19l.29.07a3.92,3.92,0,0,0-1.87,1.68c-.39.71-.67,1.75-.23,2.27.21.21.55.08.85-.23l1-1,1.93-1.92.52-.52-.1.73a26.63,26.63,0,0,1-1,4.44l-.44-.23a29.36,29.36,0,0,1,3.9-4.06l.11-.09.12.07a1,1,0,0,1,.37,1.12,3.56,3.56,0,0,1-.41,1,1.8,1.8,0,0,0-.28.92c0,.31.08.67.37.73s.59-.17.88-.34l.89-.54,1.77-1.08-1.72,1.16-.86.58c-.28.17-.56.48-1,.41s-.58-.58-.58-.92a2.16,2.16,0,0,1,.26-1.06,3.31,3.31,0,0,0,.34-.92c0-.32,0-.6-.23-.72l.23,0a45.54,45.54,0,0,0-3.77,4.08l-.83,1,.4-1.27a26,26,0,0,0,1-4.35l.42.21-1.93,1.92-1,1a1.69,1.69,0,0,1-.67.43.9.9,0,0,1-.88-.2,1.74,1.74,0,0,1-.33-1.51,3.88,3.88,0,0,1,.48-1.36,4.32,4.32,0,0,1,2.1-1.9l.16-.07.13.13a.66.66,0,0,1,.11.71,1.3,1.3,0,0,1-.36.46,2.38,2.38,0,0,1-.93.46l-1.82.57-1.82.57a2.1,2.1,0,0,1-1.06.07,1.13,1.13,0,0,1-.54-.24.69.69,0,0,1-.23-.67l0-.06,0,0a1.59,1.59,0,0,1,2.73.46A2.68,2.68,0,0,1,882,934a5.84,5.84,0,0,1-1.18.9,1.15,1.15,0,0,1-.88.11,1.29,1.29,0,0,1-.67-.56,1.64,1.64,0,0,1,0-1.59,4.7,4.7,0,0,1,.91-1.18l.34.37a20.11,20.11,0,0,1-3.2,2.3,2.58,2.58,0,0,1-1,.42.73.73,0,0,1-.65-.25.91.91,0,0,1-.21-.59,10.34,10.34,0,0,1,.11-2,25.09,25.09,0,0,1,2.76-7.35l.43.26a17.66,17.66,0,0,0-2,4.29,13,13,0,0,1-2.29,4.29,5.66,5.66,0,0,1-2,1.45,1.29,1.29,0,0,1-.68.1,1.1,1.1,0,0,1-.59-.34,1.85,1.85,0,0,1-.44-1.2A3,3,0,0,1,874,930.51Z" transform="translate(-765.25 -853.49)"/><path class="cls-1" d="M898,930.74a7.17,7.17,0,0,0-.88.74,5.34,5.34,0,0,0-.85.71,5.16,5.16,0,0,0-1.16,1.85c-.25.61.66.81,1.33.61a4.67,4.67,0,0,0,1-.39,5.11,5.11,0,0,0,1.06-.45,3.89,3.89,0,0,1-.83.89,4.25,4.25,0,0,1-1.14.43,2.27,2.27,0,0,1-1.29,0,1,1,0,0,1-.58-.47,1,1,0,0,1-.05-.75,5.51,5.51,0,0,1,1.28-2.06,5.83,5.83,0,0,1,.93-.78A4.46,4.46,0,0,1,898,930.74Z" transform="translate(-765.25 -853.49)"/><path class="cls-1" d="M896.48,936.37a1,1,0,0,1,.29.26c0,.11,0,.22,0,.33a2.12,2.12,0,0,1-.22.61,2,2,0,0,1-.42.49,2.61,2.61,0,0,1-.28.17.9.9,0,0,1-.37-.12,1.73,1.73,0,0,0,.14-.32l.19-.12a1.16,1.16,0,0,0,.3-.36,1.12,1.12,0,0,0,.16-.43,1.79,1.79,0,0,0,0-.23C896.34,936.57,896.4,936.48,896.48,936.37Z" transform="translate(-765.25 -853.49)"/><path class="cls-1" d="M902.87,930.48a8,8,0,0,0-2.45,1.76,3.23,3.23,0,0,0-.77,1.21c-.15.44-.12,1,.2,1.12s.78,0,1.18-.3a12,12,0,0,0,1.19-.94,11.48,11.48,0,0,0,2-2.32l.72-1.12-.26,1.3q-.09.45-.15.9c0,.3,0,.61-.09.91a14.13,14.13,0,0,0-.18,1.85A9.82,9.82,0,0,1,904,933a4.34,4.34,0,0,1,.06-1,7.36,7.36,0,0,1,.15-.94l.45.18a11.65,11.65,0,0,1-2.05,2.43,12,12,0,0,1-1.25,1,3,3,0,0,1-.76.39,1.14,1.14,0,0,1-.95-.07,1.07,1.07,0,0,1-.52-.82,2.09,2.09,0,0,1,.09-.87,3.84,3.84,0,0,1,.88-1.41A4.35,4.35,0,0,1,902.87,930.48Z" transform="translate(-765.25 -853.49)"/><path class="cls-1" d="M921.18,930.35a4.28,4.28,0,0,0-2.56,1.7,1.72,1.72,0,0,0-.12,1.43,1.23,1.23,0,0,0,1.09.73,3.3,3.3,0,0,0,2.58-1.26,8.26,8.26,0,0,1,2.39-2.23l1.64-.79-1.36,1.2c-.84.73-1.68,1.64-1.4,2.68a1,1,0,0,0,1,.82,2.65,2.65,0,0,0,1.43-.59,3.53,3.53,0,0,0,1.13-1.11,1.09,1.09,0,0,0-.33-1.27,1.73,1.73,0,0,0-1.41-.42,4.26,4.26,0,0,0-1.54.52v-.45a3,3,0,0,0,2.37-.21,9.76,9.76,0,0,1,2.58-.84,3,3,0,0,1,.73,0,1,1,0,0,1,.72.49,1.39,1.39,0,0,1,.08.79l-.09.67-.37,2.62-.45-.18a53.13,53.13,0,0,1,3.52-4.41l.31-.34.12.45a7.09,7.09,0,0,1-.15,4.08l-.41-.26c1.23-1.23,2.41-2.52,3.67-3.72l.18-.17.15.18a1.19,1.19,0,0,1,.26.89,3.06,3.06,0,0,1-.21.83,5.6,5.6,0,0,0-.47,1.49,1,1,0,0,0,.81,1.09,1.18,1.18,0,0,0,1.36-.53,1.22,1.22,0,0,1-1.38.63,1.25,1.25,0,0,1-.73-.39,1.27,1.27,0,0,1-.28-.81,5.87,5.87,0,0,1,.38-1.59c.16-.49.24-1-.07-1.32h.32c-1.17,1.29-2.43,2.5-3.63,3.76l-.79.82.37-1.07a6.65,6.65,0,0,0,.14-3.8l.43.11a52.72,52.72,0,0,0-3.5,4.37l-.59.82.14-1,.38-2.62a3,3,0,0,0,0-1.17c-.08-.23-.55-.26-.95-.22a9.41,9.41,0,0,0-2.44.8,3.37,3.37,0,0,1-2.77.2l-.45-.21.44-.23a4.93,4.93,0,0,1,1.72-.58,2.23,2.23,0,0,1,1.8.55,1.59,1.59,0,0,1,.44,1.85,3.85,3.85,0,0,1-1.29,1.31,3.17,3.17,0,0,1-1.73.68,1.51,1.51,0,0,1-1.47-1.2,2.32,2.32,0,0,1,.34-1.85,6.91,6.91,0,0,1,1.2-1.32l.27.41a7.93,7.93,0,0,0-2.23,2.11,3.45,3.45,0,0,1-3,1.37,1.63,1.63,0,0,1-1.35-1,2,2,0,0,1,.24-1.66A4.39,4.39,0,0,1,921.18,930.35Z" transform="translate(-765.25 -853.49)"/><path class="cls-1" d="M953.79,929.76l-.36,2a18.49,18.49,0,0,1-.43,2l-.45-.19a21.28,21.28,0,0,1,1.48-2.17c.27-.35.54-.69.83-1a5.52,5.52,0,0,1,1-1,1,1,0,0,1,.82-.17.84.84,0,0,1,.56.66,2.63,2.63,0,0,1-.14,1.41,4.65,4.65,0,0,0-.26,1.19,1,1,0,0,0,.4.92H957a10.44,10.44,0,0,0,3.9-3.85l.42.27a7.65,7.65,0,0,0-.85,1.36,2.43,2.43,0,0,0-.21,1.47,1.34,1.34,0,0,0,.8,1.14,1.14,1.14,0,0,0,1.39-.42A1.25,1.25,0,0,1,961,934a1.71,1.71,0,0,1-1.22-1.29,2.89,2.89,0,0,1,.24-1.77,8.43,8.43,0,0,1,.9-1.45l.42.27a10.94,10.94,0,0,1-4.09,4l-.12.07-.13-.07a1.52,1.52,0,0,1-.64-1.35,4.55,4.55,0,0,1,.29-1.33,2.37,2.37,0,0,0,.13-1.15c-.08-.34-.3-.39-.63-.19a5.91,5.91,0,0,0-.86.87c-.28.32-.55.66-.82,1a20.77,20.77,0,0,0-1.44,2.12l-.79,1.29.33-1.49a16.3,16.3,0,0,1,.61-1.91Z" transform="translate(-765.25 -853.49)"/><path class="cls-1" d="M962.34,927.81l.12.24-.06.06-.13.12-.12.12-.06.07-.24-.12a1.66,1.66,0,0,1-.11-.24l.06-.06.12-.12.12-.12.06-.07Z" transform="translate(-765.25 -853.49)"/><path class="cls-1" d="M963.6,930.23a8.49,8.49,0,0,0-.38,2,7.17,7.17,0,0,0-.09,2l-.44-.15a55.13,55.13,0,0,1,4-4.06l.17-.15.17.15a1.23,1.23,0,0,1,.37.88,2.8,2.8,0,0,1-.12.84,5.24,5.24,0,0,0-.31,1.46.78.78,0,0,0,.76.76,3.18,3.18,0,0,0,1.46-.36,3.08,3.08,0,0,1-1.44.76,1,1,0,0,1-.9-.27,1.28,1.28,0,0,1-.38-.87,5.54,5.54,0,0,1,.32-1.6c.14-.49.19-1-.1-1.23h.34a56.18,56.18,0,0,0-4,4l-.38.43,0-.57a7.7,7.7,0,0,1,.09-2.09A6.83,6.83,0,0,1,963.6,930.23Z" transform="translate(-765.25 -853.49)"/><path class="cls-1" d="M972.06,930.24a4,4,0,0,0-2.51.46,1.16,1.16,0,0,0-.56,1,1.13,1.13,0,0,0,.65,1,1.94,1.94,0,0,0,1.2.2,1.89,1.89,0,0,0,1-.57,6.17,6.17,0,0,0,1.25-2.19l.14-.36.24.32a9,9,0,0,1,1.6,6.17,5.28,5.28,0,0,1-1.17,3.06,2.42,2.42,0,0,1-1.5.87,1.73,1.73,0,0,1-.9-.12.89.89,0,0,1-.58-.85c.09-.73.59-1.05.91-1.46s.74-.78,1.13-1.15c.77-.73,1.55-1.44,2.3-2.18a9.28,9.28,0,0,0,3.11-5.21l.49.09-.52,2.53a9.53,9.53,0,0,0-.22,1.21c0,.3.25.34.61.15a9.66,9.66,0,0,0,1.84-1.68,11.51,11.51,0,0,0,1.41-2.1l.45.2-1.09,3c-.18.47,0,.74.49.79a3.81,3.81,0,0,0,1.46-.23,5.78,5.78,0,0,0,2.53-1.62,2.68,2.68,0,0,0,.74-1.22c.08-.48-.15-.71-.55-.46a5.38,5.38,0,0,0-1.92,2.25.66.66,0,0,0,.38,1,2.31,2.31,0,0,0,1.39-.1,15,15,0,0,0,5-3.68l.58-.64-.15.85a15.49,15.49,0,0,1-1.12,3.7l-.38-.3,4.38-3.54.4-.32v.51l.12,4.41-.43-.18c1.74-1.64,3.52-3.23,5.29-4.86l.15-.14,0,.2a2.72,2.72,0,0,1-.16,1.6,7.18,7.18,0,0,0-.47,1.47,1.4,1.4,0,0,0,.4,1.38.9.9,0,0,0,1.35-.14c-.24.52-1,.49-1.38.19A1.49,1.49,0,0,1,999,932a8.42,8.42,0,0,1,.42-1.51,2.49,2.49,0,0,0,.1-1.47l.21.06c-1.7,1.68-3.39,3.38-5.11,5l-.42.4V934l-.11-4.41.41.19-4.39,3.54-.81.65.43-1a15.33,15.33,0,0,0,1.08-3.57l.43.21a15.52,15.52,0,0,1-5.17,3.81,2.79,2.79,0,0,1-1.72.1,1.1,1.1,0,0,1-.72-.66,1.34,1.34,0,0,1,0-.95,5.83,5.83,0,0,1,2.14-2.52.88.88,0,0,1,1,0,1,1,0,0,1,.26,1,1.92,1.92,0,0,1-.35.83,5.2,5.2,0,0,1-.51.65,6.42,6.42,0,0,1-2.75,1.76,4.34,4.34,0,0,1-1.67.25,1.15,1.15,0,0,1-.86-.47,1.13,1.13,0,0,1,0-1l1.09-3,.46.2a11.19,11.19,0,0,1-1.47,2.19,9.81,9.81,0,0,1-2,1.81,1.21,1.21,0,0,1-.8.14.75.75,0,0,1-.55-.71,9.55,9.55,0,0,1,.23-1.34l.52-2.54.5.09a9.81,9.81,0,0,1-3.26,5.5c-.76.75-1.55,1.46-2.31,2.19-.37.36-.75.73-1.1,1.11s-.77.79-.78,1.15.5.52.92.45a1.9,1.9,0,0,0,1.18-.7,4.71,4.71,0,0,0,1-2.78,9.08,9.08,0,0,0-1.46-5.88l.38,0a6.43,6.43,0,0,1-1.43,2.26,2.1,2.1,0,0,1-2.57.33,1.33,1.33,0,0,1-.71-1.14,1.31,1.31,0,0,1,.66-1.13A4.08,4.08,0,0,1,972.06,930.24Z" transform="translate(-765.25 -853.49)"/><path class="cls-1" d="M986.35,926.92a2,2,0,0,1-.1-.41l.16-.29a5.65,5.65,0,0,1,.38-.57,5.27,5.27,0,0,1,.43-.51l.25-.24a2.75,2.75,0,0,1,.41,0c0,.14-.06.26-.08.39l-.22.22a4.31,4.31,0,0,0-.39.46,5,5,0,0,0-.34.51,2.44,2.44,0,0,0-.14.28Z" transform="translate(-765.25 -853.49)"/><path class="cls-1" d="M854.93,905.67a1.71,1.71,0,0,1,.12.23l0,.05-.11.11-.1.1-.06.06c-.07-.05-.14-.07-.23-.13l-.12-.23,0-.05.11-.11.11-.1.05-.06Z" transform="translate(-765.25 -853.49)"/><path class="cls-1" d="M999.82,862.39a14.46,14.46,0,0,0-.14,2.17,11.77,11.77,0,0,0,0,2.14l-.48-.08,1.52-3a2.58,2.58,0,0,1,1.16-1.37.85.85,0,0,1,1,.3,1.13,1.13,0,0,1,0,1,2.72,2.72,0,0,1-.51.77,4.88,4.88,0,0,0-.55.59c-.32.4-.46.93-.11,1.06a1.67,1.67,0,0,0,.71.08c.27,0,.54,0,.81,0A10.41,10.41,0,0,0,1005,866a8,8,0,0,1-1.62.51,3.47,3.47,0,0,1-.85.1,2.34,2.34,0,0,1-.93-.14.87.87,0,0,1-.47-1,2,2,0,0,1,.4-.85,5.23,5.23,0,0,1,.59-.63,2.06,2.06,0,0,0,.4-.62.62.62,0,0,0,0-.56.35.35,0,0,0-.44-.12,2.31,2.31,0,0,0-.91,1.15l-1.49,3-.4.79-.08-.87a12.78,12.78,0,0,1,0-2.23A11.13,11.13,0,0,1,999.82,862.39Z" transform="translate(-765.25 -853.49)"/><path class="cls-1" d="M1005.45,934.3a.63.63,0,0,1-.25-.47.31.31,0,1,1,.5,0A.63.63,0,0,1,1005.45,934.3Z" transform="translate(-765.25 -853.49)"/></svg>