<svg id="Camada_1" data-name="Camada 1" xmlns="http://www.w3.org/2000/svg" viewBox="0 0 313.67 50.36">

    <defs>

        <style>
            .cls-2{
            fill:none;
            stroke: #000;
            stroke-width: 0.5;
            stroke-dasharray: 450;
            stroke-dashoffset: 450;
            animation: draw 2s linear forwards;
            }
            @keyframes draw {
            to {
            stroke-dashoffset: 0;
            }
            }



        </style>


    </defs>
    <title>pagina1_nota2</title>

    <path  class="cls-2" d="M750.56,878.51a6.45,6.45,0,0,0,2-.44,5.5,5.5,0,0,0,.91-.45,2.53,2.53,0,0,0,.4-.27c.1-.1.1-.15,0-.22s-.4-.06-.63.16l-.72.73a19.61,19.61,0,0,0-1.38,1.5,19.32,19.32,0,0,0-1.23,1.63,2.12,2.12,0,0,0-.49,1.71,1.2,1.2,0,0,0,1.42.64,4.05,4.05,0,0,0,1.66-1l.23.43a6.64,6.64,0,0,0-3.6,2.69,4.91,4.91,0,0,0-.82,2.08,2.61,2.61,0,0,0,.57,2,1.85,1.85,0,0,0,1.91.59,5.27,5.27,0,0,0,2-1.09,12,12,0,0,0,3-3.55l.45.22a3.91,3.91,0,0,0-.48,1.79,1.2,1.2,0,0,0,1,1.15c.53,0,.86-.52,1.08-1.13A3,3,0,0,1,759,886l.81-.43-.53.73a2.15,2.15,0,0,0-.07,2.3,2.24,2.24,0,0,0,2.19,1,2.35,2.35,0,0,1-2.37-.88,2.46,2.46,0,0,1-.11-2.65l.28.31a3.21,3.21,0,0,0-.92,1.54,3.38,3.38,0,0,1-.51,1,1.34,1.34,0,0,1-1.07.5,1.67,1.67,0,0,1-1.44-1.61,4.49,4.49,0,0,1,.52-2l.45.22a12.42,12.42,0,0,1-3.1,3.7,5.66,5.66,0,0,1-2.17,1.18,2.5,2.5,0,0,1-1.3,0,2.41,2.41,0,0,1-1.1-.72,3.12,3.12,0,0,1-.69-2.41,5.53,5.53,0,0,1,.9-2.31,7.12,7.12,0,0,1,3.88-2.89l1.21-.36-1,.8A4.48,4.48,0,0,1,751,884a2.09,2.09,0,0,1-1.16-.1A1.47,1.47,0,0,1,749,883a2.58,2.58,0,0,1,.55-2.15,20.84,20.84,0,0,1,1.26-1.67c.45-.53.92-1.05,1.41-1.54.26-.24.52-.46.8-.69a1.35,1.35,0,0,1,.53-.29.67.67,0,0,1,.65.23.47.47,0,0,1,.1.37.52.52,0,0,1-.2.3,3.38,3.38,0,0,1-.48.27,5.56,5.56,0,0,1-1,.39A6.46,6.46,0,0,1,750.56,878.51Z" transform="translate(-742.98 -874.52)"/>
    <path class="cls-2" d="M782.13,885.14a2.52,2.52,0,0,0-2.15.93,4.54,4.54,0,0,0-1.1,2.1,2,2,0,0,0,.07,1.11,1.45,1.45,0,0,0,.72.76.94.94,0,0,0,.93-.08,2,2,0,0,0,.63-.86c.5-1.5.91-3.14,1.37-4.71l1.34-4.74.48.15a29.92,29.92,0,0,0-1.16,4.27,21.68,21.68,0,0,0-.46,4.36,3.77,3.77,0,0,0,.21,1c.1.29.33.7.47.73s.56-.15.85-.31a4.32,4.32,0,0,0,.86-.61,5,5,0,0,0,1.65-3.77l.37.21a3.1,3.1,0,0,0-1.89,2.35,1.7,1.7,0,0,0,.57,1.32,1.1,1.1,0,0,0,1.3.15c.88-.51,1.25-1.7,2-2.6a5.23,5.23,0,0,1,1.33-1.19,1.93,1.93,0,0,1,1.87-.19,1.85,1.85,0,0,1,.84,1.68,3.43,3.43,0,0,1-.51,1.75,3.76,3.76,0,0,1-1.29,1.28,2.81,2.81,0,0,1-.86.34.66.66,0,0,1-.61-.15.69.69,0,0,1-.17-.58.86.86,0,0,1,.72-.72,3.43,3.43,0,0,1,.9,0,5.78,5.78,0,0,0,1.65-.2,3.81,3.81,0,0,0,2.55-2,3.9,3.9,0,0,1-2.49,2.23,5.86,5.86,0,0,1-1.71.31c-.57,0-1.2,0-1.2.48,0,.22,0,.26.26.22a3.45,3.45,0,0,0,.71-.32,3.08,3.08,0,0,0,1.11-1.1,2.94,2.94,0,0,0,.44-1.49,1.38,1.38,0,0,0-.58-1.24,1.46,1.46,0,0,0-1.38.18,4.71,4.71,0,0,0-1.2,1.08c-.71.8-1,2-2.16,2.72a1.63,1.63,0,0,1-1.87-.21,2.26,2.26,0,0,1-.74-1.72,2.74,2.74,0,0,1,.73-1.69,5,5,0,0,1,1.43-1.08l.35-.19v.4a5.44,5.44,0,0,1-1.82,4.16,4.68,4.68,0,0,1-.95.68,3.65,3.65,0,0,1-.53.25,1,1,0,0,1-.7.1,1,1,0,0,1-.54-.49,3.82,3.82,0,0,1-.26-.54,4.26,4.26,0,0,1-.23-1.16,21.68,21.68,0,0,1,.46-4.5,30,30,0,0,1,1.18-4.34l.47.15-1.34,4.75c-.47,1.59-.85,3.15-1.39,4.76a2.51,2.51,0,0,1-.81,1.1,1.35,1.35,0,0,1-1.41.07,1.87,1.87,0,0,1-.88-1,2.28,2.28,0,0,1,0-1.32,4.75,4.75,0,0,1,1.29-2.14A2.57,2.57,0,0,1,782.13,885.14Z" transform="translate(-742.98 -874.52)"/>
    <path class="cls-2" d="M796.49,885.51l-.7,2.51c-.24.83-.43,1.68-.68,2.5-.51,1.65-1,3.32-1.39,5l-.48-.14,1.68-4.87.84-2.44a8.36,8.36,0,0,1,1.1-2.4,2.56,2.56,0,0,1,2.49-1.08,1.75,1.75,0,0,1,1.16.88,2.52,2.52,0,0,1,.25,1.39,3.43,3.43,0,0,1-1.34,2.35,4.24,4.24,0,0,1-2.53.92h-.24l0-.25a.81.81,0,0,1,.2-.57,1.19,1.19,0,0,1,.45-.29,3.1,3.1,0,0,1,.92-.17,7.7,7.7,0,0,0,1.67-.08,6.09,6.09,0,0,0,3-1.48,6.19,6.19,0,0,1-2.9,1.83,6.07,6.07,0,0,1-1.73.24c-.51,0-1.14.17-1.09.5l-.25-.24a3.42,3.42,0,0,0,3.38-2.81,1.49,1.49,0,0,0-1-1.74,2.09,2.09,0,0,0-2,.89,8.17,8.17,0,0,0-1,2.26l-.84,2.44-1.68,4.87-.48-.14q.64-2.52,1.4-5c.25-.83.58-1.63.89-2.44S796.15,886.31,796.49,885.51Z" transform="translate(-742.98 -874.52)"/>
    <path class="cls-2" d="M803.65,884.52a17.36,17.36,0,0,1-.54,4.76l-.2-.07.88-2a6.08,6.08,0,0,1,.51-1,2,2,0,0,1,.87-.8,1.33,1.33,0,0,1,1.25.08,1.12,1.12,0,0,1,.41,1.21c-.18.79-.71,1.4-.8,2a.43.43,0,0,0,.39.49,1.78,1.78,0,0,0,.89-.25c.63-.34,1.25-.7,1.85-1.1a19.61,19.61,0,0,0,1.73-1.26c.3-.22.52-.45.46-.62s-.34-.37-.57-.32c-.53.09-.95.8-1.23,1.39a1.68,1.68,0,0,0,.06,1.79,1.5,1.5,0,0,0,1.74.15,3.65,3.65,0,0,0,1.51-1.34,7.79,7.79,0,0,1,1.51-1.65,1.76,1.76,0,0,1,2.33,0,1.35,1.35,0,0,1,.17,1.26,5.51,5.51,0,0,1-.47,1,6,6,0,0,1-1.46,1.71l-1.74,1.4,1.38-1.75a2.3,2.3,0,0,1,1.86-.81,2.88,2.88,0,0,1,1.88.7,3.63,3.63,0,0,1,.83,3.74,6.47,6.47,0,0,1-2.28,3.08,12.68,12.68,0,0,1-1.59,1.08,2,2,0,0,1-1,.26,1.16,1.16,0,0,1-1-.6,2.79,2.79,0,0,1-.15-2,4.55,4.55,0,0,1,1-1.72,19,19,0,0,1,3-2.36,14.42,14.42,0,0,0,4.49-5.74l.58-1.35-.1,1.46a5.1,5.1,0,0,1-.66,1.78,1.73,1.73,0,0,0-.09,1.51c.23.42.8.41,1.3.16a7.72,7.72,0,0,0,1.49-.93,4.25,4.25,0,0,0,1.15-1.22.91.91,0,0,0-.52-1.18,1.55,1.55,0,0,0-1.53,0,5.83,5.83,0,0,0-1.39,1.06l-.12-.28a29,29,0,0,0,7.4-1,29.45,29.45,0,0,1-7.39,1.35l-.42,0,.3-.31a6.13,6.13,0,0,1,1.43-1.18,2.36,2.36,0,0,1,1-.3,2,2,0,0,1,1,.2,1.58,1.58,0,0,1,.75.74,1.24,1.24,0,0,1,0,1.08,4.55,4.55,0,0,1-1.3,1.41,8.69,8.69,0,0,1-1.59,1,2.07,2.07,0,0,1-1,.21,1.17,1.17,0,0,1-.94-.57,2.18,2.18,0,0,1,.07-2,4.9,4.9,0,0,0,.61-1.6l.48.11a15,15,0,0,1-4.64,5.95,19,19,0,0,0-2.89,2.29,3,3,0,0,0-.76,3.16c.23.46.81.42,1.32.15a11.41,11.41,0,0,0,1.5-1,5.92,5.92,0,0,0,2.12-2.84,3.13,3.13,0,0,0-.68-3.21,2.19,2.19,0,0,0-3,0l-.36-.35A5.65,5.65,0,0,0,816,888c.32-.58.68-1.35.34-1.75a.9.9,0,0,0-.77-.24,1.82,1.82,0,0,0-.88.36,7.25,7.25,0,0,0-1.4,1.55,4.24,4.24,0,0,1-1.72,1.49,2.65,2.65,0,0,1-1.16.24,1.6,1.6,0,0,1-1.14-.52,1.69,1.69,0,0,1-.42-1.17,3,3,0,0,1,.28-1.15,4.89,4.89,0,0,1,.57-1,1.71,1.71,0,0,1,1-.7,1,1,0,0,1,1.13.71.85.85,0,0,1-.19.71,3.25,3.25,0,0,1-.44.41c-.57.46-1.17.89-1.78,1.29a20,20,0,0,1-1.89,1.12,2.07,2.07,0,0,1-1.19.3.92.92,0,0,1-.81-1,21.33,21.33,0,0,1,.8-2,.67.67,0,0,0-.18-.74.92.92,0,0,0-.83-.08,2.87,2.87,0,0,0-1.26,1.55l-1,1.94-.21-.07A16.91,16.91,0,0,0,803.65,884.52Z" transform="translate(-742.98 -874.52)"/>
    <path class="cls-2" d="M842.71,885.39a3.53,3.53,0,0,0-1.3.83,4.39,4.39,0,0,0-.48.57,4.07,4.07,0,0,0-.41.61,3.39,3.39,0,0,0-.42,1.41,1.71,1.71,0,0,0,.26,1.28c.24.24.72,0,1-.33a7.5,7.5,0,0,0,.91-1.21,10,10,0,0,0,1.2-2.83l.49.1a5.3,5.3,0,0,0,.1,2.94,2.33,2.33,0,0,0,.38.58,2.22,2.22,0,0,0,.53.48,2.32,2.32,0,0,0,1.45.33,2.32,2.32,0,0,1-1.6,0,2,2,0,0,1-1.22-1.15,5.94,5.94,0,0,1-.14-3.23l.49.1a10.24,10.24,0,0,1-1.25,3,8.2,8.2,0,0,1-1,1.31,2,2,0,0,1-.74.49,1,1,0,0,1-1-.14,1.34,1.34,0,0,1-.4-.86,3.38,3.38,0,0,1,0-.84,3.87,3.87,0,0,1,.48-1.6,4.23,4.23,0,0,1,.46-.7,4.07,4.07,0,0,1,.65-.53A3.46,3.46,0,0,1,842.71,885.39Z" transform="translate(-742.98 -874.52)"/>
    <path class="cls-2" d="M862.88,884.73l-.94,3.57c-.32,1.19-.66,2.37-1.09,3.53q-1.2,3.49-2.55,6.93l-.46-.21a32.42,32.42,0,0,0,2.07-5.29,43.44,43.44,0,0,1,1.67-5.51,7.09,7.09,0,0,1,.72-1.29,5.11,5.11,0,0,1,.45-.59,2.37,2.37,0,0,1,.58-.55.92.92,0,0,1,.93.08,2.07,2.07,0,0,1,.59.55,2.7,2.7,0,0,1,.49,1.48,3.74,3.74,0,0,1-1.08,2.77A10.93,10.93,0,0,1,862,892l-.86.56.5-.89a3.45,3.45,0,0,1,1.79-1.27,4.63,4.63,0,0,0,1.72-1,9.71,9.71,0,0,0,2-3.51,9.7,9.7,0,0,1-1.8,3.76,4.41,4.41,0,0,1-1.77,1.19,2.85,2.85,0,0,0-1.55,1l-.35-.34a10.36,10.36,0,0,0,2.2-1.71,3.24,3.24,0,0,0,1-2.42,2.17,2.17,0,0,0-.39-1.2c-.23-.33-.67-.64-.88-.49a2.18,2.18,0,0,0-.44.43c-.15.18-.29.36-.42.55A8,8,0,0,0,862,888a43.56,43.56,0,0,0-1.64,5.45,33.51,33.51,0,0,1-2.1,5.38l-.46-.21q1.35-3.42,2.55-6.9c.38-1.17.81-2.32,1.25-3.47Z" transform="translate(-742.98 -874.52)"/>
    <path class="cls-2" d="M868.22,885.31a21.37,21.37,0,0,0-.75,2.68c-.09.46-.16.91-.22,1.37s-.13.91-.17,1.37l-.4-.22a3.31,3.31,0,0,0,1-1.46,13.15,13.15,0,0,1,.71-1.8,3,3,0,0,1,1.5-1.39,1.66,1.66,0,0,1,1.1,0,1.11,1.11,0,0,1,.75.89,2.11,2.11,0,0,1-1.08,1.76,2.77,2.77,0,0,0-.63.59,1,1,0,0,0-.18.72c0,.45.76.48,1.33.43a4.13,4.13,0,0,0,1.68-.59,8.14,8.14,0,0,0,2.52-2.66l.25-.39a1.1,1.1,0,0,0,.16-.37.69.69,0,0,0,0-.34c0-.09,0-.08-.1-.1s-.41.23-.62.42a4.78,4.78,0,0,0-.6.67,5.28,5.28,0,0,0-1,3.39c0,.56.79.57,1.38.56a4,4,0,0,0,1.79-.5,4.16,4.16,0,0,1-1.77.71,4.09,4.09,0,0,1-1,0,1.18,1.18,0,0,1-.53-.21,1,1,0,0,1-.3-.51,4,4,0,0,1,.13-2,5.37,5.37,0,0,1,.87-1.78,5.9,5.9,0,0,1,.66-.75c.12-.11.25-.21.39-.32a1,1,0,0,1,.59-.23.63.63,0,0,1,.57.48,1.28,1.28,0,0,1,0,.59,1.75,1.75,0,0,1-.23.5l-.26.41a8.53,8.53,0,0,1-2.67,2.81,4.79,4.79,0,0,1-1.89.66,3.51,3.51,0,0,1-1,0,1,1,0,0,1-.85-.8,1.54,1.54,0,0,1,.25-1.09,3.51,3.51,0,0,1,.74-.71,3.14,3.14,0,0,0,.65-.59,1.13,1.13,0,0,0,.24-.71c0-.45-.71-.67-1.19-.47a2.49,2.49,0,0,0-1.22,1.16c-.58,1-.65,2.48-1.81,3.4l-.46.37.06-.59a9.46,9.46,0,0,1,.21-1.4c.1-.46.23-.92.37-1.37A15.93,15.93,0,0,1,868.22,885.31Z" transform="translate(-742.98 -874.52)"/>
    <path class="cls-2" d="M881.84,885.33a6.19,6.19,0,0,0-2.88,1.58,3.93,3.93,0,0,0-1,1.31,2.3,2.3,0,0,0-.16,1.54,1.1,1.1,0,0,0,1.1.78,2.13,2.13,0,0,0,1.33-.65c.73-.72,1-1.89,2-2.71l.32-.28.09.42a9.62,9.62,0,0,1-1.11,6.9,8.31,8.31,0,0,1-2.38,2.67,2.12,2.12,0,0,1-1.87.31,1.44,1.44,0,0,1-.81-.63,1.41,1.41,0,0,1-.14-1,3.23,3.23,0,0,1,1-1.57q.64-.62,1.32-1.17c.91-.74,1.84-1.43,2.76-2.14a14.84,14.84,0,0,0,4.57-5l.44.23a11.58,11.58,0,0,0-1,2.26,2,2,0,0,0-.13,1.09c.07.29.32.37.63.19a3.81,3.81,0,0,0,.86-.81l.85-.92,1.69-1.83,1.22-1.34-.81,1.61a13.05,13.05,0,0,0-1,2.76c-.1.48-.26,1,0,1.27s.67.26,1.09.11a7.38,7.38,0,0,0,2.28-1.73,8.92,8.92,0,0,0,1.59-2.44l.44.23a10.62,10.62,0,0,0-1.37,3.19c-.08.28-.11.55,0,.65s.31.15.56.08a3.74,3.74,0,0,0,1.42-.83,29.23,29.23,0,0,0,2.24-2.72,6.28,6.28,0,0,1,1.37-1.25,1.58,1.58,0,0,1,1-.3,1.08,1.08,0,0,1,.55.16.64.64,0,0,1,.29.62l0,.15-.12,0a11.59,11.59,0,0,0-3,1.49,3.36,3.36,0,0,0-1.4,2.81l-.12-.12a4.46,4.46,0,0,0,3.14-.74,25.73,25.73,0,0,1,3-1.62,26.77,26.77,0,0,0-2.89,1.75,7,7,0,0,1-1.53.75,3.39,3.39,0,0,1-1.73.15l-.11,0v-.11a3.68,3.68,0,0,1,1.4-3.19,9.79,9.79,0,0,1,3.12-1.62l-.16.2c0-.07,0-.09-.06-.13a.63.63,0,0,0-.3-.08,1.07,1.07,0,0,0-.69.22,5.94,5.94,0,0,0-1.26,1.15,28.7,28.7,0,0,1-2.29,2.77,4.08,4.08,0,0,1-1.63.94,1,1,0,0,1-1.08-.26,1.24,1.24,0,0,1-.06-1.07,11.1,11.1,0,0,1,1.43-3.34l.44.24a9.55,9.55,0,0,1-1.68,2.58,8.63,8.63,0,0,1-1.14,1,4.92,4.92,0,0,1-1.35.82,2.07,2.07,0,0,1-.83.14,1.07,1.07,0,0,1-.84-.44,1.3,1.3,0,0,1-.17-.9c0-.27.1-.51.16-.76a12.43,12.43,0,0,1,1.05-2.88l.41.28L888,888l-.85.93a4.44,4.44,0,0,1-1,.9,1,1,0,0,1-.8.12.88.88,0,0,1-.57-.62A2.56,2.56,0,0,1,885,888a11.62,11.62,0,0,1,1-2.35l.45.23a15.4,15.4,0,0,1-4.72,5.2c-.92.72-1.85,1.41-2.74,2.14s-1.9,1.47-2.15,2.45a.89.89,0,0,0,.62,1.08,1.65,1.65,0,0,0,1.44-.26,8,8,0,0,0,2.22-2.5,9.13,9.13,0,0,0,1-6.54l.41.13c-.77.69-1.09,1.82-2,2.66a2.54,2.54,0,0,1-1.64.69,1.45,1.45,0,0,1-1.39-1.07,3.25,3.25,0,0,1,1.3-3A6.25,6.25,0,0,1,881.84,885.33Z" transform="translate(-742.98 -874.52)"/>
    <path class="cls-2" d="M905,885.56a7.66,7.66,0,0,0-2.67,1.81,5.54,5.54,0,0,0-1,1.23.79.79,0,0,0-.08.58c.06.12.23.17.5.16a3.84,3.84,0,0,0,2.75-1.26c.71-.75,1.26-1.88,2.47-2.32l.52-.2-.21.53-.88,2.16-.44,1.08c-.12.34-.37.78-.29.92s.42.25.74.19.71-.2,1.07-.3a8.07,8.07,0,0,0,2.06-1,7.17,7.17,0,0,1-1.9,1.41,3.83,3.83,0,0,1-1.15.41,2,2,0,0,1-.68,0,.85.85,0,0,1-.62-.5,1.09,1.09,0,0,1,.08-.74l.23-.54.44-1.08.88-2.16.31.33c-1,.33-1.5,1.35-2.27,2.19a4.32,4.32,0,0,1-3.1,1.42,1.49,1.49,0,0,1-.5-.05.78.78,0,0,1-.45-.39,1.16,1.16,0,0,1,.07-1,5.5,5.5,0,0,1,4.08-2.83Z" transform="translate(-742.98 -874.52)"/>
    <path class="cls-2" d="M894.67,883a.2.2,0,0,0,.24,0s0,0,0,0a.15.15,0,0,0-.15-.05c-.09,0-.11.09-.11.11a.13.13,0,0,0,0,.06.19.19,0,0,0,.19-.14.24.24,0,0,1,.27,0,.33.33,0,0,1,0,.19.38.38,0,0,1-.26.32.39.39,0,0,1-.39-.15.48.48,0,0,1-.07-.18A.23.23,0,0,1,894.67,883Z" transform="translate(-742.98 -874.52)"/>
    <path class="cls-2" d="M897.87,890.7a1.29,1.29,0,0,1,.37.33c0,.14,0,.29.07.44a3.24,3.24,0,0,1-.07.88,3.08,3.08,0,0,1-.31.83,3.41,3.41,0,0,1-.25.37,1.61,1.61,0,0,1-.47.15,4.3,4.3,0,0,0,.08-.45,3.28,3.28,0,0,0,.2-.31,2.51,2.51,0,0,0,.26-.69,2.68,2.68,0,0,0,.06-.74,2.2,2.2,0,0,0-.06-.37C897.8,891,897.83,890.86,897.87,890.7Z" transform="translate(-742.98 -874.52)"/>
    <path class="cls-2" d="M918.64,891.16c1.44-1.85,1.93-4.17,2.52-6.39l.88-3.36,1-3.34.47.18a38.07,38.07,0,0,0-2,4.85,12.14,12.14,0,0,0-.53,5.1,1.8,1.8,0,0,0,.4,1.07,1.17,1.17,0,0,0,1,.32,3.32,3.32,0,0,0,2.07-1.22c.58-.63,1.11-1.34,1.73-2a4.43,4.43,0,0,1,2.34-1.42l1.16-.22-1,.67a12.64,12.64,0,0,0-2.5,2.23,5.44,5.44,0,0,0-.92,1.34c-.2.47-.27,1.07,0,1.32s.85.13,1.28-.17a6.95,6.95,0,0,0,2.7-4l.46.19a7.86,7.86,0,0,0-.83,2.16c-.14.73-.32,1.65.07,2.09a.73.73,0,0,0,.85.07,5,5,0,0,0,1-.59,12.36,12.36,0,0,0,1.77-1.55,13.27,13.27,0,0,0,2.55-3.94,12.74,12.74,0,0,0,1-4.59l.2.25c-.39-.11-.78.26-1,.69s-.43,1-.65,1.45a26.46,26.46,0,0,0-1.12,3,13.83,13.83,0,0,0-.54,3.19,8.48,8.48,0,0,0,.52,3.19,8.49,8.49,0,0,1-.68-3.19,13.36,13.36,0,0,1,.39-3.27,26.54,26.54,0,0,1,1-3.14,10.17,10.17,0,0,1,.67-1.53,2.74,2.74,0,0,1,.59-.69,1.16,1.16,0,0,1,1-.23l.19,0v.19a13.27,13.27,0,0,1-1,4.78,13.64,13.64,0,0,1-2.65,4.09,12.93,12.93,0,0,1-1.84,1.62,6.31,6.31,0,0,1-1.08.65,1.23,1.23,0,0,1-1.39-.19,1.74,1.74,0,0,1-.37-1.31,7.26,7.26,0,0,1,.17-1.24,8.38,8.38,0,0,1,.89-2.3l.88-1.55-.42,1.73a7.61,7.61,0,0,1-1.6,3.12,7.47,7.47,0,0,1-1.31,1.2,2.55,2.55,0,0,1-.87.39,1.17,1.17,0,0,1-1-.25,1.25,1.25,0,0,1-.39-1,2.58,2.58,0,0,1,.21-.92,5.53,5.53,0,0,1,1-1.47,13.1,13.1,0,0,1,2.6-2.33l.18.46a3.9,3.9,0,0,0-2.07,1.28c-.59.62-1.11,1.33-1.73,2a3.74,3.74,0,0,1-2.38,1.37,1.64,1.64,0,0,1-1.41-.47,2.35,2.35,0,0,1-.54-1.34A12.7,12.7,0,0,1,921,883a36.9,36.9,0,0,1,2-4.92l.46.17-1,3.34-1,3.31C920.8,887.05,920.17,889.38,918.64,891.16Z" transform="translate(-742.98 -874.52)"/>
    <path class="cls-2" d="M918,885.38c.3-.2.61-.35.92-.52l1-.25c.66-.16,1.32-.31,2-.45l2-.39,1-.16c.35,0,.7,0,1,.1-.32.14-.65.26-1,.39l-1,.17c-.67.11-1.33.24-2,.38s-1.32.29-2,.45l-1,.25C918.71,885.36,918.37,885.39,918,885.38Z" transform="translate(-742.98 -874.52)"/>
    <path class="cls-2" d="M946.57,886.72a3.74,3.74,0,0,0-2.48,2.37,2.1,2.1,0,0,0,.35,1.63,1.36,1.36,0,0,0,1.41.61,4.75,4.75,0,0,0,1.53-.79,11.34,11.34,0,0,0,1.37-1.12,11,11,0,0,0,2.16-2.77l.4.29a4.33,4.33,0,0,0-1.29,3,2.66,2.66,0,0,0,.07.78c.06.17.2.2.48.17a2.94,2.94,0,0,0,1.46-.65,2.06,2.06,0,0,0,.74-1.35,1.9,1.9,0,0,0-.47-1.43,1.26,1.26,0,0,0-1.36-.34,1.22,1.22,0,0,0-.91,1l-.25-.27a9.76,9.76,0,0,0,5.31-1.52l.5-.32-.12.58-.85,4.15-.47-.16a11.12,11.12,0,0,1,3.78-4.3l.42-.27,0,.5-.24,4.29-.44-.18,3.83-4.34.14-.16.17.11a1.09,1.09,0,0,1,.5.73,2.39,2.39,0,0,1-.06.77c-.11.48-.29.91-.39,1.33a1.13,1.13,0,0,0,.11,1.08c.22.26.61.23,1,0a8.82,8.82,0,0,0,2-1.79l1.9-2,.38.31a8.67,8.67,0,0,0-1.35,3.1c0,.27,0,.35.16.39a1.89,1.89,0,0,0,.76-.07,5.45,5.45,0,0,0,1.55-.61,2.41,2.41,0,0,0,1.43-2.58,1.15,1.15,0,0,0-1-.94,1,1,0,0,0-1.11.77l-.17-.18a20.84,20.84,0,0,0,6.72-1.09,20.78,20.78,0,0,1-6.71,1.41h-.18l0-.18a1.37,1.37,0,0,1,1.45-1.14,1.59,1.59,0,0,1,1.45,1.2,2.25,2.25,0,0,1-.27,1.89,4.08,4.08,0,0,1-1.36,1.26,6.21,6.21,0,0,1-1.7.67,2.38,2.38,0,0,1-1,.07.68.68,0,0,1-.51-.4,1,1,0,0,1,0-.58,9.21,9.21,0,0,1,1.43-3.29l.39.32-1.9,2-1,1a3.8,3.8,0,0,1-1.15.9,1.76,1.76,0,0,1-.77.2,1.08,1.08,0,0,1-.79-.35,1.3,1.3,0,0,1-.33-.78,3.1,3.1,0,0,1,.09-.76c.12-.47.29-.9.39-1.32a1.75,1.75,0,0,0,0-.59.59.59,0,0,0-.25-.37l.31,0L958,891l-.47.54,0-.72.24-4.29.39.22a10.58,10.58,0,0,0-3.61,4.1l-.86,1.75.39-1.91.85-4.15.38.26a10.21,10.21,0,0,1-5.58,1.6h-.27l0-.26a1.84,1.84,0,0,1,3.14-1,2.39,2.39,0,0,1,.6,1.82,2.53,2.53,0,0,1-.92,1.68,3.32,3.32,0,0,1-1.72.76,1.17,1.17,0,0,1-.55,0,.73.73,0,0,1-.45-.44,2.66,2.66,0,0,1-.11-1,4.86,4.86,0,0,1,1.44-3.33l1.22-1.21-.83,1.5a11.22,11.22,0,0,1-2.26,2.91,10.78,10.78,0,0,1-1.48,1.11,5.28,5.28,0,0,1-1.7.77,1.68,1.68,0,0,1-1.68-.81,2.23,2.23,0,0,1-.3-1.81A3.81,3.81,0,0,1,946.57,886.72Z" transform="translate(-742.98 -874.52)"/>
    <path class="cls-2" d="M990.53,886.24a2.76,2.76,0,0,0-2.52,3.12,1.11,1.11,0,0,0,.53.82,1.38,1.38,0,0,0,1,.07,3,3,0,0,0,1.49-1.46,40,40,0,0,0,3.7-8.39l.46.18c-1.36,2.94-2.76,6-2.54,9.26a1.38,1.38,0,0,0,.35.93c.19.16.48,0,.86-.21a15.3,15.3,0,0,0,2-1.31,5.32,5.32,0,0,0,1.52-1.76,1.48,1.48,0,0,0,.23-1,.19.19,0,0,0-.21-.13.94.94,0,0,0-.39.24,4.35,4.35,0,0,0-1.34,1.86,1.43,1.43,0,0,0,.68,1.78,2.35,2.35,0,0,0,2.07-.48,7.16,7.16,0,0,0,1.64-1.7,8.07,8.07,0,0,0,.59-1,3.17,3.17,0,0,1,.7-1.13,1.59,1.59,0,0,1,2.37.84,3.33,3.33,0,0,1-.09,2.61,1.61,1.61,0,0,1-2.46.6l-.39-.35.53-.08a14.27,14.27,0,0,0,4.2-1,4.63,4.63,0,0,0,2.67-3.21,4.75,4.75,0,0,1-2.55,3.44,13.68,13.68,0,0,1-4.24,1.29l.13-.43a.9.9,0,0,0,.9.17,1.2,1.2,0,0,0,.76-.65,2.77,2.77,0,0,0,.08-2.17,1.29,1.29,0,0,0-.69-.74.87.87,0,0,0-.9.09,2.8,2.8,0,0,0-.57,1,8,8,0,0,1-.63,1.1,7.79,7.79,0,0,1-1.76,1.82,2.85,2.85,0,0,1-2.55.54,1.7,1.7,0,0,1-.95-1,2.39,2.39,0,0,1,0-1.35,4.86,4.86,0,0,1,1.49-2.1,1.4,1.4,0,0,1,.65-.36.69.69,0,0,1,.76.45,1.82,1.82,0,0,1-.25,1.37,5.88,5.88,0,0,1-1.66,1.94,16.65,16.65,0,0,1-2.1,1.35,3.74,3.74,0,0,1-.6.29.84.84,0,0,1-.8-.13,1.73,1.73,0,0,1-.54-1.29,13.07,13.07,0,0,1,.69-4.93,39.89,39.89,0,0,1,1.89-4.57l.46.18a41,41,0,0,1-3.74,8.5,3,3,0,0,1-1.81,1.61,1.72,1.72,0,0,1-1.27-.18,1.44,1.44,0,0,1-.63-1.08A2.9,2.9,0,0,1,990.53,886.24Z" transform="translate(-742.98 -874.52)"/>
    <path class="cls-2" d="M1008.19,885.54l-.58,2.85c-.21,1-.37,1.91-.64,2.84l-1.45,5.63-.49-.11c.32-1.66.64-3.33,1.11-5a18.6,18.6,0,0,1,2-4.71,4.16,4.16,0,0,1,1.87-1.89,1.54,1.54,0,0,1,1.42.26,1.92,1.92,0,0,1,.71,1.23,2.63,2.63,0,0,1-1.17,2.4,7.62,7.62,0,0,1-2.4,1l-1,.29.8-.72a3.12,3.12,0,0,1,2-.61,4.81,4.81,0,0,0,1.86-.41,3.77,3.77,0,0,0,2.1-3.11,4,4,0,0,1-1.91,3.47,3.66,3.66,0,0,1-2,.54,2.7,2.7,0,0,0-1.74.49l-.24-.43a7,7,0,0,0,2.24-.93,2.16,2.16,0,0,0,1-1.92,1.21,1.21,0,0,0-1.49-1.09c-.68.23-1.15,1-1.59,1.68-1.76,2.84-2.42,6.2-3.05,9.5l-.48-.11,1.45-5.62c.22-1,.54-1.86.82-2.79Z" transform="translate(-742.98 -874.52)"/>
    <path class="cls-2" d="M1015,885.73c-.06.85-.17,1.69-.31,2.53q-.1.63-.24,1.26a10.58,10.58,0,0,1-.35,1.22l-.48-.14a19.42,19.42,0,0,1,.94-2.65,4.45,4.45,0,0,1,1.73-2.32,1.6,1.6,0,0,1,1.57.07,1.44,1.44,0,0,1,.57.6,1.12,1.12,0,0,1,0,.88,4.7,4.7,0,0,1-.95,1.13l-1,1,0-.31a1.86,1.86,0,0,0,1.48.85,2.89,2.89,0,0,0,1.75-.52,4.07,4.07,0,0,0,1.92-3.11,1.35,1.35,0,0,0,0-.34s0,0-.13.06a7.72,7.72,0,0,0-.72.62,3.62,3.62,0,0,0-1,1.56,1.94,1.94,0,0,0,.15,1.77,1.46,1.46,0,0,0,1.72.52,1.55,1.55,0,0,1-1.92-.35,2.29,2.29,0,0,1-.43-2.08,4.21,4.21,0,0,1,1.16-1.78,7.12,7.12,0,0,1,.81-.69.8.8,0,0,1,.34-.12.51.51,0,0,1,.45.18,1.09,1.09,0,0,1,.13.65,4.53,4.53,0,0,1-2.15,3.52,3.36,3.36,0,0,1-2.06.61,2.38,2.38,0,0,1-1.88-1.1l-.09-.16.14-.15,1-1a4.6,4.6,0,0,0,.85-1,.67.67,0,0,0-.37-.85,1.07,1.07,0,0,0-1.09,0,4.06,4.06,0,0,0-1.49,2.07,17.19,17.19,0,0,0-.91,2.58l-.48-.14c.13-.39.22-.8.36-1.2s.26-.8.38-1.2C1014.59,887.38,1014.79,886.56,1015,885.73Z" transform="translate(-742.98 -874.52)"/>
    <path class="cls-2" d="M1021.68,890.32a.84.84,0,0,0,.76.28,2.51,2.51,0,0,0,.8-.22,6.63,6.63,0,0,0,1.47-.83,7.46,7.46,0,0,0,2.15-2.54,2.16,2.16,0,0,1,1.44-1.15,1.57,1.57,0,0,1,1,.19,1,1,0,0,1,.5,1,2,2,0,0,1-.4.88,7.45,7.45,0,0,1-.57.69,5.73,5.73,0,0,1-1.44,1l-.68.34.34-.68a2.14,2.14,0,0,1,3.3-.49,3.13,3.13,0,0,1,.71,3.38,5.76,5.76,0,0,1-2.15,2.74,4.32,4.32,0,0,1-3.39.78,1.05,1.05,0,0,1-.79-.69,1.23,1.23,0,0,1,.22-1,6,6,0,0,1,1.28-1.21l2.64-2.1a27.28,27.28,0,0,0,4.77-4.65l.35.35a3.76,3.76,0,0,0-1.34,1.89c-.25.71-.17,1.68.51,1.77s1.41-.5,2-1a2,2,0,0,0,.84-1.94,1,1,0,0,0-.63-.73,1.84,1.84,0,0,0-1.08.06,1.76,1.76,0,0,0-.52.2.74.74,0,0,0-.31.33c0,.08,0,.13.17.15l.62,0,5-.18-5,.51c-.22,0-.4,0-.64.06a.55.55,0,0,1-.42-.13.49.49,0,0,1-.16-.48,1.53,1.53,0,0,1,1.09-.92,2.26,2.26,0,0,1,1.39-.06,1.5,1.5,0,0,1,1,1.08,2.05,2.05,0,0,1-.15,1.4,3.36,3.36,0,0,1-.85,1.05,8.08,8.08,0,0,1-1.06.75,2.12,2.12,0,0,1-1.36.34,1.25,1.25,0,0,1-1-1,2.82,2.82,0,0,1,.12-1.36,4.17,4.17,0,0,1,1.51-2.15l1.42-1.06-1.07,1.41a27.59,27.59,0,0,1-4.86,4.74l-2.64,2.1a5.89,5.89,0,0,0-1.17,1.09c-.3.43-.21.83.28.94a3.86,3.86,0,0,0,3-.72,5.31,5.31,0,0,0,2-2.48,2.64,2.64,0,0,0-.58-2.85,1.64,1.64,0,0,0-2.51.34l-.34-.33a4.94,4.94,0,0,0,1.31-.95,3.06,3.06,0,0,0,.83-1.27c.07-.39-.46-.67-.92-.59a2,2,0,0,0-1.14.91,7.72,7.72,0,0,1-2.39,2.47,7.47,7.47,0,0,1-1.56.75,2.62,2.62,0,0,1-.84.17A.89.89,0,0,1,1021.68,890.32Z" transform="translate(-742.98 -874.52)"/>
    <path class="cls-2" d="M1051.83,886.11a3.16,3.16,0,0,0-1.19.83,4.83,4.83,0,0,0-.73,1.18,2.13,2.13,0,0,0-.12,1.31,1.23,1.23,0,0,0,.74.92c.34.09.66-.22,1-.61s.63-.77.91-1.17a16.56,16.56,0,0,0,1.49-2.54l.27-.56.19.58a3.09,3.09,0,0,1-.14,1.94,4.36,4.36,0,0,0-.34,1.66,1.17,1.17,0,0,0,1,1,4.42,4.42,0,0,0,1.76-.11,4.16,4.16,0,0,1-1.8.49,1.35,1.35,0,0,1-1-.34,1.57,1.57,0,0,1-.49-.94,4.7,4.7,0,0,1,.36-1.88,2.71,2.71,0,0,0,.15-1.62l.46,0a17.48,17.48,0,0,1-1.53,2.61c-.3.41-.61.82-.93,1.2a3.83,3.83,0,0,1-.57.57,1,1,0,0,1-.91.2,2.11,2.11,0,0,1-1-2.89,2.67,2.67,0,0,1,1-1.25A3,3,0,0,1,1051.83,886.11Z" transform="translate(-742.98 -874.52)"/>
    <path class="cls-2" d="M755,900.71c-.29,1.81-.64,3.61-1,5.41s-.94,3.55-1.45,5.31q-1.54,5.3-3.43,10.46l-.48-.13.5-2.84c.15-.94.37-1.89.43-2.82a3,3,0,0,0-.74-2.46,1.63,1.63,0,0,0-2.24-.18l.05-.24c0,.2.37.29.71.27a9.35,9.35,0,0,0,1.08-.18c.74-.15,1.46-.36,2.19-.54a22.7,22.7,0,0,0,4.25-1.59,23.05,23.05,0,0,1-4.12,2,14.35,14.35,0,0,1-2.22.62,10,10,0,0,1-1.16.19,1.71,1.71,0,0,1-.66-.08.86.86,0,0,1-.55-.55l0-.13.09-.1a1.75,1.75,0,0,1,1.53-.53,2.64,2.64,0,0,1,1.43.67,3.52,3.52,0,0,1,.9,2.86c-.07,1-.28,1.93-.44,2.88l-.5,2.84-.48-.13c1.25-3.44,2.4-6.92,3.42-10.43.51-1.76,1-3.52,1.44-5.3S754.47,902.48,755,900.71Z" transform="translate(-742.98 -874.52)"/>
    <path class="cls-2" d="M757.66,907.57a18,18,0,0,0-1.93,5l-.45-.15a11.47,11.47,0,0,1,1.25-2.47,12.19,12.19,0,0,1,.82-1.11,2.24,2.24,0,0,1,1.23-.85,1.37,1.37,0,0,1,.82.08,1,1,0,0,1,.58.62,2.11,2.11,0,0,1-.16,1.5,6.38,6.38,0,0,1-1.62,2.29l.06-.3c.26.56,1.11.58,1.71.29a3.55,3.55,0,0,0,1.39-1.6,4.31,4.31,0,0,1,1.55-1.83,2.48,2.48,0,0,1,1.23-.32,1.42,1.42,0,0,1,1.18.62l.32.49-.57-.1a2.71,2.71,0,0,0-2.42,1.37,8.2,8.2,0,0,0-.82,1.29c-.19.43,0,.74.51.76a1.83,1.83,0,0,0,1.27-.54,4.57,4.57,0,0,0,.94-1.18,32,32,0,0,1,1.57-2.82l.53-.74-.08.91a8.92,8.92,0,0,1-.4,2c-.22.64-.65,1.21-.42,1.72a1.27,1.27,0,0,0,1.54.53,4.13,4.13,0,0,0,1.54-1.14,4.21,4.21,0,0,1-1.48,1.3,1.53,1.53,0,0,1-1.91-.54,1.39,1.39,0,0,1-.05-1.09l.3-.94a8.54,8.54,0,0,0,.38-1.86l.45.16c-.6.84-1,1.84-1.54,2.78a5,5,0,0,1-1.05,1.31,3.23,3.23,0,0,1-.72.48,1.83,1.83,0,0,1-.89.18,1.12,1.12,0,0,1-.89-.44,1,1,0,0,1-.06-1,8.08,8.08,0,0,1,.88-1.42,5,5,0,0,1,1.21-1.16,2.35,2.35,0,0,1,1.7-.4l-.25.39c-.33-.53-1.17-.48-1.76-.15a4.08,4.08,0,0,0-1.36,1.65,3.92,3.92,0,0,1-1.61,1.8,2.31,2.31,0,0,1-1.25.22,1.38,1.38,0,0,1-1.12-.73l-.08-.17.14-.13a5.92,5.92,0,0,0,1.49-2.11,1.68,1.68,0,0,0,.15-1.14.68.68,0,0,0-.83-.38c-.72.17-1.24,1-1.73,1.75a13.55,13.55,0,0,0-1.23,2.36l-.45-.15A18.73,18.73,0,0,1,757.66,907.57Z" transform="translate(-742.98 -874.52)"/>
    <path class="cls-2" d="M771.62,909a1.88,1.88,0,0,0-1.82.2,3.17,3.17,0,0,0-1.15,1.5,8.05,8.05,0,0,0-.51,1.83.92.92,0,0,0,1,1.13,2.91,2.91,0,0,0,1.54-1c.4-.47.79-1,1.18-1.51l2.34-3.08.33.23a66.71,66.71,0,0,0-6.82,16.56l-.48-.12a60.92,60.92,0,0,1,5.82-15l.44.23a4,4,0,0,0,.2,3.65l-.35-.08a7.45,7.45,0,0,0,3-4.26l.49.1-.62,3.72-.34-.28a7.47,7.47,0,0,0,4.16-4.15l.4.28a4,4,0,0,0-1,4.44l-.32-.14a9.84,9.84,0,0,0,5.28-4.91l.24.35a2.72,2.72,0,0,0-2.42,2.55,1.8,1.8,0,0,0,.16.88c.12.22.29.22.57.07a5.25,5.25,0,0,0,1.41-1.41,6.14,6.14,0,0,1,.73-.81,2.72,2.72,0,0,1,1-.54,2.14,2.14,0,0,1,1.18,0,1.29,1.29,0,0,1,.89.85,1.62,1.62,0,0,1-.13,1.21,3,3,0,0,1-.7.9,6.39,6.39,0,0,0-1.44,1.39l-.23-.37a3,3,0,0,1,2.27,1,4.68,4.68,0,0,1,.94,4.61,6.28,6.28,0,0,1-1.28,2,14,14,0,0,1-3.85,2.73,4.87,4.87,0,0,1-1.14.47,1.39,1.39,0,0,1-1.32-.26,1.24,1.24,0,0,1-.24-1.35,3.39,3.39,0,0,1,.66-1.06l6.22-6.95c1.05-1.15,2.05-2.34,3.16-3.45A11,11,0,0,1,795,908.5l.15.47a6.72,6.72,0,0,0-2.88,1.76,4.83,4.83,0,0,0-1,1.35c-.21.47-.21,1.15.23,1.22a1.18,1.18,0,0,0,.73-.18c.26-.13.52-.26.77-.41a11.78,11.78,0,0,0,1.46-1A13.19,13.19,0,0,0,797,909.3l.11-.14.08.15a1.13,1.13,0,0,1-.22,1.11,5.23,5.23,0,0,0-.54.9c-.28.67.3,1.34,1,1.57a3,3,0,0,0,2.07,0,6.65,6.65,0,0,1,2.12-.36,6.53,6.53,0,0,0-2.1.41,3.12,3.12,0,0,1-2.13.06,1.91,1.91,0,0,1-.89-.64,1.15,1.15,0,0,1-.18-1.09,5.36,5.36,0,0,1,.54-.94c.19-.3.34-.63.18-.91l.19,0a13.72,13.72,0,0,1-2.48,2.57,14.81,14.81,0,0,1-1.47,1c-.26.15-.52.3-.79.43a1.55,1.55,0,0,1-1,.24.88.88,0,0,1-.7-.79,2.14,2.14,0,0,1,.12-1,5.37,5.37,0,0,1,1.06-1.52,7,7,0,0,1,3.09-1.91l.15.48a10.57,10.57,0,0,0-3.73,2.55c-1.08,1.08-2.09,2.27-3.14,3.42l-6.21,6.94c-.46.53-.89,1.33-.45,1.73a.89.89,0,0,0,.86.13,4.16,4.16,0,0,0,1-.42,13.39,13.39,0,0,0,3.72-2.63,5.53,5.53,0,0,0,1.18-1.88,4,4,0,0,0,.13-2.16c-.26-1.42-1.38-2.82-2.85-2.75l-.45,0,.22-.39A6.59,6.59,0,0,1,787,912a1.67,1.67,0,0,0,.69-1.57c-.16-.55-.86-.7-1.46-.51a2.85,2.85,0,0,0-1.5,1.18,5.68,5.68,0,0,1-1.55,1.54,1.21,1.21,0,0,1-.65.16.8.8,0,0,1-.6-.42,2.28,2.28,0,0,1-.23-1.15,3.21,3.21,0,0,1,2.9-3l.42,0-.19.38a10.36,10.36,0,0,1-5.55,5.17l-.23.09-.09-.23a4.48,4.48,0,0,1,1.16-5l.77-.68-.38,1a7.94,7.94,0,0,1-4.44,4.44l-.41.16.07-.43.62-3.72.49.1a8,8,0,0,1-3.2,4.56l-.22.15-.14-.23a4.51,4.51,0,0,1-.22-4.12l.44.23a60.5,60.5,0,0,0-5.77,14.88l-.48-.12a60.9,60.9,0,0,1,7-16.65l.32.23-2.42,3c-.41.5-.78,1-1.23,1.5a3.06,3.06,0,0,1-1.7,1,1,1,0,0,1-.94-.36,1.3,1.3,0,0,1-.24-1,8.36,8.36,0,0,1,.57-1.86,3.31,3.31,0,0,1,1.21-1.5A1.89,1.89,0,0,1,771.62,909Z" transform="translate(-742.98 -874.52)"/>
    <path class="cls-2" d="M813.49,911.91a8.74,8.74,0,0,0,1.86-1,7.45,7.45,0,0,0,1.66-1.23,6.94,6.94,0,0,0,1.25-1.63,1,1,0,0,0,.09-.82c-.12-.25-.34-.39-.55-.29a2.36,2.36,0,0,0-.68.64,6,6,0,0,0-.56.86,4.77,4.77,0,0,0-.53,1.94,2.11,2.11,0,0,0,.64,1.73,1.36,1.36,0,0,0,1.8.16,1.57,1.57,0,0,1-2.11.23,2.57,2.57,0,0,1-.83-2.13,5.2,5.2,0,0,1,.59-2.16,5.82,5.82,0,0,1,.61-.94,2.73,2.73,0,0,1,.88-.79.82.82,0,0,1,.73,0,1,1,0,0,1,.46.51,1.44,1.44,0,0,1-.09,1.24,7.35,7.35,0,0,1-1.35,1.76,8.1,8.1,0,0,1-1.76,1.32A7,7,0,0,1,813.49,911.91Z" transform="translate(-742.98 -874.52)"/>
    <path class="cls-2" d="M829.56,912.54a36.84,36.84,0,0,0,1.91-4.2l.29.14a5,5,0,0,0-.63,2.63c0,.46.06.89.38,1s.73,0,1.08-.28a13.69,13.69,0,0,0,1.9-2,21.59,21.59,0,0,0,1.6-2.31l.71-1.19-.25,1.36-.77,4.2-.45-.19,2-2.91c.18-.24.32-.48.54-.74a1.47,1.47,0,0,1,.43-.34.83.83,0,0,1,.64,0,1,1,0,0,1,.49,1,3.07,3.07,0,0,1-.34.9,1.77,1.77,0,0,0-.15,1.49.76.76,0,0,0,1.17.29,6.25,6.25,0,0,0,2.43-2.33,5.45,5.45,0,0,0,.39-.76c.11-.23.1-.49,0-.5s-.33,0-.53.2a2.37,2.37,0,0,0-.57.57,2.93,2.93,0,0,0-.21,3.08c.15.26.25.36.44.32a4.31,4.31,0,0,0,.76-.29,6.82,6.82,0,0,0,1.44-.93,3.67,3.67,0,0,0,1.05-1.26c.22-.49.26-1.07-.12-1.31l-.39-.23.42-.2a4.63,4.63,0,0,1,3.23-.32l.22.06-.07.2-1,2.94a1.87,1.87,0,0,0-.16.71.53.53,0,0,0,.45.46c.51.11.93-.33,1.23-.72-.27.4-.66.9-1.25.82a.64.64,0,0,1-.58-.54,1.87,1.87,0,0,1,.1-.79l.76-3,.16.27a5,5,0,0,0-2.92.36l0-.43a1.19,1.19,0,0,1,.52,1,2.41,2.41,0,0,1-.21,1,4.11,4.11,0,0,1-1.19,1.44,7.39,7.39,0,0,1-1.54,1,4.12,4.12,0,0,1-.9.33.77.77,0,0,1-.61-.14,1.26,1.26,0,0,1-.34-.41,3.4,3.4,0,0,1,.24-3.63,2.75,2.75,0,0,1,.67-.69,1,1,0,0,1,1.09-.21.66.66,0,0,1,.3.6,1.72,1.72,0,0,1-.12.52,6.34,6.34,0,0,1-.42.82,6.74,6.74,0,0,1-2.64,2.52,1.45,1.45,0,0,1-1,.17,1.29,1.29,0,0,1-.82-.69,2.21,2.21,0,0,1,.15-1.92,2.6,2.6,0,0,0,.29-.76.47.47,0,0,0-.2-.49c-.12-.07-.31,0-.48.22a8.49,8.49,0,0,0-.51.7l-2,2.91-.66.94.21-1.13.77-4.2.46.17a20.39,20.39,0,0,1-1.64,2.37c-.3.38-.61.75-.94,1.1a6.92,6.92,0,0,1-1.06,1,1.69,1.69,0,0,1-1.58.33,1.08,1.08,0,0,1-.58-.68,2.42,2.42,0,0,1-.1-.78,5.13,5.13,0,0,1,.86-2.8l.29.14A36.45,36.45,0,0,1,829.56,912.54Z" transform="translate(-742.98 -874.52)"/>
    <path class="cls-2" d="M852.45,907.46a4.65,4.65,0,0,0-2.15,2.14c-.39.84-.78,2.29.23,2.13a2.44,2.44,0,0,0,1.28-.58,10.11,10.11,0,0,0,1.16-1,10.48,10.48,0,0,0,1.81-2.47l.44.23a6.68,6.68,0,0,0-.74,2.62c-.05.47.11.63.54.61a3.46,3.46,0,0,0,1.22-.46,6.49,6.49,0,0,0,2.06-1.77,7.14,7.14,0,0,1,1-1.11,1.61,1.61,0,0,1,1.53-.46l.62.2-.59.27a4.74,4.74,0,0,0-2.08,1.91,2.43,2.43,0,0,0-.41,1.26c0,.37.41.48.84.29a4.15,4.15,0,0,0,1.13-.84c.37-.34.72-.69,1.06-1.06A17.41,17.41,0,0,0,863.2,907l.89-1.36-.43,1.56c-.24.87-.51,1.74-.77,2.61a3.29,3.29,0,0,0-.23,1.29.71.71,0,0,0,1,.6c-.41.27-1-.11-1.07-.57a3.18,3.18,0,0,1,.1-1.38c.18-.89.34-1.78.53-2.67l.45.2a19,19,0,0,1-1.88,2.41c-.35.38-.71.74-1.09,1.08a4.34,4.34,0,0,1-1.29.94,1.3,1.3,0,0,1-.9.08.9.9,0,0,1-.62-.76,2.77,2.77,0,0,1,.48-1.58,5.24,5.24,0,0,1,2.3-2.12l0,.47a1.13,1.13,0,0,0-1.06.35,7.65,7.65,0,0,0-.9,1,7,7,0,0,1-2.22,1.91,4,4,0,0,1-1.43.52,1,1,0,0,1-.86-.29,1.16,1.16,0,0,1-.21-.86,7.1,7.1,0,0,1,.8-2.81l.44.23a11,11,0,0,1-1.89,2.59,10.18,10.18,0,0,1-1.22,1.06,2.9,2.9,0,0,1-1.54.68,1.13,1.13,0,0,1-.94-.31,1,1,0,0,1-.2-.94,4.7,4.7,0,0,1,3-3.52Z" transform="translate(-742.98 -874.52)"/>
    <path class="cls-2" d="M855.73,904.7c-.11,0-.15-.16-.12-.29a.44.44,0,0,1,.23-.09.43.43,0,0,1,.24,0,.38.38,0,0,1,.19.28.33.33,0,0,1-.13.31.41.41,0,0,1-.22.09.45.45,0,0,1-.25,0c0-.12,0-.26.06-.3a.15.15,0,0,0,.18-.15h0a.15.15,0,0,0-.09.15c0,.12.13.14.12.13l0,0A.14.14,0,0,0,855.73,904.7Z" transform="translate(-742.98 -874.52)"/>
    <path class="cls-2" d="M843.67,905.68l.1-.34a1.53,1.53,0,0,0,.21-.14,2.91,2.91,0,0,0,.37-.33,2.38,2.38,0,0,0,.31-.4l.12-.21.33-.14a1.65,1.65,0,0,1,.11.36,2.15,2.15,0,0,1-.14.26,4.17,4.17,0,0,1-.36.47,3.31,3.31,0,0,1-.44.39l-.24.17A1.18,1.18,0,0,1,843.67,905.68Z" transform="translate(-742.98 -874.52)"/>
    <path class="cls-2" d="M832.09,905.74a.23.23,0,0,0,0,.21c0,.08,0,0,0,0s0,0,0,0l-.2-.18a.33.33,0,0,0,.2-.05s.05,0,0,0,0,.08.09.08.08-.05.09-.12a.17.17,0,0,1,.2,0c.07,0,.13.19.06.25a.48.48,0,0,1-.23.22.82.82,0,0,1-.52.12l-.16,0,0-.16a.5.5,0,0,1,.09-.46c.05,0,.08-.15.19-.1A.27.27,0,0,1,832.09,905.74Z" transform="translate(-742.98 -874.52)"/>
    <path class="cls-2" d="M882.78,906.89a22.1,22.1,0,0,1-.14,5.2l-.33-.12c.73-1.35,1.44-2.65,2.29-4a1.3,1.3,0,0,1,.56-.42.59.59,0,0,1,.48,0,.58.58,0,0,1,.27.4,1.46,1.46,0,0,1-.08.67l-.13.55-.55,2.21c0,.17-.1.4-.1.48s0,.08.14.1.38-.25.53-.6a11,11,0,0,1,2.77-3.7,2.08,2.08,0,0,1,1.13-.58,1.07,1.07,0,0,1,1.17.73l.05.2-.2.09a6.11,6.11,0,0,0-2.22,1.58,3,3,0,0,0-.71,1.09.59.59,0,0,0,.42.81c.76.23,1.48-.62,2-1.3a8.08,8.08,0,0,0,1.3-2.44l.47.15-.92,3c-.14.48-.4,1-.23,1.3s.66.21,1.06,0a8.49,8.49,0,0,0,2.13-2.06,9.6,9.6,0,0,0,1.4-2.67l.14-.41.28.33A11.64,11.64,0,0,1,897,909a4.25,4.25,0,0,1,.7,1.85,2.51,2.51,0,0,1-.63,1.91,1.82,1.82,0,0,1-1.85.67l-.3-.08.22-.2a7.15,7.15,0,0,1,4.5-1.78,6.94,6.94,0,0,0-4.27,2l-.08-.28a1.45,1.45,0,0,0,1.43-.64,2.39,2.39,0,0,0,.48-1.57,5.89,5.89,0,0,0-1.75-3.07l.42-.09a9.5,9.5,0,0,1-1.47,2.8,8.81,8.81,0,0,1-2.3,2.21,2.16,2.16,0,0,1-.84.25.94.94,0,0,1-.89-.45,1.24,1.24,0,0,1,0-.94l.23-.75.93-3,.47.16a8.41,8.41,0,0,1-1.38,2.59,7.33,7.33,0,0,1-1,1.07,1.71,1.71,0,0,1-1.55.4,1.07,1.07,0,0,1-.7-.55,1.15,1.15,0,0,1-.06-.87,3.44,3.44,0,0,1,.82-1.3,6.66,6.66,0,0,1,2.4-1.7l-.15.28a.57.57,0,0,0-.63-.34,1.57,1.57,0,0,0-.85.46,11.06,11.06,0,0,0-1.51,1.62,11.9,11.9,0,0,0-1.14,1.91,2.52,2.52,0,0,1-.3.55.85.85,0,0,1-.69.34.66.66,0,0,1-.41-.14.57.57,0,0,1-.22-.43,2.71,2.71,0,0,1,.12-.63l.54-2.21.14-.55a1.59,1.59,0,0,0,.07-.46c0-.06,0-.07-.1-.05a.77.77,0,0,0-.33.26c-.38.58-.76,1.29-1.15,1.92l-1.22,1.92-.53.85.2-1A21.47,21.47,0,0,0,882.78,906.89Z" transform="translate(-742.98 -874.52)"/>
    <path class="cls-2" d="M913.11,907.1a4.32,4.32,0,0,0-2,2.09,4.45,4.45,0,0,0-.35,1.38c0,.44,0,1.1.21.94a3.85,3.85,0,0,0,1-.8,8.84,8.84,0,0,0,1-1.07,9.4,9.4,0,0,0,1.37-2.53l.46.18a12,12,0,0,0-.64,2c-.12.67-.35,1.48-.08,1.92s1.06.17,1.54-.25a11.14,11.14,0,0,0,1.36-1.59,34,34,0,0,0,3.81-7.66l.46.2a60.23,60.23,0,0,0-3,7.09c-.09.3-.21.63-.26.89a1.41,1.41,0,0,0,.05.8.33.33,0,0,0,.49.14,4.56,4.56,0,0,0,.72-.53,10.21,10.21,0,0,0,2.37-2.91l.45.23a13,13,0,0,0-.67,1.59c-.18.54-.36,1.13,0,1.54a1.37,1.37,0,0,0,1.5.34,4.31,4.31,0,0,0,1.44-1,4.52,4.52,0,0,1-1.39,1.1,1.58,1.58,0,0,1-1.76-.29,1.28,1.28,0,0,1-.31-.93,4.56,4.56,0,0,1,.16-.91,7.51,7.51,0,0,1,.61-1.7l.45.24a11.12,11.12,0,0,1-2.49,3.05,4.33,4.33,0,0,1-.84.61.93.93,0,0,1-.64.06.83.83,0,0,1-.51-.44,2.94,2.94,0,0,1,.19-2.07,60.76,60.76,0,0,1,3-7.15l.46.2a34.84,34.84,0,0,1-3.88,7.77,11.34,11.34,0,0,1-1.44,1.68,2.78,2.78,0,0,1-1,.57,1.13,1.13,0,0,1-1.23-.42,1.74,1.74,0,0,1-.19-1.22c.05-.36.11-.72.19-1.08a12.83,12.83,0,0,1,.67-2.1l.47.18a10.09,10.09,0,0,1-1.44,2.66,9.82,9.82,0,0,1-1,1.13,6.91,6.91,0,0,1-.57.51,1.45,1.45,0,0,1-.76.39.57.57,0,0,1-.53-.2.78.78,0,0,1-.15-.47,4.9,4.9,0,0,1,.05-.77,4.6,4.6,0,0,1,.49-1.45A4.44,4.44,0,0,1,913.11,907.1Z" transform="translate(-742.98 -874.52)"/>
    <path class="cls-2" d="M925.61,907.51c0,.93-.44,1.89-.17,2.68a1,1,0,0,0,.65.84,1.46,1.46,0,0,0,1.12-.28,5.16,5.16,0,0,0,1.71-2c.17-.36.14-.84-.09-1s-.76-.08-.71.13l-.22-.25a7.16,7.16,0,0,0,4-.66l.59-.28-.25.6-.61,1.49a4,4,0,0,0-.43,1.41c0,.4.32.69.84.49a4.26,4.26,0,0,1,1.55-.43,4.66,4.66,0,0,0-1.43.71,1.06,1.06,0,0,1-.93.1.9.9,0,0,1-.53-.85,4.26,4.26,0,0,1,.47-1.63l.61-1.48.34.32a7.7,7.7,0,0,1-4.28.71l-.2,0,0-.22a.74.74,0,0,1,.64-.72,1.14,1.14,0,0,1,.86.17,1.32,1.32,0,0,1,.27,1.58,5.53,5.53,0,0,1-1.92,2.2,1.89,1.89,0,0,1-1.52.33,1.52,1.52,0,0,1-1-1.22C924.81,909.2,925.45,908.42,925.61,907.51Z" transform="translate(-742.98 -874.52)"/>
    <path class="cls-2" d="M938.34,906.87a2.89,2.89,0,0,0-2.52,3.13,1.54,1.54,0,0,0,.42,1,.91.91,0,0,0,1,.15,4.06,4.06,0,0,0,1.53-1.52,24.16,24.16,0,0,0,3.7-8.07l.48.14L941.37,906l-.77,2.18-.38,1.09a3.16,3.16,0,0,0-.25,1c0,.35.1.59.36.64a1.62,1.62,0,0,0,.92-.27,5.19,5.19,0,0,0,1.45-1.62,6,6,0,0,1,1.54-1.81,3,3,0,0,1,1.14-.53,1.83,1.83,0,0,1,1.29.19l.66.38-.76.08a4.29,4.29,0,0,0-2.58,1.29,2.67,2.67,0,0,0-.75,1.19c-.12.45,0,.88.4.9a2.54,2.54,0,0,0,1.26-.53,6.45,6.45,0,0,0,1.13-1,6.34,6.34,0,0,0,1.45-2.59l.49.1-.39,2.94a1.37,1.37,0,0,0,0,.61.32.32,0,0,0,.35.21,2,2,0,0,0,1.15-.55,16,16,0,0,0,1.87-2.23,5.57,5.57,0,0,1,1.08-1.09,2.55,2.55,0,0,1,1.53-.52h.84l-.71.45a8.27,8.27,0,0,0-2.32,1.93,2.55,2.55,0,0,0-.3,2.68l-.36-.08a6.55,6.55,0,0,0,1.8-2.22l1.42-2.64,2.81-5.3.57-1.07-.1,1.2a15.53,15.53,0,0,1-2,5.41,14,14,0,0,0-1,2.6,5.08,5.08,0,0,0,0,2.68l-.32-.17a10.45,10.45,0,0,0,5.51-4.45l.23.38a2.26,2.26,0,0,0-1.47,3.48l-.3-.06a13.51,13.51,0,0,0,5.61-5.52l.47.19a4.13,4.13,0,0,0,.06,2.09,16.44,16.44,0,0,1,.52,2.2,2.78,2.78,0,0,1-.58,2.25,2.09,2.09,0,0,1-1,.61,1.38,1.38,0,0,1-1.18-.21l-.17-.13.18-.09,7.33-3.82-7.2,4.05v-.22a1.43,1.43,0,0,0,1.82-.41,2.4,2.4,0,0,0,.42-2,16.6,16.6,0,0,0-.57-2.14,4.21,4.21,0,0,1-.1-2.34l.47.19a14.09,14.09,0,0,1-5.83,5.72l-.18.09-.13-.15a2.76,2.76,0,0,1,1.81-4.3l.49,0-.25.41a11,11,0,0,1-5.78,4.66l-.25.09-.07-.26a5.64,5.64,0,0,1,0-2.94,15.36,15.36,0,0,1,1.06-2.69,15.35,15.35,0,0,0,1.92-5.22l.47.13-2.82,5.3L953,909.14a7,7,0,0,1-2,2.39l-.22.16-.14-.24a2.51,2.51,0,0,1-.3-1.67,3.52,3.52,0,0,1,.63-1.55,8.42,8.42,0,0,1,2.45-2.06l.14.46a3,3,0,0,0-2.22,1.42,15.37,15.37,0,0,1-1.94,2.3,3.61,3.61,0,0,1-.66.44,1.51,1.51,0,0,1-.82.23.83.83,0,0,1-.81-.54,1.76,1.76,0,0,1,0-.85l.39-2.94.48.1a6.76,6.76,0,0,1-1.56,2.79,6.84,6.84,0,0,1-1.23,1,2.84,2.84,0,0,1-1.58.61,1,1,0,0,1-.8-.6,1.46,1.46,0,0,1,0-.92,3.18,3.18,0,0,1,.87-1.42,4.75,4.75,0,0,1,2.88-1.43l-.09.46a1.73,1.73,0,0,0-1.88.31,5.69,5.69,0,0,0-1.42,1.68,5.67,5.67,0,0,1-1.61,1.78,2.07,2.07,0,0,1-1.27.33.94.94,0,0,1-.63-.45,1.34,1.34,0,0,1-.14-.69,3.71,3.71,0,0,1,.28-1.19l.38-1.09.77-2.17,1.53-4.36.49.15a22.51,22.51,0,0,1-4,8.12,4.09,4.09,0,0,1-1.69,1.55,1.09,1.09,0,0,1-1.15-.22,1.74,1.74,0,0,1-.45-1.07A3,3,0,0,1,938.34,906.87Z" transform="translate(-742.98 -874.52)"/>
    <path class="cls-2" d="M916,904.3c.31-.11.62-.18.92-.26h.93l1.86,0,1.85.08.93.06c.3.1.6.19.9.32-.31.07-.63.12-.94.18l-.92-.06-1.84-.08-1.84,0h-.92C916.62,904.46,916.31,904.4,916,904.3Z" transform="translate(-742.98 -874.52)"/>
    <path class="cls-2" d="M923.36,906.33c-.08.08-.14.12-.2.19l-.08,0H923s.05-.1,0-.08,0,0,0,0-.15.13,0,.2-.12.21-.27.19a.46.46,0,0,1,.07-.73.64.64,0,0,1,.4,0l.16,0A1.29,1.29,0,0,1,923.36,906.33Z" transform="translate(-742.98 -874.52)"/>
    <path class="cls-2" d="M933.59,906l-.21.18-.08,0s-.06,0-.06,0,.06-.09,0-.07,0,0,0,0a.11.11,0,0,0,0,.2c0,.11-.13.21-.27.18a.41.41,0,0,1-.15-.23.43.43,0,0,1,.21-.49.55.55,0,0,1,.41,0l.15.05A1.23,1.23,0,0,1,933.59,906Z" transform="translate(-742.98 -874.52)"/>
    <path class="cls-2" d="M981.38,906.83c.28-.4.94-.14,1,.29a2.4,2.4,0,0,1-.14,1.3l-.73,2.5-.21-.07a8.47,8.47,0,0,1,2.73-3.72l.44-.35-.12.57a26.54,26.54,0,0,0-.56,3.87l-.47-.14a10.43,10.43,0,0,1,5.06-4.53l.47-.19-.13.48-.69,2.75c-.1.43-.31,1-.18,1.18s.57-.09,1-.29a11.49,11.49,0,0,0,4.15-3.59l.13.38a1.78,1.78,0,0,0-1.61.37,2.52,2.52,0,0,0-.87,1.51,4.7,4.7,0,0,0-.09.92,2.41,2.41,0,0,0,.13.85.65.65,0,0,0,.6.31,2.64,2.64,0,0,0,.87-.14,8.68,8.68,0,0,0,3-2.3,10.19,10.19,0,0,1,1.53-1.3,3.64,3.64,0,0,1,2-.65h.43l-.21.37-2.34,4.3-.41-.28a31.68,31.68,0,0,1,4.53-4.44l.22-.17.15.24a1.67,1.67,0,0,1,.08,1.44c-.13.43-.36.83-.49,1.19a1.79,1.79,0,0,0-.07,1.09.57.57,0,0,0,.71.41,2.12,2.12,0,0,0,1-.6,10.44,10.44,0,0,0,.88-.88,13.53,13.53,0,0,0,1.51-2c1.81-2.84,2.92-6.15,5.1-8.88l.41.28c-.73,1.29-1.45,2.58-2.14,3.89l-2.09,3.92-1,2a2.27,2.27,0,0,0-.35,1,.51.51,0,0,0,.6.55,8.53,8.53,0,0,0,4-1.75,8.53,8.53,0,0,1-4,1.94.82.82,0,0,1-.59-.17.76.76,0,0,1-.24-.58,2.49,2.49,0,0,1,.33-1.1l.93-2c.64-1.34,1.27-2.69,2-4s1.41-2.61,2.15-3.89l.41.28c-2.11,2.63-3.22,5.92-5.07,8.83a14.85,14.85,0,0,1-1.56,2.08,9.88,9.88,0,0,1-.92.91,2.63,2.63,0,0,1-1.2.72,1.09,1.09,0,0,1-1.29-.74,2.36,2.36,0,0,1,.08-1.42c.17-.44.37-.78.49-1.17a1.26,1.26,0,0,0,0-1l.36.07a30.56,30.56,0,0,0-4.45,4.36l-.42-.28,2.35-4.3.22.37a4.86,4.86,0,0,0-3.15,1.8,8.91,8.91,0,0,1-3.17,2.42,3,3,0,0,1-1.05.17,1.16,1.16,0,0,1-1-.59,2.65,2.65,0,0,1-.18-1.07,5,5,0,0,1,.1-1,3,3,0,0,1,1.05-1.81,2.26,2.26,0,0,1,2.07-.44l.33.1-.2.28a11.93,11.93,0,0,1-4.33,3.74c-.22.12-.42.21-.66.32a1.22,1.22,0,0,1-.46.08.64.64,0,0,1-.48-.28,1.17,1.17,0,0,1-.06-.89l.17-.68.7-2.75.34.29a9.92,9.92,0,0,0-4.82,4.31l-.54,1,.06-1.11a19.35,19.35,0,0,1,.67-3.93l.32.21a8.12,8.12,0,0,0-2.76,3.47l-.21-.08.83-2.47a2.27,2.27,0,0,0,.2-1.25C982.3,906.73,981.67,906.44,981.38,906.83Z" transform="translate(-742.98 -874.52)"/>
    <path class="cls-2" d="M1002.52,904.62c.29-.11.58-.18.87-.27l.87,0,1.75,0,1.74,0,.88,0c.29.07.58.13.88.23-.29.11-.58.18-.87.27l-.87,0-1.75,0-1.75,0-.87,0A8.75,8.75,0,0,1,1002.52,904.62Z" transform="translate(-742.98 -874.52)"/>
    <path class="cls-2" d="M1013.56,907.27a1.12,1.12,0,0,0-1.46-.38,3.28,3.28,0,0,0-1.19,1.15l-.49.69a2.79,2.79,0,0,0-.41.7c-.21.49,0,.87.48.91a2.45,2.45,0,0,0,1.46-.45,7.4,7.4,0,0,0,1.32-1,18.84,18.84,0,0,0,2.17-2.59l1.11-1.48-.67,1.73-1.11,2.81c-.15.45-.46,1-.37,1.27s.58.16,1-.09a13.31,13.31,0,0,0,4.38-3.93l.38-.55.07.66a2.43,2.43,0,0,1-.54,1.66c-.33.45-.7.84-1,1.26a3.44,3.44,0,0,0-.36.64c0,.19,0,.28.14.34a1.16,1.16,0,0,0,.64,0,2.83,2.83,0,0,0,.68-.3c.93-.51,1.91-.95,2.8-1.52a3.59,3.59,0,0,0,1.79-2.29l.07-.49.35.34a6.3,6.3,0,0,1,1.07,1.35,5.92,5.92,0,0,1,.68,1.59,2,2,0,0,1-.29,1.76,1.18,1.18,0,0,1-1.69.21l-.14-.14.18-.06,2.74-.88-2.66,1.1,0-.19a.89.89,0,0,0,1.23-.27,1.68,1.68,0,0,0,.1-1.41,6.07,6.07,0,0,0-1.6-2.7l.42-.14a4.09,4.09,0,0,1-2,2.64c-.92.59-1.9,1-2.85,1.55a2.16,2.16,0,0,1-1.72.33.72.72,0,0,1-.43-.41.77.77,0,0,1,0-.56,3.32,3.32,0,0,1,.42-.77c.63-.88,1.55-1.63,1.46-2.57l.45.11a13.73,13.73,0,0,1-4.55,4.09,2.12,2.12,0,0,1-.79.29.78.78,0,0,1-.89-.47,1.33,1.33,0,0,1,.1-.91l.28-.71,1.1-2.82.43.24a19.32,19.32,0,0,1-2.23,2.65,7.81,7.81,0,0,1-1.41,1.07,2.94,2.94,0,0,1-1.77.52,1,1,0,0,1-.89-.56,1.15,1.15,0,0,1,.07-1,3.31,3.31,0,0,1,.52-.73l.56-.67a3.29,3.29,0,0,1,1.35-1.09A1.19,1.19,0,0,1,1013.56,907.27Z" transform="translate(-742.98 -874.52)"/>
    <path class="cls-2" d="M1021.71,902.94a.58.58,0,0,0,0,.25l0,0a.16.16,0,0,0,0,.07.24.24,0,0,0,0,.08v0a.85.85,0,0,0-.22.13.49.49,0,0,1-.27,0,.76.76,0,0,1,0-.15.58.58,0,0,1,.06-.26,1.14,1.14,0,0,1,.15-.23l.11-.09A.55.55,0,0,1,1021.71,902.94Z" transform="translate(-742.98 -874.52)"/>
    <path class="cls-2" d="M1032.52,899a1.77,1.77,0,0,1,.31-.15l.22.12a3.51,3.51,0,0,1,.4.27,2.89,2.89,0,0,1,.35.35l.15.19a1.78,1.78,0,0,1-.09.33l-.32,0-.12-.16a2.54,2.54,0,0,0-.29-.28,1.94,1.94,0,0,0-.33-.23l-.18-.08Z" transform="translate(-742.98 -874.52)"/>
    <path class="cls-2" d="M1034.31,899.88l.25-.1.08.08.15.15.15.15.07.07a1.3,1.3,0,0,1-.1.25l-.25.1-.08-.07-.15-.15-.15-.15-.07-.07A1.72,1.72,0,0,1,1034.31,899.88Z" transform="translate(-742.98 -874.52)"/>
    <path class="cls-2" d="M1035.12,897.48a2.13,2.13,0,0,1,.37,0l.17.2.35.41.34.4.18.2c0,.12,0,.23,0,.36s-.24,0-.36,0l-.18-.2-.34-.41-.35-.4-.17-.2A2.2,2.2,0,0,1,1035.12,897.48Z" transform="translate(-742.98 -874.52)"/>
    <path class="cls-2" d="M1030.69,910.9l.15.2,0,0,0,0,0,.05,0,0-.2-.15-.15-.2,0,0,.05,0,0-.05s0,0,0,0Z" transform="translate(-742.98 -874.52)"/>
    <path class="cls-2" d="M746.56,875.72c0,.15,0,.28,0,.41l-.18.28-.34.55-.35.55-.17.28c-.13,0-.24.1-.39.14,0-.14,0-.27,0-.41l.18-.27.34-.56.35-.55.17-.27A3.53,3.53,0,0,1,746.56,875.72Z" transform="translate(-742.98 -874.52)"/>
    <path class="cls-2" d="M745.16,874.52c0,.19-.1.34-.15.51l-.31.33c-.19.23-.38.47-.56.72s-.34.5-.5.76l-.22.4c-.14.09-.27.2-.43.3a4.91,4.91,0,0,1,0-.54l.23-.41c.16-.28.34-.55.52-.81s.39-.51.6-.75l.32-.35A3,3,0,0,1,745.16,874.52Z" transform="translate(-742.98 -874.52)"/>
    <path class="cls-2" d="M950.36,887.33c-.08.08-.14.12-.2.19l-.08,0H950s.05-.1,0-.08,0,0,0,0-.15.13,0,.2-.12.21-.27.19a.46.46,0,0,1,.07-.73.64.64,0,0,1,.4,0l.16,0A1.29,1.29,0,0,1,950.36,887.33Z" transform="translate(-742.98 -874.52)"/>
    <path class="cls-2" d="M950.36,887.33c-.08.08-.14.12-.2.19l-.08,0H950s.05-.1,0-.08,0,0,0,0-.15.13,0,.2-.12.21-.27.19a.46.46,0,0,1,.07-.73.64.64,0,0,1,.4,0l.16,0A1.29,1.29,0,0,1,950.36,887.33Z" transform="translate(-742.98 -874.52)"/>
</svg>