<svg
        id="Camada_1" data-name="Camada 1" xmlns="http://www.w3.org/2000/svg" viewBox="0 0 232.95 42.68">
    <defs>
        <style>
            .cls-1{
            fill:#1d1d1b;
            }

            .cls-2{
            fill:none;
            stroke: #000;
            stroke-width: 0.5;
            stroke-dasharray: 450;
            stroke-dashoffset: 450;
            animation: draw 2s linear forwards;

            }
            @keyframes draw {
            to {
            stroke-dashoffset: 0;
            }
            }

        </style>
    </defs>
    <title>pagina3_nota1</title>
    <path
            class="cls-2" d="M790.59,880.62c.49-.19,1-.35,1.48-.53l1.53-.28,3-.56,3.06-.57,1.52-.28c.53,0,1,0,1.57,0-.49.19-1,.35-1.48.53l-1.52.28-3.06.57-3,.56-1.53.29C791.64,880.6,791.12,880.63,790.59,880.62Z" transform="translate(-783.32 -878.36)"/>
    <path class="cls-2" d="M796.73,880.05c.13.42.21.84.32,1.26l.05,1.29c0,.86,0,1.71.06,2.57s0,1.72,0,2.57l0,1.29c-.1.43-.18.85-.3,1.27-.08-.43-.13-.86-.2-1.29l0-1.28c0-.85,0-1.7,0-2.55s0-1.71-.06-2.56l-.06-1.28C796.61,880.91,796.65,880.48,796.73,880.05Z" transform="translate(-783.32 -878.36)"/>
    <path class="cls-2" d="M801.91,891a14.66,14.66,0,0,0,1.34-1.39,12.06,12.06,0,0,0,1.27-1.4,4.5,4.5,0,0,0,.5-.76,1.73,1.73,0,0,0,.18-.81.38.38,0,0,0-.37-.4.92.92,0,0,0-.63.36,2.81,2.81,0,0,0-.39,3.28,1.72,1.72,0,0,0,1.46.69,1.52,1.52,0,0,0,1.56-.7,1.71,1.71,0,0,1-1.55,1.2,2.19,2.19,0,0,1-1.88-.9,2.83,2.83,0,0,1-.43-2,3.74,3.74,0,0,1,.86-1.87,1.37,1.37,0,0,1,1-.53.88.88,0,0,1,.6.27,1,1,0,0,1,.25.59,2.8,2.8,0,0,1-.79,1.91,12.26,12.26,0,0,1-1.32,1.47A9.65,9.65,0,0,1,801.91,891Z" transform="translate(-783.32 -878.36)"/>
    <path class="cls-2" d="M807.9,886.39l-.85,4.36-.2-.09,1.61-2.28.81-1.15a2,2,0,0,1,.57-.54.92.92,0,0,1,.43-.15.65.65,0,0,1,.5.17l.11.11,0,.14-.49,1.92-.25,1a1.23,1.23,0,0,0-.05.79.74.74,0,0,0,.62.33,1.19,1.19,0,0,0,.76-.26,10.26,10.26,0,0,0,1.31-1.39,22.84,22.84,0,0,0,3.89-6.76,6.82,6.82,0,0,0,.33-1.88,2,2,0,0,0-.11-.85c-.14-.21-.21-.22-.39,0a22,22,0,0,0-1.72,3.47,24.4,24.4,0,0,0-1.64,7.64l-.48-.12a12.44,12.44,0,0,1,3.69-4.48l.18-.13.15.16a1.67,1.67,0,0,1,.35,1.45c-.08.46-.24.9-.34,1.29-.21.73.08,1.82.79,1.56a7.54,7.54,0,0,0,2.06-1.44,9,9,0,0,0,1.58-2l.41.29a4.84,4.84,0,0,0-.87,1.4,5.57,5.57,0,0,0-.25.79.94.94,0,0,0,0,.67c.15.34.79.26,1.26.06a6.48,6.48,0,0,0,1.39-.9,3.28,3.28,0,0,0,1-1.26,1.5,1.5,0,0,0-1.41-2.08,1.59,1.59,0,0,0-1.27.71l-.18-.31a39.73,39.73,0,0,0,8.28-.73,39.71,39.71,0,0,1-8.28,1.15h-.36l.18-.32a2,2,0,0,1,1.6-1,2,2,0,0,1,1.7.86,2,2,0,0,1,.21,1.89,3.75,3.75,0,0,1-1.13,1.47,7,7,0,0,1-1.52,1,2.35,2.35,0,0,1-.93.21,1,1,0,0,1-1-.49,1.31,1.31,0,0,1-.06-1,4.39,4.39,0,0,1,.27-.87,5.57,5.57,0,0,1,1-1.54l.4.29a9.52,9.52,0,0,1-1.67,2.13,7.75,7.75,0,0,1-2.26,1.55,1.1,1.1,0,0,1-.83-.07,1.17,1.17,0,0,1-.52-.63,2.48,2.48,0,0,1-.07-1.45,12.45,12.45,0,0,0,.33-1.26,1.16,1.16,0,0,0-.21-1l.33,0a11.87,11.87,0,0,0-3.54,4.29l-.53,1.11.06-1.23a24.53,24.53,0,0,1,1.68-7.79,21,21,0,0,1,1.8-3.62.75.75,0,0,1,.65-.29.74.74,0,0,1,.56.43,2.3,2.3,0,0,1,.17,1.09,6.86,6.86,0,0,1-.36,2,23,23,0,0,1-4,6.92,8.9,8.9,0,0,1-1.41,1.48,1.42,1.42,0,0,1-2.11-.24,1.53,1.53,0,0,1,0-1.14l.24-1,.49-1.92.07.25c-.1-.18-.57.09-.81.42l-.86,1.1L807,890.8l-.33.41.13-.51Z" transform="translate(-783.32 -878.36)"/>
    <path class="cls-2" d="M839.76,887.58a2,2,0,0,1,.78,1.82,6.54,6.54,0,0,1-.41,2l-.37-.21c.46-.71,1-1.36,1.5-2l1.52-2,.09-.11H843a.67.67,0,0,1,.52.58,1.76,1.76,0,0,1,0,.62c-.11.4-.28.68-.35,1a4,4,0,0,0,0,2l-.42-.12a21.29,21.29,0,0,0,2.7-3.35,1.57,1.57,0,0,1,1-.75.64.64,0,0,1,.65.49,1.28,1.28,0,0,1-.06.67,8.7,8.7,0,0,0-.35,2.09,1.1,1.1,0,0,0,.17.82c.12.13.4,0,.72-.19a13.21,13.21,0,0,0,1.78-1.2,15.32,15.32,0,0,0,1.57-1.45,6.89,6.89,0,0,0,.66-.81c.18-.27.26-.58.13-.72l.27.08a2.75,2.75,0,0,0-1.86,2.55,1.42,1.42,0,0,0,.81,1.36,1.11,1.11,0,0,0,1.45-.64,1.21,1.21,0,0,1-1.51.82,1.7,1.7,0,0,1-1.14-1.51,2.57,2.57,0,0,1,.51-1.89,3.22,3.22,0,0,1,1.59-1.17l.17,0,.11.14a.91.91,0,0,1,.15.72,2,2,0,0,1-.25.58,8.12,8.12,0,0,1-.73.88,14.48,14.48,0,0,1-1.62,1.51,15.19,15.19,0,0,1-1.84,1.24,3.41,3.41,0,0,1-.54.26.8.8,0,0,1-.75-.13,1.48,1.48,0,0,1-.35-1.23,9.13,9.13,0,0,1,.37-2.2c.13-.35,0-.55-.08-.52a1.25,1.25,0,0,0-.66.52,21.24,21.24,0,0,1-2.76,3.44l-.31.31-.11-.43a4.47,4.47,0,0,1,0-2.21c.08-.37.27-.71.34-1s0-.61-.07-.59l.24-.09-1.52,2c-.52.66-1,1.36-1.56,2l-1,1.09.59-1.3a6.45,6.45,0,0,0,.58-1.87A2,2,0,0,0,839.76,887.58Z" transform="translate(-783.32 -878.36)"/>
    <path class="cls-2" d="M856.06,887a2.76,2.76,0,0,0-2.49,2.83,1.08,1.08,0,0,0,.34.8.86.86,0,0,0,.8,0A2.69,2.69,0,0,0,856,889.2l3.51-7.82.88-2-.4,2.1c-.49,2.54-1.88,4.74-2.25,7.17-.08.55-.21,1.36.12,1.48a1.12,1.12,0,0,0,.72-.11,6.1,6.1,0,0,0,.82-.38,6,6,0,0,0,2.44-2.59l.46.21-.6,1.39a5.85,5.85,0,0,0-.48,1.36.76.76,0,0,0,.59.87,1.38,1.38,0,0,0,1.21-.3,2.85,2.85,0,0,0,1.25-2.34,1,1,0,0,0-.74-.89.84.84,0,0,0-1,.27l-.22-.32a14.9,14.9,0,0,0,5.4-1.19,15.12,15.12,0,0,1-5.37,1.64l-.37,0,.15-.36a1.11,1.11,0,0,1,.71-.61,1.49,1.49,0,0,1,.89,0,1.72,1.72,0,0,1,.74.49,1.6,1.6,0,0,1,.34.82,2.52,2.52,0,0,1-.39,1.6,4.23,4.23,0,0,1-1.06,1.21,1.9,1.9,0,0,1-1.64.37,1.26,1.26,0,0,1-1-1.41,6.21,6.21,0,0,1,.52-1.49l.6-1.4.45.21a6.46,6.46,0,0,1-2.64,2.81,7.91,7.91,0,0,1-.89.41,1.49,1.49,0,0,1-1.1.09.79.79,0,0,1-.44-.49,1.35,1.35,0,0,1-.07-.55,7.77,7.77,0,0,1,.09-1c.41-2.57,1.8-4.77,2.25-7.18l.48.15-3.52,7.83a3.16,3.16,0,0,1-1.53,1.7,1.27,1.27,0,0,1-1.24-.18,1.46,1.46,0,0,1-.42-1.13A2.92,2.92,0,0,1,856.06,887Z" transform="translate(-783.32 -878.36)"/>
    <path class="cls-2" d="M881.05,887.66a2.22,2.22,0,0,0-2.08.19,2,2,0,0,0-.87,1.78c0,.65.4,1.39,1,1.3s1-.75,1.36-1.37l3.88-8,.45.21a57.94,57.94,0,0,0-2.49,5.44l-.53,1.4a3.28,3.28,0,0,0-.28,1.36,1,1,0,0,0,.67.88c.32.07.76-.28,1.19-.52a7.55,7.55,0,0,0,2.23-1.83c.26-.36.57-.9.37-1s-.64-.12-.94.24a3,3,0,0,0-.89,2.54,1.51,1.51,0,0,0,2.27.91,1.33,1.33,0,0,1-1.43.25,1.75,1.75,0,0,1-1.11-1.08,3,3,0,0,1,.79-3,1.63,1.63,0,0,1,.74-.49,1,1,0,0,1,.94.25.87.87,0,0,1,.07,1,3.93,3.93,0,0,1-.41.69,7.83,7.83,0,0,1-2.37,2l-.66.39a1.34,1.34,0,0,1-.88.19A1.45,1.45,0,0,1,881,890a3.64,3.64,0,0,1,.31-1.57l.53-1.41a55.5,55.5,0,0,1,2.52-5.49l.45.22-3.9,8.07a4.07,4.07,0,0,1-.65,1,1.88,1.88,0,0,1-1.09.65,1.27,1.27,0,0,1-1.18-.6,2,2,0,0,1-.29-1.2,2.39,2.39,0,0,1,1.19-2A2.26,2.26,0,0,1,881.05,887.66Z" transform="translate(-783.32 -878.36)"/>
    <path class="cls-2" d="M901.09,886.62c.46-.21,1,.22,1.08.7a5.73,5.73,0,0,1,0,1.43c0,.93-.05,1.87-.12,2.81l-.47-.15,2.46-4.15.16-.27a.52.52,0,0,1,.48-.25.51.51,0,0,1,.41.34,1,1,0,0,1,.09.37l0,1.23-.1,2.41-.44-.16,2-2.65c.35-.45.63-.87,1-1.34a1.91,1.91,0,0,1,.83-.49.69.69,0,0,1,.86.69,2.86,2.86,0,0,1-.27.88c-.1.25-.19.5-.27.76a7.81,7.81,0,0,0-.29,1.59c-.06.55,0,1.12.31,1a7.22,7.22,0,0,0,3.84-2.75,5.65,5.65,0,0,0,.75-1.38c.06-.24,0-.36-.09-.37s-.36.08-.51.23a2.73,2.73,0,0,0-.71,2.81,2,2,0,0,0,2.67,1.08,2.19,2.19,0,0,1-3-.94,2.85,2.85,0,0,1,.65-3.31,1.12,1.12,0,0,1,1-.36.64.64,0,0,1,.47.44.93.93,0,0,1,0,.55,6.28,6.28,0,0,1-.82,1.54,7.71,7.71,0,0,1-2.54,2.28,7.28,7.28,0,0,1-1.6.66.7.7,0,0,1-.6-.08.86.86,0,0,1-.31-.5,3.41,3.41,0,0,1,0-.9,8.82,8.82,0,0,1,.31-1.69c.08-.27.18-.54.28-.81a2.47,2.47,0,0,0,.24-.69c0-.16-.08-.24-.26-.2a1.3,1.3,0,0,0-.58.36c-.31.37-.66.86-1,1.28l-2,2.65-.48.63,0-.79.1-2.41,0-1.17c0-.15-.13-.32-.05-.25s0,0,0,0l-.14.25-2.45,4.15-.59,1,.11-1.14c.09-.94.24-1.86.35-2.8a5.83,5.83,0,0,0,.1-1.37A.78.78,0,0,0,901.09,886.62Z" transform="translate(-783.32 -878.36)"/>
    <path class="cls-2" d="M924.61,891.38a7.65,7.65,0,0,1,1.18-2.48,7.14,7.14,0,0,1,.93-1.06,1.69,1.69,0,0,1,1.47-.43,1.61,1.61,0,0,1,1.09,1.1,2,2,0,0,1-.06,1.51,4.66,4.66,0,0,1-2.08,1.93l-1.4.83,1.09-1.21a4,4,0,0,1,1.71-1c.61-.21,1.23-.36,1.81-.55a4.15,4.15,0,0,0,1.52-.89,1.71,1.71,0,0,0,.61-1.47l.47.09a11,11,0,0,0-.93,2c-.12.35-.25.72-.15.93s.34.25.66.13a2.41,2.41,0,0,0,.84-.61c.27-.26.52-.53.77-.82a12.29,12.29,0,0,0,1.3-1.82l.44.25a5.74,5.74,0,0,0-.54,1.31,3.31,3.31,0,0,0-.23,1.35.88.88,0,0,0,.93.72,3.52,3.52,0,0,0,1.41-.31,3.45,3.45,0,0,1-1.41.5,1.16,1.16,0,0,1-1.28-.83,3.17,3.17,0,0,1,.09-1.57,7.25,7.25,0,0,1,.59-1.41l.43.24a13.34,13.34,0,0,1-1.35,1.9c-.26.29-.52.58-.8.85a3,3,0,0,1-1,.71,1.2,1.2,0,0,1-.69.09.84.84,0,0,1-.62-.49,1.87,1.87,0,0,1,.15-1.29,12.21,12.21,0,0,1,1-2.12l.36-.61.11.7a2.22,2.22,0,0,1-.76,1.9,4.64,4.64,0,0,1-1.71,1c-.62.2-1.23.34-1.81.54a3.68,3.68,0,0,0-1.5.9l-.31-.38a4.2,4.2,0,0,0,1.87-1.7,1.41,1.41,0,0,0-.69-1.92,1.24,1.24,0,0,0-1,.33,6.24,6.24,0,0,0-1,.88A8.11,8.11,0,0,0,924.61,891.38Z" transform="translate(-783.32 -878.36)"/>
    <path class="cls-2" d="M937.27,891.35a11.09,11.09,0,0,0,4-4,11.41,11.41,0,0,0,1.1-2.6,11,11,0,0,0,.48-2.78l.08.2c0-.1-.37.05-.55.31s-.44.55-.65.84a14,14,0,0,0-1.09,1.83,13.61,13.61,0,0,0-1.25,4,2.43,2.43,0,0,0,.25,1.87c.36.44,1.08.11,1.63-.28a4.15,4.15,0,0,0,1.31-1.54,1.54,1.54,0,0,0,.22-.87.2.2,0,0,0-.17-.18c-.11,0-.16,0-.15,0v-.12s.06.06.24,0a2.06,2.06,0,0,0,.54-.17l1.17-.44,2.34-.89.47-.18-.15.49-1.31,4.3-.44-.22c.44-.58.9-1.15,1.37-1.69s.94-1.07,1.53-1.61a1.14,1.14,0,0,1,.64-.25.63.63,0,0,1,.62.52,2.26,2.26,0,0,1-.3,1.16,5.17,5.17,0,0,0-.3,2l-.36-.21a5.93,5.93,0,0,0,2-2.05,8.45,8.45,0,0,1,1-1.18A2.94,2.94,0,0,1,953,887l.44-.08-.16.41-.79,2.15a4.64,4.64,0,0,0-.32,1c0,.34.07.49.35.45a5.4,5.4,0,0,0,3.32-2.61c.09-.16.18-.32.26-.48a1.69,1.69,0,0,0,.16-.46c0-.15-.09-.28,0-.23l-.1.08-.21.2a5.24,5.24,0,0,0-1.3,1.78,2.05,2.05,0,0,0,.25,2.07,1.36,1.36,0,0,0,2,0,1.42,1.42,0,0,1-2.08,0,2.24,2.24,0,0,1-.41-2.24,5.3,5.3,0,0,1,1.28-2l.19-.22a.65.65,0,0,1,.37-.22.43.43,0,0,1,.42.3.92.92,0,0,1,.07.36,2,2,0,0,1-.17.64c-.08.18-.16.36-.26.54a5.89,5.89,0,0,1-3.7,2.86.77.77,0,0,1-.74-.28,1,1,0,0,1-.17-.72,5,5,0,0,1,.35-1.15l.8-2.15.28.33a3.76,3.76,0,0,0-2.12,1.76,6.55,6.55,0,0,1-2.18,2.2l-.33.17,0-.38a5.44,5.44,0,0,1,.34-2.22,2.44,2.44,0,0,0,.27-.89.13.13,0,0,0-.13-.12.69.69,0,0,0-.34.15,19.56,19.56,0,0,0-1.45,1.54c-.47.53-.92,1.09-1.35,1.66l-.85,1.12.41-1.35,1.32-4.3.32.31-2.34.89-1.17.44a2.46,2.46,0,0,1-.66.2,1,1,0,0,1-.41,0,.55.55,0,0,1-.37-.41v-.08l0,0a.69.69,0,0,1,1.29.2,2,2,0,0,1-.26,1.2,4.65,4.65,0,0,1-1.47,1.73,3.92,3.92,0,0,1-1,.53,1.22,1.22,0,0,1-1.25-.32,2.82,2.82,0,0,1-.37-2.28,13.74,13.74,0,0,1,1.29-4.2,15.1,15.1,0,0,1,1.13-1.9c.22-.3.44-.59.68-.87a1.38,1.38,0,0,1,.48-.41.68.68,0,0,1,.8,0l.08.08V882a10.15,10.15,0,0,1-.51,2.9,11.5,11.5,0,0,1-1.3,2.63A11.21,11.21,0,0,1,937.27,891.35Z" transform="translate(-783.32 -878.36)"/>
    <path class="cls-2" d="M956.54,891.88a11.42,11.42,0,0,0,2.22-2.17c.31-.42.6-.84.87-1.28s.56-.87.81-1.32a32.54,32.54,0,0,0,2.3-5.78l.46.19a39.14,39.14,0,0,0-2.44,5.69,7.19,7.19,0,0,0-.61,2.89,1.32,1.32,0,0,0,.74,1,1.6,1.6,0,0,0,1.28-.22,7.92,7.92,0,0,0,2.34-1.89,7.38,7.38,0,0,0,.83-1.23c.17-.24-.28-.4-.58,0-.66.72-1.41,1.57-1,2.47a1.39,1.39,0,0,0,1.11.81,1.57,1.57,0,0,0,1.35-.55,1.63,1.63,0,0,1-2.75-.1,1.79,1.79,0,0,1-.08-1.68,5.64,5.64,0,0,1,1-1.31,1,1,0,0,1,.93-.32.64.64,0,0,1,.46.94,8.08,8.08,0,0,1-.91,1.34,8.36,8.36,0,0,1-2.49,2,2,2,0,0,1-1.69.25,1.82,1.82,0,0,1-1.05-1.39,3.63,3.63,0,0,1,.16-1.65c.14-.51.3-1,.47-1.49a41.21,41.21,0,0,1,2.46-5.76l.46.19a31.79,31.79,0,0,1-2.34,5.87c-.26.46-.52.92-.82,1.36a13.29,13.29,0,0,1-1,1.22A10.12,10.12,0,0,1,956.54,891.88Z" transform="translate(-783.32 -878.36)"/>
    <path class="cls-2" d="M968.41,887.29c-.09.37-.19.73-.29,1.09s-.18.73-.31,1.08l-.85,2.07-.35-.32c.8-.41,1.15-1.39,1.6-2.3a4.06,4.06,0,0,1,1-1.26,1.62,1.62,0,0,1,1.68-.33.87.87,0,0,1,.4.9,1.87,1.87,0,0,1-.35.8c-.36.41-.75.72-.8,1.09s.27.68.65.88a3.21,3.21,0,0,0,1.43.11,3,3,0,0,1-1.53.25,1.34,1.34,0,0,1-.77-.42,1.12,1.12,0,0,1-.27-.89c.12-.66.63-1,.89-1.33s.37-.84.1-1a1.15,1.15,0,0,0-1.11.27,3.77,3.77,0,0,0-.85,1.11,5,5,0,0,1-1.81,2.52l-.61.32.26-.64.84-2.08c.15-.34.35-.66.53-1S968.22,887.61,968.41,887.29Z" transform="translate(-783.32 -878.36)"/>
    <path class="cls-2" d="M956.94,885.2c.42-.11.84-.18,1.26-.27l1.25,0c.84,0,1.67-.09,2.51-.16s1.66-.15,2.5-.25l1.24-.15c.43,0,.85,0,1.28.07-.4.16-.81.28-1.21.42l-1.26.16c-.83.1-1.67.18-2.51.25s-1.68.12-2.53.16l-1.26,0C957.79,885.36,957.36,885.3,956.94,885.2Z" transform="translate(-783.32 -878.36)"/>
    <path class="cls-2" d="M986.14,887.43a3.09,3.09,0,0,0-1.88,1.51,2.48,2.48,0,0,0-.34,1.11.77.77,0,0,0,1.34.68,2.07,2.07,0,0,0,.7-.92c.17-.38.3-.8.51-1.21a2.21,2.21,0,0,1,1-1.05l.17-.07.12.13a1.13,1.13,0,0,1,.22,1.07,5.47,5.47,0,0,1-.31.89c-.22.54-.32,1.08.05,1.4a1.21,1.21,0,0,0,.67.32,2.51,2.51,0,0,0,.77,0,5,5,0,0,0,1.57-.78,4.45,4.45,0,0,1-1.43,1.17,1.55,1.55,0,0,1-1,.14,1.82,1.82,0,0,1-.93-.46,1.32,1.32,0,0,1-.4-1,3.15,3.15,0,0,1,.24-1c.22-.55.48-1.13.18-1.43l.29.06c-.67.31-.9,1.2-1.24,2a2.55,2.55,0,0,1-.86,1.12,1.26,1.26,0,0,1-2.14-1.09,2.85,2.85,0,0,1,.41-1.35A2.73,2.73,0,0,1,986.14,887.43Z" transform="translate(-783.32 -878.36)"/>
    <path class="cls-2" d="M999.74,891a6.59,6.59,0,0,1,1.71-2.68,3.61,3.61,0,0,1,1.4-.87,2.45,2.45,0,0,1,1.71,0,1.74,1.74,0,0,1,1,1.4,2.43,2.43,0,0,1-.37,1.68,4.61,4.61,0,0,1-2.79,1.67l-1.13.3.91-.74a8.7,8.7,0,0,1,4-1.37,7.19,7.19,0,0,0,1.9-.63,3.06,3.06,0,0,0,1.38-1.3,1.3,1.3,0,0,0,.17-.8c0-.14-.3-.16-.57,0A2.34,2.34,0,0,0,1008,889a1.65,1.65,0,0,0,.4,1.7,1.55,1.55,0,0,0,1.84.27,1.64,1.64,0,0,1-2,0,1.85,1.85,0,0,1-.7-2.06,2.81,2.81,0,0,1,1.43-1.72,1.29,1.29,0,0,1,.62-.14.71.71,0,0,1,.63.43,1.09,1.09,0,0,1,0,.67,2.9,2.9,0,0,1-.19.54,3.64,3.64,0,0,1-1.59,1.52,7.31,7.31,0,0,1-2,.68,8.29,8.29,0,0,0-3.79,1.27l-.23-.44a4.14,4.14,0,0,0,2.5-1.45,1.6,1.6,0,0,0-.44-2.35,1.94,1.94,0,0,0-1.36,0,5.52,5.52,0,0,0-1.28.74A6.85,6.85,0,0,0,999.74,891Z" transform="translate(-783.32 -878.36)"/>
    <path class="cls-2" d="M1012.44,887.27c-.18.58-.39,1.15-.51,1.73-.06.28-.18.55-.22.84a3.41,3.41,0,0,0-.07.84l-.5,0a6.4,6.4,0,0,1,1.32-2.78,4,4,0,0,1,1.19-1.05,1.9,1.9,0,0,1,.82-.23,1.25,1.25,0,0,1,.85.32,1.16,1.16,0,0,1,.43.82,1.05,1.05,0,0,1-.44.84c-.45.32-.9.52-.86.83s.53.5.92.79a4.68,4.68,0,0,1,.62.48.8.8,0,0,1,.26.72c-.07-.53-.62-.68-1.06-.85a2.34,2.34,0,0,1-.7-.33,1,1,0,0,1-.53-.77,1,1,0,0,1,.43-.85c.22-.17.44-.28.61-.41a.54.54,0,0,0,.25-.43.67.67,0,0,0-.25-.46,1,1,0,0,0-1.12,0,3.62,3.62,0,0,0-1,.93,5.8,5.8,0,0,0-1.22,2.56l-.43,2.14-.06-2.18a4.34,4.34,0,0,1,.08-1,3.88,3.88,0,0,1,.26-.9A11.75,11.75,0,0,1,1012.44,887.27Z" transform="translate(-783.32 -878.36)"/>
    <path class="cls-2" d="M785.54,909.8a2.79,2.79,0,0,0-2,2.39,1.74,1.74,0,0,0,.42,1.44,1.31,1.31,0,0,0,1.38.15,1.79,1.79,0,0,0,1.2-2.33,1.24,1.24,0,0,0-1.06-.8,1.2,1.2,0,0,0-1.16.6l-.3-.34,3.75-1.34a1.35,1.35,0,0,1,1.19,0,.73.73,0,0,1,.29.64,3.32,3.32,0,0,1-.08.53,11.47,11.47,0,0,0-.17,1.94c0,.64.07,1.34.55,1.36a1.12,1.12,0,0,0,.71-.34,3,3,0,0,0,.58-.72l2.09-3.37.74-1.2-.28,1.37-.57,2.78a1.73,1.73,0,0,0,.06,1.2.91.91,0,0,0,1,.36c.82-.11,1.29-1,1.68-1.83l1.24-2.55.12-.24.23.13a1.37,1.37,0,0,1,.54.65,2.59,2.59,0,0,1,.11.76c0,.48-.08.93-.07,1.37a1.24,1.24,0,0,0,.36,1,1,1,0,0,0,1,0,4.32,4.32,0,0,0,1.79-1.78.9.9,0,0,0,0-1c-.23-.26-.72-.35-.83-.14s0,.43.39.26l1.23-.56c.42-.2.83-.36,1.27-.54a.76.76,0,0,1,.85.14,1.06,1.06,0,0,1,.26.78,2.79,2.79,0,0,1-.69,1.26,1.58,1.58,0,0,0-.3,1.21,1.08,1.08,0,0,0,.8.92,1,1,0,0,0,1.15-.46,1.06,1.06,0,0,1-1.17.55,1.22,1.22,0,0,1-1-1,1.82,1.82,0,0,1,.25-1.4c.24-.39.56-.75.56-1.13a.69.69,0,0,0-.18-.48.35.35,0,0,0-.42,0c-.39.19-.81.41-1.22.6l-1.26.56a.88.88,0,0,1-.91,0,.72.72,0,0,1-.06-1,.86.86,0,0,1,.86-.31,1.39,1.39,0,0,1,.73.4,1.08,1.08,0,0,1,.3.79,1.94,1.94,0,0,1-.18.77,4.79,4.79,0,0,1-.86,1.16,4,4,0,0,1-1.17.86,1.48,1.48,0,0,1-1.55-.09,1.69,1.69,0,0,1-.55-1.43c0-.49.07-.94.07-1.37a1,1,0,0,0-.4-1l.35-.11L796,912.54a7.42,7.42,0,0,1-.73,1.27,2.15,2.15,0,0,1-1.32.84,1.44,1.44,0,0,1-1.5-.6,2.19,2.19,0,0,1-.12-1.56l.57-2.78.46.17-2.11,3.41a3.6,3.6,0,0,1-.66.82,1.58,1.58,0,0,1-1.07.46,1.06,1.06,0,0,1-.92-.8,3.62,3.62,0,0,1-.1-1.06,11.52,11.52,0,0,1,.18-2c.08-.35.12-.62,0-.68s-.45-.06-.72,0l-3.76,1.34-.58.2.27-.55a1.71,1.71,0,0,1,1.64-.88,1.76,1.76,0,0,1,1.49,1.1,2.06,2.06,0,0,1-.09,1.84,2.43,2.43,0,0,1-1.43,1.11,1.71,1.71,0,0,1-1.75-.34,2,2,0,0,1-.41-1.7A2.89,2.89,0,0,1,785.54,909.8Z" transform="translate(-783.32 -878.36)"/>
    <path class="cls-2" d="M804.08,906.69l.25-.06s0,0,0,0l.06.11.06.11,0,.05-.19.17-.25.06,0,0L804,907l-.05-.11,0-.06A2,2,0,0,1,804.08,906.69Z" transform="translate(-783.32 -878.36)"/>
    <path class="cls-2" d="M808.9,909.52a.42.42,0,0,0-.52-.17,1.52,1.52,0,0,0-.52.27c-.29.26-.58.55-.85.84a4.92,4.92,0,0,0-1.23,2c-.22.68.06,1.61.61,1.77a1.12,1.12,0,0,0,.91-.29,5.28,5.28,0,0,0,.88-.75,10.83,10.83,0,0,0,2.21-4.14,26.33,26.33,0,0,1,1.73-4.56l.44.23a24.15,24.15,0,0,0-2.12,7.73,2.72,2.72,0,0,0,.24,1.81.53.53,0,0,0,.61.24A2.29,2.29,0,0,0,812,914a8.63,8.63,0,0,0,2.27-3.2l.56-1.39-.08,1.49a4.21,4.21,0,0,1-.59,1.61,1.56,1.56,0,0,0-.13,1.35c.16.4.62.41,1.07.17a6.28,6.28,0,0,0,1.32-.84,4.63,4.63,0,0,0,1-1.12,2,2,0,0,0,.33-1.37.81.81,0,0,0-.94-.64,3.29,3.29,0,0,0-1.37.59l.07-.13s0,0,0,.06a.54.54,0,0,0,.24.05,1.78,1.78,0,0,0,.58-.15l1.25-.43,2.51-.85-2.44,1-1.21.52-.31.13a1.17,1.17,0,0,1-.37.08.86.86,0,0,1-.41-.05.42.42,0,0,1-.26-.47l0-.08.06,0a3.49,3.49,0,0,1,1.55-.77,1.31,1.31,0,0,1,1.48,1,3.37,3.37,0,0,1-1.55,3,6.81,6.81,0,0,1-1.42.9,1.73,1.73,0,0,1-.92.2,1,1,0,0,1-.82-.6,2,2,0,0,1,.13-1.78,4.12,4.12,0,0,0,.54-1.42l.48.11a9.19,9.19,0,0,1-2.39,3.39,2.83,2.83,0,0,1-.94.61,1,1,0,0,1-1.16-.44,3.14,3.14,0,0,1-.33-2.14,24.32,24.32,0,0,1,2.17-7.89l.44.22a26.34,26.34,0,0,0-1.68,4.48,11.41,11.41,0,0,1-2.32,4.32,5.85,5.85,0,0,1-1,.82,1.58,1.58,0,0,1-1.32.37,1.34,1.34,0,0,1-.9-1.06,2.16,2.16,0,0,1,.08-1.31,5.19,5.19,0,0,1,1.44-2,11.75,11.75,0,0,1,.93-.79,1.61,1.61,0,0,1,.57-.24A.44.44,0,0,1,808.9,909.52Z" transform="translate(-783.32 -878.36)"/>
    <path class="cls-2" d="M833.08,911l-1.63,9.21-.35-.06a47.63,47.63,0,0,1,.68-5,23.49,23.49,0,0,1,.66-2.46,6.19,6.19,0,0,1,1.21-2.31,2.62,2.62,0,0,1,2.51-.88,1.82,1.82,0,0,1,1.14.85,2.38,2.38,0,0,1,.31,1.35,3.14,3.14,0,0,1-1.27,2.32,9.92,9.92,0,0,1-2.27,1.25l-.1-.48a14.89,14.89,0,0,0,7.08-2,1.85,1.85,0,0,0,1-1.25c0-.5-.4-1.06-.82-.89a2.82,2.82,0,0,0-1.07,1.28,1.93,1.93,0,0,0-.12,1.62,1.72,1.72,0,0,0,1.3.9,2.62,2.62,0,0,0,1.68-.3,11.93,11.93,0,0,0,2.8-2.39,11.22,11.22,0,0,0,2.05-3.07,5.2,5.2,0,0,0,.32-3.53l.43.09a9.63,9.63,0,0,0-2.24,5.38,5.34,5.34,0,0,0,.09,1.92,1.8,1.8,0,0,0,1,1.35,2,2,0,0,0,1.64-.56,8.75,8.75,0,0,0,2.55-3l.45.2a7.35,7.35,0,0,0-.37,1.45,4.38,4.38,0,0,0,0,1.44.75.75,0,0,0,1,.39,1.83,1.83,0,0,0,1.1-.77,2.06,2.06,0,0,0,.07-2.55c-.6-.61-2-.49-2.18.34l-.21-.32a9.91,9.91,0,0,0,6.41-1.45l.18-.11.11.16a11.3,11.3,0,0,1,.93,1.49,3.87,3.87,0,0,1,.41,1.74,2.26,2.26,0,0,1-.82,1.59,1.53,1.53,0,0,1-1.71.27l-.18-.1.2,0,4.27-1.06-4.23,1.22,0-.15a1.34,1.34,0,0,0,1.48-.31,2,2,0,0,0,.67-1.41,5.2,5.2,0,0,0-1.38-3l.29.05a9.74,9.74,0,0,1-6.72,1.6l-.28,0,.07-.28a1.58,1.58,0,0,1,1.37-1.07,2,2,0,0,1,1.65.52,2.14,2.14,0,0,1,.56,1.62,3.06,3.06,0,0,1-.57,1.57,2.35,2.35,0,0,1-1.39,1,1.57,1.57,0,0,1-.91,0,1.11,1.11,0,0,1-.67-.7,4.41,4.41,0,0,1,0-1.66,7.49,7.49,0,0,1,.39-1.55l.46.2a9.22,9.22,0,0,1-2.69,3.13,4,4,0,0,1-.92.55,1.7,1.7,0,0,1-1.16.09,2.25,2.25,0,0,1-1.37-1.7,5.92,5.92,0,0,1-.11-2.09,10.07,10.07,0,0,1,2.36-5.66l.3-.36.13.45a5.73,5.73,0,0,1-.34,3.87,11.57,11.57,0,0,1-2.14,3.2,12.49,12.49,0,0,1-2.94,2.51,3.18,3.18,0,0,1-2,.34,2.2,2.2,0,0,1-1.68-1.19,2.42,2.42,0,0,1,.13-2,5.75,5.75,0,0,1,.53-.85,1.9,1.9,0,0,1,.83-.68,1,1,0,0,1,1.12.33,1.51,1.51,0,0,1,.36,1,2.26,2.26,0,0,1-1.22,1.65A15.36,15.36,0,0,1,834,915.3l-1.3,0,1.19-.51a9.1,9.1,0,0,0,2.15-1.18,2.59,2.59,0,0,0,1.09-1.95A1.56,1.56,0,0,0,836,910a2.17,2.17,0,0,0-2,.73,5.94,5.94,0,0,0-1.09,2.14,17.8,17.8,0,0,0-.64,2.41c-.35,1.63-.6,3.29-.82,5l-.35-.06Z" transform="translate(-783.32 -878.36)"/>
    <path class="cls-2" d="M874.14,910.65a1,1,0,0,1,1,.55,2,2,0,0,1,.27,1.14,8.53,8.53,0,0,0-.27,2.25h-.23a7.19,7.19,0,0,1,3-4.21l.46-.31-.09.56a20.06,20.06,0,0,0-.23,4l-.48-.1a13.6,13.6,0,0,1,3.35-4.5l.16-.15.17.15a1.34,1.34,0,0,1,.43.86,2.84,2.84,0,0,1,0,.88,6.86,6.86,0,0,1-.21.81,2.51,2.51,0,0,0-.11.72c0,.48.16,1,.54,1s.89-.24,1.34-.46a9,9,0,0,0,2.45-1.93,8.26,8.26,0,0,0,.94-1.26,1.63,1.63,0,0,0,.28-.64c0-.23,0-.37-.12-.4s-.29,0-.45.23-.33.4-.49.6a5.41,5.41,0,0,0-.77,1.33,2,2,0,0,0-.07,1.41,1.52,1.52,0,0,0,.9,1,1.28,1.28,0,0,0,1.24-.38,11.82,11.82,0,0,0,1.07-1.15A18.18,18.18,0,0,0,890,910l.7-1.2-.23,1.37-.42,2.47a1.68,1.68,0,0,0,.08,1,.51.51,0,0,0,.76.05,3.42,3.42,0,0,0,.77-.86l.74-1,1.48-2,.42.27a7.73,7.73,0,0,0-.92,2.92c-.06.51-.07,1.08.22,1.21s.84-.1,1.29-.32a7.45,7.45,0,0,0,3.83-4.6l.1-.35.29.22a5.71,5.71,0,0,1,1.44,1.46,3.57,3.57,0,0,1,.65,2,2.75,2.75,0,0,1-.78,1.92,2.09,2.09,0,0,1-1.91.69l-.25-.05.2-.15a9.92,9.92,0,0,1,4.17-1.75,9.73,9.73,0,0,0-4,1.93l0-.2a1.84,1.84,0,0,0,1.63-.68,2.43,2.43,0,0,0,.6-1.69,4.42,4.42,0,0,0-2-3l.39-.13a8,8,0,0,1-4.09,4.91,5.94,5.94,0,0,1-.77.33,1.3,1.3,0,0,1-1,0,1.07,1.07,0,0,1-.51-.86,4,4,0,0,1,0-.85,8.32,8.32,0,0,1,1-3.11l.42.26-1.48,2-.74,1a3.88,3.88,0,0,1-.89,1,1.1,1.1,0,0,1-.75.23,1,1,0,0,1-.71-.42,2,2,0,0,1-.15-1.39l.41-2.47.47.16a18.67,18.67,0,0,1-1.88,2.68,12.77,12.77,0,0,1-1.13,1.21,1.76,1.76,0,0,1-1.71.48,2.28,2.28,0,0,1-1.15-3,6.11,6.11,0,0,1,.84-1.45c.18-.22.32-.42.53-.65a1,1,0,0,1,1-.35.67.67,0,0,1,.44.43,1,1,0,0,1,0,.52,2.2,2.2,0,0,1-.34.83,9.09,9.09,0,0,1-1,1.32,9.36,9.36,0,0,1-2.6,2c-.24.13-.49.25-.74.36a1.5,1.5,0,0,1-.93.15,1.07,1.07,0,0,1-.77-.64,2.17,2.17,0,0,1-.17-.89,3.22,3.22,0,0,1,.13-.87,7.61,7.61,0,0,0,.2-.75,1.32,1.32,0,0,0-.22-1.27h.33a13.25,13.25,0,0,0-3.23,4.34l-.44,1,0-1a19,19,0,0,1,.25-4.06l.37.25a6.83,6.83,0,0,0-3,3.86l-.16.52-.07-.53a8.66,8.66,0,0,1,.38-2.31,1.8,1.8,0,0,0-.2-1.09A1,1,0,0,0,874.14,910.65Z" transform="translate(-783.32 -878.36)"/>
    <path class="cls-2" d="M917.67,910a5.52,5.52,0,0,0-1.83,2.36,1.77,1.77,0,0,0,1.08,2.28c.91.14,1.74-.63,2.45-1.27A7.39,7.39,0,0,0,921,911l.47.18-.45,1.5a3.88,3.88,0,0,0-.29,1.39c.09.35.6.52,1.05.48a2.6,2.6,0,0,0,1.32-.51,1.93,1.93,0,0,0,.76-1.14,1.74,1.74,0,0,0-.23-1.32,1.29,1.29,0,0,0-2.18.05l0-.28a1.53,1.53,0,0,0,1.48.19c.55-.15,1.13-.37,1.7-.56a19.19,19.19,0,0,0,3.28-1.44,9,9,0,0,0,2.66-2.28,6.12,6.12,0,0,0,.84-1.52,4.62,4.62,0,0,0,.23-.82c0-.26,0-.51-.15-.6h.31a13.46,13.46,0,0,0-4,5.46,6.91,6.91,0,0,0-.35,3.29.47.47,0,0,0,.41.38,2.6,2.6,0,0,0,.78,0,4.28,4.28,0,0,0,1.55-.54,4.58,4.58,0,0,0,1.24-1.08,3.15,3.15,0,0,0,.45-.69,1,1,0,0,0,.15-.68c-.07-.22-.08-.22-.23-.14a5.2,5.2,0,0,0-.56.58,6.94,6.94,0,0,0-.91,1.41,6.16,6.16,0,0,0-.51,1.61.89.89,0,0,0,.14.72,1,1,0,0,0,.7.3,4.07,4.07,0,0,0,1.66-.33,6.8,6.8,0,0,0,1.52-.83,6.66,6.66,0,0,1-1.48.92,4.22,4.22,0,0,1-1.71.45,1.25,1.25,0,0,1-.88-.34,1.15,1.15,0,0,1-.26-.93,6.87,6.87,0,0,1,.44-1.73,6.46,6.46,0,0,1,.9-1.57,4.52,4.52,0,0,1,.65-.67.65.65,0,0,1,.68-.07.71.71,0,0,1,.34.54,1.5,1.5,0,0,1-.19,1,3.68,3.68,0,0,1-.51.77,4.8,4.8,0,0,1-1.38,1.2,5,5,0,0,1-1.72.61,3.33,3.33,0,0,1-1,0,1,1,0,0,1-.8-.73,7.24,7.24,0,0,1,.36-3.59,14,14,0,0,1,4.14-5.68l.16-.13.16.12a1.1,1.1,0,0,1,.34,1.06,4,4,0,0,1-.25.93,6.8,6.8,0,0,1-.91,1.65,9.27,9.27,0,0,1-2.81,2.41,19.37,19.37,0,0,1-3.37,1.48c-.58.2-1.13.41-1.74.57a2,2,0,0,1-2-.31l-.12-.13.07-.15a1.79,1.79,0,0,1,3.06-.13,2.29,2.29,0,0,1,.3,1.71,2.44,2.44,0,0,1-.95,1.43,3.11,3.11,0,0,1-1.58.61,2,2,0,0,1-.89-.13,1.14,1.14,0,0,1-.68-.71,1.6,1.6,0,0,1,.07-.91l.22-.76L921,911l.46.17a8.1,8.1,0,0,1-1.78,2.59,6,6,0,0,1-1.27,1,2.29,2.29,0,0,1-1.61.32,1.68,1.68,0,0,1-1.17-1.13,2.38,2.38,0,0,1,0-1.58A5.54,5.54,0,0,1,917.67,910Z" transform="translate(-783.32 -878.36)"/>
    <path class="cls-2" d="M938.36,909.85a5.57,5.57,0,0,0-2.38,1.52,1.9,1.9,0,0,0-.47,2.32.89.89,0,0,0,1,.38,3.2,3.2,0,0,0,1.16-.62,3.77,3.77,0,0,0,1.31-2.3l.13-.89.35.83a9.63,9.63,0,0,1,.24,6.63,9.78,9.78,0,0,1-.67,1.56,4.06,4.06,0,0,1-1.1,1.36,1.92,1.92,0,0,1-1.8.29,1.58,1.58,0,0,1-.94-1.56,2.36,2.36,0,0,1,.71-1.65,6.33,6.33,0,0,1,1.36-1c.93-.58,1.83-1.19,2.7-1.86.43-.33.85-.67,1.27-1s.86-.68,1.27-1,.83-.72,1.23-1.1l.6-.57c.09-.09.2-.19.19-.32s-.3-.06-.18.05c-.15-.11.21-.28.22-.06a.48.48,0,0,1-.17.39l-.53.63c-.36.42-.73.83-1.12,1.23s-.77.8-1.18,1.17-.86.7-1.3,1c-.88.67-1.8,1.3-2.74,1.88s-1.84,1.25-1.83,2.26a1.09,1.09,0,0,0,.63,1.1,1.42,1.42,0,0,0,1.32-.24,3.5,3.5,0,0,0,1-1.19,9,9,0,0,0,.63-1.47,9.13,9.13,0,0,0-.22-6.29l.47-.06a4.2,4.2,0,0,1-1.48,2.61,3.69,3.69,0,0,1-1.37.73,1.41,1.41,0,0,1-1.52-.58,1.69,1.69,0,0,1-.22-1.59,3,3,0,0,1,.88-1.25A5.46,5.46,0,0,1,938.36,909.85Z" transform="translate(-783.32 -878.36)"/>
    <path class="cls-2" d="M947.32,909.33a3.51,3.51,0,0,0-2.2,1.68,3.37,3.37,0,0,0-.42,1.3,2.43,2.43,0,0,0,.1,1.25c.14.28.59.21,1,0a4.43,4.43,0,0,0,1-.89,13.08,13.08,0,0,0,1.59-2.37l.75-1.33-.29,1.5-.54,2.78a1.15,1.15,0,0,0,0,.58c.06.17.09.17.21.14s.35-.24.54-.36l.58-.41,2.31-1.63c.72-.52,1.47-1.23,1.33-2l-.25-1.33.7,1.16a11.48,11.48,0,0,1,.9,1.66,4.16,4.16,0,0,1,.35,1.92,2.55,2.55,0,0,1-1,1.75,1.85,1.85,0,0,1-2,.34l0,0-.4-.17.38-.26a8.3,8.3,0,0,1,2.41-1,10.18,10.18,0,0,1,2.56-.39,10.48,10.48,0,0,0-2.47.66,15.37,15.37,0,0,0-2.23,1.19l0-.43h0a1.38,1.38,0,0,0,1.46-.27,2.15,2.15,0,0,0,.77-1.41,5.76,5.76,0,0,0-1.17-3.28l.46-.18a2,2,0,0,1-.44,1.52,5.14,5.14,0,0,1-1.09,1l-2.31,1.64-.58.41a5,5,0,0,1-.65.41.6.6,0,0,1-.55,0,.71.71,0,0,1-.32-.42,1.74,1.74,0,0,1,0-.82l.54-2.78.46.17a13.57,13.57,0,0,1-1.65,2.46,5.48,5.48,0,0,1-1.16,1,1.73,1.73,0,0,1-.8.27.87.87,0,0,1-.84-.42,3,3,0,0,1,.46-3A3.51,3.51,0,0,1,947.32,909.33Z" transform="translate(-783.32 -878.36)"/>
    <path class="cls-2" d="M959.33,904.27a1.38,1.38,0,0,0,.25.15.69.69,0,0,0,0,.13,1.22,1.22,0,0,0,.1.24,1,1,0,0,0,.17.19l.11.08a1.57,1.57,0,0,0,0,.29.82.82,0,0,1-.28.14l-.17-.12a1.18,1.18,0,0,1-.27-.32,1.3,1.3,0,0,1-.17-.38l0-.21A.69.69,0,0,1,959.33,904.27Z" transform="translate(-783.32 -878.36)"/>
    <path class="cls-2" d="M960.64,904.06l.27-.06a.41.41,0,0,0,.05.09l.11.16.11.16.05.09-.15.22-.27,0,0-.08-.11-.17-.11-.16a.22.22,0,0,0,0-.08A2.17,2.17,0,0,1,960.64,904.06Z" transform="translate(-783.32 -878.36)"/>
    <path class="cls-2" d="M787.07,878.51c-.05.15-.11.26-.16.39l-.26.21a3.48,3.48,0,0,0-.46.48,3,3,0,0,0-.36.56c-.05.1-.1.2-.14.3l-.35.24a1.62,1.62,0,0,1-.12-.43c0-.11.1-.23.16-.34a3.92,3.92,0,0,1,.42-.64,4.51,4.51,0,0,1,.52-.55l.3-.24A2.3,2.3,0,0,1,787.07,878.51Z" transform="translate(-783.32 -878.36)"/>
    <path class="cls-2" d="M785.06,878.48c0,.13.05.23.08.35l-.14.22-.27.44-.27.43-.14.22a2.79,2.79,0,0,1-.34.09c0-.12-.05-.23-.08-.35l.13-.22.27-.44.27-.43.14-.23A2.61,2.61,0,0,1,785.06,878.48Z" transform="translate(-783.32 -878.36)"/>
</svg>