<svg xmlns="http://www.w3.org/2000/svg" viewBox="0 0 212.64 240.31"><title>rapariga-medo</title><g id="Camada_2" data-name="Camada 2"><g id="Camada_1-2" data-name="Camada 1"><path d="M106,61.33a45,45,0,0,1,17,21.3c.12.33-.39.55-.52.21a44.52,44.52,0,0,0-12.07-17.43,45.15,45.15,0,0,0-4.74-3.64C105.37,61.57,105.71,61.13,106,61.33Z" style="fill:#010101"/><path d="M24.69,115.7a10.86,10.86,0,0,1,2.21-4.26,7.86,7.86,0,0,1,1.8-1.55,10.86,10.86,0,0,1,2.4-1,8.53,8.53,0,0,0,3-1.29,2.71,2.71,0,0,0,1.15-2.33l-.26.49c-.17.31-.68.09-.51-.22q4-7.37,8.28-14.53t8.94-14.13Q54,73.37,56.38,70c1.47-2.1,3-4.2,4.57-6.19C64,60,67.6,56.5,72.08,54.55c4.08-1.78,8.9-2.33,13.09-.61a10.72,10.72,0,0,1,1.52.75.29.29,0,0,1,.08.45c4.65-.46,8.08-4.24,12.4-5.66a9,9,0,0,1,5.56-.13,5.18,5.18,0,0,1,3.44,3.4,4.26,4.26,0,0,1-1.3,4.68c-.29.21-.63-.23-.34-.44a3.68,3.68,0,0,0,1.15-3.94,4.67,4.67,0,0,0-3.27-3.22c-4.06-1.28-7.87,1.44-11.19,3.41a15.09,15.09,0,0,1-6.86,2.5c-.36,0-.43-.54-.07-.56h.14c-4-2.24-8.75-2.1-12.92-.59-4.57,1.65-8.27,5-11.36,8.61-1.6,1.89-3.07,3.89-4.49,5.91-1.58,2.22-3.12,4.47-4.64,6.72q-4.58,6.81-8.84,13.81t-8.26,14.3l-.49.92a.27.27,0,0,1,.33.23c.25,1.67-1.13,3-2.54,3.63-.92.42-1.92.64-2.86,1a7.33,7.33,0,0,0-2.14,1.22c-2.74,2.27-3.59,6-3.39,9.45a39.8,39.8,0,0,0,1.26,7,.21.21,0,0,1,0,.21,34.35,34.35,0,0,0,6.58,14.74c.78,1,1.76,2.07,3.12,2.1.36,0,.27.56-.08.55a4.24,4.24,0,0,1-2.92-1.63A24.4,24.4,0,0,1,30.31,140a35,35,0,0,1-3.66-7.78,34.15,34.15,0,0,1-1.19-4.76.21.21,0,0,1,0-.19C24.59,123.51,23.65,119.52,24.69,115.7Z" style="fill:#010101"/><path d="M22.42,117.2A32.88,32.88,0,0,1,24.37,110c.95-2.4,2.37-4.58,3.27-7s1.12-5.52-.88-7.44c-.26-.24.08-.68.34-.44a6.77,6.77,0,0,1,1.6,6.22c-.5,2.56-2,4.78-3.05,7.1A32.62,32.62,0,0,0,24,131.74c.1.34-.41.55-.51.21A33.17,33.17,0,0,1,22.42,117.2Z" style="fill:#010101"/><path d="M23.29,90.44a32.23,32.23,0,0,1,4-12.59,29.36,29.36,0,0,1,4.43-6c.24-.26.68.08.44.34a30.14,30.14,0,0,0-6.7,11.06,31.41,31.41,0,0,0-1.64,12.83,28.93,28.93,0,0,0,1.49,7.19c.12.34-.4.55-.51.21A30.68,30.68,0,0,1,23.29,90.44Z" style="fill:#010101"/><path d="M11,99.65a14.84,14.84,0,0,0,9.26-5.56,14.18,14.18,0,0,0,1.63-2.69.28.28,0,0,1,.51.22,15.39,15.39,0,0,1-8.21,7.72,14.82,14.82,0,0,1-3.13.86A.28.28,0,0,1,11,99.65Z" style="fill:#010101"/><path d="M12,97.43a17.4,17.4,0,0,0,7.54-8.05,17,17,0,0,0,1.05-3c.08-.34.63-.27.55.08A18,18,0,0,1,15,96.12a18.63,18.63,0,0,1-2.77,1.82C11.9,98.11,11.69,97.6,12,97.43Z" style="fill:#010101"/><path d="M11.28,87.09A7.89,7.89,0,0,1,13.44,85a11.73,11.73,0,0,0,4.42-11.1c-.06-.35.5-.42.55-.06a12.39,12.39,0,0,1-3,10.13,15.35,15.35,0,0,1-2.05,1.81,4.31,4.31,0,0,0-1.8,2.11,1.6,1.6,0,0,0,.72,2c1.05.4,2.2-.66,3-1.21L22,83.93c.3-.21.63.23.34.44L16,88.82a8,8,0,0,1-2.93,1.66,1.78,1.78,0,0,1-2-1.09A2.7,2.7,0,0,1,11.28,87.09Z" style="fill:#010101"/><path d="M18,58.4a19.48,19.48,0,0,1,2.15-8.83c2.79-5.31,7.74-9,13-11.69,1.46-.73,3-1.38,4.47-2L33.4,37.29c-.34.11-.55-.4-.21-.52l7.21-2.39L37.91,30.7a.19.19,0,0,1,0-.12L25.31,38.5,21,41.19c-.3.19-.64-.25-.34-.44l15.07-9.5,2.33-1.47q.15-2.85.31-5.71c0-.36.57-.27.55.08-.1,1.76-.19,3.52-.28,5.27L40,28.56c.3-.19.64.25.34.44l-1.75,1.1,0,.4a.23.23,0,0,1-.06.15L41,34.2l.49-.17a.29.29,0,0,1,.37.24l1.91-.7a.27.27,0,0,1,.32.1l3.54-1.82h0A6.84,6.84,0,0,1,45,27.65c-.06-.36.49-.42.56-.07a6.18,6.18,0,0,0,2.36,3.82.27.27,0,0,1,.11.23l.45-.24c.32-.16.53.36.21.52l-5.92,3c-.22.12-.39-.11-.36-.31l-.94.35c0,.26-.31.5-.49.23l0,0c-5,1.88-10,4-14.19,7.39a24.52,24.52,0,0,0-5.55,6.25,18.63,18.63,0,0,0-2.61,8.43A35.23,35.23,0,0,0,19.87,68c.08.34-.47.41-.56.06A38,38,0,0,1,18,58.4Z" style="fill:#010101"/><path d="M101.48,29.78a26.14,26.14,0,0,1,9.91,16.41,24.66,24.66,0,0,1,.3,5.56c0,.35-.57.27-.55-.08a25.47,25.47,0,0,0-6.06-17.74,24.27,24.27,0,0,0-3.94-3.71A.28.28,0,0,1,101.48,29.78Z" style="fill:#010101"/><path d="M115.07,48.82a41.51,41.51,0,0,0,5.55,10.54c2.33,3.21,5.4,5.93,7.18,9.52A10.79,10.79,0,0,1,129,75.21a.28.28,0,0,1-.55-.08c.61-4.06-1.85-7.67-4.33-10.63-1.26-1.51-2.57-3-3.74-4.55a40.39,40.39,0,0,1-3.1-4.86,42.07,42.07,0,0,1-2.7-6.06C114.44,48.69,115,48.48,115.07,48.82Z" style="fill:#010101"/><path d="M124.94,71.4c-.11-.34.4-.55.52-.21,2,6,.59,12.72,3.57,18.42A10.28,10.28,0,0,0,132,93.14c.29.21-.06.65-.34.44-5-3.76-5-10.69-5.59-16.34A26.31,26.31,0,0,0,124.94,71.4Z" style="fill:#010101"/><path d="M138.16,154.21a86.45,86.45,0,0,0,7.09-10.62,33,33,0,0,0,2.95-7.37.28.28,0,0,1-.39-.29c.83-5.63-.8-11.24-3.2-16.29s-5.6-9.63-8.38-14.46a52.78,52.78,0,0,1-4.06-8.52c-.12-.33.4-.55.52-.21,1.9,5.35,5,10.13,7.95,14.94s5.77,9.79,7.15,15.31a24.54,24.54,0,0,1,.7,8.27,23.79,23.79,0,0,0,.4-3.15c.26-4.85-1.38-9.48-3.45-13.78-1.08-2.25-2.27-4.44-3.44-6.65l-3.64-6.85-7.29-13.72c-.3-.57-.6-1.14-.91-1.71-.16-.32.35-.53.52-.21l7.38,13.89c2.43,4.57,4.93,9.11,7.26,13.73a47.24,47.24,0,0,1,3,7.27,45.65,45.65,0,0,0-2.54-13.94c-.12-.34.39-.56.51-.22a46.62,46.62,0,0,1,2.6,14.51.32.32,0,0,1-.38.3,22.93,22.93,0,0,1,.93,6.06,26.73,26.73,0,0,1-3,12,71.45,71.45,0,0,1-6.91,10.83l-.94,1.26A.28.28,0,0,1,138.16,154.21Z" style="fill:#010101"/><path d="M136.7,142.93a85,85,0,0,0,1.93-23.21c-.13-2.19-.33-4.37-.62-6.55a.28.28,0,0,1,.55-.07,85.59,85.59,0,0,1-.12,23.44q-.47,3.26-1.19,6.47C137.17,143.36,136.62,143.28,136.7,142.93Z" style="fill:#010101"/><path d="M136.43,146.47a42.22,42.22,0,0,0,7.24-20.32,40.86,40.86,0,0,0,.05-6.16c0-.36.53-.43.56-.07a42.64,42.64,0,0,1-7.41,26.9C136.67,147.11,136.23,146.77,136.43,146.47Z" style="fill:#010101"/><path d="M126.22,147.21a130.79,130.79,0,0,0,3-22.47,129.36,129.36,0,0,0-.94-22.77c-.54-4.22-1.3-8.42-2.25-12.57-.09-.34.47-.41.55-.06a130.07,130.07,0,0,1,3.16,22.57c.06,1.18.1,2.36.13,3.53a.27.27,0,0,1,.4.13c.3.73.57,1.47.83,2.22a2.79,2.79,0,0,0,1.43-2.8c-.06-.36.49-.42.55-.07a3.33,3.33,0,0,1-1.81,3.41,38.62,38.62,0,0,1,1.89,10.7,32.68,32.68,0,0,0,3.76-15.73c0-.35.55-.42.55-.07a33.51,33.51,0,0,1-2.54,13.34,33.17,33.17,0,0,1-1.72,3.55l0,0c0,.06,0,.12,0,.18,0,.35-.56.42-.56.07a37.87,37.87,0,0,0-1.88-11.86l-.37.08c-.36.06-.43-.49-.07-.55a2.68,2.68,0,0,0,.27-.07c-.22-.63-.45-1.26-.7-1.88a130.21,130.21,0,0,1-.93,18.52q-.78,6.38-2.19,12.65C126.69,147.64,126.14,147.56,126.22,147.21Z" style="fill:#010101"/><path d="M91.12,92.37l5.93,4h0a5.81,5.81,0,0,0,1.08.87c.19.11.38.28.6.23a7.08,7.08,0,0,0,.91-.34l.07,0a.2.2,0,0,0,.14-.06l1.32-.49a.26.26,0,0,0,.32-.12h0l7.44-2.8c1.22-.46,2.44-1,3.67-1.37a9.94,9.94,0,0,1,3.69-.69,7.05,7.05,0,0,1,5.16,3.09,20,20,0,0,1,2.74,6.67c.1.35.61.13.52-.21-.27-1-.55-2-.88-2.9.2,0,.44-.13.32-.36-.34-.58-.67-1.16-1-1.74l-4-6.93c-.3-.52-.58-1.07-.91-1.58a1.8,1.8,0,0,0-1.07-.86c-1-.25-2,.63-2.88,1.15a33.13,33.13,0,0,1-13.65,4.83c-1.3.16-4,.08-4.34,1.78a0,0,0,0,0,0,0,3.54,3.54,0,0,0-1.78-1.21.3.3,0,0,0-.37.14.28.28,0,0,0,.15.37,4.68,4.68,0,0,1,.48.18,1.51,1.51,0,0,1,.22.11l0,0,0,0,.1.07a2.31,2.31,0,0,1,.39.31l0,0h0l.08.09.16.19a.27.27,0,0,0,.39,0l0,0a1.33,1.33,0,0,0,0,.2,1.22,1.22,0,0,0,.06.26l-5-3.32C91.17,91.73,90.82,92.17,91.12,92.37Zm23.75-1.3a5,5,0,0,0,.46-1.1l.14.63a.28.28,0,0,0,.49.13,3.69,3.69,0,0,0,.7-1l.06.43a.28.28,0,0,0,.53.07l.08-.24.22.89c.06.25.42.36.53.08l.39-1v0a.28.28,0,0,0,.53-.15l.55,1L120.81,93a7.4,7.4,0,0,0-2.89-1.74A6.86,6.86,0,0,0,114.87,91.07Zm-1.44.32.46-.93a1.93,1.93,0,0,0,.49.71C114.06,91.23,113.74,91.31,113.43,91.39Zm-1.66.55.91-1.07.2.59a.17.17,0,0,0,.06.08l-1.11.38Zm-1.8.67.7-.85.16.53Zm-1.42.54.44-.54.07.35Zm-1.89.7a2.28,2.28,0,0,0,.49-.68l.18.43Zm-2,.75.35-.78a1.2,1.2,0,0,0,.79.35Zm-2.13.81,1.14-1.31.26.78Zm-.87.33.15-.73.13.46a.21.21,0,0,0,.09.13ZM97.5,96a.43.43,0,0,0,0-.12c.06-.26.11-.53.17-.79a.91.91,0,0,1,.63,1c-.07.32.41.43.53.15l.26-.58.24.94-.7.26A6.07,6.07,0,0,1,97.5,96Zm-.32-1.84a2.17,2.17,0,0,1,1.36-.64c.61-.11,1.23-.13,1.83-.2a33.79,33.79,0,0,0,13.94-4.72c.53-.32,1-.69,1.57-1s1.19-.55,1.69-.08a5.74,5.74,0,0,1,.92,1.43.25.25,0,0,0-.27.16l-.34.87-.23-.93c-.05-.24-.43-.36-.53-.07v0l-.06-.49a.28.28,0,0,0-.56,0,3.3,3.3,0,0,1-.6,1.47c-.11-.51-.23-1-.34-1.53a.28.28,0,0,0-.55.07,4.68,4.68,0,0,1-.47,2,1.3,1.3,0,0,1-.15-1.06c.09-.32-.4-.41-.53-.15l-.66,1.33L113,90.2a.28.28,0,0,0-.48-.06l-1.32,1.57-.19-.64a.28.28,0,0,0-.48-.06l-1.08,1.31-.08-.36a.28.28,0,0,0-.49-.14c-.38.47-.77.93-1.15,1.39l-.35-.86a.28.28,0,0,0-.51,0,2.3,2.3,0,0,1-.71,1.15.58.58,0,0,1-.58.07c-.17-.08-.36-.24-.28-.44a.28.28,0,0,0-.51-.22l-.55,1.22-.23-.68a.28.28,0,0,0-.47-.07l-1.24,1.42-.3-1.08c-.08-.28-.49-.17-.54.07-.12.61-.24,1.23-.37,1.84a2,2,0,0,1-.27-.77c0-.3-.53-.33-.56,0a3,3,0,0,1-.45,1.34l-.37-1.4a.28.28,0,0,0-.53-.08l-.22.5a1.48,1.48,0,0,0-1.26-.73.28.28,0,0,0-.24.24l-.15.69A1.07,1.07,0,0,1,97.18,94.13Z" style="fill:#010101"/><path d="M41.26,111.26a.28.28,0,0,0,.31-.24l.08-1.28a.26.26,0,0,0,.37.05h0c0,.25,0,.51,0,.76l-.09,2.74a.28.28,0,0,0,.53.15l1.35-2.63c.16-.32-.35-.54-.51-.22l-.78,1.51.06-1.61c0-.2,0-.4,0-.6l5.14-.74,11.84-1.71,3.57,0c.3,0,.3-.37.09-.5l3.08-.45a.28.28,0,0,0-.07-.55l-5.23.76-1.51.21-2.55,0L46,107a21.83,21.83,0,0,0-2.56.05,1.46,1.46,0,0,0-1.33,1.16,5.39,5.39,0,0,0-.11.91l-.09.06-.34-.58c-.17-.31-.69-.1-.51.21l0,.07L41,110.94A.3.3,0,0,0,41.26,111.26Zm7.57-3.71L47,108.2a.83.83,0,0,1,.37-.59.27.27,0,0,0,.07-.08h.11l5.22,0,2.68,0-8,1.15,1.54-.56C49.38,107.94,49.17,107.43,48.83,107.55Zm-3.22,1.34.84-.6a2,2,0,0,0,0,.34.52.52,0,0,0,.06.13Zm-1.74.26.76-.6a1.65,1.65,0,0,0,.13.47Zm-1.23-.43a1.48,1.48,0,0,1,.19-.76,1.25,1.25,0,0,1,1-.4h2.66l-1.34,1a1,1,0,0,1,.07-.5.28.28,0,0,0-.42-.33L43.2,109l-.25-.24A.29.29,0,0,0,42.64,108.72Z" style="fill:#010101"/><path d="M65.4,91.36a4.89,4.89,0,0,0,3.32,3.3,12.56,12.56,0,0,0,5.91.14c1.53-.21,3.38-.6,4.74.39a4.3,4.3,0,0,1,1.35,2.13c.36,1,.7,2,1,3.06l2.4,7.07c.09.24-.2.52-.42.32l-.52-.47a.29.29,0,0,1,.14-.5q-.95-2.74-1.87-5.48c-.37-1.07-.73-2.14-1.09-3.21a5,5,0,0,0-1.31-2.42,3.49,3.49,0,0,0-2.38-.57c-.93,0-1.86.22-2.78.33a11.42,11.42,0,0,1-5.63-.35,5.37,5.37,0,0,1-3.46-3.67C64.77,91.08,65.32,91,65.4,91.36Z" style="fill:#010101"/><path d="M87.67,124.94Z" style="fill:#010101"/><path d="M87.21,132.68a.3.3,0,0,0,.32-.24,1.83,1.83,0,0,1,.6-.95,1.66,1.66,0,0,1,.49-.3,1.43,1.43,0,0,1,.54-.13.2.2,0,0,0-.12.08c-.38.47-.75,1-1.12,1.42a.28.28,0,0,0,0,.39.29.29,0,0,0,.4,0l1.07-1.36c.16.69.32,1.39.49,2.09l-.06,0-1.57,1.08a.28.28,0,0,0-.05.39.27.27,0,0,0,.39,0l1.43-1,.12.51c.08.34.64.27.55-.07-.51-2-1-4.1-1.41-6.17-.21-1-.41-2-.6-3.07a.28.28,0,0,0,0-.23h0c-.47-2.55-.89-5.13-1.17-7.71a10.45,10.45,0,0,1,.38-5,5,5,0,0,1,2.8-3c.34-.12.13-.64-.21-.51a5.51,5.51,0,0,0-3.15,3.39,11.13,11.13,0,0,0-.39,5c.2,1.92.51,3.83.83,5.73.08.47.17.94.26,1.4,0,0,0,0,0,0a1,1,0,0,0-.91-.08.72.72,0,0,0-.49.77.27.27,0,0,0,.31.24.27.27,0,0,0,.24-.31V125h0l0,0v0l0,0h0l.06,0h.28l0,0h0s0,0,0,0h0V125a.28.28,0,0,0,.31.25.31.31,0,0,0,.13-.06v0l-1,.89a.28.28,0,0,0,0,.39.29.29,0,0,0,.39,0l.79-.7c.29,1.56.6,3.1.94,4.65h-.07A2.43,2.43,0,0,0,87,132.36.27.27,0,0,0,87.21,132.68Z" style="fill:#010101"/><path d="M91,132.6A10,10,0,0,0,93.87,136a.25.25,0,0,1,.09.28,7.85,7.85,0,0,0,3.85.73c.36,0,.43.53.07.55a8.44,8.44,0,0,1-5.3-1.42.26.26,0,0,1,.06-.46,10.83,10.83,0,0,1-2.12-2.81C90.36,132.5,90.87,132.29,91,132.6Z" style="fill:#010101"/><path d="M77.51,152.73l2.75-3.09-1.92-.23c-.35,0-.27-.59.08-.55l5.07.61,2.53.3a12.59,12.59,0,0,0,2.37.15,3.78,3.78,0,0,0,2.06-.7,8.07,8.07,0,0,0,1.42-1.5,13.94,13.94,0,0,1,2.95-2.84A12.38,12.38,0,0,1,99.14,143c.35-.08.41.47.07.55a11.7,11.7,0,0,0-4,1.71,14.36,14.36,0,0,0-3,3,5.2,5.2,0,0,1-3.35,2.2,18.83,18.83,0,0,1-4.73-.34l-3.15-.38-3,3.35C77.71,153.34,77.27,153,77.51,152.73Z" style="fill:#010101"/><path d="M99.39,141.11c.2-1,.4-1.9.61-2.85.06-.3.52-.32.55,0l0,.49a.26.26,0,0,1-.2.28c-.15.72-.31,1.44-.46,2.16a.3.3,0,0,1-.32.24A.27.27,0,0,1,99.39,141.11Z" style="fill:#010101"/><path d="M74.81,139.51a.25.25,0,0,1,.15-.15.28.28,0,0,1,.22,0,.29.29,0,0,1,.14.15l.26.54a.28.28,0,0,1,0,.22.26.26,0,0,1-.15.14.26.26,0,0,1-.21,0,.28.28,0,0,1-.15-.15l-.26-.54A.26.26,0,0,1,74.81,139.51Z" style="fill:#010101"/><path d="M74.34,145.19l.84-4.47c.07-.35.62-.28.55.08l-.84,4.47C74.82,145.62,74.27,145.55,74.34,145.19Z" style="fill:#010101"/><path d="M75.87,121.7c-.06-1.43-.12-2.86-.19-4.29,0-.36.54-.43.55-.07q.34,7.53.67,15.08c.06,1.43.13,2.86.19,4.29,0,.35-.54.42-.55.07Q76.19,129.24,75.87,121.7Z" style="fill:#010101"/><path d="M90.51,129.3,95,135.66c.21.3-.24.63-.44.34l-1.34-1.87.57.91c.19.31-.25.65-.44.34l-3.21-5.19a.28.28,0,0,1,0-.35l-.15-.2C89.86,129.35,90.3,129,90.51,129.3Z" style="fill:#010101"/><path d="M90.78,128.21l5.12,7.38c.21.3-.23.64-.44.34l-5.12-7.38C90.14,128.25,90.58,127.92,90.78,128.21Z" style="fill:#010101"/><path d="M89.9,125.32,94,130.5a.25.25,0,0,1,.21.12l.54.84c.19.3-.22.62-.44.34-1.62-2.05-3.23-4.1-4.85-6.14C89.23,125.37,89.68,125,89.9,125.32Z" style="fill:#010101"/><path d="M88.89,122.59l1.37,2c0,.06,0,.12,0,.17a.24.24,0,0,0,.26.23l3,4.39a.27.27,0,0,0,.08.33,21.5,21.5,0,0,1,4.14,4.38c.21.29.65-.05.44-.34a22.05,22.05,0,0,0-3.8-4.1l-3.62-5.26-.06-.55c.19.26.36.53.54.8l0,.18a.26.26,0,0,0,.25.23c.36.56.71,1.13,1,1.71.17.3.69.1.51-.22l-.44-.81-.09-.09a.24.24,0,0,0,.09-.22l-.18-2c.13.21.27.41.39.62s.62,0,.44-.34c-.29-.5-.61-1-.93-1.47,0-.32,0-.64-.08-1l2,2.76c.2.3.65,0,.44-.33l-.85-1.2a.2.2,0,0,0,0-.07l-.66-6.6c0-.34-.51-.29-.55,0a20.22,20.22,0,0,0-3.31-4.13c-.25-.25-.59.19-.34.43s.42.43.62.65a.24.24,0,0,0-.11.26l.23,1.55c-.14-.15-.28-.3-.43-.44s-.6.19-.34.44.52.53.78.8q0,.65,0,1.29l-.38-.53c-.21-.3-.65,0-.44.33l.84,1.19c0,.41,0,.82,0,1.23-.24-.28-.48-.55-.74-.82s-.69.08-.44.34c.43.44.84.9,1.24,1.36,0,.71.07,1.42.13,2.12l-.41-.51c-.23-.28-.67.06-.44.34s.65.8,1,1.22c0,.17,0,.34,0,.51l-.81-1.18C89.13,122,88.68,122.3,88.89,122.59ZM93,118.94c-.31-.56-.63-1.11-1-1.64,0-.6-.1-1.2-.16-1.8.34.51.66,1,1,1.58h0C92.83,117.71,92.89,118.33,93,118.94Zm-.75,1.2-.14-1.64a16.66,16.66,0,0,1,.87,1.61.29.29,0,0,0,.15.14l.13,1.32Zm-.81,1.62c.16.21.3.43.45.65l.21,2.41c-.08-.13-.16-.26-.25-.39C91.68,123.54,91.54,122.65,91.4,121.76Zm-.35-2.29.62.87.09,1c-.18-.25-.35-.5-.54-.74Zm-.47-3.12c.3.37.58.75.85,1.15l.15,1.74-.71-1C90.77,117.6,90.67,117,90.58,116.35Zm-.26-1.73c0-.36,0-.72,0-1.08a20.08,20.08,0,0,1,1.25,1.63.28.28,0,0,0-.34.3l.08.94c-.29-.38-.59-.75-.91-1.12Zm.3,8.1c-.07-.74-.12-1.48-.17-2.22l.25.32.39,2.56Z" style="fill:#010101"/><path d="M93.6,116.13c0-.36.53-.43.55-.07l.33,5.69c0,.35-.54.43-.56.07Z" style="fill:#010101"/><path d="M95,116.53l.38,3a.28.28,0,0,1-.56.07l-.37-3A.28.28,0,0,1,95,116.53Z" style="fill:#010101"/><path d="M96.24,117.14c.18,1,.36,2,.55,3,.06.36-.49.42-.56.07-.18-1-.36-2-.55-3C95.62,116.85,96.17,116.78,96.24,117.14Z" style="fill:#010101"/><path d="M96.77,117.55a.29.29,0,0,1,.31.24l.48,2.43a.28.28,0,0,1-.55.07l-.48-2.43A.29.29,0,0,1,96.77,117.55Z" style="fill:#010101"/><path d="M97.54,118a.29.29,0,0,1,.37.15l.6,1.84a.28.28,0,0,1-.15.36.3.3,0,0,1-.37-.15l-.6-1.84A.29.29,0,0,1,97.54,118Z" style="fill:#010101"/><path d="M98.67,119.55a.29.29,0,0,1,.15-.14.29.29,0,0,1,.37.15l.32,1.1a.33.33,0,0,1,0,.22.28.28,0,0,1-.15.15.29.29,0,0,1-.36-.16l-.33-1.1A.33.33,0,0,1,98.67,119.55Z" style="fill:#010101"/><path d="M99.91,120.55a.36.36,0,0,1,.15-.15.3.3,0,0,1,.37.15l.32,1.11a.26.26,0,0,1,0,.21.23.23,0,0,1-.15.15.27.27,0,0,1-.36-.15l-.33-1.1A.33.33,0,0,1,99.91,120.55Z" style="fill:#010101"/><path d="M101.22,121.48a.27.27,0,0,1,.18-.11.32.32,0,0,1,.21.06l1,.63a.31.31,0,0,1,.11.19.24.24,0,0,1-.06.2.29.29,0,0,1-.18.11.32.32,0,0,1-.21-.06l-1-.63a.31.31,0,0,1-.11-.19A.24.24,0,0,1,101.22,121.48Z" style="fill:#010101"/><path d="M94.44,132a32,32,0,0,1,4.25,4.23c.23.28-.21.61-.44.34a31.14,31.14,0,0,0-4.15-4.13C93.82,132.16,94.16,131.72,94.44,132Z" style="fill:#010101"/><path d="M94.12,127.54l6.91,6.4c.26.24-.08.69-.34.44L93.78,128C93.52,127.74,93.86,127.3,94.12,127.54Z" style="fill:#010101"/><path d="M103.13,127.16a.3.3,0,0,1,.5-.22c.11-.17.4-.23.48,0a36,36,0,0,1,1.35,9.45c0,.36-.54.43-.55.07a35,35,0,0,0-1.22-8.94l.2,11c0,.35-.55.42-.55.06Z" style="fill:#010101"/><path d="M105.34,129.56c0-.35.52-.42.55-.07l1,10.77c0,.36-.52.43-.55.07Z" style="fill:#010101"/><path d="M107,131.65a.28.28,0,0,1,.55-.07l1.25,11.3a.28.28,0,0,1-.56.07Z" style="fill:#010101"/><path d="M109,133.49l1.88,10.85c.07.35-.49.42-.55.06l-1.89-10.84C108.41,133.21,109,133.14,109,133.49Z" style="fill:#010101"/><path d="M110.54,135.6c0-.35.52-.42.55-.07q.54,5.86,1.07,11.71a.28.28,0,0,1-.56.07Q111.08,141.46,110.54,135.6Z" style="fill:#010101"/><path d="M112.76,138.19c0-.36.52-.43.55-.07.23,2.33.45,4.66.68,7,0,.36-.52.43-.55.07C113.21,142.84,113,140.52,112.76,138.19Z" style="fill:#010101"/><path d="M114.56,138.73c0-.35.52-.43.55-.07l.41,6.25c0,.36-.53.43-.55.07Z" style="fill:#010101"/><path d="M115.93,137.53c.08-.35.63-.27.56.08a9.71,9.71,0,0,0-.1,3.76c.06.35-.49.42-.55.07A10.28,10.28,0,0,1,115.93,137.53Z" style="fill:#010101"/><path d="M117.2,137.78a.27.27,0,0,1,0-.26c.12-.37.25-.74.37-1.11s.61-.16.53.15a17,17,0,0,0-.6,5.63c0,.36-.53.43-.56.07A17.71,17.71,0,0,1,117.2,137.78Z" style="fill:#010101"/><path d="M118.62,140.82a28.86,28.86,0,0,0,.42-7.42c0-.36.53-.43.56-.07a30,30,0,0,1-.42,7.57C119.11,141.25,118.56,141.17,118.62,140.82Z" style="fill:#010101"/><path d="M120.92,140.17a64.63,64.63,0,0,0,.17-9.23.26.26,0,0,1-.22-.3c0-.25.09-.49.13-.73a.28.28,0,0,1-.12-.32l.15-.5a.19.19,0,0,1,.12-.14,44.54,44.54,0,0,0,.36-9.23c0-.35.53-.42.55-.06a45.27,45.27,0,0,1-.47,10.07,66,66,0,0,1-.12,10.52A.28.28,0,0,1,120.92,140.17Z" style="fill:#010101"/><path d="M123.12,140.53a60.28,60.28,0,0,0,.14-12.81.28.28,0,0,1,.56-.07,61.13,61.13,0,0,1-.15,13C123.63,141,123.08,140.89,123.12,140.53Z" style="fill:#010101"/><path d="M125.1,140a79.21,79.21,0,0,0,.75-13.59c0-.36.54-.43.55-.07a79,79,0,0,1-.75,13.74A.28.28,0,0,1,125.1,140Z" style="fill:#010101"/><path d="M126.86,137.71A113,113,0,0,0,128.24,124c0-.36.57-.28.55.08a113,113,0,0,1-1.38,13.73A.28.28,0,0,1,126.86,137.71Z" style="fill:#010101"/><path d="M122.85,125.78a24,24,0,0,0,.07-6.61.28.28,0,0,1,.55-.07,24.3,24.3,0,0,1-.07,6.76A.28.28,0,0,1,122.85,125.78Z" style="fill:#010101"/><path d="M124.68,117a.29.29,0,0,1,.24-.31.35.35,0,0,1,.19.06,7.35,7.35,0,0,0-.7-4.42c-.16-.32.35-.53.51-.21a7.88,7.88,0,0,1,.65,5.23.28.28,0,0,1-.34.21c0,.3,0,.6,0,.9a.28.28,0,0,1-.25.31c-.13,0-.31-.08-.31-.24Z" style="fill:#010101"/><path d="M126,95.34a.26.26,0,0,1-.4-.12c-.55-1.33-1.09-2.67-1.64-4a.28.28,0,0,1,.52-.21l1.44,3.52a.29.29,0,0,1,.5.14A49.44,49.44,0,0,1,127.67,106a.31.31,0,0,1-.47.25l.17,1.5c0,.36-.52.43-.55.07-.39-3.52-.78-7-1.16-10.55a.28.28,0,0,1,.55-.07l.9,8.24A49.47,49.47,0,0,0,126,95.34Z" style="fill:#010101"/><path d="M97.9,146a.29.29,0,0,1-.13-.25l0-.73a.28.28,0,0,1,.55,0l.77,8.64c0,.35-.52.42-.55.06Z" style="fill:#010101"/><path d="M98.81,144.7a.28.28,0,0,1,.55-.07c.33,2.82.67,5.65,1,8.47a.28.28,0,0,1-.55.07C99.48,150.34,99.14,147.52,98.81,144.7Z" style="fill:#010101"/><path d="M100.52,143.91a.28.28,0,0,1,.55-.07l.87,8.49a.28.28,0,0,1-.55.07Z" style="fill:#010101"/><path d="M101.83,142.41c0-.35.52-.42.55-.07l.63,9.48c0,.35-.53.42-.56.06C102.24,148.73,102,145.57,101.83,142.41Z" style="fill:#010101"/><path d="M103,139.41c0-.36.52-.43.55-.07q.6,6.34.65,12.73c0,.36-.55.43-.56.07Q103.56,145.76,103,139.41Z" style="fill:#010101"/><path d="M104.73,139.76c0-.36.52-.43.55-.07l.78,11.37c0,.35-.52.43-.55.07Z" style="fill:#010101"/><path d="M106,152.22a7.11,7.11,0,0,1,1.48-1.66.25.25,0,0,1-.23-.23c-.32-3-.63-5.91-1-8.86a.28.28,0,0,1,.55-.07q.48,4.44,1,8.86v.06a7.5,7.5,0,0,1,3.11-1.36c.35-.06.42.49.07.55a6.92,6.92,0,0,0-4.54,3.06C106.27,152.87,105.84,152.52,106,152.22Z" style="fill:#010101"/><path d="M108.27,144.67a.28.28,0,0,1,.24-.31.27.27,0,0,1,.31.24c0,1.27.05,2.54.08,3.81a.29.29,0,0,1-.24.31.27.27,0,0,1-.31-.24C108.32,147.21,108.29,145.94,108.27,144.67Z" style="fill:#010101"/><path d="M120.36,142.21l.59,3.36c.06.36-.49.42-.55.07l-.59-3.36C119.75,141.92,120.3,141.85,120.36,142.21Z" style="fill:#010101"/><path d="M122.06,145.36a5.81,5.81,0,0,0,0-3.28.28.28,0,1,1,.51-.22,6.32,6.32,0,0,1,.06,3.58.29.29,0,0,1-.31.24A.28.28,0,0,1,122.06,145.36Z" style="fill:#010101"/><path d="M123.43,141.21c0-.36.56-.28.55.08,0,1.52-.09,3.05-.13,4.58,0,.35-.56.27-.55-.08Z" style="fill:#010101"/><path d="M124.85,141c0-.36.58-.28.55.08l-.32,5.19c0,.36-.57.28-.55-.08C124.64,144.48,124.75,142.75,124.85,141Z" style="fill:#010101"/><path d="M95.36,158.28l3.73-2.5c.3-.2.64.24.34.44l-3.73,2.5C95.4,158.92,95.06,158.48,95.36,158.28Z" style="fill:#010101"/><path d="M90.58,160.89l2.76-.75a.28.28,0,1,1,.22.51l-2.77.75a.28.28,0,0,1-.36-.15A.28.28,0,0,1,90.58,160.89Z" style="fill:#010101"/><path d="M100.67,155.45l1.32-.16a.28.28,0,0,1,.31.24.29.29,0,0,1-.24.31l-1.32.16a.28.28,0,0,1-.31-.24A.29.29,0,0,1,100.67,155.45Z" style="fill:#010101"/><path d="M52.16,113.23q1.85-.8,3.78-1.44h0a.34.34,0,0,1,.17,0,43.39,43.39,0,0,1,6.46-1.55c.35-.05.42.5.07.56-.56.08-1.11.19-1.66.3l0,0a.29.29,0,0,1-.05.39l-1.56,1.34a.28.28,0,0,1-.39-.05.29.29,0,0,1,0-.39l1.4-1.2c-.31.06-.61.14-.91.21a.24.24,0,0,1,0,.23L58,113.11a.27.27,0,0,1-.39,0,.28.28,0,0,1-.05-.39l1.22-1.21c-.23,0-.45.12-.68.19a.25.25,0,0,1-.1.26l-1.58,1.15a.27.27,0,0,1-.39,0,.28.28,0,0,1,.06-.39l.9-.66-.88.28-1.05.61a.29.29,0,0,1-.39,0,.14.14,0,0,1,0-.06l-.06,0a.28.28,0,0,1-.08.34l-.52.44a.31.31,0,0,1-.21,0,.29.29,0,0,1-.18-.1.27.27,0,0,1,0-.35c-.42.16-.83.33-1.24.51A.28.28,0,0,1,52.16,113.23Z" style="fill:#010101"/><path d="M47.32,116.35A8.21,8.21,0,0,1,51,114.23a.28.28,0,0,1,.21.51,7.67,7.67,0,0,0-3.43,2,.29.29,0,0,1-.39,0A.27.27,0,0,1,47.32,116.35Z" style="fill:#010101"/><path d="M92.31,108.77a20.24,20.24,0,0,1,10.41-6.36,19.19,19.19,0,0,1,3.53-.54c.35,0,.42.53.07.55a19.7,19.7,0,0,0-11.1,4.31,18.53,18.53,0,0,0-2.47,2.38C92.51,109.38,92.07,109,92.31,108.77Z" style="fill:#010101"/><path d="M116.06,103a18.38,18.38,0,0,1,5.22,4c.18.2,0,.45-.26.43a.34.34,0,0,1-.15.06.27.27,0,0,1-.27-.4,17.6,17.6,0,0,0-4.76-3.59C115.52,103.33,115.74,102.82,116.06,103Z" style="fill:#010101"/><path d="M114.62,108.93c0-.36.54-.43.55-.07.06,1.46.11,2.92.17,4.37,0,.36-.54.43-.56.07C114.73,111.84,114.67,110.39,114.62,108.93Z" style="fill:#010101"/><path d="M114,111.11a.28.28,0,0,1,.24-.31.29.29,0,0,1,.31.25c0,1,0,2,0,3a.3.3,0,0,1-.25.31.28.28,0,0,1-.31-.24C113.94,113.15,113.94,112.13,114,111.11Z" style="fill:#010101"/><path d="M112,114.66l.57-1.6a.28.28,0,0,1,.31-.16c.06-.16.11-.32.18-.47a.29.29,0,0,1,.37-.15.29.29,0,0,1,.15.37,3.49,3.49,0,0,0-.29,2,.29.29,0,0,1-.24.31.27.27,0,0,1-.31-.24c0-.13,0-.25,0-.38l-.19.55a.27.27,0,0,1-.37.14A.28.28,0,0,1,112,114.66Z" style="fill:#010101"/><path d="M117.57,107.8l.72,5.83a.28.28,0,0,1-.55.07l-.73-5.83A.28.28,0,0,1,117.57,107.8Z" style="fill:#010101"/><path d="M118.48,108.06c.36,1.48.71,3,1.07,4.45.09.35-.47.42-.55.07-.36-1.48-.72-3-1.07-4.45C117.84,107.78,118.4,107.71,118.48,108.06Z" style="fill:#010101"/><path d="M119.07,107.54c.41,1.28.83,2.57,1.25,3.85.11.34-.41.56-.52.22-.41-1.29-.83-2.57-1.25-3.86C118.44,107.41,119,107.2,119.07,107.54Z" style="fill:#010101"/><path d="M120.71,108.18l.69,4.11c.06.35-.49.42-.55.07-.23-1.37-.47-2.74-.7-4.12C120.09,107.89,120.65,107.82,120.71,108.18Z" style="fill:#010101"/><path d="M121.1,108.24a.28.28,0,0,1,.37.15l1,3.12a.29.29,0,0,1-.15.37.28.28,0,0,1-.36-.15l-1-3.13A.28.28,0,0,1,121.1,108.24Z" style="fill:#010101"/><path d="M122.21,108.1a.3.3,0,0,1,.37.15,5.81,5.81,0,0,1,.6,1.68v0c0-.07,0-.14,0-.21v-.06a.41.41,0,0,0,0-.11.76.76,0,0,0,0-.21v-.07l0-.09a1.67,1.67,0,0,0-.08-.2l-.05-.09v0l0,0-.12-.17-.07-.08,0,0h0a.27.27,0,0,1,0-.39.29.29,0,0,1,.39,0,2.22,2.22,0,0,1,.66,1.92.28.28,0,0,1-.32.24.33.33,0,0,1-.21-.17,6.44,6.44,0,0,1,.1.87.29.29,0,0,1-.24.31.27.27,0,0,1-.31-.24,5.37,5.37,0,0,0-.69-2.51A.28.28,0,0,1,122.21,108.1Z" style="fill:#010101"/><path d="M123.8,108.41a.29.29,0,0,1,.17-.14h0a.3.3,0,0,1,.3,0l.69.24a.26.26,0,0,1,.14.15.19.19,0,0,1,0,.08,46.79,46.79,0,0,0-.31-8.37.28.28,0,0,1,.55-.07,46.91,46.91,0,0,1,.27,9.4c0,.36-.58.28-.55-.08s0-.53,0-.8a.13.13,0,0,1,0,.06.28.28,0,0,1-.36.14l-.24-.08.16.54a.3.3,0,0,1,0,.21.31.31,0,0,1-.15.15.29.29,0,0,1-.37-.15l-.29-1a.47.47,0,0,1-.06-.09A.28.28,0,0,1,123.8,108.41Z" style="fill:#010101"/><path d="M107.56,114.7l1.27-.54a.28.28,0,0,1,.28,0h0l0,0a.25.25,0,0,1,.08.16.3.3,0,0,1,0,.21l0,0,1.41-1.1a.28.28,0,0,1,.39,0,0,0,0,0,0,0,0h0a.32.32,0,0,1,.1.18l.32-.77a.18.18,0,0,1,0-.07.25.25,0,0,1-.07-.23c.13-.91.27-1.82.4-2.73a.28.28,0,0,1,.55.08c-.13.91-.27,1.82-.4,2.73a.3.3,0,0,1-.07.15.28.28,0,0,1,.05.29l-.59,1.41a.28.28,0,0,1-.36.15.29.29,0,0,1-.15-.37l.13-.32-.57.74a.27.27,0,0,1-.39,0,.26.26,0,0,1-.08-.13l-.73.57a.28.28,0,0,1-.39,0,.22.22,0,0,1,0-.11l0,.06a.35.35,0,0,1-.19.1.27.27,0,0,1-.31-.24.43.43,0,0,1,0,0l-.41.17a.28.28,0,1,1-.22-.51Z" style="fill:#010101"/><path d="M106.22,115.1l.7-.47a.34.34,0,0,1,.21-.06.27.27,0,0,1,.18.11.27.27,0,0,1,0,.39l-.7.47a.28.28,0,0,1-.21,0,.27.27,0,0,1-.18-.1A.27.27,0,0,1,106.22,115.1Z" style="fill:#010101"/><path d="M104.79,115a.26.26,0,0,1,.15-.14l.89-.5a.26.26,0,0,1,.21,0,.28.28,0,0,1,.15.15.28.28,0,0,1,0,.22.29.29,0,0,1-.15.14l-.89.5a.33.33,0,0,1-.22,0,.29.29,0,0,1-.14-.15A.24.24,0,0,1,104.79,115Z" style="fill:#010101"/><path d="M100,114.92a5,5,0,0,1,3.69,0,.26.26,0,0,1,.14.13l.47-.32a.3.3,0,0,1,.21,0,.29.29,0,0,1,.18.11.28.28,0,0,1-.05.39l-.71.46a.26.26,0,0,1-.21.06.29.29,0,0,1-.18-.11.28.28,0,0,1,0-.16h0a4.42,4.42,0,0,0-3.26,0C99.84,115.56,99.63,115.05,100,114.92Z" style="fill:#010101"/><path d="M100.06,110.53a.28.28,0,0,1,.39,0,2.17,2.17,0,0,0,2,.06.28.28,0,0,1,.36.15.27.27,0,0,1-.15.36,2.7,2.7,0,0,1-2.56-.13A.28.28,0,0,1,100.06,110.53Z" style="fill:#010101"/><path d="M107.29,110.42l3.43-.07a.29.29,0,0,1,.31.24.27.27,0,0,1-.24.31l-3.43.07a.28.28,0,0,1-.31-.24A.27.27,0,0,1,107.29,110.42Z" style="fill:#010101"/><path d="M117.14,105.09a.29.29,0,0,1,.31.25l.14,1.12a.28.28,0,1,1-.55.07l-.14-1.13A.29.29,0,0,1,117.14,105.09Z" style="fill:#010101"/><path d="M96.61,110.84a14.54,14.54,0,0,1,5.62-5.81,14.27,14.27,0,0,1,7.33-1.87l.14,0a1.19,1.19,0,0,1,.32,0l.58,0a14.41,14.41,0,0,1,4.9,1.34.28.28,0,0,1-.2.52.21.21,0,0,1,0,.11.08.08,0,0,0,0,0,.25.25,0,0,1,.11.41l-.28.31a.28.28,0,0,1,.4.21l.18,1.43a.28.28,0,0,1,.34.23l1,4.84c.07.35-.48.42-.55.07-.27-1.35-.53-2.69-.8-4a.27.27,0,0,1-.4-.21l-.28-2.25a.23.23,0,0,1,0-.12l-.47.52a.29.29,0,0,1,.14.28l-.24,2.71a.27.27,0,0,1-.31.23.28.28,0,0,1-.24-.32l.21-2.4-1,1.17a.27.27,0,0,1,.3.3c-.08.84-.17,1.68-.26,2.52,0,.35-.59.27-.55-.08.09-.82.17-1.64.26-2.46l-.15.17c-.24.27-.68-.07-.44-.34l1.31-1.48c-.27.21-.56.42-.85.61l0,0a3.07,3.07,0,0,1-.17.31.83.83,0,0,0-.08.12,3.71,3.71,0,0,1-.23.32l-.06.07a4.89,4.89,0,0,1-.45.46l-.2.17-.19.14-.3.19-.16.1c-.15.07-.31.15-.47.21l0,0h-.07a.27.27,0,0,1-.13.1,1.21,1.21,0,0,1-.37.07l-.16.13a.28.28,0,0,1-.4-.08H109a.29.29,0,0,1-.28-.4,1.61,1.61,0,0,1-.35-.43v0c0,.35-.52.42-.56.07a10,10,0,0,1,.92-5.23.29.29,0,0,1,.52,0l0-.26a13.87,13.87,0,0,0-2.4.19,13.7,13.7,0,0,0-7.08,3.58,13.27,13.27,0,0,0-2.2,2.7.21.21,0,0,1,.12,0l.14.1h0l.06,0,.07,0s0,0,0,0a.27.27,0,0,1,.31-.23l1.36.22a.27.27,0,0,1,.24.31.29.29,0,0,1-.32.24l-.13,0a.37.37,0,0,1-.15,0,2.57,2.57,0,0,0-.39,0l-1.31.56a.28.28,0,0,1-.28-.48,2.9,2.9,0,0,1,.29-.19,1.53,1.53,0,0,1-.25-.16l0,0-.25.42C97,111.38,96.44,111.16,96.61,110.84Z" style="fill:#010101"/><path d="M48.49,120.4a.28.28,0,0,0,.31.24l1.32-.17a.24.24,0,0,0,.19-.13.34.34,0,0,0,.23.09,1.18,1.18,0,0,1,.92.36.28.28,0,0,0,.34,0l3.65-3.11c.27-.24-.07-.68-.34-.45l-1,.88a.27.27,0,0,0-.2,0l-.69.24a.22.22,0,0,0-.16.19l-.92.47v0a.19.19,0,0,0-.08-.15l0,0-.43-.33a.3.3,0,0,0-.2-.06.29.29,0,0,0-.19.11.15.15,0,0,0,0,.09.14.14,0,0,0,0,.11.17.17,0,0,0,0,.1l-.5.06a.29.29,0,0,0-.24.31.28.28,0,0,0,.31.24l.7-.08-1.05.53a.28.28,0,0,0-.12.12.29.29,0,0,0-.23-.09l-1.32.17A.29.29,0,0,0,48.49,120.4Zm2.84-.36,1.21-.62-.92.79A1.22,1.22,0,0,0,51.33,120Z" style="fill:#010101"/><path d="M52.74,120.77A17.8,17.8,0,0,0,57.09,122,18.54,18.54,0,0,0,72,117.52c.26-.24-.07-.68-.34-.44a15.68,15.68,0,0,1-1.35,1.09,4.11,4.11,0,0,0,.35-.89,2.4,2.4,0,0,0,.12-.38,1.16,1.16,0,0,0,.18-.37,2.48,2.48,0,0,0,0-.27,4.1,4.1,0,0,0,.26-.41c.12-.2-.11-.39-.29-.38h-.12a1,1,0,0,0-.12-.54l1,.88a.28.28,0,0,0,.34-.44L70.52,114a.27.27,0,1,0-.34.43v0a1.14,1.14,0,0,0-.32-.07.29.29,0,0,0-.18-.21.28.28,0,0,0-.18-.51l-2.07.25a.28.28,0,0,0-.21.38,1.05,1.05,0,0,0-1.11.44c-.05.08-.09.17-.13.25a1.28,1.28,0,0,0-.15-.25s0,0,0-.05l.64-.28a.28.28,0,0,0-.21-.52l-1.75.78a.23.23,0,0,0-.18,0,19.36,19.36,0,0,0-6.86,2c-.32.16-.11.68.21.51a19,19,0,0,1,6.72-2,.27.27,0,0,0,.26,0l.69-.31a.43.43,0,0,1,0,.07.27.27,0,0,0-.23.3v.11a4.65,4.65,0,0,0-.28.79.27.27,0,0,0-.49,0,4.39,4.39,0,0,0,.81,4.44.25.25,0,0,0,.17.08A17.86,17.86,0,0,1,53,120.26.28.28,0,0,0,52.74,120.77Zm13.75-.49a6.68,6.68,0,0,1,0-1.34.17.17,0,0,0,.12,0,2.32,2.32,0,0,0,.14.9.28.28,0,0,0,.36.16l.18-.1s0,0,0,0Zm-1,.37a.23.23,0,0,0,0-.34,3.89,3.89,0,0,1-.93-3.13,1.23,1.23,0,0,1,0,.19.28.28,0,0,0,.54.15l.17-.36s0,0,0,0l.08.57a.27.27,0,0,0-.29.37l.06.16a.23.23,0,0,0-.09.23l.38,1.48a.29.29,0,0,0,.31.24.31.31,0,0,0,.12-.05l.11.27Z" style="fill:#010101"/><path d="M63.38,112.05l1.32-1.79a.29.29,0,0,1,.33-.08l.13.1,6.22,1.86c.34.1.12.61-.22.51L65.62,111a.51.51,0,0,1,0,.13h0a.3.3,0,0,1,0,.21,1.85,1.85,0,0,1-1.17,1.22.29.29,0,0,1-.36-.16.28.28,0,0,1,.15-.36l.17-.07.08,0,0,0a.58.58,0,0,0,.15-.11l.07-.06,0,0h0l.12-.15,0-.06,0-.05a2.44,2.44,0,0,0,.1-.24v-.07a.64.64,0,0,1,0-.07.85.85,0,0,0-.06-.17s0-.06,0-.06h0l-1.15,1.55a.28.28,0,0,1-.44-.34Z" style="fill:#010101"/><path d="M62.57,112l.94-1.64a.29.29,0,0,1,.37-.15.28.28,0,0,1,.14.37c-.31.55-.62,1.1-.94,1.64a.28.28,0,1,1-.51-.22Z" style="fill:#010101"/><path d="M61.15,112.52,62.49,111a.28.28,0,0,1,.39-.05.3.3,0,0,1,0,.4l-1.34,1.5a.28.28,0,1,1-.44-.34Z" style="fill:#010101"/><path d="M60.35,112.23l1-1.08a.32.32,0,0,1,.19-.1.28.28,0,0,1,.2,0,.29.29,0,0,1,0,.4l-1,1.08a.32.32,0,0,1-.19.1.25.25,0,0,1-.2-.06A.27.27,0,0,1,60.35,112.23Z" style="fill:#010101"/><path d="M63.76,126.19a4.35,4.35,0,0,0,.59-2.61c0-.35.52-.42.55-.07a4.26,4.26,0,0,1,0,1,2.25,2.25,0,0,0,.34-1.62.28.28,0,1,1,.55-.07,2.86,2.86,0,0,1-.24,1.68l1-.92a.26.26,0,0,1-.21-.3c.08-.32.16-.63.25-1a.45.45,0,0,1,0-.11l.16-.53a.27.27,0,0,1,.33-.15.27.27,0,0,1,.2.3l-.36,1.37a41.92,41.92,0,0,0,3.51-4,.28.28,0,0,1,.44.34,42.3,42.3,0,0,1-6.47,6.77l0,0a.59.59,0,0,1,0,.08.27.27,0,0,1-.36.14A.27.27,0,0,1,63.76,126.19Z" style="fill:#010101"/><path d="M62.86,126.33l.61-1.23a.28.28,0,0,1,.52.22l-.62,1.23a.27.27,0,0,1-.36.14A.28.28,0,0,1,62.86,126.33Z" style="fill:#010101"/><path d="M123.7,85a31.67,31.67,0,0,1,2,6.89c.06.35-.49.42-.55.07a31.7,31.7,0,0,0-2-6.75A.28.28,0,0,1,123.7,85Z" style="fill:#010101"/><path d="M123,88.72l1.2,3.48c.11.34-.4.55-.52.21-.39-1.16-.79-2.32-1.19-3.48C122.38,88.6,122.9,88.38,123,88.72Z" style="fill:#010101"/><path d="M121.09,88.58l1,2.35c.15.33-.37.54-.51.21l-1.06-2.35C120.42,88.46,120.94,88.25,121.09,88.58Z" style="fill:#010101"/><path d="M118.57,77.43l3.51,8.15a.28.28,0,0,1-.51.21c-1.17-2.71-2.35-5.43-3.52-8.15A.28.28,0,0,1,118.57,77.43Z" style="fill:#010101"/><path d="M117,79q1.18,2.72,2.39,5.43a.28.28,0,0,1-.51.22l-2.4-5.43A.28.28,0,0,1,117,79Z" style="fill:#010101"/><path d="M115.26,80.14,116.73,84c.13.34-.38.55-.51.22-.49-1.28-1-2.55-1.48-3.82C114.61,80,115.13,79.8,115.26,80.14Z" style="fill:#010101"/><path d="M113,69.64,116.34,75c.18.3-.26.64-.45.34q-1.65-2.67-3.32-5.32C112.38,69.67,112.82,69.33,113,69.64Z" style="fill:#010101"/><path d="M112.18,71.92a.28.28,0,0,1,.36.15c.66,1.19,1.32,2.38,2,3.58a.27.27,0,0,1-.15.36.28.28,0,0,1-.36-.15c-.66-1.19-1.32-2.38-2-3.57A.28.28,0,0,1,112.18,71.92Z" style="fill:#010101"/><path d="M71.35,154.78a.28.28,0,0,1-.14-.28,6.31,6.31,0,0,1,3.14-4,.28.28,0,0,1,.36.16.28.28,0,0,1-.15.36,5.66,5.66,0,0,0-2.8,3.59.31.31,0,0,1-.15.2,8.44,8.44,0,0,1,5.61,2.84c.23.27-.21.6-.45.34a7.87,7.87,0,0,0-5.38-2.65C71.08,155.29,71.1,154.87,71.35,154.78Z" style="fill:#010101"/><path d="M71,156.24l2.09-.07a.3.3,0,0,1,.31.24.27.27,0,0,1-.24.31l-2.1.08a.3.3,0,0,1-.31-.25A.3.3,0,0,1,71,156.24Z" style="fill:#010101"/><path d="M68.45,154.86a.3.3,0,0,1,.37-.15l1.2.42a.26.26,0,0,1,.14.36.28.28,0,0,1-.36.15l-1.2-.41A.29.29,0,0,1,68.45,154.86Z" style="fill:#010101"/><path d="M62.41,151.81a4,4,0,0,1,2.65.29c.33.15.11.67-.22.51a3.49,3.49,0,0,0-2.36-.25.27.27,0,0,1-.31-.24A.29.29,0,0,1,62.41,151.81Z" style="fill:#010101"/><path d="M44.83,142.18l.34-.35c-.08-.31-.15-.63-.21-.94s.49-.42.55-.07c0,.17.09.35.13.52L49,137.8c.24-.26.68.08.43.34L45.79,142a17.15,17.15,0,0,0,1.7,4.1l3.27-4.63c.2-.29.64.05.44.34l-3.39,4.8a17,17,0,0,0,3,3.62l6.82-8.74a.28.28,0,0,1,.44.34l-6.84,8.77a16.17,16.17,0,0,0,1.82,1.35,13.89,13.89,0,0,1,1.35-.52l8.06-10c.23-.28.67.07.44.35l-7.55,9.35a14.83,14.83,0,0,1,5.39-.44c.36,0,.28.59-.08.56a14.19,14.19,0,0,0-5.93.64.27.27,0,0,1-.22.07c-.4.14-.8.29-1.19.46a.32.32,0,0,1-.29.14,13.63,13.63,0,0,0-1.46.78c-.3.19-.64-.25-.34-.44a13.56,13.56,0,0,1,1.24-.69A15.42,15.42,0,0,1,50.86,151a.3.3,0,0,1-.31-.25,18.33,18.33,0,0,1-3.11-3.64.28.28,0,0,1-.33-.43l0,0a17.07,17.07,0,0,1-1.31-2.64c-.18-.48-.35-1-.49-1.48l-.07.07C45,142.78,44.59,142.44,44.83,142.18Z" style="fill:#010101"/><path d="M38.28,110.31a.28.28,0,0,1,.55-.07l.29,1.4a.21.21,0,0,1-.09.24q.8,6.75,1.6,13.51a.28.28,0,0,1-.55.06Z" style="fill:#010101"/><path d="M41.05,114.83c0-.35.52-.42.55-.06l1.08,11.89c0,.36-.52.43-.55.07Z" style="fill:#010101"/><path d="M67.84,148.89l4.32-3a.26.26,0,0,1,.47,0,.24.24,0,0,1,0,.37l-4.41,3C67.88,149.54,67.54,149.1,67.84,148.89Z" style="fill:#010101"/><path d="M67.37,148.35l2.56-2.42a.27.27,0,0,1,.39,0,.28.28,0,0,1,0,.39l-2.56,2.42a.27.27,0,0,1-.39,0A.28.28,0,0,1,67.37,148.35Z" style="fill:#010101"/><path d="M67.4,147.18l1-.88a.27.27,0,0,1,.39,0,.28.28,0,0,1,0,.39l-1,.88a.27.27,0,0,1-.39-.05A.29.29,0,0,1,67.4,147.18Z" style="fill:#010101"/><path d="M38.29,128.88a20.65,20.65,0,0,0,7.15,9.7c.29.22,0,.65-.34.44a21.08,21.08,0,0,1-7.32-9.93C37.66,128.76,38.18,128.54,38.29,128.88Z" style="fill:#010101"/><path d="M42.34,129.37l.28,2.26a.28.28,0,0,1-.56.07l-.28-2.26A.28.28,0,0,1,42.34,129.37Z" style="fill:#010101"/><path d="M39.58,126.56h.07l-.07-.14a.24.24,0,0,1,.06-.29.26.26,0,0,1,.1-.28.28.28,0,0,1,.39,0l1.37,1.93a.28.28,0,0,1,0,.39.29.29,0,0,1-.32,0l.13.26a.28.28,0,0,1-.15.36.15.15,0,0,1-.09,0l.19.37a.29.29,0,0,1-.16.37.29.29,0,0,1-.36-.15l-1.26-2.52A.29.29,0,0,1,39.58,126.56Z" style="fill:#010101"/><path d="M45.9,162a128.39,128.39,0,0,0,11.57-7.28c.3-.21.64.24.34.44a127.55,127.55,0,0,1-11.7,7.35C45.8,162.7,45.59,162.19,45.9,162Z" style="fill:#010101"/><path d="M52.73,168.3c.15-.91.29-1.82.43-2.73a.28.28,0,0,1,.55.08l-.27,1.72.9-.76a10.46,10.46,0,0,0,.28-3.05c0-.36.53-.43.55-.07a11.13,11.13,0,0,1-.16,2.58l.29-.23a.28.28,0,0,1,0-.22,10.37,10.37,0,0,0,.62-3.94c0-.36.54-.43.55-.07a11.08,11.08,0,0,1-.49,3.71l.51-.4,1-3.37a.27.27,0,0,1,.36-.15.28.28,0,0,1,.15.36l-.78,2.59.42-.31c.35-1.08.7-2.16,1.06-3.23a.26.26,0,0,1,.36-.15.29.29,0,0,1,.15.37c-.27.82-.54,1.65-.82,2.48l.71-.49a.31.31,0,0,1,0-.19c.51-1.41,1-2.82,1.51-4.23.12-.33.64-.11.52.22-.45,1.25-.89,2.5-1.34,3.74q1.83-1.2,3.75-2.27c1.08-.6,2.18-1.16,3.29-1.69.33-.16.54.36.22.51a58.82,58.82,0,0,0-8.93,5.27v0a.27.27,0,0,1-.26.17c-.3.21-.59.44-.89.66l-.15.5a.28.28,0,0,1-.37.15.25.25,0,0,1-.14-.16l-.08.06-1.38,1.11c-.09.34-.19.68-.31,1s-.63.12-.51-.22a.5.5,0,0,0,0-.13l-.64.55a.27.27,0,0,1-.1.06l0,.21A.28.28,0,0,1,52.73,168.3Z" style="fill:#010101"/><path d="M53.66,171.87q2.85,11.73,5.71,23.45.81,3.3,1.61,6.6c.09.35-.47.42-.55.07q-2.85-11.72-5.71-23.45-.81-3.3-1.61-6.6C53,171.59,53.58,171.53,53.66,171.87Z" style="fill:#010101"/><path d="M67.82,174.81a.28.28,0,0,1,.55.08A14.3,14.3,0,0,0,69.83,184c.17.32-.35.53-.52.21A14.76,14.76,0,0,1,67.82,174.81Z" style="fill:#010101"/><path d="M69.15,185.12a21.44,21.44,0,0,0,7.29-1c.34-.11.13-.62-.21-.52l-.41.13.93-4.82a.16.16,0,0,0,0-.07l.06.07c.22.27.67-.06.44-.34l-1.91-2.35.07-.26c.08-.29-.27-.38-.46-.22l-.15-.2.06-.23c.08-.28-.26-.38-.44-.23l-2.37-2.92a.26.26,0,0,0-.27-.1,14,14,0,0,1,4.53-2.71c.34-.12.12-.63-.21-.51a14.24,14.24,0,0,0-5.75,3.86c-.24.26.2.6.44.34a9.32,9.32,0,0,1,.77-.77.23.23,0,0,0,0,.22l.53.66a.21.21,0,0,0-.23.17c-.81,2.71-1.61,5.42-2.42,8.13-.1.34.41.56.52.22q1.2-4.07,2.41-8.13v0l1.77,2.17-2.27,8.06c-.09.34.46.42.55.08.72-2.54,1.43-5.07,2.14-7.61l.13.15q-1,3.91-2.09,7.82a.22.22,0,0,0,0,.23,20.14,20.14,0,0,1-3.47.19C68.88,184.56,68.79,185.11,69.15,185.12Zm4-.81a.3.3,0,0,0,0-.08q1-3.67,2-7.37l.1.13a.22.22,0,0,0-.07.16A20.64,20.64,0,0,1,74.12,183c-.11.34.4.56.51.22a21,21,0,0,0,1.1-5.65l.84,1a.24.24,0,0,0-.31.09l-.35.54a.3.3,0,0,0,.13.42l-.78,4a.22.22,0,0,0,.06.21A19.74,19.74,0,0,1,73.16,184.31Z" style="fill:#010101"/><path d="M62.49,176.45a14.27,14.27,0,0,0,6,7.15c.31.18,0,.62-.34.44A14.77,14.77,0,0,1,62,176.66C61.85,176.32,62.36,176.11,62.49,176.45Z" style="fill:#010101"/><path d="M42.13,160.72a54.85,54.85,0,0,1,6.93-6.08.28.28,0,0,1,.34.45,53.11,53.11,0,0,0-6.83,6C42.32,161.31,41.88,161,42.13,160.72Z" style="fill:#010101"/><path d="M40.91,171.61c-.14-1.4-.28-2.8-.41-4.2a.27.27,0,0,1,.27-.3.37.37,0,0,1-.05-.11,6.89,6.89,0,0,1,0-3.13.27.27,0,0,1,.31-.23.29.29,0,0,1,.24.31,6.52,6.52,0,0,0,0,3,.28.28,0,0,1-.25.31h0a.29.29,0,0,1,0,.1L42.47,182l.41,4.21a.28.28,0,0,1-.55.06Q41.63,178.95,40.91,171.61Z" style="fill:#010101"/><path d="M42.23,189.92c0-.36.53-.43.55-.07A8.78,8.78,0,0,0,47,196.79a.25.25,0,0,1,0,.43.26.26,0,0,1-.23.25.28.28,0,0,1-.29-.37A9.28,9.28,0,0,1,42.23,189.92Z" style="fill:#010101"/><path d="M50.48,200.76a106,106,0,0,1,10.39,10.16,106.11,106.11,0,0,1,8.9,11.46q2.28,3.39,4.29,6.94c.13.23-.17.42-.37.36l-.61-.19c-.31-.1-.16-.53.13-.52a105.07,105.07,0,0,0-7.6-11.44,106.77,106.77,0,0,0-9.52-10.86q-2.88-2.85-6-5.47C49.87,201,50.21,200.53,50.48,200.76Z" style="fill:#010101"/><path d="M74.78,190.32a29,29,0,0,0,1.57-3.22.23.23,0,0,1-.14,0,.28.28,0,0,1-.15-.37,2.38,2.38,0,0,0,.11-1.9.28.28,0,0,1,.51-.21,3,3,0,0,1,.19,1.15c.24-.65.46-1.32.65-2a.24.24,0,0,1,.21-.17.19.19,0,0,1,0-.08,14.89,14.89,0,0,0-.22-5.24c-.08-.35.47-.42.55-.07a15.27,15.27,0,0,1,.22,5.39.25.25,0,0,1-.23.23.14.14,0,0,1,0,.09,4.53,4.53,0,0,1-.64,2.15.19.19,0,0,1-.1.1,30.78,30.78,0,0,1-2,4.36C75.12,190.84,74.61,190.63,74.78,190.32Z" style="fill:#010101"/><path d="M70.53,188.21l.72,1.18s0,0,0-.06a.27.27,0,0,1,.39,0,2,2,0,0,0,2.06.54.29.29,0,0,1,.37.15.28.28,0,0,1-.15.36,2.54,2.54,0,0,1-2.3-.34q1.22,2,2.42,4c.19.31-.26.65-.44.34l-3.56-5.88C69.91,188.24,70.35,187.9,70.53,188.21Z" style="fill:#010101"/><path d="M89.35,163.1l0-.06a.28.28,0,0,1,.11-.08l.18-.06a.21.21,0,0,1,.11,0,.15.15,0,0,1,.11,0,.35.35,0,0,1,.14.14l0,.08a.23.23,0,0,1,0,.14l0,.06a.27.27,0,0,1-.12.09l-.18.05a.2.2,0,0,1-.11,0,.27.27,0,0,1-.19-.08.15.15,0,0,1-.06-.09l0-.07A.39.39,0,0,1,89.35,163.1Z" style="fill:#010101"/><path d="M81.72,168.08a25.19,25.19,0,0,0,6.81-5.87c.23-.28.67.06.44.34a25.69,25.69,0,0,1-6.91,6C81.75,168.71,81.41,168.26,81.72,168.08Z" style="fill:#010101"/><path d="M80.39,170.12c.19-.3.62,0,.44.35a9.65,9.65,0,0,0-1.45,5.28c0,.36-.54.43-.55.07A10.28,10.28,0,0,1,80.39,170.12Z" style="fill:#010101"/><path d="M91.67,162.29a9.27,9.27,0,0,1,5,2.54c.26.25-.08.69-.34.44a8.7,8.7,0,0,0-4.74-2.43A.28.28,0,0,1,91.67,162.29Z" style="fill:#010101"/><path d="M96.57,167.11l0-.05,0,0v0s0,0,0-.05h0v0a.17.17,0,0,1,0-.07c0-.05,0-.09,0-.14l0-.05,0,0a.18.18,0,0,0,0-.07l0,0a.28.28,0,1,1,.34-.44,1,1,0,0,1,.14,1.35.28.28,0,0,1-.39.05A.27.27,0,0,1,96.57,167.11Z" style="fill:#010101"/><path d="M90.68,180.11a63,63,0,0,0,4.07-10.63c.09-.34.64-.27.55.08a62.89,62.89,0,0,1-4.11,10.77C91,180.65,90.52,180.44,90.68,180.11Z" style="fill:#010101"/><path d="M89.72,181.73c0-.36.55-.43.55-.07s0,.87,0,1.3l0,0,.05.05a.31.31,0,0,1,.06.13l0,.19a.21.21,0,0,1,0,.11.3.3,0,0,1,0,.1l-.07.05a31.4,31.4,0,0,0,2.56,10.25c.15.32-.37.54-.51.21A31.44,31.44,0,0,1,89.72,181.73Z" style="fill:#010101"/><path d="M94.14,196a26.87,26.87,0,0,1,1.57,6.37.28.28,0,0,1-.55.07,26.65,26.65,0,0,0-1.53-6.23C93.5,195.87,94,195.66,94.14,196Z" style="fill:#010101"/><path d="M74.74,187.22a.28.28,0,0,1,.24-.31.3.3,0,0,1,.25.1,4.35,4.35,0,0,0-.18-1.86.29.29,0,0,1,.16-.36.28.28,0,0,1,.36.15,5.17,5.17,0,0,1,0,3.09.28.28,0,0,1-.3.16v.49a.28.28,0,1,1-.55.06Z" style="fill:#010101"/><path d="M74,189c0-.45,0-.89,0-1.34a.28.28,0,0,1,.32-.23.27.27,0,0,1,.23.31l0,1.34a.28.28,0,0,1-.32.24A.3.3,0,0,1,74,189Z" style="fill:#010101"/><path d="M73,189.66l.3-2.14a.28.28,0,0,1,.55.08l-.29,2.14A.28.28,0,0,1,73,189.66Z" style="fill:#010101"/><path d="M72.51,189.14l.07-1a.28.28,0,0,1,.32-.23.29.29,0,0,1,.23.31l-.07,1a.28.28,0,0,1-.32.23A.29.29,0,0,1,72.51,189.14Z" style="fill:#010101"/><path d="M64.23,174.11l2.26-.28a.28.28,0,0,1,.06.55l-2.25.28A.28.28,0,0,1,64.23,174.11Z" style="fill:#010101"/><path d="M61.94,166.18a.29.29,0,0,1,.31.24l.09.4a.28.28,0,0,1,.51.1l.28,2.26a.25.25,0,0,1-.15.28l.11.48a.27.27,0,0,1-.24.31.29.29,0,0,1-.31-.24l-.84-3.52A.28.28,0,0,1,61.94,166.18Z" style="fill:#010101"/><path d="M60.52,166.26c0-.35.53-.43.55-.07.1,1.26.2,2.53.29,3.79,0,.35-.52.42-.55.07C60.71,168.78,60.62,167.52,60.52,166.26Z" style="fill:#010101"/><path d="M59.67,170.12a6.67,6.67,0,0,0-.07-3.29.28.28,0,0,1,.52-.21,7.24,7.24,0,0,1,.1,3.58C60.15,170.55,59.59,170.47,59.67,170.12Z" style="fill:#010101"/><path d="M58.56,167.65a.29.29,0,0,1,.24-.31.28.28,0,0,1,.32.24c0,.89.09,1.77.13,2.66a.28.28,0,0,1-.24.31.29.29,0,0,1-.31-.24C58.66,169.42,58.61,168.53,58.56,167.65Z" style="fill:#010101"/><path d="M57.58,168.25a.29.29,0,0,1,.31.25l.19,1.5a.27.27,0,0,1-.24.31.29.29,0,0,1-.31-.24l-.19-1.51A.29.29,0,0,1,57.58,168.25Z" style="fill:#010101"/><path d="M56.48,169.06A.28.28,0,0,1,57,169c0,.57,0,1.14,0,1.71a.28.28,0,1,1-.55.07C56.51,170.2,56.49,169.63,56.48,169.06Z" style="fill:#010101"/><path d="M54.8,171.1l.12-2.12a.28.28,0,0,1,.55.08l-.12,2.12a.28.28,0,0,1-.55-.08Z" style="fill:#010101"/><path d="M54.15,169.91a.28.28,0,0,1,.5.14l.07.56a.28.28,0,0,1-.06.2.29.29,0,0,1-.18.11.28.28,0,0,1-.31-.24l-.07-.57A.28.28,0,0,1,54.15,169.91Z" style="fill:#010101"/><path d="M79.75,162.13l4,2.93a.29.29,0,0,0,.44-.16.14.14,0,0,0,.08-.05l.37-.36a9.21,9.21,0,0,0-.31.93c-.06.24.27.39.45.26a6.41,6.41,0,0,0,2.14-2.94.29.29,0,0,0-.19-.37.23.23,0,0,0-.06-.19.28.28,0,0,0-.39-.06l-1.15,1.13.55-1.08a.28.28,0,0,0-.42-.33l-1,.81.23-.25c.22-.19,0-.64-.27-.47l-.63.34.08-.44,5.47-.85a.28.28,0,0,0-.07-.55l-6.37,1a.27.27,0,0,0-.23.33.24.24,0,0,0,.3.25l.31-.06-.15.81c0,.2.2.4.38.3l.13-.07a2.58,2.58,0,0,0-.16.56.28.28,0,0,0,.44.26l.87-.7-.7,1.36-3.79-2.77C79.81,161.48,79.46,161.92,79.75,162.13Zm5.55,2.3a5.72,5.72,0,0,1,.89-1.38A5.92,5.92,0,0,1,85.3,164.43Z" style="fill:#010101"/><path d="M92.7,161.9c0,.31.43.3.53.06a.29.29,0,0,0,.41,0l1-1-.08.38a.28.28,0,0,0,.15.28,5.09,5.09,0,0,0-.19.77.28.28,0,0,0,.44.26,17.79,17.79,0,0,0,1.44-1.44,8,8,0,0,0-.22,1.19.28.28,0,0,0,.31.31c-.19.4-.36.8-.52,1.2-.1.24.21.53.42.33a12.06,12.06,0,0,0,3.41-5.52.34.34,0,0,0,0-.1l.74-.94.66,1a.27.27,0,0,0,.39.05.28.28,0,0,0,.06-.39l-.32-.47a6.29,6.29,0,0,0,1.82.44.28.28,0,0,0,.08-.55.77.77,0,0,1-.57-.64l.12.08a.28.28,0,0,0,.39,0,.27.27,0,0,0-.05-.39l-.52-.36a.29.29,0,0,0-.43.11,1.3,1.3,0,0,0,.06,1.06,5,5,0,0,1-1.23-.48l.43-.55c.23-.29-.2-.59-.44-.34A23.21,23.21,0,0,0,98,160l-.4.46a.22.22,0,0,0-.06.18l-.61.78a7.21,7.21,0,0,1,.58-1.57c.35-.49.68-1,1-1.5v0h0l0-.06c.16-.29-.28-.51-.48-.28a9.3,9.3,0,0,0-.59.81.25.25,0,0,0-.34-.12,5.27,5.27,0,0,0-1.81,1.7l0-.2c0-.3-.32-.39-.5-.21l-1.45,1.46A.52.52,0,0,0,92.7,161.9Zm4.46.7c.35-.71.73-1.4,1.15-2.08l.46-.58A11.79,11.79,0,0,1,97.16,162.6Z" style="fill:#010101"/><path d="M74,172.18l1-.7a.29.29,0,0,1,.42.12,2.1,2.1,0,0,1,.5-.75c.2-.2.56.09.43.33l-.49.91,0,.18c.33-.49.65-1,1-1.48a.27.27,0,0,1,.39,0,.13.13,0,0,1,.06.07l0-.1a.28.28,0,0,1,.52.22v0s.07,0,.09,0l.63-1.19c.16-.32.68-.1.51.22l-1,2a8.69,8.69,0,0,1-.64,3,.28.28,0,0,1-.51-.22,8.63,8.63,0,0,0,.4-1.34l-.67,1.29c-.16.29-.61.12-.53-.16a.31.31,0,0,1-.27-.31,6.26,6.26,0,0,1,.12-1.05.27.27,0,0,1-.45-.08.88.88,0,0,1,0-.15v0c-.11.19-.44.25-.52,0a2,2,0,0,1-.09-.68l-.47.31C74,172.81,73.67,172.37,74,172.18Z" style="fill:#010101"/><path d="M73.55,172.56a7.34,7.34,0,0,0,3.81,3c.33.12.11.63-.22.51a7.89,7.89,0,0,1-4-3.16C72.91,172.6,73.35,172.26,73.55,172.56Z" style="fill:#010101"/><path d="M85.72,172.55l.94-.26h.06l.57-.16h0a.28.28,0,0,1,0-.39.91.91,0,0,0,.09-.74l-.09-.22a.28.28,0,0,1,.12-.35.27.27,0,0,1,.35.07.36.36,0,0,1,0,.07h0l.48,1.1a4.8,4.8,0,0,0,.1-1.31.28.28,0,0,1,.56-.07l.12,1a.26.26,0,0,1-.2.28.44.44,0,0,0,0,.1l.64-.18a.28.28,0,0,1-.22-.23c-.14-.56-.27-1.11-.4-1.67a.27.27,0,0,1,.24-.31.29.29,0,0,1,.31.24c.13.56.27,1.12.4,1.67a.28.28,0,0,1-.09.24l1-.3c.35-.1.56.42.22.51l-2.31.65c0,.09,0,.18-.08.27a.28.28,0,0,1-.51,0l0-.09-1,.26,0,1.17a.28.28,0,0,1-.32.23.29.29,0,0,1-.23-.31l0-.93-.54.15C85.6,173.16,85.38,172.65,85.72,172.55Z" style="fill:#010101"/><path d="M67.87,165.65l.5-3.69a.28.28,0,0,1,.55.08c-.12.92-.25,1.84-.37,2.75l.61-.46a8.34,8.34,0,0,0,.34-2.43.28.28,0,0,1,.24-.31.27.27,0,0,1,.31.24,9.08,9.08,0,0,1-.18,1.95l.18-.14.51-2.52c.07-.35.62-.27.55.08l-.39,1.92.66-.51q.34-1.26.57-2.55a.28.28,0,0,1,.55,0l.06.5a.24.24,0,0,1-.19.29c-.08.4-.17.81-.26,1.21l1.12-.87a.28.28,0,0,1,.34.44l-1.26,1.11a.21.21,0,0,1-.24,0l-.19.14c-.08.29-.16.58-.25.86a.28.28,0,0,1-.36.15.3.3,0,0,1-.15-.37.64.64,0,0,0,0-.07l-.59.45,0,.19a.29.29,0,0,1-.44.18l-.44.34c-.09.28-.2.56-.32.84a.28.28,0,0,1-.51-.21.27.27,0,0,1-.33,0l-.06.45A.28.28,0,0,1,67.87,165.65Z" style="fill:#010101"/><path d="M67,166l.12-3.64a.27.27,0,0,1,.31-.24.3.3,0,0,1,.24.32L67.51,166a.28.28,0,0,1-.32.23A.27.27,0,0,1,67,166Z" style="fill:#010101"/><path d="M65.61,167.46l.48-3.88c0-.35.59-.27.55.08l-.47,3.88A.28.28,0,0,1,65.61,167.46Z" style="fill:#010101"/><path d="M64.62,168.47a8.94,8.94,0,0,0,.2-4.27c-.07-.35.48-.42.55-.07a9.39,9.39,0,0,1-.24,4.56C65,169,64.52,168.81,64.62,168.47Z" style="fill:#010101"/><path d="M64,165.63l.33,2.64a.28.28,0,0,1-.56.06l-.32-2.63A.28.28,0,0,1,64,165.63Z" style="fill:#010101"/><path d="M78.13,162.35l.8,4.87c.06.35-.5.42-.55.07l-.8-4.87C77.52,162.07,78.08,162,78.13,162.35Z" style="fill:#010101"/><path d="M74.53,159.16A3.24,3.24,0,0,1,78,160.23c.22.28-.22.62-.45.34a2.65,2.65,0,0,0-2.8-.9.28.28,0,0,1-.36-.15A.27.27,0,0,1,74.53,159.16Z" style="fill:#010101"/><path d="M79.44,163.07c0-.14-.06-.28-.1-.41-.1-.34.41-.56.51-.21s.12.43.17.65a.25.25,0,0,1,.44,0,6.11,6.11,0,0,1,.38.77.25.25,0,0,1,.2.16l.93,2.75a.28.28,0,0,1-.15.36.28.28,0,0,1-.36-.15l-.15-.44a6.91,6.91,0,0,1-.23,1.41.28.28,0,0,1-.51-.22,5.63,5.63,0,0,0-.4-4,13.79,13.79,0,0,1,.26,3.4.2.2,0,0,1-.08.17l.14.89c.06.35-.5.42-.55.07l-.78-4.87A.26.26,0,0,1,79.44,163.07Z" style="fill:#010101"/><path d="M81.6,164.55a.28.28,0,0,1,.39,0,4.22,4.22,0,0,1,.6,2.82.28.28,0,0,1-.55-.09,3.64,3.64,0,0,0-.49-2.39A.28.28,0,0,1,81.6,164.55Z" style="fill:#010101"/><path d="M68.9,218.14l6.28,4.55,1.57,1.13a5.9,5.9,0,0,0,1.45.91c1.08.38,1.71-.7,2.36-1.36,1.6-1.62,3.91-1,5.7-.05a15.57,15.57,0,0,0,3.14,1.35,10.94,10.94,0,0,0,3.23.3A28.36,28.36,0,0,0,100,223.3c.34-.11.55.4.21.51a32.31,32.31,0,0,1-6.63,1.64,11.39,11.39,0,0,1-6.43-1.06c-1.87-.93-4.44-2.46-6.24-.57-.61.64-1.18,1.5-2.14,1.55s-2.09-.92-2.92-1.51l-7.28-5.28C68.27,218.37,68.61,217.93,68.9,218.14Z" style="fill:#010101"/><path d="M45.7,186.92l1,2.17c.15.32-.37.54-.52.21-.33-.72-.67-1.45-1-2.17C45,186.8,45.55,186.59,45.7,186.92Z" style="fill:#010101"/><path d="M45.33,191.6l1.18,1.21a.29.29,0,0,0,0,.35c.46.71.93,1.41,1.4,2.12a.29.29,0,0,0,.39.05.31.31,0,0,0,.11-.21.27.27,0,0,0,.38-.28l-.84-6.05,0-.26a.25.25,0,0,0,.11,0,.28.28,0,0,0,0-.39l-.27-.36L45,167.62a.28.28,0,0,0-.55.07l.84,6,1.81,13.11a.27.27,0,0,0-.4.37l.56.75.78,5.65-1.12-1.15a.32.32,0,0,0,.24-.05.28.28,0,0,0,0-.39l-1.46-2.49a.28.28,0,0,0-.39-.05.29.29,0,0,0,0,.39l1.37,2.33-.92-.94a.28.28,0,0,0-.39,0A.27.27,0,0,0,45.33,191.6Zm2.46,2.5a.26.26,0,0,0,.28,0l0,0,.09.69Z" style="fill:#010101"/><path d="M71.15,183.36c.71-2.63,1.41-5.26,2.12-7.89.09-.34.64-.26.55.09-.71,2.62-1.41,5.25-2.12,7.88C71.61,183.78,71.06,183.71,71.15,183.36Z" style="fill:#010101"/><path d="M70.62,181.55q.76-3.06,1.54-6.11c.08-.35.63-.27.55.08-.51,2-1,4.07-1.54,6.11C71.09,182,70.53,181.9,70.62,181.55Z" style="fill:#010101"/><path d="M68.89,180Q70,176.87,71,173.79c.12-.34.63-.12.52.22q-1.06,3.08-2.11,6.17C69.29,180.52,68.78,180.3,68.89,180Z" style="fill:#010101"/><path d="M68.73,178.72l1.11-4.91c.08-.35.63-.27.55.08l-1.11,4.91C69.21,179.15,68.65,179.07,68.73,178.72Z" style="fill:#010101"/><path d="M68.34,175.71l.1-.77A.28.28,0,1,1,69,175l-.1.77a.29.29,0,0,1-.32.24A.28.28,0,0,1,68.34,175.71Z" style="fill:#010101"/><path d="M92.85,180a.28.28,0,0,1,.34-.44A17.89,17.89,0,0,1,99,188.59a31,31,0,0,1,.7,12c-.28,2.47-.73,4.91-1.21,7.35-.07.35-.62.27-.55-.08,1.5-7.71,2.8-16.2-1.23-23.39A15.4,15.4,0,0,0,92.85,180Z" style="fill:#010101"/><path d="M111,195.31h0a83.36,83.36,0,0,1-2.46-13c-.14-1.33-.25-2.67-.33-4,0-.36.53-.43.55-.07a82.86,82.86,0,0,0,2,13.74c.3,1.3.63,2.59,1,3.88a.28.28,0,0,1-.43.33l-.63-.43C110.34,195.55,110.69,195.11,111,195.31Z" style="fill:#010101"/><path d="M99.7,170.54a28.21,28.21,0,0,1,7.38,6.78.28.28,0,0,1-.44.34A28.08,28.08,0,0,0,99.36,171C99.05,170.79,99.4,170.35,99.7,170.54Z" style="fill:#010101"/><path d="M99.52,179.75a6,6,0,0,0,1.39.28l-.06-.06a.29.29,0,0,1-.07-.36,3.82,3.82,0,0,1-.4-1.45c0-.19.19-.4.39-.29l.65.34a3,3,0,0,1-.17-.74c0-.21.27-.43.45-.25l.3.29a2.33,2.33,0,0,1,0-.53c0-.26.35-.28.5-.13.35.38.71.75,1.06,1.12l-.23-.72a.31.31,0,0,1,.15-.37.29.29,0,0,1,.37.16c.19.62.39,1.25.58,1.88a.28.28,0,0,1-.47.28l-1.29-1.36a2.12,2.12,0,0,0,.36.66c.19.24-.16.61-.39.38l-.52-.5a3,3,0,0,0,.21.33c.16.21-.07.56-.33.43l-1-.51a3.4,3.4,0,0,0,.7,1.41,6.27,6.27,0,0,0,3.19-1c.3-.2.64.24.34.44l-.59.39a.25.25,0,0,1-.16.05,6.87,6.87,0,0,1-5.19.39C99,180.15,99.18,179.64,99.52,179.75Z" style="fill:#010101"/><path d="M98.08,164.53l10.24,10.27c.25.25-.09.7-.34.44L97.74,165C97.49,164.72,97.82,164.28,98.08,164.53Z" style="fill:#010101"/><path d="M98.19,163.54a.31.31,0,0,1,.15-.15l.89-.49a.24.24,0,0,1,.22,0,.3.3,0,0,1,.13.12,5.85,5.85,0,0,1,5.12-4.52c.35,0,.42.53.06.56a5.27,5.27,0,0,0-4.68,4.29.28.28,0,0,1-.55,0l-.08.06-.9.49a.22.22,0,0,1-.21,0,.23.23,0,0,1-.15-.15A.26.26,0,0,1,98.19,163.54Z" style="fill:#010101"/><path d="M118.18,164.16a.28.28,0,0,1,.07.55A.28.28,0,0,1,118.18,164.16Z" style="fill:#010101"/><path d="M106.86,157.1a28.74,28.74,0,0,0,10.06,6.72c.33.13.12.64-.22.51-.6-.24-1.18-.5-1.76-.78a.23.23,0,0,1-.06.16l-2.35,2.59a.28.28,0,0,1-.44-.35l2.35-2.58,0,0-.69-.36-.45.57a.27.27,0,0,1-.18.11.39.39,0,0,1-.21-.06.27.27,0,0,1-.1-.19.25.25,0,0,1,.06-.2l.38-.5a29.3,29.3,0,0,1-6.88-5.26C106.17,157.18,106.62,156.85,106.86,157.1Z" style="fill:#010101"/><path d="M120.49,166.71l0,.11a.28.28,0,0,1-.55.07l0-.11A.28.28,0,0,1,120.49,166.71Z" style="fill:#010101"/><path d="M121,168.58a.29.29,0,0,1,.31.24l.37,1.48a.27.27,0,0,1-.24.31.29.29,0,0,1-.31-.24l-.37-1.48A.27.27,0,0,1,121,168.58Z" style="fill:#010101"/><path d="M116.32,170.73a11.21,11.21,0,0,0,3.84-.71c.34-.13.55.38.22.51a11.62,11.62,0,0,1-4,.75.3.3,0,0,1-.32-.24A.29.29,0,0,1,116.32,170.73Z" style="fill:#010101"/><path d="M117.3,164.41l3,4.21c.21.29-.23.63-.44.34l-3-4.21C116.65,164.46,117.09,164.12,117.3,164.41Z" style="fill:#010101"/><path d="M116.94,167.6a.28.28,0,0,1,.39.05l.54.75-.5-.92a.27.27,0,0,1,.15-.36.28.28,0,0,1,.36.15l1,1.78a.29.29,0,0,1-.15.37.25.25,0,0,1-.19,0,.3.3,0,0,1-.1.2.31.31,0,0,1-.4-.05c-.38-.53-.76-1.06-1.15-1.58A.28.28,0,0,1,116.94,167.6Z" style="fill:#010101"/><path d="M116.44,169.13a.16.16,0,0,1,0-.09.27.27,0,0,1,.18-.11.27.27,0,0,1,.21.06l.42.33a.22.22,0,0,1,.1.18.14.14,0,0,1,0,.11.18.18,0,0,1,0,.1.27.27,0,0,1-.19.1.29.29,0,0,1-.2-.05l-.43-.33a.35.35,0,0,1-.1-.19A.21.21,0,0,1,116.44,169.13Z" style="fill:#010101"/><path d="M113.67,169.56l2.93-4c.21-.29.65.05.44.34l-2.93,4C113.89,170.19,113.46,169.85,113.67,169.56Z" style="fill:#010101"/><path d="M114.44,166.43l1.34-1.51a.28.28,0,0,1,.39,0,.28.28,0,0,1,0,.39c-.44.51-.89,1-1.34,1.51a.28.28,0,0,1-.44-.34Z" style="fill:#010101"/><path d="M113.67,166.33c.49-.63,1-1.27,1.48-1.9a.27.27,0,0,1,.39-.05.29.29,0,0,1,0,.39c-.5.63-1,1.27-1.48,1.9a.28.28,0,0,1-.44-.34Z" style="fill:#010101"/><path d="M110,177.37l-.14-.48c-.1-.34.4-.56.51-.21A34.8,34.8,0,0,1,112,188c0,.36-.56.27-.55-.08A34.19,34.19,0,0,0,110,177.38Z" style="fill:#010101"/><path d="M123.13,179c-.18-2-.34-4-.5-6,0-.35.53-.42.55-.07q.84,10.53,2.07,21c.23,2,.48,4,.73,5.93a.28.28,0,0,1-.55.07Q124.08,189.54,123.13,179Z" style="fill:#010101"/><path d="M125.19,187.46l2.1,3.18c.2.3-.24.64-.44.34l-.18-.27.33.75a.3.3,0,0,1-.08.33l0,0A11.2,11.2,0,0,1,128.7,196c.07.35-.48.42-.55.07a10.12,10.12,0,0,0-.5-1.62.27.27,0,0,1-.51,0l-1-2.12a.24.24,0,0,1,.15-.35v0a.29.29,0,0,1,.07-.3l-.24-.15a.27.27,0,0,1,0-.39.24.24,0,0,1,.1-.08l-.75-1.68a.25.25,0,0,1,.11-.33l-.83-1.25C124.55,187.5,125,187.16,125.19,187.46Z" style="fill:#010101"/><path d="M125,185.84a.21.21,0,0,1,.19,0,.35.35,0,0,1,.1-.21.28.28,0,0,1,.39.06l1.18,1.76a.27.27,0,0,1,0,.39.29.29,0,0,1-.39-.05l-.24-.37c.3.53.6,1.07.91,1.6a.28.28,0,0,1-.15.36.3.3,0,0,1-.37-.15l-1.72-3A.27.27,0,0,1,125,185.84Z" style="fill:#010101"/><path d="M125.73,193.81a.34.34,0,0,1,.28,0l-.24-.35a.28.28,0,0,1,.06-.39.27.27,0,0,1,.39.05l1.41,2.12a.28.28,0,0,1-.45.33l-.52-.79.42.71a.28.28,0,0,1,0,.39.27.27,0,0,1-.39,0l-1-1.6A.28.28,0,0,1,125.73,193.81Z" style="fill:#010101"/><path d="M126.82,198.29a.27.27,0,0,1,.21,0l-.45-1.16a.28.28,0,0,1,.52-.21l.28.74a.24.24,0,0,1,.19.16l.29.72a.29.29,0,0,1-.15.37h-.09l.52.68a.28.28,0,0,1-.06.39.27.27,0,0,1-.35,0c.23.45.47.9.71,1.35a.28.28,0,0,1-.52.22l-.75-1.44a.27.27,0,0,1,.15-.36.3.3,0,0,1,.23,0l-.79-1A.28.28,0,0,1,126.82,198.29Z" style="fill:#010101"/><path d="M127.28,201.64a.28.28,0,0,1,.39.05l.68.87a.28.28,0,0,1,0,.39.36.36,0,0,1-.2.06l.19.39a.28.28,0,0,1,0,.22.29.29,0,0,1-.15.14.24.24,0,0,1-.22,0,.29.29,0,0,1-.14-.15l-.26-.54a.26.26,0,0,1,0-.21.28.28,0,0,1,.15-.15l.08,0-.52-.66A.28.28,0,0,1,127.28,201.64Z" style="fill:#010101"/><path d="M132.93,165.86q1.81,8.63,3.62,17.26l1,4.89c.07.35-.48.42-.55.07q-1.82-8.64-3.62-17.26l-1-4.89C132.3,165.58,132.86,165.51,132.93,165.86Z" style="fill:#010101"/><path d="M128.21,155l2.42,3.3a.29.29,0,0,1,0,.39l-.43.34c-.28.23-.62-.21-.34-.44l.21-.17-2.26-3.08A.28.28,0,0,1,128.21,155Z" style="fill:#010101"/><path d="M117.2,148.56l.16.06c-.14-.24.16-.58.4-.36l1,.92a29.71,29.71,0,0,1,8,4.91c.27.23-.07.67-.35.44a28.57,28.57,0,0,0-6.23-4.1l5.46,4.84a2,2,0,0,1,.83.74c.15.25-.14.62-.4.39l-.75-.67-.27-.09a.27.27,0,0,1-.22-.34l-6.35-5.64c-.5-.21-1-.41-1.52-.59C116.64,149,116.86,148.44,117.2,148.56Z" style="fill:#010101"/><path d="M116.65,160a.28.28,0,1,1,.56-.06,4.8,4.8,0,0,0,1.62,2.54l-.94-4.15c-.08-.35.47-.41.55-.07l0,.19h1.12l-.1-.71a.28.28,0,0,1,.55-.07l.11.78h5.92c.35,0,.43.56.07.56h-5.91l.7,4.87c.06.35-.5.42-.55.06-.24-1.64-.47-3.28-.71-4.93h-1.07c.29,1.32.59,2.63.89,3.94l.1.06a.29.29,0,0,1,0,.49l.08.34c.07.35-.48.42-.56.07l-.14-.61A5.47,5.47,0,0,1,116.65,160Z" style="fill:#010101"/><path d="M114.34,158.53a8.85,8.85,0,0,0,3,4,.28.28,0,0,1-.34.44,9.35,9.35,0,0,1-3.16-4.21C113.7,158.41,114.22,158.2,114.34,158.53Z" style="fill:#010101"/><path d="M110.73,155.54a11.93,11.93,0,0,0,3.5,4.85c.28.23-.06.67-.34.44a12.7,12.7,0,0,1-3.68-5.07C110.08,155.42,110.6,155.21,110.73,155.54Z" style="fill:#010101"/><path d="M109.94,157.18a5.79,5.79,0,0,0,1.94,2.31c.29.2,0,.64-.35.44a6.41,6.41,0,0,1-2.1-2.54C109.28,157.07,109.79,156.85,109.94,157.18Z" style="fill:#010101"/><path d="M117,149.65a47.57,47.57,0,0,1,8.08,6.77.25.25,0,0,1,.25.11l.34.51a.28.28,0,0,1-.44.34,47.32,47.32,0,0,0-8.57-7.29C116.35,149.89,116.69,149.45,117,149.65Z" style="fill:#010101"/><path d="M112.64,148.7a3.24,3.24,0,0,0,2.11.57.24.24,0,0,1,.14-.14l.07,0a.26.26,0,0,1,.15,0l.16.06a4.23,4.23,0,0,0,.57-.19c.33-.15.54.36.21.51l-.42.16a.3.3,0,0,1-.13.12h-.07a.22.22,0,0,1-.14,0l-.06,0a3.81,3.81,0,0,1-2.93-.62C112,148.93,112.35,148.49,112.64,148.7Z" style="fill:#010101"/><path d="M121.4,146.07a39,39,0,0,1,11,6.64.29.29,0,0,1,.09.15.24.24,0,0,1,.06-.09,39.56,39.56,0,0,0,10.92-16.59,38.35,38.35,0,0,0,1.42-5.48c.06-.35.62-.27.55.08a39.68,39.68,0,0,1-12.55,22.43.26.26,0,0,1-.43-.17.25.25,0,0,1-.4.11,38.37,38.37,0,0,0-10.93-6.56A.28.28,0,0,1,121.4,146.07Z" style="fill:#010101"/><path d="M133.71,154.71a.27.27,0,0,1,.39,0l1.13,1.69a.29.29,0,0,1,0,.39.28.28,0,0,1-.39-.05l-1.14-1.69A.28.28,0,0,1,133.71,154.71Z" style="fill:#010101"/><path d="M135.52,159c.4,2.24.81,4.49,1.22,6.73.06.35-.49.42-.55.06L135,159.11C134.9,158.76,135.45,158.69,135.52,159Z" style="fill:#010101"/><path d="M137.87,167.54q1.4,7.07,3.43,14c.1.34-.42.56-.52.22q-2.06-7-3.46-14.14C137.25,167.25,137.81,167.19,137.87,167.54Z" style="fill:#010101"/><path d="M136.73,194.43l4.73-10.28a.28.28,0,0,1,.51.22q-2.37,5.13-4.72,10.27C137.1,195,136.58,194.75,136.73,194.43Z" style="fill:#010101"/><path d="M131.05,200.16a7.15,7.15,0,0,0,5.14-3.38c.19-.31.62,0,.44.34a7.68,7.68,0,0,1-5.51,3.59A.28.28,0,0,1,131.05,200.16Z" style="fill:#010101"/><path d="M118.06,205.69a14.63,14.63,0,0,0,8.4-2.37c.3-.19.64.25.34.44a15.25,15.25,0,0,1-8.82,2.48C117.62,206.23,117.7,205.68,118.06,205.69Z" style="fill:#010101"/><path d="M101.31,209.31a15.28,15.28,0,0,0,9.75-2.07.3.3,0,0,1,.45.21.28.28,0,0,1-.11.51.25.25,0,0,1-.26-.14,15.89,15.89,0,0,1-9.91,2C100.88,209.82,101,209.27,101.31,209.31Z" style="fill:#010101"/><path d="M54.42,89.15A35,35,0,0,0,64,77.9a33.23,33.23,0,0,0,1.74-3.79c.13-.33.64-.11.51.22A35.43,35.43,0,0,1,58,86.78a34.58,34.58,0,0,1-3.23,2.81A.28.28,0,0,1,54.42,89.15Z" style="fill:#010101"/><path d="M38.68,105a19.87,19.87,0,0,1,7.71-9.21,20.14,20.14,0,0,1,3.1-1.59.28.28,0,0,1,.21.51,19.47,19.47,0,0,0-9,7.5,18.6,18.6,0,0,0-1.55,3A.28.28,0,0,1,38.68,105Z" style="fill:#010101"/><path d="M135,92.49l9.79,14c.21.3-.23.64-.44.34l-9.8-14C134.31,92.54,134.75,92.2,135,92.49Z" style="fill:#010101"/><path d="M63.4,45.82a81.42,81.42,0,0,1,29-3.89,79,79,0,0,1,8.27.8.28.28,0,0,1-.08.55,80.91,80.91,0,0,0-37,3.06C63.27,46.45,63.06,45.93,63.4,45.82Z" style="fill:#010101"/><path d="M34.21,51.13c1.24-2.54,4.22-3.47,6.87-3.41a33,33,0,0,1,5.23.77,27,27,0,0,0,5.38.46,24.78,24.78,0,0,0,6-.88c.34-.09.56.43.21.52a25.69,25.69,0,0,1-10.25.68c-3.12-.43-6.38-1.61-9.51-.62a5.5,5.5,0,0,0-3.41,2.7C34.57,51.67,34.05,51.45,34.21,51.13Z" style="fill:#010101"/><path d="M38.78,74.64a89.28,89.28,0,0,1,9.89-15.4c1.08-1.35,2.19-2.67,3.35-4,.24-.26.68.08.44.35a88.66,88.66,0,0,0-10.7,14.68q-1.3,2.23-2.47,4.55C39.13,75.18,38.61,75,38.78,74.64Z" style="fill:#010101"/><path d="M22,74.42a21.51,21.51,0,0,1,2.79-8,28.79,28.79,0,0,1,5.58-6.53c1.23-1.11,2.51-2.17,3.78-3.22.28-.23.62.22.34.44a61.1,61.1,0,0,0-6.31,5.72,22.22,22.22,0,0,0-4.44,7,21,21,0,0,0-1.19,4.6A.28.28,0,0,1,22,74.42Z" style="fill:#010101"/><path d="M22,81.76,27.33,71c.16-.32.68-.1.52.22L22.51,82C22.35,82.3,21.84,82.08,22,81.76Z" style="fill:#010101"/><path d="M41,42.49a176.64,176.64,0,0,0,22.32-3.07q3.09-.63,6.17-1.38c.35-.08.41.47.07.55a174,174,0,0,1-22.19,3.88q-3.15.35-6.3.57C40.73,43.07,40.66,42.51,41,42.49Z" style="fill:#010101"/><path d="M27.91,52.92a16.12,16.12,0,0,1,6.58-8.13,16.54,16.54,0,0,1,2.73-1.36c.34-.12.55.39.22.52a15.56,15.56,0,0,0-9,9.19C28.3,53.48,27.79,53.26,27.91,52.92Z" style="fill:#010101"/><path d="M93.69,94.31l3,2.32a.27.27,0,0,1-.34.43l-3-2.31A.28.28,0,0,1,93.69,94.31Z" style="fill:#010101"/><path d="M123.75,93l1.44,3.43a.28.28,0,0,1-.51.21l-1.44-3.43A.28.28,0,0,1,123.75,93Z" style="fill:#010101"/><path d="M63.21,150a9.6,9.6,0,0,0,3.85-2.3.28.28,0,0,0,0-.44l-.53-.38a.31.31,0,0,0-.12-.05l1.12-1.43a.28.28,0,0,0-.44-.35l-3,3.81a.26.26,0,0,0,0,.2,10.12,10.12,0,0,1-1.08.43C62.65,149.55,62.87,150.06,63.21,150Zm3.24-2.5a9.6,9.6,0,0,1-1.32,1l1-1.26a.28.28,0,0,0,.09.1Z" style="fill:#010101"/><path d="M58.13,148.72l3.64-1.44c1.21-1.58,2.43-3.15,3.65-4.73a.28.28,0,0,1,.44.34l-3.08,4,.27-.11a.28.28,0,0,1,.21.52l-1.15.45-.67.88a.28.28,0,0,1-.44-.34l.1-.14-2.75,1.09C58,149.36,57.8,148.85,58.13,148.72Z" style="fill:#010101"/><path d="M52.61,149.78l2.63-.33a.28.28,0,0,1,.07.55l-2.63.33A.28.28,0,0,1,52.61,149.78Z" style="fill:#010101"/><path d="M140.6,154.8a32.92,32.92,0,0,0,6.63-8.91,33.81,33.81,0,0,0,3.37-10.55,33.08,33.08,0,0,0,.3-6.29c0-.35.53-.42.55-.07a33.7,33.7,0,0,1-1.35,11.21,34.3,34.3,0,0,1-5,10.23,32.56,32.56,0,0,1-4.19,4.82C140.68,155.49,140.35,155,140.6,154.8Z" style="fill:#010101"/><path d="M26.45,138a29.63,29.63,0,0,0,10.22,11.57,29,29,0,0,0,3.89,2.16c.32.15.1.66-.22.51a30.17,30.17,0,0,1-12.1-10.12,29.52,29.52,0,0,1-2.31-3.91C25.77,137.9,26.29,137.69,26.45,138Z" style="fill:#010101"/><path d="M27,126.47a33.76,33.76,0,0,0,5.46-10.76c.1-.34.61-.12.51.22a34,34,0,0,1-5.53,10.88A.28.28,0,0,1,27,126.47Z" style="fill:#010101"/><path d="M33.61,115.18a8.1,8.1,0,0,1,2.47,5.23c0,.36-.52.43-.55.07a7.55,7.55,0,0,0-2.26-4.86C33,115.37,33.35,114.93,33.61,115.18Z" style="fill:#010101"/><path d="M34.1,126.82a.28.28,0,0,1,.07.56,5,5,0,0,0-4,5.61c.07.35-.49.42-.55.07A5.53,5.53,0,0,1,34.1,126.82Z" style="fill:#010101"/><path d="M13.7,129.46l3-6c.16-.32.67-.1.51.22l-2.59,5.17A22.39,22.39,0,0,0,20,124.39a.25.25,0,0,1,.08-.32l.5-.36c.26-.18.6.14.39.39a23.22,23.22,0,0,1-6.89,5.73C13.85,130,13.6,129.67,13.7,129.46Z" style="fill:#010101"/><path d="M8.62,120.06l7.5-5.93c.28-.22.62.22.34.45L10,119.73a45.67,45.67,0,0,0,8.78-3.2c.32-.16.53.36.21.52a46.41,46.41,0,0,1-10.11,3.51C8.54,120.62,8.42,120.22,8.62,120.06Z" style="fill:#010101"/><path d="M20.91,108.08a5.28,5.28,0,0,0,1.49-2.82.23.23,0,0,1-.06-.21l.15-.56a.28.28,0,0,1,.55.08,5.84,5.84,0,0,1-1.79,4,.27.27,0,0,1-.39,0A.28.28,0,0,1,20.91,108.08Z" style="fill:#010101"/><path d="M101.27,115.66l.12,0a.26.26,0,0,1,.23-.22h1.53a.29.29,0,0,1,.31.24c0,.13-.09.31-.24.31h-.59a.26.26,0,0,1-.17.09l-1.13.14a.28.28,0,1,1-.06-.55Z" style="fill:#010101"/><path d="M96.73,112l1.65-.58a.28.28,0,0,1,.21.51l-1.65.59a.28.28,0,0,1-.21-.52Z" style="fill:#010101"/><path d="M105.15,111.56l2.47-.11a.29.29,0,0,1,.31.24.28.28,0,0,1-.25.31l-2.46.12a.3.3,0,0,1-.31-.25A.28.28,0,0,1,105.15,111.56Z" style="fill:#010101"/><path d="M52.6,118.09a.38.38,0,0,1,.06-.13l.05,0a.24.24,0,0,1,.14,0l.18,0a.2.2,0,0,1,.11,0,.18.18,0,0,1,.1,0,.27.27,0,0,1,.07.08.2.2,0,0,1,0,.11v.07a.21.21,0,0,1-.05.13l0,0a.35.35,0,0,1-.14.06l-.19,0a.17.17,0,0,1-.1,0,.19.19,0,0,1-.1-.05.27.27,0,0,1-.07-.08.3.3,0,0,1,0-.1Z" style="fill:#010101"/><path d="M94.11,109.3a.42.42,0,0,1,0-.1v-.08a.31.31,0,0,1,.06-.13l.05,0a.21.21,0,0,1,.13,0l.19,0h.11a.19.19,0,0,1,.1,0,.27.27,0,0,1,.07.08.19.19,0,0,1,0,.1v.08a.29.29,0,0,1,0,.13l-.05,0a.32.32,0,0,1-.09,0,.27.27,0,0,1-.19.42.28.28,0,0,1-.26-.44A.13.13,0,0,1,94.11,109.3Z" style="fill:#010101"/><path d="M92.92,109.89a.39.39,0,0,1,.1-.08.29.29,0,0,1,0-.1.25.25,0,0,1,.05-.19.28.28,0,0,1,.15-.49.24.24,0,0,1,.19,0l.16-.21a.32.32,0,0,1,.19-.1.29.29,0,0,1,.2,0A.31.31,0,0,1,94,109a.28.28,0,0,1-.06.2l-.49.64-.08.07.53.41s0,0,.06,0a.13.13,0,0,1,.1,0,.2.2,0,0,1,.11,0,.19.19,0,0,1,.1,0l0,0a.21.21,0,0,1,0,.13v.07a.34.34,0,0,1,0,.14l-.17.21a.27.27,0,0,1-.08.07.19.19,0,0,1-.1,0,.2.2,0,0,1-.11,0l-.1,0,0,0a.32.32,0,0,1,0-.09.21.21,0,0,1-.12,0l-.63-.49a.27.27,0,0,1,0-.39Z" style="fill:#010101"/><path d="M110.46,102.29a.29.29,0,0,0,.38-.17.27.27,0,0,1,.36-.14l.66.18,0-.37a3.33,3.33,0,0,0-.63,0,.28.28,0,0,1-.06-.55,3.9,3.9,0,0,1,3.1.92.16.16,0,0,1,.06.08l.36.12c.34.11.12.62-.22.51l-.65-.22s0,.09,0,.14c.06.24-.27.39-.44.25l-.94-.75,0,.19c0,.23-.19.34-.39.29l-.86-.25a.86.86,0,0,1-1,.25C109.91,102.68,110.13,102.16,110.46,102.29Z" style="fill:#010101"/><path d="M82.06,89.41l1.68,3.78c.15.33-.37.54-.51.22l-1.68-3.79C81.4,89.3,81.92,89.08,82.06,89.41Z" style="fill:#010101"/><path d="M90,83.46l1.39,5.18c.09.34-.42.55-.51.21l-1.4-5.18C89.36,83.33,89.87,83.12,90,83.46Z" style="fill:#010101"/><path d="M98.2,64.09a3.48,3.48,0,0,1,2.32-1.75,6.35,6.35,0,0,1,1.63,0c.42,0,1.17-.12,1.15-.69a.21.21,0,0,1,0-.11l-.06-.07A21.5,21.5,0,0,0,99.09,56c-.26-.25.08-.69.34-.44a22.23,22.23,0,0,1,4.34,5.72.3.3,0,0,1,0,.18.25.25,0,0,1,.06.15,1.2,1.2,0,0,1-.69,1.12,3.06,3.06,0,0,1-1.72.14,2.88,2.88,0,0,0-2.72,1.48C98.55,64.62,98,64.41,98.2,64.09Z" style="fill:#010101"/><path d="M97.94,56.56a.27.27,0,0,1,.39,0l2.92,2.81a.28.28,0,0,1-.34.44L98,57A.28.28,0,0,1,97.94,56.56Z" style="fill:#010101"/><path d="M96,57.59a.28.28,0,0,1,.39-.05l1.53,1-.74-.71c-.26-.25.08-.69.34-.44L101.16,61c.25.25-.09.69-.34.44l-1.56-1.5a.29.29,0,0,1-.35,0L96,58A.27.27,0,0,1,96,57.59Z" style="fill:#010101"/><path d="M95.71,58.57,98,60.38a.28.28,0,0,1-.34.44L95.36,59A.28.28,0,0,1,95.71,58.57Z" style="fill:#010101"/><path d="M95,59.23a.29.29,0,0,1,.39,0l1.48,1.16a.27.27,0,0,1,.05.39.29.29,0,0,1-.39.05l-1.48-1.16A.27.27,0,0,1,95,59.23Z" style="fill:#010101"/><path d="M93.43,60.26,96,61.53c.32.16.1.67-.22.51l-2.6-1.26C92.89,60.62,93.1,60.11,93.43,60.26Z" style="fill:#010101"/><path d="M75.44,59a14.46,14.46,0,0,1,5.21-1.66.28.28,0,0,1,.06.55,14,14,0,0,0-5.06,1.62C75.34,59.63,75.13,59.11,75.44,59Z" style="fill:#010101"/><path d="M85.9,56.75a.27.27,0,0,1,.39,0,6.88,6.88,0,0,1,1.9,3.1.28.28,0,0,1-.15.36.28.28,0,0,1-.37-.15A6.45,6.45,0,0,0,86,57.14.28.28,0,0,1,85.9,56.75Z" style="fill:#010101"/><path d="M88.22,56.4a.28.28,0,0,1,.39.06l1.58,1.9a.28.28,0,0,1-.06.39.27.27,0,0,1-.39,0l-1.57-1.91A.28.28,0,0,1,88.22,56.4Z" style="fill:#010101"/><path d="M89.78,57.71a.29.29,0,0,1,.11-.18.31.31,0,0,1,.21-.05.29.29,0,0,1,.18.11l.45.51a.33.33,0,0,1,0,.21.27.27,0,0,1-.11.18.24.24,0,0,1-.2.06.33.33,0,0,1-.19-.11l-.44-.52A.26.26,0,0,1,89.78,57.71Z" style="fill:#010101"/><path d="M144.05,154.05a39.19,39.19,0,0,0,12.8,5.3c1.28.27,2.58.48,3.88.63a.28.28,0,0,1-.08.55,39.55,39.55,0,0,1-13.47-4c-1.19-.61-2.35-1.28-3.47-2C143.4,154.3,143.75,153.86,144.05,154.05Z" style="fill:#010101"/><path d="M165.87,159.87a37.86,37.86,0,0,1,22.51,1.85,37.52,37.52,0,0,1,21.89,24.9c.09.34-.42.56-.51.21a37.39,37.39,0,0,0-11.12-18.05,37,37,0,0,0-32.7-8.36C165.59,160.5,165.53,159.94,165.87,159.87Z" style="fill:#010101"/><path d="M211.25,203.17c0-.86-.07-1.72-.11-2.58a.29.29,0,0,1-.3-.31l.18-2.44a.28.28,0,0,1,.55,0l.83,18.55.24,5.26c0,.36-.54.43-.55.07Z" style="fill:#010101"/><path d="M9.12,188.89a111.48,111.48,0,0,0,22.61-8.95c2-1.07,4.05-2.22,6-3.42.3-.19.64.26.33.44A112.24,112.24,0,0,1,15.9,187.39q-3.26,1.11-6.57,2C9,189.5,8.78,189,9.12,188.89Z" style="fill:#010101"/><path d="M0,196.39a8.07,8.07,0,0,1,6-4.86c.35-.06.42.5.07.56a7.48,7.48,0,0,0-5.59,4.52C.4,196.94-.11,196.72,0,196.39Z" style="fill:#010101"/><path d="M49.52,148.11l4.36-6.54c.19-.3.63.05.43.34L50,148.46C49.76,148.76,49.32,148.41,49.52,148.11Z" style="fill:#010101"/><path d="M81.64,161.22l5-4.91c.25-.25.59.19.33.44l-5,4.91C81.73,161.91,81.39,161.47,81.64,161.22Z" style="fill:#010101"/><path d="M82.48,158.13l3.75-4.33c.24-.27.68.07.44.34l-3.75,4.33C82.68,158.74,82.24,158.4,82.48,158.13Z" style="fill:#010101"/><path d="M81.11,157.07q2.07-2.4,4.15-4.79c.23-.27.67.07.44.34l-4.15,4.79C81.31,157.68,80.87,157.34,81.11,157.07Z" style="fill:#010101"/><path d="M79.2,156l4.92-5.34c.24-.26.68.08.44.34l-4.92,5.34C79.4,156.56,79,156.22,79.2,156Z" style="fill:#010101"/><path d="M93.59,140l1.54-1.48h0l0,0,.07,0h.1l.07,0,0,0,0,0,0,0a.28.28,0,0,1,0,.23s0,0,0,.05a0,0,0,0,1,0,0l0,.07h0l-1.54,1.48a.28.28,0,0,1-.39,0A.29.29,0,0,1,93.59,140Z" style="fill:#010101"/><path d="M92.46,138.48a1.34,1.34,0,0,1,2.15-.27.29.29,0,0,1,0,.39.28.28,0,0,1-.39,0s0,0,0,0l0,0-.09-.06h0l0,0-.11,0h-.05l-.11,0h-.29l0,0-.1,0,0,0h0l-.08.06,0,0h0l-.07.09,0,0,0,0a.27.27,0,0,1-.36.14A.28.28,0,0,1,92.46,138.48Z" style="fill:#010101"/><path d="M91.09,137.33l.76-.94a.28.28,0,0,1,.39,0,.27.27,0,0,1,.05.39l-.76.94a.28.28,0,0,1-.44-.34Z" style="fill:#010101"/><path d="M89.3,137l2-1.53a.28.28,0,0,1,.33.44l-2,1.54C89.36,137.62,89,137.18,89.3,137Z" style="fill:#010101"/><path d="M87.36,128.31l.37-.48a.26.26,0,0,1,.19-.1.28.28,0,0,1,.2,0,.29.29,0,0,1,.11.19.25.25,0,0,1-.06.2l-.37.48a.29.29,0,0,1-.18.1.3.3,0,0,1-.21-.05.27.27,0,0,1-.1-.19A.29.29,0,0,1,87.36,128.31Z" style="fill:#010101"/><path d="M85.46,123.39l1.48-1.91a.29.29,0,0,1,.4,0,.28.28,0,0,1,0,.39l-1.48,1.9a.28.28,0,0,1-.44-.34Z" style="fill:#010101"/><path d="M84.85,121.47a1.12,1.12,0,0,1,1.61-.72.94.94,0,0,1,.43.45.3.3,0,0,1-.15.37.29.29,0,0,1-.37-.16v0l0,0h0l-.08-.06,0,0-.05,0h0l-.12,0h-.25l-.07,0-.07,0h0l0,0,0,0,0,0s0,.06-.06.08h0a.08.08,0,0,0,0,0h0a.13.13,0,0,1,0,.06.28.28,0,0,1-.31.24A.29.29,0,0,1,84.85,121.47Z" style="fill:#010101"/><path d="M84.58,119.17l1.53-1.48a.28.28,0,0,1,.39.06.28.28,0,0,1,0,.39l-1.53,1.47a.27.27,0,0,1-.39,0A.28.28,0,0,1,84.58,119.17Z" style="fill:#010101"/><path d="M83.55,118.19a2,2,0,0,1,2.76-1.46.28.28,0,0,1,.14.37.27.27,0,0,1-.36.14,1.34,1.34,0,0,0-1.26,0,1.38,1.38,0,0,0-.73,1A.28.28,0,0,1,83.55,118.19Z" style="fill:#010101"/><path d="M84.07,115l1.53-1.48a.27.27,0,0,1,.39,0,.28.28,0,0,1,0,.39L84.4,115.4a.28.28,0,1,1-.33-.44Z" style="fill:#010101"/><path d="M126.5,118.84a25.26,25.26,0,0,0-.36-9.76c-.08-.35.47-.42.55-.07a25.83,25.83,0,0,1,.36,9.91A.28.28,0,0,1,126.5,118.84Z" style="fill:#010101"/><path d="M123.2,112l.47,3.81a.28.28,0,0,1-.55.07l-.48-3.81A.28.28,0,0,1,123.2,112Z" style="fill:#010101"/><path d="M127.56,120.43c0-.36.58-.28.55.08-.11,1.44-.21,2.89-.32,4.33,0,.36-.58.28-.55-.08C127.34,123.32,127.45,121.87,127.56,120.43Z" style="fill:#010101"/><path d="M125.34,119.92a.28.28,0,0,1,.55-.07l0,3.86a.29.29,0,0,1-.24.31.27.27,0,0,1-.31-.24Z" style="fill:#010101"/><path d="M127.83,115a17.66,17.66,0,0,0,.32-6.83.28.28,0,0,1,.55-.07,18,18,0,0,1-.32,7C128.3,115.47,127.75,115.39,127.83,115Z" style="fill:#010101"/><path d="M91.91,62.8a2,2,0,0,0,3.62.26c.19-.3.63,0,.44.34A2.59,2.59,0,0,1,91.4,63C91.25,62.68,91.77,62.47,91.91,62.8Z" style="fill:#010101"/><path d="M58,76.13a41.26,41.26,0,0,1,6.72-10.3c.77-.86,1.57-1.68,2.41-2.47.26-.25.59.2.34.44A40.31,40.31,0,0,0,60,73.29c-.57,1-1.08,2-1.56,3.06A.28.28,0,0,1,58,76.13Z" style="fill:#010101"/><path d="M43.42,92.49a40.12,40.12,0,0,0,9.19-9.29c.72-1,1.4-2.1,2-3.19.17-.31.69-.1.51.22a40.78,40.78,0,0,1-8.38,10.3c-1,.85-2,1.65-3,2.4C43.47,93.14,43.13,92.7,43.42,92.49Z" style="fill:#010101"/><path d="M43.76,74.26a42.85,42.85,0,0,1,8.44-15,44.13,44.13,0,0,1,3.38-3.46c.26-.24.6.2.33.44A42.34,42.34,0,0,0,46,70a41.19,41.19,0,0,0-1.7,4.45C44.16,74.82,43.65,74.6,43.76,74.26Z" style="fill:#010101"/><path d="M33.57,92.9A50.83,50.83,0,0,0,40.49,79c.11-.34.62-.12.52.22a51.9,51.9,0,0,1-5.08,11.08c-.61,1-1.25,2-1.92,2.9C33.8,93.53,33.36,93.19,33.57,92.9Z" style="fill:#010101"/><path d="M85,49.1a75.59,75.59,0,0,0,9-2c.34-.09.56.42.21.52a77.5,77.5,0,0,1-9.18,2C84.69,49.71,84.62,49.16,85,49.1Z" style="fill:#010101"/><path d="M113.82,56.66a.28.28,0,0,1,.39,0l3.71,2.21a.27.27,0,0,1,0,.39.28.28,0,0,1-.39,0l-3.71-2.21A.28.28,0,0,1,113.82,56.66Z" style="fill:#010101"/><path d="M73.44,195.63a.28.28,0,0,1,.34.45c-.59.43-.28,1.25.17,1.67a1.42,1.42,0,0,0,2.06-.34c1.54-1.83.08-4.29-.07-6.32a3.93,3.93,0,0,1,.79-2.93c.24-.26.68.08.44.35a3.81,3.81,0,0,0-.58,3.28,14.25,14.25,0,0,1,.65,4.08,3.23,3.23,0,0,1-1.58,2.53,1.8,1.8,0,0,1-2.3-.48A1.59,1.59,0,0,1,73.44,195.63Z" style="fill:#010101"/><path d="M77.84,203.3a31.61,31.61,0,0,1,3.87,12.14,33.54,33.54,0,0,1,.16,3.61c0,.36-.56.27-.55-.08a31,31,0,0,0-4-15.45C77.15,203.2,77.66,203,77.84,203.3Z" style="fill:#010101"/><path d="M64.45,207.22l8.69,13.15c.2.3-.24.64-.44.34L64,207.56C63.81,207.26,64.26,206.93,64.45,207.22Z" style="fill:#010101"/><path d="M136.27,227.05q1.72-13.29,3.44-26.6.49-3.78,1-7.58a.28.28,0,0,1,.55.08q-1.71,13.31-3.44,26.6c-.33,2.53-.65,5.06-1,7.58A.28.28,0,0,1,136.27,227.05Z" style="fill:#010101"/><path d="M99.05,214a128,128,0,0,0,5.19,20.39q1,2.79,2.06,5.55a.28.28,0,0,1-.52.21,128.24,128.24,0,0,1-6.15-20.2c-.43-2-.8-3.92-1.14-5.89C98.43,213.7,99,213.63,99.05,214Z" style="fill:#010101"/><path d="M65.13,83.44c-.11.33.4.56.51.21l1.28-3.91,1.67.53-.31,1.12c-.1.34.45.42.55.08l.28-1L73,81.69c.34.11.56-.4.22-.51l-4-1.27c.3-1.06.59-2.12.88-3.18l.48-1.7,4.81.79c-.36,1.2-.71,2.4-1.06,3.6-.1.34.41.56.51.22.37-1.24.73-2.49,1.1-3.73l1,.16a.28.28,0,0,0,.08-.55l-.94-.15c.44-1.49.88-3,1.31-4.47l3,.34-.84,3.63c-.09.35.47.43.55.08L81,71.3l.56.06c.35,0,.43-.51.08-.55l-.51-.06,1.3-5.56,1.92.68-1.65,6.87c-.08.35.47.43.55.08.54-2.25,1.09-4.51,1.63-6.77l1.34.47-2.47,6a.28.28,0,0,0,.52.22l2.47-6,2.33.81c.34.12.56-.39.22-.51L87,66.19l1.29-3.12c.14-.33-.38-.55-.51-.22L86.46,66,85,65.51l.72-3,.49,0c.36,0,.44-.53.08-.55-.14,0-.29,0-.44,0l.29-1.17,1.21.74c.31.19.65-.25.35-.44l-1.51-.9a.23.23,0,0,0-.14-.09l-.67-.4c-.67-.4-1.32-.83-2-1.17l-.32-.15a.29.29,0,0,0-.46-.17,3.28,3.28,0,0,0-3.19.36c-.27.23.06.67.34.45a2.68,2.68,0,0,1,2.65-.29l-.91,2.79c-1.47-.2-2.93-.46-4.38-.77a.28.28,0,0,0-.35-.07l-2.05-.49,0-.09c.1-.35-.45-.42-.55-.08v0l-1.16-.33a36.19,36.19,0,0,1,3.36-3.85c.26-.25-.08-.69-.33-.44a35.77,35.77,0,0,0-2.69,3,35,35,0,0,0-6,10.86l-.29,0c-.36,0-.44.52-.08.56l.2,0c-.11.35-.23.7-.33,1.06s.41.56.51.22.25-.82.38-1.22l3.56.39C71,71.63,70.6,73,70.22,74.4l-1.47-.24L69,73.5c.11-.34-.4-.56-.51-.22l-.26.79-1.07-.18a.28.28,0,0,0-.08.55l1,.16-1.45,4.45-1.07-.34h-.06l.1-.13a.3.3,0,0,0,0-.21.25.25,0,0,0-.1-.18.27.27,0,0,0-.39,0l-.49.63a.26.26,0,0,0-.06.21.28.28,0,0,0,.31.24A.27.27,0,0,0,65,79.2l.09-.11a.25.25,0,0,0,.15.13l1.11.35Zm8.93-22.85c-.39,1.39-.78,2.78-1.16,4.18q-.69,2.46-1.37,4.93L68,69.31c.22-.66.47-1.31.73-2a34.57,34.57,0,0,1,4-7.15Zm2.48.6c-.11.41-.22.82-.32,1.23L74.93,62c-.34-.12-.56.39-.22.51l1.36.48-1.84,7-2.15-.23q1.26-4.52,2.51-9C75.24,60.89,75.89,61.05,76.54,61.19Zm3,.6-.48,1.63-2.32-.82.34-1.29Q78.31,61.58,79.54,61.79Zm1.8.28L80.71,64l-1.12-.39c.16-.58.33-1.15.5-1.72Zm4-.14c-.69,0-1.38-.11-2.07-.19l.23-1c.08-.35-.47-.42-.55-.08l-.23,1-.63-.08L83,58.94c.19.08.38.18.55.27.74.41,1.46.84,2.18,1.28Zm-2.75,2.72c.19-.79.37-1.57.55-2.36q1,.1,2.07.18c-.23,1-.46,1.91-.68,2.86Zm-.52-.19-.83-.29c.22-.67.45-1.35.67-2l.68.09Zm-4.46,5.9,1.83-6.23,1.1.39C80,66.24,79.4,68,78.84,69.68c-.11.34.4.56.51.22l1.71-5.2.87.31c-.44,1.89-.89,3.79-1.33,5.68ZM77,70.3l-2.26-.25c.61-2.3,1.21-4.61,1.82-6.91l2.31.81-.46,1.56Zm-6.27,4.19,1.16-4.19,2.15.24-.57,2.18c-.09.35.46.43.55.08l.58-2.2,2.25.24c-.44,1.48-.87,3-1.31,4.44Zm-3.68,4.72,1.48-4.52,1.5.25c-.45,1.6-.89,3.2-1.34,4.8Z" style="fill:#010101"/><path d="M66.41,82.56a.28.28,0,0,1,.07.56A.28.28,0,0,1,66.41,82.56Z" style="fill:#010101"/><path d="M86.58,70.32a14.22,14.22,0,0,0,7-5.6c.2-.3.64,0,.44.35a14.79,14.79,0,0,1-7.28,5.76C86.46,71,86.24,70.44,86.58,70.32Z" style="fill:#010101"/><path d="M104,64.11l7.58,6a.28.28,0,0,1-.34.44l-7.58-6A.28.28,0,0,1,104,64.11Z" style="fill:#010101"/><path d="M99.47,28.59A8.84,8.84,0,0,0,103.19,18c-.13-.33.38-.55.51-.21A9.43,9.43,0,0,1,102,27.2,8.47,8.47,0,0,1,99.8,29C99.5,29.21,99.16,28.77,99.47,28.59Z" style="fill:#010101"/><path d="M79,.64a41.87,41.87,0,0,1,11.85,2,40.31,40.31,0,0,1,5.47,2.2A14.51,14.51,0,0,1,100.83,8a7,7,0,0,1,1.89,5.62.28.28,0,0,1-.55-.08,6.35,6.35,0,0,0-1.63-5A13.55,13.55,0,0,0,96.16,5.4a40.52,40.52,0,0,0-10.9-3.57,41.42,41.42,0,0,0-6.38-.64C78.52,1.18,78.6.63,79,.64Z" style="fill:#010101"/><path d="M44.75,10.41a12,12,0,0,1,5-6.78A20.78,20.78,0,0,1,59.21.41C61.34.15,63.48.07,65.61,0c.36,0,.43.54.07.55C59.31.77,52,1.14,47.5,6.37a10.36,10.36,0,0,0-2.2,4.12C45.22,10.84,44.66,10.76,44.75,10.41Z" style="fill:#010101"/><path d="M40.64,16c.18-.31.69-.09.51.22a9.76,9.76,0,0,0-.88,8c.11.34-.4.55-.51.21A10.29,10.29,0,0,1,40.64,16Z" style="fill:#010101"/><path d="M81.75,30.79A11.58,11.58,0,0,0,89,27.64a11.42,11.42,0,0,0,2.92-11.77c-.11-.34.4-.55.52-.21a12.2,12.2,0,0,1-.32,8.42,12,12,0,0,1-10.33,7.27C81.46,31.37,81.39,30.81,81.75,30.79Z" style="fill:#010101"/><path d="M79,25a10.13,10.13,0,0,0,4.67-5.8,9.78,9.78,0,0,0-.8-7.58,9.89,9.89,0,0,0-3-3.35c-.29-.21,0-.65.34-.44a10.65,10.65,0,0,1,4.31,7,10.4,10.4,0,0,1-2,7.74,10.6,10.6,0,0,1-3.37,2.95C78.92,25.72,78.71,25.21,79,25Z" style="fill:#010101"/><path d="M87.2,33.86,97.33,30c.33-.13.54.39.21.51L87.42,34.38C87.08,34.5,86.87,34,87.2,33.86Z" style="fill:#010101"/><path d="M40.58,40.29,48.5,33.8l-.25,0a.28.28,0,0,1,.09-.55l.75.12.1-.09a.26.26,0,0,1,.42.17c1.17.17,2.33.32,3.5.44l.88-1a11.08,11.08,0,0,1-8.34-8.56,11.21,11.21,0,0,1-.06-4,.28.28,0,0,1,.55.08A10.51,10.51,0,0,0,51.3,31.26a10.72,10.72,0,0,0,3.16,1.16.24.24,0,0,1,.21.2.23.23,0,0,1,0,.33l-.87,1c1.3.11,2.6.2,3.9.24a23.17,23.17,0,0,0,3.23-4.95,24.29,24.29,0,0,0,2.46-10,22.21,22.21,0,0,0-.6-5.8c-.09-.34.47-.41.55-.06a23.69,23.69,0,0,1,0,10.53A25,25,0,0,1,59,33.39c-.2.27-.42.53-.63.79q3,.06,6-.13,2.25-.15,4.5-.45a.28.28,0,0,1,.07.56,70.17,70.17,0,0,1-11,.55,22.82,22.82,0,0,1-3.1,3c-.28.23-.62-.22-.34-.44a21.73,21.73,0,0,0,2.71-2.54c-1.3,0-2.6-.14-3.9-.26l-6.35,7c-.24.26-.68-.08-.44-.34l6.1-6.75c-1.13-.12-2.27-.27-3.4-.45l-8.32,6.82C40.64,41,40.31,40.52,40.58,40.29Z" style="fill:#010101"/><path d="M66.46,19.16a2.56,2.56,0,0,0-.31-3.33c-.27-.24.07-.68.34-.44a3.12,3.12,0,0,1,.41,4.11C66.69,19.79,66.25,19.45,66.46,19.16Z" style="fill:#010101"/><path d="M61.7,32.61A1.73,1.73,0,0,1,64,31.9a.3.3,0,0,1,.15.37.28.28,0,0,1-.37.14l-.23-.1h-.08l-.13,0h-.2l-.13,0-.07,0h0a.92.92,0,0,0-.23.09l-.06,0h0l-.1.07-.1.08,0,0,0,0a.86.86,0,0,0-.07.1.1.1,0,0,0,0,0h0v0a.27.27,0,0,1-.36.14A.28.28,0,0,1,61.7,32.61Z" style="fill:#010101"/><path d="M69.53,31.36a.36.36,0,0,1,0-.09.31.31,0,0,1,.19-.11h.07a.35.35,0,0,1,.14.06l.31.25a.18.18,0,0,1,.07.08.3.3,0,0,1,0,.1.37.37,0,0,1,0,.11.31.31,0,0,1,0,.1.27.27,0,0,1-.18.1h-.08a.29.29,0,0,1-.13-.05l-.32-.25a.16.16,0,0,1-.06-.08.15.15,0,0,1,0-.11A.22.22,0,0,1,69.53,31.36Z" style="fill:#010101"/><path d="M74,30.36l.56-.07a.31.31,0,0,1,.21.05.27.27,0,0,1,.1.19.29.29,0,0,1-.24.31l-.57.07a.3.3,0,0,1-.2-.06.31.31,0,0,1-.11-.18A.28.28,0,0,1,74,30.36Z" style="fill:#010101"/><path d="M78,27.93l.74-1a.28.28,0,0,1,.44.35l-.74.95a.29.29,0,0,1-.39.05A.27.27,0,0,1,78,27.93Z" style="fill:#010101"/><path d="M62.18,9c.17-.31.68-.1.51.22a13.72,13.72,0,0,0-1.26,10.25c.09.35-.42.56-.51.22A14.23,14.23,0,0,1,62.18,9Z" style="fill:#010101"/><path d="M104.47,26.11c1.29,4.82,5.9,7.59,10.06,9.7,4.34,2.19,9.06,4.34,11.45,8.83a8.91,8.91,0,0,1,.76,7.25c-.12.33-.63.11-.51-.22a8.32,8.32,0,0,0-.61-6.53,14.1,14.1,0,0,0-4.7-5.18c-4-2.8-8.89-4.23-12.69-7.42A12.55,12.55,0,0,1,104,26.32C103.86,26,104.37,25.76,104.47,26.11Z" style="fill:#010101"/><path d="M113,40.39A39.69,39.69,0,0,1,125.3,51.9,40.23,40.23,0,0,1,127.77,56c.16.31-.35.52-.52.21A39.21,39.21,0,0,0,116.58,43.5a39.94,39.94,0,0,0-3.93-2.67C112.34,40.65,112.69,40.21,113,40.39Z" style="fill:#010101"/></g></g></svg>