<svg style="transform: rotate(150deg)" xmlns="http://www.w3.org/2000/svg" viewBox="0 0 35.17 22.08">
    <title>seta</title>
    <g id="seta" data-name="seta" stroke="#010101" stroke-width=".3">
        <path d="M0,22.08c1.18-.85,2.38-1.66,3.57-2.49l3.7-2.26,7.4-4.54,7.4-4.54L25.77,6,29.6,3.93,26,6.41l-3.7,2.27-7.4,4.54-7.4,4.53L3.83,20C2.56,20.71,1.29,21.41,0,22.08Z"/>
        <path d="M29.23,1.39a13,13,0,0,0,.93,1.73c.19.27.31.56.48.84s.35.54.53.8l-.37,0c.15-.12.09-.46-.1-.71a7.11,7.11,0,0,0-.82-.71,1.3,1.3,0,0,1-.46-1.26,1.77,1.77,0,0,1,.85-1A6,6,0,0,1,32.54.42L34.78.06,35.17,0l-.11.38-.7,2.49c-.1.42-.31.81-.45,1.22l-.5,1.2L33.62,4a10.74,10.74,0,0,1,.26-1.28l.7-2.49.28.32L32.61.92a5.35,5.35,0,0,0-2.08.58,1.23,1.23,0,0,0-.62.68.77.77,0,0,0,.31.76,8.1,8.1,0,0,1,.88.78,1.51,1.51,0,0,1,.28.63.84.84,0,0,1-.24.74l-.21.19-.16-.22c-.2-.28-.38-.56-.56-.85a4.64,4.64,0,0,1-.45-.89A10.82,10.82,0,0,1,29.23,1.39Z"/>
    </g>
</svg>