<svg xmlns="http://www.w3.org/2000/svg" viewBox="0 0 25.2 46.57"><title>xadrez-peca-6</title><g id="Camada_2" data-name="Camada 2"><g id="Camada_1-2" data-name="Camada 1"><path d="M13.2,2a2.05,2.05,0,0,0-2.8.32.29.29,0,0,0-.18,0A2.41,2.41,0,0,0,9.17,5a2.49,2.49,0,0,0,2.3,1.76A2.63,2.63,0,0,0,14,5,2.63,2.63,0,0,0,13.2,2Zm.38,2.62a2.15,2.15,0,0,1-1.78,1.6,2,2,0,0,1-2-1.1A1.9,1.9,0,0,1,10.26,3a.23.23,0,0,0,.39-.05,1.46,1.46,0,0,1,2-.63A2.05,2.05,0,0,1,13.58,4.61Z" style="fill:#010101"/><path d="M15,17.39Z" style="fill:#010101"/><path d="M8.2,24.39Z" style="fill:#010101"/><path d="M8.43,24.52h0S8.48,24.54,8.43,24.52Z" style="fill:#010101"/><polygon points="8.04 24.22 8.04 24.22 8.04 24.22 8.04 24.22" style="fill:#010101"/><path d="M9,22.31Z" style="fill:#010101"/><path d="M21.81,29.74a5.68,5.68,0,0,0-1.64-2.55.27.27,0,0,0-.44.12s0,0,0,0a76.65,76.65,0,0,1-3.27-13.11c-.21-1.29-.37-2.6-.51-3.9,0-.34-.56-.34-.53,0a79,79,0,0,0,1.25,7.94,0,0,0,0,1,0,0c-.32-1.32-.58-2.65-.79-4-.16-1-.28-2-.38-3a.25.25,0,0,0,0-.09l-.09-.76a.3.3,0,0,0-.19-.23,6.45,6.45,0,0,0,2.71-4.48A5.29,5.29,0,0,0,15.71.82a5.29,5.29,0,0,0-3-.82A10.39,10.39,0,0,0,9.44.51,4.47,4.47,0,0,0,7.1,2.22a5.45,5.45,0,0,0-.81,2.66c-.12,2,.47,5,2.75,5.5a.06.06,0,0,0,0,0,.14.14,0,0,0,0,.08.15.15,0,0,0,.09.06h0a.27.27,0,0,0,0,.32l.07,0a.28.28,0,0,0-.12.2c0,.31-.07.63-.11.94v-.54c0-.34-.55-.34-.53,0A30.07,30.07,0,0,1,8.14,18c-.25,1.22-.54,2.42-.86,3.62A29.28,29.28,0,0,1,5.6,25.92a.28.28,0,0,0,.23.4c-.08.21-.15.43-.22.64a.23.23,0,0,0-.29-.12,2.21,2.21,0,0,0-1.26,3,.23.23,0,0,0,.32.1.28.28,0,0,0,.31-.39.76.76,0,0,1-.1-.29v-.05h0s0-.07,0-.1a.86.86,0,0,1,0-.16v0s0-.05,0-.08a.85.85,0,0,1,0-.17l0-.08s0,0,0-.05l.08-.16a1.47,1.47,0,0,1,.43-.46l.14-.09.07,0,.06,0,.16,0h.08a.21.21,0,0,0,.08.11A11.67,11.67,0,0,0,16.29,30l.18.67h0a.27.27,0,0,0,0,.53l.37,0a.27.27,0,0,0,.26-.33l-.27-1,.16-.05.07,0c.17.42.34.83.5,1.25a.28.28,0,0,0,.33.18A.32.32,0,0,0,18,31a.25.25,0,0,0,.22,0,.27.27,0,0,0,.19-.31l.06.07,0,0,.07,0a.25.25,0,0,0,.17,0,.22.22,0,0,0,.1-.09.21.21,0,0,0,.06-.16l0-.33,0,.17c0,.06.07.12.12.15a.24.24,0,0,0,.2,0,.28.28,0,0,0,.16-.12.28.28,0,0,0,0-.2l-.13-1a.28.28,0,0,0-.12-.16.3.3,0,0,0-.21,0,.26.26,0,0,0-.15.12.28.28,0,0,0,0,.2l.09.64a.22.22,0,0,0,0-.08.27.27,0,0,0-.19-.08.23.23,0,0,0-.17.07l-.21-.25a.24.24,0,0,0-.18-.07l-.11,0a.22.22,0,0,0-.21,0,.27.27,0,0,0-.18.19l-.15-.36A11.82,11.82,0,0,0,20,28.23a.46.46,0,0,0,.07-.07l.07.05a.23.23,0,0,0,.16,0,2,2,0,0,1,.31.33,1.76,1.76,0,0,1,.31.75.28.28,0,0,0,0,.37s0,.07,0,.11A14.59,14.59,0,0,1,14,32.22a2.6,2.6,0,0,0,1.21-.81A.27.27,0,0,0,14.8,31a2.28,2.28,0,0,1-3.12.34.28.28,0,0,0-.37,0,.27.27,0,0,0,0,.38,2.64,2.64,0,0,0,1,.51,14.69,14.69,0,0,1-4-.61,13.83,13.83,0,0,1-2.83-1.2.28.28,0,0,0-.35-.2l-.25-.15c-.28-.17-.53.25-.29.44a3.13,3.13,0,0,0-.89,1,.23.23,0,0,0-.39-.05,3.07,3.07,0,0,0-.66,2.34.24.24,0,0,0-.12.36l.33.46A3,3,0,0,0,4,36a.21.21,0,0,0,.2,0,11,11,0,0,0,2.32,1.63l-.58-.09a6.26,6.26,0,0,1-3.78-1.91c-.22-.27-.59.11-.38.37a5.87,5.87,0,0,0,.67.65l-.7-.4a.26.26,0,0,0-.26.46l2.83,1.61a.26.26,0,0,0,.27-.45l-.48-.28a18.47,18.47,0,0,0,5.34.83c3.38.22,6.88.32,10.12-.83a11.74,11.74,0,0,0,4.25-2.57,3,3,0,0,0,.1-.32A6.2,6.2,0,0,0,21.81,29.74Zm-5.07-9-.08.05a2.88,2.88,0,0,1-2.11,1,.24.24,0,0,0-.22.14l0-1.42a.3.3,0,0,0,.17.18,2.12,2.12,0,0,0,2.13-.49Zm-.88-3.68a.14.14,0,0,0-.09-.08.27.27,0,0,0-.36.09.21.21,0,0,1,0,.06h0l-.09.09,0,.05h0l-.11.07,0,0h0l-.13,0-.06,0h-.16a.26.26,0,0,0-.26.26.28.28,0,0,0,.26.27,1.39,1.39,0,0,0,1.19-.65.32.32,0,0,0,0-.09c.08.37.15.74.24,1.11l-.05.05a1.14,1.14,0,0,1-.16.15l0,0h0l-.09.07-.2.11-.09,0h0l0,0-.22.06-.11,0h0l-.24,0a.27.27,0,0,0-.27.26.27.27,0,0,0,.27.26A2.2,2.2,0,0,0,16.28,19c.07.27.13.54.2.81a.23.23,0,0,0-.24.07,1.6,1.6,0,0,1-.77.41l-.1,0h-.51l-.25-.07a.25.25,0,0,0-.31.17c0-1.3,0-2.6,0-3.9l.08,0a2.15,2.15,0,0,0,1.37-.19Zm-.48-2.56h0c.07.43.15.85.23,1.28l-.13.07-.07,0h0a1.58,1.58,0,0,1-.31.09h-.57a.31.31,0,0,0-.23,0c0-.32,0-.64,0-1a.34.34,0,0,0,.17,0Zm-6.11.24c.05-.3.09-.6.13-.9a1.13,1.13,0,0,0,.59.44,1.1,1.1,0,0,0,.67,0l-.13.79-.85-.49a.27.27,0,0,0-.36.09.26.26,0,0,0,.09.36l.95.54.09,0-.13.84a.26.26,0,0,0-.39,0l-.71-.2a.24.24,0,0,0-.23.05C9.09,15.79,9.19,15.26,9.27,14.74Zm1.18-1.92,0,0h0l0,0s-.07-.08,0,0a.33.33,0,0,0-.16-.13.28.28,0,0,0-.2,0,.29.29,0,0,0-.13.16.28.28,0,0,0,0,.2.94.94,0,0,0,.29.27,1,1,0,0,0,.31.11,1.15,1.15,0,0,0,.32,0l-.06.36a.25.25,0,0,0-.22,0h0l-.07,0H10.2l-.07,0-.05,0h0l-.11-.07h0s0,0,0-.05l0,0,0,0,0,0a.26.26,0,0,0-.36-.09h0c.1-.74.19-1.49.27-2.23a4.54,4.54,0,0,0,1.38.53.2.2,0,0,0-.07.12l-.15,1,0,0h0l-.1,0H10.6l-.08,0-.06,0C10.55,12.86,10.48,12.83,10.45,12.82ZM7.51,24.38a1.08,1.08,0,0,0,.18.24c-.11.31-.23.62-.34.94a2.27,2.27,0,0,1-.3-.32.27.27,0,0,0-.28-.06c.19-.61.37-1.22.55-1.83l.69.29c0,.13-.09.26-.13.39a.24.24,0,0,0-.27,0A.26.26,0,0,0,7.51,24.38Zm0-1.51-.07,0c.08-.28.15-.56.23-.85l0,.05a1.72,1.72,0,0,0,.61.56c-.05.18-.11.35-.17.53Zm.72-1,0,0h0l-.06-.08a.26.26,0,0,0-.36-.1s0,0,0,0c.09-.29.19-.59.27-.89l.68.4c-.08.3-.16.59-.25.89l-.06,0h0l0,0A.93.93,0,0,1,8.26,21.89Zm0-1.89h0l.74.21-.12.46-.7-.41Zm.83-3.22.72.2c-.05.24-.11.47-.16.7L9,17.37a.3.3,0,0,0-.23,0c.05-.24.09-.47.14-.7A.26.26,0,0,0,9.08,16.78Zm-.33,1,.77.38c0,.15-.07.29-.1.44l-.68-.07a.22.22,0,0,0-.19.09c.06-.29.11-.59.15-.88ZM8.5,18.94a.31.31,0,0,0,.24.17l.56.05-.15.55-.74-.21h0C8.42,19.31,8.46,19.13,8.5,18.94Zm.08,6.16a1.53,1.53,0,0,0,.3,0h0l-.17,1a.34.34,0,0,0-.15-.06H8.53l-.12,0h0C8.47,25.75,8.52,25.43,8.58,25.1Zm.3-.5h-.2l.08-.44a.32.32,0,0,0,0-.22l.18.08a.39.39,0,0,0,.21,0l-.1.59A.21.21,0,0,0,8.88,24.6Zm-.23-1.26c.06-.18.12-.35.17-.53a1.83,1.83,0,0,0,.47,0h0l-.12.73a0,0,0,0,0,0,0Zm.64-1H9l.24-.81.2.12.06,0-.11.7A.11.11,0,0,0,9.29,22.32ZM9.36,21c.16-.58.32-1.16.47-1.74h0l-.3,1.86Zm7.21,8.41a.24.24,0,0,0-.19,0,.26.26,0,0,0-.16.13,11,11,0,0,1-3.38.47,11.21,11.21,0,0,1-6.68-2.46A.25.25,0,0,0,6,27.43s0,0,0-.05H6c.22-.6.42-1.21.62-1.81l0,0a2.42,2.42,0,0,0,.5.46l-.12.31a.29.29,0,0,0-.31.33l.07.49c0,.28.43.21.51,0s.2-.57.3-.85l.19.07L7.69,27a.5.5,0,0,0-.05.13l0,.35a.27.27,0,0,0,.52.08l.18-1a1.59,1.59,0,0,0,.3.06.11.11,0,0,0,.08,0l-.27,1.69c-.06.33.45.48.51.14Q10.24,20.23,11.55,12a.26.26,0,0,0-.05-.21,4,4,0,0,0,1.38-.1c.32-.08.18-.59-.15-.51a3.6,3.6,0,0,1-3.1-.67.27.27,0,0,0-.12-.06.33.33,0,0,0,0-.13V10.1a4.44,4.44,0,0,0,1.42.45l0,0a.24.24,0,0,0,0,.2A.33.33,0,0,0,11,11a.27.27,0,0,0,.36-.1l.19-.25h.13a.28.28,0,0,0,.19-.45h0a.29.29,0,0,0,.2-.33V9.71A.26.26,0,0,0,12,9.55a.24.24,0,0,0-.26,0,4,4,0,0,1-.78-.38l.35-.44a7.56,7.56,0,0,0,1.57.5c.33.06.47-.45.14-.51a7.65,7.65,0,0,1-1.43-.44.21.21,0,0,0-.07-.18.27.27,0,0,0-.37,0c-.21-.11-.43-.22-.63-.35l.07-.06a.26.26,0,0,0,0-.37.27.27,0,0,0-.37,0L10,7.45c-.24-.17-.46-.34-.68-.53a2.43,2.43,0,0,0,.38-.33.26.26,0,1,0-.37-.37l-.13.13-.07.06,0,0L9,6.51A1.63,1.63,0,0,1,9,6.21.27.27,0,0,0,8.62,6a.26.26,0,0,0-.14.11.28.28,0,0,0-.19.46l.17.18-.11,0-.08,0H8.21a.29.29,0,0,0-.27.27c0,.13.12.28.27.26a2.05,2.05,0,0,0,.48-.1,4.65,4.65,0,0,0,.46.92l-.3.24a.26.26,0,1,0,.37.37l.24-.19a4.77,4.77,0,0,0,.72.7L10,9.45a.33.33,0,0,0-.06.27A3.64,3.64,0,0,1,8.93,9,3.86,3.86,0,0,1,7.78,6.27a.27.27,0,0,0-.53,0A4.36,4.36,0,0,0,8.56,9.39a4.15,4.15,0,0,0,.56.46h0c-1.77-.5-2.27-2.75-2.29-4.38A5.58,5.58,0,0,1,7.27,3a3.69,3.69,0,0,1,1.89-1.8A8.52,8.52,0,0,1,11.94.56,5.78,5.78,0,0,1,15,1a4.7,4.7,0,0,1,2.46,4.08A5.88,5.88,0,0,1,14.55,10c-.29.18,0,.64.27.46l0,0c.07.94.19,1.88.32,2.81l0,0H15l-.07,0a.26.26,0,0,0-.09.09l-.14.27,0,.1a.41.41,0,0,0,0,.11.2.2,0,0,0,.05.09.16.16,0,0,0,.07.07l.06,0a.17.17,0,0,0,.14,0l.07,0a.28.28,0,0,0,.09-.1l.08-.15c0,.11,0,.23.05.35a.22.22,0,0,0-.19,0l-.84.47c0-.82,0-1.63.05-2.45,0-.34-.51-.34-.52,0a164,164,0,0,0,.32,16.74c0,.34.55.34.53,0-.16-2.2-.25-4.39-.32-6.59a.25.25,0,0,0,.21.11,3.46,3.46,0,0,0,2.36-1c.27.91.56,1.83.88,2.73.44,1.23.93,2.45,1.46,3.66a.49.49,0,0,0,.22.17l.06,0A11.43,11.43,0,0,1,16.57,29.37ZM10.42,9.83l.19-.24a5.05,5.05,0,0,0,.77.39l-.05.07a4,4,0,0,1-1-.18ZM9.87,8.25l.19-.15a7.68,7.68,0,0,0,.74.41l-.29.36A4.16,4.16,0,0,1,9.87,8.25ZM3.62,34.69l-.24-.29a2.82,2.82,0,0,1,0-1.86,3.18,3.18,0,0,0,.27,2.12A0,0,0,0,0,3.62,34.69Zm.19-1.49a2.91,2.91,0,0,1,.64-1.74A5.36,5.36,0,0,0,3.81,33.2ZM7,37.75a.24.24,0,0,0,0-.41,9.87,9.87,0,0,1-2.74-2,19.34,19.34,0,0,0,4.11,2.49C7.92,37.83,7.47,37.8,7,37.75Zm16.32-3a13.17,13.17,0,0,1-8,3.24,34.32,34.32,0,0,1-5.17,0l-1.44-.09c.15-.1.21-.33,0-.42a18.82,18.82,0,0,1-4.36-2.65.51.51,0,0,0,.49-.6c-.06-.31-.5-.21-.51.07h0l-.05,0c-.09-.08-.06-.29-.06-.4a4.63,4.63,0,0,1,.18-1,4.85,4.85,0,0,1,1-1.84,15.53,15.53,0,0,0,12.48.93,14.77,14.77,0,0,0,3.42-1.76.25.25,0,0,0,.08-.1A5.67,5.67,0,0,1,23.35,34.73Z" style="fill:#010101"/><path d="M18.89,28c-.19-.32-.36-.64-.53-1a1.42,1.42,0,0,0,.2-.28.26.26,0,0,0-.45-.27h0c-.11-.24-.22-.48-.32-.73l.05,0a.28.28,0,0,0,0-.38.24.24,0,0,0-.22-.06c-.09-.24-.17-.49-.24-.73h0a.26.26,0,0,0-.15-.49c-.08-.31-.15-.63-.21-.95l.09-.05a.27.27,0,0,0,.09-.36.28.28,0,0,0-.28-.13,15.83,15.83,0,0,1-.2-2.84.26.26,0,0,0-.52,0,15.51,15.51,0,0,0,.23,3.12l-.32.13c-.24-.93-.49-1.86-.73-2.79a.26.26,0,0,0-.51.14c.24.92.48,1.84.73,2.77a3.52,3.52,0,0,1-.65,0c-.14,0-.26.13-.26.26a.27.27,0,0,0,.26.27,3.39,3.39,0,0,0,.78,0l.23.85a3.2,3.2,0,0,1-1.07,0,.28.28,0,0,0-.33.18.29.29,0,0,0,.12.29l1,3.37a.26.26,0,0,0,.51-.14c-.14-.49-.27-1-.41-1.47a4.05,4.05,0,0,0,.76-.2l.22.81a1.28,1.28,0,0,1-.34,0,.26.26,0,0,0-.14.51,2.28,2.28,0,0,0,.69,0,.29.29,0,0,0,.32-.06,2.16,2.16,0,0,0,.72-.34q.22.43.48.87A.26.26,0,0,0,18.89,28Zm-3.31-1.81-.33-1.17a3.94,3.94,0,0,0,.84,0l.26,1A4.87,4.87,0,0,1,15.58,26.22Zm.89-1.84-.22-.86.29-.11c.06.3.12.59.2.88Zm.37,1.39-.23-.88.28-.09c.08.26.17.52.27.79Zm.5,1.42-.12,0L17,26.3c.12-.07.25-.13.37-.21.11.29.24.57.37.85A1.47,1.47,0,0,1,17.34,27.19Z" style="fill:#010101"/><path d="M15.35,1.88a3.5,3.5,0,0,0-.81-.55c-.3-.15-.57.31-.27.46a1.17,1.17,0,0,1,.27.15.27.27,0,0,0,.12.14l.35.21a3.31,3.31,0,0,1,.83,3.53.22.22,0,0,0,.15.3,4.27,4.27,0,0,1-1.25,2.11L14.52,8A4.06,4.06,0,0,0,15.9,4.65l0-.06h0c.08-.33-.43-.47-.51-.14l-.54,2.3v.07a3.31,3.31,0,0,1-.79.88.28.28,0,0,0-.1.37l.07.07a.27.27,0,0,0,.06.1l.27.34a4.6,4.6,0,0,1-.6.37l-.35-.63A.26.26,0,0,0,13,8.22a.27.27,0,0,0-.1.36l.32.57c-.12,0-.25.09-.38.12l0-.08a.5.5,0,0,0,0-.12h0s0-.06,0-.09a.27.27,0,0,0-.53,0,2.56,2.56,0,0,0,1.3,2,.26.26,0,0,0,.36-.1.27.27,0,0,0-.09-.36l-.23-.14,0,0,0,0-.1-.09-.17-.18,0-.06v0a1,1,0,0,1-.08-.11.75.75,0,0,0-.07-.12,4,4,0,0,0,.49-.15.24.24,0,0,0,.28,0A.25.25,0,0,0,14,9.43,4.22,4.22,0,0,0,14.68,9l.6.74a.28.28,0,0,0,.37,0,.29.29,0,0,0,0-.38l-.38-.46a4.36,4.36,0,0,0,1.7-3,4.08,4.08,0,0,1-.07.92c-.06.34.45.48.51.15A5.06,5.06,0,0,0,15.35,1.88Z" style="fill:#010101"/><path d="M12.51,10.52a.13.13,0,0,0,0-.09.16.16,0,0,0-.07-.07l-.06,0h-.15l-.06,0a.2.2,0,0,0-.09.09l-.14.27a.17.17,0,0,0,0,.1.14.14,0,0,0,0,.11.18.18,0,0,0,0,.09.24.24,0,0,0,.08.06l.06,0h.14l.06,0a.28.28,0,0,0,.1-.09l.13-.27a.35.35,0,0,0,0-.2Z" style="fill:#010101"/><path d="M7.74,3.59a.27.27,0,0,0-.33.18L7,5.25a.26.26,0,0,0,.18.33.27.27,0,0,0,.33-.19l.4-1.48A.26.26,0,0,0,7.74,3.59Z" style="fill:#010101"/><path d="M7.65,30.49a.26.26,0,0,0-.12-.15l0,0-.05,0,0-.07,0-.07v-.07l0-.09,0,.06h0a.3.3,0,0,0,0-.21.26.26,0,0,0-.12-.15.24.24,0,0,0-.2,0l-.06,0-.18-.53A.31.31,0,0,0,6.69,29a.25.25,0,0,0,0-.19.28.28,0,0,0-.37-.09A1.1,1.1,0,0,0,6,29a.33.33,0,0,0-.14,0,.23.23,0,0,0-.18.08.23.23,0,0,0-.08.18l.12.95a.36.36,0,0,0,.08.19.26.26,0,0,0,.19.07.23.23,0,0,0,.18-.07s0,0,0,0l.09.08a.26.26,0,0,0,.36-.1h0a.14.14,0,0,0,0,.06.28.28,0,0,0,.2.21.4.4,0,0,0,.11,0,.56.56,0,0,0,.25.23.28.28,0,0,0,.2,0,.33.33,0,0,0,.16-.12A.3.3,0,0,0,7.65,30.49Z" style="fill:#010101"/><polygon points="6.4 29.62 6.4 29.61 6.4 29.62 6.4 29.62" style="fill:#010101"/><path d="M17.28,34.09a4.56,4.56,0,0,0-2.12-.93c-.33-.07-.48.43-.14.51.93.23,2.66.72,2.34,2S15.42,37,14.41,37.09a18.74,18.74,0,0,1-4-.22,5.54,5.54,0,0,1-3.05-1.24A2.19,2.19,0,0,1,7,32.7c.23-.25-.15-.63-.37-.37a2.45,2.45,0,0,0-.42,2.44.22.22,0,0,0-.17.11s-.16,0-.21,0a.54.54,0,0,1-.15-.38,3.76,3.76,0,0,1,0-1.11,4.51,4.51,0,0,1,.89-2,.28.28,0,0,0,0-.37.27.27,0,0,0-.38,0,5,5,0,0,0-1.08,2.83,1.89,1.89,0,0,0,.27,1.36.69.69,0,0,0,1,.06l.12.22a4.94,4.94,0,0,0,3.32,1.85,19.65,19.65,0,0,0,4.78.3c1.23-.07,2.81-.29,3.25-1.66A1.86,1.86,0,0,0,17.28,34.09Z" style="fill:#010101"/><path d="M18.19,33.29a.26.26,0,0,0-.36.1h0a4.12,4.12,0,0,0-.28-.31c-.23-.25-.61.13-.37.37a4.76,4.76,0,0,1,1.33,3.17c0,.34.54.34.53,0a5.49,5.49,0,0,0-.73-2.53,3.84,3.84,0,0,1,1.1,2.26.28.28,0,0,0,.26.27.28.28,0,0,0,.27-.27A4.46,4.46,0,0,0,18.19,33.29Z" style="fill:#010101"/><path d="M21.62,35.58l-1.1-3.23c-.11-.32-.62-.18-.51.14l.43,1.27a4.45,4.45,0,0,0-1-1.37c-.24-.23-.62.14-.37.37A4.1,4.1,0,0,1,20.28,35a5.35,5.35,0,0,0-1.81-2.34.26.26,0,1,0-.27.45A4.78,4.78,0,0,1,20,35.61a.26.26,0,0,0,.42.13.27.27,0,0,0,.52-.06,5.28,5.28,0,0,0-.1-.9l.32.94C21.22,36,21.73,35.91,21.62,35.58Z" style="fill:#010101"/><path d="M21.27,31.35a.27.27,0,0,0-.46.27,6.21,6.21,0,0,1,.89,2.57.27.27,0,0,0,.26.27.28.28,0,0,0,.27-.27A6.9,6.9,0,0,0,21.27,31.35Z" style="fill:#010101"/><path d="M24.05,36.3a.29.29,0,0,0-.38,0l-1.75,1.49a.26.26,0,0,0,0,.37.27.27,0,0,0,.18.08,5.51,5.51,0,0,1-2.83.81.27.27,0,0,0,0,.53,6,6,0,0,0,3.48-1.15l-.05.09a.26.26,0,0,0,.09.36.27.27,0,0,0,.36-.09L24,37.57a.26.26,0,1,0-.45-.26l-.37.54a.28.28,0,0,0-.41-.06h0l1.33-1.12A.28.28,0,0,0,24.05,36.3Z" style="fill:#010101"/><path d="M7.29,44.4C7.15,43.69,7,43,7,42.28a.26.26,0,0,0,0-.27,26.68,26.68,0,0,1-.18-3.09.27.27,0,0,0-.53,0c0,.6,0,1.21.07,1.81a11,11,0,0,1-.36-2.62.27.27,0,0,0-.47-.17.27.27,0,0,0-.47.17,12.71,12.71,0,0,0,.08,1.63l-.17-.06a11.54,11.54,0,0,1-.1-1.17.26.26,0,0,0-.52,0,7.77,7.77,0,0,0,.07,1l-.79-.27a.26.26,0,0,0-.32.18.28.28,0,0,0,.18.33l.09,0,.18.78c-.21-.09-.41-.19-.61-.3a8,8,0,0,1,0-2.19.27.27,0,0,0-.18-.32.26.26,0,0,0-.33.18c0,.18-.05.36-.07.54v-.06c0-.29-.43-.33-.51-.12v0c0-.34-.5-.34-.53,0a10.28,10.28,0,0,0,.21,3.08c-.3-.13-.6-.28-.89-.43A14.37,14.37,0,0,1,1,35.05c.08-.33-.43-.47-.51-.14a14.85,14.85,0,0,0-.23,5.75.26.26,0,0,0-.09.48l.18.1c.07.34.14.68.23,1a.26.26,0,0,0,.51-.14C1,41.93,1,41.74.92,41.55c.31.15.62.29.94.41,0,.18.1.36.16.53a.27.27,0,0,0,.44.11c.16.14.47.09.44-.17v-.08l.6.18a6.1,6.1,0,0,0,2.89,2.16c.32.11.46-.4.14-.51a5.59,5.59,0,0,1-2-1.25.23.23,0,0,0,.1-.12l.6.12h0s0,0,0,.07c.1.21.33.15.44,0l.14,0a.56.56,0,0,0,0,.12.27.27,0,0,0,.52-.07l0-.37,0,0q.12.91.3,1.83C6.85,44.87,7.36,44.73,7.29,44.4ZM2,38.47l.3,3.09A9.48,9.48,0,0,1,2,38.47Zm1.64,3.36a.22.22,0,0,0-.23,0c-.1-.31-.18-.63-.25-1l.68.29.23,1ZM4.09,40l.34.11c0,.27.09.53.15.79l-.3-.11C4.22,40.49,4.15,40.22,4.09,40Zm.55,2.32-.22-.92.31.08c.09.31.19.61.3.91ZM5.15,41c-.07-.25-.12-.49-.17-.74l.16.06c0,.23.08.47.13.71Z" style="fill:#010101"/><path d="M19.69,42.57c-.25-.92-.51-1.84-.77-2.76a.27.27,0,0,0-.47-.09.26.26,0,0,0-.26-.26c-.13,0-.28.12-.26.26,0,.5.09,1,.13,1.49a.27.27,0,0,0,.53,0l-.08-.9.86,3.06a.27.27,0,0,0,.52-.07l.05-.47A.26.26,0,0,0,19.69,42.57Z" style="fill:#010101"/><path d="M23,40.42a.27.27,0,0,0-.36-.1L20.5,41.41a.26.26,0,0,0-.1.36.28.28,0,0,0,.36.1l1.44-.73-1.69,1.09a.27.27,0,0,0-.1.36.26.26,0,0,0,.36.09l1.89-1.21a.27.27,0,0,0,.1-.36.29.29,0,0,0-.24-.13l.4-.2A.26.26,0,0,0,23,40.42Z" style="fill:#010101"/><path d="M22.78,39.36a8.15,8.15,0,0,1-3.1,1,.28.28,0,0,0-.27.27.26.26,0,0,0,.27.26A8.75,8.75,0,0,0,23,39.81.26.26,0,0,0,22.78,39.36Z" style="fill:#010101"/><path d="M18.24,38.43a45.88,45.88,0,0,1-10.85.65c-.34,0-.34.51,0,.53a47.07,47.07,0,0,0,11-.67C18.71,38.88,18.57,38.37,18.24,38.43Z" style="fill:#010101"/><path d="M3.64,30.23A5.09,5.09,0,0,0,1.1,33.85a.71.71,0,0,0-.06.41v0H1s0,0,0,.07a.27.27,0,0,0,.52-.07,2,2,0,0,1,0-.24s0,0,.06,0a.28.28,0,0,0,.05-.5,4.59,4.59,0,0,1,2.2-2.81C4.21,30.52,3.94,30.06,3.64,30.23Z" style="fill:#010101"/><path d="M25.12,36a.26.26,0,0,0,0-.37L24.31,35a.3.3,0,0,0-.18-.08.26.26,0,0,0-.19.08.27.27,0,0,0,0,.37l.6.5a.28.28,0,0,0,0,.13l.1,7h0a11.21,11.21,0,0,1-3,.47,5.77,5.77,0,0,0,1.95-1.36c.23-.25-.14-.63-.37-.38a5.09,5.09,0,0,1-2.31,1.44.27.27,0,0,0,0,.49A.26.26,0,0,0,21,44a11.53,11.53,0,0,0,3.6-.46v.14a.14.14,0,0,0,0,.06l-.09,0a23.44,23.44,0,0,1-6.89,2.07.28.28,0,0,0-.2,0,20.78,20.78,0,0,1-10-1.06c-.22-.08-.35.15-.31.33-.36-.11-.73-.23-1.09-.36a22.31,22.31,0,0,1-4.76-2.32c-.29-.18-.56.28-.27.46A24.86,24.86,0,0,0,19.69,46a24,24,0,0,0,5.13-1.79.22.22,0,0,0,.11-.29.24.24,0,0,0,.22-.25c0-2.53-.07-5.06-.11-7.59Z" style="fill:#010101"/></g></g></svg>