<svg xmlns="http://www.w3.org/2000/svg" viewBox="0 0 32.13 76.23"><title>xadrez-peca-2</title><g id="Camada_2" data-name="Camada 2"><g id="Camada_1-2" data-name="Camada 1"><path d="M24.66,5A2.67,2.67,0,0,0,23,3.28a2.16,2.16,0,0,0-2.57,1c-.13.28.28.52.41.24a1.7,1.7,0,0,1,2-.82,2,2,0,0,1,.9.64.19.19,0,0,0,0,.33,2.72,2.72,0,0,1,.49.54,2.47,2.47,0,0,1,.12.59.25.25,0,0,0,.22.22,5.57,5.57,0,0,1-.1,2.33c-.25,1.24-.55,2.46-.86,3.68-.65,2.52-1.41,5-2.26,7.46-.1.29.36.42.46.13,1-2.77,1.8-5.59,2.5-8.44a23.75,23.75,0,0,0,.82-4A3.59,3.59,0,0,0,24.66,5Z" style="fill:#010101"/><path d="M14.66,24.39h0v0S14.66,24.37,14.66,24.39Z" style="fill:#010101"/><path d="M14.06,24.23h0S14.05,24.25,14.06,24.23Z" style="fill:#010101"/><path d="M26.9,53.64c-1-2.83-1.89-5.71-2.63-8.62l.06,0a.26.26,0,0,0-.19-.48,93.19,93.19,0,0,1-2.56-16.46V28c0-.57-.07-1.15-.1-1.73l.24-.14c.29-.19,0-.64-.26-.46l0-.75a.11.11,0,0,0,0-.06.3.3,0,0,0,.19-.1l.22-.33s.05,0,.07,0a.18.18,0,0,0,.11-.23,3.68,3.68,0,0,0,.71-2,1.94,1.94,0,0,0-1.18-1.83h0a.24.24,0,0,0,0-.3.26.26,0,0,0-.39-.3,2.68,2.68,0,0,1-2.42.37c0-.24.1-.47.16-.71a4.09,4.09,0,0,0,3.07-.55c.29-.19,0-.64-.27-.46a3.54,3.54,0,0,1-2.69.5l.33-1.32a2.71,2.71,0,0,0,2.86-.39.28.28,0,0,0,0-.37.27.27,0,0,0-.38,0A2.16,2.16,0,0,1,19.4,17c.06-.26.13-.51.19-.77l0,0a3,3,0,0,0,3.15-.09c.29-.19,0-.65-.26-.46a2.54,2.54,0,0,1-2.63.1.23.23,0,0,0-.18,0c.1-.36.19-.72.29-1.08a2.56,2.56,0,0,0,3.3-.08c.25-.23-.12-.6-.37-.37a2,2,0,0,1-2.55.08A.27.27,0,0,0,20.2,14c.1-.33.19-.66.29-1a2.29,2.29,0,0,0,3.19-.41.27.27,0,1,0-.46-.27,1.74,1.74,0,0,1-2.53.16l0,0c.08-.26.15-.52.23-.78a3.1,3.1,0,0,0,3.38-.41c.26-.22-.12-.6-.37-.37a2.55,2.55,0,0,1-2.84.27h0c.06-.2.12-.39.19-.59h.08a.19.19,0,0,0,.11-.07l.09-.09a.16.16,0,0,0,.06-.08.22.22,0,0,0,.11.14,1.79,1.79,0,0,0,2.19-.67.26.26,0,1,0-.46-.26l0,0,0,0-.08.09-.08.08,0,0h0l-.2.12-.05,0h0l-.11,0-.22.05h-.39l-.11,0L22,10h0a.27.27,0,0,0-.36.09v0h0a.15.15,0,0,0-.06-.09l-.05,0h0c.08-.26.16-.52.25-.77a.21.21,0,0,0,0-.16h0l0,0,.92,0a4,4,0,0,0,1.85-.28.27.27,0,0,0,.18-.33.24.24,0,0,0-.14-.16.24.24,0,0,0-.27-.13l-2.12.29-.35-.11h0V8.21a.21.21,0,0,0,.05-.13l-.22-2.25a.27.27,0,0,0-.11-.19v0a.24.24,0,0,0,0-.12s0-.09,0,0a.13.13,0,0,1,0-.06V5.17s0-.09,0-.14,0,0,0-.06h0l.07-.13a.61.61,0,0,1,.07-.1v0l0,0,0,0,.09-.09.06,0h0a1.71,1.71,0,0,1,.23-.13h0l.07,0,.12,0h.25A.24.24,0,0,0,22.82,4a.24.24,0,0,0-.24-.24,1.5,1.5,0,0,0-1.22.52A1.62,1.62,0,0,0,21,5.1a1.44,1.44,0,0,0-.53-.21.22.22,0,0,0-.08-.29l-.07,0v0a.21.21,0,0,0-.06-.1.24.24,0,0,0-.11-.06l-.26-.11h0a18.55,18.55,0,0,1-1.72-1.31.25.25,0,0,0-.23-.06,5.3,5.3,0,0,0-.26-1.18,2.31,2.31,0,0,0-.46-1A.18.18,0,0,0,17,.65l0,0A1.91,1.91,0,0,0,14.59.29s0,0,0,0a1.47,1.47,0,0,0-1,.93,2,2,0,0,0,0,1.33.56.56,0,0,0,0,.12,4.93,4.93,0,0,0,.19.54.74.74,0,0,1-.21,0,.18.18,0,0,0-.15,0A2,2,0,0,1,13,2.91a2.3,2.3,0,0,0-1.05-.54,1.6,1.6,0,0,0-1.54.75.21.21,0,0,0-.11.2v0h0a.23.23,0,0,0,0,.14h0l0,.11a.43.43,0,0,0,0,.05s0,.08,0,0a.44.44,0,0,1-.08.15.18.18,0,0,0-.14,0,1.74,1.74,0,0,1-1.07-.43,1.56,1.56,0,0,0-1.23-.31,1.57,1.57,0,0,0-1,.9,2.78,2.78,0,0,0-.21,1.14.18.18,0,0,0-.06.16c.11,4.78,2,9.22,3.82,13.55L10.35,20a.19.19,0,0,0-.12,0,2.61,2.61,0,0,0,.42,4.66.19.19,0,0,0,.22,0A.23.23,0,0,0,11,25a13.75,13.75,0,0,0,2.36.57.27.27,0,0,0-.1.18Q11.9,37.46,10.54,49.19c-.26,2.18-.51,4.37-.77,6.55,0,.34.49.33.53,0L13,32.28c.25-2.18.51-4.37.76-6.55a.16.16,0,0,0,0-.12A15,15,0,0,0,21,24.75a.23.23,0,0,0-.05.15c0,.34,0,.68,0,1a6.37,6.37,0,0,1-3.17.78c-.34,0-.34.52,0,.53a6.83,6.83,0,0,0,3.2-.73c0,.46.05.91.08,1.37a5.45,5.45,0,0,1-3.19,1,.27.27,0,0,0,0,.53,6,6,0,0,0,3.22-.91q.2,2.75.56,5.48a.21.21,0,0,0-.15,0,2.79,2.79,0,0,1-2.88,0,.26.26,0,0,0-.27.45,3.31,3.31,0,0,0,3.36,0q.16,1.21.36,2.43a4.12,4.12,0,0,1-3.92-.43c-.28-.19-.54.27-.27.46a4.63,4.63,0,0,0,4.28.49c.2,1.2.42,2.39.67,3.58a.21.21,0,0,0-.24,0,4,4,0,0,1-3.3.43.26.26,0,0,0-.14.51,4.55,4.55,0,0,0,3.7-.48l.06-.06c.23,1.1.49,2.2.76,3.29a5.22,5.22,0,0,1-4.53,0c-.3-.15-.57.3-.26.46a5.77,5.77,0,0,0,4.92.09c.2.76.4,1.52.62,2.28l-.09,0a6.42,6.42,0,0,1-4.77,1.16c-.33-.06-.47.45-.14.5A6.93,6.93,0,0,0,24.61,48c.45,1.6,1,3.18,1.51,4.76a11.1,11.1,0,0,1-6.41,1.92c-.34,0-.34.52,0,.53a11.65,11.65,0,0,0,6.58-1.94c.05.15.1.3.16.45S27,53.93,26.9,53.64ZM21.21,9.1a96.09,96.09,0,0,0-3.13,11.43,23.09,23.09,0,0,1-6.64-.15A109.89,109.89,0,0,0,8.37,7.86a106.67,106.67,0,0,0,12.88.68.34.34,0,0,0-.06.12.25.25,0,0,0,0,.12.28.28,0,0,0,.13.23A.16.16,0,0,0,21.21,9.1ZM17.1,21.55c.46,0,1.16,0,1.37.54s-.26.75-.59.93a6,6,0,0,1-2.81.58A5.39,5.39,0,0,1,12.4,23a1.57,1.57,0,0,1-.78-.9,1,1,0,0,1,.32-1.05.21.21,0,0,0,.08-.11,23.54,23.54,0,0,0,5,.17A.24.24,0,0,0,17.1,21.55Zm-6.24,1.83a1.48,1.48,0,0,1-.6-1.15A1.51,1.51,0,0,1,11,21a.12.12,0,0,0,.05-.05l.09.45a.23.23,0,0,0,.06.13,1.47,1.47,0,0,0,0,.83.31.31,0,0,0-.16.11A1.18,1.18,0,0,0,10.86,23.38ZM17.35,5.51a1.18,1.18,0,0,1-1,.37,1,1,0,0,0-.9-.79,5.35,5.35,0,0,0-.7-.07l.16-.91a1.94,1.94,0,0,0,.59.12,2.11,2.11,0,0,0,1.62-.69,5.8,5.8,0,0,0,.19,1.9ZM14,1.52c.11-.4.5-.85.95-.76a.25.25,0,0,0,.3-.24A1.63,1.63,0,0,1,16.7,1a2.29,2.29,0,0,1,.48.81,1.55,1.55,0,0,1,0,.71,1.57,1.57,0,0,1-1,1.1,1.54,1.54,0,0,1-1.19,0V3.56a.23.23,0,0,0-.16-.29.24.24,0,0,0-.27.12,1.66,1.66,0,0,1-.26-.27l.18.06h.29A.28.28,0,0,0,15,3.06a.3.3,0,0,0,0-.21.31.31,0,0,0-.12-.16.35.35,0,0,0-.2,0H14.5l0,0h0a.23.23,0,0,1-.07-.07l0,0h0a.41.41,0,0,1,0-.09h0l0,0s0,0,0-.06V2.21s0,0,0-.06h0l0,0,0-.08.13.2a.24.24,0,0,0,.16.12.28.28,0,0,0,.2,0A.24.24,0,0,0,15,2.18a.27.27,0,0,0,0-.2l-.19-.29h.78a.27.27,0,0,0,.27-.27.27.27,0,0,0-.27-.26h-.94a.28.28,0,0,0-.13,0,.29.29,0,0,0-.14,0,.21.21,0,0,0-.16.06h0a.33.33,0,0,0-.12.16.3.3,0,0,0,0,.21l.1.15a.29.29,0,0,0-.22,0A2,2,0,0,1,14,1.52ZM10.73,3.45a1,1,0,0,1,.81-.59L11,3.32a.28.28,0,0,0-.07.17.24.24,0,0,0,.05.14.43.43,0,0,0,0,.07.23.23,0,0,0,0,.18A.22.22,0,0,0,11.1,4a.28.28,0,0,0,.18,0l0,0V4a.23.23,0,0,0,.32.09L11.73,4a.18.18,0,0,0,0,.13.25.25,0,0,0,.33.09l.13-.1a.24.24,0,0,0,0,.27.22.22,0,0,0,.23.05.25.25,0,0,0,0,.25.24.24,0,0,0,.33.08l0,0a.22.22,0,0,0,.05.08.25.25,0,0,0,.34,0l.13-.12,0,0h0l0,0,.3-.18.08,0,0,0h0L14,4.34l.34-.08.05,0L14.29,5H13a2.06,2.06,0,0,0-.78.13c-.27.13-.3.36-.5.53-.42.36-1-.55-1.21-.79l-.37-.39A1.37,1.37,0,0,0,10.73,3.45ZM6.89,5.77a.22.22,0,0,0,0-.13,3.26,3.26,0,0,1,.16-1.49A1,1,0,0,1,8,3.49a2.09,2.09,0,0,1,.95.45l.25.14,0,0,.12.13H9.27A.23.23,0,0,0,9,4.48a.23.23,0,0,0,.23.24,1.12,1.12,0,0,0,.45,0,14.93,14.93,0,0,0,1.15,1.23c.3.27.75.5,1.11.2s.25-.48.58-.6a2.73,2.73,0,0,1,1,0c.39,0,2.44-.13,2.35.51a.22.22,0,0,0,.11.27A1.29,1.29,0,0,0,17.46,6a3.08,3.08,0,0,1,1.05-.61l.33-.07a.23.23,0,0,0,.27.15c.51-.12,1.21-.3,1.66.06a.88.88,0,0,1,.3.45.46.46,0,0,1-.1.45.25.25,0,0,0,.2.41l.12,1.23A106.9,106.9,0,0,1,7.1,7.25H7C7,6.76,6.91,6.27,6.89,5.77Zm.84,2.5L7.48,9.78c-.16-.68-.3-1.37-.4-2.06h0l.71.08a.13.13,0,0,0,0,.06c0,.08,0,.16.07.24A.25.25,0,0,0,7.73,8.27Zm.76,3.59.14-.74a.28.28,0,0,0-.19-.33h-.1l.15-.64.45,1.64a.22.22,0,0,0-.14-.1A.26.26,0,0,0,8.49,11.86Zm.35,2.3A.22.22,0,0,0,9,14l.18-1a.3.3,0,0,0,0-.21A.29.29,0,0,0,9,12.68a.39.39,0,0,0-.15,0L9,12v0c.56,2.08,1.07,4.18,1.5,6.29C9.91,16.91,9.35,15.54,8.84,14.16ZM14.16,24a.14.14,0,0,1,0,.07h0v0a.75.75,0,0,1-.07.12h0L14,24.3l-.05,0,0,0c.05,0,0,0,0,0l-.12.07h-.08l-.07,0H13.5a.24.24,0,0,0-.24.23.25.25,0,0,0,.24.24,1.09,1.09,0,0,0,.5-.1A.29.29,0,0,0,14,25a.28.28,0,0,0,.14.22,14.23,14.23,0,0,1-3-.65.2.2,0,0,0-.22.06.27.27,0,0,0-.12-.37,2.13,2.13,0,0,1-.34-3.77l0,.06a.25.25,0,0,0,.06.17,1.94,1.94,0,0,0,.21,3.22.21.21,0,0,0,.29-.06,1.31,1.31,0,0,0,.22.25.26.26,0,0,0,.34,0,.25.25,0,0,0,0-.34l-.13-.12v0l0,0s0,0,0-.08a.16.16,0,0,1,0-.07h0v0l0-.09v0h0v-.16a.28.28,0,0,1,0-.09h0v0s0-.06,0-.09v0h0a.41.41,0,0,1,.05-.09A3.31,3.31,0,0,0,13.5,23.9c.22.05.44.08.67.11Zm.08.69a1.09,1.09,0,0,0,.38-.56.34.34,0,0,0,0-.1h.06v.09h0a.06.06,0,0,1,0,0,.17.17,0,0,1,0,.07h0s0,.05,0,.07v0a0,0,0,0,0,0,0h0l0,0,0,.06v0a.94.94,0,0,1-.1.1h0v0l-.07,0s-.09,0,0,0l-.07,0h-.08Zm1.31,0,0,0-.12.13,0,0h0l-.07.05-.08.05h0s-.06,0,0,0a.26.26,0,0,0-.17.26l-.71-.06a1,1,0,0,0,.65-.34,1.07,1.07,0,0,0,.2-.38,1,1,0,0,0,0-.39q.3,0,.6,0v.13h0v0a.29.29,0,0,1,0,.09l0,.08v0h0l-.09.17,0,.07Zm3.35-.42h0a.27.27,0,0,1-.07.08,1.21,1.21,0,0,1-.16.16l0,0,0,0-.09.06-.2.1a.24.24,0,0,0-.09.33h0a14,14,0,0,1-2.66.23,1.46,1.46,0,0,0,.41-.41,1.5,1.5,0,0,0,.24-.85v0c.14,0,.28,0,.41-.06l.45-.11,0,.1s0,.05,0,.08l0,0v0l0,0a.43.43,0,0,1,0,.07.64.64,0,0,1-.08.14l-.05.07h0v0a1.75,1.75,0,0,1-.24.23.24.24,0,0,0,0,.34.26.26,0,0,0,.34,0,2,2,0,0,0,.69-1.31,2,2,0,0,0,1.31-1,1,1,0,0,0-.29-1.13,1.92,1.92,0,0,0-1.27-.41l.88-.1a.28.28,0,0,0,.18,0l.49-.07,0,0a.24.24,0,0,0-.09.32,3.29,3.29,0,0,1,.69,2h0a.23.23,0,0,0-.23.24s0,.07,0,.1h0v.06l-.06.21v0l0,0a.36.36,0,0,1,0,.09l-.11.19,0,0Zm0,.65a1.91,1.91,0,0,0,.67-.94h0a.25.25,0,0,0,.3-.16,3.72,3.72,0,0,0-.7-2.81.28.28,0,0,0-.21-.11l.88-.15h.07a.21.21,0,0,0,.06.22,3,3,0,0,1,.7,2.82.23.23,0,0,0,.45.13,2.83,2.83,0,0,0,.1-.47.22.22,0,0,0,.38,0,2.07,2.07,0,0,0-.79-2.67.22.22,0,0,0-.32.11l-.15-.19.11,0,.82-.19a.26.26,0,0,0,.13.37,1.52,1.52,0,0,1,.82,1.54A3.5,3.5,0,0,1,21.51,24,14.18,14.18,0,0,1,18.91,24.9Zm1.92-3.59A1.64,1.64,0,0,1,21.26,23,3.57,3.57,0,0,0,20.83,21.31Z" style="fill:#010101"/><path d="M20,21c-.17-.25-.58,0-.41.24a3.48,3.48,0,0,1,.51,2.87.24.24,0,0,0,.46.13A4,4,0,0,0,20,21Z" style="fill:#010101"/><path d="M17.8,24.26s0,0,0,0Z" style="fill:#010101"/><path d="M18.67,23.75a.21.21,0,0,0-.11-.14.24.24,0,0,0-.32.09L18.1,24l0,.05,0,0-.09.11-.1.09-.05,0h0l0,0a1.28,1.28,0,0,1-.25.15.26.26,0,0,0-.11.14.23.23,0,0,0,0,.18.23.23,0,0,0,.32.09,1.85,1.85,0,0,0,.89-.9A.25.25,0,0,0,18.67,23.75Z" style="fill:#010101"/><path d="M22.25,42.83a7.74,7.74,0,0,1-2.89.34l-.51-.06-.17,0-.06,0s0,0,0,0l0,0s0,0,0,0a.26.26,0,0,0-.3-.42.51.51,0,0,0,0,.88,1.75,1.75,0,0,0,.6.14q.34,0,.69.06a7.93,7.93,0,0,0,2.74-.37C22.71,43.24,22.58,42.73,22.25,42.83Z" style="fill:#010101"/><polygon points="18.62 43.05 18.62 43.05 18.62 43.05 18.62 43.05" style="fill:#010101"/><path d="M10.68,40.05Z" style="fill:#010101"/><path d="M27.1,53.32a.26.26,0,0,0-.32.18.24.24,0,0,0,0,.12.25.25,0,0,0-.2.06,16.3,16.3,0,0,1-7.18,3.26.29.29,0,0,0,0-.16q-.37-2.67-.67-5.34l.63,0c.09.43.2.86.3,1.3l-.39-.09a.26.26,0,0,0-.14.51,4.53,4.53,0,0,0,.66.13c.05.24.1.47.16.7a.26.26,0,0,0,.51-.14l-.12-.5A6.35,6.35,0,0,0,22.89,53a4,4,0,0,0,1.49,1.81c.29.19.56-.27.27-.45a3.53,3.53,0,0,1-1.27-1.54,6,6,0,0,0,1.29-.75.27.27,0,0,0,.08-.34l.15.13c.26.22.64-.15.38-.37A7.76,7.76,0,0,1,23.92,50c.2-.12.4-.24.59-.38.24.5.49,1,.75,1.49.16.3.62,0,.46-.27a32.81,32.81,0,0,1-1.81-4,.23.23,0,0,0-.06-.16,44.57,44.57,0,0,1-2-7.08l.17,0a.26.26,0,0,0-.14-.51.61.61,0,0,1-.13,0c-.2-1.08-.38-2.17-.53-3.26a8.88,8.88,0,0,0,1.33-.41c.31-.13.17-.64-.14-.51a9.18,9.18,0,0,1-1.26.39c-.13-1-.25-2-.35-3a4.73,4.73,0,0,0,.47-.2c.3-.15,0-.6-.27-.45l-.25.1c0-.31-.06-.62-.08-.93s-.05-.58-.07-.86l.08-.07a.26.26,0,0,0-.12-.43c-.12-1.48-.22-3-.32-4.46,0-.33-.55-.34-.52,0,.1,1.57.2,3.15.32,4.72a2.43,2.43,0,0,1-.35.2L19.17,26c-.05-.33-.56-.19-.51.14l.53,4a2.57,2.57,0,0,1-.68,0c-.18-1-.37-2-.54-2.94-.06-.33-.57-.19-.51.14.17.95.35,1.9.52,2.84a.26.26,0,0,0,.08.42c.06.31.11.62.17.93a.27.27,0,0,0-.44.2c0,.26,0,.52,0,.78h0a.26.26,0,0,0-.24.18c0-2.21,0-4.41,0-6.62,0-.34-.52-.34-.53,0a203.65,203.65,0,0,0,1.16,24.19q.36,3.33.83,6.66a.29.29,0,0,0,0,.1A16.22,16.22,0,0,1,5.87,53.39a.14.14,0,0,0-.08,0A.22.22,0,0,0,6,53.19l.3-.85.18.2-.29.55a.26.26,0,0,0,.45.27L6.81,53a3.88,3.88,0,0,0,.31.26c-.12.19-.23.37-.36.55s.26.54.46.27l.33-.51a5.18,5.18,0,0,0,2.17.8c.14,0,.26-.13.26-.26a.26.26,0,0,0-.26-.26,4.59,4.59,0,0,1-1.92-.73c.12-.23.24-.47.34-.71a10.53,10.53,0,0,0,2.3.53c.14,0,.26-.13.26-.26a.27.27,0,0,0-.26-.27,9.52,9.52,0,0,1-2.11-.49c.09-.24.16-.49.23-.73a4.24,4.24,0,0,0,1.52.45.26.26,0,0,0,.27-.26.27.27,0,0,0-.27-.26,3.73,3.73,0,0,1-1.4-.46,9.47,9.47,0,0,0,.17-1.19A5.88,5.88,0,0,0,10,50c.33.11.46-.4.14-.51a5.45,5.45,0,0,1-1.63-.91s0-.08,0-.13a.28.28,0,0,0-.47-.24c-.13-.13-.26-.26-.38-.4.08-.27.14-.55.22-.82a3,3,0,0,0,2.51.95.28.28,0,0,0,.27-.27c0-.12-.13-.28-.27-.26a2.49,2.49,0,0,1-2.32-1l0,0c.13-.49.25-1,.36-1.46A4.08,4.08,0,0,0,11,46.11a.26.26,0,0,0,.27-.26.28.28,0,0,0-.27-.27,3.5,3.5,0,0,1-2.25-1.17.23.23,0,0,0-.14-.08c.08-.33.14-.66.22-1a2.5,2.5,0,0,0,2.08.81.28.28,0,0,0,.27-.27.26.26,0,0,0-.27-.26,2,2,0,0,1-1.83-.79.4.4,0,0,0-.12-.1c.07-.33.13-.66.2-1l1.16.57a.28.28,0,0,0,.37-.09.27.27,0,0,0-.1-.36l-1.26-.63-.06,0c.07-.36.13-.73.19-1.1a1.57,1.57,0,0,0,1.44.44.28.28,0,0,0,.18-.33.26.26,0,0,0-.32-.18h-.13a1.08,1.08,0,0,1-.18,0h0l-.09,0-.08,0-.05,0h0l-.06,0-.08,0-.08,0,0,0h0l-.13-.12,0,0a.56.56,0,0,1-.05-.08.26.26,0,0,0-.14-.11c.1-.57.19-1.15.27-1.72,0,0,0,0,0,.05a.28.28,0,0,0,.16.12l1.08.46a.28.28,0,0,0,.2,0,.25.25,0,0,0,.12-.16.24.24,0,0,0,0-.2.35.35,0,0,0-.15-.12l-1.08-.46a.28.28,0,0,0-.2,0l-.09.08c.14-.92.25-1.83.35-2.75l1.33.53a.26.26,0,0,0,.33-.18.27.27,0,0,0-.19-.32l-1.35-.54h-.06a74.51,74.51,0,0,0,.35-9.45c0-.3-.48-.31-.47,0A75.61,75.61,0,0,1,6.79,49.23a.21.21,0,0,0,0,.17C6.36,50.61,6,51.81,5.52,53h0a1.89,1.89,0,0,0-1.56,1,3.61,3.61,0,0,0-.37,1.72A6.43,6.43,0,0,0,.78,63h0a.27.27,0,0,0-.19.32s0,.11,0,.06a.34.34,0,0,1,0,.1,1.09,1.09,0,0,1,0,.18,1.23,1.23,0,0,1,0,.19v0s0,.07,0,.1a.11.11,0,0,0-.08,0,.25.25,0,0,0-.26.26l0,.54a.26.26,0,0,0,.49.13,2.18,2.18,0,0,0,.37-1.08,17.14,17.14,0,0,0,6.49,3.72l0,.12a.28.28,0,0,0,.19.33.27.27,0,0,0,.32-.19l0-.11a17.67,17.67,0,0,0,4.85.65,17.19,17.19,0,0,0,2.58-.24.25.25,0,0,0,.17.16.28.28,0,0,0,.33-.18L16,68l.68-.14c.33-.08.19-.59-.14-.51l-.36.08.16-.52a.26.26,0,1,0-.51-.14l-.24.78a16.65,16.65,0,0,1-4.83.13.36.36,0,0,0,.1-.14l.54-1.8a.26.26,0,0,0-.51-.14l-.54,1.8a.24.24,0,0,0,0,.23,15.91,15.91,0,0,1-2.26-.47c.11-.63.21-1.25.32-1.88a.27.27,0,0,0-.18-.32.26.26,0,0,0-.33.18c-.1.62-.21,1.24-.31,1.86l-.56-.17a4.59,4.59,0,0,1,.41-1.93.27.27,0,0,0-.46-.27,5.15,5.15,0,0,0-.47,2l-.83-.35A.28.28,0,0,0,6,66c.06-.72.13-1.44.19-2.16a.27.27,0,0,0-.26-.27.27.27,0,0,0-.26.27c-.07.72-.13,1.44-.2,2.16a.22.22,0,0,0,.06.15c-.37-.17-.74-.36-1.1-.56a.28.28,0,0,0,0-.13l.18-2.7a.27.27,0,1,0-.53,0c0,.85-.11,1.7-.16,2.56H4c-.31-.19-.61-.4-.91-.61a.2.2,0,0,0,.16-.17c.15-1,.29-1.9.44-2.84.26.09.53.17.8.24s.47-.43.14-.51A6.5,6.5,0,0,1,1.8,60c-.26-.22-.63.15-.37.38s.3.24.45.36a.26.26,0,0,0-.17.24c-.07.83-.15,1.66-.22,2.49l-.13-.12a.23.23,0,0,0,0-.2A5.93,5.93,0,0,1,2.5,57.34s0,0,0,0l.25.25.11.07a7.84,7.84,0,0,0,1.35.92.24.24,0,0,0,.08.18,7.61,7.61,0,0,0,3.53,1.95.25.25,0,0,0,.31-.18.69.69,0,0,0,.2,0,.32.32,0,0,0,.19-.07.29.29,0,0,0,.08-.19.27.27,0,0,0-.08-.19.26.26,0,0,0-.19-.08h0l-.07,0-.06,0L8.17,60l0-.06a.29.29,0,0,1,0-.09v.05a.16.16,0,0,0,0-.1.41.41,0,0,0,0-.09.28.28,0,0,0-.19-.07.26.26,0,0,0-.19.07.35.35,0,0,0,0,.08l-.33-.33a.26.26,0,0,0-.37.37l.12.13a7.4,7.4,0,0,1-1.81-1,.34.34,0,0,0,.07-.11.28.28,0,0,0-.19-.33A7.1,7.1,0,0,1,2.91,57L2.85,57a5.55,5.55,0,0,1,.75-.61.26.26,0,0,0,.49-.13,4.24,4.24,0,0,1,.27-1.87,1.4,1.4,0,0,1,1.07-.83.2.2,0,0,0,.07.23c.21.18.42.34.64.5a4.5,4.5,0,0,0-.45,2.9.26.26,0,0,0,.32.19A.28.28,0,0,0,6.2,57a3.86,3.86,0,0,1,.37-2.43,17,17,0,0,0,15.28,2.26,3.92,3.92,0,0,1-2.14.72c-.34,0-.34.54,0,.53a4.54,4.54,0,0,0,2.55-.88.27.27,0,0,0,.09-.36.24.24,0,0,0-.17-.12l.35-.13a15.8,15.8,0,0,0,1.86-.88h0a.26.26,0,0,0,.26.26,2.19,2.19,0,0,1,1.88.84.27.27,0,0,0,.37,0,.28.28,0,0,0,0-.38,2.73,2.73,0,0,0-2-1A16.25,16.25,0,0,0,27,54.05a.21.21,0,0,0,.09-.19,1.66,1.66,0,0,1,.79.62,1.63,1.63,0,0,1,.28,1.09.27.27,0,0,0,.53,0A2.21,2.21,0,0,0,27.1,53.32ZM19.3,48.1a7.34,7.34,0,0,0,2.29-.1l.51,2.33a9.32,9.32,0,0,1-2.28.52C19.63,49.94,19.45,49,19.3,48.1Zm1-8.68c-.23-1.1-.44-2.21-.66-3.32l.37,0c0,.4.1.8.16,1.2.1.71.19,1.42.29,2.13Zm.23.51.24,1.74c-.12-.57-.25-1.15-.36-1.73Zm.94,7.56a6.41,6.41,0,0,1-2.27.06,74.68,74.68,0,0,1-.83-7.61,9.49,9.49,0,0,0,1.51.05Q20.65,43.74,21.47,47.49Zm.63.39h0a11,11,0,0,0,1,2c-.18.1-.37.18-.55.27C22.43,49.38,22.27,48.63,22.1,47.88ZM20.25,52.8c-.12-.48-.23-.95-.33-1.43a9.49,9.49,0,0,0,2.3-.53,13.79,13.79,0,0,0,.47,1.67A5.94,5.94,0,0,1,20.25,52.8Zm4.33-1.23a.22.22,0,0,0-.18,0,6.47,6.47,0,0,1-1.22.71,15.06,15.06,0,0,1-.47-1.68c.25-.11.5-.22.74-.35A8.55,8.55,0,0,0,24.58,51.57Zm-.29-2.39h0a7.65,7.65,0,0,1-.67.43,10.39,10.39,0,0,1-1-1.91,6.48,6.48,0,0,0,.85-.38C23.74,47.94,24,48.56,24.29,49.18Zm-1.35-3.37c.11.34.24.67.36,1a6.53,6.53,0,0,1-.85.39,23.22,23.22,0,0,1-1-4.24c-.16-1-.3-2.08-.45-3.12l.31-.05A46.28,46.28,0,0,0,22.94,45.81ZM20.71,36c.15,1.1.32,2.2.53,3.29l-.28,0c-.15-1.1-.3-2.2-.44-3.3Zm-.41-3.45c.1,1,.21,2,.33,2.93l-.18,0-.39-2.88Zm-.2-2.2L20.25,32l-.26.09-.22-1.6A3.31,3.31,0,0,0,20.1,30.34Zm-.17,5.22-.39,0-.39-1.94c0-.26-.09-.51-.14-.77a4.69,4.69,0,0,0,.54-.11C19.68,33.69,19.81,34.62,19.93,35.56Zm-.67-4.93.22,1.61c-.18,0-.37.08-.56.12-.11-.56-.21-1.12-.31-1.68A2.81,2.81,0,0,0,19.26,30.63Zm-1,2.35.22,0L19,35.58l-.77-.06C18.23,34.67,18.25,33.83,18.27,33Zm0,3.07a8.46,8.46,0,0,0,.87.05c.22,1.12.44,2.24.67,3.36a8.51,8.51,0,0,1-1.43-.06c-.05-.92-.09-1.85-.11-2.78C18.23,36.43,18.24,36.24,18.23,36.05Zm-.74-3.16a.25.25,0,0,0,.24.15h0c0,.82,0,1.64,0,2.45a.4.4,0,0,0-.13.13C17.54,34.71,17.51,33.8,17.49,32.89Zm.09,3a.2.2,0,0,0,.12.08c0,1,0,2,.09,3.05l-.07,0C17.67,38,17.62,37,17.58,35.89Zm1.12,15c-.41-3.67-.73-7.36-.93-11h.06c.16,2.59.44,5.18.85,7.74a.25.25,0,0,0,.07.39l.18,1.13c.11.59.23,1.18.35,1.76l-.56,0ZM7.37,52.75l-.31-.28L7.28,52l.37.14C7.56,52.37,7.47,52.56,7.37,52.75Zm.47-1.07-.34-.13c.12-.28.24-.57.35-.85.07.06.16.1.24.16C8,51.14,7.93,51.41,7.84,51.68Zm.49-2.46a9.91,9.91,0,0,1-.12,1.08A1.09,1.09,0,0,1,8,50.17C8.14,49.86,8.24,49.54,8.33,49.22Zm-.79-.85c.12.13.25.24.38.36-.09.35-.19.69-.3,1a5.32,5.32,0,0,1-.36-.47C7.36,49,7.45,48.67,7.54,48.37Zm-.48,1.55a2.77,2.77,0,0,0,.36.4c-.12.34-.26.67-.4,1l-.22-.1a.21.21,0,0,0-.15,0C6.8,50.76,6.93,50.34,7.06,49.92ZM2.24,61a7.4,7.4,0,0,0,.92.5s0,0,0,.05l-.45,2.87v0c-.24-.18-.48-.36-.72-.56Z" style="fill:#010101"/><path d="M11.52,36.07,10.35,36a.25.25,0,0,0-.26.26.26.26,0,0,0,.26.26l1.17.09a.27.27,0,1,0,0-.53Z" style="fill:#010101"/><path d="M11.4,32.59l-.62-.19a.26.26,0,0,0-.21,0,.3.3,0,0,0-.12.15.27.27,0,0,0,.19.33l.62.18a.3.3,0,0,0,.21,0,.33.33,0,0,0,.12-.16A.26.26,0,0,0,11.4,32.59Z" style="fill:#010101"/><path d="M11.6,30.57,11,30.39a.3.3,0,0,0-.21,0,.38.38,0,0,0-.12.16.27.27,0,0,0,.19.33l.63.18a.28.28,0,0,0,.2,0,.25.25,0,0,0,.12-.16A.26.26,0,0,0,11.6,30.57Z" style="fill:#010101"/><path d="M11.51,28.69a.41.41,0,0,0-.07-.11l0,0a.25.25,0,0,0-.14,0h-.18l-.1,0a.35.35,0,0,0-.14.14.18.18,0,0,0,0,.1v.07a.19.19,0,0,0,.07.12l0,0a.2.2,0,0,0,.13,0h.18l.1,0a.15.15,0,0,0,.09-.06.14.14,0,0,0,.05-.08.23.23,0,0,0,0-.11Z" style="fill:#010101"/><path d="M12.31,26.91l-1.26-.28a.26.26,0,0,0-.14.51l1.26.28a.27.27,0,0,0,.32-.19A.26.26,0,0,0,12.31,26.91Z" style="fill:#010101"/><path d="M11.84,25.93a.2.2,0,0,0-.09-.09l-.27-.18a.19.19,0,0,0-.1,0h-.11l-.09.05a.23.23,0,0,0-.07.07l0,.07a.33.33,0,0,0,0,.14l0,.06a.28.28,0,0,0,.1.09l.27.18.1,0h.1a.13.13,0,0,0,.09-.05.16.16,0,0,0,.07-.07l0-.06a.33.33,0,0,0,0-.14Z" style="fill:#010101"/><path d="M12.42,57.31l-2-.15a.27.27,0,1,0,0,.53l2,.15a.27.27,0,0,0,0-.53Z" style="fill:#010101"/><path d="M6.71,59l-.09-.18a.23.23,0,0,0-.07-.07l-.09-.05H6.35a.19.19,0,0,0-.1,0l0,0a.35.35,0,0,0-.07.12V59a.33.33,0,0,0,0,.13l.09.18a.16.16,0,0,0,.07.07.13.13,0,0,0,.09.05h.1l.1,0,.06,0a.24.24,0,0,0,.06-.11v-.07A.32.32,0,0,0,6.71,59Z" style="fill:#010101"/><path d="M9.86,60.55l0,0a.24.24,0,0,0-.11-.06.16.16,0,0,0-.05-.09.11.11,0,0,0-.07-.06l-.06,0H9.39l-.07,0a.2.2,0,0,0-.09.09l0,.07h0s0,.07,0,.1a.22.22,0,0,1,0,.08h0v0l0,.08h0l.06.08.08.06h0l.07,0h.21a.15.15,0,0,0,.07,0,.17.17,0,0,0,.08-.06.41.41,0,0,0,.05-.09.21.21,0,0,0,0-.11A.19.19,0,0,0,9.86,60.55Z" style="fill:#010101"/><path d="M18.4,60.93a.26.26,0,0,0-.15-.12l-.54-.09H17.6l-.1,0a.3.3,0,0,0-.12.15.3.3,0,0,0,0,.21.25.25,0,0,0,.16.12l.54.09h.1a.17.17,0,0,0,.1,0,.25.25,0,0,0,.12-.16A.24.24,0,0,0,18.4,60.93Z" style="fill:#010101"/><path d="M25.16,62.85c-.05,1.17-.11,2.34-.17,3.51,0,.34.51.34.53,0,.06-1.17.11-2.34.17-3.51C25.71,62.51,25.18,62.51,25.16,62.85Z" style="fill:#010101"/><path d="M24.29,62.85c-.13,1.29-.25,2.58-.37,3.87,0,.33.49.33.52,0,.13-1.29.25-2.58.38-3.87C24.85,62.51,24.32,62.51,24.29,62.85Z" style="fill:#010101"/><path d="M23.34,63.39l-.16,3.51c0,.34.51.34.53,0l.16-3.51C23.89,63.05,23.36,63.05,23.34,63.39Z" style="fill:#010101"/><path d="M31.81,71.27a.24.24,0,0,0,0-.36q.17-3.21.32-6.44c0-.22-.24-.31-.41-.2l-.46-1a.27.27,0,0,0-.17-.12,30.77,30.77,0,0,0,0-4.4c-.1-1.22-.64-2.65-2.06-2.73-.34,0-.34.51,0,.53a1.34,1.34,0,0,1,.37.08l-.13.1h0a.21.21,0,0,0-.12.07l0,0s0,0,0,0A15.36,15.36,0,0,1,20,60.11a27.86,27.86,0,0,0,4.33-1,9.38,9.38,0,0,0,4.31-2.84c.21-.27-.16-.64-.38-.38a6.52,6.52,0,0,1-.48.55v-.46A.23.23,0,0,0,28,56a.26.26,0,0,0,.18-.32,1.63,1.63,0,0,0-.46-.74c.09-.19-.13-.48-.37-.34l-.08,0a1.69,1.69,0,0,0-1.11-.13.26.26,0,0,0-.18.32.25.25,0,0,0,.11.15,3.44,3.44,0,0,0-.69-.28.26.26,0,0,0-.14.51,2.87,2.87,0,0,1,.55.22l-.62.33a.26.26,0,0,0,.26.46l.87-.47a3.05,3.05,0,0,1,.78.93.23.23,0,0,0,.13.11v.1c-2,1.64-4.68,2.21-7.15,2.67-3.59.66-7.38,1.12-10.91-.1a10.26,10.26,0,0,1-4.09-2.57,3.3,3.3,0,0,1,.3-1.78A14.32,14.32,0,0,0,7.7,56.42a.27.27,0,0,0,.36-.09A.26.26,0,0,0,8,56a14.43,14.43,0,0,1-2.13-1.21.29.29,0,0,0-.19-.25l-.4-.15a.27.27,0,0,0-.32.15.26.26,0,0,0,.05.27,3.9,3.9,0,0,0-.41,1.64l-.07,0-.09.09a.14.14,0,0,0,0,.08.19.19,0,0,0,0,.1.24.24,0,0,0,0,.09L4,56.44a.24.24,0,0,0-.14-.12H3.79a.27.27,0,0,0-.19.08.25.25,0,0,0-.08.18v.05a1.38,1.38,0,0,0,.3,1.16.26.26,0,0,0,.37,0,.22.22,0,0,0,.08-.18,4.38,4.38,0,0,0,.36,1.27.27.27,0,0,0,.36.09.25.25,0,0,0,.12-.27l.57,1.09a.27.27,0,0,0,.46-.27l-.62-1.17a.26.26,0,0,0-.36-.1.28.28,0,0,0-.12.23,2.81,2.81,0,0,1-.19-.6.36.36,0,0,1,0-.1.29.29,0,0,0,.34,0,11.92,11.92,0,0,0,6.11,2.82h0a.18.18,0,0,0-.1,0l-.08.05a.24.24,0,0,0-.06.09.18.18,0,0,0,0,.1v.07a.19.19,0,0,0,.07.12l0,0a.28.28,0,0,0,.13,0h.09a.17.17,0,0,0,.1,0,.19.19,0,0,0,.09-.05.16.16,0,0,0,.05-.09.17.17,0,0,0,0-.1v-.07a.75.75,0,0,0-.07-.12l0,0-.08,0a16.63,16.63,0,0,0,2,.21,25.58,25.58,0,0,0,4.37-.26.26.26,0,0,0,.13.06,14.71,14.71,0,0,0,1.48.1,1.2,1.2,0,0,0-.24.15c-.27.2,0,.65.26.45a1.5,1.5,0,0,1,1.9.13,1.94,1.94,0,0,1,.43,2,2.19,2.19,0,0,1-.35.68.3.3,0,0,0-.22.26h0a3,3,0,0,1-.93.63h0c0-.34-.52-.34-.53,0v.21a7,7,0,0,1-1.79.25A31.67,31.67,0,0,1,12.47,65c-.88-.13-1.75-.3-2.61-.5a12.23,12.23,0,0,1-2.29-.66A2.22,2.22,0,0,1,6.1,62.28a1.22,1.22,0,0,1,.74-1.44c.33-.08.19-.59-.14-.51a1.59,1.59,0,0,0-1.12,1.34,2.19,2.19,0,0,0,.64,1.91,5,5,0,0,0,2.25,1.11c.48.13,1,.25,1.44.35l0,0A4.42,4.42,0,0,0,9,67.53a.26.26,0,0,0,.26.26.27.27,0,0,0,.27-.26,4,4,0,0,1,.82-2.18.2.2,0,0,0,0-.21l1.3.25.51.08-.63,2c-.11.32.4.46.5.14l.66-2,1,.12a.43.43,0,0,1,0,.07L13,67.55a.26.26,0,0,0,.18.32.28.28,0,0,0,.33-.18l.61-1.81a.26.26,0,0,0,0-.15c.31,0,.63.07.94.09a.31.31,0,0,0-.16.12,2.09,2.09,0,0,0-.38,1.41.27.27,0,0,0,.27.26c.13,0,.28-.12.26-.26A2,2,0,0,1,15,67a.25.25,0,0,0,0-.08v0s0-.11,0-.16a1,1,0,0,1,0-.16s0,0,0-.06,0,0,0,0a2.75,2.75,0,0,1,.17-.29.25.25,0,0,0-.09-.36h0a28.46,28.46,0,0,0,2.92.07,6.4,6.4,0,0,0,1.54-.24c0,.84,0,1.67-.05,2.5a17.62,17.62,0,0,1-2.3.09l.14-1.18a.26.26,0,1,0-.52,0l-.14,1.17-.51,0c-.33,0-.33.51,0,.53l.44,0v.11a.27.27,0,0,0,.26.27.28.28,0,0,0,.27-.27v-.09a19.51,19.51,0,0,0,2.42-.1.28.28,0,0,0,.42,0,20.3,20.3,0,0,0,8.09-2.84,19.73,19.73,0,0,0,2.56-1.9h.09A.25.25,0,0,0,31,64l.12.25a2,2,0,0,0-1.18.95l-.83.65a.24.24,0,0,0-.06.11,25.44,25.44,0,0,1-25.19.87.25.25,0,0,0-.3,0,14.19,14.19,0,0,1-1.79-1.18.36.36,0,0,0,0-.1.27.27,0,0,0-.2-.25.43.43,0,0,0,0,0A.27.27,0,0,0,1.36,65L1.1,65a.21.21,0,0,0-.17-.2v-.1a.66.66,0,0,1,0-.14h0v0s0-.05,0-.07l0-.11,0,0,0-.06,0-.05h0v0l.08-.09,0,0,.05,0a.27.27,0,0,0,.1-.36.27.27,0,0,0-.36-.1,1.27,1.27,0,0,0-.57,1.35,1.13,1.13,0,0,0,.13.32L0,71.37c0,.24.33.34.47.17,0,0,0,0,0,0l0,.07a.28.28,0,0,0,.1.09L.93,72H1l0,0a7.54,7.54,0,0,0,4.31,2.71c1.13.31,2.3.51,3.46.71s2.37.38,3.56.51a29.36,29.36,0,0,0,13.52-1.17c.51-.18,1-.39,1.5-.62a.27.27,0,0,0,.31-.16,18.14,18.14,0,0,0,3.57-2.24l0,.68a.26.26,0,0,0,.49.13l.12-.23a.27.27,0,0,0-.06-.31l0-.74Zm-5-15.78.46-.25h0l0,0,.17.18,0,0h0a.27.27,0,0,0-.26.27v.17A3.42,3.42,0,0,0,26.85,55.49ZM20.81,68c-.22,0-.44.06-.67.09l.06-2.61a4.48,4.48,0,0,0,.87-.45l-.29,2.85A.27.27,0,0,0,20.81,68Zm7.68-3.08h0l.06-3.78a.22.22,0,0,0-.08-.18c.22-.09.43-.18.64-.29v0l-.06,3.42a.24.24,0,0,0,.26.25C29,64.56,28.77,64.75,28.49,64.93Zm1-4.48.39-.28c0,.87,0,1.74,0,2.61a.21.21,0,0,0-.19,0h0l-.07,0,0,0,0-2.14A.23.23,0,0,0,29.47,60.45Zm.1,3.71a.43.43,0,0,0,0,0v-.72a.2.2,0,0,0,0,.08.27.27,0,0,0,.08.07.16.16,0,0,0,.09,0,.16.16,0,0,0,.1,0l.07.08a.21.21,0,0,0,.18.07C30,63.87,29.76,64,29.57,64.16ZM30.26,59l-.22.26a.22.22,0,0,0-.18.19,4.38,4.38,0,0,1-2.51,1.24.27.27,0,0,0-.26.27c0,.12.12.28.26.26A5.27,5.27,0,0,0,28,61.1s0,0,0,0L28,64.92a.22.22,0,0,0,.19.24c-.18.12-.36.22-.55.33a16.47,16.47,0,0,1,.18-3.29.27.27,0,0,0-.19-.32.26.26,0,0,0-.32.18,17,17,0,0,0-.19,3.49.25.25,0,0,0,.1.2l-.7.37a.28.28,0,0,0,0-.12c.14-1,.27-2.11.4-3.16,0-.14-.13-.26-.26-.26a.27.27,0,0,0-.27.26c-.13,1-.26,2.11-.4,3.16a.26.26,0,0,0,.23.25,19.05,19.05,0,0,1-3.48,1.33,8.36,8.36,0,0,1-.09-3,.28.28,0,0,0-.19-.33.27.27,0,0,0-.32.19,9.23,9.23,0,0,0,.09,3.23c-.31.08-.63.14-.94.2,0,0,0,0,0,0,.11-1.12.23-2.24.34-3.36a2.83,2.83,0,0,0,.62-1.22,2.46,2.46,0,0,0-.72-2.41,2.17,2.17,0,0,0-.53-.31,15.89,15.89,0,0,0,8.36-3.24h0a.37.37,0,0,0,.12-.07l0-.05v0l.33-.25,0,0a3.14,3.14,0,0,1,.68,2A.26.26,0,0,0,30.26,59Zm.28,4.37-.14.11s0,0,0,0c0-1.25,0-2.51,0-3.77l.24-.28v.07C30.66,60.77,30.63,62.08,30.54,63.39ZM1.05,71a.22.22,0,0,0-.27-.12.27.27,0,0,0-.17-.38c.14-1.59.28-3.18.43-4.76l.29.23a.3.3,0,0,0,0,.1,53.39,53.39,0,0,0,.47,6.06A4.39,4.39,0,0,1,1.05,71Zm30.22,0c-.32.28-.65.53-1,.79l0-5a.27.27,0,0,0-.53,0l-.05,5.3s0,0,0,.07l-.16.1a24.16,24.16,0,0,1,.09-5c0-.34-.49-.34-.53,0a24.17,24.17,0,0,0-.07,5.31s0,0,0,0c-.46.28-.93.54-1.42.79l-.06-5.32a.27.27,0,0,0-.53,0c0,1.86,0,3.72.07,5.58a22,22,0,0,1-6.65,1.86,43.16,43.16,0,0,1-13.87-1A9.08,9.08,0,0,1,2,72.38a.3.3,0,0,0,.31-.33,51,51,0,0,1-.45-5.66c.16.12.32.22.48.33,0,0,0,.06,0,.09.08,1.86.17,3.72.25,5.58,0,.33.55.34.53,0l-.24-5.33a7.24,7.24,0,0,0,.71.41.24.24,0,0,0,.31,0A26.1,26.1,0,0,0,25.2,68.5c.33-.13.64-.28,1-.42a.23.23,0,0,0-.08.16,17.06,17.06,0,0,0,.14,4.84c.06.33.57.19.51-.14a16.44,16.44,0,0,1-.12-4.7c0-.17-.11-.25-.25-.25q.87-.39,1.71-.84a37.4,37.4,0,0,1-.05,5.6c0,.34.51.33.53,0a38.6,38.6,0,0,0,0-5.89c.44-.25.88-.51,1.31-.79a.25.25,0,0,0,.25,0A8.16,8.16,0,0,0,31.4,65l0,0a1.18,1.18,0,0,0,.1.3l0,0Z" style="fill:#010101"/><path d="M30.76,65.91c-.09,1.71-.18,3.42-.26,5.12,0,.34.51.34.53,0,.08-1.7.17-3.41.25-5.12C31.3,65.57,30.77,65.57,30.76,65.91Z" style="fill:#010101"/></g></g></svg>