<svg xmlns="http://www.w3.org/2000/svg" viewBox="0 0 28.25 58.71"><title>xadrez-peca-4</title><g id="Camada_2" data-name="Camada 2"><g id="Camada_1-2" data-name="Camada 1"><path d="M10.18,3.51a.28.28,0,0,0-.13-.26L8,1.8a.27.27,0,0,0-.36.09.27.27,0,0,0,.09.37l2,1.45a.2.2,0,0,0,.11,0L6.6,8.33c-.2.28.26.54.46.27l3.38-4.72C10.59,3.68,10.38,3.49,10.18,3.51Z" style="fill:#010101"/><path d="M12.56,14.31l-1-.2a15.44,15.44,0,0,1-.27-3.9c0-.34-.51-.33-.53,0A16.13,16.13,0,0,0,11,14l-2.36-.46c-.33-.06-.47.45-.14.51l2.62.51c.05.23.1.47.16.71a.26.26,0,0,0,.51-.14c0-.15-.07-.31-.1-.47l.74.15C12.75,14.88,12.89,14.37,12.56,14.31Z" style="fill:#010101"/><path d="M23.77,40.37c-.24-.25-.61.12-.38.37A10.4,10.4,0,0,1,25.77,45a8,8,0,0,0-2.39-3,.26.26,0,0,0-.36.1.27.27,0,0,0,.1.36,7.4,7.4,0,0,1,2.36,3.16.28.28,0,0,0,.32.19A.33.33,0,0,0,26,45.7a10,10,0,0,1,.18,1.22c0,.33.56.34.53,0A10.91,10.91,0,0,0,23.77,40.37Z" style="fill:#010101"/><path d="M8.25,33.07Z" style="fill:#010101"/><path d="M8,32.7H8S8,32.68,8,32.7Z" style="fill:#010101"/><path d="M10.52,29.37Z" style="fill:#010101"/><path d="M24.22,19.83c.09-3.41.19-6.82.28-10.23l.1-3.29a.3.3,0,0,0,0-.21L24.66,4a.24.24,0,0,0-.18-.24A.29.29,0,0,0,24.1,4c0,.06,0,.11,0,.17a18.31,18.31,0,0,0-5-3.53A7.85,7.85,0,0,0,16,0a14.72,14.72,0,0,0-3.42.56,14.06,14.06,0,0,1-3.91.57.25.25,0,0,0-.22.38c-.21.08-.26.43,0,.49a12.62,12.62,0,0,0,3.78.24.25.25,0,0,0,0,.22,3.53,3.53,0,0,0,2.22,2.19l-3,4.68a.28.28,0,0,0,0,.12L7.7,8.94a.26.26,0,1,0-.14.51l.49.06v0a9.58,9.58,0,0,0,.68,3.85.27.27,0,0,0,.32.18.26.26,0,0,0,.19-.32,9.21,9.21,0,0,1-.67-3.66l2.77.37a.3.3,0,0,0,.27-.08,21.34,21.34,0,0,0,1.23,4.79.21.21,0,0,0-.12.11A33.35,33.35,0,0,0,8.55,25.94a12.94,12.94,0,0,1-3.24-.81h0a.24.24,0,0,0,0-.08l0-1.33a47.54,47.54,0,0,1,2.53-9.37.28.28,0,0,0,.41-.22A9.37,9.37,0,0,0,7,9.16a.27.27,0,0,0-.46.27,8.68,8.68,0,0,1,1.16,4.22.26.26,0,0,0-.25.17,47.79,47.79,0,0,0-2.53,9,.25.25,0,0,0-.15.23v.69c-.07.44-.13.88-.19,1.32,0,.21.16.29.32.24l.09,0a.27.27,0,0,0,.16.34,13.16,13.16,0,0,0,4,.89.28.28,0,0,0,.13,0l0,0a.24.24,0,0,0,0,.12.29.29,0,0,0,.25.19.26.26,0,0,0,0,.23c.23.49-.34.93-.68,1.18a3.54,3.54,0,0,0-.92.89,4.81,4.81,0,0,0-.59,2.39,17.56,17.56,0,0,1-.2,2h0A.28.28,0,0,0,7,34L7,34c0,.07,0,.15,0,.22l-.18.56a.21.21,0,0,0-.16,0,.26.26,0,0,0-.1.36l.06.12c0,.14-.11.29-.17.42a.28.28,0,0,0-.18,0,.29.29,0,0,0-.13.16.35.35,0,0,0,0,.2l0,.1q-.15.28-.33.57a1.88,1.88,0,0,1-.12.18.26.26,0,0,0-.14.21,9.14,9.14,0,0,1-1.83,2,.22.22,0,0,0,0,.37.18.18,0,0,0-.11.1,3,3,0,0,0-.24,1.85.26.26,0,0,0,.31.18l0,0a.27.27,0,0,0,.1.36l1.75,1.21A.25.25,0,0,0,6,43.13a.26.26,0,0,0-.09-.36L4.13,41.55a.23.23,0,0,0-.2,0,.28.28,0,0,0,0-.22,2.38,2.38,0,0,1,.19-1.44.29.29,0,0,0-.06-.33l.06,0a10.13,10.13,0,0,0,1.67-1.73,3.7,3.7,0,0,0,.8,1.09.27.27,0,0,0,.35,0c-.06.25-.13.5-.18.76l-1.09-.75a.26.26,0,0,0-.36.1.27.27,0,0,0,.09.36l1.27.86a.29.29,0,0,0,.31.21l.19.13a.27.27,0,0,0,.36-.09.28.28,0,0,0-.1-.37L7.29,40a34,34,0,0,1,6-13.62A33.17,33.17,0,0,1,16.12,23c.24-.25-.13-.62-.37-.38-.53.55-1,1.13-1.53,1.71a.19.19,0,0,0,0-.14.28.28,0,0,0,0-.13.22.22,0,0,0,.14,0,.22.22,0,0,0,.12-.16.24.24,0,0,0,0-.2.24.24,0,0,0-.16-.12l-.68-.14a.3.3,0,0,0-.16,0c.33-.45.64-.9.93-1.37a13.94,13.94,0,0,1,2.41.4l-2,6.92a.26.26,0,0,0,.51.14l.07-.26a.25.25,0,0,0,.1.08,2.69,2.69,0,0,1,.23,2.1l-.21,1a.27.27,0,0,0-.09.44c-.06.31-.11.63-.15.94a15.23,15.23,0,0,0,.29,5.3.23.23,0,0,0,.23.19l.36,1.56a.26.26,0,0,0,.32.18.26.26,0,0,0,.19-.32L16.25,39a.27.27,0,0,0-.22-.19,14.8,14.8,0,0,1-.15-5.51,2.56,2.56,0,0,1,0-.27A4.43,4.43,0,0,0,19.43,32c.26-.22-.12-.59-.37-.37a3.91,3.91,0,0,1-3,.91,4.78,4.78,0,0,0,0-3.23,38.63,38.63,0,0,0,6.48-1.43.26.26,0,0,0-.14-.51,37.77,37.77,0,0,1-6.81,1.48l-.07,0,.63-2.18a.29.29,0,0,0,.33.27,39.66,39.66,0,0,0,6.87-1.79c.32-.12.18-.63-.14-.51a39.89,39.89,0,0,1-6.87,1.79.2.2,0,0,0-.14.08c.39-1.36.79-2.72,1.18-4.08a.25.25,0,0,0-.2-.32A.25.25,0,0,0,17,22l-.33-.07a23.53,23.53,0,0,0,4.93-.76.26.26,0,0,0-.14-.5,22.94,22.94,0,0,1-5.34.76.27.27,0,0,0-.24.33c-.43-.07-.86-.13-1.29-.16a.27.27,0,0,0-.47,0,21,21,0,0,1-1.82,2.58.28.28,0,0,0-.22-.14l-2.43-.13a.14.14,0,0,0-.11,0c.06-.26.13-.52.2-.78a.33.33,0,0,0,.18.08l2.16.26c.14,0,.26-.13.26-.26a.26.26,0,0,0-.26-.26l-2.16-.27h0a33.26,33.26,0,0,1,3-7.17,31,31,0,0,0,8.54-.42c.33-.06.19-.57-.15-.51a31.23,31.23,0,0,1-8,.44.2.2,0,0,0,.06-.25,21.2,21.2,0,0,1-1.34-5.19A.21.21,0,0,0,12,9.41l1.29-2a.26.26,0,0,0,.25.31l10.27.49q-.3,5.81-.15,11.63l-.11,4c-.06,1.83-.11,3.66-.16,5.49l0,0h0a31.41,31.41,0,0,0-4.42,4.51.27.27,0,0,0-.25,0l-2.56,1.21a.26.26,0,0,0-.1.36.27.27,0,0,0,.36.1l2.38-1.12a.23.23,0,0,0,.22.12,2.87,2.87,0,0,0,.05.31.29.29,0,0,0-.14.15,2.34,2.34,0,0,1-2.68,1.48c-.33-.08-.47.43-.14.51a2.9,2.9,0,0,0,3.14-1.42,3.81,3.81,0,0,0,2.21,2.2.26.26,0,0,0,0,.34,2.87,2.87,0,0,1,1,2.21.26.26,0,0,0,.52,0A3.36,3.36,0,0,0,22,37.88c.23-.07.3-.45,0-.51a3.22,3.22,0,0,1-2.5-3,.28.28,0,0,0,0-.13.21.21,0,0,0,.25-.07c1.57-1.72,3.13-3.45,4.69-5.17l0,0a.22.22,0,0,0,.26-.25Q24.33,24.26,24.22,19.83ZM7.06,38.56a.15.15,0,0,0,0-.07,2.87,2.87,0,0,1-.29-.31.27.27,0,0,1-.07-.08h0l0,0a1.88,1.88,0,0,1-.12-.18,2.82,2.82,0,0,1-.21-.38l0-.1h0l0,0a.14.14,0,0,0,0-.06c.1-.15.19-.31.28-.46l.11.25a.29.29,0,0,0,.16.12A.27.27,0,0,0,7.06,37a.28.28,0,0,0,0-.2l-.25-.57.15-.32.4.78a.22.22,0,0,0,.18.12C7.35,37.39,7.2,38,7.06,38.56Zm.76-2.75c-.05.14-.08.28-.13.42l-.49-.95a5.14,5.14,0,0,0,.2-.55s0-.08,0-.12l.37.56a.28.28,0,0,0,.19.12Zm.37-1c-.2-.29-.39-.58-.58-.87,0-.21.07-.42.1-.63a1.38,1.38,0,0,0,.47.36.28.28,0,0,0,.2,0,.33.33,0,0,0,.16-.12.28.28,0,0,0-.09-.37l-.14-.07-.07,0h0l0,0-.11-.12,0,0L8,32.84,8,32.71H8v0l0-.08a.19.19,0,0,0,0-.07v-.19a.29.29,0,0,0-.07-.18c0-.08,0-.15,0-.23,0-.31,0-.63.07-.95a0,0,0,0,0,0,0l.81,1.34a.26.26,0,0,0,.36.1.28.28,0,0,0,.09-.1C8.82,33.14,8.49,34,8.19,34.78Zm1-2.5a.25.25,0,0,0,0-.19l-.82-1.35A.26.26,0,0,0,8,30.65s0,0-.07.06a3.52,3.52,0,0,1,.29-1L9.34,31a.26.26,0,0,0,.37,0,.27.27,0,0,0,0-.37L8.53,29.22a4.61,4.61,0,0,1,.75-.64.31.31,0,0,0,0,.19,2.07,2.07,0,0,0,.45.68,1.94,1.94,0,0,0,.69.44h0C10,30.67,9.58,31.47,9.21,32.28Zm1.45-2.82a.36.36,0,0,0-.12-.08l0,0h0l-.07,0-.14-.08a.18.18,0,0,1-.07-.05h0l-.13-.11L10,29l0,0,0-.06a1,1,0,0,1-.08-.14.25.25,0,0,1,0-.07l0,0h0a.35.35,0,0,0-.12-.15.28.28,0,0,0-.18,0,2.65,2.65,0,0,0,.29-.29,1.3,1.3,0,0,0,.24-.41l1.09.87.07,0C11,28.92,10.82,29.19,10.66,29.46Zm.77-1.25-.83-.66a1.26,1.26,0,0,0-.21-.92l.35-.09a.3.3,0,0,0,.08.18l.54.54a.27.27,0,0,0,.19.08.27.27,0,0,0,.26-.26.27.27,0,0,0-.08-.19l-.48-.48a.27.27,0,0,0,.16-.28l.63.73a.27.27,0,0,0,.23.07C12,27.35,11.7,27.77,11.43,28.21Zm1.07-2.27a.26.26,0,1,0,.27-.45l-.19-.12.24-.08A.28.28,0,0,0,13,25a.27.27,0,0,0-.33-.18l-.34.11.43-.51.46.47a.27.27,0,0,0,.19.08.25.25,0,0,0,.18-.08.21.21,0,0,0,.07-.13l0,0a.25.25,0,0,0,.17,0q-.74.9-1.41,1.86a.2.2,0,0,0-.06-.14l-.73-.85.11-.13,0,0ZM9.66,24.38l2.34.13c-.36.42-.73.83-1.13,1.22a.27.27,0,0,0-.06.25l-.87.22A1.28,1.28,0,0,0,9.39,26a.28.28,0,0,0-.13,0A.26.26,0,0,0,9.12,26h0c.11-.58.23-1.16.37-1.74A.28.28,0,0,0,9.66,24.38ZM12.52,1.76a.21.21,0,0,0-.16-.05,12,12,0,0,1-2.81-.06C11.5,1.54,13.35.76,15.3.57a6.88,6.88,0,0,1,1.82.07L12.53,1.76ZM23.87,7.67l-10.3-.49a.28.28,0,0,0-.13,0l2-3.08c.19-.28-.27-.55-.45-.26l-.23.36a.38.38,0,0,0-.13-.09,3,3,0,0,1-1.85-1.82l0-.06L17.82,1A.23.23,0,0,0,18,.84a10.6,10.6,0,0,1,3.18,1.61A34.42,34.42,0,0,1,24,4.78l.07,0L24,5.94a51.28,51.28,0,0,1-8.84-.64c-.34-.06-.48.45-.14.51a52.53,52.53,0,0,0,8.94.66C23.92,6.87,23.89,7.27,23.87,7.67Zm.16,21-.06.06L24,26.76c0,.6.08,1.19.13,1.78A.18.18,0,0,0,24,28.62Z" style="fill:#010101"/><path d="M15.41,22.64l0-.05a.24.24,0,0,0-.12-.07l-.67-.27a.28.28,0,0,0-.2,0,.26.26,0,0,0-.13.16.28.28,0,0,0,0,.2l0,.05a.19.19,0,0,0,.12.07h0s-.06,0-.08,0l-.06,0h-.11l-.1,0A.3.3,0,0,0,14,23V23a.23.23,0,0,0,0,.14l.13.27a.23.23,0,0,0,.07.07l.09.05h.11a.19.19,0,0,0,.1,0,.29.29,0,0,0,.12-.16h0l.2.07H15a.17.17,0,0,0,.1,0,.22.22,0,0,0,.12-.15.26.26,0,0,0,0-.21.25.25,0,0,0,.17,0,.3.3,0,0,0,.12-.15A.3.3,0,0,0,15.41,22.64Z" style="fill:#010101"/><path d="M15.56,40.27a13.81,13.81,0,0,1-6.78.47c-.33-.06-.47.45-.14.51a14.34,14.34,0,0,0,7.06-.47C16,40.68,15.88,40.17,15.56,40.27Z" style="fill:#010101"/><path d="M22.05,40.09,21.65,39a.26.26,0,0,0-.32-.18l-.1.05a.28.28,0,0,0-.49-.08,3.63,3.63,0,0,1-3.26,1.65c-.34,0-.34.5,0,.52a4.1,4.1,0,0,0,3.05-1.12.25.25,0,0,0,0,.07h0a.28.28,0,0,0-.12.16l-.13.41a.17.17,0,0,0,0,.1s0,0,0,0h0a.26.26,0,0,0,0,.21.33.33,0,0,0,.16.12.28.28,0,0,0,.2,0l.06,0a.35.35,0,0,0,.07-.12l.09-.24.07.24a.27.27,0,0,0,.33.19.28.28,0,0,0,.18-.33l-.27-.94v0a.23.23,0,0,0-.08-.11h0a.18.18,0,0,0-.14-.06h0a3,3,0,0,0,.27-.35h0l.41,1.08a.27.27,0,0,0,.32.19A.26.26,0,0,0,22.05,40.09Z" style="fill:#010101"/><path d="M22.11,41c-.19,1.07-1.66,1.32-2.52,1.56a27.78,27.78,0,0,1-4,.85,15.82,15.82,0,0,1-7.39-.62l0,0a.35.35,0,0,0,0-.2l-.4-.81a.27.27,0,0,0-.36-.09.29.29,0,0,0-.12.15l-.42-.75a.28.28,0,0,0-.37-.1.27.27,0,0,0-.09.36l.49.86a10.23,10.23,0,0,1-1-.59c0-.35-.07-.71-.11-1.06a.29.29,0,0,0-.08-.19.24.24,0,0,0-.18-.07.27.27,0,0,0-.27.26l.07.65L4.93,41v-.54a.27.27,0,0,0-.53,0v.34a.26.26,0,0,0-.13.27.2.2,0,0,0-.09.06l0,0a.27.27,0,0,0-.38,0,.27.27,0,0,0,0,.37l1.08,1.08a.27.27,0,0,0,.38,0,.34.34,0,0,0,.07-.22l.54.42a.26.26,0,0,0,.36-.1.24.24,0,0,0,0-.14,13.31,13.31,0,0,0,5,1.56,22.59,22.59,0,0,0,8.52-.95c1.05-.3,2.66-.64,2.89-1.93C22.68,40.84,22.17,40.69,22.11,41Z" style="fill:#010101"/><path d="M22.74,42.64a.27.27,0,0,0-.27.46,4.37,4.37,0,0,1,2.18,3.81c0,.34.52.34.53,0A4.93,4.93,0,0,0,22.74,42.64Z" style="fill:#010101"/><path d="M22.14,42.79c-.25-.23-.63.15-.38.38a6.3,6.3,0,0,1,2.1,4.68.27.27,0,0,0,.53,0A6.91,6.91,0,0,0,22.14,42.79Z" style="fill:#010101"/><path d="M25.68,47a11.55,11.55,0,0,1-2,1.45,7.7,7.7,0,0,0-2-4.76c-.23-.24-.6.13-.37.38a7.11,7.11,0,0,1,1.89,4.56.24.24,0,0,0,0,.08,12,12,0,0,1-2.11.82.26.26,0,0,0,.14.51,12.6,12.6,0,0,0,4.88-2.66C26.31,47.18,25.94,46.81,25.68,47Z" style="fill:#010101"/><path d="M20.17,44.67c-.29-.17-.56.29-.26.45a3.69,3.69,0,0,1,1.92,3c0,.34.55.34.53,0A4.22,4.22,0,0,0,20.17,44.67Z" style="fill:#010101"/><path d="M19.41,44.84c-.21-.26-.59.12-.37.38a5.88,5.88,0,0,1,1.3,3.71.27.27,0,0,0,.53,0A6.5,6.5,0,0,0,19.41,44.84Z" style="fill:#010101"/><path d="M27.85,54.68l-.27.11a24.21,24.21,0,0,0-.75-7.39c-.08-.33-.59-.19-.51.14a24,24,0,0,1,.74,7.11.25.25,0,0,0-.14.29l0,.12a40.36,40.36,0,0,1-10.53,2.8,39.65,39.65,0,0,1-5.76.31,23.4,23.4,0,0,1-5.21-.54,6.72,6.72,0,0,1-4.26-2.69l0,0c0-.09,0-.18,0-.28a.27.27,0,0,0,.46-.18l.06-1.74L2,53a.25.25,0,0,0-.2.07.29.29,0,0,0,0,.38l.55.55q-.08.81-.21,1.62c-.06.33.45.47.51.14s.14-.85.19-1.28l.18.18a.26.26,0,1,0,.37-.37l-.49-.5v-.09l.38.29a.31.31,0,0,0,.2.07v.82a.27.27,0,0,0,.53,0v-5a3.75,3.75,0,0,0,.47.17.26.26,0,0,0,.14-.51A3.51,3.51,0,0,1,4,49.25v0A.26.26,0,0,0,3.54,49,4.76,4.76,0,0,1,1.8,47.17c-.15-.3-.61,0-.45.27a5.18,5.18,0,0,0,2.11,2.14v.89L1.08,48.34c-.26-.23-.63.15-.38.37l1.73,1.55a.21.21,0,0,0-.05.16v.09l-.68-.57a.22.22,0,0,0-.21-.18l-.41-.34a.28.28,0,0,0-.38,0,.27.27,0,0,0,0,.37l.48.4v.52L1,50.6a.28.28,0,0,0-.37.1,0,0,0,0,1,0,0c0-.54-.06-1.09-.08-1.63s-.1-1.41.3-1.84a.28.28,0,0,0,.32-.18.25.25,0,0,1,.12,0c.34,0,.34-.57,0-.53L1,46.56c-.36-1.07-.68-2.38.13-3.31a5,5,0,0,1,1-.78l0,0,.23.27L2.26,43a.25.25,0,0,0-.32-.06.26.26,0,0,0-.1.36l.13.17c-.05.08-.1.15-.14.23H1.75a.27.27,0,0,0-.19.33.37.37,0,0,1,.05.11l-.1.21a.29.29,0,0,0-.3.4l.09.18A8.15,8.15,0,0,0,1,46a.27.27,0,0,0,.19.32.26.26,0,0,0,.32-.18c0-.19.07-.37.11-.55q.33.6.72,1.17a4.87,4.87,0,0,0,0,.54.27.27,0,0,0,.26.26.28.28,0,0,0,.21-.1c.15.19.3.39.46.58a3.41,3.41,0,0,0,.13.53.25.25,0,0,0,.39.14l.07,0a.26.26,0,0,0,.33-.18l.27-1.89v0a2,2,0,0,0,.43.39,5.6,5.6,0,0,0,2.56.67,2.38,2.38,0,0,0,.22,2.32.26.26,0,1,0,.45-.27A1.84,1.84,0,0,1,8,47.87a.43.43,0,0,0,0,0l3.14.43.63.09.52,1.89a.27.27,0,0,0,.51-.15c-.16-.55-.31-1.1-.46-1.66.5.07,1,.14,1.51.18l.74,1.76a.26.26,0,1,0,.51-.14l-.67-1.57a7.2,7.2,0,0,0,2.22-.17l.66,2a.32.32,0,0,0,.23.19,19.78,19.78,0,0,1-11.15-.36c-.33-.11-.46.4-.14.51h0a.26.26,0,0,0-.15.07l0,0,0-.32a.27.27,0,0,0-.49-.07l-.19.36-.1-.3c-.11-.33-.62-.19-.51.14l.3.9a.27.27,0,0,0,.48.06l.12-.22,0,.15a.26.26,0,0,0,.44.11l.13-.16.17.39a.26.26,0,0,0,.41,0L7,52l.14.33c.06.17.3.29.44.12l.27-.33.17.57a.27.27,0,0,0,.51,0l.08-.2.25.35a.27.27,0,0,0,.46,0l.17-.33a1,1,0,0,0,.3.28.27.27,0,0,0,.37-.1l.21-.49.23.16a.23.23,0,0,0,.26,0l.37-.28.41.65c.09.15.37.19.45,0l.14-.3.37.45A.28.28,0,0,0,13,52.8l.14-.25.32.52a.27.27,0,0,0,.48-.06l.13-.43a1.14,1.14,0,0,0,.52-.24c.17.24.33.49.49.73s.45.18.49-.06l.09-.67a.93.93,0,0,0,1.06-.19l.42.34a.28.28,0,0,0,.46-.19v-.21l.11.11a.26.26,0,0,0,.42-.05l.26-.43.46.25c.16.08.42,0,.4-.23s.32-.52.46-.18c.07.16.3.29.44.11l.19-.23.7.6a.27.27,0,0,0,.44-.26l-.08-.42.21.08c.32.12.46-.39.14-.51l-.64-.24c-.2-.08-.36.14-.32.32l0,.14-.33-.28a.28.28,0,0,0-.37,0l-.15.19a.72.72,0,0,0-.64-.17.73.73,0,0,0-.53.45l-.38-.2a.27.27,0,0,0-.36.1l-.21.35-.28-.28a.3.3,0,0,0-.11-.06,18.82,18.82,0,0,0,1.81-.54c.32-.11.19-.62-.14-.51s-.89.3-1.35.42a.24.24,0,0,0,.09-.27c-.22-.68-.45-1.35-.67-2a2.31,2.31,0,0,0,1.57-1.4,1.17,1.17,0,0,0,0-.32l.36,1a.26.26,0,1,0,.51-.14l-.8-2.29a.27.27,0,0,0-.33-.19.27.27,0,0,0-.18.33l.27.79a2,2,0,0,0-1-.72,14.88,14.88,0,0,0-3-.63,29.33,29.33,0,0,0-7.37-.15c-.33,0-.34.56,0,.52a29.83,29.83,0,0,1,5.67,0c1,.09,1.92.23,2.86.41.44.08.87.17,1.3.28a2.36,2.36,0,0,1,1,.44c.72.65-.43,1.35-1,1.57a5.69,5.69,0,0,1-2.39.33c-.84,0-1.68-.17-2.51-.28l-2.84-.39c-1-.14-2.07-.23-3.08-.44-.81-.18-1.93-.78-1.55-1.79.12-.32-.39-.45-.51-.14a1.48,1.48,0,0,0,.13,1.28.27.27,0,0,0-.3.17c-.08-.06-.15-.14-.23-.21a5.14,5.14,0,0,1,.43-1.59c.14-.31-.31-.58-.46-.27a6.22,6.22,0,0,0-.43,1.41c-.08-.09-.14-.18-.22-.26A3.76,3.76,0,0,1,3.38,45h.05a.28.28,0,0,0,.12-.29,3.28,3.28,0,0,1,.27-.38A.25.25,0,0,0,4,44.26.23.23,0,0,0,4.1,44a.26.26,0,0,0-.3-.4l-.71-.83a.24.24,0,0,0,.05-.25L4.75,44a.26.26,0,1,0,.37-.37L3.5,42.13a.26.26,0,0,0-.43.26.23.23,0,0,0-.31,0l-.17-.21a1.75,1.75,0,0,0,.6-.86c.11-.32-.4-.46-.51-.14a2.13,2.13,0,0,1-1,1A3.28,3.28,0,0,0,.49,43.3a4.39,4.39,0,0,0,.08,3.53A1.87,1.87,0,0,0,0,48a16.28,16.28,0,0,0,.09,3A39.36,39.36,0,0,0,1,56.88c.07.33.58.19.51-.14s-.1-.46-.15-.69c2,2.12,5.3,2.48,8.06,2.61a40.64,40.64,0,0,0,17.67-3.11.28.28,0,0,0,.43-.18c.18-.08.38-.15.56-.24S28.16,54.54,27.85,54.68ZM3.46,53.47l-.52-.4c0-.21,0-.42,0-.63a.28.28,0,0,0,.18-.12A.26.26,0,0,0,3,52L3,51.91v-.24l.17.15a.29.29,0,0,0,.33,0ZM3.27,51a.28.28,0,0,0,.19.07v.32L2.93,51a2.35,2.35,0,0,0,0-.26ZM1.7,50.62l.71.6c0,.11,0,.22,0,.33l-.74-.5Zm0,1.06.76.51c0,.16,0,.32,0,.48l-.77-.6Zm11.3.16-.07.07-.18.3-.31-.37Zm-5.23-.49-.3.38-.13-.31a.27.27,0,0,0-.44-.11l-.07.08L6.61,51s0,0-.05-.05c.44.14.87.26,1.31.37A.28.28,0,0,0,7.74,51.35Zm1,.42a.26.26,0,0,0-.44,0l-.09-.31a.26.26,0,0,0-.14-.15c.43.1.87.19,1.31.26l-.06.07L9,52.18Zm5.14.3a.26.26,0,0,0-.25.19v0l-.24-.39a.18.18,0,0,0-.09-.08c.37,0,.75,0,1.12-.06h0A.55.55,0,0,1,13.86,52.07Zm.93-.35.44,0a.14.14,0,0,0,0,.07l-.07.48-.3-.45S14.8,51.74,14.79,51.72Zm2.33-.22,0,.29-.26-.22a.28.28,0,0,0-.45.12c-.07.26-.56.32-.66.05a.23.23,0,0,0-.1-.12c.54-.08,1.07-.19,1.6-.31A.27.27,0,0,0,17.12,51.5ZM3.94,47l-.11.81A4.57,4.57,0,0,1,3.76,47,.28.28,0,0,0,3.94,47ZM2.48,46c-.22-.36-.42-.72-.61-1.09,0,0,0-.07,0-.11a6.29,6.29,0,0,0,.63,1A1.41,1.41,0,0,0,2.48,46Zm.77.58a3.25,3.25,0,0,0,0,.54l-.31-.44c0-.13,0-.25,0-.38A3.83,3.83,0,0,0,3.25,46.55ZM2.77,43.2l.66.77a2.83,2.83,0,0,0-.2.28l-.63-.83A1.84,1.84,0,0,1,2.77,43.2Zm.16,1.53c-.07.13-.13.26-.19.4a6.89,6.89,0,0,1-.55-1l.13-.21ZM.66,51a.28.28,0,0,0,.09.1l.4.27v.35l-.09-.07a.27.27,0,0,0-.34,0C.69,51.38.68,51.17.66,51Zm.4,3.29c-.12-.73-.22-1.47-.3-2.2l.36.27Z" style="fill:#010101"/><path d="M26.55,52.57A3.93,3.93,0,0,1,23,54.06a.27.27,0,0,0-.31.16l0-.63a.22.22,0,0,0,.14.06,4.87,4.87,0,0,0,3.43-1.16c.26-.22-.12-.59-.38-.37a4.32,4.32,0,0,1-3.05,1,.21.21,0,0,0-.16.06V53A13.87,13.87,0,0,0,26,51.09a.28.28,0,0,0,.09-.37.26.26,0,0,0-.36-.09,13.64,13.64,0,0,1-3.21,1.84l-.06-1.11s0,0,0,0h.08a7,7,0,0,0,4-2.62.26.26,0,0,0-.09-.36.28.28,0,0,0-.37.09A6.38,6.38,0,0,1,22.4,50.8a.24.24,0,0,0-.18.31.24.24,0,0,0-.28.25L22,52.7a.29.29,0,0,0,0,.44l.15,2.4c0,.34.55.34.53,0l-.07-1.1a.23.23,0,0,0,.16.13A4.49,4.49,0,0,0,27,52.84C27.22,52.56,26.76,52.3,26.55,52.57Z" style="fill:#010101"/><path d="M19.31,38.29A3.41,3.41,0,0,1,17,39.88a.26.26,0,0,0-.18.32.27.27,0,0,0,.32.19,3.91,3.91,0,0,0,2.62-1.83A.26.26,0,0,0,19.31,38.29Z" style="fill:#010101"/><path d="M19.15,36.74a.26.26,0,0,0-.37,0,4.58,4.58,0,0,1-2.58,1.55c-.33.07-.19.58.14.51a5,5,0,0,0,2.81-1.69A.26.26,0,0,0,19.15,36.74Z" style="fill:#010101"/><path d="M22.61,28.86a16.71,16.71,0,0,1-5.93,1.75c-.34,0-.34.56,0,.53a17.48,17.48,0,0,0,6.19-1.82C23.18,29.17,22.91,28.71,22.61,28.86Z" style="fill:#010101"/><path d="M20.93,23,17.55,24c-.32.1-.18.61.14.51l3.38-1.05A.26.26,0,0,0,20.93,23Z" style="fill:#010101"/><path d="M19.43,19.65a25.23,25.23,0,0,1-8.23,1.22.26.26,0,0,0,0,.52l.35,0,.06,0a25,25,0,0,0,8-1.23C19.89,20.06,19.75,19.55,19.43,19.65Z" style="fill:#010101"/><path d="M23.08,17.12a50.91,50.91,0,0,1-9.91,1.18.27.27,0,0,0,0,.53,51.49,51.49,0,0,0,10-1.2C23.55,17.56,23.41,17.05,23.08,17.12Z" style="fill:#010101"/><path d="M23,11.6a29.77,29.77,0,0,1-9,.77c-.34,0-.34.5,0,.53a30.38,30.38,0,0,0,9.11-.79C23.42,12,23.28,11.52,23,11.6Z" style="fill:#010101"/><path d="M19.51,9.38l-6.75.11c-.34,0-.34.54,0,.53l6.75-.11A.27.27,0,0,0,19.51,9.38Z" style="fill:#010101"/><path d="M21.8,4.42a19.7,19.7,0,0,1-5.06-.67c-.33-.08-.47.43-.14.51A19.91,19.91,0,0,0,21.8,5,.27.27,0,0,0,21.8,4.42Z" style="fill:#010101"/><path d="M10.32,13.25l-.54-2a.26.26,0,0,0-.51.14l.54,2A.26.26,0,0,0,10.32,13.25Z" style="fill:#010101"/><path d="M9.46,50l-.38-1.62a.27.27,0,0,0-.33-.19.28.28,0,0,0-.18.33L9,50.09a.28.28,0,0,0,.33.19A.27.27,0,0,0,9.46,50Z" style="fill:#010101"/><path d="M10.59,50.21l-.54-1.48a.28.28,0,0,0-.33-.19.28.28,0,0,0-.18.33l.54,1.48a.26.26,0,1,0,.51-.14Z" style="fill:#010101"/><path d="M11.53,50.21,11.26,49a.26.26,0,0,0-.32-.19.28.28,0,0,0-.19.33L11,50.35a.26.26,0,1,0,.51-.14Z" style="fill:#010101"/><path d="M14.16,50.44l-.65-1.22a.28.28,0,0,0-.37-.1.27.27,0,0,0-.09.36l.66,1.22a.25.25,0,0,0,.36.1A.26.26,0,0,0,14.16,50.44Z" style="fill:#010101"/><path d="M15.82,49.88l-.4-.81a.26.26,0,0,0-.36-.1.28.28,0,0,0-.1.36l.41.81a.26.26,0,0,0,.36.1A.27.27,0,0,0,15.82,49.88Z" style="fill:#010101"/><path d="M16.93,50.21l-.41-1.08A.26.26,0,0,0,16.2,49a.26.26,0,0,0-.19.32l.41,1.08a.26.26,0,1,0,.51-.14Z" style="fill:#010101"/></g></g></svg>