<svg xmlns="http://www.w3.org/2000/svg" viewBox="0 0 26.75 66.64"><title>xadrez-peca-3</title><g id="Camada_2" data-name="Camada 2"><g id="Camada_1-2" data-name="Camada 1"><path d="M16.15,2.64A.33.33,0,0,0,16,2.48a.23.23,0,0,0-.16,0,2.87,2.87,0,0,0,0-.38A2.21,2.21,0,0,0,15.57,1a2.59,2.59,0,0,0-4.28.34,1.47,1.47,0,0,0,0,1.31,1.25,1.25,0,0,0,.85.67.3.3,0,0,0,.05.44v.17a.29.29,0,0,0,.09.2.79.79,0,0,0,.19.39.56.56,0,0,0,.38.17A.25.25,0,0,0,13,4.59a.24.24,0,0,0,.07-.18A.26.26,0,0,0,13,4.22a.33.33,0,0,0-.16-.07h0l0,0,0,0s0,0,0-.06V4a.09.09,0,0,1,0-.05v0h0l0,0h0A.28.28,0,0,0,13,3.77a.24.24,0,0,0,0-.2v0l.39-.12v.76a.27.27,0,0,0,.53,0V3.29h0v1a.27.27,0,0,0,.27.27.27.27,0,0,0,.26-.27V3.24s0,0,0,0l.16,0v1a.26.26,0,0,0,.26.26.27.27,0,0,0,.27-.26V3.12l.33,0a.37.37,0,0,0,.25-.15h0V3a.92.92,0,0,1,0,.16v0s0,0,0,.08l0,.07h0v0a.64.64,0,0,1-.08.14v0l-.06.06-.06.06h0l0,0a.27.27,0,0,0-.09.36.26.26,0,0,0,.36.09A1.3,1.3,0,0,0,16.15,2.64Zm-.88-.07a11.24,11.24,0,0,0-2.64.53v0l0,0h0s0,0,0,0a.26.26,0,0,0-.25-.2c-.63,0-.78-.82-.53-1.27a2.14,2.14,0,0,1,1.57-1A1.82,1.82,0,0,1,15,1.12,1.5,1.5,0,0,1,15.27,2.57Z" style="fill:#010101"/><path d="M17.79,11.36a.26.26,0,0,0-.36.1l-.07.1,0,0,0,0-.15.17-.08.07-.05,0,0,0,0,0,0,0-.1.07-.19.1-.06,0h0l-.11,0a1.41,1.41,0,0,1-.22.06l-.12,0h-.07a.28.28,0,0,0-.27.27.27.27,0,0,0,.27.26,2.44,2.44,0,0,0,1.83-1.11A.28.28,0,0,0,17.79,11.36Z" style="fill:#010101"/><path d="M18.19,13.11a.26.26,0,0,0-.36.1l-.11.2,0,.05h0l-.08.09-.08.08-.05,0h0a1.32,1.32,0,0,1-.2.12l-.1,0h0l-.05,0-.22.06h-.18a.4.4,0,0,1-.11,0h-.08a.27.27,0,0,0-.32.19.26.26,0,0,0,.18.32,1.78,1.78,0,0,0,1.9-1A.28.28,0,0,0,18.19,13.11Z" style="fill:#010101"/><path d="M18.87,14.33a.27.27,0,0,0-.36.1,1.19,1.19,0,0,1-.34.33,1.22,1.22,0,0,1-.49.19l-.07,0H17.2a1.09,1.09,0,0,1-.49-.19.26.26,0,1,0-.27.45A1.86,1.86,0,0,0,19,14.69.26.26,0,0,0,18.87,14.33Z" style="fill:#010101"/><path d="M14.6,19.3a.25.25,0,0,0-.26.26.09.09,0,0,1,0,.05h0a.29.29,0,0,1,0,.09s0,.08,0,.1h0l0,0a.41.41,0,0,1-.05.09l0,0h0a1.06,1.06,0,0,1-.15.15h0l0,0-.09,0-.09,0h-.05l-.1,0h-.21s0,0,0,0a.26.26,0,0,0-.32.18.28.28,0,0,0,.19.33,1.36,1.36,0,0,0,1.08-.31,1.33,1.33,0,0,0,.49-1A.27.27,0,0,0,14.6,19.3Z" style="fill:#010101"/><path d="M14.17,20Z" style="fill:#010101"/><path d="M7.92,28.45a2.37,2.37,0,0,1-.41-4.07c.27-.21-.11-.58-.38-.38a2.91,2.91,0,0,0,.52,4.91C8,29.06,8.23,28.6,7.92,28.45Z" style="fill:#010101"/><path d="M7.77,24.77a2.58,2.58,0,0,0-.46,3c.16.29.62,0,.46-.27a2,2,0,0,1,.38-2.39C8.39,24.9,8,24.53,7.77,24.77Z" style="fill:#010101"/><path d="M22.61,47.29a8,8,0,0,1-5.34,2,.23.23,0,0,0-.24.19l0,0a2.46,2.46,0,0,0-.93-.16l-.15-2.65a.24.24,0,0,0,.14.05,4.94,4.94,0,0,0,1.8-.13.26.26,0,0,0,.23.38,3.14,3.14,0,0,0,2.44-1.28.26.26,0,1,0-.45-.27,2.6,2.6,0,0,1-1.68,1,5.06,5.06,0,0,0,1-.54c.28-.2,0-.66-.27-.46a4.54,4.54,0,0,1-3.1.79.22.22,0,0,0-.17.06l-.05-.9.09,0a5.61,5.61,0,0,0,2.83-.73c.3-.16,0-.62-.27-.45a5.18,5.18,0,0,1-2.56.65.24.24,0,0,0-.12,0l-.08-1.42a.21.21,0,0,0,.11.07,4.49,4.49,0,0,0,3.32-.24c.31-.14,0-.6-.27-.45A4,4,0,0,1,16,43a.22.22,0,0,0-.27.09L15.63,42a3.42,3.42,0,0,0,2.91.2.26.26,0,0,0,.19-.32.26.26,0,0,0-.33-.18,3,3,0,0,1-2.52-.16.24.24,0,0,0-.27,0l-.18-3a2.93,2.93,0,0,0,2.77-.24.26.26,0,1,0-.26-.45,2.43,2.43,0,0,1-2.32.21.28.28,0,0,0-.22,0l-.06-1A5.26,5.26,0,0,0,18,36.8c.32-.11.18-.62-.14-.51a4.84,4.84,0,0,1-2.56.19l0-.55a3.14,3.14,0,0,0,2.39-.37c.28-.18,0-.64-.27-.46a2.59,2.59,0,0,1-2.15.27l0-.48,0-.65a6.38,6.38,0,0,0,2.5-.16.49.49,0,0,0,0,.12.26.26,0,0,0,.32.18l.95-.27a.25.25,0,0,0,.18-.32.26.26,0,0,0-.32-.19l-.62.18a.25.25,0,0,0-.32-.29,6,6,0,0,1-2.73.2L15,30.76c0-.33-.55-.34-.53,0,.05.95.11,1.89.16,2.84a.26.26,0,0,0-.11.51l.15,0,.07,1.28,0,0a.24.24,0,0,0,.05.22l0,.84a.26.26,0,0,0,0,.37q.24,4.24.5,8.48l.24,4.13a.26.26,0,0,0,.15.22.18.18,0,0,0,.17.07h.55l.18,0,.18,0,0,0,.09,0L17,50s0,0,0,0l.06.07,0,0h0l.08.14h0v0l0,.08v.05a.09.09,0,0,1,0,0,.13.13,0,0,1,0,.06.18.18,0,0,1,0,.06v0l0,0h0l0,0h0l-.06,0h0l-.07,0h-.12s0,0,0,0h-.07s-.05-.06,0,0,0,0,0,0a.26.26,0,1,0-.45.27.81.81,0,0,0,1.35,0,.93.93,0,0,0,0-.9,1,1,0,0,0-.18-.27A8.6,8.6,0,0,0,23,47.67C23.24,47.44,22.87,47.07,22.61,47.29Z" style="fill:#010101"/><path d="M16.87,50.81h0Z" style="fill:#010101"/><path d="M7.07,41.18h0Z" style="fill:#010101"/><path d="M7.78,36.21h0Z" style="fill:#010101"/><path d="M25.89,55.11c-.49.35-1,.68-1.53,1a6.92,6.92,0,0,0-.14-5.1.18.18,0,0,0-.1-.11l.81-.52a6.57,6.57,0,0,1,.42,4.45.27.27,0,0,0,.51.15,7.11,7.11,0,0,0-.58-5.08l0-.08-.09-.17a.26.26,0,0,0-.46.26,18.6,18.6,0,0,1-7.08,2.88.22.22,0,0,0-.17.32,3.28,3.28,0,0,0-1-.47l-.25-.05a22,22,0,0,0,3.92-.89,20.23,20.23,0,0,0,4.62-2.21c.29-.19,0-.65-.26-.46a21,21,0,0,1-17,2.4c-.47-.14-.94-.3-1.4-.47a.25.25,0,0,0,.07-.41L4.59,49a.26.26,0,0,0,0-.08l-.06-.11h0a.14.14,0,0,1,0-.06.56.56,0,0,1,0-.12.07.07,0,0,0,0,0h0a1.92,1.92,0,0,1,0-.24v-.07l0-.13,0-.11,0,0v0a2.39,2.39,0,0,1,.13-.21h0l0-.05.08-.08,0,0h0l.1-.07a3.37,3.37,0,0,0,1.72,1.3l0,.11a.26.26,0,0,0,.51.14l.06-.15a.25.25,0,0,0,.19-.17.3.3,0,0,0,0-.21l0,0a.2.2,0,0,0-.1-.27L9.67,34.39l.72-4.21c.06-.34-.45-.48-.51-.14l0,.12-1.28-.35a.27.27,0,0,0-.2,0s0,0,0-.08a.28.28,0,0,0-.18-.3,1.1,1.1,0,0,1,0-.18.2.2,0,0,0,0-.11l0,0a15.75,15.75,0,0,0,4.05.92l0,0a.26.26,0,0,0,.19.08.25.25,0,0,0,.18-.08h0a.24.24,0,0,0,.25.07.31.31,0,0,0,.1-.05h.46l.36.6a.26.26,0,1,0,.45-.26l-.2-.34a15.65,15.65,0,0,0,4.6-.8.21.21,0,0,0,.22.17c.06.42.1.84.15,1.26a3.49,3.49,0,0,1-3.92.83c-.3-.14-.57.31-.26.46a4.06,4.06,0,0,0,4.26-.63c.13,1,.24,2.07.35,3.1a.3.3,0,0,0-.16,0,3,3,0,0,1-.38.24,2.2,2.2,0,0,1-.39.18,3.59,3.59,0,0,1-.43.14l-.22,0-.12,0h-.08a.27.27,0,0,0-.26.27.25.25,0,0,0,.26.26,4.19,4.19,0,0,0,1.84-.68c0,.2,0,.41.05.61a.26.26,0,0,0-.32,0l-.15.14-.08.07,0,0a2.56,2.56,0,0,1-.35.22.76.76,0,0,1-.18.09h-.05l-.1,0a3.11,3.11,0,0,1-.41.11.26.26,0,0,0-.19.32.27.27,0,0,0,.33.19,3,3,0,0,0,1.59-.86c0,.17,0,.35.05.52h0l-2,.8a.26.26,0,1,0,.14.51l1.95-.77c.11,1.28.21,2.55.3,3.83L18.84,42a.26.26,0,0,0,0,.37.28.28,0,0,0,.37,0l1-.79c0,.32,0,.64.05,1l-1.72.94a.27.27,0,0,0-.09.37.27.27,0,0,0,.36.09l1.48-.82.06,1a.34.34,0,0,0-.15.07,2.73,2.73,0,0,1-.79.55,2.77,2.77,0,0,1-.89.22.28.28,0,0,0-.27.27.27.27,0,0,0,.27.26,3.3,3.3,0,0,0,1.86-.76c0,.11,0,.23,0,.34,0,.34.54.34.53,0,0-.65-.07-1.31-.11-2,.1,1.06.2,2.11.29,3.17a.29.29,0,0,0,.36.24l0,.45h0a.28.28,0,0,0-.36.1,4.24,4.24,0,0,1-3.15,1.63c-.34,0-.34.54,0,.52a4.74,4.74,0,0,0,3.53-1.8v.22c0,.34.54.34.53,0l0-.48a.89.89,0,0,0,.4-.07h.15a.28.28,0,0,0,.18,0,.39.39,0,0,0,.19-.36.43.43,0,0,0,0-.11v-.06a.28.28,0,0,0,0-.2.28.28,0,0,0-.16-.12.27.27,0,0,0-.26.08l-.09,0a.26.26,0,0,0-.3,0l-.1.09,0-1a3.33,3.33,0,0,1,1.57,3.17c0,.14.13.26.26.26a.26.26,0,0,0,.26-.26,3.83,3.83,0,0,0-1.91-3.68.2.2,0,0,0-.21,0,.28.28,0,0,0-.42-.13l-.18-2c0-.3-.47-.33-.52-.08,0-.49-.07-1-.1-1.47h0a.27.27,0,0,0,0-.38l0,0C20.39,37,20,33.27,19.54,29.52a.26.26,0,0,0,.21-.44L19.69,29l.36-.15c.19-.08.16-.29,0-.41a3.13,3.13,0,0,0,.76-1.52A3.29,3.29,0,0,0,20,24.11c-.23-.25-.61.12-.38.37a2.68,2.68,0,0,1-.27,3.95,1,1,0,0,0,0-.17.27.27,0,0,0,.09-.12,3.32,3.32,0,0,0-.63-3.46l.46-.13c.33-.11.19-.62-.14-.51h-.05l0,0a.23.23,0,0,0,.24-.18l.06-.23A3.91,3.91,0,0,0,20,21.72a.28.28,0,0,0-.15-.24,22.47,22.47,0,0,0-2-13.06,22.33,22.33,0,0,0-1.13-2,.33.33,0,0,0-.1-.14c-.36-.56-.74-1.11-1.15-1.64-.21-.26-.58.11-.38.38A17.87,17.87,0,0,1,16.12,6.5h0l-.05,0,0,0,0,0-.07,0h0l-.13,0H15.6l-.07,0h0a.3.3,0,0,0-.3,0l-.33-2c-.06-.33-.57-.19-.51.14.35,2.14.71,4.28,1.06,6.42a.32.32,0,0,0,0,.21.25.25,0,0,0,.09.13l.07.4c0,.33.56.19.51-.14L16,11.55a3.43,3.43,0,0,0,1.69-1,.26.26,0,0,0-.37-.37,3,3,0,0,1-1.41.84c-.07-.48-.15-.95-.23-1.42a1.81,1.81,0,0,0,1.86-.47,22,22,0,0,1,1.91,7.33.37.37,0,0,0-.18,0l-1.64.85A11,11,0,0,0,17.21,16a.27.27,0,0,0-.33-.18.26.26,0,0,0-.18.32.69.69,0,0,0,0,.1c-.17-.09-.4,0-.38.21l.25,3.24c0,.34.56.34.53,0l-.24-3a8.72,8.72,0,0,1,.47,2.2.28.28,0,0,0,.07.17.27.27,0,0,0,.09.35,1.59,1.59,0,0,0,2-.52s0,0,0-.06c0,.19,0,.38,0,.57a22.17,22.17,0,0,1-.39,3,.27.27,0,0,0-.31-.14l-1.08.34c0-.07,0-.14,0-.21l.28-.06a.28.28,0,0,0,.16-.12.28.28,0,0,0,0-.2.23.23,0,0,0-.13-.16.34.34,0,0,0-.2,0l-.14,0c0-.2,0-.41.06-.61a4.59,4.59,0,0,0,.9-.24.26.26,0,0,0-.14-.51,3.58,3.58,0,0,1-.64.18h0a1.29,1.29,0,0,0,.16-.09.27.27,0,0,0-.27-.46,1.32,1.32,0,0,1-.2.12.22.22,0,0,0-.13.08h0l-.06,0-.1,0-.19,0-.2,0H16.4a.27.27,0,0,0-.33.18.31.31,0,0,0,.07.26.27.27,0,0,0-.12.18.23.23,0,0,0-.1-.17.23.23,0,0,0,.08-.19c0-.1,0-.2-.05-.3a.24.24,0,0,0,.31-.24c-.11-1.93-.23-3.86-.34-5.78a.2.2,0,0,0,0-.16c0-.17-.05-.34-.08-.5v-.17a.34.34,0,0,0-.06-.16,6.16,6.16,0,0,0-.7-1.65v-.09a.23.23,0,0,0-.23-.24,6.24,6.24,0,0,0-.86-1l0-.79a.26.26,0,0,0-.52,0v.35c-.09-.06-.17-.13-.27-.19A5.38,5.38,0,0,0,10.63,9a2.87,2.87,0,0,0-1,.13A43,43,0,0,1,12,4.89c.18-.28-.27-.55-.46-.26a43.3,43.3,0,0,0-2.76,5,1.5,1.5,0,0,0-.42.83.28.28,0,0,0,.26.32c0,.68-.07,1.36-.1,2a.17.17,0,0,0,0,.14v.33l-.09.09-.15.28a.23.23,0,0,0-.25.12A11.14,11.14,0,0,0,7.7,24.16a.24.24,0,0,0,.4.05c.06.11.11.22.18.34a.23.23,0,0,0,.3.1.24.24,0,0,0,.16.13l.53.12L9.18,25a1.74,1.74,0,0,0,1.67,2.9.23.23,0,0,0,.19-.28,6,6,0,0,0,2.15.22,9,9,0,0,0,2.31-.32,1.56,1.56,0,0,0,1.19-1.24,1.21,1.21,0,0,0-.35-1c.5-.07,1-.16,1.49-.27,0,0,0,0,0,0a6.77,6.77,0,0,1,1,3.83,14.86,14.86,0,0,1-4.94.84l-.08-.13a6.12,6.12,0,0,0,3.38-.43l0,0a.27.27,0,0,0,.41-.05,3.08,3.08,0,0,0-.11-3.37.27.27,0,0,0-.36-.09.27.27,0,0,0-.1.36,2.55,2.55,0,0,1,.16,2.74.32.32,0,0,0-.3,0,5.48,5.48,0,0,1-3.05.37.29.29,0,0,0-.3.13.26.26,0,0,0-.43.3l.13.21h-.13l-.19-.68a.26.26,0,0,0-.51.14l.14.51h0L12,29a.24.24,0,0,0-.18-.07.26.26,0,0,0-.19.07.27.27,0,0,0-.08.19.36.36,0,0,0,.08.19l.14.16-.39-.05a0,0,0,0,1,0,0L11,28.61a.26.26,0,0,0-.36-.1.27.27,0,0,0-.09.37l0,.09L10,28.41a.27.27,0,1,0-.38.37l.4.4a15.68,15.68,0,0,1-1.65-.5c-.24-.1-.38.18-.29.37a.29.29,0,0,0-.41.22A128.58,128.58,0,0,1,5.47,42.06c-.25,1.09-.51,2.17-.79,3.25h0a3.21,3.21,0,0,0-2.13,1.41,3.14,3.14,0,0,0-.33,2.67,4.76,4.76,0,0,0-2,5.3.26.26,0,0,0,.45.1.28.28,0,0,0,.08.11,21.2,21.2,0,0,0,9.57,4.34,21,21,0,0,0,15.86-3.68C26.43,55.37,26.16,54.91,25.89,55.11ZM17.3,8.63l-.07.09v0l0,0-.09.09,0,0h0a1.43,1.43,0,0,1-.21.12l0,0h0l-.12,0-.11,0-.06,0h-.36l-.11,0-.11,0,0,0,0,0a.33.33,0,0,0-.17,0l0-.22.89-.39c.06,0,.1-.1.12-.15a.26.26,0,0,0,0-.21A.3.3,0,0,0,16.4,8a.37.37,0,0,0-.21,0l-.71.3-.19-1.16A1,1,0,0,0,16.4,7c.33.54.63,1.1.91,1.67Zm2.12,9.88a.27.27,0,0,0-.36.1l0,0,0,0-.07.07-.08.07h0l0,0a.93.93,0,0,1-.19.11l-.05,0-.11,0-.09,0h-.06a.74.74,0,0,1-.21,0h-.05L18,19l-.08,0a.14.14,0,0,0,0-.09,7.14,7.14,0,0,0-.14-1,.14.14,0,0,0,.09,0L19.5,17c0,.56,0,1.12,0,1.69A.27.27,0,0,0,19.42,18.51Zm-2.89,2.77.07,0a4.85,4.85,0,0,0,.66,0c0,.22-.05.44-.06.67h0a.25.25,0,0,0-.16.12.28.28,0,0,0,0,.2.25.25,0,0,0,.12.16l.08,0c0,.1,0,.2,0,.3l-.16.05a.26.26,0,0,0,.14.51l.1,0a.26.26,0,0,0,.16.13l-.33.12a.28.28,0,0,0-.33-.27l-.36,0C16.48,22.66,16.5,22,16.53,21.28Zm-2-9.34v4.52a.27.27,0,0,0,.53,0V13a5.19,5.19,0,0,1,.24.88c.11,1.79.22,3.58.32,5.36a9,9,0,0,0-1.58-3,.25.25,0,0,0,.05-.16l-.1-4.8A5.13,5.13,0,0,1,14.58,11.94Zm-1.65-1.62.25.16.32.26c0,1.64.07,3.27.1,4.91a9.71,9.71,0,0,0-1-.93C12.72,13.26,12.82,11.79,12.93,10.32Zm-1.8-.74a5.34,5.34,0,0,1,1.29.45c-.1,1.44-.21,2.89-.31,4.33l-.33-.22c0-1.34,0-2.68,0-4a.27.27,0,0,0-.53,0c0,1.24,0,2.48,0,3.72a4.73,4.73,0,0,0-.45-.23l.06,0a.25.25,0,0,0-.07-.42V9.58s0,0,0,0S11,9.56,11.13,9.58Zm-1.06,0h.2a0,0,0,0,0,0,0v3.81l-.38-.14c.06-1.23.13-2.45.19-3.68Zm-1,.63.13-.27a1.62,1.62,0,0,1,.29-.19L9.36,13.1l-.21,0a.14.14,0,0,0-.09,0l.14-2.66A.25.25,0,0,0,9.12,10.19Zm-.84,4.66.75.37a.31.31,0,0,0,.21,0,.27.27,0,0,0,.15-.13.26.26,0,0,0-.09-.36l-.8-.39c.12-.25.25-.49.39-.73a.56.56,0,0,0,0-.12h0l.08,0,.39.1a.23.23,0,0,0,.23.07l.3.1a11,11,0,0,0-.83,2.63l-.08,0H8.74l-.16,0-.07,0h0l-.13-.08-.06,0,0,0-.12-.12a.26.26,0,0,0-.29-.06A11.22,11.22,0,0,1,8.28,14.85Zm-.61,6.63-.06-.38a11.57,11.57,0,0,0,5.07,1.4c.34,0,.34-.51,0-.53a11.08,11.08,0,0,1-5.19-1.54,11.8,11.8,0,0,1,0-2.06l1.94.48a.25.25,0,0,0,.24-.06,5.78,5.78,0,0,0,1.16,1.53,3.51,3.51,0,0,1-2.81-1,.27.27,0,0,0-.38.38,4.06,4.06,0,0,0,3.2,1.19.28.28,0,0,0,.26-.27.06.06,0,0,0,0,0,6,6,0,0,0,2.78,1.33c.33.06.48-.45.14-.51a5.55,5.55,0,0,1-4-3,.24.24,0,0,0-.44,0h0l-2-.5a10.64,10.64,0,0,1,.25-1.37l0,0A1.46,1.46,0,0,0,9,17c0,.32-.07.63-.09,1s.52.34.53,0a10.25,10.25,0,0,1,1-3.92,8,8,0,0,1,.92.47l.07,0c.23.14.44.29.66.44h0c0,.2.16.27.31.24a8.37,8.37,0,0,1,3.09,5.56.28.28,0,0,0,.12.2.29.29,0,0,0-.09.2l-.12,2.27A12.8,12.8,0,0,1,7.67,21.48Zm8.43,4.94c-.23.5-.91.62-1.39.7A7.43,7.43,0,0,1,10.82,27c-.26-.1-.39.22-.26.41a1.25,1.25,0,0,1-1.16-.58,1.27,1.27,0,0,1,.15-1.46.26.26,0,0,0,0-.37,19.47,19.47,0,0,0,6.09.33.24.24,0,0,0,.19.21C16.21,25.59,16.24,26.11,16.1,26.42ZM8.88,24.27a.2.2,0,0,0-.15,0,10.56,10.56,0,0,1-.86-2.06A13.28,13.28,0,0,0,15.1,24a11.21,11.21,0,0,1-6.48-1.14c-.3-.16-.57.3-.27.45a11.78,11.78,0,0,0,9.46.57V24a.27.27,0,0,0,.27.26.26.26,0,0,0,.26-.26v-.94a.15.15,0,0,0,0-.07l.63-.2a.19.19,0,0,0,.09-.05c-.05.21-.09.43-.14.64s-.13.2-.21.3a.27.27,0,0,0,0,.37.23.23,0,0,0,.12.06A18.74,18.74,0,0,1,8.88,24.27Zm-.56,6a.25.25,0,0,0,.12.08l1.33.36-.15.92-1.19-.4a.25.25,0,0,0-.27.09C8.21,30.94,8.27,30.59,8.32,30.24Zm-.2,1.31a.25.25,0,0,0,.17.16l1.21.41h0l-.24,1.37,0,0-.18,0L9,33.4a.15.15,0,0,0-.07,0h0l0,0-.09,0-.15-.1-.07,0s-.05,0,0,0h0L8.39,33l-.12-.13,0,0h0l-.05-.08a.31.31,0,0,0-.25-.13ZM7.81,33.5c0-.1,0-.2.05-.3A2.15,2.15,0,0,0,9.11,34a.17.17,0,0,0,.1,0L9,35.38l-1.32-1C7.7,34.1,7.76,33.8,7.81,33.5ZM5.14,45.66l.12-.45a2.5,2.5,0,0,0,1.41,1.32A.27.27,0,0,0,7,46.35.29.29,0,0,0,6.81,46l0,0h0l-.11-.06-.2-.11-.1-.07s-.06,0,0,0l0,0-.17-.16A1.3,1.3,0,0,1,6,45.38H6l0,0-.06-.09L5.73,45a.54.54,0,0,0-.05-.11h0a.25.25,0,0,1,0-.07.29.29,0,0,0-.26-.19l.21-.85,1.12.69A.27.27,0,1,0,7,44l-1.26-.77c.08-.29.14-.59.22-.88a2.79,2.79,0,0,0,1.12.76A.27.27,0,0,0,7.41,43a.28.28,0,0,0-.19-.33l-.08,0h0l0,0-.16-.09-.16-.09-.08-.06,0,0h0l-.26-.24-.13-.14,0,0h0l-.06-.09-.06-.06.15-.67a2.53,2.53,0,0,0,1.09.85.28.28,0,0,0,.2,0,.26.26,0,0,0,.13-.16.27.27,0,0,0-.19-.32h0l-.07,0-.16-.09-.14-.1h0L7,41.11a1.42,1.42,0,0,1-.24-.25l0,0h0a.18.18,0,0,1,0-.07,1.3,1.3,0,0,1-.1-.15.25.25,0,0,0-.17-.13c.06-.25.11-.5.16-.75l1,.61a.26.26,0,0,0,.36-.1.27.27,0,0,0-.09-.36l-1.08-.67,0,0,.21-1A1.8,1.8,0,0,0,8,39a.26.26,0,0,0,.32-.18.28.28,0,0,0-.18-.33L8,38.41l0,0s0,0,0,0h0l0,0-.18-.1,0,0s-.05,0,0,0,0,0,0,0l0,0A.93.93,0,0,1,7.39,38l0,0h0s0,0,0,0l0-.08a1.62,1.62,0,0,1-.1-.18l0,0h0a.3.3,0,0,1,0-.1.22.22,0,0,0-.09-.12l.21-1a1.69,1.69,0,0,0,.9.7.26.26,0,0,0,.14-.51l-.09,0h0L8,36.44l0,0H8s0,0-.06-.06l-.12-.12,0,0h0l0-.06L7.63,36s0,0,0,0h0l0-.08a1.16,1.16,0,0,1,0-.18.24.24,0,0,0-.11-.15c0-.19.06-.37.1-.55l1.21.89a.15.15,0,0,0,.13,0L7.37,44.73,6.76,48.3A2.9,2.9,0,0,1,5.3,47.11a2.11,2.11,0,0,0,1,.62.27.27,0,0,0,.32-.19.26.26,0,0,0-.18-.32l-.12,0-.06,0h0L6,47,5.91,47h0a.1.1,0,0,0-.05,0l-.18-.18,0-.05,0,0-.05-.08a2.39,2.39,0,0,1-.13-.21l0-.06h0l0-.12a1.83,1.83,0,0,1-.06-.25.24.24,0,0,0-.18-.18A.44.44,0,0,1,5.14,45.66ZM3,47A2.66,2.66,0,0,1,4.53,45.9c0,.18-.09.36-.14.55a.25.25,0,0,0,.2.32.14.14,0,0,0,0,.11,1.76,1.76,0,0,0,.09.2h0l-.06,0-.78-.31a.27.27,0,0,0-.33.18.29.29,0,0,0,.19.33h0l-.31.09c-.17,0-.28.31-.12.44l.18.13A.86.86,0,0,0,3,48.5a.67.67,0,0,0,.34.75.85.85,0,0,0,.83.65.25.25,0,0,0,.26-.27l1.18,1.15a18.88,18.88,0,0,1-2.75-1.34l-.07,0a.26.26,0,0,0-.07-.11A2.71,2.71,0,0,1,3,47Zm.92,1.64a.27.27,0,0,0-.15.22.36.36,0,0,0-.18-.07h0s0,0,0-.05a.28.28,0,0,1,0-.18.58.58,0,0,1,.18-.16.66.66,0,0,1,.19-.09A1.82,1.82,0,0,0,3.91,48.63ZM2.26,55.4a.24.24,0,0,0,0-.3,3.52,3.52,0,0,1,.27-4c.21-.26-.16-.64-.37-.38a4.07,4.07,0,0,0-.58,4.18c-.18-.13-.36-.25-.53-.39a.28.28,0,0,0-.39,0v0A4.22,4.22,0,0,1,2.12,50.1a4.22,4.22,0,0,0,1.14,1.34A3.45,3.45,0,0,0,3.33,56a.27.27,0,0,0,.45-.16,4.06,4.06,0,0,0,.19.59C3.38,56.12,2.81,55.78,2.26,55.4Zm1.48.31,0-.06a2.9,2.9,0,0,1,0-3.91,4.12,4.12,0,0,0,.64.3A5,5,0,0,0,3.74,55.71ZM6.15,57.5c-.57-.24-1.14-.5-1.69-.79a.27.27,0,0,0,0-.3,4.42,4.42,0,0,1,.37-4.2,3.65,3.65,0,0,0,.65.1c.34,0,.34-.5,0-.52A3.54,3.54,0,0,1,4,51.29a.27.27,0,0,0-.28-.18,3.87,3.87,0,0,1-1.08-1.2,21.12,21.12,0,0,0,10.69,2.86l-.27.06c-.33.08-.19.59.14.51,1.41-.33,3.6-.77,4.51.77l.07.14a.23.23,0,0,0-.19.32,4.5,4.5,0,0,1,.22,1,1.2,1.2,0,0,1-.31.41,3.68,3.68,0,0,1-2,.61,24.8,24.8,0,0,1-4.87.2,11.61,11.61,0,0,1-2.4-.42,6.05,6.05,0,0,1-2.1-1c-.6-.49-1-1.29-.41-2a3.09,3.09,0,0,1,2.52-.65c.34,0,.34-.52,0-.53a4,4,0,0,0-2.61.55,1.7,1.7,0,0,0-.62,2,3.29,3.29,0,0,0,1.79,1.61,10.52,10.52,0,0,0,2.79.82,22.5,22.5,0,0,0,5.91-.09,4.48,4.48,0,0,0,2.31-.71h0A4.57,4.57,0,0,1,17,58.67a.3.3,0,0,0,0,.1l-.7.11A20.52,20.52,0,0,1,6.15,57.5Zm17.66-1.08c-.28.16-.56.31-.85.45A4.8,4.8,0,0,0,23,52.21c-.16-.3-.62,0-.46.27a4.23,4.23,0,0,1-.1,4.2.25.25,0,0,0,.14.36l-.62.28a6,6,0,0,0-.25-4.87c-.16-.3-.61,0-.46.27a5.47,5.47,0,0,1,.17,4.53.19.19,0,0,0,.07.26c-.21.09-.42.16-.63.24a3.65,3.65,0,0,0-.38-3.93c-.21-.26-.58.11-.37.37a3.09,3.09,0,0,1,0,3.81l0,0-.58.17a8,8,0,0,0,0-4.44.26.26,0,0,0-.51.14,7.47,7.47,0,0,1-.12,4.44v0c-.42.11-.84.21-1.27.29a5.13,5.13,0,0,0,.69-3,2.1,2.1,0,0,0,.05-1.29,2.37,2.37,0,0,0-.7-1.09h.07a18.74,18.74,0,0,0,6-2.2.23.23,0,0,0,0,.18,6.45,6.45,0,0,1,0,4.92A.2.2,0,0,0,23.81,56.42Z" style="fill:#010101"/><path d="M10.1,49.29a.26.26,0,0,0-.32-.18l-.19,0H9.13a2,2,0,0,1-.35-.09l0,0h0l-.09,0-.16-.1a.27.27,0,0,0-.27.46,2.07,2.07,0,0,0,1.71.26A.27.27,0,0,0,10.1,49.29Z" style="fill:#010101"/><path d="M14.55,49.8A3.75,3.75,0,0,1,12,49.72a.26.26,0,0,0-.14.51,4.2,4.2,0,0,0,2.86.08C15,50.2,14.87,49.69,14.55,49.8Z" style="fill:#010101"/><path d="M21.47,45.11a21.51,21.51,0,0,1-1.38-5.22h0a.27.27,0,0,0,.1-.36.26.26,0,0,0-.17-.12,22.3,22.3,0,0,1-.14-2.58.27.27,0,0,0-.53,0q0,.63,0,1.26l-.55.2a.36.36,0,0,0,0-.11,52.77,52.77,0,0,0-.56-7.64c-.05-.34-.56-.2-.51.14a52.24,52.24,0,0,1,.54,7.5.23.23,0,0,0,.16.23l-.89.32a.28.28,0,0,0-.18.33.26.26,0,0,0,.32.18l1.69-.6q0,.48.09,1h0l0,0-.07,0-.18.06-.19,0-.08,0h-.44a.24.24,0,0,0-.2.11.26.26,0,0,0-.27-.09l-2.14.59a.26.26,0,0,0,.14.51l2.14-.59a.2.2,0,0,0,.14-.09.26.26,0,0,0,.19.09,3,3,0,0,0,1.11-.19c.06.44.14.87.22,1.31a.29.29,0,0,0-.38.23,16.4,16.4,0,0,0,.35,5.5,5,5,0,0,1-1,.42,3.71,3.71,0,0,0,.52-.36.26.26,0,0,0,0-.37.27.27,0,0,0-.37,0,3,3,0,0,1-2.58.59c-.33-.07-.47.44-.14.51a3.5,3.5,0,0,0,2.32-.25c-.13.18,0,.5.27.42a5.37,5.37,0,0,0,1.09-.43c.07.26.14.52.22.78s.62.19.51-.14-.18-.61-.26-.92A4.83,4.83,0,0,0,21,47a.27.27,0,0,0,0-.38.28.28,0,0,0-.37,0,2.78,2.78,0,0,1-.34.26A15.87,15.87,0,0,1,19.94,42a22.23,22.23,0,0,0,1,3.28C21.09,45.56,21.6,45.42,21.47,45.11Z" style="fill:#010101"/><path d="M26.49,57c0-.35.07-.69.11-1s-.49-.33-.53,0-.1.92-.15,1.38a19.05,19.05,0,0,1-11.35,3c-.34,0-.34.51,0,.53A19.61,19.61,0,0,0,18,60.79a.43.43,0,0,0,0,.05c0,1.63.09,3.25.13,4.88a26.88,26.88,0,0,1-11.7-.58,1.06,1.06,0,0,1-.19-.06l-.09-5c0-.34-.54-.34-.53,0v.26q-.41,0-.81-.06l0-.61c0-.34-.54-.34-.53,0l0,.53-.44-.07c0-.26.07-.52.12-.78s-.46-.48-.51-.14-.07.54-.11.81l-.5-.13-.18-1.62a10.85,10.85,0,0,0,4.9,1.48c.34,0,.34-.51,0-.53a10.37,10.37,0,0,1-6.77-3,.3.3,0,0,0-.11-.06l0-.38c0-.33-.55-.34-.53,0,.15,2.7.3,5.39.44,8.09a.27.27,0,0,0,.52.07l.08-.25c.66.34,1.33.66,2,.94,0,.2,0,.4,0,.6s.56.34.53,0l0-.38a27.39,27.39,0,0,0,14.42,1.49v.1c0,.34.54.34.53,0v-.19q1.14-.21,2.25-.51a26.11,26.11,0,0,0,5.46-2.2c.3-.16,0-.62-.27-.46a25.89,25.89,0,0,1-2.5,1.18.31.31,0,0,0,.16-.25l.13-1,.5-.18h0l-.29.29a.26.26,0,0,0,.37.37l.81-.8a.28.28,0,0,0,.07-.23c.25-.15.11-.58-.19-.48L25,62v-.09q.38-.13.75-.3c0,.23,0,.46,0,.69a.27.27,0,0,0,.53,0c0-.31,0-.63,0-.94l.18-.09c.26-.13.08-.51-.17-.48,0-1.05.07-2.11.16-3.16l.22-.14A.28.28,0,0,0,26.49,57Zm-24,4.93c-.22-.11-.42-.23-.62-.35l0-1.5.45.15Zm-.65-4.21.32.21a.23.23,0,0,0-.08.21c0,.5.11,1,.16,1.52l-.39-.14c0-.54,0-1.08,0-1.61,0,0,0,0,0-.05ZM.71,56.8a8.3,8.3,0,0,0,.64.54v0l0,2-.42-.19a.35.35,0,0,0-.11,0Zm.61,6.31,0,0A.26.26,0,0,0,1,62.75c-.05-1-.11-2-.16-3.08l.49.22,0,1.39a.27.27,0,0,0-.18.49l.18.12V63a.25.25,0,0,0,.07.18Zm.28.13A.25.25,0,0,0,1.92,63v-.78l.68.35.09.84a.29.29,0,0,0,.44.2c0,.12,0,.24,0,.36C2.62,63.74,2.1,63.51,1.6,63.24Zm1.55-1-.07,0-.19-1.8.38.1C3.21,61.07,3.17,61.65,3.15,62.23Zm.63-1.62.52.08.1,1.93c-.25-.06-.49-.13-.73-.21C3.68,61.81,3.72,61.21,3.78,60.61Zm-.1,3.59q0-.62,0-1.23l.78.21.07,1.3v0Zm1.26.48a.23.23,0,0,0,.08-.2L5,63.28h.09a.26.26,0,1,0,.14-.51l-.26-.05-.1-2c.26,0,.53.05.79.06l.07,4.1Zm19.81-6a.34.34,0,0,0-.07.17l-.07.92-.33.2v0a.26.26,0,0,0-.26-.27.28.28,0,0,0-.27.27l0,.33-.59.25,0-.59c0-.34-.51-.34-.53,0l0,.8-.46.14.11-.6c.05-.33-.45-.47-.51-.14l-.16.88c-.2.05-.39.09-.59.12l0-.52c0-.34-.52-.34-.53,0l0,.61c-.29,0-.59.06-.88.07v-.41a.24.24,0,0,0-.26-.25A19.92,19.92,0,0,0,24.75,58.65Zm-.19,1.74-.09,1.16-.42.13.14-1.1ZM20.41,62.2l-.85,0v-.38c.29,0,.58,0,.86-.07Zm.84.51-.13.69-.23.08,0-.76Zm-.31-.51,0-.57.5-.09-.12.63Zm1.53.38v.34l-.76.27.09-.52Zm-.58-.45.12-.72.54-.16L22.5,62Zm1.1.6,0-.24.42-.1,0,.19Zm.05-.79.05-.87.54-.22-.13,1Zm-4.52-1.1a.2.2,0,0,0,0-.11l.7-.13a.25.25,0,0,0-.16.24v.41h-.28a.22.22,0,0,0-.22.12Zm.12,4.79c0-1.33-.06-2.65-.1-4a.26.26,0,0,0,.21.13H19v.38a.27.27,0,0,0,0,.44v2.29a.27.27,0,0,0,.53,0v-2.2l.83,0,0,1-.58.2c-.31.12-.18.63.15.51l.41-.15,0,1C19.76,65.4,19.2,65.53,18.64,65.63Zm4.26-1.18.05-.9.32.07,0,.32c0,.15.14.27.27.27l.1,0Zm-.54.2-1,.32.21-1.18.83-.3ZM25.73,61l-.71.31c0-.43.06-.86.1-1.29a.41.41,0,0,1,.11-.07.27.27,0,0,0,0-.43.21.21,0,0,0,.15-.3l-.21-.52a.26.26,0,0,0-.3-.17c.32-.18.65-.36,1-.56C25.78,59,25.74,60,25.73,61Z" style="fill:#010101"/></g></g></svg>