<svg xmlns="http://www.w3.org/2000/svg" viewBox="0 0 33.93 83.18">
    <title>xadrez-peca-1</title>
    <g id="Camada_2" data-name="Camada 2">
        <g id="Camada_1-2" data-name="Camada 1">
            <path d="M10.94,25.35a.22.22,0,0,0,0-.08.16.16,0,0,0-.07-.07.28.28,0,0,0-.2,0l-.37-.77a.2.2,0,0,0,.12-.1l.18-.36a.35.35,0,0,0,0-.2.19.19,0,0,0-.05-.09.16.16,0,0,0-.07-.07.3.3,0,0,0-.21,0,.26.26,0,0,0-.15.12l-.1.19-.22-.46.43-.71a.27.27,0,0,0-.46-.27l-.25.41-.46-1,.05,0,.71-.72a.26.26,0,0,0-.37-.37l-.62.62-.43-.9a.25.25,0,0,0,.21-.12l.72-1.26a.27.27,0,0,0-.1-.36.27.27,0,0,0-.36.09L8.16,20l-.32-.68s0,0,0,0a.26.26,0,0,0,.36-.09l.9-2a.27.27,0,0,0-.1-.36.26.26,0,0,0-.36.09l-.9,2a.39.39,0,0,0,0,.14l-.89-1.87L7,16.69a.27.27,0,0,0,0-.2.29.29,0,0,0-.16-.13.26.26,0,0,0-.31.17l-.18-.38A.25.25,0,0,0,6.6,16l.18-.9a.28.28,0,0,0,0-.2.24.24,0,0,0-.16-.12.26.26,0,0,0-.32.18l-.16.8-.39-.81a.29.29,0,0,0,0-.09v-.07a.47.47,0,0,0-.07-.12l-.15-.14-.28-.59a.18.18,0,0,0,.07-.05L8.16,11c.25-.24-.13-.62-.37-.38L5,13.41,4.82,13l.6-.92A.26.26,0,1,0,5,11.83l-.71,1.06a.26.26,0,0,0,.08.35q1,2.05,2,4.1a.28.28,0,0,0,0,.13.27.27,0,0,0,.07.08l1.49,3.12A.28.28,0,0,0,7.6,21a19.54,19.54,0,0,0,2.13,5.83.26.26,0,0,0,.46-.26,19.22,19.22,0,0,1-2-5.18l1,2a.25.25,0,0,0,.11.29h0c.31.66.63,1.31.94,2a.16.16,0,0,0,0,.09.12.12,0,0,0,0,.1.13.13,0,0,0,0,.09.18.18,0,0,0,.08.07.28.28,0,0,0,.2,0l.06,0a.29.29,0,0,0,.22-.33l.06-.12a.17.17,0,0,0,0-.1A.2.2,0,0,0,10.94,25.35Z"
                  style="fill:#FFFFFF"/>
            <path d="M14.42,11.67l-4-.34a.24.24,0,0,0,0-.08.32.32,0,0,0,0-.09H13a.27.27,0,0,0,0-.53H9.81a.26.26,0,0,0-.24.36H9.45a.26.26,0,0,0,0,.52h.11a.28.28,0,0,0,.25.3l4.61.38C14.76,12.22,14.76,11.69,14.42,11.67Z"
                  style="fill:#FFFFFF"/>
            <path d="M13.23,7.94A.25.25,0,0,0,13,7.79l-2.84.36a.27.27,0,0,0-.26.26c0,.13.12.29.26.27L13,8.32l.09,0v1.89a.27.27,0,0,0,.53,0v-2A.26.26,0,0,0,13.23,7.94Z"
                  style="fill:#FFFFFF"/>
            <path d="M19.39,8.5a.27.27,0,0,0-.32.19l-.36,2.48a.28.28,0,0,0,.18.33.28.28,0,0,0,.33-.19l.36-2.48A.29.29,0,0,0,19.39,8.5Z"
                  style="fill:#010101"/>
            <path d="M13.2.26A.27.27,0,0,0,12.93,0c-.13,0-.28.12-.26.26.12,1.07.24,2.13.35,3.2a0,0,0,0,1,0,0h0l-3.54.35a.27.27,0,0,0-.27.26.28.28,0,0,0,.27.27L13,4a.28.28,0,0,0,.27-.27s0,0,0,0h0c.13,0,.28-.12.26-.26C13.43,2.39,13.32,1.33,13.2.26Z"
                  style="fill:#FFFFFF"/>
            <path d="M19.39.63,13.71.29c-.34,0-.34.51,0,.53l5.14.31a.23.23,0,0,0-.09.19V3.45a.27.27,0,0,0,.53,0V1.32a.24.24,0,0,0-.07-.17h.17C19.72,1.18,19.72.65,19.39.63Z"
                  style="fill:#FFFFFF"/>
            <path d="M22.48,4.87a.27.27,0,0,0-.26-.27.24.24,0,0,0-.14.05.26.26,0,0,0-.22-.4H19a.27.27,0,0,0,0,.53h2.83a.21.21,0,0,0,.12,0,.21.21,0,0,0,0,.12l.36,3.19a.26.26,0,0,0,.26.26.27.27,0,0,0,.27-.26Z"
                  style="fill:#FFFFFF"/>
            <path d="M21.92,8.55l-2.48-.7a.26.26,0,0,0-.14.51l2.48.7A.26.26,0,0,0,21.92,8.55Z" style="fill:#FFFFFF"/>
            <path d="M10.12,7.35A2.43,2.43,0,0,1,9.79,5a.26.26,0,0,0-.18-.32.28.28,0,0,0-.33.18,2.91,2.91,0,0,0,.47,2.89.26.26,0,0,0,.37,0A.27.27,0,0,0,10.12,7.35Z"
                  style="fill:#FFFFFF"/>
            <path d="M17.7,2V4.51a.27.27,0,0,0,.53,0V2A.27.27,0,0,0,17.7,2Z" style="fill:#FFFFFF"/>
            <path d="M20.54,5.22V7.35a.26.26,0,0,0,.52,0V5.22A.26.26,0,0,0,20.54,5.22Z" style="fill:#FFFFFF"/>
            <path d="M18.23,8.49c-.16,0-.24.12-.26.27l-.33,2.48c0,.14.14.27.27.27a.28.28,0,0,0,.26-.27l.33-2.48A.28.28,0,0,0,18.23,8.49Z"
                  style="fill:#FFFFFF"/>
            <path d="M23.93,11.78l-.57-.43h0a.26.26,0,0,0-.14-.51,4.49,4.49,0,0,1-3.18-.3c-.3-.15-.57.31-.27.46a5.08,5.08,0,0,0,3.14.45.27.27,0,0,0,.1.31l.23.17a14.13,14.13,0,0,1-5.36.78c-.33,0-.33.51,0,.53a14.3,14.3,0,0,0,6-1A.27.27,0,0,0,23.93,11.78Z"
                  style="fill:#FFFFFF"/>
            <path d="M15.55,12.43l-2.34-.17a.27.27,0,0,0,0,.53l2.34.16a.27.27,0,0,0,.27-.26A.27.27,0,0,0,15.55,12.43Z"
                  style="fill:#FFFFFF"/>
            <path d="M26.91,13.72l-2.16-2.16a.27.27,0,0,0-.38.38l2.16,2.15C26.77,14.34,27.15,14,26.91,13.72Z"
                  style="fill:#FFFFFF"/>
            <path d="M26.4,15.27l-.66,1.65-2-1.39c1-.13,2.05-.28,3.07-.47.33-.06.19-.57-.14-.51a46.21,46.21,0,0,1-16.46.16c-1.51-.26-3-.59-4.49-1a.26.26,0,0,0-.14.51,46.92,46.92,0,0,0,16.6,1.49c.28,0,.57-.07.86-.1a.36.36,0,0,0,.11.16l2.34,1.62.06,0L23.7,22.09l-2.09-2.35c.05-.3.11-.59.17-.89a.24.24,0,0,0,.06.11l1.8,1.8a.27.27,0,0,0,.37,0,.25.25,0,0,0,0-.37l-1.79-1.8a.28.28,0,0,0-.38,0,0,0,0,0,0,0,0c.06-.32.12-.64.19-1l0,0,2.15,2c.25.23.63-.14.38-.38l-2.16-2a.25.25,0,0,0-.3,0c.05-.19.09-.39.14-.59s-.43-.47-.51-.14c-.24,1-.45,2-.63,3a.26.26,0,0,0-.07.36l-.18,1a.25.25,0,0,0-.09.42l0,0c0,.16-.05.32-.07.48a.27.27,0,0,0-.32,0,.28.28,0,0,0,0,.37l.22.2c-.09.65-.16,1.3-.23,2l0,0a.25.25,0,0,0-.36.09.27.27,0,0,0,.09.36l.25.18c-.06.7-.11,1.39-.15,2.09,0,.34.51.34.53,0l0-.53a.37.37,0,0,0,.14.07.25.25,0,0,0,.17,0,.26.26,0,0,0,.15,0,.49.49,0,0,0,.28-.21.69.69,0,0,0,.08-.28c0-.05,0-.11,0-.16l0-.08,0-.08.39.28a.25.25,0,0,0,.25,0l-.26.67c-.1.25.27.45.44.26l.08-.1a.28.28,0,0,0,.07-.22Q24.68,21,26.91,15.41C27,15.09,26.52,15,26.4,15.27ZM22.25,25.74a.27.27,0,0,0-.11-.15l-1.24-.88c0-.17,0-.34.05-.51l1.4,1.1.07,0Zm.36-.91-1.5-1.17L21,23.61c0-.25.07-.51.1-.76L22.38,24a.27.27,0,0,0,.38-.37L21.2,22.21c0-.15.05-.31.07-.46l1.66,1.52a.23.23,0,0,0,.28.05ZM23.35,23a.12.12,0,0,0-.05-.07l-1.93-1.78c0-.24.08-.48.12-.72l1.94,2.19.06,0Z"
                  style="fill:#FFFFFF"/>
            <path d="M24.5,17.11l-1.8-.9a.27.27,0,0,0-.36.1.27.27,0,0,0,.1.36l1.79.9a.29.29,0,0,0,.37-.1A.27.27,0,0,0,24.5,17.11Z"
                  style="fill:#FFFFFF"/>
            <path d="M20.12,23.71A.26.26,0,1,0,20,23.2l-.64.18.14-.92c.05-.34-.46-.48-.51-.14l-.19,1.22-.06,0a.26.26,0,0,0-.18.32.26.26,0,0,0,.16.18l-.33,2.18a.27.27,0,0,0-.19.18.27.27,0,0,0,.12.29l-.1.63c-.05.34.46.48.51.14l.1-.66a1.8,1.8,0,0,0,1.25-.47.26.26,0,0,0,0-.38.27.27,0,0,0-.37,0l-.07.06h0l0,0-.16.1-.08,0h0l0,0-.18.05-.09,0h-.15L19.25,24Z"
                  style="fill:#FFFFFF"/>
            <path d="M19.33,20.85a.27.27,0,0,0,0,.53A.27.27,0,0,0,19.33,20.85Z" style="fill:#FFFFFF"/>
            <path d="M19.25,19.32v.11a.26.26,0,0,0,.52,0v-.11A.26.26,0,0,0,19.25,19.32Z" style="fill:#FFFFFF"/>
            <path d="M19.51,17.61a.27.27,0,0,0,0,.53A.27.27,0,0,0,19.51,17.61Z" style="fill:#FFFFFF"/>
            <path d="M20.85,20.19a.26.26,0,0,0-.32-.18l-.9.17a.26.26,0,0,0-.19.32.28.28,0,0,0,.33.19l.9-.18A.26.26,0,0,0,20.85,20.19Z"
                  style="fill:#FFFFFF"/>
            <path d="M20.82,17.74a.33.33,0,0,0-.16-.12.28.28,0,0,0-.2,0l-.72.54a.28.28,0,0,0-.12.16.28.28,0,0,0,0,.2.24.24,0,0,0,.16.12.23.23,0,0,0,.2,0l.72-.54c.06-.05.11-.09.12-.16A.3.3,0,0,0,20.82,17.74Z"
                  style="fill:#FFFFFF"/>
            <path d="M12,28l-1.43-.38a.28.28,0,0,0-.33.19.27.27,0,0,0,.19.32l1.43.38a.26.26,0,0,0,.32-.18A.27.27,0,0,0,12,28Z"
                  style="fill:#FFFFFF"/>
            <path d="M12.91,27.34,12,23c-.07-.33-.58-.19-.51.14l.9,4.32C12.47,27.82,13,27.68,12.91,27.34Z"
                  style="fill:#FFFFFF"/>
            <path d="M10.7,16.25l-.08-.05a.19.19,0,0,0-.1,0,.33.33,0,0,0-.19.08.27.27,0,0,0-.08.19v.36a.27.27,0,0,0,.08.19.19.19,0,0,0,.09.05.16.16,0,0,0,.1,0A.23.23,0,0,0,10.7,17a.29.29,0,0,0,.08-.19v-.36A.27.27,0,0,0,10.7,16.25Z"
                  style="fill:#FFFFFF"/>
            <path d="M10.88,18.15a.27.27,0,0,0,0,.53A.27.27,0,0,0,10.88,18.15Z" style="fill:#FFFFFF"/>
            <path d="M11.24,19.77a.27.27,0,0,0,0,.53A.27.27,0,0,0,11.24,19.77Z" style="fill:#FFFFFF"/>
            <path d="M11.42,20.85a.27.27,0,0,0,0,.53A.27.27,0,0,0,11.42,20.85Z" style="fill:#FFFFFF"/>
            <path d="M9.08,15.35a.26.26,0,0,0-.37,0,3.46,3.46,0,0,0-1.32,2.71.26.26,0,0,0,.52,0,3,3,0,0,1,1.17-2.34A.27.27,0,0,0,9.08,15.35Z"
                  style="fill:#FFFFFF"/>
            <path d="M23.46,28.44a.28.28,0,0,0-.33-.19.27.27,0,0,0-.18.33,2.74,2.74,0,0,1-.12,1.36v-.26a.31.31,0,0,0,0-.19l-.16-1.08a.24.24,0,0,0-.13-.15.24.24,0,0,0-.2,0,.31.31,0,0,0-.16.12.35.35,0,0,0,0,.2l.12.78-.09,0h-.07l-.12.07-.18.18a.26.26,0,0,0-.05.09.17.17,0,0,0,0,.1.29.29,0,0,0,0,.09l-.09.12a.24.24,0,0,0,0,.26l.34.72a.27.27,0,0,0,.11.1c-.14.23.19.54.41.31A3.27,3.27,0,0,0,23.46,28.44Z"
                  style="fill:#FFFFFF"/>
            <path d="M21.92,31.66l-.54-1.44a.27.27,0,0,0-.32-.19.28.28,0,0,0-.19.33l.44,1.16h0l-.42-.84a.27.27,0,0,0-.36-.1l-.07.07a.2.2,0,0,0-.12-.08.88.88,0,0,0-.23,0,.59.59,0,0,0-.14.06.66.66,0,0,0-.21.23.71.71,0,0,0,0,.62.46.46,0,0,0,.2.19c-.42,0-.85.07-1.28.1h0l-.07,0h0a2.39,2.39,0,0,1-.22-.12l-.09-.07h0s0,0,0,0a1.41,1.41,0,0,1-.17-.18h0l0-.05-.07-.12,0-.08v0l0-.07a.27.27,0,0,0-.18-.18.3.3,0,0,0,0-.1.3.3,0,0,0,.16,0,2.35,2.35,0,0,0,1.79-2,.28.28,0,0,0-.27-.27.28.28,0,0,0-.26.27h0v0a.64.64,0,0,0,0,.07l0,.14c0,.05,0,.1-.05.15l0,0s0,0,0,0l-.15.26,0,.07,0,0-.09.11a2.09,2.09,0,0,1-.22.2h0l-.07.05-.12.08L18,30l-.06,0s0,0,0,0l0,0-.3.09a.26.26,0,0,0-.19.25.21.21,0,0,0-.16,0,13.15,13.15,0,0,1-4.92-.26.22.22,0,0,0-.18,0h0v0a1.37,1.37,0,0,1-.13-.2l0-.05v0l0-.1a.86.86,0,0,1-.06-.23h0a.15.15,0,0,0,0-.07v-.11s0-.08,0-.12h0a.13.13,0,0,0,0-.06,1.35,1.35,0,0,1,.08-.24.27.27,0,0,0-.19-.33.27.27,0,0,0-.32.19,1.48,1.48,0,0,0-.1.36l-1.1-.69a.26.26,0,0,0-.36.1.27.27,0,0,0,.09.36l1.41.88a1.72,1.72,0,0,0,.77,1.07.26.26,0,0,0,.36-.1s0,0,0,0a13.7,13.7,0,0,0,3.32.31.22.22,0,0,0-.07.24,1.23,1.23,0,0,0,.31.57h-.25l-.09,0-.17-.06,0,0-.08,0-.08-.05,0,0h0l0,0,0,0-.07-.06-.06-.06,0,0h0l-.09-.16a.27.27,0,0,0-.46.27,1.55,1.55,0,0,0,.24.33h-.62l-.89-.75a.26.26,0,0,0-.37.37l0,0h-.26l-.16,0-.08,0h0l-.14-.07-.07,0,0,0a.63.63,0,0,1-.12-.11l-.06-.06,0,0h0a.26.26,0,0,0-.36-.1.26.26,0,0,0-.09.36,1.65,1.65,0,0,0,.34.36l-.85-.08a.23.23,0,0,0-.14-.18,2.32,2.32,0,0,1-1.34-1.67l.24.11a4.34,4.34,0,0,1,.46.28,3.45,3.45,0,0,1,.38.31,3.69,3.69,0,0,1,.38.41.27.27,0,0,0,.37,0,.28.28,0,0,0,0-.38,4.28,4.28,0,0,0-1.87-1.31s0,0,0,0a2.31,2.31,0,0,1,1.76-1.94c.33-.07.19-.58-.14-.51a2.73,2.73,0,0,0-1,4.89.22.22,0,0,0-.07.17c0,2.61-.15,5.23-.37,7.83a.27.27,0,0,0-.31.39l.24.43Q9.16,45.74,8.14,51a.19.19,0,0,0,0,.15c-.09.44-.17.88-.26,1.32a.28.28,0,0,0-.26.4l.13.23c0,.21-.08.41-.13.61s-.12.5-.17.75a.27.27,0,0,0-.19.38L7.3,55c-.28,1.17-.57,2.34-.88,3.49a.29.29,0,0,0-.09.34c-.09.32-.17.64-.26,1a.27.27,0,0,0,.51.15c0-.13.07-.25.1-.37L8,62.26c.15.31.6,0,.46-.27-.51-1.06-1-2.13-1.52-3.2.11-.41.21-.83.32-1.24a10.34,10.34,0,0,0,1.68,3.14.26.26,0,0,0,.38,0,.28.28,0,0,0,0-.37,9.91,9.91,0,0,1-1.74-3.48.19.19,0,0,0-.1-.14c.08-.32.15-.64.23-1l1.19,2.38c.15.31.61,0,.46-.26L7.85,54.94l.24-1.11,1.46,2.69c.16.3.61,0,.45-.27L8.27,53c.08-.37.15-.75.23-1.13.53.93,1.06,1.87,1.6,2.8.17.3.62,0,.46-.27-.64-1.1-1.27-2.21-1.9-3.32.09-.48.17-1,.26-1.46l1.73,3.42c.16.31.61,0,.46-.26L9.36,49.37A.24.24,0,0,0,9,49.31c.12-.66.22-1.33.33-2l1.53,2.89c.16.3.61,0,.45-.26L9.67,46.88a.22.22,0,0,0-.27-.12c.2-1.29.37-2.59.52-3.88l1.29,1.91a.29.29,0,0,0,.37.1.27.27,0,0,0,.09-.36l-1.45-2.15a.28.28,0,0,0-.23-.13c0-.35.07-.7.11-1l1.1,2a.27.27,0,0,0,.46-.27l-1.47-2.64c0-.39.07-.78.1-1.17a7.64,7.64,0,0,0,1.12,1.8.27.27,0,0,0,.37,0,.27.27,0,0,0,0-.38A7,7,0,0,1,10.41,38s0,0,0-.05q.21-3,.24-6.07l.05,0a.23.23,0,0,0,.11,0,.28.28,0,0,0,.24.22c1,.12,2,.2,3,.24l0,0a.22.22,0,0,0-.2.24A112.31,112.31,0,0,1,12,56.69c-.42,2.21-.9,4.42-1.45,6.61a.26.26,0,0,0,.5.14A112.39,112.39,0,0,0,14.4,39.51q.11-3.42,0-6.86l0,0a.27.27,0,0,0,.37,0,.29.29,0,0,0,0-.31c.78,0,1.56,0,2.34,0h.25l1.09-.06a1.62,1.62,0,0,0,.62.06.33.33,0,0,0,.21-.11c.54,0,1.08-.09,1.62-.16a.26.26,0,0,0,.31,0,.34.34,0,0,0,.09-.08l.34,0a.24.24,0,0,0,.17-.13A.23.23,0,0,0,21.92,31.66Zm-4.81.17-.2-.06h0l-.05,0-.1-.06-.09-.06h0l0,0-.13-.15,0,0,0-.05a.35.35,0,0,1-.05-.08l0-.06h0l0-.12a.26.26,0,0,0-.07-.11c.34,0,.68-.05,1-.1a.32.32,0,0,0,0,.17,1.8,1.8,0,0,0,.45.72Zm3.17-.19a.31.31,0,0,0,0-.1.24.24,0,0,0,0-.2.23.23,0,0,0-.12-.1h0v0a.43.43,0,0,0,0-.05l0,0h.07l.09,0,.06-.06.29.59Z"
                  style="fill:#FFFFFF"/>
            <path d="M19.6,30.9a.26.26,0,0,0-.12-.15l-.35-.19a.31.31,0,0,0-.21,0l-.09,0a.13.13,0,0,0-.06.07.26.26,0,0,0,0,.21.26.26,0,0,0,.12.15l.36.19a.28.28,0,0,0,.2,0l.09-.05a.23.23,0,0,0,.07-.07A.26.26,0,0,0,19.6,30.9Z"
                  style="fill:#FFFFFF"/>
            <path d="M18.6,40c-.15-2.32-.3-4.65-.44-7,0-.34-.55-.34-.53,0l1.56,24.86c.15,2.32.3,4.65.44,7,0,.34.55.34.53,0Z"
                  style="fill:#FFFFFF"/>
            <path d="M9.61,63.36a3.67,3.67,0,0,1-3.13-2.75c-.07-.33-.58-.19-.5.14a4.18,4.18,0,0,0,3.63,3.14.28.28,0,0,0,.27-.27A.27.27,0,0,0,9.61,63.36Z"
                  style="fill:#FFFFFF"/>
            <path d="M12.09,66.7Z" style="fill:#FFFFFF"/>
            <path d="M23.53,66.23h0Z" style="fill:#FFFFFF"/>
            <path d="M30.4,63.11a.27.27,0,0,0-.18-.45,2.86,2.86,0,0,0-1.61-2.87.26.26,0,0,0-.36.1l0,.08a119.14,119.14,0,0,1-4.93-21.61q-.41-3.12-.65-6.27c0-.34-.56-.34-.53,0a119.21,119.21,0,0,0,1.82,13.44l-.05,0a.27.27,0,0,0-.33.18L23,49.1a.27.27,0,0,0,.18.33.28.28,0,0,0,.33-.19c.17-1.06.34-2.12.5-3.19.15.73.3,1.46.46,2.19a.25.25,0,0,0-.4.14l-.77,3.4c-.08.34.43.48.51.15l.74-3.31c.11.47.22,1,.34,1.42,0,0,0,0-.07,0a.27.27,0,0,0-.33.18c-.17,1.08-.35,2.16-.52,3.24a.26.26,0,0,0,.18.32.27.27,0,0,0,.33-.18l.5-3.11c.26,1.07.52,2.13.8,3.19l-.09,0a.28.28,0,0,0-.33.18A6.46,6.46,0,0,0,25,56.73a.27.27,0,0,0,.27.26c.13,0,.28-.12.26-.26A6.12,6.12,0,0,1,25.87,54c0,.11.05.21.08.31q.84,3.06,1.83,6.07a.2.2,0,0,0-.13.1,3.13,3.13,0,0,1-.29.42l.12-1.42a.27.27,0,1,0-.53,0c-.06.69-.11,1.38-.17,2.07a6.42,6.42,0,0,1-.93.72A96.61,96.61,0,0,1,21.26,42.3a.27.27,0,0,0,.48-.07l.72-2.34c.1-.32-.41-.46-.51-.14s-.25.83-.38,1.25a4.13,4.13,0,0,1,.51-1.94c.16-.3-.3-.57-.46-.27a4.85,4.85,0,0,0-.55,1.79c0-.39-.09-.78-.12-1.16q-.32-3.48-.37-7c0-.34-.54-.34-.53,0a96.93,96.93,0,0,0,3.56,24.42q.8,2.84,1.76,5.61a5.32,5.32,0,0,1-2.81.5c-.33,0-.33.5,0,.53a5.8,5.8,0,0,0,3-.53l.18.54c.12.32.63.18.51-.14S26.1,63,26,62.73a5.81,5.81,0,0,0,2.09-2l0-.1a.24.24,0,0,0,.17-.32s0-.05,0-.07l.05,0a2.37,2.37,0,0,1,1.36,2,.26.26,0,0,0-.35.09l-.72,1.26a.26.26,0,0,0,.09.36h0A10.81,10.81,0,0,1,24,66.21a.29.29,0,0,0-.3,0h0l-.08,0h-.24l-.17,0s-.06,0,0,0,0,0,0,0l-.08,0-.07,0,0,0L22.87,66l0,0-.05-.07s0,0,0,0h0a.38.38,0,0,0-.12-.16.3.3,0,0,0-.21,0c-.12,0-.24.19-.18.32a.92.92,0,0,0,.13.24l-.88.13-.06,0h0l0,0a1.21,1.21,0,0,1-.16-.16h0l0-.05a.41.41,0,0,1-.07-.11.26.26,0,0,0-.36-.09.27.27,0,0,0-.09.36,1.14,1.14,0,0,0,.15.23l-.17,0-1.47-.43a.26.26,0,1,0-.14.51l.3.09-.64.08h0l-.06,0h0a2.25,2.25,0,0,1-.21-.12l-.09-.06,0,0-.05,0a1.45,1.45,0,0,1-.17-.18h0l0,0L18,66.12a.26.26,0,1,0-.46.26,1.94,1.94,0,0,0,.35.45l-.84.08a1.41,1.41,0,0,1-.22-.06l-.11,0h0l-.06,0-.21-.13-.05,0s0,0,0,0l-.09-.07-.08-.09s0,0,0-.05h0s0,0,0,0a1.76,1.76,0,0,1-.14-.23.27.27,0,0,0-.36-.09.26.26,0,0,0-.09.36,1.36,1.36,0,0,0,.24.35h-.43l-.21-.06-.09,0h0l-.05,0-.18-.1,0,0,0,0,0,0,0,0c-.06,0-.11-.11-.16-.16a.26.26,0,1,0-.37.37,1.69,1.69,0,0,0,.43.37H14a.24.24,0,0,0-.12-.2l-1.26-.72a.26.26,0,0,0-.36.09.27.27,0,0,0,.09.36l.72.41-.5,0a.24.24,0,0,0-.25-.19,1.21,1.21,0,0,1-.19,0h0l-.09,0-.1,0h0l0,0a.81.81,0,0,1-.18-.1l0,0h0l-.07-.06a.46.46,0,0,0-.07-.07s0,0,0,0h0a1,1,0,0,1-.1-.17v0h0l0-.1a.26.26,0,0,0-.32-.19.27.27,0,0,0-.19.33,1.43,1.43,0,0,0,.28.53l-.62-.13h0l-.05,0a1.37,1.37,0,0,1-.17-.17.27.27,0,0,1-.07-.08l-.05,0v0a2,2,0,0,1-.24-.4.26.26,0,0,0-.36-.1.28.28,0,0,0-.1.36,2,2,0,0,0,.17.29l-.16,0A2.32,2.32,0,0,1,8.94,66a2.47,2.47,0,0,1-.69-1,.26.26,0,0,0-.32-.18.28.28,0,0,0-.19.32c0,.13.1.26.16.38a5.23,5.23,0,0,1-1.62-2.13A.28.28,0,0,0,6,63.13a.27.27,0,0,0-.18.33A6,6,0,0,0,7,65.31l-.1-.06c-.32-.17-.63-.36-.93-.56a.26.26,0,0,0,.14-.11A.27.27,0,0,0,6,64.22a2,2,0,0,1-.8-1.73.27.27,0,0,0-.26-.27.28.28,0,0,0-.27.27,2.43,2.43,0,0,0,.5,1.63c-.14-.11-.28-.24-.42-.36a.24.24,0,0,0-.18-.16h0a.23.23,0,0,0,.14-.29A2.32,2.32,0,0,1,6,60.55a.27.27,0,0,0,.1-.36.28.28,0,0,0-.37-.1,2.86,2.86,0,0,0-1.58,3.07c-.11-.12-.23-.23-.33-.35s-.6.12-.38.37.38.42.58.61a3.67,3.67,0,0,0-1.54,1.38.3.3,0,0,0-.07-.24.28.28,0,0,0-.38,0,3,3,0,0,0-.54,4,.29.29,0,0,0,.37.1.27.27,0,0,0,.09-.36,2.49,2.49,0,0,1,.42-3.32,3.51,3.51,0,0,0-.45,2.17.27.27,0,0,0,.27.26c.13,0,.28-.12.26-.26a3.18,3.18,0,0,1,2-3.32,12.21,12.21,0,0,0,3.81,2.26,1.76,1.76,0,0,0-1.05.67A2.08,2.08,0,0,0,6.86,69c.47,1.49,2,2.14,3.28,2.67.32.13.45-.38.14-.51a4.8,4.8,0,0,1-2.8-2,1.66,1.66,0,0,1,0-1.53,1.24,1.24,0,0,1,1.2-.7A.28.28,0,0,0,9,66.71l.18.06a2.85,2.85,0,0,0,.75.29.26.26,0,0,0,.21,0l.14,0a2.49,2.49,0,0,0,.73.36.28.28,0,0,0,.31-.16,24,24,0,0,0,5.92.19,1.59,1.59,0,0,0,.38,0h.15l1-.12a1.83,1.83,0,0,0,.87,0,.26.26,0,0,0,.16-.13l.89-.13.23.07a.27.27,0,0,0,.3-.15l.26,0a1.62,1.62,0,0,0,1.2.13.26.26,0,0,0,.16-.13,11.43,11.43,0,0,0,5.08-1.66.25.25,0,0,0,0,.43,3.8,3.8,0,0,1,1.74,4.45c-.11.32.4.46.51.14a4.32,4.32,0,0,0-2-5,.26.26,0,0,0-.21,0A11,11,0,0,0,30.4,63.11Z"
                  style="fill:#FFFFFF"/>
            <path d="M29,61.88a.28.28,0,0,0-.33.19l-.21.53a.26.26,0,0,0-.32.11l-.72,1.62a.26.26,0,1,0,.45.27l.2-.45.07,0a.26.26,0,0,0,.32-.19l.72-1.79A.28.28,0,0,0,29,61.88Z"
                  style="fill:#FFFFFF"/>
            <path d="M27.5,62.59a.27.27,0,0,0-.33.19c-.08.34-.15.69-.23,1a.21.21,0,0,0-.1-.11.27.27,0,0,0-.36.09l-.1.23a.28.28,0,0,0-.26.13l-.17.26a1.28,1.28,0,0,0-.81.42,1.34,1.34,0,0,0-.34.89.28.28,0,0,0,.27.27.27.27,0,0,0,.26-.27V65.6a1.24,1.24,0,0,1,0-.16.25.25,0,0,0,.11.15.27.27,0,0,0,.36-.09l.11-.15a.22.22,0,0,0,.07.06c.12.06.31,0,.36-.09.15-.34.3-.69.44-1l0,.1a.27.27,0,0,0,.19.33.26.26,0,0,0,.32-.19l.36-1.61A.27.27,0,0,0,27.5,62.59Z"
                  style="fill:#FFFFFF"/>
            <path d="M21.41,32.56h0a.26.26,0,0,0-.36.09c-.3.6-.59,1.21-.89,1.81a.27.27,0,0,0,.1.36.26.26,0,0,0,.36-.1L21.44,33A.28.28,0,0,0,21.41,32.56Z"
                  style="fill:#FFFFFF"/>
            <path d="M21.89,33.26a.27.27,0,0,0-.32.19l-.72,2a.26.26,0,0,0,.18.32.28.28,0,0,0,.33-.18l.72-2A.27.27,0,0,0,21.89,33.26Z"
                  style="fill:#010101"/>
            <path d="M22.23,36.23a.28.28,0,0,0-.25-.07l.27-.95a.28.28,0,0,0-.19-.33.26.26,0,0,0-.32.18l-.55,2a.27.27,0,0,0,0,.2,5.47,5.47,0,0,0-.55,2,.26.26,0,0,0,.26.26.26.26,0,0,0,.26-.26,4.88,4.88,0,0,1,1.05-2.68A.27.27,0,0,0,22.23,36.23Z"
                  style="fill:#FFFFFF"/>
            <path d="M22.48,41.54c-.31.9-.61,1.8-.91,2.7-.11.32.4.46.51.14.3-.9.6-1.8.91-2.69A.27.27,0,0,0,22.48,41.54Z"
                  style="fill:#FFFFFF"/>
            <path d="M22.67,43.17,22,45.87c-.08.33.43.47.51.14l.72-2.7A.26.26,0,0,0,22.67,43.17Z" style="fill:#FFFFFF"/>
            <path d="M23.36,44.6a.28.28,0,0,0-.33.19l-.54,2.52a.27.27,0,0,0,.19.32.26.26,0,0,0,.32-.18l.54-2.52A.28.28,0,0,0,23.36,44.6Z"
                  style="fill:#FFFFFF"/>
            <path d="M25.22,52.9a.27.27,0,0,0-.36.1,4.77,4.77,0,0,0-.4,2.47.28.28,0,0,0,.27.27.27.27,0,0,0,.26-.27,4.35,4.35,0,0,1,.32-2.2A.28.28,0,0,0,25.22,52.9Z"
                  style="fill:#FFFFFF"/>
            <path d="M26.06,55.58a.26.26,0,0,0-.33.18l-.54,3.6a.27.27,0,0,0,.19.32.26.26,0,0,0,.32-.18l.54-3.6A.26.26,0,0,0,26.06,55.58Z"
                  style="fill:#FFFFFF"/>
            <path d="M26.57,57a.27.27,0,0,0-.33.19c-.12.89-.24,1.79-.37,2.69a.28.28,0,0,0,.19.33.26.26,0,0,0,.32-.19c.13-.9.25-1.79.37-2.69A.28.28,0,0,0,26.57,57Z"
                  style="fill:#FFFFFF"/>
            <path d="M11.77,48.35c-.4-.91-.81-1.82-1.21-2.72a.27.27,0,0,0-.36-.1.27.27,0,0,0-.09.36l1.2,2.72a.26.26,0,0,0,.36.1A.26.26,0,0,0,11.77,48.35Z"
                  style="fill:#FFFFFF"/>
            <path d="M12.18,38.43l-1.07-2.16a.27.27,0,0,0-.37-.09.26.26,0,0,0-.09.36l1.08,2.16a.27.27,0,0,0,.36.09A.26.26,0,0,0,12.18,38.43Z"
                  style="fill:#FFFFFF"/>
            <path d="M12.72,36.27l-1.61-2.52c-.19-.28-.65,0-.46.27l1.62,2.52C12.45,36.82,12.91,36.56,12.72,36.27Z"
                  style="fill:#FFFFFF"/>
            <path d="M12.7,34l-1.08-1.25a.26.26,0,1,0-.37.37l1.08,1.26a.27.27,0,0,0,.37,0A.28.28,0,0,0,12.7,34Z"
                  style="fill:#FFFFFF"/>
            <path d="M12.93,64a.19.19,0,0,0-.07-.11l0,0a.22.22,0,0,0-.13,0H12.5l-.11,0a.35.35,0,0,0-.14.14.36.36,0,0,0,0,.1v.08a.26.26,0,0,0,.07.11l0,0a.23.23,0,0,0,.14,0h.18l.1,0a.35.35,0,0,0,.14-.14.36.36,0,0,0,0-.11Z"
                  style="fill:#FFFFFF"/>
            <path d="M14.83,63.84a.27.27,0,0,0,0,.53A.27.27,0,0,0,14.83,63.84Z" style="fill:#FFFFFF"/>
            <path d="M16.51,63.82a.14.14,0,0,0-.05-.08.15.15,0,0,0-.09-.06l-.1,0H16.2a.26.26,0,0,0-.11.07l-.05,0a.32.32,0,0,0,0,.14v.17a.36.36,0,0,0,0,.11.35.35,0,0,0,.14.14l.1,0h.07a.24.24,0,0,0,.12-.07l0-.05a.23.23,0,0,0,0-.14v-.17A.2.2,0,0,0,16.51,63.82Z"
                  style="fill:#FFFFFF"/>
            <path d="M18.31,64.18a.22.22,0,0,0,0-.08.18.18,0,0,0-.09-.06l-.1,0H18a.37.37,0,0,0-.12.07l0,.05a.31.31,0,0,0,0,.13v.18a.22.22,0,0,0,0,.11.22.22,0,0,0,.05.08.24.24,0,0,0,.09.06l.1,0h.07a.24.24,0,0,0,.12-.07l0-.05a.33.33,0,0,0,0-.14v-.18A.19.19,0,0,0,18.31,64.18Z"
                  style="fill:#FFFFFF"/>
            <path d="M23.65,68.25c-1-1.22-2.63-1.07-4-.89a.26.26,0,0,0,.14.51c1.11-.15,2.48-.31,3.34.58a1.33,1.33,0,0,1,.37,1.21,1,1,0,0,1-.78.81c-.34.06-.2.57.14.51A1.53,1.53,0,0,0,24,69.89,1.77,1.77,0,0,0,23.65,68.25Z"
                  style="fill:#FFFFFF"/>
            <path d="M22,71.44a26.05,26.05,0,0,1-10.33.41c-.33-.06-.47.45-.14.51A26.71,26.71,0,0,0,22.15,72C22.48,71.87,22.34,71.36,22,71.44Z"
                  style="fill:#FFFFFF"/>
            <path d="M8.68,72.5a1.79,1.79,0,0,1-.33-.3A.65.65,0,0,1,8.22,72a2.53,2.53,0,0,1-.13-.22A.54.54,0,0,1,8,71.71v0a.14.14,0,0,1,0-.06,2,2,0,0,1-.07-.23l0-.12V71.2a2.26,2.26,0,0,1,0-.26.27.27,0,0,0-.27-.26.26.26,0,0,0-.26.26,2.37,2.37,0,0,0,1,2,.27.27,0,0,0,.27-.46Z"
                  style="fill:#FFFFFF"/>
            <path d="M10.93,73a.33.33,0,0,0-.16-.12H10.7a.2.2,0,0,0-.13,0l0,0-.11,0a.11.11,0,0,1-.08,0l-.1,0-.07,0-.08-.07,0,0a.26.26,0,0,0-.15-.12.3.3,0,0,0-.21,0v0a.31.31,0,0,0,0-.25H9.9l.08,0A.24.24,0,0,0,10,72.3a.16.16,0,0,0,0-.1v-.07A.21.21,0,0,0,10,72l-.05,0a.28.28,0,0,0-.13,0H9.62a.12.12,0,0,0-.1,0,.19.19,0,0,0-.09.05.26.26,0,0,0,0,.09.17.17,0,0,0,0,.1v.07a.26.26,0,0,0,.07.11.26.26,0,0,0,.19.44.29.29,0,0,0,.14,0l0,.06a.3.3,0,0,0,0,.21,1.25,1.25,0,0,0,.23.23,1.12,1.12,0,0,0,.25.11,1.24,1.24,0,0,0,.27,0,1.07,1.07,0,0,0,.32-.08.33.33,0,0,0,.13-.16A.3.3,0,0,0,10.93,73Z"
                  style="fill:#FFFFFF"/>
            <path d="M4.36,65.82a.26.26,0,0,0-.26.26C4,66.62,4,67.16,3.93,67.7a.25.25,0,0,0,.26.26.27.27,0,0,0,.27-.26c0-.54.11-1.08.17-1.62A.26.26,0,0,0,4.36,65.82Z"
                  style="fill:#FFFFFF"/>
            <path d="M5.37,66.55a.26.26,0,0,0-.32.18l-.36,1.08a.27.27,0,0,0,.18.33A.28.28,0,0,0,5.2,68l.36-1.08A.26.26,0,0,0,5.37,66.55Z"
                  style="fill:#FFFFFF"/>
            <path d="M11.67,72.85a.19.19,0,0,0-.07-.12l0,0a.33.33,0,0,0-.13,0h-.18a.23.23,0,0,0-.11,0l-.08,0a.16.16,0,0,0-.05.09.17.17,0,0,0,0,.1V73a.37.37,0,0,0,.07.12l0,0a.32.32,0,0,0,.14,0h.18a.18.18,0,0,0,.1,0l.08,0a.24.24,0,0,0,.06-.09.3.3,0,0,0,0-.1Z"
                  style="fill:#FFFFFF"/>
            <path d="M12.93,73.21a.19.19,0,0,0-.07-.12l-.18-.18-.08,0a.19.19,0,0,0-.1,0l-.09,0-.09,0h-.07a.35.35,0,0,0-.12.07l0,.06a.2.2,0,0,0,0,.13v.18a.36.36,0,0,0,0,.1.47.47,0,0,0,.06.09l.08,0a.22.22,0,0,0,.11,0h.07a.3.3,0,0,0,.11-.06.18.18,0,0,0,.07,0,.22.22,0,0,0,.11,0,.18.18,0,0,0,.1,0l.08,0,0-.06a.2.2,0,0,0,0-.13Z"
                  style="fill:#FFFFFF"/>
            <path d="M30.31,64.28c-.23-.26-.6.12-.37.37a4.49,4.49,0,0,1,1,4.06c-.08.33.43.47.51.14A5,5,0,0,0,30.31,64.28Z"
                  style="fill:#FFFFFF"/>
            <path d="M26.93,68.83,25.85,67a.26.26,0,1,0-.45.27l1.08,1.79a.26.26,0,1,0,.45-.26Z" style="fill:#FFFFFF"/>
            <path d="M25.92,69.5a.28.28,0,0,0-.27-.27.27.27,0,0,0-.26.27L25.57,72a.27.27,0,0,0,.53,0Z"
                  style="fill:#FFFFFF"/>
            <path d="M3,74a.27.27,0,0,0-.37,0l-1.44,1.8a.27.27,0,0,0,0,.37.25.25,0,0,0,.37,0L3,74.36A.27.27,0,0,0,3,74Z"
                  style="fill:#FFFFFF"/>
            <path d="M3.88,74.18a.29.29,0,0,0-.38,0,15.89,15.89,0,0,0-2.43,2.69.27.27,0,0,0,.23.4l.59-.06a.27.27,0,0,0,0-.53h0a14.93,14.93,0,0,1,2-2.12A.28.28,0,0,0,3.88,74.18Z"
                  style="fill:#FFFFFF"/>
            <path d="M4.2,74.88,1.86,77.57c-.22.26.15.63.37.38l2.35-2.7C4.8,75,4.43,74.62,4.2,74.88Z"
                  style="fill:#FFFFFF"/>
            <path d="M4.8,75.92a7.6,7.6,0,0,0-3.09,3.33.27.27,0,0,0,.36.36l.67-.35c.26-.14.09-.5-.16-.49a7.13,7.13,0,0,1,2.49-2.39A.27.27,0,0,0,4.8,75.92Z"
                  style="fill:#FFFFFF"/>
            <path d="M20.67,75.52a2.82,2.82,0,0,0-2.19.06.26.26,0,0,0-.09.36.27.27,0,0,0,.36.09,2.34,2.34,0,0,1,1.78,0,.25.25,0,0,0,.32-.18A.28.28,0,0,0,20.67,75.52Z"
                  style="fill:#FFFFFF"/>
            <path d="M23.15,75.29a.24.24,0,0,0-.16-.12h-.07a.28.28,0,0,0-.13,0l-.36.18a.27.27,0,0,0-.08.07.18.18,0,0,0,0,.09.21.21,0,0,0,0,.11.19.19,0,0,0,0,.1.33.33,0,0,0,.16.12h.07a.28.28,0,0,0,.13,0l.36-.18a.27.27,0,0,0,.08-.07.18.18,0,0,0,0-.09.14.14,0,0,0,0-.11A.16.16,0,0,0,23.15,75.29Z"
                  style="fill:#FFFFFF"/>
            <path d="M33.6,77.05a38.26,38.26,0,0,0,.3-6.42.27.27,0,0,0-.52-.07l-.26.67a.29.29,0,0,0,0,.09.25.25,0,0,0-.25-.31h-.56a.27.27,0,0,0-.1.51,12,12,0,0,1-2,1.51.26.26,0,0,0,.27.45l.12-.07,0,.75c-.21.16-.42.31-.63.48a.21.21,0,0,0-.25.21c-.12.1-.24.22-.36.33l0-.6a.29.29,0,0,0-.31-.38l-4.88.71c-.34,0-.2.56.14.51l4.53-.66,0,.9a.24.24,0,0,0,0,.26c0,1.21.09,2.42.14,3.63l-.8.34a9.67,9.67,0,0,1,.18-4.41.26.26,0,0,0-.51-.14,10.26,10.26,0,0,0-.34,3.44h0l-.09.06c-.12-1.08-.24-2.15-.37-3.23,0-.33-.56-.34-.52,0l.4,3.53a4.37,4.37,0,0,1-1.3.45l-.2-1.12.68-.24c.32-.11.18-.62-.14-.51L22.33,79c-.32.12-.18.63.14.51l.78-.27c.1.44.21.88.32,1.31a.27.27,0,0,0,.33.19.27.27,0,0,0,.18-.33l-.33-1.34,1.13-.4.19,1a4.56,4.56,0,0,1-.52,0c-.34,0-.34.51,0,.53s.41,0,.61,0l0,.16a.28.28,0,0,0,.33.19.28.28,0,0,0,.18-.33l0-.09a5.08,5.08,0,0,0,1.27-.4l.08.64A32.16,32.16,0,0,1,14,82.63,31,31,0,0,1,8.69,82a.25.25,0,0,0-.16,0H8.47l-.19,0a.27.27,0,0,0-.22,0,10.07,10.07,0,0,1-4.48-1.05l2-1.84v2a.26.26,0,0,0,.52,0V78.56l.27-.25a21.44,21.44,0,0,0,.43,2.78c.08.33.59.19.51-.14a20.19,20.19,0,0,1-.45-3.09l.45-.42c.25-.23-.13-.6-.38-.37l-.11.1c0-.7,0-1.39,0-2.09h0l.72.2-.18,5.2c0,.34.52.34.53,0l.18-5.08a18.87,18.87,0,0,0,4.17.43,19.6,19.6,0,0,0,3.33-.35c.33-.06.19-.57-.14-.51A18.58,18.58,0,0,1,4.11,73.54c-.38-.18-.75-.38-1.11-.58a.26.26,0,0,0-.43-.26l-.44-.26a.24.24,0,0,0-.06-.25.27.27,0,0,0-.35,0l-.44-.3c-.27-.2-.54.26-.26.46l.36.23-.57.69c0-.69,0-1.37,0-2.06h.49a.28.28,0,0,0,.21-.1,18.42,18.42,0,0,0,3.09,1.59c.07.13.14.26.22.39A.27.27,0,0,0,5.35,73a28.38,28.38,0,0,0,8.06,1.57,54.49,54.49,0,0,0,7.34-.18c1.23-.1,2.46-.22,3.69-.35a30.23,30.23,0,0,0,3.29-.44c2-.45,4.17-1.65,4.66-3.84.08-.33-.43-.47-.51-.14a4.27,4.27,0,0,1-2.33,2.78.41.41,0,0,0,.05-.09.25.25,0,0,0,.17-.07,4.19,4.19,0,0,0,1.15-2.1.26.26,0,0,0-.19-.32h0a.34.34,0,0,0-.06-.12.28.28,0,0,0-.38,0h0a8.6,8.6,0,0,0-.26-2.2.22.22,0,0,0,0-.18.26.26,0,0,0-.11-.14c-.08-.27-.16-.53-.26-.79s-.63-.17-.51.14.17.48.24.73l-1,.36a4.66,4.66,0,0,0-.75-.91,5.59,5.59,0,0,0,1.75-1.3.26.26,0,0,0-.37-.37,5.12,5.12,0,0,1-2.43,1.51.26.26,0,0,0,.14.51c.13,0,.25-.09.37-.13a4.29,4.29,0,0,1,1.5,3.41c-.1,0-.2,0-.31,0l-.06-1.18c0-.34-.55-.34-.53,0L27.89,72a.26.26,0,0,0-.12.26.24.24,0,0,0,.16.21.26.26,0,0,0,.49,0h0a.21.21,0,0,0,0,.22s.06.07.1.1c-.24.08-.49.16-.74.22-.43.1-.86.17-1.29.23a2.44,2.44,0,0,0,.81-2.74.27.27,0,0,0-.32-.18.26.26,0,0,0-.19.32,1.94,1.94,0,0,1-.64,2.21.27.27,0,0,0-.09.36.24.24,0,0,0,.09.08l-1.62.18c-1.14.12-2.29.23-3.43.33-1.63.14-3.26.24-4.9.26a.26.26,0,0,0,.11-.21.27.27,0,0,0-.26-.27l-1.42-.12a.29.29,0,0,0-.2-.09h-.54a.27.27,0,0,0-.18.08.26.26,0,0,0,.18.45H14a.25.25,0,0,0,.12,0l1.34.12a32.29,32.29,0,0,1-7.58-.86l-.41-.12a2.38,2.38,0,0,1-.82-2,.27.27,0,0,0-.53,0,2.84,2.84,0,0,0,.43,1.68l-.3-.1a.27.27,0,0,0,0-.35,1.37,1.37,0,0,1-.17-.17A1.06,1.06,0,0,1,5.92,72c0-.07-.07-.14-.09-.18a2.33,2.33,0,0,1-.07-.25v-.08a.53.53,0,0,1,0-.13,1,1,0,0,1,0-.24v0h0s0,0,0-.06l0-.12a1.38,1.38,0,0,1,.08-.2.27.27,0,0,0-.09-.37.26.26,0,0,0-.36.1,1.94,1.94,0,0,0,.19,2c-.19-.07-.39-.13-.58-.21a3.33,3.33,0,0,1,0-2.5.26.26,0,0,0-.51-.14,3.6,3.6,0,0,0-.26,1.59,2,2,0,0,1,0-2.14c.18-.28-.28-.55-.46-.26a2.49,2.49,0,0,0-.35,1.44,2.27,2.27,0,0,1,0-2.12.29.29,0,0,0,.13,0,.28.28,0,0,0,.18-.33,2.45,2.45,0,0,1,0-.81,2.55,2.55,0,0,1,.3-.81A.26.26,0,0,0,4,65.83a.32.32,0,0,0-.17,0c.08-.09.15-.18.24-.27s-.14-.62-.38-.37a4.62,4.62,0,0,0-1.23,2.46A4.6,4.6,0,0,0,1.8,68.9a.16.16,0,0,0-.1,0,.26.26,0,0,0-.26.26L1.32,70.4a.27.27,0,0,0-.23.28H.26a.26.26,0,0,0-.26.26.27.27,0,0,0,.26.26H.32Q.25,75,.15,78.85v0a.26.26,0,0,0,.08.19A10.38,10.38,0,0,0,2.67,81l-.43.39a.28.28,0,0,0,.06.42l.33.2a.26.26,0,0,0,.26-.46h0l.29-.27a10.73,10.73,0,0,0,5.26,1.17,32.73,32.73,0,0,0,19.94-2l.71-.33a.26.26,0,0,0,.44-.18v0l.75-.38v0c0,.33.57.34.53,0l0-.31a32.12,32.12,0,0,0,2.76-1.67.28.28,0,0,0,0-.42A.25.25,0,0,0,33.6,77.05ZM6.1,74.85l.25.09a.46.46,0,0,0,0,.14c0,.27,0,.54,0,.81a.22.22,0,0,0,0-.08.21.21,0,0,0-.13-.07Zm0,1.49.13-.16a.41.41,0,0,0,0-.09c0,.51,0,1,0,1.55l-.22.2Zm23.42-8.59A8.62,8.62,0,0,1,29.74,70a4,4,0,0,1-.58.21,4.86,4.86,0,0,0-.47-2.16Zm-1.11,4.09c0-.33,0-.66-.05-1a2.43,2.43,0,0,0,.27,0,.26.26,0,0,0,.17.17.28.28,0,0,0,.33-.19v0a3.62,3.62,0,0,0,.56-.17.76.76,0,0,1,0,.15c0,.22.19.29.36.22a3.68,3.68,0,0,1-.58.78.26.26,0,0,0-.29-.13ZM3.09,70.71a.28.28,0,0,0,.42.05,2.35,2.35,0,0,0,.62,1.12c-.44-.2-.87-.41-1.3-.64a.25.25,0,0,0,0-.25.47.47,0,0,0-.05-.1v0h0l-.06-.18s0-.06,0-.1,0-.06,0-.07a1.62,1.62,0,0,1,0-.36v-.07a.29.29,0,0,1,0-.09l0-.11A2.48,2.48,0,0,0,3.09,70.71Zm-1.24-.42A.26.26,0,0,0,2.13,70a4.09,4.09,0,0,1,.33-1.42.29.29,0,0,0,.24,0,2.86,2.86,0,0,0-.06.58.28.28,0,0,0-.27.13,1.93,1.93,0,0,0-.22,1.18h0l-.29-.05ZM.79,74a.58.58,0,0,0,.14,0A.4.4,0,0,0,1.19,74a.36.36,0,0,0,.15-.39.18.18,0,0,0,0-.09l.52-.62.39.23L.77,74.67Zm2.29,6.64a10,10,0,0,1-2.4-1.85c0-1.16,0-2.31.08-3.47A.24.24,0,0,0,1,75.24l1.71-1.88a19.41,19.41,0,0,0,2.9,1.32v1.48l-2.64,3.4a.26.26,0,0,0,.37.37L5.58,77v1.31C4.74,79.09,3.91,79.86,3.08,80.63Zm24.45-.45-.08-.73.11-.07c0,.25.07.49.12.74Zm1.82-4.31c.14-.12.28-.24.41-.37l0,.22-.43.27Zm.14,3.44c0-.91-.07-1.81-.11-2.71l.48-.3c.06.46.12.91.17,1.37l-.27.28c-.24.23.11.59.35.38l.08.62Zm.75-4.22c.11-.1.23-.18.35-.27v.4l-.32.2Zm.26,2.11L30.35,76l.27-.17,0,1.22Zm.19,1.49-.11-.82.09-.09,0,.54a.24.24,0,0,0,.22.24Zm.43-5v.15l0,0,0-.53a.26.26,0,0,0-.06-.16c.39-.27.77-.55,1.14-.85v0a7.1,7.1,0,0,1,.2.76l-.76.44A.26.26,0,0,0,31.12,73.64Zm1.34,0c0,.15,0,.3,0,.44l-.85.53v-.48C31.91,73.91,32.18,73.75,32.46,73.59Zm-.27,4.22c-.18.12-.36.22-.54.33h0V76.8l.83-.82a8.8,8.8,0,0,1-.36,1.58A.21.21,0,0,0,32.19,77.81Zm.35-2.65-.89.9v-.87l.9-.57C32.55,74.8,32.55,75,32.54,75.16Zm.58,2.06-.43.28a9.13,9.13,0,0,0,.36-2.13.21.21,0,0,0,0-.19,8.42,8.42,0,0,0,0-.87l.09-.06a.27.27,0,0,0-.14-.5L33,73.34l.36-.19s0,0,.06-.05a37.29,37.29,0,0,1-.3,4A.2.2,0,0,0,33.12,77.22Zm.26-4.45a.27.27,0,0,0-.33-.08l-.21.11c-.05-.22-.11-.44-.18-.65a.24.24,0,0,0-.17-.17c.18-.17.37-.34.54-.52a.27.27,0,0,0,.07-.14.25.25,0,0,0,.29.23C33.39,72,33.39,72.36,33.38,72.77Z"
                  style="fill:#FFFFFF"/>
        </g>
    </g>
</svg>