<svg xmlns="http://www.w3.org/2000/svg" viewBox="0 0 29.73 58.38"><title>xadrez-peca-5</title><g id="Camada_2" data-name="Camada 2"><g id="Camada_1-2" data-name="Camada 1"><path d="M8.7,5.8a6.84,6.84,0,0,1-2.84-.92.26.26,0,0,0-.26.46,7.34,7.34,0,0,0,3.1,1c.14,0,.26-.13.26-.26A.27.27,0,0,0,8.7,5.8Z" style="fill:#010101"/><path d="M16,4.3a.27.27,0,0,0-.53,0A58.87,58.87,0,0,0,16,11.8c0,.34.55.19.5-.14A58.49,58.49,0,0,1,16,4.3Z" style="fill:#010101"/><path d="M24.48,10.31a.25.25,0,0,0,.11-.21c-.05-1.62-.09-3.24-.14-4.86A.25.25,0,0,0,24.14,5a.26.26,0,0,0,.06-.16c.05-1.08.09-2.16.13-3.24,0-.34-.51-.34-.52,0,0,1.08-.09,2.16-.14,3.24v0a5.74,5.74,0,0,1-3.23.56.23.23,0,0,0-.23,0l-.13,0-.27-1.32a.17.17,0,0,0,.08.06.33.33,0,0,0,.16,0v.17a.25.25,0,0,0,.19.25.26.26,0,0,0,.3-.12l.1-.19a.27.27,0,0,0,.28.09A.28.28,0,0,0,21.12,4l0-.11V3.87a.37.37,0,0,1,0-.11h0v0a.22.22,0,0,0,.13,0h0v.69h-.08l-.94.27a.26.26,0,1,0,.14.51L21.31,5a.29.29,0,0,0,.17-.14h0a.27.27,0,0,0,.27-.26V4.26a.26.26,0,0,0,.13-.3,2.9,2.9,0,0,1-.05-.88.89.89,0,0,0,.83-.4.27.27,0,0,0-.09-.36.28.28,0,0,0-.37.09h0a.23.23,0,0,1-.07.07l-.08,0h0a.2.2,0,0,0,0-.07v0a.08.08,0,0,1,0-.07h0l0-.07,0-.06s0,0,0,0l.05,0,.06,0A.24.24,0,0,0,22.42,2a.28.28,0,0,0-.1-.36h0a.2.2,0,0,0-.05-.09l0,0a.23.23,0,0,0-.14,0h-.13l-.1,0a.18.18,0,0,0-.09.06.22.22,0,0,0-.05.08.23.23,0,0,0,0,.11v.07a.18.18,0,0,0,.05.07l0,0a.16.16,0,0,0-.06.08V2h0a.26.26,0,0,0-.22-.25l0-.4,2.19.26a.27.27,0,0,0,.27-.26.28.28,0,0,0-.27-.27L21.11.79c-.14,0-.26.13-.26.26v0a.21.21,0,0,0,0,.12l.12,1.4a3.27,3.27,0,0,1-2,.27.21.21,0,0,0-.2-.09h-.14l-.22-.07a.25.25,0,0,0-.28.1c-1.16.06-2.32.07-3.48.06a.26.26,0,0,0,.08-.19l.12-1.62a.17.17,0,0,0,0-.13c.78,0,1.55,0,2.33,0V2.28a.26.26,0,0,0,.26.26.27.27,0,0,0,.27-.26V.39a.28.28,0,0,0-.27-.27.2.2,0,0,0-.11,0,.27.27,0,0,0-.41.22A27.63,27.63,0,0,1,10.52,0h-.11A.26.26,0,0,0,10,.25c0,.74.06,1.48.08,2.22l-1.18.22a.29.29,0,0,0-.36-.11L8.36,2a.24.24,0,0,0,0-.28l-.27-.37a.27.27,0,0,0-.33-.1.25.25,0,0,0-.16.31l.49,1.26h0A.2.2,0,0,0,8,3l-1.9-.64a.26.26,0,0,0-.32.18.28.28,0,0,0,.18.33l2,.68a.25.25,0,0,0,.3-.14h.09a3.7,3.7,0,0,0,0,.88.22.22,0,0,0-.17-.06,3.88,3.88,0,0,1-2.43-.5.23.23,0,0,0-.25,0l.07-1.93a.25.25,0,0,0,0-.13h.62a.28.28,0,0,0,.27-.27.27.27,0,0,0-.27-.26H5.06a.27.27,0,0,0-.27.26.28.28,0,0,0,.27.27h0A.19.19,0,0,0,5,1.73L4.81,7.86a.27.27,0,0,0,0,.47h0l-.12,3.51c0,.34.51.34.53,0v-.53l0,.06a5.61,5.61,0,0,0,2.16,1.53.26.26,0,0,0,.32-.18.28.28,0,0,0-.18-.33A5.13,5.13,0,0,1,5.63,11a.28.28,0,0,0-.37,0l0,0,0-.45h0a10,10,0,0,0,4.86,2.18.28.28,0,0,0,.32-.35c.16.15.48.1.45-.16a30.34,30.34,0,0,1-.11-4l.31-.06c.33-.08.19-.59-.14-.51l-.15,0,0-.55L11.2,7c.31-.12.18-.63-.14-.5l-.19.06c0-.17,0-.34,0-.51,0-.33-.49-.33-.53,0s0,.45-.05.67a5.42,5.42,0,0,1-4.46-.89c-.28-.2-.54.26-.27.46a5.9,5.9,0,0,0,4.68,1c0,.17,0,.34,0,.51a7.24,7.24,0,0,1-4.64-.92.23.23,0,0,0-.24,0l.09-2.72a4.35,4.35,0,0,0,2.69.57.32.32,0,0,0,.22-.13c0,.16.07.31.11.47a.32.32,0,0,0,.08.24,0,0,0,0,0,0,0,.26.26,0,0,0,.32.19l.07,0a5.61,5.61,0,0,0,3.12.11.27.27,0,0,0,0-.52V3.42a.28.28,0,0,0,.17.07.26.26,0,0,0,.24-.17h.2l.07,0h0a52.34,52.34,0,0,0,5.74,0,3.91,3.91,0,0,0,.76.14.29.29,0,0,0-.07.25l.35,1.75a.29.29,0,0,0,0,.31,4,4,0,0,1-2.29.31.27.27,0,0,0-.33.18.28.28,0,0,0,.19.33A4.58,4.58,0,0,0,20.32,6a6.09,6.09,0,0,0,.95,0,.36.36,0,0,0-.07.1,9,9,0,0,0-.34,1.12,7.82,7.82,0,0,1-4.26.29c-.33-.07-.47.44-.14.51a8.32,8.32,0,0,0,4.29-.21c0,.24-.06.48-.07.72A9.31,9.31,0,0,1,17,8.64c-.34-.06-.48.45-.15.51a10,10,0,0,0,3.82-.09,7.52,7.52,0,0,0,.2,1.7,8.78,8.78,0,0,1-3.67.52c-.34,0-.34.51,0,.53A9.33,9.33,0,0,0,21,11.27c.11.29.59.15.5-.16v0l.35-.15,0,.19c-.07.33.44.48.51.14s.06-.42.1-.63c.2-.12.41-.24.6-.37s0-.65-.26-.46c-.08.06-.17.1-.25.15.06-.5.09-1,.1-1.52.17-.08.35-.15.52-.24l0,0c.08,1,.16,2,.23,3a3.65,3.65,0,0,1-2,1.09.27.27,0,0,0-.18.33.2.2,0,0,0,.12.15l0,0-5.77.35c-.34,0-.34.55,0,.53l5.82-.35a.28.28,0,0,0,.2-.12l.09,0,2.66-1.42c.3-.16,0-.62-.27-.46l-.09,0a3.68,3.68,0,0,0,.48-.75A.24.24,0,0,0,24.48,10.31ZM10.35,12.26s0,0,0,.06a.15.15,0,0,0-.12-.05,9.63,9.63,0,0,1-4.63-2.06.27.27,0,0,0-.36,0L5.32,8.6l.39.16a.27.27,0,0,0-.17.45,9.54,9.54,0,0,0,4.3,2.36c.33.08.47-.43.14-.51A8.91,8.91,0,0,1,5.93,8.85a9.33,9.33,0,0,0,4.25.57h0C10.22,10.36,10.26,11.31,10.35,12.26Zm-.12-4c0,.2,0,.4,0,.59h0A8.88,8.88,0,0,1,5.34,8l0-.71A7.75,7.75,0,0,0,10.23,8.3Zm-.15-3.14A4.6,4.6,0,0,1,9.34,5a.26.26,0,0,0-.24-.18H9a3.6,3.6,0,0,1-.09-1.6l.95-.18a.19.19,0,0,0-.05.09L9.52,4.36a.27.27,0,0,0,.19.33A.26.26,0,0,0,10,4.5l.11-.5ZM11.62.7l-.41,1.55c0-.1-.06-.21-.1-.31A.36.36,0,0,0,11,1.82l.06-1A.26.26,0,0,0,11,.62ZM12,2.9a.3.3,0,0,0,0,.21v.06a.23.23,0,0,0-.17-.08.26.26,0,0,0-.26.26V5.13a4.86,4.86,0,0,1-.93.07c0-.66.07-1.33.11-2a.29.29,0,0,0,.16-.07A6.76,6.76,0,0,1,11,4.7c0,.34.51.34.52,0a6.83,6.83,0,0,0-.07-1.43.41.41,0,0,0,.07-.11l.63-2.4h0C12.12,1.47,12.06,2.19,12,2.9Zm2.27-1.84-.13,1.62a.25.25,0,0,0,.08.18l-.84,0a.11.11,0,0,0,0-.08c.08-.5.16-1,.23-1.49l-.09,1.28a.27.27,0,0,0,.26.27.29.29,0,0,0,.27-.27L14.19.92h.12A.24.24,0,0,0,14.26,1.06Zm5.52,2.78-.06-.28a.24.24,0,0,0-.06-.11,3,3,0,0,0,.42,0,.25.25,0,0,0,0,.12v.11a.24.24,0,0,0-.24.12A.24.24,0,0,0,19.78,3.84ZM22,10.28l-.59.28a8.2,8.2,0,0,1-.17-1.63c.31-.09.61-.18.9-.29C22.07,9.19,22,9.73,22,10.28Zm-.73-1.9a6.82,6.82,0,0,1,.1-.79c.26-.11.51-.22.76-.35,0,.28,0,.56,0,.84C21.81,8.19,21.52,8.29,21.22,8.38ZM24,10.25l-.13.21c-.1-1.38-.21-2.76-.32-4.14,0-.34-.55-.34-.53,0l.11,1.43a.24.24,0,0,0-.27,0l-.24.12c0-.42,0-.83-.05-1.25s-.56-.34-.53,0v.08c-.19.1-.38.2-.58.29.07-.24.15-.49.24-.73A.2.2,0,0,0,21.64,6a6.36,6.36,0,0,0,2.29-.63c0,1.58.09,3.17.13,4.76,0,0,0,0,0,.06Z" style="fill:#010101"/><path d="M18.81,4.26a.27.27,0,0,0-.33-.19l-1.88.57a.28.28,0,0,0-.18.33.27.27,0,0,0,.32.18l1.88-.57A.26.26,0,0,0,18.81,4.26Z" style="fill:#010101"/><path d="M17,14.8a.26.26,0,0,0-.23-.38.24.24,0,0,0-.21.13l-.08,0a.27.27,0,0,0,0,.37l0,0,0,.06a.16.16,0,0,1,0,.07h0v0a.24.24,0,0,1,0,.08s0,.06,0,.07v.22c0,.05,0,.09,0,.14l0,0a.25.25,0,0,1,0,.07l0,0h0l-.05.06a.27.27,0,0,0,0,.38.27.27,0,0,0,.37,0A1.19,1.19,0,0,0,17,14.8Z" style="fill:#010101"/><path d="M16.6,15.13Z" style="fill:#010101"/><path d="M14.12,13.74Z" style="fill:#010101"/><path d="M21.76,13.36c-.23-.24-.61.13-.37.38A1.56,1.56,0,0,1,21.3,16,2.74,2.74,0,0,0,20,13.4a.27.27,0,0,0-.27.46,2.17,2.17,0,0,1,1,2.11.29.29,0,0,0,.14.3,1.53,1.53,0,0,1-.27.11.24.24,0,0,0-.18.26.28.28,0,0,0-.17-.07l-.26,0s0,0,0,0a6.15,6.15,0,0,0-.88-3c-.18-.29-.64,0-.46.26a5.49,5.49,0,0,1,.81,2.69.3.3,0,0,0,0,.1h0a3.92,3.92,0,0,0-.91-2.58.26.26,0,0,0-.37,0,.27.27,0,0,0,0,.37A3.32,3.32,0,0,1,19,16.75l-1.08.14a.36.36,0,0,0-.18.07,42.31,42.31,0,0,1-9-.51l0,0a.27.27,0,0,0-.09-.37,1,1,0,0,1-.27-.16,1.9,1.9,0,0,1-.2-.22A1.82,1.82,0,0,1,8,15.39c0-.05,0-.11,0-.16s0-.06,0-.09v-.05a1.09,1.09,0,0,1,0-.36,2,2,0,0,0,.91,1.41.23.23,0,0,0,.26,0,.27.27,0,0,0,.33-.38,2.67,2.67,0,0,1,0-2.31.27.27,0,0,0,0-.12,11.34,11.34,0,0,0,1.73.28l0,.33a.3.3,0,0,0,0,.21l0,0-.49.12a.25.25,0,0,0-.38,0,1.88,1.88,0,0,0-.12.18l-.12,0a.27.27,0,0,0-.14.11,1.72,1.72,0,0,1,.33-.73.27.27,0,0,0-.46-.27A2.2,2.2,0,0,0,9.69,16a.26.26,0,0,0,.45-.26,1.72,1.72,0,0,1-.22-1,.25.25,0,0,0,.14.2,1.39,1.39,0,0,0,.06.4,1.46,1.46,0,0,0,.88.89c1,.39,2.07-.21,3.11-.13.33,0,.33-.5,0-.52-.88-.08-1.72.35-2.59.24a1.06,1.06,0,0,1-.82-.48.78.78,0,0,1-.1-.52,9.6,9.6,0,0,1,2.11-.41.28.28,0,0,0,.17.07.33.33,0,0,0,.19-.08h0a9.08,9.08,0,0,1,3,.37c.31.09.44-.35.19-.49a1,1,0,0,0-.66-1.23l-.07,0a.24.24,0,0,0-.2,0,.26.26,0,0,0-.12.15L15,13.8a.26.26,0,0,0,0,.21l.06.07-.25,0a.28.28,0,0,0,0-.09,1.24,1.24,0,0,0-1.18-.88h-.07a.28.28,0,0,0-.2.25h0v.27a.19.19,0,0,0,0,.1.22.22,0,0,0,.05.08.18.18,0,0,0,.09.06.16.16,0,0,0,.1,0h.07a.25.25,0,0,0,.12-.07.35.35,0,0,0,.07-.15h0l.1.06.06,0h0l.09.09,0,0,0,0,0,.07a10.48,10.48,0,0,0-1.12,0l.09-.73A.25.25,0,0,0,13.2,13a.26.26,0,0,0-.19-.08.23.23,0,0,0-.18.08.24.24,0,0,0-.06.09c-.33,0-.66,0-1,0a.35.35,0,0,0,0-.2.33.33,0,0,0-.16-.12.28.28,0,0,0-.2,0,.22.22,0,0,0-.12.16l0,.09a11.12,11.12,0,0,1-2.47-.48c-.25-.08-.38.2-.3.38a.21.21,0,0,0-.08.06c-.05.06-.09.14-.14.21A.27.27,0,0,0,8,13.07a.3.3,0,0,0-.23.15h0a1.25,1.25,0,0,0-.51,1.39.28.28,0,0,0,.2.18,1.75,1.75,0,0,0,.94,1.71c-.14.13-.14.39.09.43a44.56,44.56,0,0,0,5.63.57h0a.27.27,0,0,0,.08.19l.54.54a.29.29,0,0,0,.18.07.29.29,0,0,0,.19-.07.27.27,0,0,0,.08-.19.33.33,0,0,0-.08-.19l-.34-.34a41.88,41.88,0,0,0,4.19-.12.24.24,0,0,0,.23-.16l1.13-.15a.26.26,0,0,0,.26-.26.23.23,0,0,0,.23.05,2.11,2.11,0,0,0,1-3.53Zm-6.33.74a.33.33,0,0,0,.12-.16l0-.2,0,0,0,0,0,.09s0,0,0,0,0,0,0,.06a.28.28,0,0,1,0,.13s0,0,0,.07l-.36-.09Zm-3.78,0,.06-.44a8.17,8.17,0,0,0,1,0l0,.32c-.34,0-.68.07-1,.13Zm-3.17,0a.5.5,0,0,0,.06-.24h0a1.33,1.33,0,0,1,.25-.45.26.26,0,0,0,.05-.25l.13,0a3.25,3.25,0,0,0-.22,2.1A1.62,1.62,0,0,1,8.48,14.11Z" style="fill:#010101"/><path d="M18,14c-.15-.3-.61,0-.45.27a3.56,3.56,0,0,1,.36,2.22.28.28,0,0,0,.19.33.26.26,0,0,0,.32-.19A4.14,4.14,0,0,0,18,14Z" style="fill:#010101"/><path d="M19.35,18.6H18.14a.27.27,0,0,0-.26.27.26.26,0,0,0,.26.26h1.21a.27.27,0,0,0,.27-.26A.28.28,0,0,0,19.35,18.6Z" style="fill:#010101"/><path d="M19.08,44.78A3,3,0,0,0,17.71,44a10.24,10.24,0,0,0-2-.44,11.32,11.32,0,0,0-4.1.22c-.33.07-.19.58.14.51a10.41,10.41,0,0,1,6.15.34,1.51,1.51,0,0,1,.94.75c.17.48-.22.91-.57,1.19a7,7,0,0,1-2.61,1.22,13.57,13.57,0,0,1-6.24-.11,21.21,21.21,0,0,1-2.94-.78c-.68-.25-1.56-.83-1.14-1.68S7.07,44,8,43.82a9.91,9.91,0,0,1,3.64-.16c.33.05.47-.46.14-.51a10.79,10.79,0,0,0-3.63.09,5.45,5.45,0,0,0-2.89,1.29,1.55,1.55,0,0,0,0,2.25A6.17,6.17,0,0,0,8,47.9a16.36,16.36,0,0,0,7.32.54,8.28,8.28,0,0,0,3.12-1.31C19.19,46.59,19.81,45.62,19.08,44.78Z" style="fill:#010101"/><path d="M22.22,42.21s0,0-.06,0c.44-.17.87-.35,1.32-.51s.18-.62-.14-.51A43.76,43.76,0,0,0,19,43c-.31.15,0,.6.26.46.46-.22.93-.43,1.4-.63a.26.26,0,0,0,.06.18,7.47,7.47,0,0,1,1.66,4.78.27.27,0,0,0,.53,0,8,8,0,0,0-1.81-5.14l.74-.31a.29.29,0,0,0,.07.38,5.5,5.5,0,0,1,2.12,4.8c0,.34.5.33.53,0A6,6,0,0,0,22.22,42.21Z" style="fill:#010101"/><path d="M26.68,39.6h0l-.05,0c-.25-.19-.52.2-.32.41l.33.36a.25.25,0,0,0,.19.08,4.7,4.7,0,0,1,1.25,4.41c-.08.33.43.47.51.14A5.22,5.22,0,0,0,26.68,39.6Z" style="fill:#010101"/><path d="M29.47,45.9h-.1l-.16,0h0l-.07,0L29,45.71h0l-.06-.05-.11-.12,0,0h0a.21.21,0,0,0,0-.06l-.08-.15a.22.22,0,0,0-.15-.12.3.3,0,0,0-.21,0,.33.33,0,0,0-.12.16.28.28,0,0,0,0,.2,1.23,1.23,0,0,0,.38.49.26.26,0,0,0-.1.2l0,1c-.57.41-1.16.79-1.76,1.14v-.08a.09.09,0,0,1,0-.05l0,0a.26.26,0,0,0-.09-.36.28.28,0,0,0-.37.09.79.79,0,0,0,0,.7A20.29,20.29,0,0,1,22,50.4a.24.24,0,0,0,.15-.23.26.26,0,0,0-.26-.27h-.81a.27.27,0,1,0,0,.53H22a20.16,20.16,0,0,1-5.3.78.27.27,0,0,0,0,.53,20.73,20.73,0,0,0,5.9-.94l-.12,1.67a.27.27,0,0,0,.53,0c0-.59.08-1.17.13-1.76a.25.25,0,0,0,0-.07,20.41,20.41,0,0,0,3.49-1.53.67.67,0,0,0,.34.1.25.25,0,0,0,.26-.26.25.25,0,0,0-.05-.15c.44-.26.87-.54,1.29-.83l-.06,1.31a.22.22,0,0,0,0-.1.27.27,0,0,0-.36-.09l-2.15,1.46V50c0-.34-.54-.34-.53,0,0,1.31.07,2.61.1,3.92,0,.33.54.34.53,0v-.12a.27.27,0,0,0,.15,0l2.14-.7,0,.59c-.26.18-.54.34-.81.51a8.57,8.57,0,0,1-3.14.53c-.34,0-.34.52,0,.53a8.93,8.93,0,0,0,1.37-.09,25.27,25.27,0,0,1-7.34,2.34A26.14,26.14,0,0,1,6.81,56.8,24.14,24.14,0,0,1,.88,54.14a.26.26,0,0,0-.27.45,25.15,25.15,0,0,0,11.06,3.67,26.54,26.54,0,0,0,11.62-1.49,25.2,25.2,0,0,0,4.28-2.07l.23-.08a.33.33,0,0,0,.17-.16l.28-.18a.27.27,0,0,0,.42-.21V54l.44-.3c.27-.19,0-.65-.27-.45a.71.71,0,0,0-.14.1q.12-2.94.25-5.86a.33.33,0,0,0,0-.14l.05-1a1.42,1.42,0,0,0,.46.12.27.27,0,0,0,0-.53Zm-1.26,6.65-2.3.77h0l-.06-2.16,2.39-1.63a.31.31,0,0,0,.13-.24C28.3,50.38,28.26,51.47,28.21,52.55Z" style="fill:#010101"/><path d="M28.77,45.51Z" style="fill:#010101"/><path d="M24.42,41.05c-.24-.23-.62.14-.37.37a5.93,5.93,0,0,1,1.8,3.92A7,7,0,0,0,23.71,42c-.25-.22-.63.15-.37.38a6.4,6.4,0,0,1,2.11,3.51.25.25,0,0,0,.39.14,1.83,1.83,0,0,1,0,.33c0,.33.49.33.53,0A6.39,6.39,0,0,0,24.42,41.05Z" style="fill:#010101"/><path d="M21.9,48.14a7.05,7.05,0,0,0-1.8-4.79c-.23-.25-.6.12-.37.38a6.49,6.49,0,0,1,1.64,4.41.25.25,0,0,0,.07.18l-2.06.37.86-.26a.26.26,0,0,0-.14-.51l-1.37.41v-.86a.27.27,0,1,0-.53,0v1l-.39.11a.26.26,0,0,0-.14.39l-1.07.19c-.33.06-.19.57.14.51l1.54-.27a.28.28,0,0,0,.17.07.3.3,0,0,0,.23-.14l2.91-.52c.24,0,.23-.31.09-.44A.25.25,0,0,0,21.9,48.14Z" style="fill:#010101"/><path d="M25.86,48.62s0,0,0,0h0Z" style="fill:#010101"/><path d="M24.91,49h0Z" style="fill:#010101"/><path d="M28.32,47.24h0l0,0s0,0,0,0h0l0,0h0v0s0,0,0,0l0,0v0s0,0,0-.06a.11.11,0,0,0,0,0v-.09h0s0,0,0,0,0,0,0-.06h0v0s0,0,0,0,0,0,0,0l0,0a.26.26,0,0,0,0-.37.27.27,0,0,0-.34,0l.13-.19a.26.26,0,0,0,0-.21.27.27,0,0,0,.14-.28,8,8,0,0,0-2.53-4.82c-.25-.23-.63.15-.38.38a7.5,7.5,0,0,1,2.4,4.57.26.26,0,0,0-.11.1l-.4.61h0a.24.24,0,0,0-.18-.07.26.26,0,0,0-.19.07l0,.06a.2.2,0,0,0,0,.13v.05a.22.22,0,0,0-.29,0A21.46,21.46,0,0,1,20,49.32a.29.29,0,0,0,0-.09L20.18,48a.26.26,0,0,0-.26-.26.27.27,0,0,0-.27.26l-.12,1.22a.24.24,0,0,0,.08.19,22.12,22.12,0,0,1-3.13.48A23.42,23.42,0,0,1,6.19,48.44c-.41-.16-.82-.33-1.22-.52a.25.25,0,0,0,.08-.18v-.68a.26.26,0,0,0-.26-.26.26.26,0,0,0-.26.24.49.49,0,0,0,0-.11.3.3,0,0,0-.15-.12.3.3,0,0,0-.21,0A.25.25,0,0,0,4,47L4,47.42c-.17-.08-.33-.18-.5-.28l0-.22c0-.32-.43-.33-.51-.05-.38-.22-.75-.45-1.11-.7a.26.26,0,0,0,0-.41.25.25,0,0,0,.07-.18,6.67,6.67,0,0,1,2.21-5,.25.25,0,0,0,.08-.15l0,0a7.83,7.83,0,0,0-1.89,5.63c0,.34.55.34.53,0a7.25,7.25,0,0,1,1.73-5.26.31.31,0,0,0,.07-.14l.48.25a6.11,6.11,0,0,0-2.07,5.15c0,.34.56.34.53,0,0-.14,0-.29,0-.43a.27.27,0,0,0,.3-.19,9.18,9.18,0,0,1,2-3c.24-.24-.14-.62-.38-.37a9.66,9.66,0,0,0-1.86,2.66,5.58,5.58,0,0,1,2-3.59l.28.14,1.1,1.11v.27a.27.27,0,0,0,.27.26.25.25,0,0,0,.18-.08l0,0a.26.26,0,0,0,.37-.37l-.31-.32V41.8a.29.29,0,0,0,0-.09,17.91,17.91,0,0,0,5.23,1.44,17.37,17.37,0,0,0,9-1.43,16.82,16.82,0,0,0,2.32-1.27.27.27,0,0,0,0,.12.27.27,0,0,0,.27.26,1.85,1.85,0,0,0,1.78-1.38.26.26,0,0,0-.18-.32h-.06l.2-.16a.25.25,0,0,0-.13-.43,2.38,2.38,0,0,0-1.68-2,.33.33,0,0,0-.17,0A64.1,64.1,0,0,1,21,21.85c-.13-1.44-.21-2.88-.24-4.33a.27.27,0,0,0-.48-.16L19.76,17a.26.26,0,0,0-.36.1.27.27,0,0,0,.09.36l.54.36h0l-.88.06a0,0,0,0,0,0,0l-1.22-.94a.25.25,0,0,0-.18-.08.27.27,0,0,0-.19.45l.83.65-1,.06-.37-.5a.23.23,0,0,0-.07-.07.19.19,0,0,0-.09-.05.24.24,0,0,0-.2,0,.22.22,0,0,0-.12.16.24.24,0,0,0,0,.2l.21.27-.42,0-.75-.87a.26.26,0,0,0-.37.37l.54.63a.23.23,0,0,0-.26.25L16.21,35l.19,4.67a.23.23,0,0,0,.1.2,13.76,13.76,0,0,1-6.5-.36.2.2,0,0,0,0-.11l1.2-16.17c.11-1.53.22-3.06.34-4.6h0a11,11,0,0,0,2.93.2c.34,0,.34-.55,0-.53h-.35l-.64-.89a.29.29,0,0,0-.16-.13.35.35,0,0,0-.2,0,.26.26,0,0,0-.09.36l.45.64-.4,0a.13.13,0,0,0,0-.06.29.29,0,0,0-.07-.18l-.69-.81a.25.25,0,0,0-.18-.08.26.26,0,0,0-.19.08.27.27,0,0,0-.08.19.36.36,0,0,0,.08.19l.53.62-.61-.09a.23.23,0,0,0-.06-.12l-.81-1a.27.27,0,0,0-.37,0,.28.28,0,0,0,0,.38l.45.52a11,11,0,0,1-1.56-.53c-.25-.1-.57.21-.32.42l.34.28.06,0a.27.27,0,0,0-.13.2l-.1.82L8.77,19a.24.24,0,0,0-.19,0l0-.14.11-.84a.25.25,0,0,0,0-.13l.06-.69c0-.34-.5-.33-.53,0,0,.54-.09,1.08-.14,1.61L6.36,31.91c-.07.55-.15,1.1-.22,1.65l-.07-.11a.27.27,0,0,0-.46.27A5.13,5.13,0,0,0,6,34.3l-.18,1.44,0,.06a.25.25,0,0,0,0,.12,2.5,2.5,0,0,0,0,.29.28.28,0,0,0,.42.28,3.4,3.4,0,0,0,1.26.92l0,.61c0,.34.55.34.53,0a19.38,19.38,0,0,1,0-2.41l.34.09a17.83,17.83,0,0,0,0,3.1,9.88,9.88,0,0,1-2.72-2c-.23-.25-.61.12-.37.37a10.41,10.41,0,0,0,3.15,2.24.28.28,0,0,1,0,.09.28.28,0,0,0,.5.14,13,13,0,0,0,2.66.76,16.63,16.63,0,0,0,7.85-.72,28.48,28.48,0,0,0,3.63-1.48.28.28,0,0,0-.08.12.26.26,0,0,0,0,.21.26.26,0,0,0,.36.09l.9-.38-.13.12-.07.06h0a2.14,2.14,0,0,1-.32.2l-.08,0h0l-.17.07-.17,0-.1,0h-.05a.27.27,0,0,0-.26.26c0,.13.12.29.26.27a2.67,2.67,0,0,0,1.54-.75.29.29,0,0,0,0-.38.31.31,0,0,0-.29-.06.21.21,0,0,0,.08-.11.28.28,0,0,0,0-.2.24.24,0,0,0-.16-.12H24.2a.18.18,0,0,0,0-.1.26.26,0,0,0-.07-.19.33.33,0,0,0-.19-.08l-.14.05a.28.28,0,0,0-.28,0,25.41,25.41,0,0,1-6.64,2.37.23.23,0,0,0,0-.13l-.69-16.51-.18-4.5,4-.26a.27.27,0,0,0,.22-.14A64.15,64.15,0,0,0,21,25.8a.22.22,0,0,0-.27.06,3.55,3.55,0,0,1-.46.41c-.08-.52-.16-1-.26-1.56l.41-.06c.14,0,.22-.2.18-.32a.28.28,0,0,0-.32-.19l-.36.05c-.1-.5-.2-1-.31-1.51a2.37,2.37,0,0,0,.64-.4c.25-.23-.12-.61-.37-.38a1.66,1.66,0,0,1-.39.26c-.12-.52-.25-1-.39-1.55l.44,0a.26.26,0,0,0,.26-.26.27.27,0,0,0-.26-.27h-.15a.24.24,0,0,0,0-.45l-.76-.34a.27.27,0,0,0-.39.3l.12.43L17.46,20c0-.19,0-.39,0-.58s-.54-.34-.53,0q.07,2.58.3,5.16a.27.27,0,0,0-.13.3.21.21,0,0,0,.17.17c.06.69.12,1.37.2,2.05h-.12a.27.27,0,0,0-.26.27.26.26,0,0,0,.26.26h.18c.07.6.14,1.2.22,1.8l-.13,0c-.34,0-.34.55,0,.53l.21,0c.08.62.18,1.24.27,1.86a.27.27,0,0,0,.07.4c.11.67.22,1.34.35,2l-.36.07a.27.27,0,0,0-.26.26c0,.13.12.29.26.27l.45-.08s0,.08,0,.13c.07.33.58.19.51-.14,0,0,0-.08,0-.12l.23-.07c0,.41,0,.82,0,1.23a16.21,16.21,0,0,1-1.83.43c-.34.06-.2.57.14.51a16.71,16.71,0,0,0,1.7-.39c0,.47,0,.93,0,1.4a14.62,14.62,0,0,1-1.58.4c-.34.06-.2.57.14.51a12,12,0,0,0,1.43-.36v.18c0,.34.52.34.53,0v-.35c.44-.15.87-.31,1.3-.5v.18c0,.34.56.34.53,0l0-.4q.61-.3,1.2-.66c.29-.17,0-.63-.26-.45l-1,.54c0-.43-.07-.86-.11-1.28.26-.12.52-.23.78-.36s0-.61-.27-.46l-.56.26-.12-1.48a5.91,5.91,0,0,0,.86-.8c.23-.25-.14-.62-.37-.37a5.23,5.23,0,0,1-.69.64.25.25,0,0,0-.36.23v0a6.55,6.55,0,0,1-1,.56c0-.62-.09-1.25-.15-1.88a4.68,4.68,0,0,0,1.89-1.37.27.27,0,0,0,0-.37.26.26,0,0,0-.37,0,4.42,4.42,0,0,1-.53.53c0-.61-.08-1.21-.14-1.82a5.32,5.32,0,0,0,.73-.69.3.3,0,0,0,.07-.19c.29,1.6.65,3.18,1.07,4.75.38,1.41.81,2.82,1.28,4.2a.28.28,0,0,0,.43.13l0,0,.14.05.07,0h0l.25.14.12.08,0,0a.12.12,0,0,1,0,.05,2,2,0,0,1,.21.2l.05.06h0l.08.12a2.15,2.15,0,0,1,.14.26l0,0,0,0s0,.08,0,.13a.57.57,0,0,1,0,.14s0,0,0,.07,0,.09,0,0a.41.41,0,0,0,.08.19A16.72,16.72,0,0,1,9,41.72a17.07,17.07,0,0,1-4.44-2.41h0a.27.27,0,0,0,.1-.36,1.22,1.22,0,0,1-.19-.49v0h0l.48.84a.26.26,0,0,0,.36.09A.27.27,0,0,0,5.4,39l-.25-.43a.25.25,0,0,0,.17,0,.22.22,0,0,0,.12-.16.24.24,0,0,0,0-.2L5,37.62s0,0-.06-.07a.2.2,0,0,0-.09,0,.28.28,0,0,0-.2,0A1.22,1.22,0,0,1,5,37.14a.27.27,0,1,0-.27-.46,1.89,1.89,0,0,0-.57,2.53.2.2,0,0,0,.08.08.3.3,0,0,0,0,.47c.24.18.49.35.74.52l-1-.54c-.3-.16-.57.3-.27.45l.1.06h0A7.2,7.2,0,0,0,1.61,44a4.92,4.92,0,0,1,2-4.19c.27-.2,0-.65-.27-.46A5.46,5.46,0,0,0,1.2,44.86s0,0,0,0a1.63,1.63,0,0,0-.62.45,1.75,1.75,0,0,0-.37.9.23.23,0,0,0,.08.18c0,1.47.09,3,.14,4.42a.26.26,0,0,0-.37.37c.13.13.26.24.4.36,0,.83.05,1.66.08,2.49,0,.34.54.34.53,0l0-.73.06,0c.31.19.63.36,1,.52l0,.29c0,.33.49.33.53,0v-.07c.4.18.8.34,1.21.48V55a.27.27,0,0,0,.53,0v-.23c.32.1.65.19,1,.27,0,.53,0,1-.07,1.58,0,.34.52.34.53,0L5.83,55a.28.28,0,0,0,0-.22c.07-1.84.15-3.67.23-5.51,0-.34-.52-.34-.53,0l-.09,2.06c-.36-.17-.73-.34-1.08-.52V49.67a6.21,6.21,0,0,0,.74.2c.33.08.47-.43.14-.5a8,8,0,0,1-.87-.26v-.88a23,23,0,0,0,6.12,1.94,24,24,0,0,0,10.59-.58,19.33,19.33,0,0,0,1.94-.67.24.24,0,0,0-.06.24,1,1,0,0,0,.44.57.94.94,0,0,0,.59.13A.28.28,0,0,0,24,50a5.89,5.89,0,0,0,.28,2.5c.1.32.61.18.51-.14A5.4,5.4,0,0,1,24.48,50a.27.27,0,0,0-.22-.25.3.3,0,0,0,.07-.25.29.29,0,0,0-.32-.19h-.12l-.13,0-.11-.06-.08-.09a.21.21,0,0,1-.06-.1v0a.3.3,0,0,0-.22-.19c.34-.13.67-.28,1-.43a.83.83,0,0,0,0,.6,1.07,1.07,0,0,0,.26.4.86.86,0,0,0,.48.2.27.27,0,0,0,.27-.26.27.27,0,0,0-.25-.26s0,0,0,0H25a.1.1,0,0,1,0,0v0l0,0s0,0,0,0h0l0,0v0a.16.16,0,0,1,0-.07v0h0l0-.07v-.14a.07.07,0,0,1,0,0v0l0-.05,0,0a.27.27,0,0,0,0-.36l.6-.31a1.15,1.15,0,0,0,0,1.15.28.28,0,0,0,.37.09.27.27,0,0,0,.09-.36s0-.05,0-.08h0v0h0v0a.53.53,0,0,1,0-.12.49.49,0,0,1,0-.17.83.83,0,0,1,0-.15s0,0,0,0l.06-.08a.31.31,0,0,0,0-.21.24.24,0,0,0-.12-.16l-.07,0c.29-.16.58-.32.86-.49a.38.38,0,0,0,.09-.09.84.84,0,0,0,.14.24.91.91,0,0,0,.24.2.83.83,0,0,0,.35.1.28.28,0,0,0,.19-.07.41.41,0,0,0,.07-.15.75.75,0,0,0,.47.38.27.27,0,0,0,.33-.18A.28.28,0,0,0,28.32,47.24ZM10.07,31.68h0a2.18,2.18,0,0,1-.72,0c0-.47.1-.95.14-1.42l.65.23h.05Zm.13-1.76c-.23-.07-.46-.16-.68-.25.05-.56.11-1.12.17-1.68l.15,0a.28.28,0,0,0,.33-.18.28.28,0,0,0-.19-.33l-.23-.05c.07-.58.13-1.15.19-1.73a2.9,2.9,0,0,0,.51,0h.06Zm.35-4.68-.1,0a3.2,3.2,0,0,1-.44,0c0-.39.09-.77.14-1.15a2.61,2.61,0,0,0,.48.05Zm.12-1.66a3.57,3.57,0,0,1-.46,0l.18-1.45a.26.26,0,1,0,.13-.51l-.06,0c.07-.5.13-1,.2-1.49a.25.25,0,0,0,.28-.13Zm-.76-5.44c.38.13.77.25,1.16.35a.2.2,0,0,0,0,.11c0,.37-.06.73-.08,1.1a.25.25,0,0,0-.17-.14l-.06,0,.09-.62c0-.34-.46-.48-.51-.14l-.09.63-.3-.08v-.12A.25.25,0,0,0,10,19v-.63a.25.25,0,0,0-.13-.23Zm-.06,1.71.3.08c-.06.48-.13,1-.19,1.43a1.61,1.61,0,0,1-.28-.17ZM9.6,21.78l.28.14L9.7,23.39a1.55,1.55,0,0,1-.29-.14Zm0,2.15c0,.39-.09.79-.14,1.18L9.18,25c.05-.4.11-.8.16-1.2ZM8.37,21.51c.06-.68.12-1.35.17-2l.09,0,.71.19-.13,1v0l-.14-.22a.27.27,0,0,0-.36-.1.29.29,0,0,0-.1.37,2.7,2.7,0,0,0,.52.65c-.07.5-.13,1-.19,1.5a2.38,2.38,0,0,1-.43-.52.25.25,0,0,0-.22-.12ZM8.22,22.9a3,3,0,0,0,.63.61c-.06.42-.11.84-.16,1.26l-.13-.06a.26.26,0,0,0-.36.09.27.27,0,0,0,.1.36,2.38,2.38,0,0,0,.31.17l-.07.55c0,.34.49.33.53,0l0-.33.32.09c-.07.55-.13,1.11-.19,1.66a3.43,3.43,0,0,1-1.31-.92.19.19,0,0,0-.12-.07C8,25.17,8.09,24,8.22,22.9Zm-.49,4a3.94,3.94,0,0,0,1.45.92c-.06.53-.11,1.06-.17,1.59a9.08,9.08,0,0,1-1.49-.9Zm-.28,9.9-.16-.09-.2-.13,0,0H7l-.09-.08a2.81,2.81,0,0,1-.35-.34l-.07-.09h0v0l0-.05-.08-.12.18-1a4.68,4.68,0,0,0,.93.58Q7.44,36.11,7.45,36.83Zm.33-3.95a3.17,3.17,0,0,1-.34-.39.27.27,0,0,0-.36-.09.26.26,0,0,0-.09.36,4,4,0,0,0,.68.74c-.06.44-.11.89-.15,1.34a4,4,0,0,1-.87-.65c.29-1.69.54-3.38.79-5.07A9.12,9.12,0,0,0,9,30l-.15,1.48-.16-.07c0-.2.1-.4.16-.6a.26.26,0,0,0-.51-.14c0,.14-.07.28-.11.42a1.6,1.6,0,0,1-.27-.25.26.26,0,1,0-.37.37,2.57,2.57,0,0,0,.49.44C7.94,32.06,7.85,32.47,7.78,32.88Zm.6,2.3L8,35.08c0-.41.07-.82.13-1.23l.36.2C8.47,34.42,8.42,34.8,8.38,35.18Zm1.46-.41L9.51,39.3l-.59-.23a19.74,19.74,0,0,1-.06-3.26l.11,0a.27.27,0,0,0,.26-.27A.26.26,0,0,0,9,35.3H8.9c0-.35.08-.7.13-1a5.29,5.29,0,0,0,.54.13.27.27,0,0,0,.31-.16Zm-.13-.91a4.39,4.39,0,0,1-.6-.15l.12-.6c.07-.34-.44-.48-.51-.14,0,.17-.07.35-.1.53a3.28,3.28,0,0,1-.37-.22c.07-.46.16-.9.27-1.35l.24.09a1.49,1.49,0,0,0,0,.21c0,.34.49.33.53,0v-.06a2.77,2.77,0,0,0,.76,0L9.9,34.06A.26.26,0,0,0,9.71,33.86ZM21.14,37c-.4.19-.82.35-1.24.5,0-.46,0-.93,0-1.39.38-.12.76-.25,1.13-.4Zm-.27-3.2L21,35.18c-.35.15-.72.28-1.09.4,0-.41,0-.83,0-1.25A6.47,6.47,0,0,0,20.87,33.82Zm-3.39-13.3,1,.06c.16.58.31,1.16.44,1.74A1.76,1.76,0,0,1,17.56,22C17.53,21.5,17.5,21,17.48,20.52Zm.25,4c-.05-.62-.1-1.24-.14-1.86a2.38,2.38,0,0,0,1.46.2c.1.48.2,1,.29,1.44Zm0,.52,1.67-.23c.11.6.21,1.21.29,1.81A4,4,0,0,1,18,27.1C17.9,26.4,17.83,25.71,17.77,25ZM18,27.63a4.75,4.75,0,0,0,1.77-.47c.06.48.11,1,.16,1.44a4.73,4.73,0,0,1-1.72.75Zm1,6.44c-.12-.63-.23-1.26-.33-1.9a4.15,4.15,0,0,0,.48-.11c.06.64.11,1.28.14,1.92Zm.61-2.73v-.06c0-.33-.57-.34-.53,0,0,.08,0,.17,0,.25a4.37,4.37,0,0,1-.52.12c-.09-.59-.18-1.19-.26-1.78A5.38,5.38,0,0,0,20,29.2c.06.62.1,1.24.13,1.86C20,31.16,19.8,31.25,19.62,31.34Zm1.26-3.54a5.44,5.44,0,0,1-.42.41c0-.45-.1-.9-.16-1.35a4.16,4.16,0,0,0,.73-.6c.09.56.17,1.12.28,1.67A.25.25,0,0,0,20.88,27.8Zm4.73,11.56,0,.08a.14.14,0,0,1,0,.06h0a1.43,1.43,0,0,1-.12.21l0,.05v0a.6.6,0,0,1-.08.08l-.09.1-.05,0,0,0,0,0-.06,0-.1.07-.11.05s-.06,0,0,0l-.06,0a1,1,0,0,1-.23.06s-.08,0,0,0h-.22C24.76,40,25.19,39.7,25.61,39.36Zm-19,1.9.61.3a.26.26,0,0,0-.16.18l-.45-.45ZM2.15,53.35,1.39,53a.25.25,0,0,0-.34.07l0-1a9.48,9.48,0,0,0,1.2.78Zm.14-1.11A8.77,8.77,0,0,1,1,51.34l0-1a5.72,5.72,0,0,0,1.39,1.3Zm.14-1.17A5.22,5.22,0,0,1,1.3,50a.26.26,0,0,0-.35-.1l0-.51c.52.35,1,.69,1.59,1ZM1,48.74l-.08,0L.83,46.26a.29.29,0,0,0,0-.14h0s0,0,0,0a21.89,21.89,0,0,0,2.09,1.35l-.12.91a7.74,7.74,0,0,1-1.31-1.05c-.25-.24-.62.13-.38.37A8.45,8.45,0,0,0,2.7,48.91l-.11.87C2.05,49.45,1.51,49.11,1,48.74ZM3.8,54.06c-.39-.14-.78-.29-1.15-.46l.06-.53a11.37,11.37,0,0,0,1.09.45Zm0-1.1a10.37,10.37,0,0,1-1-.45l.07-.57a5.43,5.43,0,0,0,1,.38Zm0-1.19a6,6,0,0,1-.9-.39l.1-.74c.26.15.54.29.81.43Zm0-1.29-.75-.41.11-.89c.21.11.43.2.65.29C3.85,49.81,3.84,50.14,3.84,50.48Zm0-2.47v.9l-.59-.28.11-.92.5.27S3.87,48,3.87,48Zm1.45,6.51c-.34-.08-.67-.17-1-.28v-.55a7.19,7.19,0,0,0,.8.2.24.24,0,0,0,.22,0Zm.11-2.67-.07,1.58a.19.19,0,0,0-.09,0,7,7,0,0,1-.93-.24v-.73a.26.26,0,0,0,0-.48v-.59C4.71,51.52,5.07,51.69,5.43,51.85Z" style="fill:#010101"/><polygon points="28.11 46.87 28.11 46.87 28.11 46.86 28.11 46.86 28.11 46.87" style="fill:#010101"/><path d="M28.13,46.79h0v0Z" style="fill:#010101"/><path d="M28.25,47.21h0Z" style="fill:#010101"/><path d="M28.19,47.15h0v0h0Z" style="fill:#010101"/><path d="M28.08,50.84a.26.26,0,0,0-.36-.09l-.3.17a11.23,11.23,0,0,1,.15-1.63c.05-.33-.46-.47-.51-.14a12.16,12.16,0,0,0-.17,2.08l-.79.46a.26.26,0,0,0-.09.36.27.27,0,0,0,.36.1l.54-.32a10.86,10.86,0,0,0,.27,2.05c.07.33.58.19.51-.14a10.86,10.86,0,0,1-.28-2.2L28,51.2A.26.26,0,0,0,28.08,50.84Z" style="fill:#010101"/><path d="M21.51,51.39a.26.26,0,0,0-.26.26v.81a.27.27,0,0,0,.53,0v-.81A.26.26,0,0,0,21.51,51.39Z" style="fill:#010101"/><path d="M8.81,42.4a.41.41,0,0,0-.05-.09.19.19,0,0,0-.08-.07l-.06,0a.17.17,0,0,0-.14,0l-.06,0a.47.47,0,0,0-.1.1l-.13.27a.35.35,0,0,0,0,.2.2.2,0,0,0,.05.09.23.23,0,0,0,.07.07l.06,0a.19.19,0,0,0,.15,0l.06,0a.28.28,0,0,0,.09-.1l.14-.27a.16.16,0,0,0,0-.09A.21.21,0,0,0,8.81,42.4Z" style="fill:#010101"/><path d="M9,50.58l-1-.09a1,1,0,0,0-.57,0,.27.27,0,0,0,.07.52l.34,0,.06,0a.24.24,0,0,0,.27,0l.79.08a.27.27,0,0,0,0-.53Z" style="fill:#010101"/><path d="M10.72,50.44a.27.27,0,0,0,0,.53A.27.27,0,0,0,10.72,50.44Z" style="fill:#010101"/><path d="M13.41,51.06a.28.28,0,0,0-.12-.16.28.28,0,0,0-.2,0l-.38.13a.22.22,0,0,0-.05-.08l-.08-.05a.2.2,0,0,0-.11,0H12.4a.24.24,0,0,0-.11.06.29.29,0,0,0-.08.19v.27a.3.3,0,0,0,0,.1.18.18,0,0,0,.06.09l.08,0a.12.12,0,0,0,.1,0h.08a.41.41,0,0,0,.11-.07s0,0,0,0h.12l.41-.14a.26.26,0,0,0,.15-.12A.24.24,0,0,0,13.41,51.06Z" style="fill:#010101"/><path d="M7.59,54.78a.27.27,0,0,0-.36.09A2.08,2.08,0,0,0,7,56.57a.26.26,0,0,0,.32.19.28.28,0,0,0,.19-.33,1.05,1.05,0,0,1,0-.19v-.12a.67.67,0,0,1,0-.2V55.8h0a3.58,3.58,0,0,1,.09-.35l0,0h0l0-.09.1-.17A.26.26,0,0,0,7.59,54.78Z" style="fill:#010101"/><path d="M8.7,55.57a.26.26,0,0,0-.27.26v.68a.26.26,0,0,0,.27.26A.27.27,0,0,0,9,56.51v-.68A.26.26,0,0,0,8.7,55.57Z" style="fill:#010101"/><path d="M10.67,56.46a.27.27,0,0,0-.38,0,.36.36,0,0,0-.07.18h0v0s0,0,0,.07l0,0,0,0-.06,0-.08,0h-.1l0,0,0,0s-.07-.05-.11-.07l0-.19a.24.24,0,0,0,0-.2.22.22,0,0,0-.15-.12.26.26,0,0,0-.21,0,.28.28,0,0,0-.12.16l-.12.41a.34.34,0,0,0,0,.2.24.24,0,0,0,.16.12h.11l0,0a.66.66,0,0,0,.56.22.84.84,0,0,0,.55-.26.83.83,0,0,0,.16-.4A.3.3,0,0,0,10.67,56.46Z" style="fill:#010101"/></g></g></svg>